<?xml version="1.0" encoding="UTF-8"?>
<svg width="90px" height="88px" viewBox="0 0 90 88" version="1.1" xmlns="http://www.w3.org/2000/svg" xmlns:xlink="http://www.w3.org/1999/xlink">
    <!-- Generator: Sketch 47 (45396) - http://www.bohemiancoding.com/sketch -->
    <title>Index_settling_icon</title>
    <desc>Created with Sketch.</desc>
    <defs>
        <polygon id="path-1" points="0 77.922 78 77.922 78 0 0 0"></polygon>
    </defs>
    <g id="Move.mil-Index" stroke="none" stroke-width="1" fill="none" fill-rule="evenodd">
        <g id="Index_Desktop" transform="translate(-121.000000, -1544.000000)">
            <g id="Main-Content" transform="translate(124.000000, 758.000000)">
                <g id="Settling-In" transform="translate(1.000000, 792.000000)">
                    <g id="noun_1016671">
                        <path d="M67.1931,51.0822 C67.5909,50.6844 68.1941,50.5856 68.6907,50.8352 L68.8441,50.9132 C69.0963,51.0406 69.2978,51.2408 69.4265,51.4982 L69.4993,51.6425 C69.7502,52.1443 69.6527,52.7475 69.2549,53.1427 L67.6,54.7976 L65.5382,52.7358 L67.1931,51.0822 Z M59.8,62.5976 L57.7382,60.5358 L63.7,54.5753 L65.7618,56.6358 L59.8,62.5976 Z M56.5344,65.8619 L53.7862,66.5496 L54.4739,63.8014 L55.9,62.3753 L57.9618,64.4358 L56.5344,65.8619 Z M54.9809,59.6167 L52.3809,62.2167 C52.2145,62.3831 52.0962,62.5924 52.039,62.8212 L50.739,68.0212 C50.6272,68.4645 50.7585,68.9325 51.0809,69.2549 C51.3266,69.5006 51.6594,69.6358 52,69.6358 C52.1053,69.6358 52.2106,69.6228 52.3146,69.5968 L57.5146,68.2968 C57.7434,68.2396 57.9527,68.1213 58.1191,67.9549 L68.5191,57.5549 L71.0918,54.9822 C72.2826,53.794 72.5777,51.9831 71.8224,50.4751 L71.7496,50.3321 C71.3752,49.5807 70.7551,48.9606 70.0089,48.5888 L69.8568,48.5108 C68.3527,47.7607 66.5444,48.0506 65.3549,49.2414 L54.9809,59.6167 L54.9809,59.6167 Z" id="Fill-1" fill="#205493"></path>
                        <path d="M54.6,11.7 C55.0342,11.7 55.4398,11.4829 55.6816,11.1215 L57.2,8.8439 L58.7184,11.1215 C58.9602,11.4829 59.3658,11.7 59.8,11.7 L61.2716,11.7 L60.0184,13.5785 C59.8156,13.8827 59.7506,14.2584 59.839,14.6146 L60.4539,17.0729 L57.7811,15.7378 C57.5991,15.6455 57.3989,15.6 57.2,15.6 C57.0011,15.6 56.8009,15.6455 56.6189,15.7365 L53.9461,17.0716 L54.561,14.6133 C54.6494,14.2584 54.5857,13.8827 54.3816,13.5772 L53.1284,11.7 L54.6,11.7 Z M51.8999,14.5431 L50.739,19.1854 C50.6155,19.6781 50.7897,20.1968 51.1862,20.514 C51.584,20.8325 52.1287,20.8871 52.5811,20.6622 L57.2,18.3534 L61.8189,20.6622 C62.0022,20.7545 62.2024,20.8 62.4,20.8 C62.6899,20.8 62.9772,20.7038 63.2138,20.514 C63.6103,20.1968 63.7832,19.6768 63.661,19.1854 L62.5001,14.5431 L64.7816,11.1215 C65.0468,10.7224 65.0728,10.2102 64.8466,9.7877 C64.6204,9.3652 64.1797,9.1 63.7,9.1 L60.4955,9.1 L58.2816,5.7785 C57.7993,5.0544 56.6007,5.0544 56.1184,5.7785 L53.9045,9.1 L50.7,9.1 C50.2203,9.1 49.7796,9.3639 49.5534,9.7864 C49.3272,10.2089 49.3532,10.7224 49.6184,11.1202 L51.8999,14.5431 L51.8999,14.5431 Z" id="Fill-2" fill="#205493"></path>
                        <path d="M36.4,11.7 C36.8342,11.7 37.2398,11.4829 37.4816,11.1215 L39,8.8439 L40.5184,11.1215 C40.7602,11.4829 41.1658,11.7 41.6,11.7 L43.0716,11.7 L41.8184,13.5785 C41.6156,13.8827 41.5506,14.2584 41.639,14.6146 L42.2539,17.0729 L39.5811,15.7378 C39.3991,15.6455 39.1989,15.6 39,15.6 C38.8011,15.6 38.6009,15.6455 38.4189,15.7365 L35.7461,17.0716 L36.361,14.6133 C36.4494,14.2584 36.3857,13.8827 36.1816,13.5772 L34.9284,11.7 L36.4,11.7 Z M33.6999,14.5431 L32.539,19.1854 C32.4155,19.6781 32.5897,20.1968 32.9862,20.514 C33.384,20.8325 33.9287,20.8871 34.3811,20.6622 L39,18.3534 L43.6189,20.6622 C43.8022,20.7545 44.0024,20.8 44.2,20.8 C44.4899,20.8 44.7772,20.7038 45.0138,20.514 C45.4103,20.1968 45.5832,19.6768 45.461,19.1854 L44.3001,14.5431 L46.5816,11.1215 C46.8468,10.7224 46.8728,10.2102 46.6466,9.7877 C46.4204,9.3652 45.9797,9.1 45.5,9.1 L42.2955,9.1 L40.0816,5.7785 C39.5993,5.0544 38.4007,5.0544 37.9184,5.7785 L35.7045,9.1 L32.5,9.1 C32.0203,9.1 31.5796,9.3639 31.3534,9.7864 C31.1272,10.2089 31.1532,10.7224 31.4184,11.1202 L33.6999,14.5431 L33.6999,14.5431 Z" id="Fill-3" fill="#205493"></path>
                        <g id="Group-7">
                            <mask id="mask-2" fill="white">
                                <use xlink:href="#path-1"></use>
                            </mask>
                            <g id="Clip-5"></g>
                            <path d="M18.2,11.7 C18.6342,11.7 19.0398,11.4829 19.2816,11.1215 L20.8,8.8439 L22.3184,11.1215 C22.5602,11.4829 22.9658,11.7 23.4,11.7 L24.8716,11.7 L23.6184,13.5785 C23.4156,13.8827 23.3506,14.2584 23.439,14.6146 L24.0539,17.0729 L21.3811,15.7378 C21.1991,15.6455 20.9989,15.6 20.8,15.6 C20.6011,15.6 20.4009,15.6455 20.2189,15.7365 L17.5461,17.0716 L18.161,14.6133 C18.2494,14.2584 18.1857,13.8827 17.9816,13.5772 L16.7284,11.7 L18.2,11.7 Z M15.4999,14.5431 L14.339,19.1854 C14.2155,19.6781 14.3897,20.1968 14.7862,20.514 C15.184,20.8325 15.7287,20.8871 16.1811,20.6622 L20.8,18.3534 L25.4189,20.6622 C25.6022,20.7545 25.8024,20.8 26,20.8 C26.2899,20.8 26.5772,20.7038 26.8138,20.514 C27.2103,20.1968 27.3832,19.6768 27.261,19.1854 L26.1001,14.5431 L28.3816,11.1215 C28.6468,10.7224 28.6728,10.2102 28.4466,9.7877 C28.2204,9.3652 27.7797,9.1 27.3,9.1 L24.0955,9.1 L21.8816,5.7785 C21.3993,5.0544 20.2007,5.0544 19.7184,5.7785 L17.5045,9.1 L14.3,9.1 C13.8203,9.1 13.3796,9.3639 13.1534,9.7864 C12.9272,10.2089 12.9532,10.7224 13.2184,11.1202 L15.4999,14.5431 L15.4999,14.5431 Z" id="Fill-4" fill="#205493" mask="url(#mask-2)"></path>
                            <path d="M2.6,75.4 L75.4,75.4 L75.4,2.6 L2.6,2.6 L2.6,75.4 Z M76.7,0 L1.3,0 C0.5811,0 0,0.5811 0,1.3 L0,76.7 C0,77.4189 0.5811,78 1.3,78 L76.7,78 C77.4189,78 78,77.4189 78,76.7 L78,1.3 C78,0.5811 77.4189,0 76.7,0 L76.7,0 Z" id="Fill-6" fill="#205493" mask="url(#mask-2)"></path>
                        </g>
                        <path d="M18.2,61.1 C23.4936,61.1 27.8772,65.078 28.5194,70.2 L7.8806,70.2 C8.5228,65.078 12.9064,61.1 18.2,61.1 Z M11.7,52 C11.7,48.4159 14.6159,45.5 18.2,45.5 C21.7841,45.5 24.7,48.4159 24.7,52 C24.7,55.5841 21.7841,58.5 18.2,58.5 C14.6159,58.5 11.7,55.5841 11.7,52 Z M6.5,72.8 L29.9,72.8 C30.6189,72.8 31.2,72.2189 31.2,71.5 C31.2,66.1375 27.9344,61.5238 23.2895,59.54 C25.7075,57.902 27.3,55.133 27.3,52 C27.3,46.9833 23.2167,42.9 18.2,42.9 C13.1833,42.9 9.1,46.9833 9.1,52 C9.1,55.133 10.6925,57.902 13.1105,59.54 C8.4656,61.5238 5.2,66.1375 5.2,71.5 C5.2,72.2189 5.7811,72.8 6.5,72.8 L6.5,72.8 Z" id="Fill-8" fill="#205493"></path>
                        <path d="M46.5816,28.0215 L48.1,25.7439 L49.6184,28.0215 C49.8602,28.3829 50.2658,28.6 50.7,28.6 L52.1716,28.6 L50.9184,30.4785 C50.7156,30.7827 50.6506,31.1584 50.739,31.5146 L51.3539,33.9729 L48.6811,32.6378 C48.4991,32.5455 48.2989,32.5 48.1,32.5 C47.9011,32.5 47.7009,32.5455 47.5189,32.6365 L44.8461,33.9716 L45.461,31.5133 C45.5494,31.1584 45.4857,30.7827 45.2816,30.4772 L44.0284,28.6 L45.5,28.6 C45.9342,28.6 46.3398,28.3829 46.5816,28.0215 Z M41.6,26 C41.1203,26 40.6796,26.2639 40.4534,26.6864 C40.2272,27.1089 40.2532,27.6224 40.5184,28.0202 L42.7999,31.4418 L41.639,36.0841 C41.5155,36.5768 41.6897,37.0955 42.0862,37.4127 C42.484,37.7312 43.0287,37.7858 43.4811,37.5609 L48.1,35.2534 L52.7189,37.5622 C52.9022,37.6545 53.1024,37.7 53.3,37.7 C53.5899,37.7 53.8772,37.6038 54.1138,37.414 C54.5103,37.0968 54.6832,36.5768 54.561,36.0854 L53.4001,31.4431 L55.6816,28.0215 C55.9468,27.6224 55.9728,27.1102 55.7466,26.6877 C55.5204,26.2652 55.0797,26 54.6,26 L51.3955,26 L49.1816,22.6785 C48.6993,21.9544 47.5007,21.9544 47.0184,22.6785 L44.8045,26 L41.6,26 L41.6,26 Z" id="Fill-9" fill="#205493"></path>
                        <path d="M28.3816,28.0215 L29.9,25.7439 L31.4184,28.0215 C31.6602,28.3829 32.0658,28.6 32.5,28.6 L33.9716,28.6 L32.7184,30.4785 C32.5156,30.7827 32.4506,31.1584 32.539,31.5146 L33.1539,33.9729 L30.4811,32.6378 C30.2991,32.5455 30.0989,32.5 29.9,32.5 C29.7011,32.5 29.5009,32.5455 29.3189,32.6365 L26.6461,33.9716 L27.261,31.5133 C27.3494,31.1584 27.2857,30.7827 27.0816,30.4772 L25.8284,28.6 L27.3,28.6 C27.7342,28.6 28.1398,28.3829 28.3816,28.0215 Z M23.4,26 C22.9203,26 22.4796,26.2639 22.2534,26.6864 C22.0272,27.1089 22.0532,27.6224 22.3184,28.0202 L24.5999,31.4418 L23.439,36.0841 C23.3155,36.5768 23.4897,37.0955 23.8862,37.4127 C24.284,37.7312 24.8287,37.7858 25.2811,37.5609 L29.9,35.2534 L34.5189,37.5622 C34.7022,37.6545 34.9024,37.7 35.1,37.7 C35.3899,37.7 35.6772,37.6038 35.9138,37.414 C36.3103,37.0968 36.4832,36.5768 36.361,36.0854 L35.2001,31.4431 L37.4816,28.0215 C37.7468,27.6224 37.7728,27.1102 37.5466,26.6877 C37.3204,26.2652 36.8797,26 36.4,26 L33.1955,26 L30.9816,22.6785 C30.4993,21.9544 29.3007,21.9544 28.8184,22.6785 L26.6045,26 L23.4,26 L23.4,26 Z" id="Fill-10" fill="#205493"></path>
                        <polygon id="Fill-11" fill="#205493" points="33.8 49.4 62.4 49.4 62.4 46.8 33.8 46.8"></polygon>
                        <polygon id="Fill-12" fill="#205493" points="33.8 54.6 57.2 54.6 57.2 52 33.8 52"></polygon>
                        <polygon id="Fill-13" fill="#205493" points="33.8 59.8 52 59.8 52 57.2 33.8 57.2"></polygon>
                        <polygon id="Fill-14" fill="#205493" points="33.8 65 49.4 65 49.4 62.4 33.8 62.4"></polygon>
                        <polygon id="Fill-15" fill="#205493" points="33.8 70.2 48.1 70.2 48.1 67.6 33.8 67.6"></polygon>
                    </g>
                </g>
            </g>
        </g>
    </g>
</svg>