<svg width="168" height="286" viewBox="0 0 168 286" xmlns="http://www.w3.org/2000/svg"><title>Untitled</title><path d="M30.715 283.082L163.76 150.028c1.903-1.9 2.856-4.088 2.856-6.562s-.953-4.665-2.856-6.567L30.715 3.855C28.81 1.95 26.622 1 24.147 1c-2.474 0-4.664.953-6.566 2.856L3.311 18.128C1.408 20.031.457 22.221.457 24.695s.95 4.664 2.854 6.567l112.202 112.204L3.303 255.674c-1.902 1.902-2.847 4.093-2.847 6.563 0 2.478.95 4.668 2.848 6.57l14.277 14.274c1.902 1.903 4.093 2.848 6.566 2.848 2.476 0 4.666-.944 6.57-2.846l-.002-.001z" fill-rule="nonzero" fill="#205493"/></svg>