<svg width="151" height="200" viewBox="0 0 151 200" xmlns="http://www.w3.org/2000/svg"><title>Army_Logo</title><g fill="none" fill-rule="evenodd"><path d="M147.365 3.684C144.9 1.228 142.005 0 138.555 0H12.506C9.056 0 6.1 1.228 3.697 3.684 1.232 6.078 0 9.025 0 12.464v118.134c0 3.437 1.232 6.385 3.696 8.779C6.1 141.833 9.056 143 12.506 143h126.05c3.45 0 6.345-1.167 8.809-3.623 2.464-2.394 3.635-5.342 3.635-8.78V12.466c0-3.44-1.17-6.387-3.635-8.781" fill="#1A1919"/><path d="M147 12.469c0-2.332-.862-4.297-2.525-6.014C142.874 4.797 140.842 4 138.502 4H12.499c-2.401 0-4.372.797-6.034 2.455C4.801 8.172 4 10.137 4 12.469v118.063c0 2.332.801 4.357 2.465 6.014 1.662 1.657 3.633 2.454 6.034 2.454h126.003c2.34 0 4.372-.797 5.973-2.454 1.663-1.657 2.525-3.682 2.525-6.014V12.47" fill="#EEC131"/><path d="M141.707 9.287c-.923-.857-1.97-1.287-3.2-1.287H12.556c-1.231 0-2.34.43-3.2 1.287C8.492 10.147 8 11.253 8 12.48v118.043c0 1.226.493 2.331 1.355 3.19.861.86 1.97 1.288 3.2 1.288h125.952c1.23 0 2.277-.428 3.2-1.287.862-.86 1.293-1.965 1.293-3.191V12.479c0-1.226-.431-2.331-1.293-3.192" fill="#1A1919"/><path fill="#EEC131" d="M133 56.661H89.758L76.308 16 62.614 56.661H19l35.656 25-13.325 40.725 34.793-24.815L111.534 123 98.455 81.231 133 56.661"/><path fill="#1A1919" d="M120 61.406H87.377L77.248 31 66.934 61.406H34l26.844 18.697-10.006 30.406 26.286-18.513L103.782 111l-9.819-31.204L120 61.406"/><path fill="#FFFFFE" d="M89.566 78.585L109 64.805H84.724L77.184 42 69.52 64.805H45l19.985 14.024-7.418 22.803 19.494-13.9L96.923 102l-7.357-23.415"/><path d="M12.506 147c-3.45 0-6.407 1.218-8.81 3.655-2.464 2.376-3.696 5.3-3.696 8.71v28.328c0 3.352 1.232 6.276 3.696 8.652C6.1 198.782 9.056 200 12.506 200h126.05c3.45 0 6.345-1.218 8.809-3.655 2.464-2.376 3.635-5.3 3.635-8.652v-28.327c0-3.411-1.17-6.335-3.635-8.71-2.464-2.438-5.36-3.656-8.81-3.656H12.506" fill="#1A1919"/><path d="M6.465 153.433C4.801 155.074 4 157.08 4 159.39v28.277c0 2.312.801 4.258 2.465 5.9C8.127 195.21 10.098 196 12.499 196h126.003c2.34 0 4.372-.79 5.973-2.433 1.663-1.641 2.525-3.587 2.525-5.899v-28.277c0-2.31-.862-4.317-2.525-5.958-1.601-1.643-3.633-2.433-5.973-2.433H12.499c-2.401 0-4.372.79-6.034 2.433" fill="#EEC131"/><path d="M12.556 155c-1.231 0-2.34.435-3.2 1.306-.863.871-1.356 1.99-1.356 3.234v28.92c0 1.244.493 2.301 1.355 3.172.861.934 1.97 1.368 3.2 1.368h125.952c1.23 0 2.277-.434 3.2-1.368.862-.87 1.293-1.928 1.293-3.173v-28.92c0-1.243-.431-2.362-1.293-3.233-.923-.87-1.97-1.306-3.2-1.306H12.556" fill="#1A1919"/><path d="M94.695 171.73v-6.267l-3.8-3.463H81.15v24h5.638v-9.61h2.391V186h5.516v-9.61l-2.881-2.33 2.88-2.33zM16 162v20.477L19.801 186h6.374l3.677-3.523V162h-5.7v19.463h-2.45V162H16zm70.788 9.91h2.391v-5.433h-2.39v5.433zm28.438-9.91h-6.68l-1.839 11.581h-.49L104.195 162h-6.62v24h5.149v-15.225h.244L105.36 186h2.084l2.39-15.225h.245V186h5.148v-24zm10.051 8.656h-.06L123.193 162h-5.638l4.84 13.91V186h5.7v-10.09L133 162h-5.64l-2.083 8.656zM31.752 186h5.7v-4.656h-5.7V186zm23.718 0h5.638v-4.656H55.47V186zm-1.96-20.537L49.525 162h-6.007l-3.677 3.463v7.223l3.923 3.463 4.044.298v5.016H45.48V178.3h-5.638v4.178L43.519 186h6.251l3.74-3.523v-7.284l-3.863-3.463-4.167-.357v-4.896h2.33v3.224h5.7v-4.238zM75.205 162h-8.213l-3.433 24h5.517l.49-4.477h3.248l.49 4.477h5.516l-3.615-24zm-5.271 15.044l.857-9.97h.552l1.041 9.97h-2.45z" fill="#FFFFFE"/></g></svg>