<?xml version="1.0" standalone="no"?>
<!DOCTYPE svg PUBLIC "-//W3C//DTD SVG 20010904//EN"
 "http://www.w3.org/TR/2001/REC-SVG-20010904/DTD/svg10.dtd">
<svg version="1.0" xmlns="http://www.w3.org/2000/svg"
 width="700.000000pt" height="700.000000pt" viewBox="0 0 700.000000 700.000000"
 preserveAspectRatio="xMidYMid meet">
<metadata>
Created by potrace 1.11, written by Peter Selinger 2001-2013
</metadata>
<g transform="translate(0.000000,700.000000) scale(0.100000,-0.100000)"
fill="#000000" stroke="none">
<path d="M3363 6924 c-17 -44 -106 -279 -198 -524 l-168 -446 -143 -36 c-380
-98 -733 -283 -1018 -531 l-68 -61 -280 113 c-153 63 -280 112 -282 110 -3 -4
47 -117 197 -446 l55 -122 -37 -53 c-192 -268 -336 -610 -402 -949 -17 -90
-33 -168 -34 -174 -1 -5 -224 -104 -494 -219 -287 -123 -486 -213 -479 -217 7
-4 236 -91 508 -193 271 -103 496 -188 497 -190 2 -2 17 -55 33 -117 88 -347
263 -691 494 -969 25 -30 46 -60 46 -66 0 -6 -50 -134 -110 -284 -61 -150
-110 -276 -108 -279 2 -4 129 50 283 120 226 102 283 124 296 115 184 -126
288 -190 413 -251 182 -89 308 -136 481 -180 118 -30 170 -41 320 -63 l49 -7
187 -498 c103 -274 189 -501 192 -503 2 -3 105 230 227 518 123 288 226 527
231 532 4 5 59 24 121 42 290 83 580 231 822 418 43 34 89 69 101 79 23 17 29
15 332 -102 169 -66 309 -118 311 -117 1 2 -61 139 -138 305 l-140 301 49 68
c169 233 307 530 382 822 16 62 31 115 32 116 1 0 238 90 527 199 289 108 531
200 538 204 7 4 -204 99 -510 230 -288 123 -524 224 -526 226 -2 1 -16 68 -32
149 -77 376 -248 748 -480 1040 l-57 72 126 280 c70 153 124 280 120 282 -4 2
-137 -49 -295 -113 l-288 -115 -41 30 c-328 246 -718 422 -1077 484 -44 7 -83
17 -88 22 -5 5 -104 232 -220 504 -117 272 -215 501 -220 509 -5 9 -17 -13
-37 -65z m442 -1018 c614 -91 1145 -387 1537 -856 254 -304 442 -700 518
-1090 55 -283 53 -674 -5 -955 -199 -955 -951 -1705 -1903 -1895 -335 -66
-630 -66 -964 0 -895 179 -1621 855 -1863 1735 -67 244 -79 346 -79 650 0 304
12 406 79 650 153 557 509 1049 990 1372 314 210 692 351 1055 392 52 6 109
13 125 15 62 9 414 -4 510 -18z"/>
<path d="M3618 5755 c-15 -8 -31 -30 -38 -49 -15 -47 3 -81 75 -135 70 -53 84
-80 61 -116 -12 -18 -25 -25 -49 -25 -42 0 -70 20 -93 67 l-19 38 -3 -49 c-4
-57 4 -88 17 -67 7 11 13 11 32 1 13 -7 47 -13 76 -13 42 0 59 5 77 23 54 50
36 117 -48 179 -28 21 -57 45 -64 54 -21 25 -11 60 21 71 34 12 75 -14 96 -62
22 -48 31 -39 31 28 0 55 -10 75 -25 51 -3 -6 -19 -4 -40 5 -43 18 -72 17
-107 -1z"/>
<path d="M3088 5737 c-43 -5 -78 -13 -78 -18 0 -5 9 -9 19 -9 11 0 22 -4 26
-9 3 -5 14 -72 25 -148 l19 -138 -22 -17 c-21 -17 -21 -18 -2 -18 44 0 194 29
221 43 142 74 117 283 -38 316 -55 12 -61 12 -170 -2z m161 -35 c57 -28 76
-63 76 -138 0 -63 -2 -67 -36 -99 -34 -31 -111 -56 -126 -41 -4 3 -15 68 -25
143 -14 108 -15 138 -6 145 22 13 82 9 117 -10z"/>
<path d="M3872 5698 c-13 -49 -6 -62 15 -30 12 17 25 22 59 22 24 0 44 -5 44
-10 0 -6 -14 -68 -31 -138 -31 -125 -47 -156 -75 -145 -8 3 -14 1 -14 -5 0 -9
113 -42 142 -42 7 0 3 8 -10 18 l-23 18 26 105 c49 197 41 179 76 169 42 -12
59 -28 59 -56 0 -13 4 -24 9 -24 10 0 26 78 18 87 -5 4 -263 72 -278 73 -4 0
-11 -19 -17 -42z"/>
<path d="M2795 5660 c-66 -21 -122 -40 -125 -40 -3 -1 6 -5 20 -9 22 -5 31
-23 67 -131 47 -142 50 -158 26 -176 -30 -23 2 -17 139 27 102 32 128 44 124
56 -3 8 -6 28 -6 44 0 40 -12 36 -31 -10 -14 -34 -23 -41 -78 -59 -34 -11 -63
-17 -66 -11 -9 13 -45 122 -43 124 2 1 18 7 37 14 48 16 82 14 97 -6 18 -25
18 -4 -2 63 -15 54 -34 64 -34 19 0 -19 -9 -26 -47 -39 -26 -9 -50 -16 -54
-16 -5 0 -16 25 -26 56 -20 65 -19 67 64 85 46 11 55 10 71 -4 27 -25 31 -21
19 18 -6 19 -15 35 -21 34 -6 0 -65 -18 -131 -39z"/>
<path d="M2483 5532 l-132 -67 21 -45 22 -45 5 39 c5 31 13 44 38 59 l33 19
65 -133 c59 -119 64 -134 50 -149 -28 -31 -15 -30 55 5 70 35 85 48 53 44 -10
-1 -24 -1 -30 0 -7 0 -42 59 -77 130 l-65 128 25 12 c35 16 64 14 86 -6 28
-25 32 -9 8 36 -11 23 -21 41 -23 40 -1 0 -61 -30 -134 -67z"/>
<path d="M4260 5461 c-71 -66 -140 -121 -152 -124 -19 -3 -15 -7 25 -26 27
-13 52 -19 55 -15 4 3 1 9 -5 11 -21 7 -15 27 15 55 l27 26 63 -26 63 -26 -3
-45 c-3 -41 -5 -46 -25 -44 -42 5 -24 -13 40 -39 62 -26 81 -28 59 -6 -8 8
-12 67 -12 195 0 112 -4 183 -10 183 -5 0 -68 -54 -140 -119z m90 -26 c0 -36
-2 -65 -5 -65 -2 0 -25 10 -50 22 l-45 22 42 43 c23 24 46 43 50 43 4 0 8 -29
8 -65z"/>
<path d="M4587 5433 c-30 -42 -22 -53 17 -28 22 15 27 15 55 0 17 -8 31 -20
31 -26 0 -6 -35 -62 -77 -125 -73 -106 -80 -113 -105 -108 -16 3 -28 3 -28 0
0 -9 118 -86 131 -86 7 0 5 8 -7 21 -18 20 -18 21 4 62 13 23 49 79 81 125
l59 83 32 -27 c27 -24 31 -32 27 -61 -3 -18 -2 -33 3 -33 8 0 50 61 50 73 0 6
-235 167 -243 167 -2 0 -16 -17 -30 -37z"/>
<path d="M2252 5398 c-68 -44 -78 -61 -33 -52 28 6 33 1 105 -107 78 -116 88
-142 60 -153 -8 -3 -13 -10 -9 -16 6 -10 134 68 135 82 0 4 -13 5 -29 2 -28
-6 -33 -1 -105 107 -77 116 -85 136 -64 157 28 28 -3 18 -60 -20z"/>
<path d="M2099 5291 c-24 -21 -41 -42 -37 -46 4 -5 15 -2 24 5 13 12 25 4 89
-65 41 -44 73 -80 71 -82 -1 -2 -63 8 -137 22 -74 14 -143 25 -155 25 -17 0
-74 -46 -74 -61 0 -3 15 -4 33 -2 29 3 38 -4 87 -62 111 -132 121 -147 109
-161 -6 -7 -9 -18 -7 -25 2 -6 26 9 53 35 49 45 50 45 19 40 -28 -5 -36 1
-107 79 -42 46 -77 87 -77 89 0 3 75 -8 168 -24 92 -15 173 -27 179 -26 7 2
-34 57 -92 122 -102 116 -116 138 -95 151 12 8 13 25 1 25 -5 0 -28 -18 -52
-39z"/>
<path d="M3357 5256 c-78 -32 -123 -65 -197 -142 -34 -35 -66 -64 -71 -64 -5
0 -9 -26 -9 -57 -1 -48 -3 -54 -12 -38 -6 11 -24 35 -41 53 l-31 32 25 0 c20
0 38 15 74 60 47 58 115 122 159 147 71 41 -170 -30 -269 -79 -86 -44 -184
-104 -225 -138 l-35 -29 38 -1 c33 0 37 3 37 25 0 28 8 31 35 11 17 -12 16
-14 -13 -31 -19 -11 -28 -23 -23 -29 4 -6 13 -31 20 -55 10 -36 10 -45 -1 -52
-23 -15 -28 -10 -28 30 0 78 -65 95 -141 37 -78 -59 -207 -217 -290 -352 l-39
-64 88 0 88 0 87 121 c48 66 87 125 87 130 0 6 4 7 10 4 5 -3 60 23 121 60 61
36 113 65 116 65 2 0 2 -8 -2 -19 -5 -15 2 -20 39 -30 66 -16 68 -15 61 22
-14 69 -73 177 -96 177 -5 0 -6 -27 -2 -60 5 -52 4 -60 -11 -60 -12 0 -16 11
-18 43 -2 52 1 120 7 126 3 2 23 -8 45 -23 46 -30 83 -84 101 -147 16 -54 16
-54 32 -41 11 9 27 2 73 -32 108 -79 127 -104 158 -205 47 -151 65 -286 66
-476 l1 -170 37 75 c20 41 38 77 40 80 2 3 23 -16 47 -43 24 -26 46 -43 50
-37 6 9 -72 90 -88 90 -8 0 2 50 12 63 4 4 20 -6 36 -23 29 -30 45 -38 45 -21
0 5 -18 22 -40 38 -34 23 -39 32 -34 53 3 14 6 54 5 89 -1 61 0 64 16 49 30
-25 43 -30 43 -15 0 7 -15 20 -34 29 -25 12 -34 24 -39 50 -3 18 -9 42 -13 53
-7 17 -2 16 39 -8 34 -20 47 -24 47 -14 0 8 -22 24 -50 36 -37 16 -55 31 -69
59 -10 20 -33 55 -50 76 -17 22 -30 40 -28 42 3 3 132 -13 174 -22 14 -2 26
-16 33 -40 7 -19 10 -37 8 -39 -2 -2 -35 5 -73 16 -98 27 -102 19 -9 -18 l78
-30 25 48 c13 27 41 69 63 94 51 58 132 86 275 94 l103 6 -41 68 -40 67 -212
-2 -212 -3 -3 -51 -3 -51 46 -5 c42 -5 126 -49 125 -66 -1 -5 -46 -30 -111
-60 -3 -1 -12 11 -19 28 -7 16 -28 43 -46 60 -32 27 -34 34 -34 90 l0 60 -66
0 c-57 0 -65 -2 -54 -14 9 -12 -1 -23 -59 -62 -39 -26 -70 -49 -68 -50 2 -2
38 15 81 37 l78 41 39 -38 c46 -45 44 -47 -64 -64 -43 -7 -80 -17 -83 -21 -3
-5 -25 6 -48 24 -24 18 -65 44 -91 57 l-47 25 7 65 c3 35 11 68 18 72 14 9 77
11 77 3 0 -3 -16 -37 -35 -75 -19 -39 -33 -70 -31 -70 3 0 25 32 50 70 l46 71
30 -16 c34 -18 31 -32 -15 -75 -15 -14 -36 -38 -48 -55 -13 -19 2 -8 43 29 36
32 67 63 68 68 2 4 42 8 88 8 l84 0 0 140 0 140 -27 0 c-16 0 -54 -11 -86 -24z
m-489 -355 c-24 -17 -26 -14 -37 43 -7 38 -6 48 8 56 13 7 19 0 32 -38 15 -45
15 -48 -3 -61z m-91 -8 c11 -42 3 -63 -23 -63 -15 0 -25 91 -12 108 15 17 23
6 35 -45z m-49 -43 c8 -31 6 -37 -14 -53 -34 -25 -37 -22 -29 29 12 85 24 92
43 24z m776 -74 c9 -19 16 -36 16 -38 0 -1 -44 -2 -97 0 -83 3 -101 7 -120 24
-40 37 -39 38 143 46 38 2 43 -1 58 -32z"/>
<path d="M3510 5141 l0 -141 200 0 c110 0 200 3 200 7 0 3 -19 31 -42 61 -84
109 -213 195 -310 208 l-48 7 0 -142z"/>
<path d="M4898 5259 c24 -25 11 -47 -87 -150 -93 -98 -100 -103 -121 -91 -46
28 -13 -13 86 -104 l100 -93 37 25 c41 28 42 49 1 34 -33 -13 -79 7 -121 52
l-33 34 47 53 46 52 39 -38 c31 -30 39 -44 35 -65 -2 -16 -1 -28 3 -28 11 0
90 86 84 92 -3 4 -17 2 -31 -5 -21 -10 -28 -7 -63 29 l-39 39 40 43 40 43 27
-20 c56 -40 75 -68 69 -101 -8 -37 5 -39 31 -2 l20 27 -97 89 c-54 50 -104 92
-112 94 -11 4 -12 2 -1 -9z"/>
<path d="M3745 5237 c56 -40 141 -126 180 -181 l40 -56 144 0 144 0 -19 21
c-28 31 -185 126 -272 164 -70 31 -212 75 -237 75 -5 0 4 -10 20 -23z"/>
<path d="M4126 5141 c45 -27 108 -70 140 -95 55 -43 63 -46 119 -46 l60 0 -25
20 c-46 36 -336 170 -369 170 -3 0 31 -22 75 -49z"/>
<path d="M2835 5156 c-69 -27 -226 -105 -270 -135 l-30 -21 61 0 c58 0 64 2
135 56 41 30 98 69 127 85 79 46 71 51 -23 15z"/>
<path d="M1796 5003 c-42 -54 -45 -67 -12 -52 26 12 37 7 136 -70 100 -77 114
-119 56 -177 -19 -19 -42 -34 -53 -34 -24 0 -71 29 -155 98 -57 45 -69 60 -65
79 7 36 -9 27 -53 -30 -45 -60 -49 -73 -21 -57 30 16 34 14 112 -46 90 -70
129 -94 152 -94 39 0 90 34 118 79 52 82 39 115 -87 216 -81 65 -89 74 -86
103 1 18 0 32 -2 32 -2 0 -20 -21 -40 -47z"/>
<path d="M4428 4972 c-32 -2 -58 -5 -58 -8 0 -2 27 -32 61 -67 73 -75 181
-217 235 -309 l39 -68 123 0 c96 0 122 3 116 13 -27 45 -112 145 -189 222 -76
77 -227 201 -260 216 -5 2 -36 3 -67 1z"/>
<path d="M5109 4950 c-30 -30 -30 -30 -27 -131 3 -90 1 -102 -16 -115 -27 -19
-52 -18 -76 6 -29 29 -35 66 -17 111 21 54 5 57 -37 7 -22 -27 -31 -44 -22
-46 7 -1 20 -20 30 -42 44 -100 149 -122 191 -40 11 22 15 54 13 121 -3 83 -1
92 18 105 19 13 24 12 47 -7 31 -24 36 -67 13 -111 -23 -44 -3 -41 44 7 39 40
43 50 17 46 -4 -1 -16 19 -27 43 -32 77 -100 97 -151 46z"/>
<path d="M2414 4918 c-117 -87 -281 -251 -352 -351 l-33 -47 124 0 125 0 43
73 c59 100 134 199 218 288 39 42 71 80 71 83 0 3 -29 6 -64 6 -60 0 -66 -2
-132 -52z"/>
<path d="M3992 4962 c2 -5 19 -38 38 -75 35 -66 36 -67 100 -86 99 -31 181
-86 283 -188 l91 -93 79 0 79 0 -27 48 c-56 96 -142 208 -235 304 l-95 98
-158 0 c-87 0 -157 -4 -155 -8z"/>
<path d="M3850 4710 c-30 -21 -81 -53 -113 -72 l-58 -33 -3 -135 c-3 -106 -9
-156 -29 -235 -22 -86 -25 -111 -18 -175 l7 -75 18 60 c10 33 28 87 41 120 27
69 41 121 49 186 4 26 13 55 20 65 13 17 15 15 25 -21 19 -70 10 -119 -31
-162 l-21 -23 23 -25 c15 -16 24 -41 28 -74 4 -47 2 -53 -32 -87 -33 -33 -36
-41 -36 -91 0 -47 -4 -59 -29 -84 -17 -17 -40 -29 -55 -29 -23 0 -26 -4 -26
-35 0 -50 -23 -90 -72 -125 -29 -22 -48 -46 -62 -83 l-21 -52 -215 -2 c-159
-2 -216 1 -222 10 -6 9 -8 9 -8 0 0 -7 -8 -13 -17 -13 -14 0 -15 -2 -5 -9 11
-7 11 -14 -1 -43 -18 -44 -46 -64 -116 -84 -57 -17 -55 -34 4 -34 87 0 134 39
149 123 l7 37 53 0 c45 0 56 -4 81 -30 43 -45 109 -72 168 -69 42 3 51 0 57
-16 19 -52 -25 -59 -84 -15 -22 17 -41 28 -43 27 -2 -2 10 -28 27 -58 32 -59
39 -116 15 -125 -19 -8 -70 12 -87 34 -11 13 -10 14 9 4 26 -14 33 -15 33 -3
0 18 -71 155 -94 185 l-24 29 -37 -41 c-60 -68 -206 -149 -295 -167 -19 -3
-50 -11 -69 -17 l-34 -10 7 -97 c4 -53 10 -110 15 -126 l7 -30 195 -5 c166 -4
190 -7 166 -17 -19 -9 -83 -13 -194 -13 l-166 0 7 -52 c9 -69 50 -265 73 -348
15 -52 22 -65 38 -65 16 0 21 8 23 44 3 39 5 42 25 37 12 -3 27 -6 34 -6 12 0
-48 -97 -71 -115 -10 -8 -10 -17 0 -45 12 -34 13 -34 13 -7 1 25 4 27 46 27
25 0 45 -2 45 -5 0 -12 -63 -115 -70 -115 -4 0 -7 -11 -6 -25 1 -29 5 -31 21
-8 10 13 112 37 122 29 5 -4 -22 -121 -30 -134 -5 -6 -17 -12 -27 -12 -10 0
-22 -5 -26 -11 -5 -8 3 -10 25 -7 31 4 31 4 31 -39 0 -58 18 -55 22 3 l3 46
62 23 62 22 7 -54 c3 -30 3 -58 -2 -62 -19 -18 -104 -43 -121 -37 -17 7 -17 6
-2 -9 15 -15 21 -15 74 4 32 12 59 20 60 18 1 -1 9 -23 18 -49 17 -52 11 -58
-33 -33 -14 8 -40 14 -58 15 l-33 0 33 -46 c80 -112 225 -213 320 -222 l48 -5
0 111 c0 103 2 112 21 123 17 9 23 8 30 -2 5 -8 4 -15 -1 -17 -6 -2 -10 -50
-10 -109 l0 -106 49 5 c84 8 156 51 259 154 50 51 92 98 92 103 0 7 -41 11
-117 11 -106 0 -125 -3 -181 -27 -54 -22 -65 -24 -73 -12 -14 22 -12 24 37 64
l45 37 30 -28 c38 -37 51 -22 14 16 -21 22 -27 34 -20 44 6 7 21 28 34 47 l24
35 38 -41 38 -40 -26 -27 -27 -28 110 0 109 0 33 58 c36 66 51 150 52 280 l0
82 -59 0 c-57 0 -60 -1 -64 -27 -3 -18 -5 -10 -7 22 l-2 50 -9 -49 c-11 -65
-25 -78 -49 -46 -11 14 -22 37 -25 52 -9 40 -25 35 -25 -8 0 -39 -15 -74 -31
-74 -17 0 -58 103 -52 132 l5 26 34 -20 c39 -23 64 -13 64 28 0 22 1 22 27 9
20 -10 31 -11 40 -3 14 12 16 72 3 103 -6 15 -9 6 -9 -32 -1 -66 -16 -69 -66
-10 -20 23 -34 33 -31 22 14 -41 18 -102 7 -109 -6 -4 -27 9 -48 28 -26 24
-33 36 -22 36 27 0 44 55 31 97 l-11 36 27 -26 c51 -49 120 -45 123 7 1 11 7
-14 15 -58 13 -81 29 -120 20 -51 -3 22 -8 72 -11 110 -19 231 -121 504 -255
688 -47 63 -70 82 -70 56 0 -6 30 -59 67 -117 61 -98 140 -260 157 -322 l7
-25 -16 25 -16 25 6 -25 c4 -14 11 -42 16 -63 11 -43 6 -57 -20 -57 -24 0
-111 77 -111 99 0 9 -7 26 -15 38 l-14 21 37 -20 c47 -24 74 -20 86 13 10 28
-10 80 -44 117 -11 12 -20 31 -20 43 0 23 -48 114 -56 106 -2 -2 5 -24 16 -48
24 -55 26 -89 3 -89 -9 0 -37 12 -62 27 l-46 26 27 9 c29 10 43 46 32 81 -9
28 -105 169 -111 163 -3 -2 0 -13 6 -24 33 -61 -6 -82 -66 -36 l-34 26 41 29
c28 20 52 29 79 29 21 0 55 7 76 15 40 17 21 22 209 -49 87 -33 79 -23 -22 25
l-77 37 58 1 c46 1 65 -4 95 -24 20 -14 41 -25 47 -25 5 0 -6 10 -25 23 l-35
22 54 3 c47 3 60 -1 100 -28 l46 -32 -35 31 -34 31 53 0 c46 0 59 -5 99 -37
l47 -37 -34 37 -35 37 50 0 c28 0 55 -5 62 -12 9 -9 12 -9 12 -1 0 7 10 14 23
16 17 3 15 5 -9 6 -24 1 -46 18 -110 84 -44 45 -95 101 -113 124 l-32 43 27
28 28 28 24 -35 c75 -112 258 -298 327 -333 11 -6 4 4 -15 20 l-35 31 62 1
c34 0 65 -4 68 -10 3 -5 16 -15 28 -21 19 -9 19 -8 -3 10 l-25 21 56 0 c30 0
61 -6 68 -12 11 -10 13 -10 7 0 -11 19 78 16 94 -3 7 -9 27 -25 44 -37 l31
-21 -34 36 -35 37 46 0 c29 0 50 -6 58 -15 7 -9 32 -30 54 -47 l41 -32 -45 47
-44 47 46 0 c29 0 50 -6 58 -15 19 -22 90 -78 90 -70 0 4 -46 55 -103 113
-121 127 -200 223 -289 352 -79 114 -148 227 -148 240 0 31 32 -2 85 -87 100
-163 305 -424 305 -389 0 4 -24 37 -54 74 -124 155 -298 425 -289 448 3 7 59
-64 125 -159 132 -188 260 -355 339 -441 l50 -55 -38 -4 -38 -4 39 -1 c30 -2
51 -12 87 -42 26 -22 51 -40 55 -40 5 0 -10 18 -31 40 l-39 40 55 0 c30 0 61
-6 68 -12 11 -10 13 -10 7 0 -4 7 -1 12 7 12 8 0 20 -13 27 -30 7 -16 19 -30
26 -30 11 0 14 18 14 74 0 84 -26 304 -41 354 l-11 32 -124 0 -125 0 49 -72
c27 -40 72 -113 101 -163 29 -49 62 -105 73 -123 21 -34 21 -34 1 -30 -49 8
-577 698 -558 728 10 16 22 4 87 -93 87 -131 268 -361 268 -341 0 4 -44 70
-98 148 -165 236 -203 296 -190 296 7 0 33 -25 57 -56 24 -30 45 -53 47 -51 7
6 -43 141 -89 240 l-40 87 -74 0 -74 0 80 -92 c86 -100 87 -108 13 -108 -24 0
-41 -4 -37 -9 8 -14 -40 -48 -79 -55 -43 -8 -143 14 -222 49 -64 28 -232 130
-279 169 l-30 25 28 1 c17 0 55 -18 100 -49 91 -61 196 -114 269 -135 96 -27
98 -17 3 17 -130 46 -315 151 -315 178 0 24 38 13 94 -27 81 -56 231 -127 312
-148 75 -19 131 -20 64 -1 -110 31 -237 98 -370 194 l-95 69 -26 -24 c-29 -27
-71 -31 -109 -9 -35 20 -40 19 -40 -9 0 -38 -41 -79 -78 -79 -18 0 -35 2 -38
5 -10 11 84 185 110 202 22 14 26 24 26 61 0 25 -3 45 -7 44 -5 0 -33 -18 -63
-39z m215 -332 c136 -96 292 -167 390 -178 l60 -6 -45 -22 c-113 -54 -275 -10
-499 138 -93 61 -94 63 -71 75 22 12 30 9 80 -24 84 -57 178 -107 253 -136
105 -39 103 -29 -3 16 -160 69 -292 163 -283 200 5 19 7 19 37 -4 17 -13 54
-40 81 -59z m-42 -122 c139 -83 257 -126 353 -126 l49 -1 -24 -19 c-45 -38
-160 -21 -306 44 -109 49 -227 118 -218 127 5 5 49 -13 107 -45 99 -55 213
-103 222 -94 2 3 -17 13 -43 23 -103 38 -264 129 -285 159 -21 31 -5 35 30 8
20 -16 72 -50 115 -76z m-28 -71 c121 -62 263 -114 316 -116 21 -1 20 -2 -11
-16 -77 -34 -233 8 -390 104 -109 66 -89 82 27 21 85 -44 178 -81 108 -42 -77
42 -185 106 -185 110 0 8 10 3 135 -61z m777 -187 c53 -71 242 -298 354 -425
l47 -53 -55 0 -54 0 -76 88 c-161 187 -438 576 -421 593 6 6 26 -18 53 -63 47
-79 194 -275 260 -348 32 -34 24 -19 -34 65 -203 297 -247 366 -241 375 4 6
30 -27 59 -72 28 -46 77 -118 108 -160z m-743 77 c83 -37 189 -60 230 -51 l26
6 -29 -26 c-28 -25 -34 -26 -110 -22 -108 7 -294 70 -278 95 6 9 30 3 92 -22
47 -18 103 -36 125 -39 25 -4 8 4 -45 22 -115 38 -164 67 -184 108 l-16 35 57
-37 c31 -20 90 -51 132 -69z m482 -42 c103 -170 230 -342 338 -455 l54 -58
-44 0 c-42 0 -48 4 -95 58 -115 130 -231 279 -312 399 -52 76 -59 93 -40 93 8
0 45 -45 81 -99 94 -141 255 -347 264 -337 2 2 -42 67 -99 145 -158 215 -233
341 -203 341 2 0 27 -39 56 -87z m-104 -30 c66 -102 217 -298 299 -388 l85
-95 -44 0 c-42 0 -49 4 -101 60 -62 67 -179 211 -275 338 -49 65 -61 86 -51
95 9 9 17 5 34 -17 101 -140 206 -272 256 -326 76 -81 68 -63 -22 49 -66 82
-228 313 -228 325 0 18 20 0 47 -41z m-422 -4 c50 -17 119 -34 154 -37 l65 -5
-29 -25 c-27 -23 -34 -24 -119 -19 -61 3 -120 14 -179 33 -86 27 -88 28 -67
44 21 16 26 15 79 -6 31 -13 77 -26 101 -29 38 -4 34 -2 -23 15 -86 25 -130
48 -121 61 8 13 24 9 139 -32z m381 -111 c102 -136 163 -208 248 -295 l70 -73
-46 0 c-45 0 -48 2 -133 93 -84 88 -275 319 -275 331 0 23 33 -6 77 -67 63
-87 206 -242 260 -282 l38 -29 -45 51 c-248 283 -280 324 -280 355 0 10 2 18
4 18 3 0 39 -46 82 -102z m-403 17 c38 -8 87 -15 110 -15 42 -1 42 -1 16 -15
-43 -23 -139 -34 -215 -25 -38 5 -75 9 -81 10 -7 0 -13 9 -13 20 0 24 6 24 85
5 66 -16 137 -20 80 -5 -16 5 -54 13 -84 19 -58 12 -81 25 -81 47 0 10 13 8
58 -7 31 -11 88 -27 125 -34z m492 -262 l122 -123 -51 0 -51 0 -80 87 c-88 95
-225 262 -225 275 0 19 19 4 55 -44 48 -64 244 -268 258 -268 5 0 -24 35 -64
78 -106 113 -222 260 -214 272 3 5 34 -27 67 -72 34 -46 116 -138 183 -205z
m-238 129 c39 -48 109 -124 157 -170 l86 -82 -59 0 -58 0 -75 78 c-72 75 -195
230 -187 235 2 1 13 7 24 14 11 6 25 12 31 12 5 1 42 -38 81 -87z m-302 59
l100 -6 -34 -19 c-40 -21 -127 -24 -189 -6 -36 11 -40 15 -31 32 8 14 16 17
32 12 12 -4 67 -10 122 -13z m-129 -46 c27 -8 74 -15 104 -16 55 -1 55 -1 25
-14 -42 -19 -142 -18 -201 2 l-49 17 30 12 c38 17 33 17 91 -1z m365 -263
l-46 -4 -94 98 -93 97 28 22 28 22 112 -116 112 -116 -47 -3z m-417 213 c27
-8 63 -15 80 -16 l31 -1 -30 -13 c-16 -8 -60 -14 -96 -15 l-66 0 5 30 c5 34 9
35 76 15z m292 -213 c-49 -3 -50 -3 -119 67 l-70 69 27 24 27 23 92 -90 92
-90 -49 -3z m-231 142 c-46 -37 -100 -54 -170 -54 -70 0 -70 0 -40 16 16 8 37
22 45 29 9 8 44 16 80 18 36 2 74 4 85 5 l20 1 -20 -15z m125 -113 l35 -30
-56 -1 c-50 0 -61 4 -102 37 -38 31 -43 39 -29 44 9 4 26 16 36 28 l19 21 31
-34 c17 -19 47 -48 66 -65z m-242 33 c2 -1 -15 -16 -39 -33 -29 -22 -54 -31
-83 -32 -38 -1 -39 -2 -11 -8 25 -5 27 -8 12 -14 -20 -7 -57 -10 -57 -3 0 2 6
19 14 37 7 19 16 41 19 50 5 14 16 16 74 12 37 -3 70 -7 71 -9z m99 -34 l34
-30 -73 0 -72 0 29 30 c16 17 33 30 38 30 5 0 25 -13 44 -30z m-348 -56 c-40
-49 -126 -57 -206 -19 -29 13 -53 27 -53 30 0 3 61 5 136 5 123 0 135 -2 123
-16z m73 -134 c16 0 28 5 28 10 0 25 19 5 39 -39 25 -60 27 -87 5 -95 -25 -10
-53 2 -111 45 -29 22 -53 35 -53 30 0 -14 81 -81 107 -87 25 -7 60 -72 73
-136 7 -37 6 -38 -21 -38 -19 0 -42 12 -68 35 -48 44 -56 44 -31 3 10 -18 22
-50 25 -70 7 -36 6 -38 -20 -38 -15 0 -40 9 -56 20 -26 19 -28 25 -23 63 5 35
1 50 -26 91 -39 61 -49 55 -15 -10 33 -63 30 -88 -12 -92 -23 -2 -40 5 -67 29
l-37 32 26 27 c14 14 25 34 25 43 0 9 6 17 14 17 42 0 58 61 31 114 -19 37
-20 36 14 23 43 -16 64 -3 59 37 l-4 34 35 -24 c20 -13 48 -24 63 -24z m-327
-171 c15 -15 -17 -10 -45 7 l-25 15 30 -6 c17 -4 34 -11 40 -16z m492 -53 c39
0 43 -3 58 -37 35 -78 6 -103 -64 -54 -38 26 -85 114 -53 99 9 -5 36 -8 59 -8z
m-332 -102 c17 -4 45 -20 63 -35 35 -31 72 -44 102 -36 14 4 22 -4 34 -34 25
-61 21 -79 -14 -79 -20 0 -43 12 -70 36 -22 20 -40 32 -40 26 0 -16 68 -71 95
-78 14 -3 34 -4 45 -1 23 6 30 -2 41 -50 17 -77 -24 -85 -88 -17 -24 26 -43
42 -43 36 0 -7 20 -33 45 -59 25 -27 60 -68 78 -93 18 -25 49 -54 70 -65 34
-18 37 -24 37 -62 0 -23 -5 -45 -11 -48 -13 -9 -46 21 -66 58 -20 39 -28 27
-10 -14 18 -44 51 -73 75 -67 14 4 19 1 16 -11 -1 -9 -6 -33 -9 -53 -10 -62
-39 -47 -72 37 -10 27 -12 28 -12 7 -1 -34 28 -90 50 -97 18 -6 17 -9 -12 -51
-34 -50 -49 -49 -50 4 -1 75 -18 79 -18 5 -1 -39 -5 -74 -9 -77 -4 -2 -16 18
-26 46 -16 45 -16 51 -2 67 16 18 46 83 46 101 0 5 -16 10 -35 10 l-35 0 0
-60 c0 -53 -2 -60 -20 -60 -18 0 -20 7 -20 60 l0 60 -150 0 c-143 0 -150 1
-150 20 0 19 7 20 150 20 l150 0 0 90 c0 73 3 90 15 90 20 0 20 1 -20 60 -19
29 -35 56 -35 61 0 39 -142 209 -208 251 l-33 20 22 24 21 23 37 -29 c20 -16
50 -32 66 -36z m259 -2 c28 6 43 -15 52 -72 5 -33 4 -40 -10 -40 -45 0 -110
56 -118 101 -5 26 -4 26 24 17 16 -6 39 -8 52 -6z m-418 -37 c18 -14 17 -14
-13 -15 -31 0 -41 9 -26 23 10 10 17 9 39 -8z m44 -43 c0 -4 -7 -18 -16 -31
l-17 -24 -18 24 c-26 34 -24 39 16 39 19 0 35 -3 35 -8z m-72 -32 l23 -29 -28
-6 c-15 -4 -47 -12 -70 -19 -59 -18 -68 -7 -33 36 26 31 41 40 80 46 3 1 15
-12 28 -28z m489 -20 c14 0 24 8 29 22 6 20 9 17 25 -22 10 -25 18 -60 18 -77
1 -29 -2 -33 -24 -33 -15 0 -39 14 -62 38 -21 20 -42 36 -48 34 -5 -2 -7 0 -3
3 4 4 1 22 -7 41 l-13 33 31 -20 c18 -10 42 -19 54 -19z m229 -117 c-2 -2 -9
10 -16 27 -7 16 -16 30 -21 30 -4 0 -2 -15 5 -32 22 -54 27 -112 12 -133 -12
-16 -17 -17 -44 -6 -17 7 -47 32 -65 55 -30 36 -32 43 -20 55 10 9 14 27 11
52 -3 37 4 50 16 30 9 -14 60 -20 74 -9 6 6 12 20 13 32 0 11 9 -6 20 -39 10
-32 17 -61 15 -62z m-719 47 c-12 -22 -26 -40 -32 -40 -5 0 -23 11 -40 24 -32
26 -32 26 35 45 57 15 60 14 37 -29z m-76 -45 c-1 -8 -112 -65 -128 -65 -18 0
-17 5 13 57 34 57 61 68 92 37 13 -12 23 -25 23 -29z m609 -15 c4 0 14 -23 23
-51 43 -131 -3 -168 -92 -77 -47 49 -49 54 -21 61 27 7 35 33 23 77 l-9 37 34
-24 c19 -12 38 -23 42 -23z m-580 -20 c0 -7 -17 -52 -26 -68 -3 -5 -104 22
-104 28 0 8 90 48 113 49 9 1 17 -3 17 -9z m-102 -69 c29 -10 52 -22 51 -27
-1 -5 -16 -19 -33 -32 -17 -12 -36 -30 -43 -38 -9 -12 -21 -15 -47 -10 -20 4
-36 12 -36 19 0 29 21 80 37 93 10 7 18 14 18 14 1 0 24 -8 53 -19z m55 -83
c-4 -24 -10 -28 -37 -28 l-31 1 33 30 c19 17 35 29 37 27 2 -2 1 -15 -2 -30z
m-5 -67 c1 -42 -65 -101 -111 -101 -46 0 -49 7 -28 49 26 49 50 69 91 74 19 2
38 5 41 5 3 1 6 -11 7 -27z m7 -71 c3 -5 -1 -10 -10 -10 -9 0 -13 5 -10 10 3
6 8 10 10 10 2 0 7 -4 10 -10z m23 -54 c21 -47 -43 -103 -120 -105 -16 -1 -28
3 -28 7 0 12 61 106 74 114 24 16 63 8 74 -16z m688 -66 c19 0 18 -6 -15 -69
l-28 -54 -17 48 c-19 57 -19 65 -6 100 l10 27 21 -26 c11 -14 27 -26 35 -26z
m71 28 c20 -19 27 -20 43 -10 17 10 20 10 20 -3 0 -16 -57 -135 -65 -135 -9 0
-43 131 -38 150 7 25 11 25 40 -2z m-717 -17 c0 -5 -9 -11 -20 -14 -17 -4 -18
-2 -9 14 9 18 29 18 29 0z m46 -36 c4 -8 3 -36 -1 -61 -7 -48 -22 -60 -108
-85 -25 -7 -27 -6 -21 19 20 98 27 114 58 128 41 18 65 17 72 -1z m648 -123
c4 -7 12 -10 17 -7 14 9 11 -2 -11 -45 -11 -22 -27 -40 -34 -40 -8 0 -28 17
-45 38 -29 37 -29 39 -11 55 10 8 27 42 37 73 l18 58 11 -60 c6 -33 14 -66 18
-72z m-125 53 c0 -17 -2 -15 -14 7 -8 15 -12 35 -8 45 6 16 8 15 14 -7 4 -14
7 -34 8 -45z m-450 44 c17 -6 31 -14 31 -18 0 -10 -80 -54 -87 -47 -8 7 6 76
16 76 4 0 22 -5 40 -11z m285 -44 c17 -54 17 -56 -2 -83 -20 -27 -62 -69 -62
-61 0 2 -9 29 -19 59 -18 54 -18 55 2 85 21 31 46 55 57 55 4 0 14 -25 24 -55z
m-151 15 c42 0 36 -37 -14 -79 -22 -18 -42 -31 -45 -28 -3 3 -8 31 -11 63 -6
57 -6 57 18 51 13 -4 36 -7 52 -7z m317 -83 c0 -9 -61 -97 -67 -97 -5 0 -53
98 -53 109 0 5 11 12 25 15 14 4 31 18 37 32 l12 25 23 -38 c13 -21 23 -42 23
-46z m-400 -9 c7 -36 7 -37 -42 -63 -27 -15 -52 -25 -54 -22 -3 3 -8 29 -11
58 l-5 54 49 25 c47 24 48 24 51 5 2 -11 7 -36 12 -57z m136 -23 c20 -62 15
-72 -45 -108 l-30 -18 -15 52 -16 52 43 38 c23 21 43 38 44 39 1 0 10 -25 19
-55z m144 -117 c-22 -21 -44 -38 -50 -38 -6 0 -20 21 -32 46 l-20 46 43 44 42
43 28 -52 28 -52 -39 -37z m-250 31 c7 -27 11 -52 9 -53 -10 -9 -89 -46 -98
-46 -9 0 -31 60 -31 87 0 11 82 61 102 63 3 0 11 -23 18 -51z m156 -102 c-11
-10 -29 -24 -38 -32 -14 -12 -48 -12 -48 0 0 1 -7 18 -15 38 l-15 35 47 35 47
35 22 -47 22 -46 -22 -18z m-123 16 c2 -10 8 -26 12 -37 7 -17 4 -18 -46 -11
-75 10 -78 15 -28 41 54 28 55 28 62 7z"/>
<path d="M3510 2560 l0 -80 35 0 c34 0 35 1 29 28 -9 36 -51 132 -58 132 -4 0
-6 -36 -6 -80z"/>
<path d="M2775 4698 c-38 -13 -51 -24 -77 -62 -19 -28 -20 -29 -2 -15 12 11
30 15 50 12 20 -3 35 1 43 11 16 19 41 21 41 4 0 -6 -10 -23 -22 -36 l-23 -25
25 13 c29 14 80 60 80 72 0 22 -75 39 -115 26z"/>
<path d="M5315 4603 c-4 -16 -2 -29 5 -33 22 -13 6 -45 -23 -48 -15 -2 -27 1
-27 7 0 6 -15 11 -32 11 -31 -1 -32 -2 -15 -15 11 -7 26 -11 35 -8 9 4 13 2 9
-4 -3 -5 3 -17 14 -26 10 -9 19 -12 19 -7 0 6 5 10 10 10 7 0 7 -7 0 -20 -6
-11 -8 -26 -5 -33 4 -6 0 -4 -8 6 -14 16 -15 15 -19 -13 -5 -37 1 -38 32 -5
13 14 29 25 36 25 9 0 11 6 7 18 -6 15 -5 15 10 3 9 -7 14 -17 12 -22 -3 -4 8
-15 25 -24 l30 -15 -12 25 c-9 21 -14 23 -27 13 -9 -7 -13 -8 -8 -3 4 4 0 20
-9 33 -14 21 -14 24 -1 19 9 -3 28 8 48 29 l33 34 -40 -1 c-33 0 -36 -2 -16
-9 12 -5 22 -11 22 -12 0 -2 -10 -3 -22 -4 -13 0 -30 -2 -38 -5 -11 -3 -15 4
-15 28 0 17 -4 29 -9 26 -4 -3 -5 4 -2 15 4 11 3 23 -3 26 -5 3 -12 -6 -16
-21z m90 -83 c-3 -5 -14 -10 -23 -10 -15 0 -15 2 -2 10 20 13 33 13 25 0z
m-94 -19 c-8 -5 -20 -7 -28 -4 -21 8 -15 13 15 13 20 0 23 -3 13 -9z m14 -49
c-15 -16 -16 -15 -4 12 7 15 15 23 17 16 3 -7 -3 -19 -13 -28z"/>
<path d="M2577 4572 l-47 -48 0 -71 c0 -40 5 -75 10 -78 18 -11 22 23 12 82
l-11 58 57 52 c33 30 50 52 42 53 -9 0 -37 -22 -63 -48z"/>
<path d="M1618 4599 c-3 -8 0 -26 8 -40 12 -21 13 -22 13 -4 0 11 -4 29 -8 39
-6 16 -9 17 -13 5z"/>
<path d="M3100 4574 c0 -42 -12 -64 -45 -82 -20 -11 -20 -11 1 -12 35 0 67 33
66 68 0 17 -5 39 -11 49 -8 15 -10 10 -11 -23z"/>
<path d="M1590 4551 c-6 -12 -8 -26 -5 -31 7 -12 3 -12 -20 -4 -13 6 -14 9 -3
16 9 7 7 8 -9 5 -13 -3 -26 -1 -29 4 -3 5 -12 9 -21 9 -11 0 -5 -11 18 -38 21
-23 40 -36 49 -33 13 4 13 2 1 -12 -7 -9 -18 -14 -24 -10 -6 3 -7 1 -3 -5 4
-7 3 -12 -1 -12 -5 0 -14 -9 -21 -20 -14 -23 0 -27 21 -5 8 8 18 11 22 7 5 -4
5 -2 2 4 -4 6 3 20 15 30 21 19 21 19 9 -3 -10 -19 -9 -23 3 -23 8 0 26 -14
40 -31 l26 -31 0 38 c0 36 -1 37 -16 18 -8 -10 -13 -13 -9 -7 3 7 1 21 -5 30
-9 15 -10 14 -4 -7 6 -22 5 -23 -10 -11 -13 11 -14 17 -5 28 7 8 18 11 26 9
12 -5 93 28 93 38 0 2 -24 3 -52 2 -49 -1 -53 1 -56 24 -5 36 -18 45 -32 21z
m20 -18 c0 -19 -3 -24 -10 -17 -6 6 -8 18 -4 27 9 24 14 21 14 -10z m-39 -41
c-7 -2 -23 6 -35 18 l-21 22 35 -18 c21 -10 30 -19 21 -22z m96 -13 c-14 -8
-22 -8 -30 0 -8 8 -3 11 19 11 25 -1 27 -2 11 -11z"/>
<path d="M3151 4541 c-1 -41 -37 -106 -69 -127 -65 -42 -118 -47 -218 -19 -27
8 -44 -29 -44 -95 0 -43 -3 -50 -19 -50 -27 0 -30 -7 -51 -120 l-17 -99 21 11
c39 21 124 87 144 112 11 14 30 50 42 81 17 43 28 56 49 61 114 25 130 33 140
72 23 91 33 149 28 177 l-4 30 -2 -34z"/>
<path d="M5353 4548 c-2 -16 1 -18 10 -9 7 7 8 14 1 21 -6 6 -10 2 -11 -12z"/>
<path d="M5300 4551 c0 -6 4 -13 10 -16 6 -3 7 1 4 9 -7 18 -14 21 -14 7z"/>
<path d="M1635 4521 c-2 -4 10 -8 26 -9 16 -1 29 -1 29 2 0 7 -50 13 -55 7z"/>
<path d="M2865 4520 c-11 -4 -36 -24 -55 -45 l-35 -36 45 20 c25 11 60 21 78
21 17 0 32 4 32 9 0 5 3 16 6 25 5 12 0 16 -22 15 -16 0 -38 -4 -49 -9z"/>
<path d="M4960 4498 c0 -16 -12 -18 -115 -18 -63 0 -115 -2 -115 -4 0 -2 18
-42 41 -90 22 -48 60 -148 84 -221 24 -73 56 -152 71 -174 l27 -41 134 0 133
0 -6 28 c-14 58 -74 211 -118 302 -54 112 -135 242 -136 218z"/>
<path d="M1970 4433 c-72 -112 -200 -411 -200 -467 0 -14 18 -16 150 -16 l150
0 6 28 c27 114 80 276 123 376 28 65 51 120 51 122 0 2 -56 4 -125 4 l-125 0
-30 -47z"/>
<path d="M2255 4388 c-47 -99 -105 -264 -128 -363 l-14 -60 66 -3 c36 -1 161
-5 278 -7 200 -5 212 -5 222 13 8 15 51 239 51 266 0 4 -13 5 -29 1 -23 -5
-29 -2 -34 14 -4 16 1 21 27 27 45 9 56 22 56 65 0 79 -53 90 -117 24 -38 -40
-47 -45 -87 -45 l-45 0 -7 80 -7 80 -94 0 -94 0 -44 -92z"/>
<path d="M5430 4370 c0 -8 -3 -26 -6 -40 -4 -20 -3 -22 5 -10 9 12 11 9 11
-14 0 -24 -2 -27 -15 -16 -15 12 -22 0 -8 -14 4 -3 7 -15 8 -25 1 -13 -3 -17
-14 -14 -10 3 -12 2 -5 -4 5 -4 10 -18 10 -31 0 -20 -2 -21 -12 -8 -10 14 -12
12 -18 -15 -3 -18 -5 -34 -3 -35 2 -2 17 10 33 28 16 17 23 28 17 24 -16 -9
-17 10 -2 19 6 4 16 -1 23 -10 12 -16 13 -16 12 6 -1 17 4 24 16 23 9 -1 19 4
22 11 3 9 -3 11 -17 8 -18 -3 -17 -1 6 12 15 9 31 13 36 11 5 -3 14 1 21 9 11
13 6 15 -33 15 -25 0 -47 3 -50 8 -2 4 -2 2 -1 -5 2 -7 -1 -15 -6 -18 -6 -4
-9 11 -8 35 1 22 -4 46 -10 52 -9 9 -12 9 -12 -2z m70 -90 c-19 -13 -30 -13
-30 0 0 6 10 10 23 10 18 0 19 -2 7 -10z"/>
<path d="M1490 4350 c-7 -91 -18 -120 -44 -120 -7 0 -22 -20 -34 -45 -22 -45
-17 -58 11 -30 8 8 18 11 22 7 5 -4 5 -1 1 6 -4 7 -2 21 6 30 12 16 11 16 -6
2 -17 -13 -19 -13 -14 0 8 24 33 18 32 -7 0 -13 2 -21 5 -18 2 3 20 -9 38 -27
l33 -32 0 28 c0 25 -2 27 -17 15 -11 -9 -14 -10 -9 -2 4 7 2 22 -4 33 -6 12
-7 20 -1 20 5 0 11 -5 13 -12 3 -7 7 -5 11 6 4 9 3 15 -1 12 -4 -2 -14 0 -22
5 -11 8 -7 9 17 7 19 -3 30 0 26 6 -4 5 0 7 9 3 9 -3 24 1 35 8 17 13 16 14
-14 15 -17 0 -35 -4 -38 -10 -8 -13 -42 -13 -50 1 -4 5 -2 23 4 38 8 18 9 35
2 52 -5 13 -10 17 -11 9z m10 -170 c12 -23 12 -24 -3 -11 -10 7 -17 20 -17 29
0 18 3 16 20 -18z"/>
<path d="M3510 4309 c17 -14 26 -17 28 -9 5 14 -16 30 -38 30 -10 -1 -7 -7 10
-21z"/>
<path d="M1360 4285 c0 -10 91 -45 101 -39 5 3 9 13 9 24 0 15 -5 17 -35 10
-20 -4 -38 -4 -41 1 -6 10 -34 13 -34 4z m100 -25 c0 -13 -11 -13 -30 0 -12 8
-11 10 8 10 12 0 22 -4 22 -10z"/>
<path d="M5326 4281 c5 -5 16 -11 24 -13 8 -2 21 -10 28 -18 8 -8 11 -10 8 -3
-4 7 3 13 16 16 22 4 22 4 -2 6 -20 1 -22 3 -10 11 11 7 3 10 -29 10 -28 0
-41 -4 -35 -9z"/>
<path d="M1507 4266 c-4 -10 -1 -13 8 -9 8 3 12 9 9 14 -7 12 -11 11 -17 -5z"/>
<path d="M5470 4222 c0 -6 5 -14 10 -17 6 -4 8 -10 5 -15 -3 -4 7 -15 21 -25
26 -16 26 -16 19 7 -9 28 -24 56 -25 44 0 -5 -7 -3 -15 4 -9 8 -15 9 -15 2z"/>
<path d="M3420 4087 c0 -11 63 -97 71 -97 23 0 13 22 -26 60 -25 24 -45 41
-45 37z"/>
<path d="M1520 4054 c0 -3 11 -15 25 -26 19 -15 25 -29 25 -59 0 -25 -5 -39
-12 -39 -26 0 -265 47 -276 54 -7 4 -12 17 -12 28 0 12 -3 18 -7 15 -8 -9 -33
-141 -27 -147 5 -4 20 15 27 34 2 7 208 -24 270 -41 36 -10 7 -93 -33 -93 -31
0 -33 -19 -3 -25 73 -16 62 -33 93 139 27 146 27 143 -17 155 -44 13 -53 13
-53 5z"/>
<path d="M5565 4031 c-91 -22 -127 -84 -133 -228 -5 -117 2 -152 21 -113 12
24 17 25 147 31 154 6 170 4 170 -22 0 -11 5 -19 11 -19 17 0 0 207 -21 257
-30 69 -119 112 -195 94z m120 -75 c40 -17 63 -58 67 -117 l3 -44 -45 -7 c-25
-3 -91 -7 -147 -7 l-103 -1 0 43 c0 114 111 180 225 133z"/>
<path d="M1741 3858 c-18 -97 -30 -192 -37 -300 l-6 -108 54 0 c49 0 57 3 89
38 20 20 74 100 121 177 69 112 87 150 92 193 l7 52 -155 0 -155 0 -10 -52z"/>
<path d="M2304 3868 c4 -23 8 -43 9 -44 1 0 38 -25 82 -54 44 -29 82 -55 84
-56 6 -5 -82 -134 -91 -134 -4 0 -60 32 -125 70 -64 39 -120 67 -124 63 -3 -5
-35 -51 -70 -103 -44 -66 -62 -103 -60 -120 4 -35 8 -36 30 -9 l20 24 1 -27 0
-28 179 0 c150 0 180 -2 185 -15 9 -24 36 -18 131 31 66 33 110 65 163 117 39
39 72 75 72 79 0 5 -29 8 -65 8 -36 0 -65 -3 -65 -8 0 -4 7 -17 15 -29 14 -20
13 -23 -35 -52 -59 -37 -62 -37 -85 -11 -31 35 -17 128 37 243 l47 97 -171 0
-171 0 7 -42z"/>
<path d="M2230 3800 c-8 -5 -35 -10 -60 -10 l-45 -1 25 -20 c16 -14 34 -19 55
-16 25 3 44 -6 110 -56 86 -67 82 -53 -17 56 -41 45 -56 55 -68 47z"/>
<path d="M1206 3713 c-3 -21 -6 -56 -5 -78 l0 -40 14 27 c14 25 17 26 77 21
35 -3 65 -7 67 -9 8 -7 -23 -34 -99 -84 l-80 -53 0 -46 1 -46 19 26 c18 24
137 109 153 109 4 0 7 -9 7 -20 0 -12 11 -32 25 -46 20 -20 33 -25 67 -22 35
2 46 9 64 35 21 31 26 53 40 176 4 39 3 57 -5 57 -6 0 -11 -6 -11 -14 0 -25
-17 -27 -122 -17 -184 19 -188 20 -188 42 0 34 -17 20 -24 -18z m268 -89 c40
-6 46 -10 46 -31 0 -27 -17 -64 -34 -75 -21 -14 -63 -8 -80 11 -10 11 -20 38
-23 60 -6 46 -3 47 91 35z"/>
<path d="M5440 3564 c0 -41 4 -63 10 -59 6 3 10 12 10 20 0 7 7 16 16 19 20 8
129 6 169 -3 29 -6 26 -9 -93 -95 l-122 -90 0 -48 c0 -52 9 -61 25 -25 10 21
13 22 140 19 151 -4 165 -7 165 -33 0 -10 4 -19 9 -19 5 0 11 27 13 61 3 61
-5 86 -17 50 -9 -29 -36 -34 -152 -26 l-104 7 148 111 148 112 -45 3 c-25 2
-99 6 -165 10 -112 7 -121 9 -130 30 -17 38 -25 24 -25 -44z"/>
<path d="M2810 3555 c-45 -47 -304 -247 -350 -270 -48 -25 -22 -30 42 -10 97
32 171 78 250 157 72 72 80 77 125 81 l48 3 -47 2 c-52 2 -53 3 -37 33 20 38
4 40 -31 4z"/>
<path d="M1710 3365 c0 -59 25 -221 48 -310 l18 -70 153 -3 154 -3 -7 33 c-17
84 -36 203 -36 227 -1 25 -1 25 -16 6 -8 -11 -44 -58 -81 -104 l-66 -85 -29
84 c-15 47 -33 96 -40 108 -7 13 -13 55 -13 93 l0 69 -42 0 -43 0 0 -45z"/>
<path d="M2020 3387 c0 -31 -30 -62 -88 -91 -26 -13 -58 -33 -72 -45 -23 -20
-21 -19 44 5 38 14 78 30 88 35 10 5 23 7 28 4 6 -4 10 17 10 54 0 34 -2 61
-5 61 -3 0 -5 -10 -5 -23z"/>
<path d="M2065 3383 c2 -16 7 -65 10 -111 6 -92 30 -234 45 -270 9 -21 15 -23
73 -20 l62 3 -3 30 c-2 17 -16 57 -33 89 -18 37 -29 75 -29 100 0 79 80 166
179 197 15 4 -45 8 -141 8 l-167 1 4 -27z"/>
<path d="M3872 3398 c-8 -8 2 -23 41 -61 l52 -49 -46 -12 c-45 -12 -109 -50
-109 -65 0 -4 24 -6 54 -3 72 6 131 -22 191 -91 25 -29 45 -54 45 -58 0 -3
-25 -9 -56 -13 -49 -6 -134 -38 -134 -51 0 -3 17 -16 38 -29 43 -28 115 -96
138 -131 9 -15 13 -32 9 -45 -6 -20 -11 -21 -79 -15 -65 6 -73 5 -90 -14 -19
-21 -19 -22 15 -59 45 -48 64 -79 72 -119 8 -43 0 -62 -23 -56 -33 9 -70 -6
-70 -27 0 -18 7 -20 59 -20 l58 0 21 -72 c30 -104 45 -196 37 -237 -4 -22 -25
-55 -57 -91 l-51 -55 157 -3 157 -3 35 28 c55 41 179 187 250 293 54 82 61 95
44 98 -10 2 -22 12 -25 22 -9 29 -80 134 -119 178 l-36 40 47 7 c27 4 70 17
96 30 40 19 47 20 41 6 -22 -54 -34 -113 -34 -173 l0 -68 39 0 38 0 53 118
c51 114 120 308 120 338 0 11 -18 14 -85 14 l-85 0 -2 -57 c-1 -32 -2 -68 -2
-80 0 -28 -1 -28 -67 1 -62 27 -194 66 -230 67 -13 0 7 7 46 16 89 19 166 56
226 111 l48 43 -6 -36 -6 -36 89 3 88 3 13 60 c24 115 45 299 34 303 -5 2 -28
16 -50 33 -45 32 -53 35 -50 17 6 -45 -10 -49 -58 -12 l-33 25 0 -25 c0 -31
-13 -32 -65 -6 -22 11 -41 20 -42 20 -2 0 -3 -9 -3 -20 0 -11 -6 -20 -14 -20
-8 0 -35 9 -61 20 -56 24 -55 24 -55 5 0 -19 -46 -19 -80 0 -33 19 -51 19 -43
-1 4 -10 -1 -17 -14 -20 -18 -5 -21 -17 -26 -91 -6 -78 -15 -102 -37 -103 -3
0 -4 47 -2 104 l4 104 -30 16 c-39 20 -42 20 -42 -4 0 -26 -25 -26 -68 0 -37
23 -59 25 -64 8 -3 -9 -12 -9 -38 0 -43 15 -153 15 -168 0z m791 -200 c62 -25
79 -38 50 -38 -17 0 -154 -37 -242 -65 -22 -7 -22 -5 9 34 26 32 34 53 38 96
l4 54 44 -30 c25 -17 68 -40 97 -51z m-301 -654 c39 -32 118 -72 180 -91 l49
-14 -38 -28 c-48 -36 -113 -104 -147 -156 l-26 -40 0 96 c0 91 -19 181 -51
242 -13 24 -2 21 33 -9z m-46 -266 c19 -37 34 -72 34 -78 0 -6 -28 -10 -69
-10 -38 0 -86 -6 -108 -14 l-40 -14 33 66 c21 43 38 95 45 145 l12 79 29 -54
c16 -29 45 -83 64 -120z"/>
<path d="M5030 3385 c0 -28 -6 -30 -44 -15 -30 11 -32 8 -41 -115 -3 -44 -14
-122 -24 -173 -13 -69 -15 -95 -7 -98 7 -3 75 -3 151 -2 l140 3 12 36 c19 59
41 176 53 283 10 97 8 124 -10 96 -7 -12 -15 -12 -43 -2 -47 17 -65 15 -72 -8
-8 -25 -26 -25 -75 0 l-40 20 0 -25z"/>
<path d="M1190 3349 c0 -43 10 -79 21 -79 5 0 9 9 9 20 0 23 2 23 51 10 34 -9
37 -14 43 -56 11 -85 9 -93 -30 -111 -35 -17 -36 -17 -51 2 -14 18 -15 16 -9
-35 3 -30 6 -63 6 -72 0 -25 13 -22 25 5 6 13 68 57 155 110 80 48 146 91 148
96 2 5 -21 16 -50 24 -29 9 -104 30 -167 48 -68 20 -121 41 -132 53 -19 20
-19 19 -19 -15z m225 -87 l60 -18 -40 -26 c-80 -50 -85 -52 -85 -25 0 14 -3
39 -6 56 -8 36 -7 36 71 13z"/>
<path d="M2420 3224 c0 -5 -9 -40 -19 -77 -20 -67 -14 -80 13 -29 16 31 24 97
13 108 -4 4 -7 3 -7 -2z"/>
<path d="M2561 3175 c-57 -23 -107 -49 -112 -56 -5 -8 -9 -42 -9 -76 l0 -63
126 0 126 0 -7 78 c-4 42 -10 96 -14 118 l-6 42 -104 -43z"/>
<path d="M5735 3177 c-7 -17 -44 -28 -210 -57 -139 -24 -155 -28 -155 -40 0
-4 63 -54 139 -110 77 -56 141 -111 144 -121 9 -33 23 -20 33 31 11 51 6 61
-16 35 -12 -15 -24 -12 -63 19 -17 13 -17 19 -5 76 10 50 17 64 36 71 41 16
72 11 72 -11 0 -43 17 -17 29 45 12 61 9 99 -4 62z m-160 -144 c-12 -64 -16
-66 -66 -30 -25 17 -46 37 -48 42 -2 10 41 21 93 24 27 1 28 0 21 -36z"/>
<path d="M2350 2950 c0 -117 2 -131 15 -120 12 10 15 37 15 120 0 83 -3 110
-15 120 -13 11 -15 -3 -15 -120z"/>
<path d="M1557 3042 c-5 -26 -14 -31 -125 -65 -134 -42 -157 -44 -171 -20 -18
33 -20 8 -4 -50 16 -56 33 -76 33 -38 0 10 6 23 13 29 14 11 208 75 213 69 2
-2 -39 -67 -91 -145 -52 -78 -95 -146 -95 -151 0 -5 64 11 143 35 159 49 172
51 186 27 19 -35 22 -4 5 51 -18 58 -34 73 -34 32 0 -18 -9 -27 -37 -39 -43
-17 -142 -47 -155 -47 -5 0 30 57 77 126 l87 126 -12 44 c-14 51 -25 56 -33
16z"/>
<path d="M1790 2946 c0 -3 12 -38 26 -78 32 -89 90 -207 152 -310 l47 -78 128
0 127 0 -38 78 c-44 88 -92 213 -122 320 l-21 72 -149 0 c-83 0 -150 -2 -150
-4z"/>
<path d="M2134 2933 c3 -10 13 -45 22 -78 23 -83 79 -227 120 -307 l34 -68 98
0 97 1 -107 102 c-58 56 -111 112 -117 124 -6 12 -11 57 -11 101 0 44 -3 94
-6 111 -6 31 -7 31 -71 31 -57 0 -64 -2 -59 -17z"/>
<path d="M2433 2888 c2 -35 12 -83 21 -108 18 -45 18 -141 1 -200 -6 -21 -5
-23 6 -12 17 16 29 15 29 -2 0 -8 5 -27 11 -43 9 -26 11 -26 21 -9 5 10 13 59
17 110 l7 91 13 -70 c7 -39 12 -92 10 -118 l-4 -47 116 0 116 0 -29 111 c-15
62 -38 164 -49 228 -12 64 -23 119 -26 123 -2 5 -63 8 -134 8 l-131 0 5 -62z"/>
<path d="M4892 2933 c-5 -10 -15 -40 -22 -68 -19 -71 -85 -246 -120 -316 -17
-32 -30 -61 -30 -64 0 -3 56 -5 124 -5 l124 0 45 73 c75 121 177 342 177 384
0 10 -34 13 -145 13 -127 0 -145 -2 -153 -17z"/>
<path d="M5314 2895 l-22 -50 100 -101 100 -102 -144 -7 -145 -7 -16 -47 c-22
-60 -21 -69 3 -43 l20 22 53 -21 c28 -12 63 -25 77 -31 104 -40 140 -61 140
-84 0 -39 14 -27 37 33 22 54 22 87 2 50 -14 -25 -39 -21 -145 21 -112 44
-106 50 68 51 64 1 119 4 122 9 2 4 -43 58 -100 119 l-105 112 88 -36 c133
-53 143 -60 143 -90 0 -36 13 -21 43 52 27 63 27 79 1 53 -20 -19 -31 -17
-181 46 -100 42 -112 50 -115 74 -3 24 -5 22 -24 -23z"/>
<path d="M1600 2643 c-26 -24 -33 -41 -45 -112 -16 -94 -26 -111 -65 -111 -58
0 -79 74 -39 139 11 18 18 36 15 38 -6 6 -96 -49 -96 -58 0 -4 7 -9 15 -13 8
-3 15 -15 15 -27 0 -35 40 -106 67 -118 37 -17 77 -13 102 10 28 26 37 49 45
124 9 73 28 105 61 105 46 0 61 -77 25 -123 -34 -42 -23 -50 30 -20 45 25 69
57 38 51 -7 -2 -15 15 -18 41 -5 32 -15 52 -39 73 -40 35 -72 36 -111 1z"/>
<path d="M5120 2459 c-14 -22 -24 -45 -22 -50 1 -5 32 -57 68 -115 37 -58 64
-107 62 -109 -3 -3 -64 7 -137 21 -73 14 -134 24 -135 22 -1 -2 -14 -20 -29
-40 -31 -43 -37 -70 -9 -45 10 10 23 17 28 17 5 -1 59 -36 119 -79 102 -72
110 -80 109 -109 -1 -18 1 -32 6 -32 4 0 24 25 44 55 20 30 32 55 27 55 -6 0
-13 -4 -16 -10 -13 -20 -42 -9 -132 52 -50 35 -90 64 -89 65 2 2 65 -8 140
-22 76 -14 142 -25 147 -23 4 2 -24 55 -62 118 -100 163 -98 157 -42 119 134
-91 155 -110 150 -135 -7 -38 9 -28 52 33 40 55 47 79 16 53 -20 -17 -30 -12
-156 77 -94 67 -109 81 -104 101 8 35 -8 26 -35 -19z"/>
<path d="M1809 2465 c-1 -5 -1 -19 0 -30 1 -15 -28 -39 -118 -98 -102 -67
-122 -77 -139 -68 -35 19 -34 13 8 -49 42 -63 56 -74 47 -40 -6 23 7 38 59 71
l37 23 16 -25 c60 -91 161 -105 199 -26 10 20 10 36 3 64 -11 39 -110 196
-112 178z m71 -170 c0 -36 -37 -75 -70 -75 -16 0 -80 56 -80 69 0 4 26 23 58
43 57 36 57 36 75 16 9 -11 17 -35 17 -53z"/>
<path d="M2059 2422 c17 -32 155 -185 222 -246 35 -32 96 -82 134 -111 l70
-52 65 4 65 4 -64 67 c-68 71 -188 228 -233 305 l-28 47 -120 0 c-113 0 -120
-1 -111 -18z"/>
<path d="M2340 2435 c0 -10 70 -117 118 -180 25 -33 84 -99 131 -147 l85 -88
159 0 c87 0 157 3 155 8 -1 4 -27 54 -56 112 -29 58 -68 148 -86 200 l-34 95
-236 3 c-130 1 -236 0 -236 -3z"/>
<path d="M4664 2393 c-48 -84 -140 -206 -219 -290 l-77 -83 49 0 c27 0 53 -4
58 -9 23 -23 308 227 411 361 24 31 44 59 44 62 0 3 -54 6 -119 6 l-119 0 -28
-47z"/>
<path d="M1884 2128 c-97 -65 -121 -174 -56 -256 59 -74 132 -90 218 -47 71
36 99 81 99 164 0 78 -24 120 -85 151 -60 31 -118 26 -176 -12z m204 -44 c44
-51 20 -132 -60 -195 -76 -60 -135 -61 -180 -5 -45 54 7 159 103 209 63 33
102 31 137 -9z"/>
<path d="M4820 2074 c-69 -30 -102 -79 -103 -154 -2 -115 123 -218 229 -189
49 14 110 75 123 125 16 58 -7 128 -56 176 -61 59 -123 73 -193 42z m88 -43
c127 -66 164 -224 60 -260 -41 -15 -101 12 -151 68 -63 69 -76 140 -34 178 41
38 72 41 125 14z"/>
<path d="M2565 1964 c50 -39 340 -172 351 -161 2 1 -23 18 -54 36 -31 19 -89
58 -128 87 -68 51 -74 54 -130 54 -55 -1 -58 -2 -39 -16z"/>
<path d="M2730 1976 c0 -10 172 -118 245 -154 76 -37 205 -83 270 -96 l30 -6
-30 22 c-56 42 -137 123 -182 181 l-44 57 -145 0 c-79 0 -144 -2 -144 -4z"/>
<path d="M3939 1948 c-49 -71 -115 -140 -172 -184 -51 -38 -56 -44 -31 -39 79
19 177 52 251 86 78 36 246 139 258 159 4 6 -49 10 -139 10 l-145 0 -22 -32z"/>
<path d="M4259 1932 c-35 -27 -100 -70 -144 -95 -44 -26 -77 -47 -73 -47 30 0
279 111 353 158 l50 32 -61 0 c-58 0 -65 -3 -125 -48z"/>
<path d="M2242 1945 c12 -28 7 -38 -100 -175 -49 -63 -63 -75 -85 -73 -15 1
-27 0 -27 -2 0 -2 28 -25 62 -51 34 -27 59 -40 55 -31 -4 9 -9 23 -12 30 -7
17 63 109 78 104 8 -2 13 -39 15 -105 l3 -102 33 -25 c39 -30 50 -32 37 -7 -6
11 -13 60 -17 110 l-7 91 34 -10 c45 -14 83 1 103 40 27 52 5 94 -89 168 -44
34 -83 62 -87 63 -4 0 -2 -11 4 -25z m107 -91 c25 -32 27 -62 5 -93 -14 -19
-23 -22 -55 -18 -21 3 -47 11 -58 19 -19 13 -18 15 20 66 22 29 46 52 54 52 7
0 23 -12 34 -26z"/>
<path d="M4614 1892 c-7 -10 -29 -24 -50 -30 -49 -15 -65 -28 -98 -76 -74
-110 16 -286 148 -286 78 0 186 89 186 155 0 26 -14 15 -36 -28 -37 -76 -122
-101 -188 -56 -70 48 -108 163 -70 217 33 48 109 66 152 36 39 -27 43 -11 9
38 -17 26 -34 48 -37 48 -3 0 -10 -8 -16 -18z"/>
<path d="M2491 1737 c-30 -48 -26 -61 9 -35 29 21 31 21 66 5 l35 -17 -62
-118 c-76 -144 -77 -145 -107 -137 -40 10 -15 -13 50 -46 61 -31 83 -33 55 -4
-10 9 -13 23 -10 33 15 39 125 242 132 242 9 0 54 -31 63 -44 4 -6 4 -23 1
-38 -3 -15 -1 -28 4 -28 9 0 43 62 43 78 0 5 -58 38 -129 75 l-129 67 -21 -33z"/>
<path d="M4178 1652 c-49 -16 -63 -32 -29 -32 10 0 24 -6 30 -14 12 -14 73
-186 66 -186 -2 0 -61 38 -132 84 l-127 83 -43 -14 c-24 -8 -43 -19 -43 -25 0
-5 6 -8 13 -5 30 11 48 -17 89 -144 l42 -131 -25 -19 c-30 -23 -12 -24 58 -2
59 18 67 30 26 35 -26 3 -31 11 -66 112 -20 60 -36 110 -35 111 2 1 70 -40
151 -93 81 -52 151 -92 154 -88 3 3 -15 66 -41 140 -51 148 -53 161 -29 188
20 22 8 23 -59 0z"/>
<path d="M2775 1482 c-61 -70 -120 -131 -133 -137 -32 -14 -28 -21 22 -34 59
-15 62 -14 43 7 -16 17 -15 20 11 52 l28 33 55 -18 c63 -20 79 -37 79 -82 0
-26 -4 -33 -20 -33 -39 0 -19 -17 40 -33 75 -21 73 -21 56 6 -8 13 -21 87 -31
177 -17 163 -22 190 -33 189 -4 0 -57 -57 -117 -127z m94 -44 c1 -26 -3 -38
-13 -38 -12 0 -77 20 -85 26 -2 2 16 26 40 55 l44 51 6 -28 c4 -16 7 -46 8
-66z"/>
<path d="M3020 1558 c0 -7 -3 -31 -6 -53 l-6 -40 27 33 c22 26 34 32 66 32
l39 0 -5 -37 c-3 -21 -12 -84 -20 -140 -15 -115 -18 -123 -46 -123 -38 0 -18
-18 29 -24 26 -4 59 -9 75 -12 16 -3 27 -1 27 5 0 6 -6 11 -14 11 -27 0 -28
21 -10 165 l18 144 30 -6 c49 -9 66 -22 66 -48 0 -29 15 -41 24 -19 7 18 8 84
1 84 -8 0 -228 30 -262 36 -23 3 -33 1 -33 -8z"/>
<path d="M3720 1540 c-138 -24 -195 -191 -104 -300 42 -49 79 -63 147 -57 72
6 104 27 135 87 28 56 29 120 1 177 -33 69 -105 106 -179 93z m89 -55 c15 -15
29 -46 37 -85 21 -101 1 -166 -57 -190 -76 -32 -138 36 -146 159 -4 54 -1 72
16 99 37 57 103 65 150 17z"/>
<path d="M3400 1511 c0 -5 9 -11 20 -14 19 -5 20 -14 20 -154 l0 -149 -27 -11
c-24 -9 -15 -11 57 -12 81 0 84 1 58 15 l-28 15 0 130 c0 131 8 169 35 169 8
0 15 5 15 10 0 6 -32 10 -75 10 -41 0 -75 -4 -75 -9z"/>
</g>
</svg>
