<?xml version="1.0" standalone="no"?>
<!DOCTYPE svg PUBLIC "-//W3C//DTD SVG 20010904//EN"
 "http://www.w3.org/TR/2001/REC-SVG-20010904/DTD/svg10.dtd">
<svg version="1.0" xmlns="http://www.w3.org/2000/svg"
 width="700.000000pt" height="700.000000pt" viewBox="0 0 700.000000 700.000000"
 preserveAspectRatio="xMidYMid meet">
<metadata>
Created by potrace 1.11, written by Peter Selinger 2001-2013
</metadata>
<g transform="translate(0.000000,700.000000) scale(0.100000,-0.100000)"
fill="#000000" stroke="none">
<path d="M3206 6503 c-104 -274 -189 -499 -190 -500 -1 -1 -47 -12 -101 -23
-266 -58 -612 -204 -837 -354 l-98 -65 -467 188 c-258 104 -469 188 -471 186
-1 -1 88 -201 198 -444 110 -243 200 -445 200 -448 0 -3 -38 -63 -84 -132
-212 -318 -345 -656 -401 -1028 l-18 -111 -76 -32 c-410 -171 -850 -365 -844
-370 4 -4 220 -87 480 -185 l471 -177 27 -112 c72 -293 195 -572 362 -819 40
-60 73 -113 73 -118 0 -5 -88 -228 -195 -496 -107 -268 -194 -487 -192 -488 1
-1 219 96 484 216 l482 218 83 -55 c111 -72 349 -193 471 -238 195 -73 347
-110 627 -154 l45 -7 177 -470 c97 -259 179 -474 180 -478 2 -5 100 219 218
497 l215 505 50 12 c229 54 578 204 775 334 47 31 88 59 92 61 4 3 5 -1 2 -9
-3 -10 117 -61 473 -199 263 -102 479 -184 481 -183 1 1 -92 205 -208 453
l-210 450 76 108 c181 259 314 553 388 859 l27 110 502 189 c276 104 506 192
510 196 4 4 -212 101 -480 215 -268 114 -493 213 -499 219 -6 6 -16 47 -23 91
-53 344 -207 724 -414 1023 l-64 93 203 449 c112 247 204 451 204 454 0 2
-213 -81 -473 -185 l-474 -190 -99 66 c-247 165 -587 303 -897 366 -83 17
-153 31 -153 32 -1 1 -95 220 -209 487 -114 267 -208 486 -210 488 -1 1 -86
-222 -189 -495z m659 -652 c433 -77 809 -251 1145 -530 342 -284 620 -705 745
-1129 194 -660 110 -1349 -235 -1922 -389 -648 -1043 -1065 -1799 -1151 -152
-17 -494 -7 -646 20 -939 162 -1690 854 -1920 1770 -178 706 -29 1441 410
2026 369 490 935 829 1535 919 163 24 161 24 410 21 186 -2 260 -7 355 -24z"/>
<path d="M3324 5270 c-740 -72 -1355 -589 -1555 -1309 -76 -275 -79 -621 -8
-906 158 -631 663 -1136 1294 -1294 285 -71 631 -68 906 8 450 125 830 415
1066 811 99 167 176 364 213 548 26 132 38 268 22 258 -7 -4 -33 2 -58 13 -57
25 -54 25 -54 1 0 -11 -7 -23 -16 -27 -15 -6 -29 -2 -87 22 -13 6 -16 3 -11
-9 8 -21 -19 -31 -54 -18 -24 8 -31 7 -40 -9 -10 -15 -17 -17 -38 -9 -15 6
-38 20 -52 31 l-26 20 -8 -20 c-9 -27 -32 -27 -70 0 -28 20 -29 20 -26 3 5
-28 -36 -30 -78 -3 l-36 22 7 -21 c5 -18 2 -22 -16 -22 -13 0 -43 7 -66 16
-42 16 -44 16 -57 -2 -14 -18 -15 -18 -65 3 -49 21 -51 21 -51 2 0 -27 -45
-25 -99 6 -51 30 -49 29 -47 8 2 -28 -41 -28 -85 1 -45 30 -49 31 -49 11 0
-23 -32 -18 -92 14 l-54 28 -37 -29 -37 -30 50 -45 c27 -25 50 -48 50 -52 0
-4 -20 -12 -44 -19 -24 -6 -57 -22 -72 -35 l-28 -24 55 0 c68 0 121 -26 178
-88 43 -46 44 -47 80 -36 87 26 241 132 299 205 30 39 28 25 -10 -51 -36 -74
-98 -134 -184 -180 -60 -32 -196 -73 -243 -73 -25 0 -68 -20 -45 -20 18 0 112
-88 145 -136 33 -48 263 -236 411 -336 l96 -65 -26 -16 c-52 -31 -111 -88
-150 -146 l-39 -59 -12 65 c-22 118 -91 266 -207 440 -37 56 -59 81 -64 73 -5
-8 16 -48 52 -104 112 -170 184 -333 197 -446 l7 -57 -60 4 c-45 4 -77 0 -119
-15 l-59 -19 7 26 c24 89 23 313 -1 421 -18 78 -49 160 -62 160 -10 0 -12 -6
-7 -22 56 -171 74 -330 56 -473 -7 -49 -13 -101 -14 -114 -1 -13 -12 -30 -24
-38 -13 -8 -41 -43 -64 -77 -23 -33 -39 -52 -36 -41 55 185 76 524 32 527 -5
0 -16 3 -23 6 -7 2 -23 0 -35 -5 -19 -9 -24 -24 -35 -102 -7 -51 -19 -106 -28
-122 -8 -16 -12 -35 -8 -41 4 -6 3 -8 -3 -5 -6 4 -15 -5 -22 -20 -14 -30 -25
-23 -40 27 l-11 35 4 -44 c5 -54 19 -69 42 -50 11 9 5 -9 -16 -48 -18 -35 -36
-63 -39 -63 -15 0 -70 68 -103 126 -26 45 -33 65 -26 77 17 32 1 17 -27 -23
-29 -42 -40 -42 -48 0 -3 19 -5 16 -6 -11 0 -20 -7 -42 -15 -48 -11 -10 -18
-1 -34 48 -18 53 -19 61 -6 72 71 59 55 213 -35 341 -21 30 -52 84 -70 119
-71 144 -200 263 -326 300 -115 34 -118 35 -109 67 4 15 8 61 10 103 l2 77
-57 -29 c-32 -16 -93 -38 -136 -49 -57 -15 -331 -119 -352 -134 -1 0 -6 -62
-13 -136 -10 -129 -10 -138 10 -182 22 -50 29 -145 16 -208 -6 -32 -6 -34 8
-16 14 18 16 16 22 -23 4 -23 10 -44 14 -46 10 -6 17 28 26 130 5 66 8 75 16
55 24 -63 26 -235 3 -258 -3 -3 -45 32 -93 79 -48 46 -105 97 -126 113 -48 36
-80 105 -72 154 3 19 0 85 -6 146 -8 89 -16 121 -38 161 -36 66 -43 97 -30
146 22 79 104 144 220 174 105 27 228 97 306 176 l68 69 -57 0 -57 0 12 -26
c10 -21 9 -28 -2 -35 -8 -4 -33 -20 -56 -33 -36 -23 -43 -24 -61 -11 -14 10
-23 30 -27 67 -6 47 -2 63 33 145 74 173 125 240 247 321 65 43 94 82 124 160
l18 47 78 20 c77 21 79 21 90 60 6 22 14 58 18 80 l7 40 -20 -32 c-46 -74
-153 -110 -238 -80 -41 14 -43 14 -58 -9 -8 -13 -15 -45 -15 -73 0 -56 0 -56
-91 -66 -47 -6 -57 -4 -63 10 -9 25 -1 32 44 39 39 6 40 7 40 46 0 49 -27 81
-62 73 -13 -3 -39 -24 -59 -46 -32 -37 -40 -41 -85 -41 l-49 -1 -3 100 -3 100
87 120 c76 105 90 129 105 193 12 51 25 82 45 103 30 32 40 35 47 17 2 -7 3
-5 2 4 -2 10 0 20 5 23 4 2 10 23 14 45 l6 40 31 -16 c29 -15 30 -16 12 -29
-17 -13 -17 -13 1 -12 13 1 22 -8 31 -33 11 -31 11 -26 7 48 -5 96 1 101 71
54 41 -28 45 -28 146 -24 98 4 104 3 98 -14 -7 -18 -6 -18 6 -2 13 16 16 15
50 -5 30 -18 34 -25 26 -40 -10 -16 -9 -17 10 -5 18 11 24 9 50 -16 28 -27 29
-30 13 -43 -15 -12 -14 -13 8 -2 22 11 27 9 60 -29 36 -41 37 -41 92 -35 72 7
99 0 143 -39 l36 -31 77 23 c103 30 237 30 337 -1 132 -40 201 -84 313 -199
123 -124 282 -304 282 -318 0 -10 -33 -22 -64 -22 -10 0 -31 -10 -46 -22 -63
-50 -116 -86 -136 -92 -12 -4 -24 -15 -27 -26 -3 -10 -20 -28 -38 -39 -19 -11
-42 -26 -52 -33 -10 -7 -21 -13 -26 -13 -4 0 -20 -15 -35 -32 -15 -18 -32 -33
-37 -33 -5 0 -25 -16 -43 -35 -19 -19 -41 -35 -50 -35 -9 0 -16 -4 -16 -10 0
-11 -73 -50 -95 -50 -8 0 -15 -5 -15 -11 0 -18 -50 -60 -62 -53 -7 4 -8 2 -4
-5 5 -7 -9 -19 -38 -32 -25 -11 -50 -29 -56 -39 -6 -11 -15 -20 -19 -20 -5 0
-22 -13 -39 -28 -16 -16 -48 -34 -71 -42 -23 -7 -41 -19 -41 -26 0 -8 -22 -30
-50 -51 -52 -39 -59 -51 -18 -32 20 9 32 8 58 -6 17 -9 34 -14 36 -12 3 2 -9
10 -26 17 l-31 13 37 38 c21 22 44 39 50 39 7 0 43 27 81 59 l67 59 74 -76 74
-77 -66 74 -67 74 33 28 33 28 49 -52 49 -52 -48 58 c-25 31 -41 57 -35 57 6
0 22 12 36 27 14 15 39 32 57 39 18 6 39 14 48 18 12 5 36 -17 92 -86 41 -51
101 -118 133 -148 55 -52 54 -51 -12 21 -137 150 -203 249 -165 249 4 0 35
-35 68 -77 34 -43 77 -91 95 -108 33 -30 33 -30 -3 10 -20 22 -62 73 -94 113
-47 59 -55 75 -45 87 10 12 21 2 70 -63 33 -42 87 -106 120 -142 l62 -65 -60
70 c-97 115 -172 216 -166 226 12 20 32 5 86 -69 32 -42 95 -116 140 -163 46
-47 63 -63 37 -35 -133 149 -219 259 -219 282 0 17 47 64 63 64 7 0 33 -33 60
-73 26 -39 61 -88 78 -107 17 -19 -4 16 -46 77 -68 100 -82 133 -56 133 4 0
35 -40 69 -90 35 -49 65 -90 68 -90 2 0 -24 41 -58 91 -60 86 -62 91 -44 105
18 13 25 5 108 -119 49 -72 98 -141 110 -152 11 -11 -4 14 -33 55 -29 41 -77
113 -106 160 l-53 85 26 23 c14 12 30 22 37 22 7 0 36 -38 65 -84 70 -113 197
-290 219 -307 13 -9 12 -6 -3 11 -35 41 -135 187 -200 294 -59 95 -61 101 -47
123 8 13 21 23 28 23 7 0 24 9 37 20 14 10 29 16 33 12 5 -4 5 -1 1 6 -5 8 1
12 21 12 24 0 35 -12 78 -77 58 -90 192 -273 200 -273 3 0 -18 33 -46 73 -145
205 -188 275 -176 286 10 8 28 -8 73 -67 176 -228 349 -494 457 -702 l49 -95
-6 136 c-4 74 -13 175 -20 225 -117 765 -725 1373 -1490 1490 -121 18 -331 25
-442 14z m-210 -886 c3 -9 2 -12 -5 -9 -6 4 -20 -1 -32 -11 -18 -16 -18 -14 2
9 29 32 27 31 35 11z m-847 -430 c20 -13 43 -68 43 -105 0 -14 44 -47 173
-130 8 -6 -14 -42 -84 -142 -3 -4 -48 16 -99 46 l-93 55 -92 -104 -92 -105 1
-53 c0 -31 -5 -61 -13 -70 -11 -13 -9 -20 12 -47 l25 -32 -86 -109 -85 -110
-43 123 c-31 89 -44 140 -44 179 0 59 29 136 54 146 8 3 60 78 114 167 81 131
101 171 105 211 3 29 12 56 25 68 38 38 129 44 179 12z m2388 -749 c39 -16 74
-32 78 -35 12 -10 -199 -106 -295 -134 -101 -29 -247 -56 -298 -55 -35 0 -35
1 16 18 160 58 278 167 313 293 l12 43 52 -50 c35 -34 75 -60 122 -80z m57
-137 c-17 -51 -26 -105 -30 -177 l-5 -104 -116 6 c-187 9 -357 50 -501 120
l-65 32 115 7 c196 12 372 56 522 132 57 29 103 53 104 54 0 1 -10 -31 -24
-70z m-1538 -67 c16 -18 16 -19 -10 -25 -18 -5 -30 -3 -35 6 -7 10 -9 9 -9 -4
0 -10 -6 -18 -14 -18 -8 0 -17 -4 -20 -9 -4 -5 4 -7 16 -3 16 4 29 -3 50 -29
l28 -34 -60 -11 c-33 -6 -63 -14 -67 -19 -5 -4 3 -5 17 -1 48 12 100 19 100
12 0 -3 -11 -24 -25 -46 -29 -45 -34 -45 -94 9 -26 23 -37 28 -43 19 -4 -7 -8
-9 -8 -4 0 19 133 176 150 176 4 0 15 -8 24 -19z m52 -46 c2 -5 -5 -21 -16
-35 l-20 -25 -26 29 c-25 28 -25 30 -8 37 25 10 67 7 70 -6z m971 -124 c113
-38 235 -60 370 -68 l102 -6 -19 -25 c-30 -37 -50 -117 -50 -194 0 -37 -3 -68
-6 -68 -13 0 -196 133 -315 229 -146 117 -210 174 -189 167 8 -2 57 -18 107
-35z m-1138 -21 l34 -29 -42 -17 c-52 -21 -49 -28 4 -9 62 22 66 20 46 -25
-10 -22 -21 -43 -24 -46 -7 -8 -78 4 -97 16 -13 8 -12 12 5 25 19 14 18 14
-10 3 -16 -7 -33 -17 -37 -23 -4 -5 -10 -6 -13 -3 -4 4 8 34 26 67 29 52 42
65 69 69 3 1 20 -12 39 -28z m-32 -133 c42 -11 42 -11 36 -52 -6 -51 -13 -57
-54 -53 l-34 3 45 33 c24 17 39 32 32 32 -7 0 -30 -16 -52 -36 -35 -32 -44
-36 -77 -30 l-38 5 32 -12 c29 -11 31 -13 17 -32 -9 -11 -20 -28 -25 -37 -17
-32 -2 -19 26 22 25 36 32 40 71 40 42 0 44 -1 44 -30 0 -22 -10 -41 -35 -65
-29 -30 -41 -35 -81 -35 -43 0 -46 2 -41 23 6 21 6 21 -8 3 -15 -19 -15 -19
-15 5 1 36 16 139 29 186 12 43 30 55 66 46 11 -3 39 -10 62 -16z m31 -214
c-2 -10 -14 -20 -28 -22 -25 -3 -25 -3 -6 18 23 26 39 27 34 4z m22 -52 c11
-28 6 -45 -27 -90 -2 -3 -29 -10 -61 -17 -31 -7 -46 -13 -32 -13 14 -1 40 3
58 8 31 9 33 9 26 -12 -4 -12 -12 -47 -19 -77 -10 -49 -14 -55 -44 -64 -38
-11 -41 -8 -71 72 -19 50 -47 199 -39 206 2 1 28 0 57 -2 l52 -4 -21 -34 c-29
-47 -18 -43 14 5 18 27 35 41 54 44 15 2 31 5 34 6 4 0 12 -12 19 -28z m50
-60 c0 -4 -13 -12 -30 -18 l-30 -11 16 30 c12 24 18 27 30 17 8 -6 14 -14 14
-18z m31 -23 c12 -10 14 -27 11 -66 -4 -53 -5 -54 -49 -73 -25 -10 -56 -22
-70 -25 -25 -7 -26 -6 -19 32 18 97 25 111 64 127 47 19 46 19 63 5z m92 -35
c40 -8 33 -27 -23 -57 l-50 -27 0 44 c0 49 7 60 29 52 9 -4 28 -9 44 -12z
m255 -150 c-23 -23 -45 -40 -50 -37 -4 3 -15 29 -23 58 -15 52 -15 55 7 89 13
19 32 40 43 45 18 8 22 3 42 -52 l22 -61 -41 -42z m-76 111 c-7 -12 -11 -13
-17 -4 -4 7 -2 16 6 21 18 11 23 4 11 -17z m-28 -8 c5 -16 -5 -31 -40 -63 -52
-48 -48 -58 6 -13 19 17 37 27 41 22 11 -12 39 -104 34 -112 -12 -20 -87 -62
-95 -54 -14 14 -62 213 -56 230 4 11 19 14 55 13 41 -2 51 -6 55 -23z m282
-82 c-8 -30 -55 -86 -67 -78 -5 3 -20 27 -34 54 -25 50 -23 59 18 73 9 4 22
18 29 32 l11 25 24 -42 c15 -26 22 -51 19 -64z m-392 4 c6 -36 5 -38 -39 -63
-61 -36 -75 -29 -75 39 l0 56 48 24 47 24 6 -21 c3 -12 9 -39 13 -59z m-122
-28 c0 -27 1 -55 2 -62 1 -6 -26 -21 -59 -34 -33 -13 -54 -23 -48 -23 7 -1 35
8 63 18 l50 19 10 -40 c6 -21 14 -46 17 -54 8 -22 -22 -17 -85 16 -98 50 -104
58 -97 116 l7 50 57 21 c81 30 81 30 83 -27z m411 -19 c15 -27 27 -53 27 -59
0 -5 -21 -26 -46 -47 -43 -36 -46 -36 -59 -19 -8 11 -19 34 -26 52 -10 31 -8
35 28 76 21 24 40 45 43 45 3 1 17 -21 33 -48z m160 -83 c-20 -21 -42 -38 -49
-38 -7 0 -24 14 -38 30 l-25 31 36 50 35 50 39 -43 39 -42 -37 -38z m-727 80
c-3 -13 -6 -32 -6 -43 -1 -17 -6 -14 -31 15 l-30 35 23 7 c43 12 51 9 44 -14z
m308 -54 c10 -31 16 -57 14 -60 -2 -2 -29 -15 -59 -28 -29 -14 -48 -25 -41
-25 7 -1 30 8 52 19 22 11 44 20 49 20 8 0 41 -60 41 -74 0 -8 -135 16 -146
25 -14 12 -46 110 -38 118 6 7 97 59 105 60 3 1 13 -24 23 -55z m154 -39 c12
-25 22 -49 22 -54 0 -11 -76 -61 -94 -61 -14 0 -54 86 -45 95 11 10 85 64 90
64 3 1 15 -19 27 -44z m174 -2 c15 -15 28 -31 28 -35 0 -11 -99 -58 -122 -58
-9 0 -21 8 -26 17 -8 13 0 26 37 59 25 24 48 43 50 44 3 0 18 -12 33 -27z
m-128 -79 c8 -22 8 -22 -44 -30 l-45 -7 35 26 c42 31 46 31 54 11z"/>
<path d="M2225 3790 c-3 -5 -22 -10 -41 -10 -22 0 -33 -4 -29 -11 4 -6 24 -9
45 -8 31 3 48 -4 96 -41 l59 -44 -54 62 c-55 63 -65 70 -76 52z"/>
<path d="M1935 3289 c-51 -31 -33 -31 36 1 22 9 36 20 32 23 -10 10 -14 9 -68
-24z"/>
<path d="M2915 2305 c-10 -20 -16 -38 -13 -40 3 -3 13 11 23 30 22 47 15 55
-10 10z"/>
<path d="M2920 4994 l0 -62 -70 -48 c-38 -26 -70 -49 -70 -52 0 -4 71 36 118
66 21 14 22 13 22 -12 0 -14 3 -26 8 -26 4 0 24 -5 46 -9 l38 -9 -5 38 c-5 41
-36 109 -67 150 l-20 25 0 -61z"/>
<path d="M3020 4993 c11 -21 25 -55 31 -76 5 -21 14 -35 19 -32 17 11 11 40
-19 87 -36 57 -59 73 -31 21z"/>
<path d="M2812 4975 c0 -11 3 -29 8 -40 11 -25 11 1 0 35 -6 20 -8 21 -8 5z"/>
<path d="M2721 4894 c0 -11 3 -14 6 -6 3 7 2 16 -1 19 -3 4 -6 -2 -5 -13z"/>
<path d="M3234 4787 c49 -49 72 -80 72 -97 1 -14 11 -61 23 -105 33 -122 51
-257 51 -392 0 -67 4 -124 9 -127 10 -7 41 63 67 149 27 88 25 222 -4 307 -39
114 -112 208 -227 295 -66 50 -65 46 9 -30z m193 -564 c-3 -10 -5 -4 -5 12 0
17 2 24 5 18 2 -7 2 -21 0 -30z m-10 -55 c-3 -8 -6 -5 -6 6 -1 11 2 17 5 13 3
-3 4 -12 1 -19z m-10 -50 c-3 -7 -5 -2 -5 12 0 14 2 19 5 13 2 -7 2 -19 0 -25z"/>
<path d="M3420 4824 l-55 -13 50 5 c28 3 54 7 59 7 5 1 19 -18 33 -43 l24 -45
-53 -6 c-52 -6 -52 -6 -13 -9 22 -2 48 -4 58 -3 12 0 21 -14 30 -43 l13 -44
46 70 c25 39 43 70 39 70 -3 0 -23 -11 -43 -25 -20 -14 -39 -25 -41 -25 -3 0
-10 13 -16 29 -7 15 -27 42 -44 58 -32 30 -32 30 -87 17z"/>
<path d="M3895 4731 c-6 -6 -55 -37 -110 -70 l-99 -61 -2 -123 c-1 -95 -7
-145 -28 -225 -26 -103 -31 -169 -17 -207 7 -16 9 -13 15 19 4 22 20 72 36
112 16 40 34 102 41 139 14 82 116 303 152 331 15 12 27 33 30 57 6 37 0 46
-18 28z"/>
<path d="M2754 4681 c-38 -23 -59 -50 -25 -32 17 10 20 9 15 -4 -7 -18 0 -19
28 -4 17 9 18 13 7 20 -10 6 -4 9 19 9 37 0 51 -21 31 -48 -7 -9 1 -4 19 12
18 17 32 33 32 37 0 8 -56 29 -79 29 -9 0 -30 -9 -47 -19z"/>
<path d="M3519 4614 c19 -8 36 -12 39 -9 5 5 -43 25 -61 25 -7 -1 3 -7 22 -16z"/>
<path d="M2594 4578 l-29 -33 33 29 c30 28 37 36 29 36 -2 0 -16 -15 -33 -32z"/>
<path d="M3104 4535 c-3 -14 -14 -30 -23 -35 -9 -5 -11 -10 -4 -10 18 0 43 29
43 51 0 27 -8 24 -16 -6z"/>
<path d="M2540 4535 c-14 -17 -4 -163 10 -148 5 4 4 35 -2 67 -8 43 -8 64 1
78 13 22 8 24 -9 3z"/>
<path d="M3510 4526 c0 -2 7 -7 16 -10 8 -3 12 -2 9 4 -6 10 -25 14 -25 6z"/>
<path d="M2834 4489 l-29 -31 33 16 c18 10 45 16 60 14 19 -2 28 2 30 15 3 13
-4 17 -30 17 -25 0 -42 -8 -64 -31z"/>
<path d="M4080 4446 c0 -2 8 -10 18 -17 15 -13 16 -12 3 4 -13 16 -21 21 -21
13z"/>
<path d="M3930 4406 c0 -2 12 -12 28 -21 l27 -18 -19 21 c-17 20 -36 29 -36
18z"/>
<path d="M4640 4210 c43 -83 317 -450 337 -450 3 0 -10 19 -29 43 -83 102
-170 219 -233 312 -73 107 -95 135 -75 95z"/>
<path d="M4620 4155 c35 -64 170 -254 195 -275 8 -7 -37 63 -101 156 -63 93
-118 171 -121 174 -4 3 8 -22 27 -55z"/>
<path d="M4540 4186 c0 -2 8 -10 18 -17 15 -13 16 -12 3 4 -13 16 -21 21 -21
13z"/>
<path d="M3526 4097 c3 -10 9 -15 12 -12 3 3 0 11 -7 18 -10 9 -11 8 -5 -6z"/>
<path d="M3467 4025 c10 -13 22 -25 27 -25 5 0 -1 11 -14 25 -30 32 -36 32
-13 0z"/>
<path d="M4331 3946 c17 -25 45 -60 61 -78 16 -18 4 2 -28 45 -31 42 -58 77
-61 77 -2 0 10 -20 28 -44z"/>
<path d="M4535 3835 c42 -59 144 -183 155 -190 11 -7 -154 203 -173 220 -6 6
2 -8 18 -30z"/>
<path d="M4100 3771 c23 -32 73 -92 112 -133 51 -53 56 -57 17 -13 -29 33 -77
93 -106 133 -64 86 -81 96 -23 13z"/>
<path d="M4465 3771 c26 -33 56 -68 68 -78 11 -10 -8 17 -43 60 -74 90 -93
104 -25 18z"/>
<path d="M4679 3793 c11 -16 34 -44 51 -63 17 -19 10 -7 -16 28 -46 61 -75 89
-35 35z"/>
<path d="M4500 3806 c0 -2 8 -10 18 -17 15 -13 16 -12 3 4 -13 16 -21 21 -21
13z"/>
<path d="M4810 3806 c0 -2 8 -10 18 -17 15 -13 16 -12 3 4 -13 16 -21 21 -21
13z"/>
<path d="M4640 3776 c0 -2 8 -10 18 -17 15 -13 16 -12 3 4 -13 16 -21 21 -21
13z"/>
<path d="M4840 3766 c0 -2 8 -10 18 -17 15 -13 16 -12 3 4 -13 16 -21 21 -21
13z"/>
<path d="M4670 3736 c0 -2 8 -10 18 -17 15 -13 16 -12 3 4 -13 16 -21 21 -21
13z"/>
<path d="M4790 3736 c0 -2 8 -10 18 -17 15 -13 16 -12 3 4 -13 16 -21 21 -21
13z"/>
<path d="M4990 3736 c0 -2 8 -10 18 -17 15 -13 16 -12 3 4 -13 16 -21 21 -21
13z"/>
<path d="M4880 3716 c0 -2 8 -10 18 -17 15 -13 16 -12 3 4 -13 16 -21 21 -21
13z"/>
<path d="M4807 3635 c28 -33 75 -82 104 -110 38 -35 32 -26 -21 30 -107 116
-141 149 -83 80z"/>
<path d="M4570 3645 c13 -14 26 -25 28 -25 3 0 -5 11 -18 25 -13 14 -26 25
-28 25 -3 0 5 -11 18 -25z"/>
<path d="M4935 3650 c10 -11 20 -20 23 -20 3 0 -3 9 -13 20 -10 11 -20 20 -23
20 -3 0 3 -9 13 -20z"/>
<path d="M3870 3605 c13 -14 26 -25 28 -25 3 0 -5 11 -18 25 -13 14 -26 25
-28 25 -3 0 5 -11 18 -25z"/>
<path d="M4710 3617 c0 -2 15 -16 33 -33 l32 -29 -29 33 c-28 30 -36 37 -36
29z"/>
<path d="M4960 3617 c0 -2 15 -16 33 -33 l32 -29 -29 33 c-28 30 -36 37 -36
29z"/>
<path d="M2819 3553 c-12 -14 -294 -235 -346 -271 -16 -11 -16 -12 7 -6 101
24 250 125 312 211 44 61 65 112 27 66z"/>
<path d="M3770 3566 c0 -2 8 -10 18 -17 15 -13 16 -12 3 4 -13 16 -21 21 -21
13z"/>
<path d="M3514 3438 c3 -10 9 -24 12 -32 3 -7 -2 -21 -11 -30 -9 -9 -12 -16
-6 -16 6 0 15 9 21 20 8 15 7 27 -5 47 -9 16 -14 20 -11 11z"/>
<path d="M3370 3430 c0 -5 5 -10 11 -10 5 0 7 5 4 10 -3 6 -8 10 -11 10 -2 0
-4 -4 -4 -10z"/>
<path d="M3590 3422 c0 -5 21 -40 46 -78 92 -137 182 -342 229 -519 29 -110
33 -83 5 35 -44 185 -113 344 -210 485 -53 75 -70 95 -70 77z"/>
<path d="M3280 3387 c0 -2 12 -30 26 -61 14 -31 24 -66 22 -78 -7 -48 -87 -28
-147 36 -34 37 -46 32 -22 -8 12 -18 21 -47 21 -65 0 -43 -29 -41 -80 5 -22
20 -40 32 -40 27 0 -26 75 -73 115 -73 25 0 27 3 23 38 l-3 39 30 -19 c42 -25
101 -24 115 3 14 25 6 63 -21 100 -25 36 -24 44 3 25 12 -9 36 -15 53 -15 30
1 30 1 -5 8 -19 4 -47 15 -62 25 -16 10 -28 16 -28 13z"/>
<path d="M3401 3374 c0 -11 3 -14 6 -6 3 7 2 16 -1 19 -3 4 -6 -2 -5 -13z"/>
<path d="M3570 3341 c13 -23 20 -53 18 -73 -4 -48 -40 -49 -109 -3 -47 32 -51
34 -29 10 30 -33 78 -55 119 -55 29 0 41 14 41 51 0 23 -35 95 -50 104 -6 4
-1 -12 10 -34z"/>
<path d="M3669 3232 c15 -28 14 -79 -1 -85 -14 -5 -62 17 -93 42 -14 11 -13 7
4 -11 34 -38 88 -55 109 -35 13 14 14 22 3 56 -6 22 -16 43 -22 47 -8 4 -8 0
0 -14z"/>
<path d="M2421 3194 c0 -11 3 -14 6 -6 3 7 2 16 -1 19 -3 4 -6 -2 -5 -13z"/>
<path d="M3361 3143 c21 -41 25 -89 8 -95 -16 -5 66 -76 97 -84 40 -10 61 16
47 61 -10 32 -2 48 12 25 3 -5 14 -10 23 -10 10 0 5 6 -13 16 -16 8 -41 25
-54 37 l-24 22 18 -28 c21 -34 36 -105 23 -113 -15 -10 -55 5 -87 32 -27 22
-29 28 -19 49 9 20 7 33 -7 65 -10 22 -24 45 -31 51 -7 5 -4 -7 7 -28z"/>
<path d="M2406 3144 c-4 -14 -5 -28 -3 -31 3 -2 8 8 11 23 4 14 5 28 3 31 -3
2 -8 -8 -11 -23z"/>
<path d="M3586 3125 c19 -46 18 -72 -3 -84 -17 -10 -17 -10 0 -11 11 0 21 9
24 20 5 19 8 17 45 -15 31 -28 46 -35 71 -33 28 3 32 7 35 36 2 21 -4 44 -18
65 -12 18 -19 25 -16 17 27 -80 29 -91 18 -102 -28 -28 -111 28 -141 98 -23
52 -37 60 -15 9z"/>
<path d="M3265 3080 c10 -11 20 -20 23 -20 3 0 -3 9 -13 20 -10 11 -20 20 -23
20 -3 0 3 -9 13 -20z"/>
<path d="M3648 2965 c4 -42 3 -45 -19 -45 -14 0 -42 12 -62 26 -21 14 -41 23
-44 20 -4 -3 -2 -6 4 -6 5 0 10 -6 11 -12 14 -92 14 -98 -2 -104 -9 -3 -32 3
-51 15 -19 11 -35 18 -35 16 0 -11 66 -45 87 -45 28 0 39 34 23 74 -13 36 -7
42 22 22 34 -24 76 -21 83 7 6 20 -8 77 -19 77 -2 0 -1 -20 2 -45z"/>
<path d="M3808 2918 c4 -38 1 -49 -12 -54 -18 -7 -53 13 -86 48 -17 18 -20 19
-20 5 0 -9 3 -17 8 -17 4 0 8 -25 10 -55 3 -53 2 -55 -22 -55 -13 0 -39 12
-58 27 -28 24 -30 24 -13 4 11 -13 35 -30 54 -38 32 -14 36 -13 49 4 13 17 12
47 -4 88 -7 18 -6 18 20 -3 61 -47 112 -11 83 59 l-14 34 5 -47z"/>
<path d="M3589 2813 c6 -12 11 -38 11 -57 0 -31 -3 -36 -23 -36 -12 0 -33 8
-46 17 -14 9 -21 11 -16 4 13 -22 68 -41 83 -29 17 15 15 80 -4 104 -15 18
-15 18 -5 -3z"/>
<path d="M3846 2795 c40 -134 -5 -174 -98 -87 -32 29 -49 40 -44 27 12 -32 22
-98 18 -122 -3 -18 -10 -23 -33 -23 -22 0 -41 12 -74 46 -25 25 -45 42 -45 37
0 -16 73 -83 97 -89 21 -6 28 -16 24 -37 -1 -5 3 -5 9 -2 6 4 9 10 6 13 -3 3
4 12 15 20 18 13 21 22 17 68 l-5 52 31 -23 c17 -12 44 -25 60 -29 54 -13 73
54 36 129 -11 22 -18 31 -14 20z"/>
<path d="M3936 2764 c-23 -22 -21 -29 26 -76 l41 -43 -7 30 c-27 113 -31 119
-60 89z"/>
<path d="M3892 2710 c0 -14 2 -19 5 -12 2 6 2 18 0 25 -3 6 -5 1 -5 -13z"/>
<path d="M3788 2556 c3 -44 1 -55 -12 -59 -14 -4 -13 -5 1 -3 13 1 19 11 21
40 3 38 3 38 25 20 19 -16 18 -14 -3 11 -14 17 -27 34 -31 38 -3 4 -4 -17 -1
-47z"/>
<path d="M3881 2588 c0 -15 -8 -34 -17 -42 -8 -9 -11 -16 -6 -16 18 0 33 29
29 57 l-4 28 -2 -27z"/>
<path d="M3725 2520 c10 -11 20 -20 23 -20 3 0 -3 9 -13 20 -10 11 -20 20 -23
20 -3 0 3 -9 13 -20z"/>
<path d="M3610 2513 c0 -11 49 -63 59 -63 16 0 33 29 28 47 -4 14 -5 14 -6 -4
-2 -37 -22 -38 -53 -4 -15 17 -28 28 -28 24z"/>
<path d="M3800 2441 c0 -25 41 -81 60 -81 25 0 42 33 37 68 -4 27 -4 27 -6 -3
-3 -69 -39 -71 -73 -4 -10 19 -18 28 -18 20z"/>
<path d="M3710 2412 c0 -7 13 -26 29 -44 25 -28 31 -30 45 -19 9 7 16 23 16
35 0 20 -1 20 -13 -3 -17 -33 -28 -31 -54 8 -13 19 -23 29 -23 23z"/>
<path d="M3610 2396 c0 -16 42 -66 55 -66 18 0 38 36 32 58 -4 13 -5 12 -6 -4
-1 -25 -22 -46 -37 -36 -6 4 -18 18 -27 32 -9 13 -17 21 -17 16z"/>
<path d="M3744 2249 l-18 -42 -19 39 -18 39 5 -39 c10 -72 40 -71 65 3 16 49
7 49 -15 0z"/>
</g>
</svg>
