<svg width="87" height="78" viewBox="0 0 87 78" xmlns="http://www.w3.org/2000/svg"><g fill-rule="nonzero" fill="#205493"><path d="M43.326 7.379c-.693 0-2.412.194-3.437 1.986L7.77 64.779c-1.033 1.791-.34 3.374 0 3.971.346.598 1.378 1.979 3.45 1.979h64.213c2.072 0 3.097-1.381 3.444-1.979.34-.597 1.04-2.18 0-3.971l-32.1-55.414c-1.039-1.792-2.757-1.986-3.45-1.986h-.001zm32.106 70.545H11.219c-4.057 0-7.681-2.087-9.703-5.583-2.021-3.497-2.021-7.67.007-11.16L33.63 5.767C35.65 2.271 39.283.184 43.326.184c4.05 0 7.674 2.087 9.696 5.583l32.106 55.414c2.022 3.497 2.022 7.67 0 11.167-2.029 3.49-5.646 5.576-9.696 5.576z"/><path d="M43.5 50c-1.932 0-3.5-1.612-3.5-3.597V26.597C40 24.604 41.568 23 43.5 23s3.5 1.604 3.5 3.597v19.806C47 48.388 45.432 50 43.5 50m0 5a4.5 4.5 0 1 1 0 9 4.5 4.5 0 0 1 0-9"/></g></svg>
