<svg width="45" height="45" viewBox="0 0 45 45" xmlns="http://www.w3.org/2000/svg"><g fill-rule="nonzero" fill="#0A0B09"><path d="M41.174 20.026l-2.935 3.59c-.056.068-.11.143-.158.219l-5.906.736 5.671 2.709a.09.09 0 0 1 .014.04l3.5 7.343c.068.159.096.324.096.496v5.039c0 .701-.57 1.265-1.265 1.265h-3.197a1.26 1.26 0 0 1-.522-.11l-4.538-2.041-1.458-5.103-.674 2.242s-.398 1.32-.77 2.585c-1.903.468-5.747 1.396-9.9 2.386a.983.983 0 0 1-.288.041H4.226c-.089 0-.178-.014-.268-.027l1.548-1.547a.685.685 0 1 0-.97-.969l-1.547 1.546c-.013-.089-.027-.178-.027-.268v-1.643c0-.144.02-.282.069-.42l2.832-8.092 7.088-2.832-3.073-.186s-2.344-.137-4.648-.302c-.53-.654-1.223-1.5-1.98-2.434a1.231 1.231 0 0 1-.288-.791v-8.113l1.045.558 1.526.824-.928-2.805H17.4v14.033l2.063-2.063 2.75 2.75 2.75-2.75 2.062 2.063V13.962h14.438v5.26c0 .295-.103.577-.29.804zM8.84 3.729l1.24.457.715.26.391-1.484h5.88v8.885h-13l-.216-.61L8.84 3.73zm9.67 9.598h.74c0 .408.334.74.741.74s.74-.332.74-.74h2.962c0 .408.333.74.74.74.408 0 .741-.332.741-.74h.74v11.544l-.74-.74-2.962 2.96-2.961-2.96-.74.74V13.327zm3.702-11.846h3.703v10.366H18.51V1.48h3.702zm10.793 1.48l-.287 1.39 2.447-.336 5.05 7.832H27V2.962h6.005zm2.727-1.62L36 0H9.419l-.304 1.23c-.334-.134-.74-.29-1.148-.453l-.578-.23L.896 10.944l.777 2.34c-.185-.096-.385-.2-.592-.31L0 12.408v11.18a2.9 2.9 0 0 0 .637 1.8l2.34 2.865.207.252.318.022c.696.052 1.4.096 2.059.14l-2.125.852-3.273 9.352a2.702 2.702 0 0 0-.163.94v1.77a2.844 2.844 0 0 0 2.843 2.843h15.741c.223 0 .445-.03.66-.081 4.797-1.14 9.21-2.222 11.083-2.673l.415-.104.119-.415c.074-.244.148-.496.214-.748l.37 1.289 5.51 2.48c.37.163.762.252 1.169.252h3.45a2.844 2.844 0 0 0 2.844-2.843v-5.427c0-.378-.074-.756-.237-1.133l-3.777-7.938c-.007-.044-.022-.088-.03-.133l-.088-.326-2.147-1.029 2.125-.266.17-.37c.052-.119.111-.215.178-.297l3.161-3.865c.422-.51.652-1.147.652-1.806v-6.62L37.384 1.103l-1.652.237z"/><path d="M22.212 1.48a.74.74 0 1 1 0 1.482.74.74 0 0 1 0-1.481zm-2.22 2.222a.74.74 0 1 1-.001 1.481.74.74 0 0 1 0-1.48zm0 4.443a.74.74 0 1 1-.001 1.48.74.74 0 0 1 0-1.48zm2.22-2.222a.74.74 0 1 1 0 1.482.74.74 0 0 1 0-1.482zm2.222-2.22a.74.74 0 1 1 0 1.48.74.74 0 0 1 0-1.48zm0 4.442a.74.74 0 1 1 0 1.48.74.74 0 0 1 0-1.48zm-2.222 2.22a.74.74 0 1 1 0 1.482.74.74 0 0 1 0-1.481zm-2.22 6.665a.74.74 0 1 1-.001 1.48.74.74 0 0 1 0-1.48zm2.22-2.222a.74.74 0 1 1 0 1.482.74.74 0 0 1 0-1.482zm2.222 2.222a.74.74 0 1 1 0 1.48.74.74 0 0 1 0-1.48zm-2.222 2.22a.74.74 0 1 1 0 1.482.74.74 0 0 1 0-1.481zm-2.22 2.222a.74.74 0 1 1-.001 1.481.74.74 0 0 1 0-1.48zm2.22 2.221a.74.74 0 1 1 0 1.48.74.74 0 0 1 0-1.48zm2.222-2.22a.74.74 0 1 1 0 1.48.74.74 0 0 1 0-1.48z"/></g></svg>
