<svg width="46" height="42" xmlns="http://www.w3.org/2000/svg" xmlns:xlink="http://www.w3.org/1999/xlink"><defs><path id="a" d="M.028 41.968V.327h45.515v41.641z"/><path id="c" d="M.028 41.968V.327h45.515v41.641z"/><path id="e" d="M.028 41.968V.327h45.515v41.641z"/></defs><g fill="none" fill-rule="evenodd"><mask id="b" fill="#fff"><use xlink:href="#a"/></mask><path d="M32.944 13.345l-.467-1.073c0-.046-.047-.046-.093-.046h-1.4c-.047 0-.047 0-.093.046l-.467 1.073v.094l.747.84-.56 2.24 1.726-1.26-.187-.98.747-.84c.047-.047.047-.094.047-.094" fill="#000" fill-rule="nonzero" mask="url(#b)"/><mask id="d" fill="#fff"><use xlink:href="#c"/></mask><path d="M27.904 4.433c.467.233 1.307.56 2.24.56.7 0 1.4-.187 2.1-.653.093-.047 1.773-1.26 3.173-.047.093.373.186.747.186 1.12a3.863 3.863 0 0 1-3.873 3.873 3.863 3.863 0 0 1-3.873-3.873c-.046-.373 0-.653.047-.98zm3.78 5.973c2.753 0 5.04-2.24 5.04-5.04 0-2.753-2.24-5.04-5.04-5.04-2.753 0-5.04 2.24-5.04 5.04s2.287 5.04 5.04 5.04z" fill="#000" fill-rule="nonzero" mask="url(#d)"/><mask id="f" fill="#fff"><use xlink:href="#e"/></mask><path d="M40.69 18.572v-2.007c0-2.426-1.96-4.34-4.34-4.34h-.14l-1.96 6.393h-1.073l-.187-.793-1.166.793H30.75l2.053-1.446-.28-1.213-2.1 1.493-.28 1.166H29.07l-1.867-6.392h-.186a4.331 4.331 0 0 0-4.34 4.34v2.006h-6.953l-.606-1.354h3.593c1.12 0 2.053-.933 2.053-2.053V7.513a2.041 2.041 0 0 0-2.053-2.053H6.906a2.041 2.041 0 0 0-2.053 2.053v7.606c0 1.166.933 2.053 2.053 2.053h3.5l-.607 1.353H0v5.74h1.493v17.731H44.05V24.264h1.494v-5.692H40.69" fill="#000" fill-rule="nonzero" mask="url(#f)"/></g></svg>