<svg xmlns="http://www.w3.org/2000/svg" width="720" height="720" viewBox="0 0 719.996 720.004"><path clip-rule="evenodd" fill="#7d7fbd" fill-rule="evenodd" d="M206.547 574.905l-100 45.255 41.642-103.608"/><path clip-rule="evenodd" fill="#004b8c" fill-rule="evenodd" d="M106.99 619.716l72.184-72.177 27.373 27.366"/><path clip-rule="evenodd" fill="#7d7fbd" fill-rule="evenodd" d="M150.427 205.301l-43.876-96.485 100 40.15"/><path clip-rule="evenodd" fill="#004b8c" fill-rule="evenodd" d="M107.007 109.034l69.619 69.857-26.2 26.41"/><path clip-rule="evenodd" fill="#7d7fbd" fill-rule="evenodd" d="M113.094 415.52L0 372.938l113.094-48.266"/><path clip-rule="evenodd" fill="#004b8c" fill-rule="evenodd" d="M.434 372.938h112.66v42.582M306.574 112.969L349.156 0l48.27 112.969"/><path clip-rule="evenodd" fill="#7d7fbd" fill-rule="evenodd" d="M349.156.457v112.512h-42.582"/><path clip-rule="evenodd" fill="#004b8c" fill-rule="evenodd" d="M327.348 606.906l42.433 113.098 48.246-113.098"/><path clip-rule="evenodd" fill="#7d7fbd" fill-rule="evenodd" d="M369.781 719.562V606.906h-42.433M606.887 413.422l113.109-42.582-113.109-48.266"/><path clip-rule="evenodd" fill="#004b8c" fill-rule="evenodd" d="M719.547 370.84h-112.66v42.582"/><path clip-rule="evenodd" fill="#7d7fbd" fill-rule="evenodd" d="M564.533 205.301l43.874-96.478-100.001 40.175"/><path clip-rule="evenodd" fill="#004b8c" fill-rule="evenodd" d="M607.984 109.25l-69.653 69.643 26.202 26.408"/><path clip-rule="evenodd" fill="#7d7fbd" fill-rule="evenodd" d="M507.406 576.227l100 38.933-46.216-99.109"/><path clip-rule="evenodd" fill="#004b8c" fill-rule="evenodd" d="M607.198 614.732l-74.558-66.597-25.234 28.092"/><path d="M356.934 614.375c140.141 0 253.832-113.691 253.832-253.848 0-140.297-113.691-253.848-253.832-253.848-140.293 0-253.844 113.551-253.844 253.848 0 140.157 113.551 253.848 253.844 253.848" clip-rule="evenodd" fill="#fff" fill-rule="evenodd"/><path d="M356.934 614.375c140.141 0 253.832-113.691 253.832-253.848 0-140.297-113.691-253.848-253.832-253.848-140.293 0-253.844 113.551-253.844 253.848 0 140.157 113.551 253.848 253.844 253.848z" fill="none" stroke="#004b8c" stroke-width="16" stroke-miterlimit="2.613"/><path d="M359.18 546.832c102.781 0 186.016-83.211 186.016-186.012 0-102.781-83.234-186.012-186.016-186.012-102.801 0-186.012 83.23-186.012 186.012 0 102.801 83.211 186.012 186.012 186.012" clip-rule="evenodd" fill="#7d7fbd" fill-rule="evenodd"/><path d="M359.18 546.832c102.781 0 186.016-83.211 186.016-186.012 0-102.781-83.234-186.012-186.016-186.012-102.801 0-186.012 83.23-186.012 186.012 0 102.801 83.211 186.012 186.012 186.012z" fill="none" stroke="#fff" stroke-width="4.183" stroke-linecap="square" stroke-miterlimit="2.613"/><path clip-rule="evenodd" fill-rule="evenodd" d="M178.395 315.418h361.113M180.469 414.918h356.945"/><path d="M537.867 358.887c1.781 3.426 2.672 5.234 2.672 5.234 6.73 15.539-10.457 3.586-10.457 3.586 1.664 12.535-12.84 1.641-12.84 1.641 4.047 9.855-7.762 3.133-7.762 3.133-1.059 9.855-13.906-3.133-13.906-3.133s0-.309 0 0c2.098 12.387-10 .438-10 .438s-.309-.746 0 0c3.879 11.203-11.516.309-11.516.309s-.148-.457 0 0c5.398 10.602-12.699.293-12.699.293s0-1.039 0 0c.91 8.672-13.137-.293-13.137-.293s-.312-.746 0 0c3.594 11.062-14.793-1.055-14.793-1.055s-.895-3.137 0 0c2.984 11.949-13.449-1.332-13.449-1.332s-.602-1.348 0 0c3.133 10.004-15.395-2.551-15.395-2.551l-9.254 8.363s4.625.746 8.961 7.176c0 0-10.312.293-14.199 9.113l1.352.746c19.422-1.781 30.777 16.145 30.777 16.145 27.039-5.227 37.352-32.27 37.352-32.27 6.266 13.594 29.137 19.715 29.137 19.715-9.426 15.688-7.328 40.484-7.328 40.484-12.391 12.555-7.324 34.219-7.324 34.219-17.617 9.422-24.797 27.039-24.797 27.039-31.234-7.32-41.523 22.867-41.523 22.867 18.672-63.355-8.383-105.93-8.383-105.93 22.406 119.379-49.742 110.562-49.742 110.562-73.211-3.594-50.797-77.242-50.797-77.242 8.219-23.902 26.891-38.41 26.891-38.41l-43.473-21.805c-17.637 8.215-30.191 12.406-30.191 12.406l-2.098 29.133c3.152 4.031 4.191 10.293 4.191 10.293l7.324 1.059c7.16 20.773 1.039 31.066 1.039 31.066l-16.582-16.582c-17.637-9.254-12.551-22.844-12.551-22.844l-2.098-23.762c-11.352-15.543-5.062-22.867-5.062-22.867 4.027-9.402 15.52-13.445 15.52-13.445l8.219-2.098a44.67 44.67 0 0 1-3.277-9.402" clip-rule="evenodd" fill="#ffdc88" fill-rule="evenodd"/><path d="M411.906 456.438c13.449 31.086 9.273 44.68 9.273 44.68 13.598-12.992 12.539-35.254 12.539-35.254 8.215 14.48 15.543 30.023 15.543 30.023 6.121-24.945-7.328-43.617-7.328-43.617 15.543 15.543 32.125 16.578 32.125 16.578-7.16-16.578-17.617-24.797-17.617-24.797 16.578 0 24.941-9.422 24.941-9.422-19.711-11.352-37.352-11.352-37.352-11.352 39.445-2.094 44.68-29.133 44.68-29.133-19.719 4.191-36.316 10.461-36.316 10.461 15.543-6.27 12.41-22.871 12.41-22.871l-5.23-7.305c-14.488 28.078-60.219 34.801-60.219 34.801l1.656 7.781c10.895 15.231 10.895 39.427 10.895 39.427" clip-rule="evenodd" fill="#e3bf01" fill-rule="evenodd"/><path d="M421.93 500.371s14.633-49.309-19.137-87.262M414.008 423.277c39.59 49.305 34.965 72.32 34.965 72.32M481.383 434.629c-45.711 1.059-71.57-16.867-71.57-16.867 34.219 33.301 64.246 50.945 64.246 50.945" fill="none" stroke="#928900" stroke-width="2.092" stroke-miterlimit="2.613"/><path d="M488.418 395.035c-39.906 25.398-84.875 19.883-84.875 19.883 56.031-5.086 56.031-40.488 56.031-40.488" fill="none" stroke="#928900" stroke-width="2.092" stroke-miterlimit="2.613"/><path d="M246.668 358.887c-.75-3.734-.75-6.117-.75-6.117l-19.711-11.52-14.504 17.637h-19.715l20.605-33.18c-1.93-17.617 15.688-14.48 15.688-14.48 10.316 1.035 9.277 14.48 9.277 14.48l23.301 15.543c12.992-37.352 26.441-38.848 33.766-45.113 7.32-6.121 11.949-25.398 11.949-25.398-10.457-.457-13.445-3.594-13.445-3.594l-2.68 5.09-.453 10.895-15.086 2.094-1.496-4.629 9.254-2.094v-5.668c-.434-9.879-9.254-4.645-9.254-4.645l-6.285 7.781h-10.293l-.602-20.316 18.215-25.398 2.555-13.449c5.664-7.324 9.855-8.816 9.855-8.816l1.039-8.363 8.219 3.734.602-8.816c6.266 2.094 10.914 6.719 10.914 6.719l21.809-1.055c14.484 6.141 26.441 21.23 26.441 21.23 15.996-6.125 23.754 6.262 23.754 6.262 43.625-16.121 71.117 14.047 71.117 14.047 47.211 46.32 78.148 100.562 87.113 117.141" clip-rule="evenodd" fill="#ffdc88" fill-rule="evenodd"/><path d="M211.703 358.887l-4.172 5.234c3.133 9.398-2.094 13.445-2.094 13.445l5.227 6.266-17.785 22.867-6.121-18.676c-8.363-22.867 5.23-29.137 5.23-29.137M368.891 365.613c24.797-3.59 38.848 16.723 38.848 16.723-12.406 0-16.293 8.219-16.293 8.219 18.82-5.227 30.777 16.145 30.777 16.145-15.543-2.094-19.711 5.668-19.711 5.668 11.496 5.223 19.25 17.18 19.25 17.18 1.062 7.781-5.66 6.141-5.66 6.141-11.516-5.227-13.59 3.133-13.59 3.133 15.516 11.352 9.855 23.906 9.855 23.906-2.555-6.289-9.855-.602-9.855-.602 0-56.485-33.621-96.513-33.621-96.513" clip-rule="evenodd" fill="#ffdc88" fill-rule="evenodd"/><path d="M317.488 215.75c56.031 33.18 28.992 92.34 28.992 92.34 37.352-64.391-28.992-92.34-28.992-92.34" clip-rule="evenodd" fill="#a90" fill-rule="evenodd"/><path d="M287.301 343.348l-13.449 13.445c-17.617 11.496-23.906 11.496-23.906 11.496l-5.062-14.027 11.352-16.145 4.625 3.133.602 10.457 4.172 4.051 11.371-7.18-3.152-5.23" clip-rule="evenodd" fill="#c9aa03" fill-rule="evenodd"/><path d="M306.574 270.738c22.266-4.191 18.074-23.902 18.074-23.902 4.191 22.844-20.605 31.664-20.605 31.664" clip-rule="evenodd" fill="#928900" fill-rule="evenodd"/><path d="M336.168 247.871s1.035 46.77-23.906 74.703l15.543-3.133c9.398-4.625 7.301-23.762 7.301-23.762 13.015-18.218 1.062-47.808 1.062-47.808M309.129 326.766c-11.375 1.035-17.637 16.582-17.637 16.582-2.098-8.82 1.637-18.074 1.637-18.074 4.625-4.793 10.914-6.871 10.914-6.871M291.492 352.77c-30.031 26.891-45.574 33.16-45.574 33.16 1.039 14.48-6.266 16.578-6.266 16.578V431.5c7.305 5.227 6.266 18.672 6.266 18.672l-7.32-5.082c-6.27-9.402-4.172-24.941-4.172-24.941L231.27 406.7l1.059-4.191-2.094-4.172-1.953-11.371 8.219-9.398 14.504-6.125 8.363-1.055 28.988-22.848c9.398-1.06 3.136 5.23 3.136 5.23" clip-rule="evenodd" fill="#fff" fill-rule="evenodd"/><path d="M373.949 310.184l-1.031-16.598c9.414-27.039 6.719-37.352 6.719-37.352l-1.492-9.398c13.449-7.184 24.941-15.543 24.941-15.543v8.816c-10.457 8.363-18.672 10.895-18.672 10.895 4.047 27.059-6.27 43.637-6.27 43.637" clip-rule="evenodd" fill="#cbb500" fill-rule="evenodd"/><path clip-rule="evenodd" fill="#c9aa03" fill-rule="evenodd" d="M285.367 263.414l9.258-8.219 7.32-1.035-1.035 5.227-5.226-1.059"/><path d="M310.164 222.035c-2.094-16.602-10.312-21.828-10.312-21.828 2.094 14.504 0 19.734 0 19.734" clip-rule="evenodd" fill="#928900" fill-rule="evenodd"/><path d="M308.07 259.387c20.316-2.695 7.324-20.773 7.324-20.773 1.497 15.546-7.324 20.773-7.324 20.773" clip-rule="evenodd" fill="#fff" fill-rule="evenodd"/><path d="M218.883 329.898c8.363 3.137 11.953-1.637 11.953-1.637l15.082 17.18-16.141-12.406c-8.367 3.133-10.894-3.137-10.894-3.137" clip-rule="evenodd" fill="#cbb500" fill-rule="evenodd"/><path d="M254.137 437.762c2.098 11.957-2.531 19.277-2.531 19.277 9.254-5.828 6.121-18.676 6.121-18.676" clip-rule="evenodd" fill="#a90" fill-rule="evenodd"/><path d="M205.438 377.566c-10.461 5.227-16.586 9.855-16.586 9.855 11.352-3.59 18.078-7.18 18.078-7.18" clip-rule="evenodd" fill="#cbb500" fill-rule="evenodd"/><path d="M191.988 383.398c-3.137-10.918 4.625-21.375 4.625-21.375l20.172-33.762c0-6.125 6.27-16 6.27-16-14.027-2.078-10.461 13.445-10.461 13.445l-20.605 33.18c-13.012 8.82-6.289 27.496-6.289 27.496M302.406 220.977l-29.594 29.594c-2.094 14.48-8.816 25.398-8.816 25.398h-7.16l-.602-20.316 16.578-22.723c1.039 6.121 0 12.41 0 12.41l27.039-25.398" clip-rule="evenodd" fill="#fff" fill-rule="evenodd"/><path clip-rule="evenodd" fill="#cbb500" fill-rule="evenodd" d="M263.559 268.641l-2.7 2.699-1.035-16.746 10.461-9.856 2.527.602-11.351 9.855M274.91 246.836c8.82-17.641 22.266-7.785 22.266-7.785-4.047 7.328-10.918 8.82-10.918 8.82 13.594-9.859-.891-7.762-.891-7.762-5.226 1.039-10.457 6.727-10.457 6.727"/><path d="M284.766 243.535c1.953-.746 3.133-2.078 2.844-2.988-.309-.895-2.098-1.184-4.047-.438-1.93.746-3.133 1.93-2.824 2.988.292.895 2.077 1.184 4.027.438" clip-rule="evenodd" fill="#cbb500" fill-rule="evenodd"/><path clip-rule="evenodd" fill="#a90" fill-rule="evenodd" d="M274.449 230.254l25.403-14.942.457-2.699"/><path clip-rule="evenodd" fill="#cbb500" fill-rule="evenodd" d="M329.441 200.207l-8.816 17.035 10.313-15.98M279.078 215.312l3.156 10.293-1.66-12.39M284.309 210.52l1.496-1.04 1.496 12.555"/><path clip-rule="evenodd" fill="#808285" fill-rule="evenodd" d="M286.859 207.988l9.258-4.629-1.492-.601"/><path clip-rule="evenodd" fill="#a90" fill-rule="evenodd" d="M288.355 207.387l1.641-1.039 2.094 12.992M296.117 203.359l1.637 12.391-3.566-11.352"/><path d="M308.07 278.5c5.684 1.059 8.82 0 8.82 0l-1.039 5.684c-2.988 1.039-4.648 0-4.648 0-12.988 26.438-22.848 27.043-22.848 27.043 22.848-22.872 19.715-32.727 19.715-32.727M286.258 304.5c-19.129 16.582-24.797 47.207-24.797 47.207l-.602-10.457c17.641-44.074 25.399-36.75 25.399-36.75" clip-rule="evenodd" fill="#fff" fill-rule="evenodd"/><path d="M282.234 385.93c18.676-2.531 27.93-10.918 27.93-10.918-7.18 14.504-22.266 14.504-22.266 14.504" clip-rule="evenodd" fill="#a90" fill-rule="evenodd"/><path d="M308.07 378.602c1.637 10.914-1.496 19.734-1.496 19.734l-17.328-9.129c15.981-2.531 18.824-10.605 18.824-10.605" clip-rule="evenodd" fill="#928900" fill-rule="evenodd"/><path d="M307.633 201.262c6.121 8.82 7.16 17.039 7.16 17.039l2.695-2.551c-2.695-8.82-9.855-14.488-9.855-14.488" clip-rule="evenodd" fill="#a90" fill-rule="evenodd"/><path d="M317.926 244.281c5.688 13.445-6.121 14.504-6.121 14.504 16.582 1.039 6.121-14.504 6.121-14.504" clip-rule="evenodd" fill="#cbb500" fill-rule="evenodd"/><path d="M355.883 221.438c8.211 8.816 11.348 24.336 11.348 24.336 3.594-12.844 12.406-18.074 12.406-18.074-8.812 3.133-12.84 7.184-12.84 7.184-3.735-10.775-10.914-13.446-10.914-13.446" clip-rule="evenodd" fill="#a90" fill-rule="evenodd"/><path d="M310.164 355.297c3.133 12.41-4.625 17.641-4.625 17.641-8.363 4.172-16.145 1.039-16.145 1.039 11.953-2.535 13.59-4.629 13.59-4.629 5.086-2.7 7.18-14.051 7.18-14.051" clip-rule="evenodd" fill="#ccbe00" fill-rule="evenodd"/><path d="M248.453 384.891c17.641-2.555 28.551-12.41 28.551-12.41 17.184-14.648 16.125-22.41 16.125-22.41-3.133 4.773-7.324 7.762-7.324 7.762l-29.57 22.863" clip-rule="evenodd" fill="#cbb500" fill-rule="evenodd"/><path d="M390.094 224.566c18.68 4.191 28.535 6.266 28.535 6.266-7.762 6.145-17.617 20.773-17.617 20.773 11.957 11.348 18.074-.602 18.074-.602 35.254 29.59 59.77 29.137 59.77 29.137-33.77-15.691-42.582-25.98-42.582-25.98 16.121 6.723 20.168 1.035 20.168 1.035-22.723-8.816-31.523-23.902-31.523-23.902 13.449 3.59 25.402 9.855 25.402 9.855-29.141-26.437-60.227-16.582-60.227-16.582" clip-rule="evenodd" fill="#fff" fill-rule="evenodd"/><path d="M297.176 369.348l-.457-5.688c9.855-10.457 11.953-21.809 11.953-21.809l8.219 6.727c-.457-14.488 5.832-16.586 14.648-18.223 8.801-1.492 13.445-2.555 13.445-2.555l-8.816 7.328c21.809-2.094 24.793-11.953 24.793-11.953 1.641 12.406-4.625 18.074-9.254 20.773-4.648 2.531-11.949 2.094-16.602-1.059-4.625-3.133-3.566 1.496-3.129 4.043.457 2.68-.438 6.27-4.629 8.824-4.191 2.676-16.582-5.086-16.582-5.086-3.73 9.256-13.589 18.678-13.589 18.678" clip-rule="evenodd" fill="#ffec77" fill-rule="evenodd"/><path clip-rule="evenodd" fill="#ccbe00" fill-rule="evenodd" d="M241.727 403.566v26.442l3.156-3.137-.602-21.23"/><path d="M245.316 402.965c6.289-5.684 4.629-16 4.629-16-1.929 7.781-4.629 16-4.629 16" clip-rule="evenodd" fill="#cbb500" fill-rule="evenodd"/><path d="M255.777 453.305c4.629 27.039 5.684-14.484 5.684-14.484l-3.734-.457c1.039 9.863-1.95 14.941-1.95 14.941" clip-rule="evenodd" fill="#c9aa03" fill-rule="evenodd"/><path clip-rule="evenodd" fill="#ccbe00" fill-rule="evenodd" d="M207.531 364.121l-1.058-5.234 14.504-21.809 6.269 5.231M314.793 402.219l-8.82-3.883c3.156-10.312 1.66-18.676 1.66-18.676l2.074-4.191c9.879-5.082 13.016-12.41 13.016-12.41 8.961 7.781 15.684 30.34 15.684 30.34-4.938 6.578-12.699 14.336-12.699 14.336"/><path d="M403.086 232.328c-15.086 10.914-24.941 14.508-24.941 14.508 4.188 21.352-5.688 47.805-5.688 47.805" clip-rule="evenodd" fill="#c9aa03" fill-rule="evenodd"/><path d="M406.68 260.426c59.16 45.113 67.98 20.168 67.98 20.168M396.824 269.68c54.992 42 69.473 17.641 69.473 17.641M397.855 281.633c56.484 33.184 58.129 13.008 58.129 13.008M393.688 288.355c41.09 28.098 53.473 13.012 53.473 13.012M396.824 302.859c43.035 19.277 44.676 2.098 44.676 2.098M388.461 311.68c42.582 16.582 44.676.582 44.676.582M388 323.176c27.5 7.18 37.809-4.191 37.809-4.191M384.414 328.262c25.398 9.398 30.047-3.59 30.047-3.59M374.699 341.25c19.281 2.098 24.656-5.082 24.656-5.082" fill="none" stroke="#cbb500" stroke-width="1.046" stroke-linecap="square" stroke-miterlimit="2.613"/><path d="M356.336 361.566c19.715 2.555 23.902-12.535 23.902-12.535" fill="none" stroke="#bcbec0" stroke-width="1.046" stroke-linecap="square" stroke-miterlimit="2.613"/><path d="M376.652 332.434c23.016 10.621 31.52-1.496 31.52-1.496M363.664 349.031c25.398 4.172 30.023-8.215 30.023-8.215" fill="none" stroke="#cbb500" stroke-width="1.046" stroke-linecap="square" stroke-miterlimit="2.613"/><path d="M475.715 282.09c21.957 35.855 63.191 82.633 63.191 82.633-56.777-61.262-64.246-81.738-64.246-81.738M467.938 287.922c36.746 57.211 62.145 79.785 62.145 79.785-18.816-11.059-63.496-78.75-63.496-78.75" clip-rule="evenodd" fill="#cbb500" fill-rule="evenodd"/><path d="M348.555 367.707c13.445-2.695 15.109-19.129 15.109-19.129 15.082-2.699 12.988-17.188 12.988-17.188C394.289 327.37 388 312.261 388 312.261c18.68-11.496 4.629-24.34 4.629-24.34 10.625-8.363 3.734-18.531 3.734-18.531 10.316 1.035 10.316-10.004 10.316-10.004 9.422 5.062 14.5-2.098 14.5-2.098 36.297 28.992 63.793 22.27 63.793 22.27-25.398 6.266-66.344-28.988-66.344-28.988-4.621 11.809-16.578 2.094-16.578 2.094-1.64 17.016-14.05 10.289-14.05 10.289 8.824 16.148-3.133 23.906-3.133 23.906 14.488 13.906-2.094 22.727-2.094 22.727 4.195 19.711-10.895 17.785-10.895 17.785 1.641 14.938-11.809 18.672-11.809 18.672-9.855 37.355-38.988 10.293-38.988 10.293 12.989 18.676 27.474 11.371 27.474 11.371" clip-rule="evenodd" fill="#ccbe00" fill-rule="evenodd"/><path d="M486.008 281.633c-6.121.457-10.293.457-10.293.457-2.695 5.23-8.816 5.977-8.816 5.977-2.695 6.266-8.672 7.012-8.672 7.012-3.594 7.781-7.906 7.035-7.906 7.035-3.16 4.172-8.387 5.23-8.387 5.23-2.074 5.664-7.762 6.723-7.762 6.723-10.91 13.305-17.637 11.641-17.637 11.641-1.785 4.938-6.27 5.684-6.27 5.684-4.629 6.27-9.855 6.727-9.855 6.727-2.242 3.734-6.121 4.773-6.121 4.773-4.797 8.215-10.457 7.18-10.457 7.18-5.688 9.855-18.676 11.496-18.676 11.496 14.031-8.363 15.082-12.535 15.082-12.535 11.355-4.645 13.449-8.215 13.449-8.215 5.23-2.098 4.168-4.648 4.168-4.648 7.781-2.078 10.316-5.23 10.316-5.23 4.797-3.137 6.289-6.266 6.289-6.266 7.762-2.535 11.348-5.688 11.348-5.688 5.836-2.531 7.328-6.723 7.328-6.723 6.723-3.133 8.363-7.305 8.363-7.305 5.66-2.098 5.66-3.59 5.66-3.59 9.883-3.59 8.824-8.363 8.824-8.363 7.781-2.094 10.312-5.684 10.312-5.684 7.324-3.137 8.363-6.727 8.363-6.727 6.289 0 9.566-2.094 9.566-2.094" clip-rule="evenodd" fill="#cbb500" fill-rule="evenodd"/><path d="M458.227 295.078c32.266 56.344 59.016 73.523 59.016 73.523-40.027-38.246-57.668-74.27-57.668-74.27M450.754 301.055c33.012 50.367 58.871 70.824 58.871 70.824-30.34-21.953-60.223-70.078-60.223-70.078M441.934 307.344c38.098 52.145 53.641 62.004 53.641 62.004-25.832-18.242-55.133-61.566-55.133-61.566M434.172 314.066c28.242 38.391 51.402 55.719 51.402 55.719-40.047-32.707-52.746-55.285-52.746-55.285M427.449 320.043c27.184 36.75 46.609 50.051 46.609 50.051-34.199-26.453-48.25-49.012-48.25-49.012M418.629 325.273c20.48 30.773 42.73 45.113 42.73 45.113-33.449-23.16-44.367-44.68-44.367-44.68M410.266 331.391c22.562 29.887 37.957 38.703 37.957 38.703-24.508-17.324-39.449-37.805-39.449-37.805M401.762 337.078c21.812 24.199 31.668 31.961 31.668 31.961-16.895-12.992-33.02-30.922-33.02-30.922M393.688 342.891c12.242 14.195 26.293 24.816 26.293 24.816-20.773-14.793-27.043-24.066-27.043-24.066M384.414 349.324c11.367 10.457 20.172 15.832 20.172 15.832-10.297-5.23-22.852-15.543-21.504-15.832.75-.144 1.332 0 1.332 0" clip-rule="evenodd" fill="#cbb500" fill-rule="evenodd"/><path d="M343.324 426.414c-23.738 24.648-18.676 40.48-18.676 40.48 1.059 21.23 23.473 20.18 23.473 20.18 27.492-4.176 18.074-28.535 18.074-28.535-7.179-19.117-22.871-32.125-22.871-32.125" clip-rule="evenodd" fill="#7d7fbd" fill-rule="evenodd"/><path d="M314.355 385.93c7.762 10.168 14.031 7.18 14.031 7.18 3.59-5.832-5.23-13.906-5.23-13.906 6.887 9.422 4.48 12.555 4.48 12.555-3.734 2.679-13.281-5.829-13.281-5.829" clip-rule="evenodd" fill="#a90" fill-rule="evenodd"/><path d="M322.723 379.203c11.203 14.652 20.164 10.461 20.164 10.461 6.125-7.473-7.469-19.879-7.469-19.879 9.715 13.445 6.414 17.93 6.414 17.93-5.375 3.902-19.109-8.512-19.109-8.512" clip-rule="evenodd" fill="#a90" fill-rule="evenodd"/><path d="M335.566 369.348c7.758 10.145 14.047 7.16 14.047 7.16 3.594-5.809-3.133-10.461-3.133-10.461 5.664 7.328 2.387 9.133 2.387 9.133-3.734 2.82-13.301-5.832-13.301-5.832M348.555 366.504c7.93 10.168 14.195 7.324 14.195 7.324 3.445-5.973-2.531-9.418-2.531-9.418 4.938 7.469 1.031 8.363 1.031 8.363-3.727 2.844-12.695-6.269-12.695-6.269" clip-rule="evenodd" fill="#a90" fill-rule="evenodd"/><path d="M350.047 378.312c11.203 14.48 20.168 10.312 20.168 10.312 5.98-7.469-7.613-19.879-7.613-19.879 9.855 13.445 6.434 17.93 6.434 17.93-5.231 3.88-18.989-8.363-18.989-8.363M345.277 405.953c8.07 12.094 15.23 9.254 15.23 9.254 5.23-5.52-4.918-16.125-4.918-16.125 7.012 11.043 4.168 14.488 4.168 14.488-4.316 2.84-14.48-7.617-14.48-7.617" clip-rule="evenodd" fill="#a90" fill-rule="evenodd"/><path d="M354.988 398.629c8.074 12.098 15.395 9.254 15.395 9.254 5.23-5.52-4.938-16.125-4.938-16.125 7.012 11.207 4.188 14.484 4.188 14.484-4.477 2.844-14.645-7.613-14.645-7.613" clip-rule="evenodd" fill="#a90" fill-rule="evenodd"/><path d="M363.664 388.457c8.051 11.953 15.375 9.133 15.375 9.133 5.086-5.539-4.918-16-4.918-16 7.012 11.062 4.172 14.508 4.172 14.508-4.484 2.675-14.629-7.641-14.629-7.641M331.227 398.629c9.566 12.406 17.184 8.816 17.184 8.816 5.082-6.434-6.414-16.891-6.414-16.891 8.363 11.352 5.379 15.254 5.379 15.254-4.489 3.278-16.149-7.179-16.149-7.179" clip-rule="evenodd" fill="#a90" fill-rule="evenodd"/><path d="M343.324 426.414c-7.758-10.461-10.602-11.207-10.602-11.207-45.113 62.754 3.445 69.785 3.445 69.785-30.628-20.172 7.157-58.578 7.157-58.578" clip-rule="evenodd" fill="#c9aa03" fill-rule="evenodd"/><path d="M350.359 419.398c8.074 12.102 15.379 9.258 15.379 9.258 5.227-5.523-4.918-16.125-4.918-16.125 7.012 11.203 4.168 14.484 4.168 14.484-4.48 2.844-14.629-7.617-14.629-7.617" clip-rule="evenodd" fill="#a90" fill-rule="evenodd"/><path d="M360.82 411.617c8.07 12.117 15.23 9.273 15.23 9.273 5.23-5.539-4.918-16.141-4.918-16.141 7.012 11.059 4.168 14.504 4.168 14.504-4.335 2.825-14.48-7.636-14.48-7.636" clip-rule="evenodd" fill="#a90" fill-rule="evenodd"/><path d="M370.383 402.363c8.055 12.098 15.375 9.254 15.375 9.254 5.23-5.52-4.918-16.121-4.918-16.121 7.02 11.203 4.176 14.484 4.176 14.484-4.336 2.844-14.633-7.617-14.633-7.617M355.734 431.039c6.867 12.863 14.34 10.77 14.34 10.77 5.688-4.938-3.137-16.434-3.137-16.434 5.832 11.805 2.535 14.797 2.535 14.797-4.628 2.387-13.738-9.133-13.738-9.133M367.539 423.879c6.723 12.848 14.195 10.75 14.195 10.75 5.664-4.918-3.129-16.434-3.129-16.434 5.809 11.812 2.527 14.797 2.527 14.797-4.628 2.387-13.593-9.113-13.593-9.113" clip-rule="evenodd" fill="#a90" fill-rule="evenodd"/><path d="M377.543 416.27c6.723 12.84 14.195 10.746 14.195 10.746 5.828-4.938-3.137-16.582-3.137-16.582 5.832 11.809 2.535 14.941 2.535 14.941-4.628 2.242-13.593-9.105-13.593-9.105M364.988 441.207c7.93 16.582 17.492 14.34 17.492 14.34 7.473-6.121-3.293-21.062-3.293-21.062 6.887 15.086 2.695 18.82 2.695 18.82-6.12 2.703-16.894-12.098-16.894-12.098" clip-rule="evenodd" fill="#a90" fill-rule="evenodd"/><path d="M378.891 433.883c8.078 16.578 17.641 14.344 17.641 14.344 7.473-5.98-3.301-21.066-3.301-21.066 6.867 15.25 2.551 18.824 2.551 18.824-5.97 2.843-16.891-12.102-16.891-12.102M369.633 456.438c2.395 11.668 8.66 11.668 8.66 11.668 5.539-2.703 1.203-13.598 1.203-13.598 1.926 10.461-1.203 12.098-1.203 12.098-4.172.749-8.66-10.168-8.66-10.168" clip-rule="evenodd" fill="#a90" fill-rule="evenodd"/><path d="M379.039 454.195c4.336 11.066 10.453 10.023 10.453 10.023 5.09-3.441-1.031-13.59-1.031-13.59 3.586 10.004.742 12.242.742 12.242-3.875 1.501-10.164-8.675-10.164-8.675" clip-rule="evenodd" fill="#a90" fill-rule="evenodd"/><path d="M388.148 449.277c3.445 11.207 9.707 10.754 9.707 10.754 5.23-3.133-.141-13.598-.141-13.598 2.984 10.176 0 12.105 0 12.105-4.175 1.204-9.566-9.261-9.566-9.261M370.215 467.812c.75 11.781 7.039 12.699 7.039 12.699 5.828-1.809 2.984-13.297 2.984-13.297.441 10.598-2.844 11.805-2.844 11.805-4.335.286-7.179-11.207-7.179-11.207" clip-rule="evenodd" fill="#a90" fill-rule="evenodd"/><path d="M380.531 466.605c.891 11.664 7.18 12.699 7.18 12.699 5.828-1.785 2.992-13.301 2.992-13.301.434 10.605-2.992 11.809-2.992 11.809-4.188.149-7.18-11.207-7.18-11.207" clip-rule="evenodd" fill="#a90" fill-rule="evenodd"/><path d="M390.555 465.262c.75 11.809 7.012 12.699 7.012 12.699 5.836-1.785 2.992-13.141 2.992-13.141.453 10.605-2.844 11.789-2.844 11.789-4.336.168-7.16-11.347-7.16-11.347M367.832 476.469l-.145 12.551c0 8.07 5.082 1.949 5.082 1.949l6.578-12.117-7.633 10.625c-1.5 3.137-2.391-.602-2.391-.602" clip-rule="evenodd" fill="#a90" fill-rule="evenodd"/><path d="M378.145 478.703l1.953 12.41c1.492 7.91 5.379.898 5.379.898l4.336-12.992-5.547 11.781c-.891 3.445-2.383-.141-2.383-.141M389.812 478.852l1.633 12.41c1.352 7.922 5.379 1.031 5.379 1.031l4.625-12.988-5.828 11.664c-1.039 3.426-2.391-.168-2.391-.168" clip-rule="evenodd" fill="#a90" fill-rule="evenodd"/><path d="M368.891 369.348c32.559 43.762 33.621 92.777 33.621 92.777 0-63.207-33.621-96.512-33.621-96.512" clip-rule="evenodd" fill="#cbb500" fill-rule="evenodd"/><path d="M354.238 437.762c-23.613-27.184-44.074-37.352-44.074-37.352 32.414 4.195 44.074 37.352 44.074 37.352" clip-rule="evenodd" fill="#928900" fill-rule="evenodd"/><path d="M479.887 281.633c19.738 31.086 35.715 47.664 35.715 47.664-19.137-26.438-33.16-48.246-33.16-48.246M471.074 286.281c8.211 18.363 36.016 49.887 36.016 49.887-21.082-29.574-34.82-50.637-34.82-50.637M464.516 291.512c16.121 28.969 37.035 53.477 37.035 53.477-15.543-12.246-39.137-52.73-39.137-52.73M454.633 299.73c18.988 30.914 36.172 48.102 36.172 48.102-26-33.766-34.512-50.055-34.512-50.055M447.477 303.898c20.461 31.684 34.652 46.461 34.652 46.461-23.301-22.988-36.293-45.715-36.293-45.715M438.797 311.227c3.742 9.562 35.574 42.723 35.574 42.723-23.906-19.715-37.668-41.977-37.668-41.977M430.727 317.199c18.246 23.617 32.289 37.062 32.289 37.062-20.332-16.289-33.18-36.023-33.18-36.023" clip-rule="evenodd" fill="#cbb500" fill-rule="evenodd"/><path d="M321.371 411.617c-18.965 32.121-17.93 57.23-13.445 68.438 4.336 11.207 2.84 16.293-3.445 13.738-6.266-2.531-6.727-6.418-6.727-6.418-7.613-33.469 6.727-53.492 6.727-53.492 6.285-11.641 16.89-22.266 16.89-22.266" clip-rule="evenodd" fill="#fff" fill-rule="evenodd"/><path d="M368.289 491.715c-16.582 23.305-38.41 28.531-38.41 28.531M381.734 494.855c-9.277 18.215-28.527 28.07-28.527 28.07M355.281 485.574c-9.859 19.137-41.527 26.891-41.527 26.891M327.348 476.176c-14.051 9.398-30.172 8.363-30.172 8.363M360.961 482.148c8.074 26.75 18.676 33.16 18.676 33.16M375.613 486.484c7.16 16.434 14.199 19.258 14.199 19.258M350.215 486.484c2.531 18.969 13.879 35.551 13.879 35.551M337.66 485.574c1.348 19.426 10.895 37.812 10.895 37.812M328.094 477.52c-5.688 24.801 3.133 42.414 3.133 42.414M339.445 486.031c-14.195 10.918-35.711 14.484-35.711 14.484M324.648 465.262c-17.18 7.613-28.965 4.625-28.965 4.625 12.387-26.148 33.906-26.438 33.906-26.438M324.504 469.738s-14.797 6.438-14.051 39.16M297.176 454.656c9.398 4.625 28.82-.602 28.82-.602M301.945 440.172c8.508 6.723 26.605 6.41 26.605 6.41M309.875 425.812c9.711 12.262 24.195 12.551 24.195 12.551M320.77 412.676c5.227 13.738 19.277 17.613 19.277 17.613M298.066 488.418c10.75-28.387 27.641-32.27 27.641-32.27M299.852 443.738c23.617-16.867 35.254-6.719 35.254-6.719M307.633 428.656c25.09-9.258 34.656-3.281 34.656-3.281M316.434 417.012c10.914-3.902 14.191-2.84 14.191-2.84" fill="none" stroke="#928900" stroke-width="1.046" stroke-miterlimit="2.613"/><path d="M392.195 369.348l-.602 20.773c8.363-9.133 16.145-7.637 16.145-7.637-6.289-9.855-15.543-13.136-15.543-13.136M393.379 390.266c17.488-6.125 29.133 16.434 29.133 16.434-9.543-2.094-18.219 3.879-18.219 3.879 6.574-7.758 11.809-7.613 11.809-7.613-6.579-10.025-22.723-12.7-22.723-12.7" clip-rule="evenodd" fill="#ffef96" fill-rule="evenodd"/><path d="M334.816 401.473c8.07 8.359 12.41 4.48 12.41 4.48-6.14-1.348-12.41-4.48-12.41-4.48M317.781 388.457c6.434 6.727 10.023 3.594 10.023 3.594-5.081-1.039-10.023-3.594-10.023-3.594M328.84 383.398c8.074 8.219 12.555 4.316 12.555 4.316-6.29-1.331-12.555-4.316-12.555-4.316M356.336 382.336c8.07 8.219 12.555 4.34 12.555 4.34-6.289-1.348-12.555-4.34-12.555-4.34M339.297 371.441c6.434 6.559 10.004 3.426 10.004 3.426-5.063-1.039-10.004-3.426-10.004-3.426M352.598 369.348c6.418 6.578 9.855 3.426 9.855 3.426-4.93-1.04-9.855-3.426-9.855-3.426M348.555 408.793c8.07 8.219 12.406 4.316 12.406 4.316-6.121-1.328-12.406-4.316-12.406-4.316M358.434 401.473c8.047 8.359 12.391 4.48 12.391 4.48-6.13-1.348-12.391-4.48-12.391-4.48M363.953 414.172c7.926 8.359 12.41 4.48 12.41 4.48-6.289-1.347-12.41-4.48-12.41-4.48M353.207 421.93c8.043 8.359 12.531 4.484 12.531 4.484-6.269-1.348-12.531-4.484-12.531-4.484M358.266 433.734c6.891 9.254 11.809 5.98 11.809 5.98-5.981-2.093-11.809-5.98-11.809-5.98M370.074 426.414c6.867 9.422 11.66 6.121 11.66 6.121-5.972-2.074-11.66-6.121-11.66-6.121M383.832 439.715c6.871 9.254 11.641 5.977 11.641 5.977-5.981-2.094-11.641-5.977-11.641-5.977M369.934 446.727c7.172 9.711 12.398 6.289 12.398 6.289-6.43-2.243-12.398-6.289-12.398-6.289" clip-rule="evenodd" fill="#fff" fill-rule="evenodd"/><path d="M417.887 260.426c17.637 16.289 44.816 21.953 44.816 21.953-24.047-2.238-46.602-21.496-46.602-21.496M404.895 265.508c16.578 15.832 42.727 23.449 42.727 23.449-22.266-4.773-44.367-22.098-44.367-22.098M398.316 275.656c13.738 11.371 36.895 18.984 36.895 18.984-9.113-.309-37.043-17.18-37.043-17.18M396.363 283.73c21.523 13.445 32.125 16.578 32.125 16.578-22.852-8.508-33.016-15.832-33.016-15.832M397.113 296.137c7.473 7.617 28.242 11.207 28.242 11.207-12.988-.605-28.242-9.566-28.242-9.566M394.289 306.285c9.547 6.289 25.691 8.215 25.691 8.215-17.789-1.492-26.293-7.762-26.293-7.762M388.461 316.164c4.77 4.172 21.805 5.227 21.805 5.227-8.504 1.184-21.516-3.734-21.516-3.734M338.262 205.145l-13.012 14.484 14.508-13.445M317.18 215.457l1.492-14.797-1.781.293M329.441 223.074l17.329-11.496 1.351 1.637M335.105 226.664l21.231-4.191 2.68 2.093M340.793 232.93l22.871.457.43 2.531M347.516 240.109l19.714 5.231-1.035 2.094M352.145 249.508l13.011 5.687v2.532M355.883 262.379l8.211 3.73v2.532l-8.211-6.723M356.934 273.27l7.761 3.734 1.043 3.137M356.336 282.09l9.859 7.324v2.531M354.238 290.016l10.918 9.254-.461 2.531M350.652 298.23L362 309.586l-1.93 1.641M375.613 356.793a7390.38 7390.38 0 0 0 24.797 11.496c-17.637-6.266-26.891-10.457-26.891-10.457" clip-rule="evenodd" fill="#cbb500" fill-rule="evenodd"/><path d="M379.637 227.699c-17.637 16-7.758 68.438-10.746 76.801-10.164 27.039-47.809 22.266-47.809 22.266-5.23.605-10.316 12.387-10.316 12.387 2.098-14.48 13.883-15.977 13.883-15.977 18.238 2.098 38.414-12.555 40.047-21.809 1.5-9.422-2.695-36.316.461-50.797 3.132-14.652 14.48-22.871 14.48-22.871" clip-rule="evenodd" fill="#fff" fill-rule="evenodd"/><path d="M337.66 233.387c14.484 39.445 8.82 74.703 8.82 74.703 19.258-54.992-8.82-74.703-8.82-74.703" clip-rule="evenodd" fill="#cbb500" fill-rule="evenodd"/><path d="M324.215 258.328c-2.098 11.352-3.59 15.543-3.59 15.543-.602-9.422-.602-8.82-.602-8.82 3.59-3.59 4.192-6.723 4.192-6.723" clip-rule="evenodd" fill="#a90" fill-rule="evenodd"/><path d="M320.625 274.328c-7.762 2.676-15.086 3.734-15.086 3.734 9.254-4.793 13.445-9.875 13.445-9.875 3.133 3.153 1.641 6.141 1.641 6.141" clip-rule="evenodd" fill="#cbb500" fill-rule="evenodd"/></svg>