<?xml version="1.0" encoding="UTF-8" standalone="no"?>
<!-- Generator: Adobe Illustrator 13.0.2, SVG Export Plug-In . SVG Version: 6.00 Build 14948)  -->

<svg
   xmlns:dc="http://purl.org/dc/elements/1.1/"
   xmlns:cc="http://creativecommons.org/ns#"
   xmlns:rdf="http://www.w3.org/1999/02/22-rdf-syntax-ns#"
   xmlns:svg="http://www.w3.org/2000/svg"
   xmlns="http://www.w3.org/2000/svg"
   xmlns:sodipodi="http://sodipodi.sourceforge.net/DTD/sodipodi-0.dtd"
   xmlns:inkscape="http://www.inkscape.org/namespaces/inkscape"
   version="1.1"
   id="Layer_1"
   x="0px"
   y="0px"
   width="720px"
   height="720px"
   viewBox="0 0 719.996 720.004"
   style="enable-background:new 0 0 719.996 720.004;"
   xml:space="preserve"
   sodipodi:docname="US-TRANSCOM-Emblem-simplified.svg"
   inkscape:export-filename="/Users/james/Downloads/favicon-48x48.png"
   inkscape:export-xdpi="6.4000001"
   inkscape:export-ydpi="6.4000001"
   inkscape:version="0.92.2 5c3e80d, 2017-08-06"><metadata
     id="metadata5928"><rdf:RDF><cc:Work
         rdf:about=""><dc:format>image/svg+xml</dc:format><dc:type
           rdf:resource="http://purl.org/dc/dcmitype/StillImage" /><dc:title></dc:title></cc:Work></rdf:RDF></metadata><defs
     id="defs5926" /><sodipodi:namedview
     pagecolor="#ffffff"
     bordercolor="#666666"
     borderopacity="1"
     objecttolerance="10"
     gridtolerance="10"
     guidetolerance="10"
     inkscape:pageopacity="0"
     inkscape:pageshadow="2"
     inkscape:window-width="1608"
     inkscape:window-height="1005"
     id="namedview5924"
     showgrid="false"
     inkscape:zoom="1"
     inkscape:cx="385.6972"
     inkscape:cy="377.40035"
     inkscape:window-x="72"
     inkscape:window-y="23"
     inkscape:window-maximized="0"
     inkscape:current-layer="Layer_1" /><polyline
     style="clip-rule:evenodd;fill:#7d7fbd;fill-rule:evenodd"
     points="206.473,560.277 140.441,590.16 167.938,521.746       "
     id="polyline5275"
     transform="matrix(1.5144257,0,0,1.5144257,-106.14087,-273.59328)" /><polyline
     style="clip-rule:evenodd;fill:#004b8c;fill-rule:evenodd"
     points="140.734,589.867 188.398,542.207 206.473,560.277       "
     id="polyline5277"
     transform="matrix(1.5144257,0,0,1.5144257,-106.14087,-273.59328)" /><polyline
     style="clip-rule:evenodd;fill:#7d7fbd;fill-rule:evenodd"
     points="153.578,214.855 123.551,148.824 191.988,176.301       "
     id="polyline5279"
     transform="matrix(1.461206,0,0,1.461206,-73.982557,-108.64627)" /><polyline
     style="clip-rule:evenodd;fill:#004b8c;fill-rule:evenodd"
     points="123.863,148.973 171.508,196.781 153.578,214.855       "
     id="polyline5281"
     transform="matrix(1.461206,0,0,1.461206,-73.982557,-108.64627)" /><polyline
     style="clip-rule:evenodd;fill:#7d7fbd;fill-rule:evenodd"
     points="113.094,415.52 0,372.938 113.094,324.672   "
     id="polyline5283" /><polyline
     style="clip-rule:evenodd;fill:#004b8c;fill-rule:evenodd"
     points="0.434,372.938 113.094,372.938 113.094,415.52   "
     id="polyline5285" /><polyline
     style="clip-rule:evenodd;fill:#004b8c;fill-rule:evenodd"
     points="306.574,112.969 349.156,0 397.426,112.969   "
     id="polyline5287" /><polyline
     style="clip-rule:evenodd;fill:#7d7fbd;fill-rule:evenodd"
     points="349.156,0.457 349.156,112.969 306.574,112.969       "
     id="polyline5289" /><polyline
     style="clip-rule:evenodd;fill:#004b8c;fill-rule:evenodd"
     points="327.348,606.906 369.781,720.004 418.027,606.906       "
     id="polyline5291" /><polyline
     style="clip-rule:evenodd;fill:#7d7fbd;fill-rule:evenodd"
     points="369.781,719.562 369.781,606.906 327.348,606.906       "
     id="polyline5293" /><polyline
     style="clip-rule:evenodd;fill:#7d7fbd;fill-rule:evenodd"
     points="606.887,413.422 719.996,370.84 606.887,322.574       "
     id="polyline5295" /><polyline
     style="clip-rule:evenodd;fill:#004b8c;fill-rule:evenodd"
     points="719.547,370.84 606.887,370.84 606.887,413.422       "
     id="polyline5297" /><polyline
     style="clip-rule:evenodd;fill:#7d7fbd;fill-rule:evenodd"
     points="549.82,202.301 579.848,136.27 511.406,163.766       "
     id="polyline5299"
     transform="matrix(1.4610993,0,0,1.4610993,-238.80895,-90.280824)" /><polyline
     style="clip-rule:evenodd;fill:#004b8c;fill-rule:evenodd"
     points="579.559,136.562 531.887,184.227 549.82,202.301       "
     id="polyline5301"
     transform="matrix(1.4610993,0,0,1.4610993,-238.80895,-90.280824)" /><polyline
     style="clip-rule:evenodd;fill:#7d7fbd;fill-rule:evenodd"
     points="523.07,552.664 590.594,578.953 559.387,512.031       "
     id="polyline5303"
     transform="matrix(1.4809631,0,0,1.4809631,-267.24155,-242.24761)" /><polyline
     style="clip-rule:evenodd;fill:#004b8c;fill-rule:evenodd"
     points="590.453,578.664 540.109,533.695 523.07,552.664       "
     id="polyline5305"
     transform="matrix(1.4809631,0,0,1.4809631,-267.24155,-242.24761)" /><path
     style="clip-rule:evenodd;fill:#ffffff;fill-rule:evenodd"
     d="m 356.934,614.375 c 140.141,0 253.832,-113.691 253.832,-253.848 0,-140.297 -113.691,-253.848 -253.832,-253.848 -140.293,0 -253.844,113.551 -253.844,253.848 0,140.157 113.551,253.848 253.844,253.848"
     id="path5307"
     inkscape:connector-curvature="0" /><path
     style="fill:none;stroke:#004b8c;stroke-width:16.00008889;stroke-miterlimit:2.61310005;stroke-dasharray:none"
     d="m 356.934,614.375 c 140.141,0 253.832,-113.691 253.832,-253.848 0,-140.297 -113.691,-253.848 -253.832,-253.848 -140.293,0 -253.844,113.551 -253.844,253.848 0,140.157 113.551,253.848 253.844,253.848 z"
     id="path5309"
     inkscape:connector-curvature="0" /><path
     style="clip-rule:evenodd;fill:#7d7fbd;fill-rule:evenodd"
     d="m 359.18,546.832 c 102.781,0 186.016,-83.211 186.016,-186.012 0,-102.781 -83.234,-186.012 -186.016,-186.012 -102.801,0 -186.012,83.23 -186.012,186.012 0,102.801 83.211,186.012 186.012,186.012"
     id="path5311"
     inkscape:connector-curvature="0" /><path
     style="fill:none;stroke:#ffffff;stroke-width:4.18340015;stroke-linecap:square;stroke-miterlimit:2.61310005"
     d="m 359.18,546.832 c 102.781,0 186.016,-83.211 186.016,-186.012 0,-102.781 -83.234,-186.012 -186.016,-186.012 -102.801,0 -186.012,83.23 -186.012,186.012 0,102.801 83.211,186.012 186.012,186.012 z"
     id="path5313"
     inkscape:connector-curvature="0" /><line
     style="clip-rule:evenodd;fill-rule:evenodd"
     x1="178.395"
     y1="315.418"
     x2="539.508"
     y2="315.418"
     id="line5331" /><line
     style="clip-rule:evenodd;fill-rule:evenodd"
     x1="180.46899"
     y1="414.918"
     x2="537.414"
     y2="414.918"
     id="line5335" /><path
     style="clip-rule:evenodd;fill:#ffdc88;fill-rule:evenodd"
     d="m 537.867,358.887 c 1.781,3.426 2.672,5.234 2.672,5.234 6.73,15.539 -10.457,3.586 -10.457,3.586 1.664,12.535 -12.84,1.641 -12.84,1.641 4.047,9.855 -7.762,3.133 -7.762,3.133 -1.059,9.855 -13.906,-3.133 -13.906,-3.133 0,0 0,-0.309 0,0 2.098,12.387 -10,0.438 -10,0.438 0,0 -0.309,-0.746 0,0 3.879,11.203 -11.516,0.309 -11.516,0.309 0,0 -0.148,-0.457 0,0 5.398,10.602 -12.699,0.293 -12.699,0.293 0,0 0,-1.039 0,0 0.91,8.672 -13.137,-0.293 -13.137,-0.293 0,0 -0.312,-0.746 0,0 3.594,11.062 -14.793,-1.055 -14.793,-1.055 0,0 -0.895,-3.137 0,0 2.984,11.949 -13.449,-1.332 -13.449,-1.332 0,0 -0.602,-1.348 0,0 3.133,10.004 -15.395,-2.551 -15.395,-2.551 l -9.254,8.363 c 0,0 4.625,0.746 8.961,7.176 0,0 -10.312,0.293 -14.199,9.113 l 1.352,0.746 c 19.422,-1.781 30.777,16.145 30.777,16.145 27.039,-5.227 37.352,-32.27 37.352,-32.27 6.266,13.594 29.137,19.715 29.137,19.715 -9.426,15.688 -7.328,40.484 -7.328,40.484 -12.391,12.555 -7.324,34.219 -7.324,34.219 -17.617,9.422 -24.797,27.039 -24.797,27.039 -31.234,-7.32 -41.523,22.867 -41.523,22.867 18.672,-63.355 -8.383,-105.93 -8.383,-105.93 22.406,119.379 -49.742,110.562 -49.742,110.562 -73.211,-3.594 -50.797,-77.242 -50.797,-77.242 8.219,-23.902 26.891,-38.41 26.891,-38.41 l -43.473,-21.805 c -17.637,8.215 -30.191,12.406 -30.191,12.406 l -2.098,29.133 c 3.152,4.031 4.191,10.293 4.191,10.293 l 7.324,1.059 c 7.16,20.773 1.039,31.066 1.039,31.066 L 245.918,453.304 C 228.281,444.05 233.367,430.46 233.367,430.46 l -2.098,-23.762 c -11.352,-15.543 -5.062,-22.867 -5.062,-22.867 4.027,-9.402 15.52,-13.445 15.52,-13.445 l 8.219,-2.098 c -1.641,-3.422 -2.676,-6.723 -3.277,-9.402"
     id="path5339"
     inkscape:connector-curvature="0" /><path
     style="clip-rule:evenodd;fill:#e3bf01;fill-rule:evenodd"
     d="m 411.906,456.438 c 13.449,31.086 9.273,44.68 9.273,44.68 13.598,-12.992 12.539,-35.254 12.539,-35.254 8.215,14.48 15.543,30.023 15.543,30.023 6.121,-24.945 -7.328,-43.617 -7.328,-43.617 15.543,15.543 32.125,16.578 32.125,16.578 -7.16,-16.578 -17.617,-24.797 -17.617,-24.797 16.578,0 24.941,-9.422 24.941,-9.422 -19.711,-11.352 -37.352,-11.352 -37.352,-11.352 39.445,-2.094 44.68,-29.133 44.68,-29.133 -19.719,4.191 -36.316,10.461 -36.316,10.461 15.543,-6.27 12.41,-22.871 12.41,-22.871 l -5.23,-7.305 c -14.488,28.078 -60.219,34.801 -60.219,34.801 l 1.656,7.781 c 10.895,15.231 10.895,39.427 10.895,39.427"
     id="path5341"
     inkscape:connector-curvature="0" /><path
     style="fill:none;stroke:#928900;stroke-width:2.09170008;stroke-miterlimit:2.61310005"
     d="m 421.93,500.371 c 0,0 14.633,-49.309 -19.137,-87.262"
     id="path5343"
     inkscape:connector-curvature="0" /><path
     style="fill:none;stroke:#928900;stroke-width:2.09170008;stroke-miterlimit:2.61310005"
     d="m 414.008,423.277 c 39.59,49.305 34.965,72.32 34.965,72.32"
     id="path5345"
     inkscape:connector-curvature="0" /><path
     style="fill:none;stroke:#928900;stroke-width:2.09170008;stroke-miterlimit:2.61310005"
     d="m 481.383,434.629 c -45.711,1.059 -71.57,-16.867 -71.57,-16.867 34.219,33.301 64.246,50.945 64.246,50.945"
     id="path5347"
     inkscape:connector-curvature="0" /><path
     style="fill:none;stroke:#928900;stroke-width:2.09170008;stroke-miterlimit:2.61310005"
     d="m 488.418,395.035 c -39.906,25.398 -84.875,19.883 -84.875,19.883 56.031,-5.086 56.031,-40.488 56.031,-40.488"
     id="path5349"
     inkscape:connector-curvature="0" /><path
     style="clip-rule:evenodd;fill:#ffdc88;fill-rule:evenodd"
     d="m 246.668,358.887 c -0.75,-3.734 -0.75,-6.117 -0.75,-6.117 l -19.711,-11.52 -14.504,17.637 h -19.715 l 20.605,-33.18 c -1.93,-17.617 15.688,-14.48 15.688,-14.48 10.316,1.035 9.277,14.48 9.277,14.48 l 23.301,15.543 c 12.992,-37.352 26.441,-38.848 33.766,-45.113 7.32,-6.121 11.949,-25.398 11.949,-25.398 -10.457,-0.457 -13.445,-3.594 -13.445,-3.594 l -2.68,5.09 -0.453,10.895 -15.086,2.094 -1.496,-4.629 9.254,-2.094 v -5.668 c -0.434,-9.879 -9.254,-4.645 -9.254,-4.645 l -6.285,7.781 h -10.293 l -0.602,-20.316 18.215,-25.398 2.555,-13.449 c 5.664,-7.324 9.855,-8.816 9.855,-8.816 l 1.039,-8.363 8.219,3.734 0.602,-8.816 c 6.266,2.094 10.914,6.719 10.914,6.719 l 21.809,-1.055 c 14.484,6.141 26.441,21.23 26.441,21.23 15.996,-6.125 23.754,6.262 23.754,6.262 43.625,-16.121 71.117,14.047 71.117,14.047 47.211,46.32 78.148,100.562 87.113,117.141"
     id="path5351"
     inkscape:connector-curvature="0" /><path
     style="clip-rule:evenodd;fill:#ffdc88;fill-rule:evenodd"
     d="m 211.703,358.887 -4.172,5.234 c 3.133,9.398 -2.094,13.445 -2.094,13.445 l 5.227,6.266 -17.785,22.867 -6.121,-18.676 c -8.363,-22.867 5.23,-29.137 5.23,-29.137"
     id="path5353"
     inkscape:connector-curvature="0" /><path
     style="clip-rule:evenodd;fill:#ffdc88;fill-rule:evenodd"
     d="m 368.891,365.613 c 24.797,-3.59 38.848,16.723 38.848,16.723 -12.406,0 -16.293,8.219 -16.293,8.219 18.82,-5.227 30.777,16.145 30.777,16.145 -15.543,-2.094 -19.711,5.668 -19.711,5.668 11.496,5.223 19.25,17.18 19.25,17.18 1.062,7.781 -5.66,6.141 -5.66,6.141 -11.516,-5.227 -13.59,3.133 -13.59,3.133 15.516,11.352 9.855,23.906 9.855,23.906 -2.555,-6.289 -9.855,-0.602 -9.855,-0.602 0,-56.485 -33.621,-96.513 -33.621,-96.513"
     id="path5355"
     inkscape:connector-curvature="0" /><path
     style="clip-rule:evenodd;fill:#aa9900;fill-rule:evenodd"
     d="m 317.488,215.75 c 56.031,33.18 28.992,92.34 28.992,92.34 37.352,-64.391 -28.992,-92.34 -28.992,-92.34"
     id="path5357"
     inkscape:connector-curvature="0" /><path
     style="clip-rule:evenodd;fill:#c9aa03;fill-rule:evenodd"
     d="m 287.301,343.348 -13.449,13.445 c -17.617,11.496 -23.906,11.496 -23.906,11.496 l -5.062,-14.027 11.352,-16.145 4.625,3.133 0.602,10.457 4.172,4.051 11.371,-7.18 -3.152,-5.23"
     id="path5359"
     inkscape:connector-curvature="0" /><path
     style="clip-rule:evenodd;fill:#928900;fill-rule:evenodd"
     d="m 306.574,270.738 c 22.266,-4.191 18.074,-23.902 18.074,-23.902 4.191,22.844 -20.605,31.664 -20.605,31.664"
     id="path5361"
     inkscape:connector-curvature="0" /><path
     style="clip-rule:evenodd;fill:#ffffff;fill-rule:evenodd"
     d="m 336.168,247.871 c 0,0 1.035,46.77 -23.906,74.703 l 15.543,-3.133 c 9.398,-4.625 7.301,-23.762 7.301,-23.762 13.015,-18.218 1.062,-47.808 1.062,-47.808"
     id="path5363"
     inkscape:connector-curvature="0" /><path
     style="clip-rule:evenodd;fill:#ffffff;fill-rule:evenodd"
     d="m 309.129,326.766 c -11.375,1.035 -17.637,16.582 -17.637,16.582 -2.098,-8.82 1.637,-18.074 1.637,-18.074 4.625,-4.793 10.914,-6.871 10.914,-6.871"
     id="path5365"
     inkscape:connector-curvature="0" /><path
     style="clip-rule:evenodd;fill:#ffffff;fill-rule:evenodd"
     d="m 291.492,352.77 c -30.031,26.891 -45.574,33.16 -45.574,33.16 1.039,14.48 -6.266,16.578 -6.266,16.578 V 431.5 c 7.305,5.227 6.266,18.672 6.266,18.672 l -7.32,-5.082 c -6.27,-9.402 -4.172,-24.941 -4.172,-24.941 l -3.156,-13.449 1.059,-4.191 -2.094,-4.172 -1.953,-11.371 8.219,-9.398 14.504,-6.125 8.363,-1.055 28.988,-22.848 c 9.398,-1.06 3.136,5.23 3.136,5.23"
     id="path5367"
     inkscape:connector-curvature="0" /><path
     style="clip-rule:evenodd;fill:#cbb500;fill-rule:evenodd"
     d="m 373.949,310.184 -1.031,-16.598 c 9.414,-27.039 6.719,-37.352 6.719,-37.352 l -1.492,-9.398 c 13.449,-7.184 24.941,-15.543 24.941,-15.543 v 8.816 c -10.457,8.363 -18.672,10.895 -18.672,10.895 4.047,27.059 -6.27,43.637 -6.27,43.637"
     id="path5369"
     inkscape:connector-curvature="0" /><polyline
     style="clip-rule:evenodd;fill:#c9aa03;fill-rule:evenodd"
     points="285.367,263.414 294.625,255.195 301.945,254.16     300.91,259.387 295.684,258.328   "
     id="polyline5371" /><path
     style="clip-rule:evenodd;fill:#928900;fill-rule:evenodd"
     d="m 310.164,222.035 c -2.094,-16.602 -10.312,-21.828 -10.312,-21.828 2.094,14.504 0,19.734 0,19.734"
     id="path5373"
     inkscape:connector-curvature="0" /><path
     style="clip-rule:evenodd;fill:#ffffff;fill-rule:evenodd"
     d="m 308.07,259.387 c 20.316,-2.695 7.324,-20.773 7.324,-20.773 1.497,15.546 -7.324,20.773 -7.324,20.773"
     id="path5375"
     inkscape:connector-curvature="0" /><path
     style="clip-rule:evenodd;fill:#cbb500;fill-rule:evenodd"
     d="m 218.883,329.898 c 8.363,3.137 11.953,-1.637 11.953,-1.637 l 15.082,17.18 -16.141,-12.406 c -8.367,3.133 -10.894,-3.137 -10.894,-3.137"
     id="path5377"
     inkscape:connector-curvature="0" /><path
     style="clip-rule:evenodd;fill:#aa9900;fill-rule:evenodd"
     d="m 254.137,437.762 c 2.098,11.957 -2.531,19.277 -2.531,19.277 9.254,-5.828 6.121,-18.676 6.121,-18.676"
     id="path5379"
     inkscape:connector-curvature="0" /><path
     style="clip-rule:evenodd;fill:#cbb500;fill-rule:evenodd"
     d="m 205.438,377.566 c -10.461,5.227 -16.586,9.855 -16.586,9.855 11.352,-3.59 18.078,-7.18 18.078,-7.18"
     id="path5381"
     inkscape:connector-curvature="0" /><path
     style="clip-rule:evenodd;fill:#ffffff;fill-rule:evenodd"
     d="m 191.988,383.398 c -3.137,-10.918 4.625,-21.375 4.625,-21.375 l 20.172,-33.762 c 0,-6.125 6.27,-16 6.27,-16 -14.027,-2.078 -10.461,13.445 -10.461,13.445 l -20.605,33.18 c -13.012,8.82 -6.289,27.496 -6.289,27.496"
     id="path5383"
     inkscape:connector-curvature="0" /><path
     style="clip-rule:evenodd;fill:#ffffff;fill-rule:evenodd"
     d="m 302.406,220.977 -29.594,29.594 c -2.094,14.48 -8.816,25.398 -8.816,25.398 h -7.16 l -0.602,-20.316 16.578,-22.723 c 1.039,6.121 0,12.41 0,12.41 l 27.039,-25.398"
     id="path5385"
     inkscape:connector-curvature="0" /><polyline
     style="clip-rule:evenodd;fill:#cbb500;fill-rule:evenodd"
     points="263.559,268.641 260.859,271.34 259.824,254.594     270.285,244.738 272.812,245.34 261.461,255.195   "
     id="polyline5387" /><path
     style="clip-rule:evenodd;fill:#cbb500;fill-rule:evenodd"
     d="m 274.91,246.836 c 8.82,-17.641 22.266,-7.785 22.266,-7.785 -4.047,7.328 -10.918,8.82 -10.918,8.82 13.594,-9.859 -0.891,-7.762 -0.891,-7.762 -5.226,1.039 -10.457,6.727 -10.457,6.727"
     id="path5389"
     inkscape:connector-curvature="0" /><path
     style="clip-rule:evenodd;fill:#cbb500;fill-rule:evenodd"
     d="m 284.766,243.535 c 1.953,-0.746 3.133,-2.078 2.844,-2.988 -0.309,-0.895 -2.098,-1.184 -4.047,-0.438 -1.93,0.746 -3.133,1.93 -2.824,2.988 0.292,0.895 2.077,1.184 4.027,0.438"
     id="path5391"
     inkscape:connector-curvature="0" /><polyline
     style="clip-rule:evenodd;fill:#aa9900;fill-rule:evenodd"
     points="274.449,230.254 299.852,215.312 300.309,212.613       "
     id="polyline5393" /><polyline
     style="clip-rule:evenodd;fill:#cbb500;fill-rule:evenodd"
     points="329.441,200.207 320.625,217.242 330.938,201.262       "
     id="polyline5395" /><polyline
     style="clip-rule:evenodd;fill:#cbb500;fill-rule:evenodd"
     points="279.078,215.312 282.234,225.605 280.574,213.215       "
     id="polyline5397" /><polyline
     style="clip-rule:evenodd;fill:#cbb500;fill-rule:evenodd"
     points="284.309,210.52 285.805,209.48 287.301,222.035       "
     id="polyline5399" /><polyline
     style="clip-rule:evenodd;fill:#808285;fill-rule:evenodd"
     points="286.859,207.988 296.117,203.359 294.625,202.758       "
     id="polyline5401" /><polyline
     style="clip-rule:evenodd;fill:#aa9900;fill-rule:evenodd"
     points="288.355,207.387 289.996,206.348 292.09,219.34       "
     id="polyline5403" /><polyline
     style="clip-rule:evenodd;fill:#aa9900;fill-rule:evenodd"
     points="296.117,203.359 297.754,215.75 294.188,204.398       "
     id="polyline5405" /><path
     style="clip-rule:evenodd;fill:#ffffff;fill-rule:evenodd"
     d="m 308.07,278.5 c 5.684,1.059 8.82,0 8.82,0 l -1.039,5.684 c -2.988,1.039 -4.648,0 -4.648,0 -12.988,26.438 -22.848,27.043 -22.848,27.043 C 311.203,288.355 308.07,278.5 308.07,278.5"
     id="path5407"
     inkscape:connector-curvature="0" /><path
     style="clip-rule:evenodd;fill:#ffffff;fill-rule:evenodd"
     d="m 286.258,304.5 c -19.129,16.582 -24.797,47.207 -24.797,47.207 L 260.859,341.25 C 278.5,297.176 286.258,304.5 286.258,304.5"
     id="path5409"
     inkscape:connector-curvature="0" /><path
     style="clip-rule:evenodd;fill:#aa9900;fill-rule:evenodd"
     d="m 282.234,385.93 c 18.676,-2.531 27.93,-10.918 27.93,-10.918 -7.18,14.504 -22.266,14.504 -22.266,14.504"
     id="path5411"
     inkscape:connector-curvature="0" /><path
     style="clip-rule:evenodd;fill:#928900;fill-rule:evenodd"
     d="m 308.07,378.602 c 1.637,10.914 -1.496,19.734 -1.496,19.734 l -17.328,-9.129 c 15.981,-2.531 18.824,-10.605 18.824,-10.605"
     id="path5413"
     inkscape:connector-curvature="0" /><path
     style="clip-rule:evenodd;fill:#aa9900;fill-rule:evenodd"
     d="m 307.633,201.262 c 6.121,8.82 7.16,17.039 7.16,17.039 l 2.695,-2.551 c -2.695,-8.82 -9.855,-14.488 -9.855,-14.488"
     id="path5415"
     inkscape:connector-curvature="0" /><path
     style="clip-rule:evenodd;fill:#cbb500;fill-rule:evenodd"
     d="m 317.926,244.281 c 5.688,13.445 -6.121,14.504 -6.121,14.504 16.582,1.039 6.121,-14.504 6.121,-14.504"
     id="path5417"
     inkscape:connector-curvature="0" /><path
     style="clip-rule:evenodd;fill:#aa9900;fill-rule:evenodd"
     d="m 355.883,221.438 c 8.211,8.816 11.348,24.336 11.348,24.336 3.594,-12.844 12.406,-18.074 12.406,-18.074 -8.812,3.133 -12.84,7.184 -12.84,7.184 -3.735,-10.775 -10.914,-13.446 -10.914,-13.446"
     id="path5419"
     inkscape:connector-curvature="0" /><path
     style="clip-rule:evenodd;fill:#ccbe00;fill-rule:evenodd"
     d="m 310.164,355.297 c 3.133,12.41 -4.625,17.641 -4.625,17.641 -8.363,4.172 -16.145,1.039 -16.145,1.039 11.953,-2.535 13.59,-4.629 13.59,-4.629 5.086,-2.7 7.18,-14.051 7.18,-14.051"
     id="path5421"
     inkscape:connector-curvature="0" /><path
     style="clip-rule:evenodd;fill:#cbb500;fill-rule:evenodd"
     d="m 248.453,384.891 c 17.641,-2.555 28.551,-12.41 28.551,-12.41 17.184,-14.648 16.125,-22.41 16.125,-22.41 -3.133,4.773 -7.324,7.762 -7.324,7.762 l -29.57,22.863"
     id="path5423"
     inkscape:connector-curvature="0" /><path
     style="clip-rule:evenodd;fill:#ffffff;fill-rule:evenodd"
     d="m 390.094,224.566 c 18.68,4.191 28.535,6.266 28.535,6.266 -7.762,6.145 -17.617,20.773 -17.617,20.773 11.957,11.348 18.074,-0.602 18.074,-0.602 35.254,29.59 59.77,29.137 59.77,29.137 -33.77,-15.691 -42.582,-25.98 -42.582,-25.98 16.121,6.723 20.168,1.035 20.168,1.035 -22.723,-8.816 -31.523,-23.902 -31.523,-23.902 13.449,3.59 25.402,9.855 25.402,9.855 -29.141,-26.437 -60.227,-16.582 -60.227,-16.582"
     id="path5425"
     inkscape:connector-curvature="0" /><path
     style="clip-rule:evenodd;fill:#ffec77;fill-rule:evenodd"
     d="m 297.176,369.348 -0.457,-5.688 c 9.855,-10.457 11.953,-21.809 11.953,-21.809 l 8.219,6.727 c -0.457,-14.488 5.832,-16.586 14.648,-18.223 8.801,-1.492 13.445,-2.555 13.445,-2.555 l -8.816,7.328 c 21.809,-2.094 24.793,-11.953 24.793,-11.953 1.641,12.406 -4.625,18.074 -9.254,20.773 -4.648,2.531 -11.949,2.094 -16.602,-1.059 -4.625,-3.133 -3.566,1.496 -3.129,4.043 0.457,2.68 -0.438,6.27 -4.629,8.824 -4.191,2.676 -16.582,-5.086 -16.582,-5.086 -3.73,9.256 -13.589,18.678 -13.589,18.678"
     id="path5427"
     inkscape:connector-curvature="0" /><polyline
     style="clip-rule:evenodd;fill:#ccbe00;fill-rule:evenodd"
     points="241.727,403.566 241.727,430.008 244.883,426.871     244.281,405.641   "
     id="polyline5429" /><path
     style="clip-rule:evenodd;fill:#cbb500;fill-rule:evenodd"
     d="m 245.316,402.965 c 6.289,-5.684 4.629,-16 4.629,-16 -1.929,7.781 -4.629,16 -4.629,16"
     id="path5431"
     inkscape:connector-curvature="0" /><path
     style="clip-rule:evenodd;fill:#c9aa03;fill-rule:evenodd"
     d="m 255.777,453.305 c 4.629,27.039 5.684,-14.484 5.684,-14.484 l -3.734,-0.457 c 1.039,9.863 -1.95,14.941 -1.95,14.941"
     id="path5433"
     inkscape:connector-curvature="0" /><polyline
     style="clip-rule:evenodd;fill:#ccbe00;fill-rule:evenodd"
     points="207.531,364.121 206.473,358.887 220.977,337.078     227.246,342.309   "
     id="polyline5435" /><path
     style="clip-rule:evenodd;fill:#ccbe00;fill-rule:evenodd"
     d="m 314.793,402.219 -8.82,-3.883 c 3.156,-10.312 1.66,-18.676 1.66,-18.676 l 2.074,-4.191 c 9.879,-5.082 13.016,-12.41 13.016,-12.41 8.961,7.781 15.684,30.34 15.684,30.34 -4.938,6.578 -12.699,14.336 -12.699,14.336"
     id="path5437"
     inkscape:connector-curvature="0" /><path
     style="clip-rule:evenodd;fill:#c9aa03;fill-rule:evenodd"
     d="m 403.086,232.328 c -15.086,10.914 -24.941,14.508 -24.941,14.508 4.188,21.352 -5.688,47.805 -5.688,47.805"
     id="path5439"
     inkscape:connector-curvature="0" /><path
     style="fill:none;stroke:#cbb500;stroke-width:1.04589999;stroke-linecap:square;stroke-miterlimit:2.61310005"
     d="m 406.68,260.426 c 59.16,45.113 67.98,20.168 67.98,20.168"
     id="path5441"
     inkscape:connector-curvature="0" /><path
     style="fill:none;stroke:#cbb500;stroke-width:1.04589999;stroke-linecap:square;stroke-miterlimit:2.61310005"
     d="m 396.824,269.68 c 54.992,42 69.473,17.641 69.473,17.641"
     id="path5443"
     inkscape:connector-curvature="0" /><path
     style="fill:none;stroke:#cbb500;stroke-width:1.04589999;stroke-linecap:square;stroke-miterlimit:2.61310005"
     d="m 397.855,281.633 c 56.484,33.184 58.129,13.008 58.129,13.008"
     id="path5445"
     inkscape:connector-curvature="0" /><path
     style="fill:none;stroke:#cbb500;stroke-width:1.04589999;stroke-linecap:square;stroke-miterlimit:2.61310005"
     d="m 393.688,288.355 c 41.09,28.098 53.473,13.012 53.473,13.012"
     id="path5447"
     inkscape:connector-curvature="0" /><path
     style="fill:none;stroke:#cbb500;stroke-width:1.04589999;stroke-linecap:square;stroke-miterlimit:2.61310005"
     d="m 396.824,302.859 c 43.035,19.277 44.676,2.098 44.676,2.098"
     id="path5449"
     inkscape:connector-curvature="0" /><path
     style="fill:none;stroke:#cbb500;stroke-width:1.04589999;stroke-linecap:square;stroke-miterlimit:2.61310005"
     d="m 388.461,311.68 c 42.582,16.582 44.676,0.582 44.676,0.582"
     id="path5451"
     inkscape:connector-curvature="0" /><path
     style="fill:none;stroke:#cbb500;stroke-width:1.04589999;stroke-linecap:square;stroke-miterlimit:2.61310005"
     d="m 388,323.176 c 27.5,7.18 37.809,-4.191 37.809,-4.191"
     id="path5453"
     inkscape:connector-curvature="0" /><path
     style="fill:none;stroke:#cbb500;stroke-width:1.04589999;stroke-linecap:square;stroke-miterlimit:2.61310005"
     d="m 384.414,328.262 c 25.398,9.398 30.047,-3.59 30.047,-3.59"
     id="path5455"
     inkscape:connector-curvature="0" /><path
     style="fill:none;stroke:#cbb500;stroke-width:1.04589999;stroke-linecap:square;stroke-miterlimit:2.61310005"
     d="m 374.699,341.25 c 19.281,2.098 24.656,-5.082 24.656,-5.082"
     id="path5457"
     inkscape:connector-curvature="0" /><path
     style="fill:none;stroke:#bcbec0;stroke-width:1.04589999;stroke-linecap:square;stroke-miterlimit:2.61310005"
     d="m 356.336,361.566 c 19.715,2.555 23.902,-12.535 23.902,-12.535"
     id="path5459"
     inkscape:connector-curvature="0" /><path
     style="fill:none;stroke:#cbb500;stroke-width:1.04589999;stroke-linecap:square;stroke-miterlimit:2.61310005"
     d="m 376.652,332.434 c 23.016,10.621 31.52,-1.496 31.52,-1.496"
     id="path5461"
     inkscape:connector-curvature="0" /><path
     style="fill:none;stroke:#cbb500;stroke-width:1.04589999;stroke-linecap:square;stroke-miterlimit:2.61310005"
     d="m 363.664,349.031 c 25.398,4.172 30.023,-8.215 30.023,-8.215"
     id="path5463"
     inkscape:connector-curvature="0" /><path
     style="clip-rule:evenodd;fill:#cbb500;fill-rule:evenodd"
     d="m 475.715,282.09 c 21.957,35.855 63.191,82.633 63.191,82.633 -56.777,-61.262 -64.246,-81.738 -64.246,-81.738"
     id="path5465"
     inkscape:connector-curvature="0" /><path
     style="clip-rule:evenodd;fill:#cbb500;fill-rule:evenodd"
     d="m 467.938,287.922 c 36.746,57.211 62.145,79.785 62.145,79.785 -18.816,-11.059 -63.496,-78.75 -63.496,-78.75"
     id="path5467"
     inkscape:connector-curvature="0" /><path
     style="clip-rule:evenodd;fill:#ccbe00;fill-rule:evenodd"
     d="m 348.555,367.707 c 13.445,-2.695 15.109,-19.129 15.109,-19.129 15.082,-2.699 12.988,-17.188 12.988,-17.188 17.637,-4.02 11.348,-19.129 11.348,-19.129 18.68,-11.496 4.629,-24.34 4.629,-24.34 10.625,-8.363 3.734,-18.531 3.734,-18.531 10.316,1.035 10.316,-10.004 10.316,-10.004 9.422,5.062 14.5,-2.098 14.5,-2.098 36.297,28.992 63.793,22.27 63.793,22.27 -25.398,6.266 -66.344,-28.988 -66.344,-28.988 -4.621,11.809 -16.578,2.094 -16.578,2.094 -1.64,17.016 -14.05,10.289 -14.05,10.289 8.824,16.148 -3.133,23.906 -3.133,23.906 14.488,13.906 -2.094,22.727 -2.094,22.727 4.195,19.711 -10.895,17.785 -10.895,17.785 1.641,14.938 -11.809,18.672 -11.809,18.672 -9.855,37.355 -38.988,10.293 -38.988,10.293 12.989,18.676 27.474,11.371 27.474,11.371"
     id="path5469"
     inkscape:connector-curvature="0" /><path
     style="clip-rule:evenodd;fill:#cbb500;fill-rule:evenodd"
     d="m 486.008,281.633 c -6.121,0.457 -10.293,0.457 -10.293,0.457 -2.695,5.23 -8.816,5.977 -8.816,5.977 -2.695,6.266 -8.672,7.012 -8.672,7.012 -3.594,7.781 -7.906,7.035 -7.906,7.035 -3.16,4.172 -8.387,5.23 -8.387,5.23 -2.074,5.664 -7.762,6.723 -7.762,6.723 -10.91,13.305 -17.637,11.641 -17.637,11.641 -1.785,4.938 -6.27,5.684 -6.27,5.684 -4.629,6.27 -9.855,6.727 -9.855,6.727 -2.242,3.734 -6.121,4.773 -6.121,4.773 -4.797,8.215 -10.457,7.18 -10.457,7.18 -5.688,9.855 -18.676,11.496 -18.676,11.496 14.031,-8.363 15.082,-12.535 15.082,-12.535 11.355,-4.645 13.449,-8.215 13.449,-8.215 5.23,-2.098 4.168,-4.648 4.168,-4.648 7.781,-2.078 10.316,-5.23 10.316,-5.23 4.797,-3.137 6.289,-6.266 6.289,-6.266 7.762,-2.535 11.348,-5.688 11.348,-5.688 5.836,-2.531 7.328,-6.723 7.328,-6.723 6.723,-3.133 8.363,-7.305 8.363,-7.305 5.66,-2.098 5.66,-3.59 5.66,-3.59 9.883,-3.59 8.824,-8.363 8.824,-8.363 7.781,-2.094 10.312,-5.684 10.312,-5.684 7.324,-3.137 8.363,-6.727 8.363,-6.727 6.289,0 9.566,-2.094 9.566,-2.094"
     id="path5471"
     inkscape:connector-curvature="0" /><path
     style="clip-rule:evenodd;fill:#cbb500;fill-rule:evenodd"
     d="m 458.227,295.078 c 32.266,56.344 59.016,73.523 59.016,73.523 -40.027,-38.246 -57.668,-74.27 -57.668,-74.27"
     id="path5473"
     inkscape:connector-curvature="0" /><path
     style="clip-rule:evenodd;fill:#cbb500;fill-rule:evenodd"
     d="m 450.754,301.055 c 33.012,50.367 58.871,70.824 58.871,70.824 -30.34,-21.953 -60.223,-70.078 -60.223,-70.078"
     id="path5475"
     inkscape:connector-curvature="0" /><path
     style="clip-rule:evenodd;fill:#cbb500;fill-rule:evenodd"
     d="m 441.934,307.344 c 38.098,52.145 53.641,62.004 53.641,62.004 -25.832,-18.242 -55.133,-61.566 -55.133,-61.566"
     id="path5477"
     inkscape:connector-curvature="0" /><path
     style="clip-rule:evenodd;fill:#cbb500;fill-rule:evenodd"
     d="m 434.172,314.066 c 28.242,38.391 51.402,55.719 51.402,55.719 C 445.527,337.078 432.828,314.5 432.828,314.5"
     id="path5479"
     inkscape:connector-curvature="0" /><path
     style="clip-rule:evenodd;fill:#cbb500;fill-rule:evenodd"
     d="m 427.449,320.043 c 27.184,36.75 46.609,50.051 46.609,50.051 -34.199,-26.453 -48.25,-49.012 -48.25,-49.012"
     id="path5481"
     inkscape:connector-curvature="0" /><path
     style="clip-rule:evenodd;fill:#cbb500;fill-rule:evenodd"
     d="m 418.629,325.273 c 20.48,30.773 42.73,45.113 42.73,45.113 -33.449,-23.16 -44.367,-44.68 -44.367,-44.68"
     id="path5483"
     inkscape:connector-curvature="0" /><path
     style="clip-rule:evenodd;fill:#cbb500;fill-rule:evenodd"
     d="m 410.266,331.391 c 22.562,29.887 37.957,38.703 37.957,38.703 -24.508,-17.324 -39.449,-37.805 -39.449,-37.805"
     id="path5485"
     inkscape:connector-curvature="0" /><path
     style="clip-rule:evenodd;fill:#cbb500;fill-rule:evenodd"
     d="m 401.762,337.078 c 21.812,24.199 31.668,31.961 31.668,31.961 -16.895,-12.992 -33.02,-30.922 -33.02,-30.922"
     id="path5487"
     inkscape:connector-curvature="0" /><path
     style="clip-rule:evenodd;fill:#cbb500;fill-rule:evenodd"
     d="m 393.688,342.891 c 12.242,14.195 26.293,24.816 26.293,24.816 -20.773,-14.793 -27.043,-24.066 -27.043,-24.066"
     id="path5489"
     inkscape:connector-curvature="0" /><path
     style="clip-rule:evenodd;fill:#cbb500;fill-rule:evenodd"
     d="m 384.414,349.324 c 11.367,10.457 20.172,15.832 20.172,15.832 -10.297,-5.23 -22.852,-15.543 -21.504,-15.832 0.75,-0.144 1.332,0 1.332,0"
     id="path5491"
     inkscape:connector-curvature="0" /><path
     style="clip-rule:evenodd;fill:#7d7fbd;fill-rule:evenodd"
     d="m 343.324,426.414 c -23.738,24.648 -18.676,40.48 -18.676,40.48 1.059,21.23 23.473,20.18 23.473,20.18 27.492,-4.176 18.074,-28.535 18.074,-28.535 -7.179,-19.117 -22.871,-32.125 -22.871,-32.125"
     id="path5493"
     inkscape:connector-curvature="0" /><path
     style="clip-rule:evenodd;fill:#aa9900;fill-rule:evenodd"
     d="m 314.355,385.93 c 7.762,10.168 14.031,7.18 14.031,7.18 3.59,-5.832 -5.23,-13.906 -5.23,-13.906 6.887,9.422 4.48,12.555 4.48,12.555 -3.734,2.679 -13.281,-5.829 -13.281,-5.829"
     id="path5495"
     inkscape:connector-curvature="0" /><path
     style="clip-rule:evenodd;fill:#aa9900;fill-rule:evenodd"
     d="m 322.723,379.203 c 11.203,14.652 20.164,10.461 20.164,10.461 6.125,-7.473 -7.469,-19.879 -7.469,-19.879 9.715,13.445 6.414,17.93 6.414,17.93 -5.375,3.902 -19.109,-8.512 -19.109,-8.512"
     id="path5497"
     inkscape:connector-curvature="0" /><path
     style="clip-rule:evenodd;fill:#aa9900;fill-rule:evenodd"
     d="m 335.566,369.348 c 7.758,10.145 14.047,7.16 14.047,7.16 3.594,-5.809 -3.133,-10.461 -3.133,-10.461 5.664,7.328 2.387,9.133 2.387,9.133 -3.734,2.82 -13.301,-5.832 -13.301,-5.832"
     id="path5499"
     inkscape:connector-curvature="0" /><path
     style="clip-rule:evenodd;fill:#aa9900;fill-rule:evenodd"
     d="m 348.555,366.504 c 7.93,10.168 14.195,7.324 14.195,7.324 3.445,-5.973 -2.531,-9.418 -2.531,-9.418 4.938,7.469 1.031,8.363 1.031,8.363 -3.727,2.844 -12.695,-6.269 -12.695,-6.269"
     id="path5501"
     inkscape:connector-curvature="0" /><path
     style="clip-rule:evenodd;fill:#aa9900;fill-rule:evenodd"
     d="m 350.047,378.312 c 11.203,14.48 20.168,10.312 20.168,10.312 5.98,-7.469 -7.613,-19.879 -7.613,-19.879 9.855,13.445 6.434,17.93 6.434,17.93 -5.231,3.88 -18.989,-8.363 -18.989,-8.363"
     id="path5503"
     inkscape:connector-curvature="0" /><path
     style="clip-rule:evenodd;fill:#aa9900;fill-rule:evenodd"
     d="m 345.277,405.953 c 8.07,12.094 15.23,9.254 15.23,9.254 5.23,-5.52 -4.918,-16.125 -4.918,-16.125 7.012,11.043 4.168,14.488 4.168,14.488 -4.316,2.84 -14.48,-7.617 -14.48,-7.617"
     id="path5505"
     inkscape:connector-curvature="0" /><path
     style="clip-rule:evenodd;fill:#aa9900;fill-rule:evenodd"
     d="m 354.988,398.629 c 8.074,12.098 15.395,9.254 15.395,9.254 5.23,-5.52 -4.938,-16.125 -4.938,-16.125 7.012,11.207 4.188,14.484 4.188,14.484 -4.477,2.844 -14.645,-7.613 -14.645,-7.613"
     id="path5507"
     inkscape:connector-curvature="0" /><path
     style="clip-rule:evenodd;fill:#aa9900;fill-rule:evenodd"
     d="m 363.664,388.457 c 8.051,11.953 15.375,9.133 15.375,9.133 5.086,-5.539 -4.918,-16 -4.918,-16 7.012,11.062 4.172,14.508 4.172,14.508 -4.484,2.675 -14.629,-7.641 -14.629,-7.641"
     id="path5509"
     inkscape:connector-curvature="0" /><path
     style="clip-rule:evenodd;fill:#aa9900;fill-rule:evenodd"
     d="m 331.227,398.629 c 9.566,12.406 17.184,8.816 17.184,8.816 5.082,-6.434 -6.414,-16.891 -6.414,-16.891 8.363,11.352 5.379,15.254 5.379,15.254 -4.489,3.278 -16.149,-7.179 -16.149,-7.179"
     id="path5511"
     inkscape:connector-curvature="0" /><path
     style="clip-rule:evenodd;fill:#c9aa03;fill-rule:evenodd"
     d="m 343.324,426.414 c -7.758,-10.461 -10.602,-11.207 -10.602,-11.207 -45.113,62.754 3.445,69.785 3.445,69.785 -30.628,-20.172 7.157,-58.578 7.157,-58.578"
     id="path5513"
     inkscape:connector-curvature="0" /><path
     style="clip-rule:evenodd;fill:#aa9900;fill-rule:evenodd"
     d="m 350.359,419.398 c 8.074,12.102 15.379,9.258 15.379,9.258 5.227,-5.523 -4.918,-16.125 -4.918,-16.125 7.012,11.203 4.168,14.484 4.168,14.484 -4.48,2.844 -14.629,-7.617 -14.629,-7.617"
     id="path5515"
     inkscape:connector-curvature="0" /><path
     style="clip-rule:evenodd;fill:#aa9900;fill-rule:evenodd"
     d="m 360.82,411.617 c 8.07,12.117 15.23,9.273 15.23,9.273 5.23,-5.539 -4.918,-16.141 -4.918,-16.141 7.012,11.059 4.168,14.504 4.168,14.504 -4.335,2.825 -14.48,-7.636 -14.48,-7.636"
     id="path5517"
     inkscape:connector-curvature="0" /><path
     style="clip-rule:evenodd;fill:#aa9900;fill-rule:evenodd"
     d="m 370.383,402.363 c 8.055,12.098 15.375,9.254 15.375,9.254 5.23,-5.52 -4.918,-16.121 -4.918,-16.121 7.02,11.203 4.176,14.484 4.176,14.484 -4.336,2.844 -14.633,-7.617 -14.633,-7.617"
     id="path5519"
     inkscape:connector-curvature="0" /><path
     style="clip-rule:evenodd;fill:#aa9900;fill-rule:evenodd"
     d="m 355.734,431.039 c 6.867,12.863 14.34,10.77 14.34,10.77 5.688,-4.938 -3.137,-16.434 -3.137,-16.434 5.832,11.805 2.535,14.797 2.535,14.797 -4.628,2.387 -13.738,-9.133 -13.738,-9.133"
     id="path5521"
     inkscape:connector-curvature="0" /><path
     style="clip-rule:evenodd;fill:#aa9900;fill-rule:evenodd"
     d="m 367.539,423.879 c 6.723,12.848 14.195,10.75 14.195,10.75 5.664,-4.918 -3.129,-16.434 -3.129,-16.434 5.809,11.812 2.527,14.797 2.527,14.797 -4.628,2.387 -13.593,-9.113 -13.593,-9.113"
     id="path5523"
     inkscape:connector-curvature="0" /><path
     style="clip-rule:evenodd;fill:#aa9900;fill-rule:evenodd"
     d="m 377.543,416.27 c 6.723,12.84 14.195,10.746 14.195,10.746 5.828,-4.938 -3.137,-16.582 -3.137,-16.582 5.832,11.809 2.535,14.941 2.535,14.941 -4.628,2.242 -13.593,-9.105 -13.593,-9.105"
     id="path5525"
     inkscape:connector-curvature="0" /><path
     style="clip-rule:evenodd;fill:#aa9900;fill-rule:evenodd"
     d="m 364.988,441.207 c 7.93,16.582 17.492,14.34 17.492,14.34 7.473,-6.121 -3.293,-21.062 -3.293,-21.062 6.887,15.086 2.695,18.82 2.695,18.82 -6.12,2.703 -16.894,-12.098 -16.894,-12.098"
     id="path5527"
     inkscape:connector-curvature="0" /><path
     style="clip-rule:evenodd;fill:#aa9900;fill-rule:evenodd"
     d="m 378.891,433.883 c 8.078,16.578 17.641,14.344 17.641,14.344 7.473,-5.98 -3.301,-21.066 -3.301,-21.066 6.867,15.25 2.551,18.824 2.551,18.824 -5.97,2.843 -16.891,-12.102 -16.891,-12.102"
     id="path5529"
     inkscape:connector-curvature="0" /><path
     style="clip-rule:evenodd;fill:#aa9900;fill-rule:evenodd"
     d="m 369.633,456.438 c 2.395,11.668 8.66,11.668 8.66,11.668 5.539,-2.703 1.203,-13.598 1.203,-13.598 1.926,10.461 -1.203,12.098 -1.203,12.098 -4.172,0.749 -8.66,-10.168 -8.66,-10.168"
     id="path5531"
     inkscape:connector-curvature="0" /><path
     style="clip-rule:evenodd;fill:#aa9900;fill-rule:evenodd"
     d="m 379.039,454.195 c 4.336,11.066 10.453,10.023 10.453,10.023 5.09,-3.441 -1.031,-13.59 -1.031,-13.59 3.586,10.004 0.742,12.242 0.742,12.242 -3.875,1.501 -10.164,-8.675 -10.164,-8.675"
     id="path5533"
     inkscape:connector-curvature="0" /><path
     style="clip-rule:evenodd;fill:#aa9900;fill-rule:evenodd"
     d="m 388.148,449.277 c 3.445,11.207 9.707,10.754 9.707,10.754 5.23,-3.133 -0.141,-13.598 -0.141,-13.598 2.984,10.176 0,12.105 0,12.105 -4.175,1.204 -9.566,-9.261 -9.566,-9.261"
     id="path5535"
     inkscape:connector-curvature="0" /><path
     style="clip-rule:evenodd;fill:#aa9900;fill-rule:evenodd"
     d="m 370.215,467.812 c 0.75,11.781 7.039,12.699 7.039,12.699 5.828,-1.809 2.984,-13.297 2.984,-13.297 0.441,10.598 -2.844,11.805 -2.844,11.805 -4.335,0.286 -7.179,-11.207 -7.179,-11.207"
     id="path5537"
     inkscape:connector-curvature="0" /><path
     style="clip-rule:evenodd;fill:#aa9900;fill-rule:evenodd"
     d="m 380.531,466.605 c 0.891,11.664 7.18,12.699 7.18,12.699 5.828,-1.785 2.992,-13.301 2.992,-13.301 0.434,10.605 -2.992,11.809 -2.992,11.809 -4.188,0.149 -7.18,-11.207 -7.18,-11.207"
     id="path5539"
     inkscape:connector-curvature="0" /><path
     style="clip-rule:evenodd;fill:#aa9900;fill-rule:evenodd"
     d="m 390.555,465.262 c 0.75,11.809 7.012,12.699 7.012,12.699 5.836,-1.785 2.992,-13.141 2.992,-13.141 0.453,10.605 -2.844,11.789 -2.844,11.789 -4.336,0.168 -7.16,-11.347 -7.16,-11.347"
     id="path5541"
     inkscape:connector-curvature="0" /><path
     style="clip-rule:evenodd;fill:#aa9900;fill-rule:evenodd"
     d="m 367.832,476.469 -0.145,12.551 c 0,8.07 5.082,1.949 5.082,1.949 l 6.578,-12.117 -7.633,10.625 c -1.5,3.137 -2.391,-0.602 -2.391,-0.602"
     id="path5543"
     inkscape:connector-curvature="0" /><path
     style="clip-rule:evenodd;fill:#aa9900;fill-rule:evenodd"
     d="m 378.145,478.703 1.953,12.41 c 1.492,7.91 5.379,0.898 5.379,0.898 l 4.336,-12.992 -5.547,11.781 c -0.891,3.445 -2.383,-0.141 -2.383,-0.141"
     id="path5545"
     inkscape:connector-curvature="0" /><path
     style="clip-rule:evenodd;fill:#aa9900;fill-rule:evenodd"
     d="m 389.812,478.852 1.633,12.41 c 1.352,7.922 5.379,1.031 5.379,1.031 l 4.625,-12.988 -5.828,11.664 c -1.039,3.426 -2.391,-0.168 -2.391,-0.168"
     id="path5547"
     inkscape:connector-curvature="0" /><path
     style="clip-rule:evenodd;fill:#cbb500;fill-rule:evenodd"
     d="m 368.891,369.348 c 32.559,43.762 33.621,92.777 33.621,92.777 0,-63.207 -33.621,-96.512 -33.621,-96.512"
     id="path5549"
     inkscape:connector-curvature="0" /><path
     style="clip-rule:evenodd;fill:#928900;fill-rule:evenodd"
     d="m 354.238,437.762 c -23.613,-27.184 -44.074,-37.352 -44.074,-37.352 32.414,4.195 44.074,37.352 44.074,37.352"
     id="path5551"
     inkscape:connector-curvature="0" /><path
     style="clip-rule:evenodd;fill:#cbb500;fill-rule:evenodd"
     d="m 479.887,281.633 c 19.738,31.086 35.715,47.664 35.715,47.664 -19.137,-26.438 -33.16,-48.246 -33.16,-48.246"
     id="path5553"
     inkscape:connector-curvature="0" /><path
     style="clip-rule:evenodd;fill:#cbb500;fill-rule:evenodd"
     d="m 471.074,286.281 c 8.211,18.363 36.016,49.887 36.016,49.887 -21.082,-29.574 -34.82,-50.637 -34.82,-50.637"
     id="path5555"
     inkscape:connector-curvature="0" /><path
     style="clip-rule:evenodd;fill:#cbb500;fill-rule:evenodd"
     d="m 464.516,291.512 c 16.121,28.969 37.035,53.477 37.035,53.477 -15.543,-12.246 -39.137,-52.73 -39.137,-52.73"
     id="path5557"
     inkscape:connector-curvature="0" /><path
     style="clip-rule:evenodd;fill:#cbb500;fill-rule:evenodd"
     d="m 454.633,299.73 c 18.988,30.914 36.172,48.102 36.172,48.102 -26,-33.766 -34.512,-50.055 -34.512,-50.055"
     id="path5559"
     inkscape:connector-curvature="0" /><path
     style="clip-rule:evenodd;fill:#cbb500;fill-rule:evenodd"
     d="m 447.477,303.898 c 20.461,31.684 34.652,46.461 34.652,46.461 -23.301,-22.988 -36.293,-45.715 -36.293,-45.715"
     id="path5561"
     inkscape:connector-curvature="0" /><path
     style="clip-rule:evenodd;fill:#cbb500;fill-rule:evenodd"
     d="m 438.797,311.227 c 3.742,9.562 35.574,42.723 35.574,42.723 -23.906,-19.715 -37.668,-41.977 -37.668,-41.977"
     id="path5563"
     inkscape:connector-curvature="0" /><path
     style="clip-rule:evenodd;fill:#cbb500;fill-rule:evenodd"
     d="m 430.727,317.199 c 18.246,23.617 32.289,37.062 32.289,37.062 -20.332,-16.289 -33.18,-36.023 -33.18,-36.023"
     id="path5565"
     inkscape:connector-curvature="0" /><path
     style="clip-rule:evenodd;fill:#ffffff;fill-rule:evenodd"
     d="m 321.371,411.617 c -18.965,32.121 -17.93,57.23 -13.445,68.438 4.336,11.207 2.84,16.293 -3.445,13.738 -6.266,-2.531 -6.727,-6.418 -6.727,-6.418 -7.613,-33.469 6.727,-53.492 6.727,-53.492 6.285,-11.641 16.89,-22.266 16.89,-22.266"
     id="path5567"
     inkscape:connector-curvature="0" /><path
     style="fill:none;stroke:#928900;stroke-width:1.04589999;stroke-miterlimit:2.61310005"
     d="m 368.289,491.715 c -16.582,23.305 -38.41,28.531 -38.41,28.531"
     id="path5569"
     inkscape:connector-curvature="0" /><path
     style="fill:none;stroke:#928900;stroke-width:1.04589999;stroke-miterlimit:2.61310005"
     d="m 381.734,494.855 c -9.277,18.215 -28.527,28.07 -28.527,28.07"
     id="path5571"
     inkscape:connector-curvature="0" /><path
     style="fill:none;stroke:#928900;stroke-width:1.04589999;stroke-miterlimit:2.61310005"
     d="m 355.281,485.574 c -9.859,19.137 -41.527,26.891 -41.527,26.891"
     id="path5573"
     inkscape:connector-curvature="0" /><path
     style="fill:none;stroke:#928900;stroke-width:1.04589999;stroke-miterlimit:2.61310005"
     d="m 327.348,476.176 c -14.051,9.398 -30.172,8.363 -30.172,8.363"
     id="path5575"
     inkscape:connector-curvature="0" /><path
     style="fill:none;stroke:#928900;stroke-width:1.04589999;stroke-miterlimit:2.61310005"
     d="m 360.961,482.148 c 8.074,26.75 18.676,33.16 18.676,33.16"
     id="path5577"
     inkscape:connector-curvature="0" /><path
     style="fill:none;stroke:#928900;stroke-width:1.04589999;stroke-miterlimit:2.61310005"
     d="m 375.613,486.484 c 7.16,16.434 14.199,19.258 14.199,19.258"
     id="path5579"
     inkscape:connector-curvature="0" /><path
     style="fill:none;stroke:#928900;stroke-width:1.04589999;stroke-miterlimit:2.61310005"
     d="m 350.215,486.484 c 2.531,18.969 13.879,35.551 13.879,35.551"
     id="path5581"
     inkscape:connector-curvature="0" /><path
     style="fill:none;stroke:#928900;stroke-width:1.04589999;stroke-miterlimit:2.61310005"
     d="m 337.66,485.574 c 1.348,19.426 10.895,37.812 10.895,37.812"
     id="path5583"
     inkscape:connector-curvature="0" /><path
     style="fill:none;stroke:#928900;stroke-width:1.04589999;stroke-miterlimit:2.61310005"
     d="m 328.094,477.52 c -5.688,24.801 3.133,42.414 3.133,42.414"
     id="path5585"
     inkscape:connector-curvature="0" /><path
     style="fill:none;stroke:#928900;stroke-width:1.04589999;stroke-miterlimit:2.61310005"
     d="m 339.445,486.031 c -14.195,10.918 -35.711,14.484 -35.711,14.484"
     id="path5587"
     inkscape:connector-curvature="0" /><path
     style="fill:none;stroke:#928900;stroke-width:1.04589999;stroke-miterlimit:2.61310005"
     d="m 324.648,465.262 c -17.18,7.613 -28.965,4.625 -28.965,4.625 12.387,-26.148 33.906,-26.438 33.906,-26.438"
     id="path5589"
     inkscape:connector-curvature="0" /><path
     style="fill:none;stroke:#928900;stroke-width:1.04589999;stroke-miterlimit:2.61310005"
     d="m 324.504,469.738 c 0,0 -14.797,6.438 -14.051,39.16"
     id="path5591"
     inkscape:connector-curvature="0" /><path
     style="fill:none;stroke:#928900;stroke-width:1.04589999;stroke-miterlimit:2.61310005"
     d="m 297.176,454.656 c 9.398,4.625 28.82,-0.602 28.82,-0.602"
     id="path5593"
     inkscape:connector-curvature="0" /><path
     style="fill:none;stroke:#928900;stroke-width:1.04589999;stroke-miterlimit:2.61310005"
     d="m 301.945,440.172 c 8.508,6.723 26.605,6.41 26.605,6.41"
     id="path5595"
     inkscape:connector-curvature="0" /><path
     style="fill:none;stroke:#928900;stroke-width:1.04589999;stroke-miterlimit:2.61310005"
     d="m 309.875,425.812 c 9.711,12.262 24.195,12.551 24.195,12.551"
     id="path5597"
     inkscape:connector-curvature="0" /><path
     style="fill:none;stroke:#928900;stroke-width:1.04589999;stroke-miterlimit:2.61310005"
     d="m 320.77,412.676 c 5.227,13.738 19.277,17.613 19.277,17.613"
     id="path5599"
     inkscape:connector-curvature="0" /><path
     style="fill:none;stroke:#928900;stroke-width:1.04589999;stroke-miterlimit:2.61310005"
     d="m 298.066,488.418 c 10.75,-28.387 27.641,-32.27 27.641,-32.27"
     id="path5601"
     inkscape:connector-curvature="0" /><path
     style="fill:none;stroke:#928900;stroke-width:1.04589999;stroke-miterlimit:2.61310005"
     d="m 299.852,443.738 c 23.617,-16.867 35.254,-6.719 35.254,-6.719"
     id="path5603"
     inkscape:connector-curvature="0" /><path
     style="fill:none;stroke:#928900;stroke-width:1.04589999;stroke-miterlimit:2.61310005"
     d="m 307.633,428.656 c 25.09,-9.258 34.656,-3.281 34.656,-3.281"
     id="path5605"
     inkscape:connector-curvature="0" /><path
     style="fill:none;stroke:#928900;stroke-width:1.04589999;stroke-miterlimit:2.61310005"
     d="m 316.434,417.012 c 10.914,-3.902 14.191,-2.84 14.191,-2.84"
     id="path5607"
     inkscape:connector-curvature="0" /><path
     style="clip-rule:evenodd;fill:#ffef96;fill-rule:evenodd"
     d="m 392.195,369.348 -0.602,20.773 c 8.363,-9.133 16.145,-7.637 16.145,-7.637 -6.289,-9.855 -15.543,-13.136 -15.543,-13.136"
     id="path5609"
     inkscape:connector-curvature="0" /><path
     style="clip-rule:evenodd;fill:#ffef96;fill-rule:evenodd"
     d="m 393.379,390.266 c 17.488,-6.125 29.133,16.434 29.133,16.434 -9.543,-2.094 -18.219,3.879 -18.219,3.879 6.574,-7.758 11.809,-7.613 11.809,-7.613 -6.579,-10.025 -22.723,-12.7 -22.723,-12.7"
     id="path5611"
     inkscape:connector-curvature="0" /><path
     style="clip-rule:evenodd;fill:#ffffff;fill-rule:evenodd"
     d="m 334.816,401.473 c 8.07,8.359 12.41,4.48 12.41,4.48 -6.14,-1.348 -12.41,-4.48 -12.41,-4.48"
     id="path5613"
     inkscape:connector-curvature="0" /><path
     style="clip-rule:evenodd;fill:#ffffff;fill-rule:evenodd"
     d="m 317.781,388.457 c 6.434,6.727 10.023,3.594 10.023,3.594 -5.081,-1.039 -10.023,-3.594 -10.023,-3.594"
     id="path5615"
     inkscape:connector-curvature="0" /><path
     style="clip-rule:evenodd;fill:#ffffff;fill-rule:evenodd"
     d="m 328.84,383.398 c 8.074,8.219 12.555,4.316 12.555,4.316 -6.29,-1.331 -12.555,-4.316 -12.555,-4.316"
     id="path5617"
     inkscape:connector-curvature="0" /><path
     style="clip-rule:evenodd;fill:#ffffff;fill-rule:evenodd"
     d="m 356.336,382.336 c 8.07,8.219 12.555,4.34 12.555,4.34 -6.289,-1.348 -12.555,-4.34 -12.555,-4.34"
     id="path5619"
     inkscape:connector-curvature="0" /><path
     style="clip-rule:evenodd;fill:#ffffff;fill-rule:evenodd"
     d="m 339.297,371.441 c 6.434,6.559 10.004,3.426 10.004,3.426 -5.063,-1.039 -10.004,-3.426 -10.004,-3.426"
     id="path5621"
     inkscape:connector-curvature="0" /><path
     style="clip-rule:evenodd;fill:#ffffff;fill-rule:evenodd"
     d="m 352.598,369.348 c 6.418,6.578 9.855,3.426 9.855,3.426 -4.93,-1.04 -9.855,-3.426 -9.855,-3.426"
     id="path5623"
     inkscape:connector-curvature="0" /><path
     style="clip-rule:evenodd;fill:#ffffff;fill-rule:evenodd"
     d="m 348.555,408.793 c 8.07,8.219 12.406,4.316 12.406,4.316 -6.121,-1.328 -12.406,-4.316 -12.406,-4.316"
     id="path5625"
     inkscape:connector-curvature="0" /><path
     style="clip-rule:evenodd;fill:#ffffff;fill-rule:evenodd"
     d="m 358.434,401.473 c 8.047,8.359 12.391,4.48 12.391,4.48 -6.13,-1.348 -12.391,-4.48 -12.391,-4.48"
     id="path5627"
     inkscape:connector-curvature="0" /><path
     style="clip-rule:evenodd;fill:#ffffff;fill-rule:evenodd"
     d="m 363.953,414.172 c 7.926,8.359 12.41,4.48 12.41,4.48 -6.289,-1.347 -12.41,-4.48 -12.41,-4.48"
     id="path5629"
     inkscape:connector-curvature="0" /><path
     style="clip-rule:evenodd;fill:#ffffff;fill-rule:evenodd"
     d="m 353.207,421.93 c 8.043,8.359 12.531,4.484 12.531,4.484 -6.269,-1.348 -12.531,-4.484 -12.531,-4.484"
     id="path5631"
     inkscape:connector-curvature="0" /><path
     style="clip-rule:evenodd;fill:#ffffff;fill-rule:evenodd"
     d="m 358.266,433.734 c 6.891,9.254 11.809,5.98 11.809,5.98 -5.981,-2.093 -11.809,-5.98 -11.809,-5.98"
     id="path5633"
     inkscape:connector-curvature="0" /><path
     style="clip-rule:evenodd;fill:#ffffff;fill-rule:evenodd"
     d="m 370.074,426.414 c 6.867,9.422 11.66,6.121 11.66,6.121 -5.972,-2.074 -11.66,-6.121 -11.66,-6.121"
     id="path5635"
     inkscape:connector-curvature="0" /><path
     style="clip-rule:evenodd;fill:#ffffff;fill-rule:evenodd"
     d="m 383.832,439.715 c 6.871,9.254 11.641,5.977 11.641,5.977 -5.981,-2.094 -11.641,-5.977 -11.641,-5.977"
     id="path5637"
     inkscape:connector-curvature="0" /><path
     style="clip-rule:evenodd;fill:#ffffff;fill-rule:evenodd"
     d="m 369.934,446.727 c 7.172,9.711 12.398,6.289 12.398,6.289 -6.43,-2.243 -12.398,-6.289 -12.398,-6.289"
     id="path5639"
     inkscape:connector-curvature="0" /><path
     style="clip-rule:evenodd;fill:#cbb500;fill-rule:evenodd"
     d="m 417.887,260.426 c 17.637,16.289 44.816,21.953 44.816,21.953 -24.047,-2.238 -46.602,-21.496 -46.602,-21.496"
     id="path5641"
     inkscape:connector-curvature="0" /><path
     style="clip-rule:evenodd;fill:#cbb500;fill-rule:evenodd"
     d="m 404.895,265.508 c 16.578,15.832 42.727,23.449 42.727,23.449 -22.266,-4.773 -44.367,-22.098 -44.367,-22.098"
     id="path5643"
     inkscape:connector-curvature="0" /><path
     style="clip-rule:evenodd;fill:#cbb500;fill-rule:evenodd"
     d="m 398.316,275.656 c 13.738,11.371 36.895,18.984 36.895,18.984 -9.113,-0.309 -37.043,-17.18 -37.043,-17.18"
     id="path5645"
     inkscape:connector-curvature="0" /><path
     style="clip-rule:evenodd;fill:#cbb500;fill-rule:evenodd"
     d="m 396.363,283.73 c 21.523,13.445 32.125,16.578 32.125,16.578 -22.852,-8.508 -33.016,-15.832 -33.016,-15.832"
     id="path5647"
     inkscape:connector-curvature="0" /><path
     style="clip-rule:evenodd;fill:#cbb500;fill-rule:evenodd"
     d="m 397.113,296.137 c 7.473,7.617 28.242,11.207 28.242,11.207 -12.988,-0.605 -28.242,-9.566 -28.242,-9.566"
     id="path5649"
     inkscape:connector-curvature="0" /><path
     style="clip-rule:evenodd;fill:#cbb500;fill-rule:evenodd"
     d="m 394.289,306.285 c 9.547,6.289 25.691,8.215 25.691,8.215 -17.789,-1.492 -26.293,-7.762 -26.293,-7.762"
     id="path5651"
     inkscape:connector-curvature="0" /><path
     style="clip-rule:evenodd;fill:#cbb500;fill-rule:evenodd"
     d="m 388.461,316.164 c 4.77,4.172 21.805,5.227 21.805,5.227 -8.504,1.184 -21.516,-3.734 -21.516,-3.734"
     id="path5653"
     inkscape:connector-curvature="0" /><polyline
     style="clip-rule:evenodd;fill:#cbb500;fill-rule:evenodd"
     points="338.262,205.145 325.25,219.629 339.758,206.184       "
     id="polyline5655" /><polyline
     style="clip-rule:evenodd;fill:#cbb500;fill-rule:evenodd"
     points="317.18,215.457 318.672,200.66 316.891,200.953       "
     id="polyline5657" /><polyline
     style="clip-rule:evenodd;fill:#cbb500;fill-rule:evenodd"
     points="329.441,223.074 346.77,211.578 348.121,213.215       "
     id="polyline5659" /><polyline
     style="clip-rule:evenodd;fill:#cbb500;fill-rule:evenodd"
     points="335.105,226.664 356.336,222.473 359.016,224.566       "
     id="polyline5661" /><polyline
     style="clip-rule:evenodd;fill:#cbb500;fill-rule:evenodd"
     points="340.793,232.93 363.664,233.387 364.094,235.918       "
     id="polyline5663" /><polyline
     style="clip-rule:evenodd;fill:#cbb500;fill-rule:evenodd"
     points="347.516,240.109 367.23,245.34 366.195,247.434       "
     id="polyline5665" /><polyline
     style="clip-rule:evenodd;fill:#cbb500;fill-rule:evenodd"
     points="352.145,249.508 365.156,255.195 365.156,257.727       "
     id="polyline5667" /><polyline
     style="clip-rule:evenodd;fill:#cbb500;fill-rule:evenodd"
     points="355.883,262.379 364.094,266.109 364.094,268.641     355.883,261.918   "
     id="polyline5669" /><polyline
     style="clip-rule:evenodd;fill:#cbb500;fill-rule:evenodd"
     points="356.934,273.27 364.695,277.004 365.738,280.141       "
     id="polyline5671" /><polyline
     style="clip-rule:evenodd;fill:#cbb500;fill-rule:evenodd"
     points="356.336,282.09 366.195,289.414 366.195,291.945       "
     id="polyline5673" /><polyline
     style="clip-rule:evenodd;fill:#cbb500;fill-rule:evenodd"
     points="354.238,290.016 365.156,299.27 364.695,301.801       "
     id="polyline5675" /><polyline
     style="clip-rule:evenodd;fill:#cbb500;fill-rule:evenodd"
     points="350.652,298.23 362,309.586 360.07,311.227   "
     id="polyline5677" /><path
     style="clip-rule:evenodd;fill:#cbb500;fill-rule:evenodd"
     d="m 375.613,356.793 c 13.449,6.266 24.797,11.496 24.797,11.496 -17.637,-6.266 -26.891,-10.457 -26.891,-10.457"
     id="path5683"
     inkscape:connector-curvature="0" /><path
     style="clip-rule:evenodd;fill:#ffffff;fill-rule:evenodd"
     d="m 379.637,227.699 c -17.637,16 -7.758,68.438 -10.746,76.801 -10.164,27.039 -47.809,22.266 -47.809,22.266 -5.23,0.605 -10.316,12.387 -10.316,12.387 2.098,-14.48 13.883,-15.977 13.883,-15.977 18.238,2.098 38.414,-12.555 40.047,-21.809 1.5,-9.422 -2.695,-36.316 0.461,-50.797 3.132,-14.652 14.48,-22.871 14.48,-22.871"
     id="path5685"
     inkscape:connector-curvature="0" /><path
     style="clip-rule:evenodd;fill:#cbb500;fill-rule:evenodd"
     d="m 337.66,233.387 c 14.484,39.445 8.82,74.703 8.82,74.703 19.258,-54.992 -8.82,-74.703 -8.82,-74.703"
     id="path5687"
     inkscape:connector-curvature="0" /><path
     style="clip-rule:evenodd;fill:#aa9900;fill-rule:evenodd"
     d="m 324.215,258.328 c -2.098,11.352 -3.59,15.543 -3.59,15.543 -0.602,-9.422 -0.602,-8.82 -0.602,-8.82 3.59,-3.59 4.192,-6.723 4.192,-6.723"
     id="path5915"
     inkscape:connector-curvature="0" /><path
     style="clip-rule:evenodd;fill:#cbb500;fill-rule:evenodd"
     d="m 320.625,274.328 c -7.762,2.676 -15.086,3.734 -15.086,3.734 9.254,-4.793 13.445,-9.875 13.445,-9.875 3.133,3.153 1.641,6.141 1.641,6.141"
     id="path5917"
     inkscape:connector-curvature="0" /></svg>