<svg width="183" height="75" viewBox="0 0 183 75" xmlns="http://www.w3.org/2000/svg"><title>sesame_street_logo</title><g fill="none" fill-rule="evenodd"><path d="M66.36 22.649H10.995C7.136 22.649 4 25.794 4 29.62V59.03C4 62.887 7.136 66 10.996 66h158.008c3.86 0 6.996-3.113 6.996-6.971V29.62c0-3.826-3.136-6.971-6.996-6.971h-55.243C111.711 11.43 101.58 3 90.121 3c-11.46 0-21.712 8.43-23.762 19.649" fill="#1B1A19"/><path d="M5 58.75V29.675c0-3.43 2.883-6.219 6.367-6.219l55.746-.032v-.256C69.035 12.239 78.887 4 90.18 4c11.174 0 21.025 8.238 22.948 19.169l.12.256 55.505.032A6.214 6.214 0 0 1 175 29.676v29.073A6.22 6.22 0 0 1 168.753 65H11.367C7.883 65 5 62.212 5 58.75" fill="#FCE21C"/><path d="M71 21.54c0 1.206.978 1.46 1.344 1.46h35.312c.366 0 1.344-.254 1.344-1.397v-.064C107.411 13.38 99.103 7 90.061 7 80.897 7 72.59 13.38 71 21.54" fill="#1B1A19"/><path d="M72.738 23c-.246 0-.738-.064-.738-.776C73.598 14.272 81.711 8 90.562 8c8.727 0 16.84 6.24 18.438 14.224 0 .712-.614.776-.737.776" fill="#009D68"/><path d="M11.615 27C9.567 27 8 28.61 8 30.58v28.807C8 61.39 9.567 63 11.615 63h156.77c2.049 0 3.615-1.61 3.615-3.613V30.58c0-1.972-1.566-3.581-3.615-3.581" fill="#1B1A19"/><path d="M9 59.106v-28.21C9 29.318 10.207 28 11.898 28h157.084c1.69 0 3.018 1.319 3.018 2.895v28.21c0 1.609-1.328 2.895-3.018 2.895H11.898C10.207 62 9 60.714 9 59.106" fill="#009D68"/><path d="M19.625 57C16 57 14.375 54.562 14 50.465l3.875-.65c.25 2.926.874 3.641 1.75 3.641 1 0 1.375-.617 1.375-2.178 0-2.308-.75-3.38-3-5.787-2.5-2.503-3.75-4.779-3.75-7.574C14.25 34.536 16 32 19.375 32c3.5 0 5 2.308 5.375 5.852l-3.75.78c-.25-2.406-.75-3.12-1.625-3.12-.876 0-1.25.583-1.25 2.112 0 1.69.624 2.699 2.625 4.746C23.625 45.2 25 47.637 25 50.953 25 54.497 23 57 19.625 57M27 56V32h8.77v3.576h-4.962v5.992h3.807v3.576h-3.807v7.312H36V56M42.625 57C39 57 37.375 54.562 37 50.465l3.875-.65c.25 2.926.875 3.641 1.75 3.641 1 0 1.376-.617 1.376-2.178 0-2.308-.75-3.38-3-5.787-2.5-2.503-3.75-4.779-3.75-7.574 0-3.381 1.624-5.917 5.124-5.917 3.5 0 5 2.308 5.375 5.852l-3.75.78c-.25-2.406-.75-3.12-1.625-3.12s-1.25.583-1.25 2.112c0 1.69.625 2.699 2.5 4.746 3 2.829 4.375 5.267 4.375 8.583C48 54.497 46 57 42.625 57M56.102 47.27h-2.204l.49-4.349c.245-1.74.49-3.705.49-5.605.122 1.9.367 3.833.612 5.573M61 56l-3.796-24h-4.286L49 56h3.918l.613-5.283h2.938L57.082 56H61M73.468 56.25v-6.347c0-2.93 0-5.729.127-8.235-.379 1.921-1.136 5.501-1.767 7.976L69.937 57l-1.766-7.356c-.63-2.344-1.388-6.12-1.766-7.976 0 2.28.127 5.404.127 8.235v6.348H63V32h3.91l1.765 7.39c.505 2.18 1.136 4.98 1.262 6.966.252-1.986.883-4.819 1.388-6.999l1.765-7.356H77v24.25M79 56V32h8.654v3.576h-4.962v5.992H86.5v3.576h-3.808v7.312H88V56M101.625 57C98 57 96.375 54.562 96 50.465l3.875-.65c.25 2.926.874 3.641 1.75 3.641 1 0 1.375-.617 1.375-2.178 0-2.308-.75-3.38-3-5.787-2.5-2.503-3.75-4.779-3.75-7.574C96.25 34.536 98 32 101.375 32c3.5 0 5 2.308 5.375 5.852l-3.75.78c-.25-2.406-.75-3.12-1.625-3.12s-1.25.583-1.25 2.112c0 1.69.624 2.699 2.5 4.746 3 2.829 4.375 5.267 4.375 8.583 0 3.544-2 6.047-5.375 6.047M113.897 35.575V56h-3.794V35.575H107V32h10v3.575M126.798 38.797c0 2.546-.741 3.512-2.101 3.512h-.743v-7.055h.866c1.36 0 1.978.902 1.978 3.543M131 56l-2.472-11.662c1.36-1.062 2.225-2.931 2.225-5.734 0-4.993-2.473-6.604-5.562-6.604H120v24h3.954V45.434h.99L126.92 56H131M133 56V32h8.77v3.576h-4.962v5.992h3.808v3.576h-3.808v7.312H142V56M145 56V32h8.768v3.576h-5.076v5.992h3.808v3.576h-3.808v7.312H154V56M162.86 35.575V56h-3.72V35.575H156V32h10v3.575M169.636 59c0 .935-.727 1.645-1.697 1.645-.847 0-1.575-.71-1.575-1.645s.728-1.645 1.575-1.645c.97 0 1.697.71 1.697 1.645zm.364 0c0-1.129-.848-2-2.06-2-1.092 0-1.94.871-1.94 2s.848 2 1.94 2c1.212 0 2.06-.871 2.06-2zm-1.09-.452c0-.451-.243-.677-.728-.677h-.97v2.194h.365v-.807h.484l.363.807h.485l-.364-.872c.243-.097.364-.258.364-.645zm-.487.033c0 .161-.12.29-.241.29h-.606v-.58h.606c.121 0 .241.096.241.29zM82.363 20v-5.952H81v-.882c.955-.095 1.363-.567 1.5-1.166H84v8" fill="#FFFFFE"/><path d="M82.363 20v-5.952H81v-.882c.955-.095 1.363-.567 1.5-1.166H84v8h-1.637z" stroke="#FFFFFE" stroke-width=".162"/><path d="M86 20c0-2.418.898-3.411 2.565-4.465.64-.404.768-.713.768-1.21 0-.62-.256-.9-1.025-.9-.513 0-.898.28-1.282.684L86 13.116c.513-.682 1.41-1.116 2.436-1.116 1.539 0 2.564.775 2.564 2.14 0 1.085-.641 1.767-1.538 2.325-1.154.775-1.667 1.334-1.795 2.17H91V20" fill="#FFFFFE"/><path d="M86 20c0-2.418.898-3.411 2.565-4.465.64-.404.768-.713.768-1.21 0-.62-.256-.9-1.025-.9-.513 0-.898.28-1.282.684L86 13.116c.513-.682 1.41-1.116 2.436-1.116 1.539 0 2.564.775 2.564 2.14 0 1.085-.641 1.767-1.538 2.325-1.154.775-1.667 1.334-1.795 2.17H91V20h-5z" stroke="#FFFFFE" stroke-width=".162"/><path d="M95.441 20c-1.046 0-1.86-.458-2.441-1.435l1.162-.763c.35.61.814.824 1.28.824.697 0 1.162-.427 1.162-1.038 0-.794-.582-1.13-1.279-1.13h-.58v-1.344h.58c.582 0 1.047-.274 1.047-.824 0-.52-.35-.916-.93-.916-.466 0-.815.183-1.163.58l-1.047-.947c.582-.61 1.163-1.007 2.21-1.007 1.394 0 2.325.855 2.325 2.137 0 .855-.466 1.344-1.163 1.588.697.183 1.396.733 1.396 1.832C98 19.054 97.07 20 95.441 20" fill="#FFFFFE"/><path d="M95.441 20c-1.046 0-1.86-.458-2.441-1.435l1.162-.763c.35.61.814.824 1.28.824.697 0 1.162-.427 1.162-1.038 0-.794-.582-1.13-1.279-1.13h-.58v-1.344h.58c.582 0 1.047-.274 1.047-.824 0-.52-.35-.916-.93-.916-.466 0-.815.183-1.163.58l-1.047-.947c.582-.61 1.163-1.007 2.21-1.007 1.394 0 2.325.855 2.325 2.137 0 .855-.466 1.344-1.163 1.588.697.183 1.396.733 1.396 1.832C98 19.054 97.07 20 95.441 20z" stroke="#FFFFFE" stroke-width=".162"/></g></svg>