<svg xmlns="http://www.w3.org/2000/svg" version="1" width="431.522" height="436.809" viewBox="-0.6 -1 431.52246 436.80862"><path d="M218.2 1.725c3.9-2 9-3.5 13.6-1.7l6.9 3.6c5.4-2.7 12.9-1.9 17.5 1.7 2.1 3.1 4.7-.3 7.5.6 5.2-.4 9.5 2.4 13.4 5.9 6.5-1.6 13.2.1 17.6 5 7.1-.7 14 2.2 18.1 8.5 7.7-.6 13.5 4.6 17.6 10.7 5.6-.4 10.4 2.2 13.5 6.9 1.7 1.5 1.2 5.7 4.9 4.9 6 .5 10.7 6.4 12.2 11.7 6.7 1.4 12 8.1 12.9 14.6 7.2 2.2 11.6 9.4 12.7 16.3 6.7 3 10.6 10.1 10.5 17.3 6.6 3.6 9.9 10.5 9.6 17.8 6.2 4.1 8.2 11.1 7.4 18.1 5.6 4.2 7.2 10.9 6.7 17.3 5.1 5 6.4 12.9 4.4 19.7 5 5.1 4.4 13.8 2.2 20 3.2 4 4.2 9.6 2.9 14.7l-2.2 5.5c3.2 4 3.6 10.1 1.6 14.8l-2.2 4.4c2.7 6.4 1 14.3-3.5 19.5 2.6 7.4 0 15.2-5.4 20.6 1.9 7.6-1.2 14.2-7.2 19.1 1.2 7.2-2.1 13.9-8.2 18.1.3 7-3.5 13.4-9.7 16.7-.5 6.2-3.5 12.5-9.4 15.5-1.1 3.7-2.2 7.4-5.1 10.5-2.4 2.7-5.1 4.1-8.1 5.4-1.2 7.1-8.2 12.1-14.6 14-1.4 5.1-5.7 10.2-11 11.6l-4.5 1.1c-1.1 4.2-4.9 8.6-9.2 9.9-2.2.6-4.5 1.1-6.7 1.4-3.5 6.6-10.4 8.9-17.2 8.7-4.7 7-12.5 9-20.5 7.9-4.9 5.9-12.4 7.5-19.6 5.5-5 5.5-12.9 6.2-19.5 4.2-4.9 4.4-12.9 5-18.7 2.2-3.5 1.6-6.7 3.6-10.9 3.4-2.6-.1-5-.7-7.2-1.7-6.1 3.4-14.6 2.7-20.2-1.2-6.9 3.4-14.3.6-20.1-3.4-5 2.2-11.4 1.4-15.7-1.9l-3.6-3c-4.5 1.7-10.2 1-13.8-2l-4.4-4.1c-5.9.9-11.4-1.4-15-6l-2.5-3.4c-5.1.2-10-1.1-13.7-4.7l-4.6-6.2c-7.1 0-13.4-5.4-16-11.5-6.5-1-12.7-6.5-14.3-12.7-6.1-1.6-12.2-6.5-13.5-13-6.5-2.2-11.7-8.7-12.5-15.5-7-3-9.9-10.4-10.7-17.2-7.1-3.2-9.9-10.7-9.4-18-4.7-2.5-7.7-7.6-7.7-13l.1-4.9c-5.5-4.1-7-11.6-5.1-18.3.7-2.4-2.9-3.6-3.4-6-2.7-4.5-2.6-11.1-.7-16-4.9-5.2-4.9-14.1-2.2-20.3-4-5.6-3.6-13.5-.4-19.2-2.7-5.4-3.1-13 .4-18.2-2.6-6.5-1.5-14.8 3.1-20-2.2-7.4.9-14.3 5.4-19.8-2.9-7.4 1.4-14.2 6.6-19.1-1.5-5.2.1-11 4.4-14.8l3.4-3c-.5-6.9 4-13 9.9-16 1-1.9.6-4.1 1.5-6 1.5-4.7 6.2-8.7 10.5-11.1 1-7.1 6.7-13.6 13.7-15.2.6-6.8 7.1-12.5 13.6-13.9 2.1-6.2 8.6-11.7 15.3-12.2 2.6-5.9 8.5-10.6 14.8-11.1 3.9-6.5 10.6-10 18-9.9 4.2-6.5 11.9-7.9 18.8-7.6 3.6-5.4 9.2-7.2 15.5-6.5l3.4.5c3-4.5 8.2-6.4 13.4-5.4l5 1c4.9-4.6 12.9-4.6 18.6-1.7 5.9-4.3 14.9-3.9 21-.4z"/><path d="M208.2 3.725l.4.2c2.7.1 5.5-1.7 7.9 0-1.2 1.1-3.4 1.4-4.9 2.7l9 .1 1 .9c-2.4.6-5 1.1-7.1 2.2l10.2.5.6.6c-1.9.5-4.1.6-5.9 1.9 3.2.6 6.9.5 9.7 1.9-2.4 1.9-6.9 2-10 1-6.7-2.6-12.2-8.6-18.6-12.2 2.6-1.7 5.9-2.4 9.1-1.9l-1.4 2.1zM231 2.625c-1.5.4-3 .5-4.4 1.1 3 1 6 1.7 9.5 1.5l1.2 1-6.2.6c2.5 1.2 5.9 2.5 9.5 2.4.4.1.6.6 1 .7l-6.2.5v.3c2.9 1.1 5.9 1.9 9 2.2l.5.7-5.5.1v.4c2.7 1.2 5.9 1.7 8.7 3v.3c-11.6 3.9-18.5-8.2-27-13.7 2.4-1.7 6.8-2.5 9.9-1.1zM186.1 4.125c3 2.2 6.2-2.4 9.2.2-1 1-2.7 1-4 2 1.4 1 3.9 1.1 5.5.4 1-1 2.2-1 3.4 0l.2.3c-1.1 1.2-3 1.1-4.4 2 3.1 3.6 7-3 9.6 1.6-.9 1-2.4 1.2-3.6 2 2.7 3.1 6.4-2.7 8.6 1.7-2.5 2.2-7 2-10.4 1.4-6.6-2.5-12-8-18.5-10.6 1.5-1.4 3.6-2.5 6-2.2l-1.6 1.2zM249.2 5.125l-2.6.5c2.7 2.7 7.4.1 10 3.5-1.5.5-3.7.3-5.5.3 2.4 3.4 8.7.5 10.5 5.5-2 .1-4.2-.3-6-.4 2.2 1.9 5.1 3 8.2 3.4 0 .4 1 .9.3 1.1-1.9-.2-4-.5-5.9-.4 1.7 1.6 4.5 2.5 6.5 3-10.6 1.7-16.6-9.6-23.3-16 2.2-.9 5.5-1.4 7.8-.5zM168.3 7.525c3.4 1.5 6.5-3 9.9-.7-1.2 1-3 1.5-4.4 2.5 3.5 1.9 7.2-2.7 10.4.4-1.5.6-3.5.9-5.1 2 3.1 1.9 6.7-1.2 9.7.6-1.4 1-3.7 1.1-5 2.4 2.9 1.7 6-.6 9 .4-10 8-19.7-2.9-29.1-5.6l-.5-.4c1.9-2.6 4.7-3.7 8-3.6l-2.9 2zM269.4 9.825l-3 .9c1.7 1.6 4.6 1.6 6.9 1.5.6.4 1.2.9 1.4 1.5-1.5.2-3.1.2-4.6.6 2 1.5 4.6 1.9 7.4 2.1.5.5.7 1 1 1.6-1.6 0-3.5-.1-5.1.1 1.9 2 4.6 2.2 7.2 2.7l1.2 1.7h-5.2c1.5 1.7 4.1 2.9 6.9 3l.7 1.1c-3.6 1.2-7.6.2-10.5-1.9-5.2-4.6-8.7-10.6-12.9-16 2.8-.6 6.3-.2 8.6 1.1zM151.3 12.625c3.6.6 6.5-3 10-1.1-.7 1.1-2.9 1.4-4 2.7 3.4 1.2 6.6-2.5 9.6-.4-1 1-2.6 1.6-3.9 2.5 3 1.6 6.1-2 9 .1l-4.7 2.1c1.9 1.2 4.5.3 6.5-.4-8.9 5.5-19.7-1.6-28.9-3.7 2.2-3 5.5-4.2 9.2-4.1l-2.8 2.3zM285.8 14.425c-.2.3-1.7.3-2.5.6 2.6 2.7 7.5.5 9.7 4.2l-5.2-.2c1.7 2.1 4.9 2.9 7.6 3.5.5.5.7 1.1 1 1.7l-5.5-.5c1.9 2.4 4.7 3.1 7.4 4 .3.5.6 1 .7 1.6l-5.5-1.1c1.7 2.1 4.6 4 7.4 4.7.1.4.5.5.4.9-11.7 1.1-16-12.4-22-19.7 2.1-.5 4.5-.2 6.5.3z" fill="#ffd500"/><path d="M232 17.125c5.1 3.2 12.5 5.7 18.5 2.5 4.9 3.9 11.4 6.4 17.8 4.2 3.8 4.2 8.6 7.2 14.6 6.2l3.4-.6c4.2 5.1 9.9 8.5 16.6 7.2 3.9 5.2 9.2 9.1 16 8.6 2.2 5 7.1 10 12.5 11.1 1.2.3 2.6.1 4 .1 2.4 5.2 7.4 10.7 13.2 11.6 1 6 6.5 11.7 12.6 13 .9 6.2 5.1 12.1 11 14.3.9 6.1 4.1 12.7 10.4 15.3.7 6.4 3.1 13.1 9.4 16.3-.1 6.6 1.5 12.7 7.1 16.7-1.1 6.4.6 13.7 6.6 17.7-1.4 6.5-.6 13.6 4.5 18.2-2 6-1.2 12.9 2.9 17.7-2.1 4.9-3.6 11.6-1.1 16.7l2.2 3.2c-2.4 5-4.4 12.2-1.1 17.6-4 4.9-5.2 12.2-2.4 18.1-3.5 4.2-5.9 9.5-5 15.5 2.5 3.6-3 5.5-3.7 8.5-1.9 3.5-2.1 8.2-1.5 12.2-5.6 4.5-8.2 10.5-7.6 17.5-5.5 3.6-9 9.2-8.7 15.8-4.2 1.6-8.4 6-9.4 10.5h.2c-1.2 1.1-.9 3.2-.9 5.1-5.9 2.4-11.2 8.2-11.7 14.6-5.5 1.9-11.1 7-12.4 12.9-6.4 1.6-14.3 6-15.5 13.4-5.9.9-11.9 4.1-14.5 9.7-6.9-.6-12.7 3.1-16 9-6.7-.5-13 1.6-16.8 7.2-6.7-1.2-13.4.6-17.7 6.1-6.4-2.1-14.2-1.2-19 3.9-5.7-2-13.5-1.6-18.1 2.6-4.2-2.2-10.4-3.6-14.7-1.1l-3.9 2.4c-5-3.1-13-4.2-18.1-.7-5-3-12-5-17.7-2.2-2-1-3.9-2.6-5.9-3.7-3.9-2.4-9.7-2.7-13.9-.5-4.6-4.2-10.2-7.4-16.5-6-3.7-5.7-9.7-8.4-16.3-7.5-3.5-5.6-9.2-9.6-15.8-9.4-2.7-6.2-9.4-10.5-16-10.9-2.2-5.7-7.7-11.1-13.9-11.7-.9-5.4-5.5-11-11-12.5l-2.4-.4c-1.4-5.7-5.1-12.4-11.4-14.1-1.2-1.9-1.2-4.4-2.2-6.5-1.7-3.2-4.7-6.7-8.2-8.4-.7-6.9-2.4-14.5-9.6-17.5-.9-1.6 0-4.5-.7-6.5-1.2-3.7-2.5-7.6-6.1-10.1 1.7-6.5-.6-12.9-5.6-17.2 2.1-6.5.6-13.9-4-18.6 1.6-6.1 1.9-14.1-2.7-18.8 2.7-5.7 2.9-13.2-.7-18.5 3.1-4.4 4.4-10 2.5-15.2l-1.9-3.6c3.2-5 5.9-12.2 2.4-18 3.6-5 6.4-11.2 4.1-17.7 5-5.2 9.1-12 6.2-19.5 4.9-4.1 7.6-9.5 7.4-15.6 5.6-3.5 9.5-9.4 9-16.2 5.7-2.6 10.5-8.6 10.6-14.8 6.1-2.1 11.4-8.1 11.9-14.7 5.6-1.9 12-6.9 12.9-13.1 5.9-1.4 12.1-5.5 14-11.6 3.7-.6 7.5-1.2 10.5-3.9 2.2-2.1 3.7-4.4 4.7-7 6.4-.9 13.1-3.2 16.2-9.5 6.5 0 12.5-2.1 16.5-7.6 7.4 1.4 14.6-.3 18.8-6.6 5.9 1.6 12.4.6 16.7-3.5 5.6 2.7 13.2 1.7 17.8-2.4 5.1 2.7 13 3.4 17.8-.4 5.3 3.6 13.2 4.6 18.8 1.1z" fill="#fff"/><path d="M139.8 17.125c-1.2 1.1-2.6 2-3.6 3.4 4.2 1.1 6.7-5.1 10.9-2.4-1.6 1.4-3.6 2.1-5.1 3.7 4.1 1.4 7.1-3.5 10.9-1.7l.3.1c-1.6 1.2-3.5 2.2-5.1 3.6 1.1.6 2.9.1 4.1-.3 2-.4 3.5-2.1 5.5-1.9-1.2 3-5.4 4.5-8.7 4.9-8.4.4-15.2-2.6-22.7-4.2.7-2.4 3.5-3.5 5.6-4.2-.3.6-1.5 1.2-.9 2 3.3.2 4.8-5 8.8-3zM304.8 21.625l-2.6.4c2.1 3.5 7.1 1 8.5 5.1l-4.9-.5c1.4 3.4 6.4 2.4 7.5 5.7-1.6 0-3.5-1.1-5.1-1 1.7 3.6 6.5 2.9 7.4 6.5-1.5 0-3.4-1.1-4.9-1.2 1.5 2.7 4.6 4 6.6 5.7-12.5-.4-14.6-14.6-20.3-22.6 1.4-.8 3.1.2 4.6.4l3.2 1.5z" fill="#ffd500"/><path d="M389.1 137.725c23.6 49.2 21.5 117.5-2.7 165.7-33.7 69.9-106.2 112.7-183.5 108.7-71.6-2.6-142.9-52.7-168-120.7-17.5-41.8-19.3-98.2-2.4-141 22.5-68.1 92.5-122.1 163.7-127.1 60.5-4.6 113.4 15.6 155.5 58.3 16.2 16.9 28.6 35.9 37.4 56.1z" fill="none" stroke="#ffd500" stroke-width="3.743"/><path d="M122.7 24.825c-1.1 1.1-2.4 2.4-3.1 3.7 3.5.6 5.4-4.1 8.5-2.9-.7 1.1-2.5 2.1-3.7 3.4 1.5.6 3.2-.5 4.9-.7 1.5-1.1 3.1-1.9 4.9-1-1.1 1-2.7 1.7-4 2.9 2.9.9 5.7-.9 8.4-1.7-.5 1.6-2.6 3-4.1 3.7-8.5 4.2-17.1-1-26-.8 1-2.6 4-4.2 6.5-5.4l-1.4 2.4c3.6 1 5-5.7 9.1-3.6zM321.1 30.225l-1.9.4c1.6 3.6 6.9 1.1 7.7 5.7-1.6-.3-3.1-.9-4.7-.9 1.4 4.5 8.2 2 8.4 7.4l-6-2c.2 1.6 2 2.9 3.4 3.7 1.9 1.2 4.9 1.6 4.7 4.5l-6-2.2-.4.4c1.6 3.4 5.5 3.7 7.9 6.1v.5c-4.7.3-8.5-2.9-11.2-6.7-3.7-5.9-5.5-12.5-8.5-18.6l.4-.5c2.3 0 4.5.8 6.2 2.2z" fill="#ffd500"/><path d="M382.2 138.825c25.5 52.8 21.3 126.1-9.1 175.2-40.3 66.6-114.9 102.1-191.4 88.7-59.6-9-117.8-55-139.9-112.3-17.7-41.9-19.5-96.1-2.5-139 14.7-42 51.5-84.1 93.1-103.2 53.3-28.2 127.6-23.8 177.6 8.5 31.2 18.5 58.3 50.2 72.2 82.1z" fill="#004481"/><path d="M111.6 34.525c-.6 1.2-2.6 2.6-3.5 4.2 2.9 0 5.1-2.2 7.6-3.6l1.5.3c-1 1.1-2.9 2.5-4.1 3.9 3.4.1 5.9-2.4 9-3-2.9 5.7-9.6 7.1-16 6.7-4.2-.5-8.5-.7-12.9-.9 1-1.9 2.5-4 4.5-5.1l-1.4 2.2c3.9.4 5.1-6 9.2-4.9l-3.2 4c2.9-.1 5.2-2.5 7.6-4.1l1.7.3zM341.1 43.625c-1 0-2.4-.5-3.5-.7 1.6 3.1 6.4 3.7 6.9 7.5-1.4-.1-2.9-1.4-4.5-1.6 1 3.2 6.2 3.9 6.2 7.7l-4.4-1.9c.1 3.4 5.7 3.6 5.2 7.5-1.5-.9-3-1.9-4.5-2.7.1 2.2 2.6 3.9 4.5 5.2-10.7-4.2-11-17.1-14.8-26.1 3.5.5 6.6 2 8.9 5.1z" fill="#ffd500"/><path d="M220.2 47.325c0 .4-.4.3-.7.3-.4-1.2-1.4-2.9-2.7-3.4-2.2 0-5.2-.9-6.2 1.4l.7 17.6c.7 2 3.2 1.6 4.4 2.7.1.7-.9.5-1.4.6-4-.4-8.2-.3-12.1.4-.1-.3-.6-.1-.7-.4.7-1.6 3.5-.6 4.2-2.7l-.5-18.8c-1.7-1.4-4.7-.6-6.7.1-1.2.9-.9 2.4-2 3.4-1-1.2-.1-3.7-.2-5.6l.7-.4c7.9 0 15-.1 22.5-.5l.7 5.3zM193.6 42.925c0 1.2-1.6 1.1-1.9 2.2v3.6l3.6 18.7-1.5-.5-20.3-14-.5.2c1.1 5 1.4 10.6 3.7 15.1 1.1 1.2 2.6.7 4 .9v1c-3 .6-6.1.7-8.9 1.7-.4-1.5 2.5-1.7 2.2-3.6-.7-5.9-2.1-11.5-3.5-17.1-.9-2.1-3.2-1.7-4.6-2.2.4-1 1.6-1 2.5-1.1 2 .1 3.5-.7 5.2-1.1 6.2 3.6 11.9 8.4 18 12-.2-3.6-1.1-7.7-2-11.5-.7-1.6-2.5-2.2-4.2-2-.3.1-.6 0-.7-.2-.3-.5.4-.7.7-.9 2.7-.3 5.4-.7 7.7-1.5l.5.3z" fill="#fff"/><path d="M95.6 45.125c-.4 1.4-2 2.7-2.7 4.2 2.5-.1 4.6-2.4 6.5-4.1l2.1.3c-.9 1.5-2.2 2.7-3.1 4.2 2.2-.5 4.7-1.7 6.5-3.9h1.1c-.5 3-3.4 5.7-6.4 7.1-6.6 1.7-14.5.9-21.7 1.2 1.1-2.7 3-5.4 5.9-6.7 0 .9-.6 2-1 3 3.2 0 3.9-5.2 7.4-5-.6 1.5-1.6 2.7-2.2 4.1 2-.7 4.2-2.4 5.7-4.5.7.4 1.3-.2 1.9.1z" fill="#ffd500"/><path d="M247.7 51.125c2 2.1 3 4.7 2.6 7.5-.4 2.5-1.4 4.7-3.5 6.5-3.2 2.6-8.2 2.6-11.9.6-2.2-1.5-3.7-3.7-4-6.4-.5-4.1 1.2-8 5.1-9.9 3.8-1.5 8.9-1 11.7 1.7z" fill="#fff"/><path d="M244 51.525c2.9 3.1 2.2 7.7 1.1 11.5-.6 1.4-2.1 2.6-3.5 3-2.2.4-4.1-1-5.2-2.9-1.6-3.2-1.5-8.2.5-11.4.5-1.1 1.6-1.5 2.6-2 1.9-.2 3.5.4 4.5 1.8z" fill="#004481"/><path d="M163.6 54.525c-.1.2.2 1-.4 1-.9-.5-1.6-2-3-2.4-2.7-.2-5.5.7-7.1 2.9l2.5 6.9c1.2.6 2.5-.1 3.6-.6 2.2-.7 1.1-3.7 2.7-4.2.4 2.7 2.7 4.7 2.5 7.5-1.2-1.5-3.2-2.5-5.2-1.6-.7.6-2 .4-2.5 1.5l2.4 7.5c.7 1.7 2.7.9 4 .5 3-1.4 5.2-4.2 6.1-7.2 1.2 1.1 1.5 3.2 1 4.9-.4 1.7-2.2 2.6-3.6 3.2-4.6 1.2-9.1 2.9-13.4 5-.4-.1-.5-.6-.5-1 1.4-.9 2.2-2.4 1.4-3.9l-5.8-15.5c-.9-2.7-4.2 0-4.6-2.1 5.7-2.2 11.7-3.9 17.1-6.7 1.7.3 1.8 2.8 2.8 4.3z" fill="#fff"/><path d="M355.3 54.625l-3.4-.9c.9 3.7 6.6 3 6.6 7.5l-4.6-2.1c.5 3.7 6.5 4.1 6 8.5-1.6-.7-3-2.4-4.7-2.9.2 3.4 5.6 4.6 5.4 8.5-1.6-1-3-2.4-4.6-3 0 3.1 4 4.6 4.9 7.6-3.5-.7-7.5-3.9-8.6-7.6-2.2-6.4-3-13.5-4.5-20 3.1.4 5.9 1.2 7.5 4.4z" fill="#ffd500"/><path d="M266.1 54.625c-.7 1.1.1 3.4-1.4 3.9.4-1.6-1-3.5-2.6-3.9-1.1-.3-2.4-.9-3.5-.1-.3 2-3 5 0 6.2 1.7.7 3-.5 4.2-1.4-.5 1.7 0 4.5-1.6 5.7.4-1.5-1-2.9-2.2-3.1-.6-.1-1.2-.5-2.1-.4-1 2.2-1.9 4.6-1.5 7.2.6.7 1.9.7 2 1.7-3 .1-5.5-1.9-8.5-2.2.3-.8 1.4-.4 1.9-.9 1.9-4.2 2.4-9 3.6-13.5.1-1.5-2.1-2-2.1-3 4.5 1.4 9.2 2.6 13.8 3.8z" fill="#fff"/><path d="M79.2 61.625c2.6-.7 5.2-2.7 7.5-4.6h1c-.6 1.6-2.5 3.2-3.9 4.7 2.4-.1 4.5-1.7 6.5-3.4-5.1 9.5-17.2 7.7-26.8 9.4.7-2.5 2.1-5.5 4.6-6.7-.4.9-1.1 1.5-1.4 2.5 3.6-.6 4.9-5.9 8.7-5.9h.3l-3.1 4.5c4.1-.1 5.3-6.9 10.3-5.1l-3.7 4.6z" fill="#ffd500"/><path d="M293.2 65.225c-.3 1.5-.6 3.1-1.5 4 .1-2.2-1.2-3.9-3.1-4.7-.7 0-1.2-.7-2-.2l-5.7 12.1c-.2 1.6 1.4 2.7 2.1 3.6l-.3.3c-3-1.9-6.2-2.9-9.4-4.4v-.3c1.6.1 4 .4 4.5-1.9l5-11c-.6-1.4-2.2-1.9-3.6-2.2-1.5-.4-2.2.9-3.4 1.2.2-1.4 1.1-2.6 2-3.5l15.4 7zM136.7 62.725l.6 2.6 9.5 14c1.4 1.7 4.6-1.6 4 1-3.2 1.6-6.4 3.2-9.4 5.6-1.1-1.4 2.1-2.5.4-4.1l-7.4-11.1-.4.5 1.9 18.1-.4.4c-5.1-2.9-10.1-6.5-15.2-9.5 1.6 3.6 3.6 7.6 6.2 11 1.1 1 3.2.4 4.5.5v.6c-2.2 1.5-4.6 2.9-7 4.4-1-1.1.9-1.7.6-2.9-1-5.7-5-10.1-7.5-15.2-1-1.6-2.9-2.7-4.6-1.9-.4.4-.9.4-1.4.4-.2-.1-.1-.5-.1-.7 2.9-.9 5.4-5.7 8.6-3.1 4.5 3 9 5.7 13.5 8.6l.4-.4-1.9-17.7c1.6-1.6 4-2.7 6.1-3.9 1.1 1.1-1.1 1.6-1 2.8z" fill="#fff"/><path d="M367.5 66.725c-.9.1-1.4-.9-2.2-.7-.1 3.7 5.6 3.6 5.4 7.5l-3.9-2c-.1 2.6 2.5 4.5 4.6 5.6.1.7.5 1.5.4 2.4-1.6-.4-2.9-1.6-4.2-2.4-1 4.2 6.4 4 4.5 8.5v.4c-1.2-.5-2.5-1-3.6-2-.2 2.1 2 4.1 3.6 5.1l.1 3c-5.5-1.5-8-7.9-8.5-13.2-.2-5.1-.5-11-1.5-15.8 2.1.4 4.2 1.6 5.3 3.6z" fill="#ffd500"/><path d="M302.3 71.225c-.5.7-1.2-.3-2 .3-1.5 1.5-2.7 3.2-3.2 5.2 2.1 1.4 4 3.4 6.5 4.1 1.1-1.9 3.2-3.5 2.5-5.9-.4-.5-.9-1-1-1.6 2.5.6 5 3.2 7.1 4.6l-2.1.3-7.5 11.7c-.6 1.6 1.2 2.1 1.4 3.2-2.6-.5-4.7-3.1-7.4-4.2v-.5c3.5.7 4-3.5 5.7-5.4v-.7l-6-4.1c-1.7 1.2-2.9 3.6-3.7 5.6-.5 1.2 1.9 2 1 3-2.6-1-4.2-3.6-7-4.5v-.5l2.2-.2 7.4-11.4c.7-1.5-1.4-2.5-.9-3.6 2.3 1.2 4.7 3.2 7 4.6z" fill="#fff"/><path d="M76.9 69.225c-4 12-17.8 10.4-27.2 13.5.4-3 2.1-6.6 5.4-8.4-.7 1.2-1.4 2.6-2 3.9 2.7-1.5 5-4.2 7.2-6.7l1.5-.3c-1.2 1.7-2.4 3.6-3.5 5.5 3-1.2 5.6-4.4 8.1-6.4h.6l-3.4 5.1c2.6-1.1 5.1-3.5 7.4-5.7h.9c-.7 1.6-2.1 3-3.1 4.6 2.9-1 5.2-3.8 8.1-5.1z" fill="#ffd500"/><path d="M113.6 81.625c-1.7.1-3.6-1.6-5.4-.4-1.4 1.1-4 2.4-3.6 4.4 4 4.7 7.6 10 12.1 14.1 1.9.5 3.1-1.4 4.6-.7l-.3.7c-3.6 2.1-6.9 5.2-10 8.4-.4.4-1.2.1-1.1-.4 1.1-1.5 2.7-2.9 1.6-4.9l-11.6-14.1c-2.2.7-4 2.5-5.1 4.5-.9 1.5 1.7 3.7-.5 4-.7-1.7-2.6-3.1-2.5-5 6-4.9 11.9-9.4 17.7-14.7 1.6.8 3.2 2.4 4.1 4.1z" fill="#fff"/><path d="M381.4 83.925c-.9 0-1.7-.5-2.6-.1 1.2 2.4 5.2 3.9 5 7-1.6-.6-3.5-2.4-5.2-2.5l5.5 7.5-.1 1.4-5.9-4.5c1.4 3 4.5 5.6 5.4 9.1l-.1.1c-1.2-1.4-2.7-2.9-4.6-3.5 1.2 3 3.7 5.7 4.2 9.2-11.1-5.6-6.7-19.6-8.5-30.2 2.6 1.2 5.9 3.5 6.9 6.5z" fill="#ffd500"/><path d="M335.2 155.325c22 41.1 18.2 101.1-8.5 138.7-30.8 45-81.4 67.9-135.5 59.3-42.2-6-83.5-37.2-101.4-77.1-12.2-26.8-16.7-62-8.6-92 9.7-45.4 51.3-88.6 96.3-99.7 54.7-14.3 109.7 4.6 144.1 49 5.1 7.1 9.7 14.3 13.6 21.8zM326.1 88.425c-.2 1.2-1.2 3-2.6 3.6.4-1.2.7-2.9-.3-4.1-1.2-.9-2.1-2.5-3.9-2.5-1.4 1.5-3 2.9-3.5 4.7 1.1 1.2 2.4 2.5 4.1 1.9.2-.1.6-.4 1-.4-.5 1.5-1.9 3.7-3.5 4.7.6-1.1.4-2.6-.4-3.5-.9-.6-1.9-2-2.9-1.2-1.2 1.9-4.1 3.5-3.2 5.9 2 2.4 5 2.6 7.9 2.4-.3 1.1-1.5 2-2.5 2.2-4.5.3-7-5.5-10.9-7.2l-.7-.7c1.1-.4 2.7.2 3.5-1.4l7.6-9.6c.7-1.1-1.1-2.4-.7-3.5 3.8 2.7 7.3 6.2 11 8.7z" fill="#fff"/><path d="M64.1 82.925c-2.3 12.9-17.3 11.6-26.2 16.3.3-3.1 1.5-6.1 4-8.5l.7 2.4c1.9-2.1 2.4-5.5 5.2-6.4 0 1.7-1.1 3.6-1 5.5l5.4-7 1.4-.4c-.5 2.1-2 4.6-2.2 6.9l6.2-7.7c.4-.3.9-.1 1.2-.1-1.1 1.7-2 3.6-2.2 5.6h.4c2-2.4 4.2-4.5 6.5-6.5h.6z" fill="#ffd500"/><path d="M325.7 152.325c24.1 39.3 22.1 99.3-4 136.9-30.6 45.9-83.2 67.6-137.6 55.8-34.6-7.9-68.6-33.3-85.2-66.4-21.6-38.7-19.1-95.7 6-132 29.1-44.2 78.1-66.6 130.1-58.1 36.9 5.8 72 30.1 90.7 63.8z" fill="#cc101f" stroke="#ffd500" stroke-width="2.495"/><path d="M393.1 101.225l-3.2-2.9c.4 3.1 2.6 5.9 4.4 8.6v1.7c-1.5-1.5-2.7-3.4-4.4-4.7.6 3 2 6.2 4 9 0 .2.1.7-.1 1-1.5-1.2-2.7-3.1-4.1-4.5.4 3.1 2.5 6.1 3.4 9.1 0 .2 0 .4-.1.5-1.1-1.4-2.4-3-3.6-4.5.4 3.1 2.2 6 3 9.1-1.7-.3-3.2-2.4-4.4-3.9-5.1-7.6-.2-17.1-1-26 2.6 1.7 5.5 4.3 6.1 7.5zM52.3 97.525c-1.4 13.1-16.6 11.9-24.8 17.8-.4-2.2.6-4.6 2-6.5v2.5c3.6-1.2 1.7-6.6 5.6-7.4.2 1.6-.9 3-.7 4.5 2.7-1.2 3.4-3.7 3.9-6.4l2-.7c.4 1.6-1 3.4-.7 4.9 4.4-1.1 1.6-7.7 6.9-6.9.1 1.5-.9 2.9-.4 4.1 3.7-1.1 1.4-6.7 6.1-6h.1z" fill="#ffd500"/><path d="M93.9 101.325c1.2 1.6 1.2 4.2.5 6.1 4 1 8.4 2.6 12.4 1.5.4-.5 1-1.4 1.6-1 .5 2.1-.9 3.9-2.2 5.4-4.6 3.1-9.2-.7-14.1-.7-.6.3-1.4 1-1.6 1.6 1.9 2 4.2 5 7.2 5.7 1.2.1 2.1-2 3.4-1.2-2.1 3.5-5.6 6.2-7.9 9.2-.7-1.1.9-2.6-.4-3.7l-13.6-11.9c-1.9-1.1-2.7 1.1-4.4 1.4v-1.2c6.4-4.4 9.9-19 19.1-11.2zM348.4 108.525c-.6 7.1-2.4 14.2-3.2 21.6l1.1-.3c2.9-3.4 10.6-5.1 8.5-10.7-.2-.4-.2-.7-.4-1.2.1-.4.6-.4.9-.1 1.5 2.2 3 4.6 4.9 6.6v.6c-.9.5-1.5-.7-2.5-.7l-3 1.1-15.6 11.9-.3-.4 3.9-26c-1.5-.5-2.7 1.6-4.2 2.2-2.6 3.1-9.7 4.7-7.9 10 .1.6.6 1 .4 1.7h-.9c-1.7-2.5-3.6-5.1-5.2-7.5 1.5-.5 3.2 1.6 5 .3l13-10c1-1 1.2-2.9.5-4-.4-.4-.7-1.1-.1-1.5 2.1 1.4 3 4.4 5.1 6.4z" fill="#fff"/><path d="M90.5 105.725c1.2 1.1 1.5 3 .9 4.5-.5 1-1.1 2-2.2 2.7-2.4-1.2-4.6-3.6-6.9-5.5-.7-1.6 1.2-2.7 2.2-3.5 2.1-.6 4.5.1 6 1.8z" fill="#004481"/><path d="M402.5 117.125l-2.2-1.6c-.3 4 4.6 6 3.4 10.1l-3.5-4.1c-.7 4.2 5 7.2 2 11.4-1.2-1.2-2.1-3.2-3.4-4.7.4 2.7.9 5.7 2.4 8.2.1.6-.1 1-.2 1.5-1.2-1.6-2.5-3.4-3.5-5.2-.4 2.5.5 4.9 1.5 7-7.6-7.2-2.7-19-1.7-28.4 2.2 1 4.2 3.6 5.2 5.8zM41.9 112.525c.1 13-14.6 14.5-22.5 20.6-1-2.4-.4-6.5 1.9-8.7 0 .6-.1 2.5.1 3.6 3.1-2.1 1.2-7.5 5.4-8.6-.1 1.7-1 3.4-.7 5.1 3.4-2.1 2.1-7.5 6.5-8.2-.5 1.7-1.5 3.6-1.4 5.4 3.2-1.7 2.6-6.6 6.4-7.5-.5 1.7-1.2 3.5-1.6 5.2 3.2-.9 3-5.1 5.9-6.9z" fill="#ffd500"/><path d="M89.1 129.725c1.4.4 2.1-1.7 3.4-1-1.1 3.4-4 6-5.1 9.4h-.6c.5-1.5-.5-3.4-2.2-3.4l-4-.1-4.4 7.2c-.1 1.9 1.7 3.1 3 4.1.7.5 1.9.3 2.5-.4.7-.4.9-1.5 1.9-1.2.4 1.4-1.2 2.5-1.9 3.9-1.6 1-.9 4.4-3 3.9.9-2.6-1.1-4.6-2.5-6.5-4.5-5.1-7.9-11-11.5-16.7l.2-.9c8.1.1 16.1 1.4 24.2 1.7z" fill="#fff"/><path d="M410.8 136.525c-.9-.6-1.6-1.4-2.5-1.9-.6 3.2 3.6 5 2.7 8.4-1.2-.7-2.1-2.7-3.4-3.1 0 2.4 1.5 4.6 2.6 6.9 0 .7-.2 1.4-.5 1.9-1.1-1.2-2.1-2.9-3.4-3.9-.6 3.5 3.1 6.1 1.6 9.4-1-1-2.1-2.7-3.1-4.1-.4 1.6.1 3.7.7 5.4.4 1 1.7 2 .7 3.2-3.6-2.2-4.9-6.2-5.1-10.2 1.1-6.7 3.1-13.1 4.9-19.5 2.8 1.7 4.6 4.6 4.8 7.5zM12.5 151.425c-1.6-3.4.3-7.2 2.2-10.1 0 .9-.1 2.5.1 3.5 2.5-2.4 1.6-6.9 5.1-8.6.1 1.4-.4 3.2-.1 4.7 3-2 1.5-7 5.5-8.1.1 1.4-.7 3.2-.4 4.9 2.9-1.9 1.9-6.6 5.5-7.4-.2 1.9-1.5 3.6-1.2 5.2 2.2-1.5 2.9-3.7 3.6-5.9-.8 11-12.9 15.4-20.3 21.8z" fill="#ffd500"/><path d="M77.8 134.625c-.9 1.9-1.9 3.9-3 5.6-2.2-1.4-3.2-4.1-4.9-6.2 2-.9 5 .1 7.6.2l.3.4z" fill="#004481"/><path d="M343.7 139.525c8.4-.5 16.5-1 24.6-.1-4.2 7-10.1 13.2-15.1 20-.9 1 .5 2.6-.7 3.2-2-2.7-2.5-6.4-5-9.1l.2-.9c.9-.1 1.2.7 2 1 2.1-.6 3.2-2.7 4.5-4.4l-3.5-7.7c-1.2-.9-3.4-.4-4.9.1-2.4 1-.3 3.4-1.4 4.7l-.5-.1c-1.2-2.5-1.9-5.4-3.7-7.6l.2-.6 3.3 1.5zM67.9 141.825c1.5 2 2.1 4.9 1.2 7.2-.6 1.4-1.2 3.2-2.9 3.7.2-1.5 1.2-3.6.2-5.2-1.1-1.7-3-3-5.2-2.9-2.1-.3-3.7 1.4-4.7 3-.4.9-.6 1.9-.4 2.7 5.5 2.6 11.2 4.4 16.8 6.6 1.5.4 3.2-.4 3.9-1.9-.1-.3.1-.4.3-.6l.7.3c-.7 3.9-3.1 7.4-4.1 11-1.5 0-.3-1.9-1.1-2.5l-1.9-1.5-15.1-5.5c-2.4-.6-2.6 2.1-4.2 2.5.2-3.5 2.4-6.5 3.2-9.9.9-3.6 2.6-8.1 6.7-9.1 2.6-.2 5 .5 6.6 2.1z" fill="#fff"/><path d="M360.7 140.625c-.9 2.2-3 4.5-4.7 6.4-1.2-1.7-2.4-3.9-3-6 2.4-.4 4.9-.5 7.7-.4z" fill="#004481"/><path d="M7.3 171.325c-1.1-1.9-.6-5 .1-7.1.5.5.4 1.2.7 1.9 2.7-2.4-.5-7 3.1-9 .5 1.4.4 3.2.7 4.7 3.6-2.6-.4-8.2 4.5-10v6.2c2.5-2.2 2.6-5.7 3.5-8.9l1.7-1c.3 1.9-.2 4.2-.1 6.2 2.6-2 2.6-5.4 3.4-8.4l.9-.7c3.2 12.5-11.1 19-18.5 26.1zM417.1 152.625l-1.9-1.9c-1.1 4 4.5 6.1 2.2 10.2-1-1.4-1.9-2.9-3-4.2-.4 3 1 5.7 2.1 8.2l-.7 2c-1-1.5-2-3.2-3-4.9-1.6 3.7 2.4 6.7.5 10-1.1-1.6-1.2-3.5-2.4-5-1.1 3 .4 6.4.5 9.2-1 .5-1.5-1-2-1.6-5.4-9.5 2-18.6 3.7-27.7 1.8 1.4 3.3 3.5 4 5.7z" fill="#ffd500"/><path d="M373.6 149.825c.4 2.9 1.6 5.2 2.5 8-1.4.6-2.1-2.5-3.7-.7-3.7 3.4-8.1 6.6-11.5 10.6 4.9 1.1 10.5 2 15.6 1.1 2.2-.7-.1-4.2 2.1-3.9.9 2.7 1.1 5.7 2.7 8.1-1.2 1.4-1.7-1.2-2.9-1.4-8.2-1.2-17-1.5-24.8-3.6l.7-1.5c5.6-5.6 11.7-11.1 17.2-16.6.3-.9-.2-2.5 1-2.5l1.1 2.4zM54.7 163.525v.5c-1.6 0-3.9.2-4.6 2.2-.9 1.7-1.4 3.7-1.4 5.7 2.5 1.2 5 2 7.9 2.4 1.4-1.2 1.1-3 1.4-4.6-.4-1.4-1.9-1.9-2.2-3.2 2.2.9 5.5.2 7.7 1.7 0 1.1-1.6.3-2.2.9-2 1.1-2.1 3.4-2.4 5.4 2.1 2 5.6 2 8.5 2.9 2.5-2.1 2.2-6.1 1.4-9.1-.4-1.2-1.4-2.2-1.6-3.5 1.7 0 3.1.9 4.4 2.2 2.4 4.7-1.7 9.1-2.2 13.7-.5 1.6-.2 3.5-1.1 5-1.6-.4-.9-3.4-3.1-3.5l-16.7-4.1c-2 0-2 2.5-3.5 3l-.2-.5c1.9-5.9 3.1-12 4.7-18.1 1.3.4 4-.2 5.2 1z" fill="#fff"/><path d="M422.9 172.225l-1.7-2.1c-1.9 3.9 3.6 6.4 1 9.9-1-.7-1.6-3.2-2.9-3.9-1.6 3.6 2.6 6.2.4 9.1l-2.1-4.6c-1.2 2.4-.3 5.5.2 8-.4.6-.6 1.2-1.1 1.9-.6-1.4-1.1-3.6-2-4.6-.7 2.7-.5 5.7-.1 8.7-2.7-2.7-3.2-7.5-2.5-11.7 1.5-6.6 5.9-12 7.6-18.5 2.1 1.8 3 4.8 3.2 7.8zM19.9 164.925c2.6 11.9-9.7 17.6-16.1 25.8-1.4-2-1-5.9-.3-8.2l.9 2.4c3-2.6-.9-7.1 2.7-9.5l.9 4.6c1.5-2 2-4.6 2-7.5l1.2-1c.4 1.4.1 3.2.3 5 2-1.5 2.2-4.6 2.6-7.2.6-.7 1.4-1 2.1-1.5-.1 1.6-.4 3.4-.3 5 2.1-2.3 2.9-5.5 4-7.9z" fill="#ffd500"/><path d="M383 185.125c.1.4.4.7.3 1.2-.1.4-.5.3-.9.3-.4-.5-.5-1.1-1-1.5-3.2 1.1-6.1 4-8.5 6.6 3 1 5.9 2.7 9.2 2.2 1.7-.6 0-3.7 2-3.2.3 3 1.5 5.9 1.2 8.6-1-.5-1.5-2.5-3-2.9-6.2-1.2-12.9-6.1-19.3-1.9-1.5 1 0 4-1.7 4-1.5-3.9-.6-8.9-2.6-12.6 2.1-1.1 1.4 3.2 4 2.6 7.2.9 11.1-6.4 16.6-9.7 1.6-.6-.2-5.2 2.1-2.9l1.6 9.2zM64.8 189.225c4.2 6.4-.5 13.5-.1 20.5l-.5.2c-.7-1-1.4-3.1-3.1-3.2l-16.2-2.4c-1.2-.1-2.7.9-3 2.2-.3.4 0 1.2-.7 1.1-.7.1-.5-.7-.6-1.2 2.5-8.5-.5-22 11.2-23.8 5.3-.1 10.4 1.9 13 6.6z" fill="#fff"/><path d="M16.2 191.525c-2.4 6.7-8.9 11.4-12.9 17.3-1.1-1.6-1.7-3.9-1.7-6.1.7.1.6 1.5 1.2 2 2.1-2.9-1.2-7.6 1.7-10l1 4.6c1.1-1.7 1.7-5 1.2-7.7.4-.6.7-1.5 1.5-1.6.1 1.6.6 3.1.6 4.9 1.6-.4 1.6-2.9 2-4.5.2-1.5-.7-3.6 1.4-4.4.1 1.7.1 3.9.5 5.6 1.9-2.6 2-5.9 2.9-8.9 2.3 2.1 1 6.2.6 8.8zM426 190.425l-1.2-1.5c-1.9 3.6 3 6.1.3 9.6-.9-1.2-1.2-2.9-2.4-4.2-2.2 4 3.2 7.9-.6 11.1l-2.1-5.9c-2.7 3.5 1.7 8.2-1.5 11.5l-1.9-6.2c-2 2.6-.1 6.6-.5 9.7-.1.1-.2.3-.1.4-1.5-.5-1.5-2.4-2.2-3.6-2.1-10.9 5.9-18.7 10-27.6 1.6 1.8 2.1 4.3 2.2 6.7z" fill="#ffd500"/><path d="M63.7 193.025c1 1.4 1.2 3.4 1.1 5-.5 1.2-.7 3.1-2.4 3.4l-17.8-2.7c-1-.2-1.5-1.2-1.2-2.2.1-1.7.9-3.7 2.2-5.2 3.4-3.1 8.4-3.2 12.6-1.9 2 .6 4.2 1.6 5.5 3.6z" fill="#004481"/><path d="M14.7 212.225c-3.2 5.7-7.7 10.9-11.4 16.2-1.5-2.4-2.2-5.4-1.7-8.5.7.3 1.1 1.7 1.9 2.5 1.9-3.1-1.9-6.1.2-8.9l2 4.2c.7-1.5.4-3.5.4-5 .2-1.5-1.1-3 .7-4 .9 1.4.9 3.2 1.7 4.7 2.2-2.5-.9-7 2-9.2.7 1.6.7 3.5 1.5 5.1 1-2.2 1.4-5 1-7.5l.5-1.1c2.4 3.4 2.5 7.8 1.2 11.5zM427.4 214.525c-.6-1-.5-2.4-1.4-3.2-1.6 3.1 1 7.1-1.6 10-.5-1.4-.7-3-1.5-4.5-1.9 2.6.7 7.4-2.2 9.6l-1.4-4.6c-1 2.1-1.1 4.7-1 7.4-.2.5-1 1.1-1.4 1.5-.5-1.5-.3-3.6-.7-5.2-1.5 1.7-1.6 4.4-1.5 6.9-3-11.4 7-18.8 11.2-27.9 2.5 2.2 2.5 6.5 1.5 10z" fill="#ffd500"/><path d="M382.5 213.525c-1.6 2.6 1 6.9-2.2 8.9.5-1.9-.6-3.2-2.1-4.1-1.4-.4-2.1-1.9-2.5-3.1 2.6 1.9 4.3-1.9 6.8-1.7zM55.3 224.225c-1.2 2.7-5.4 2.1-6.6 5.5-3-3 2.2-5.6-.5-8.6 1.6-1 3 1.6 4.7 2.6.8.4 1.7.4 2.4.5z" fill="#fff"/><path d="M5.2 248.125c-1.7-2-2.6-4.6-2.6-7.5l1.2 2.5c1.6-3.7-1.7-7.5.6-10.7.9 1.5 1.1 3.5 1.9 5.1 2.2-3.6-2.2-8.4 2-11.2 1 1.6.7 3.9 1.4 5.7 1-2.6 1.1-6.1 1.1-9.1l.5-.6c.9 1.9.7 4.1 1.5 6.1 1.1-2.1 1.2-4.6 1.1-7.2 4.4 10.5-4.5 18.7-8.7 26.9zM427.8 232.425c-.6-.5-1-2-1.4-3.1-2.5 2.5 1.1 7.2-2 9.9l-1.4-5c-2.4 2.9.7 7.7-2.6 10.1-.5-1.6-.2-3.7-.7-5.5-2.7 2-.2 7.1-3.4 9.4-.5-1.2 0-3.7-.4-5.5-1.1 0-1.6 1.7-1.9 2.9-.1 2-.1 4-1.1 5.6-5.1-11.5 7.7-18.7 13.4-27.3 1.7 2.2 2.5 5.7 1.5 8.5zM15.4 253.925c-1.7 5.1-5.4 9.4-6.5 14.7-2.2-2.2-4.1-6.1-3.6-9.4.6.6 1.2 2.5 2 3.6.7-2.4-.1-5-.5-7.4-.4-1-.6-2.4-.1-3.4l.4-.4c.5 2.1 1.5 4 2.2 6 .4-2.2.4-5.5 0-7.9-.4-.9-.9-2-.3-2.9 1 1.5 1.6 3.7 2.5 5.6l.2-.4c.4-3.5-.7-6.2-.1-9.5l.1-.1c.6 1.6 1.2 3.5 1.7 5.2.9-2.7.3-6.2.6-9.2 3.8 3.9 3.3 10.9 1.4 15.5z" fill="#ffd500"/><path d="M368.9 239.525c-.6.7-2.1.9-3 1.7-1.5 1.1-2.5 2.9-2 4.9.7 1.4 2.4 1.9 3.6 1.1 2.5-2.6 3.9-8.2 8.4-7.1 1.9.2 3.9 1.2 4.7 3.1 1 2.9.1 6-1.5 8.4-1.5.7-3.6.5-5 .5v-.5c2.1-.6 4.4-2 5.5-4.2.5-1 .6-2.6-.1-3.5-.9-1.2-2.6-1.6-3.7-.7-2.7 2.7-4.2 9.2-9.6 7-1.2-.5-2.6-1.9-3.1-3.1-1.2-3.1 1.2-5.5 1.6-8.1l4.2.5z" fill="#fff"/><path d="M425.7 249.925l-.9-2.2c-3.1 2.2 1 6.9-2.5 9.1-.7-1.2-.3-3.2-1-4.5-1.7 1.9-1.7 4.6-1.2 7.1-.4.6-1 1.5-1.7 1.7l-.6-4.7c-4 1.6 1.1 8.2-4.1 8.9l-.7-4c-3.4 1.7.5 6.7-4 7.9-1.2-1.2-.7-4.1-.4-6 1.7-8.6 11.7-12.9 16.7-19.8.7 1.7.9 4.4.4 6.5z" fill="#ffd500"/><path d="M65.4 251.625l-.4.2c-1.6-2.2-4.2-.6-6.6-.7-2.9 1-6.5 1-8.4 4.1-.7 1.7-.5 4 .4 5.6 2.7 4.9 8.6 1.7 12.7 1.4 1-.4 2.5-.7 3-2.1 0-.5-.1-1.1.1-1.6h.4c.1 2 1 3.9 1.1 5.7-2.1-2.5-5.4-.4-8-.1-2.7.6-6.1 1.6-8.5-.3-3-1.9-3.4-5.2-3.9-8.4-.1-2.1.9-4.6 3-5.9 3.6-1.4 7.5-2 11.4-3 1.7-.3.1-4.1 1.9-2.4.2 2.8 1 5.2 1.8 7.5zM368.3 253.825c1.7 1.5 1.7 4.1 1.2 6.1-.6.7-.5 2.1-1.6 2.1.4-1.1.4-2.6 0-3.9-1.1-1.4-2.6-1.9-4.2-1.9-1.4.1-2.9 1.5-3.2 2.9-.4.4-.1 1-.3 1.5 4.2 2.1 8.9 3 13.4 4.4 1.2.1 2.1-1.2 2.7-2.1l.3.5c-.6 2.6-2 5-2.4 7.9-1.1.1-.3-1.2-.9-1.7-4.4-1.9-8.9-3.4-13.6-4.2-1.4.1-1.5 2.1-2.5 2.1.9-3.7 1.9-7.9 3.2-11.7.9-1.4 2.1-2.7 3.9-3.1 1.6-.4 2.8.2 4 1.1z" fill="#fff"/><path d="M20.5 269.025c-1.9 6.7-4.7 13.1-6.7 19.6-1.6-1.4-2.9-3.4-3.2-5.5l1.7 1.5c1.7-3.5-3.4-5.6-1.7-9.2 1.1.9 2.1 2.2 2.9 3.5 1.1-2.7-.6-5.1-1.9-7.2.2-.7.5-1.5.9-2l2.5 3.9c3-3.6-4-6.4-.1-9.7 1.4.6 1.6 2.5 2.7 3.1 2.2-3.2-3.9-6 0-8.7 2.5 2.4 3.3 6.7 2.9 10.7zM421.6 262.225c1.2 3 .5 6.7-.5 9.5l-1.5-2.1c-1.1 2.6-.1 6.1-2.6 8.1-.7-1.6-.1-4-1.1-5.6l-2.6 8.9c-.4.2-.6.4-1 .6-.1-2.2.3-5-.4-7.2l-3.1 9.6-.7.5c.1-2 .5-4.2-.2-6.1-1.7 2.7-2 6.7-4.5 9-2.8-12.7 11.4-17.7 18.2-25.2z" fill="#ffd500"/><path d="M70.7 271.025c-2.1 4.9-4.9 9.7-6.5 14.6 3.1-.6 6.7-1.6 9-4.1 0-.9-.1-1.9.1-2.6 1.1 1.6 1.6 4.1 2.4 6-1.5-1.6-4.1-.7-5.7 0-3.9 1.7-7.9 3.2-11.7 4.5 2.2-6.1 5.7-11.7 7.7-18l-.2-.3c-3.6 1.7-8.2 2.2-10.7 5.5.1.7.3 1.9 0 2.5h-.5c-.7-2.2-1.6-4.5-2.1-6.5 2.2 2.7 5.5 0 8-.6 2.7-1.9 9-1.4 7.7-6.6 1.4 1.5 1.4 3.8 2.5 5.6zM362.9 273.825l.5 2.4c3.1-.9 7.7.5 9.4-2.7.7.5.4 1.2.5 2 0 1.6-1.1 3.4-2.7 3.9-2.7 1.1-7-.6-8.9 2.1 1.7 1.5 4.2 3.2 6.7 2.5l1.4-1.4c.9 1-.6 2-.7 3-1.2 1.6-1.4 3.7-2.6 5 .1-1.4-.9-2.6-2-3.1l-11.2-4.9c-1.1 0-1.9 1.2-2.5 1.9-.6-1.5 1-3.1 1.6-4.6 1.5-3.2 2-8.2 6.4-8.9 1.7 0 3.4 1.2 4.1 2.8z" fill="#fff"/><path d="M361.5 277.625c0 1.2-.1 2.6-1.1 3.5l-5.9-2.6c-.6-1.5.7-3 2.1-3.5 2.1 0 4.4.2 4.9 2.6z" fill="#004481"/><path d="M25.9 286.725c-.9 6.9-3.6 13.1-4.6 19.8-3-1.2-4.7-4-5-7.1l2.5 2.4c.9-3.9-4.4-6-2.5-9.9l3.1 3.9c.5-1.1 0-3-.7-4.2-.9-1.7-2.6-4-.9-6 1 1.6 1.9 3.2 3 4.7 1.2-3.6-3-6.6-1-10 1 1.6 1.5 3.4 2.7 4.9 1-1.4.2-3-.1-4.4-.7-1.4-1-3.2-1-4.7 2.9 2.6 4.9 6.2 4.5 10.6zM416.1 282.625c.5 3.5 0 6.9-2 9.5-.1-1.2.5-3.1 0-4.4-1.9 2.6-2.9 5.5-3.7 8.6l-1.5 1.1c.1-1.9 1-4.1 1.1-6.2-2.1 2.2-3.9 5.5-4.9 8.6-.2.3-.6.5-1 .5l1.2-6c-2.2 2.1-3.2 5.7-5.1 8.2h-.5c.5-1.7.9-3.6 1.4-5.4-2.1 1.9-3.4 5-5.1 7.5h-.4c-1.2-12.2 13-16.2 20.5-22z" fill="#ffd500"/><path d="M80.4 294.125c-.7.7-1-.9-1.9-.6-4.1 1.6-8 3.9-12 6-1.6.9-.7 2.5-1 3.9-2-2-2.4-5.2-4.2-7.5.7-.9 1.2.7 2.1.6 4-1.6 7.7-4 11.5-5.9 1.6-.9 1.5-2.7 1.2-3.9 2.1 1.9 2.8 5 4.3 7.4zM362.2 292.925c1.7 3.6.9 7.9-1.5 10.9-1.6 1.9-3.6 3.2-6 3.5-3.9.1-7.6-1.9-9.2-5.2-1.4-1.9-1.4-5-.6-7.2 1.4-3.7 4.7-7.1 8.9-7.4 3.4.1 7 1.9 8.4 5.4z" fill="#fff"/><path d="M361.3 297.325c.5 1.2.3 2.9-.4 4-1.7 2-4.6 2.6-7.1 1.9-3.2-1.1-7-2.7-7.9-6.6-.3-2 .9-3.7 2.6-4.6 4.9-1.6 10.5.6 12.8 5.3z" fill="#004481"/><path d="M29.8 324.125c-3.4-1.6-5.2-5-5.7-8.4l2.6 2c.1-3.4-3.9-5.9-2.7-9.5l3.1 3.2c.5-1.4-.5-3-1-4.4-.6-1.6-2.1-3.4-.9-5.2l3 3.6c1.1-3.1-2.9-5.7-1.5-9 1.1 1.1 1.9 3 3 4.4.1-1.1.4-3.1-.4-4.2l-1-2.4c7.2 8.6 1.5 20.2 1.5 29.9z" fill="#ffd500"/><path d="M91 309.825c-.6 1.2-2.1 2-3.1 2.6 1.4-2.1.5-4.5-1-6.2-1-1.6-2.2.3-3.2.7l-9 6.4c-.9 1.2.5 2.9 0 3.7-1.9-2.5-3.7-5.5-5.9-8.2l.4-.3c1 .6 2.2 2.1 3.5 1.4 3.7-2.6 7.6-5.1 11-8-.5-1.5-1.5-3.1-3-4l-2.5.1c.2-1 2.1-1.7 3.4-2.2l9.4 14z" fill="#fff"/><path d="M408.6 301.325c.2 2.9-.2 5.7-1.6 8v-2.9c-3.4 2.4-1.7 7.4-6 8.7.4-1.7 1-3.6 1-5.2-3.9 2.1-2.4 8.5-7.6 8.5.6-1.9 1.1-3.9 2-5.6-2.2 1.6-4.1 4.2-5.2 6.9-.5.1-.7.6-1.2.4.6-1.9 1.1-3.9 2-5.7-2.1 1-3.5 3.4-4.7 5.4 1.1-10.8 13.5-13.8 21.3-18.5z" fill="#ffd500"/><path d="M345.1 305.525c-1.1.4-3.4 0-4.7.5-2.1.4-3.9 2.4-4.5 4.2-.7 3.7 2.6 6.4 5.4 8.1 1.7.7 4 1.5 6 .7 1.6-.4 3.1-2.1 3.7-3.6.5-1.7.4-3.6.1-5.4 2 1.5 1.4 4.4 1.1 6.6-.9 2.2-2.6 4.4-4.7 5.7-2 .9-4.2 1.1-6.4.4-2.7-1-5.2-3.1-6.4-6-1.6-3.5-.3-7.6 2.2-10.4 1.2-1.2 3.7-1.4 4-3.5 1.4 1 2.9 1.7 4.2 2.7z" fill="#fff"/><path d="M40.7 341.325c-2.2-.5-4-2.9-5.1-4.9l1.7.7c.5-3.6-5.4-4.4-4.4-8.5 1.4.7 2.6 2 4 2.7.6-4.1-6-5.7-4.2-10.2 1.5.7 2.7 2.9 4.4 4.2.6-1.4-.5-3-1.1-4.4-.7-2.1-4-3.6-2.4-6.4 1.7 1.1 2.6 3.2 4.5 4.4.5-3.2-2.2-5.6-3.9-8.2l.3-1c10.8 6.6 5.7 20.9 6.2 31.6z" fill="#ffd500"/><path d="M101.4 322.625c-1 1-1.9 2.6-3.4 2.6.6-1.1 1.4-2.5.6-3.9-1-1.1-1.6-2.7-3.1-3.2-1.6 1-3.5 2-4.6 3.7.1 1.2 1.5 2.2 2.5 2.9h2.4c-1.4 1.5-2.5 2.9-4.5 3.7 1-1.1.7-2.5.1-3.6-.6-1-2.1-2.9-3.2-1.1-1.1 1.5-3.4 2.1-3.7 4 1.1 3 4.4 4.4 7.5 4.5 0 .6-1.4 1.4-2.2 1.6-4.7 0-5.4-5.6-8.9-8.1-.6-.5-1.7-1.1-1.6-2.1.9 0 2 1 3 .1 3.5-3 7.5-5.6 10.4-9.2l-.5-2.5.9.4 8.3 10.2z" fill="#fff"/><path d="M400.1 319.325c0 3.1-1 6.1-3.2 8.5v-3.4c-1.1.5-1.9 2.2-2.5 3.6-.3 1.5-.6 3-2.2 3.6l.5-4.6c-1.9 1.5-3.2 4.1-4.1 6.4l-1.7.6c.1-1.5.9-3.5 1-5.1-2 1.5-3.6 3.9-4.5 6.1-.6.4-1.2.7-2 .6.4-1.7 1.2-3.4 1.2-5.1-2 1.7-3.9 3.7-4.6 6.2-.4 0-.6.4-1.1.3.4-12.7 14.7-13.4 23.2-17.7z" fill="#ffd500"/><path d="M103.1 324.325c4 4.9 12.5 8.4 10.2 15.8-1 2.6-3.4 5.1-5.9 6-7.1 2.9-12-4.7-16.3-8.9h2.5l9.4-10.1c.4-1.1-.7-2.1-.7-3l.8.2zM325 328.725c-1.1-.4-2.6-1.4-3.9-.3-.9 1.1-3.7 2.2-2.5 4l3.7 3.6c1.9-1 3.2-3.1 2.4-5.1 1.1 1.4 3.4 2.1 3.9 4-1.1-.4-2.6-.6-3.6.4-.5.7-2 1.4-1.5 2.5 1.9 1.5 2.9 4.4 5.2 4.2 2.6-1.9 3.9-4.6 3.7-7.6 1.1.1 1.4 1.5 1.9 2.4-.1 3.7-4 5.1-6.1 7.6l-3.5 3.2c-.2-.6.6-2-.1-3-3.2-3.2-6.2-7.4-9.7-9.9-1.1-.4-1.9 1.4-2.7.6 3.1-3.4 6.9-6.1 9.7-9.6 1.2.7 2.9 1.4 3.1 3z" fill="#fff"/><path d="M52.5 357.125c-2.5-.6-4.6-3.1-6.1-5.2l2.4.7c.3-3.9-6-4.4-5.2-8.4 1.5.3 2.7 1.7 4.2 2.4.4-3.2-4.5-4.9-4.2-8.1 1.5.6 2.6 2.1 4 3 .4-3.5-4.4-5.6-3.4-9.1l3.5 3.4c-.3-2.9-1.7-5.5-3.4-8 11 5.9 6.2 18.7 8.2 29.3z" fill="#ffd500"/><path d="M110 332.725c.9 2.7-.1 5.4-1.5 7.5-1.6 2.2-3.9 4-6.6 4.2-2 0-3.7-1.2-4.7-3v-1.7l9.5-10c1.7-.1 2.5 1.9 3.3 3z" fill="#004481"/><path d="M390.1 336.025c-.1 2.2-1 4.2-2 6.2l.1-2.7c-3.7 1.9-2.2 7.4-6.7 8.1.5-1.6 1.4-3.4 1.5-5.1-2.4 1.9-3.9 4.2-5.1 6.6-.6.2-1.2.7-2.1.6.6-1.7 1.7-3.5 2-5.2-3.6 1.1-3.9 6.1-7.5 6.5l2.6-5c-2.9.7-4.9 4.1-7.1 6h-.4c.1-4.6 4.6-8.6 8.6-10.6 5.1-2.5 10.9-3.3 16.1-5.4z" fill="#ffd500"/><path d="M311.1 336.425c-2 2.6 1.2 5 2.4 7.2 2.1 2.9 4.4 5.6 5.9 8.9-6.5-.7-12.5-2.2-18.8-3.2l-.4.4c2.2 3.1 3.9 7 7.2 9.2l2.9-.6v.6c-1.9 1.2-3.7 2.4-5.5 3.7.1-1.1 1.2-2.6.2-3.9-3-3.4-4.6-8.1-8.6-10.5-.9 0-1.4.6-2.2.6.5-2 3.2-2.2 4.5-3.9l15.7 2.6.4-.3c-1.9-2.6-3.4-5.5-5.9-7.6-1.4-.5-2.2 1-3.4.4 1.5-1.4 3.9-2.5 5.6-3.6z" fill="#fff"/><path d="M65.8 369.825c-2-.2-4.1-1.5-5.9-3 .9.4 1.7-.6 2.5.6-.6-3.9-6.7-3.9-6.4-8.2 1.5.7 2.9 1.7 4.4 2.4-.7-2.5-3.2-4.9-5.4-6.7.1-.7-.4-1.1-.1-1.9 1.6.9 3 2.2 4.6 3-.3-2.6-2.9-4.9-4.9-6.9.1-.5-.1-1.1.2-1.6l4.1 3.5c-.5-2.9-2.4-5.6-4.4-8l.2-.6c11 4.7 9.1 17.5 11.1 27.4z" fill="#ffd500"/><path d="M134.7 350.525c-.2 1.4-1.1 3.1-1.9 4.4 0-3-1-6-3.7-7.2-1.5-.3-2.7.9-3.2 2.1.7 4 6.6 6.4 4.2 11.1-.9 1.7-2.6 3-4.4 3.6-2.7.4-4.7-.9-6.6-2.6-2.7-1.6-.1-4-.1-6.1l.5-.3c.2 2.6.4 5.5 2.6 7.2 1.1.5 2.7 1.1 3.7 0 4.1-4.4-4.4-6.9-3.2-11.4 0-1.9 1.2-3.4 2.9-4.4 1.6-.4 3.2-.5 4.7.2 1.9.9 2.5 2.9 4.5 3.4zM292.3 349.725c.2.7-.6 1.2-.6 2 1.4 4.6 4.1 8.7 6.9 12.9 1 .4 2 .3 2.9-.1.1 1.4-1.9 1.5-2.7 2.2-1.6.4-3 1.7-4.6 2.4-.9-.7.7-1.2.6-2.1-1.5-4.1-4-7.9-6-11.9-.9-1.5-2.5-1-3.7-.9v-.5c2.2-1.5 4.8-2.5 7.2-4z" fill="#fff"/><path d="M376.1 358.825l.4-2.6c-4.1.7-2.7 6.7-7.4 6.7.5-1.6 1.6-3 1.9-4.7-3.5.5-3.6 5.9-7.4 5.7.7-1.5 1.9-2.9 2.4-4.5-3.4.4-4.5 5.6-8.4 5.2l2.9-4.2c-2.7.4-5.1 3-7.4 4.9 3.6-12 17.5-10.5 27-13.8-.2 2.7-1.8 5.2-4 7.3z" fill="#ffd500"/><path d="M152.4 359.625c-.4 1.2-.5 3.1-1.6 3.6.3-1.9-.9-3.9-2.7-4.6-1.1-.9-2.9-.5-3.1 1l-5.1 10.9c-.4 1.6 1.6 2.2 1.7 3.4-3-1.5-6.2-2.9-9.1-4.6 1-.9 2.6 1 3.6-.5 2.2-4.1 4.5-8.2 6.1-12.7-1.5-1-3.5-2.5-5.4-1.5l-1.4 1.1c0-1.2 1-2.6 2-3.6 4.9 2.6 10.3 4.6 15 7.5z" fill="#fff"/><path d="M80 382.825c-2.9-.6-5.6-2-7.6-4.6 1-.1 2.2.7 3.2.5-1-3.2-5.5-2.9-6.2-6 1.5 0 3 1 4.5 1.2v-.5c-1.6-2.7-5.5-3.4-5.9-6.4 1.5.4 3.2 1.4 4.9 2-.5-3.2-5.6-4.4-5.5-7.9 1.7.6 3.1 1.6 4.7 2.2-.9-2.1-2.7-4.4-5-5.7v-1.2c12.7 2.8 9.8 17.1 12.9 26.4z" fill="#ffd500"/><path d="M284.5 358.925c.6 1.5.4 2.9-.3 4.2-.2.5-.6.9-1 1.2 2.5 1.9 5.1 5.9 8.7 4.9.4 1.5-1.6 2.1-2.6 2.9-4 1-6.4-3.2-9.5-5.1-.6-.3-1.5.1-1.7.6.5 2.2 1.1 4.6 3 6.1.7.5 1.7-.4 2.4.1-2 1.9-5.4 1.7-7.6 3.6l-.5-.2c2.5-2.1-.1-4.7-.6-6.9-2.1-3-1.2-9.6-6.5-8.7 1.6-1.6 4.5-1.7 6.5-3.1 2.8-1.7 7.7-3.4 9.7.4z" fill="#fff"/><path d="M281.1 360.925c.2 1.2.6 2.7-.4 3.9-1 .5-1.7 1.5-3 1.4-1.1-2-1.9-4.1-2.4-6.5.5-.6 1.1-.7 1.7-1 1.8-.3 3.2.9 4.1 2.2z" fill="#004481"/><path d="M161 380.325c.3.6 1.1 1 1.2 1.6-2.6-.1-4.9-1.9-7.5-2.5.5-.7 2.2-.4 2.1-1.9 0-1.7.1-4.5-2.2-4.5-2.1-.7-5.9-2.7-6.5 1.2-.5 1.2.7 2.2 1.5 3l-.2.2c-1.9-.7-3.9-1.7-5.7-2.2.1-.7 1.5-.4 2.1-.9 4.2-4.4 8.5-9.1 13.2-12.7l.5.9 1.5 17.8zM272.8 377.425c.4.4 1.4-.1 1.6.5-1.9 1.4-5.1 1.4-7.4 2.7-.6-.7.9-1 .7-1.7-.3-1.5-1.7-2.5-2.7-3.6-2.2.7-5.1.9-6.7 2.7.1 1.4-.4 3.7 1.7 4h1.6v.5c-2.1.6-4.2 1-6.1 1.9-.4-.7 1.1-1.2 1.1-2 .6-6.1 1.1-12.2 2.4-18l.5-.5c4.7 4.3 8.7 9.3 13.3 13.5zM182.4 368.625c.7 1.4-.1 2.7-.1 4.2-.6-.4-.7-1.5-1.1-2.2-1.2-1.6-3.2-2-5.1-1.9-1.4 4.4-2.6 8.7-3.4 13.4 0 1.6 2.1 1.9 2.5 3-3-1.1-6.9-1.4-10-2.6 1.1-1 3.1.3 3.7-1.7 1.2-4.2 2.4-8.7 3-13.1-1.5-.7-3.1-1.5-5-.9-.9.3-1.1 1.5-1.9 1.6.1-1.2.4-2.7 1.2-3.7 5.5 1 10.9 2.9 16.2 3.9z" fill="#fff"/><path d="M156.4 371.925c-1.6.1-3.1-.9-4.6-1.5 1.2-1.5 2.5-3.4 4.2-4.2l.4 5.7z" fill="#004481"/><path d="M367.3 366.425c-.5 2.4-1.9 4.4-3.7 5.9l.1-1.9c-3.6 1-3.2 6-7.4 6.1.4-1.5 1.6-3 2-4.6-4.4.4-4.4 7.4-9.5 6.2 1.1-1.9 2.7-3.5 3.6-5.4-3.2 0-5.2 3.9-7.7 5.6h-2.1l3.6-5.2c-1.2-.1-2.9.7-4 1.7-1.6 1.1-2.6 3.6-4.6 3.9 4.1-12.1 18.9-10.3 29.7-12.3z" fill="#ffd500"/><path d="M250.9 367.425c-.7.6-2.2 1.5-1.9 3l2.5 12.1c.6 1.1 1.9 1.4 3 1.5v.4c-2.5.7-5.5.5-7.9 1.4l-.4-.3c2.7-1.2.6-4.4.6-6.5-.5-1.7-.9-3.6-1.4-5.4l-.9 1.5-3.1 11.4c-3.1-3.1-5.1-7.2-8-10.7l-.3.4c1 3.7-.6 9.6 4.1 10.7v.2c-2 .1-4.1.9-6.1.9 2.5-1.5 1.5-4.4 1.5-6.9-1.5-3.5 1-10-4.6-10.4 1.6-.9 3.7-.7 5.7-1.1 3.1 3.4 4.9 7.4 7.7 10.9 1.9-3.5 2.7-8 4-12.1 1.6-1 4-1.1 5.5-1zM198.3 370.825c.7 1.1.5 2.9.4 4.1l-.5.3c-.1-1.5-1.2-3.2-2.9-3.5-1.2 0-2.6-.6-3.7 0-.5 1.9-.7 4-.9 5.7 1 .6 2.4 1 3.6.6.9-.4 1-1.6 2.1-1.6-.2 1.9-.1 3.9-.7 5.6-.3-1.9-2.1-2.9-4-3-2.7.5-1.5 4.2-2.2 6.4.1 1 1.2 1.4 2.1 1.5 2.5.1 5-.6 6.9-2.5.3 1.1-.1 2.4-.9 3.2-3.6 2.6-7.4-.6-11.2-.4-1 .1-1.7-.1-2.6-.2.1-1.1 2-.9 2-2.2l1.7-12.7c-.3-1.4-1.4-1.9-2.5-2.4 2.6-.9 5.5.7 8.5.9l4.8.2z" fill="#fff"/><path d="M263.5 373.925l-4.5 1.5c-.2-2 .1-4.1.6-6 1.2 1.5 3.2 2.8 3.9 4.5z" fill="#004481"/><path d="M95.9 394.625c-2.6-.1-5.2-1-7.2-3l2.4.6c-.7-1.9-2.9-3.5-4.6-4.5-1.9-.1-2.1-2.1-2.6-3.4 1.6.9 3.5 1.5 5 2-1.5-4-7.6-4.2-6.7-8.9 1.7.4 3.2 1.9 4.9 2.7-.9-2.9-4.2-5-5.7-7.5 1.9.1 3.5 1.9 5.2 2.9-.4-2.2-2.6-4.1-4.2-5.7 10.4 4 9.9 16.2 13.5 24.8z" fill="#ffd500"/><path d="M211.9 372.425c1 1 .7 3.1.7 4.5-1.4-1.9-3.5-4.9-6.5-4-1.1.1-1.7 1.4-1.9 2.2.6 4.2 5.9 2.4 8 5.4 1.4 1.7 1.9 4.7.7 6.7-1 1.7-2.7 2.6-4.5 3-2.1.1-4-.1-5.7-.9-.6-1.5-1.1-3.1-1.4-4.7 1.4.4 1.6 2.1 2.7 3 1.5 1.1 3.4 2.2 5.4 1.2 1.6-.7 2-2.6 1.4-4.1-3-2.9-10.1-2.5-9-8.6.5-1.7 1.9-3.4 3.6-4.1 2.2-.6 4.7.3 6.5.4z" fill="#fff"/><path d="M352.5 380.525c-1 3.2-3.9 6.4-7.1 7.5.1-1 1.1-2 1.6-3.1-3.2.6-5.2 5-9 4.7.4-1.2 1.9-2.6 2.6-4-3.4 0-5.1 4.7-9 4 .5-1.2 2-2.5 2.9-3.9-3.2-.3-5.1 4.4-8.5 3.4 1-1.5 2.6-2.4 3.6-3.7-1.4-.4-2.9.4-4.1 1.1l-2.1 1.6c6.8-8.7 19.3-6 29.1-7.6zM113.1 405.725c-3.5-.1-6.6-1-9.1-3.6 1.2-.2 2.7 1 4.1.7-2.2-2.4-4.9-4.1-7.5-5.4-.6-.4-.9-1.1-1-1.9 2 .9 4 2 6 2.2-2.2-2.4-4.9-4.7-7.7-6.2l-.3-.9c1.9.2 3.9 1.9 5.7 2.1-2.1-2.5-4.9-4.6-7.1-6.6v-.5l5.1 2.2c-1.4-2.4-4.7-4.4-6.4-6.9 12.8 2.1 13 16.3 18.2 24.8zM130.8 415.125c-1.9.5-4.4-.1-6.1-1.1l1.9-.1c-.7-3.6-5.7-1.2-7.1-5.1 1.1-.2 2.7.3 4 .1-1.4-2.5-3.9-3.1-6.4-3.1l-1.2-2.1c1.5-.3 3.1.4 4.6.6 0-1.4-1.5-2.1-2.6-2.9l-3.4-.7c-.5-.9-.9-1.9-1.1-3 1.4.1 2.9.4 4.1.2-1.1-3.9-6.6-1.2-6.4-5.6-.3-.6.4-.4.5-.6 12.5 1.6 13.1 15.5 19.2 23.4zM337.2 392.925c-1 2.9-3.4 5.4-6.4 6.2.7-1 1.4-2.1 2-3.1-3.5 0-5.1 5.4-9 4.6.5-1.2 2.4-2.6 3.1-4.2-3.7-.3-5.7 5.5-9.9 3.7 1.4-1.2 3-2.6 4.1-3.9-1.1-.4-2.6.4-3.9 1.1-1.7.9-3.5 3.4-5.9 1.7 1.4-1.4 3.5-2.1 4.2-3.7-3.1-.6-5.4 2.9-8.5 3 6-11.2 20.1-4.8 30.2-5.4zM320.9 403.525c-.6 2-3 3.6-5 4.4.5-.7 1.4-1.4 1.2-2.1-3.5-.9-4.7 4.6-8.4 3.6.1-1.4 1.9-2.4 2.7-3.5-1-.4-2.6 0-3.7.6-1.7.7-2.6 3.9-5 2.2.9-1.5 2.2-2.5 3.2-3.6-4.1-1.9-5.2 5.4-9.5 2.2.1-1.2 2-2.2 2.6-3.2-2.1-.2-4.4.5-5.7 2.4l-3-.7c7.7-10.4 20.1-1.8 30.6-2.3zM149 421.725c-2.6 1-6.4.9-8.6-1 1.1-.1 2.1-.5 3.4-.4-1.7-3.2-7.4-.6-9-4.6 1.6 0 3.6.2 5.2.1-2.1-3.2-7.6-1.4-8.6-5.6 1.6.5 3.6.7 5.4.9-1.7-3.5-6.7-2.1-8.1-5.9 1.7.1 3.7 1.1 5.6.9-1.7-2.7-5.2-2.9-7.5-4.9 1.2-.9 3.6-.3 5.2.1 8.8 3.4 11.4 13.7 17 20.4zM303.8 411.825c-2 2.6-4.7 4.6-8 5.1l.7-2.4c-1.9.5-3.9 1.7-5.7 3l-1.9-.3c.7-1.6 2.7-2.6 3.5-4.2-3.1.7-6.1 3.4-9.6 2.7 1.6-1.5 3.9-2.7 5.5-4.6-3.2.9-6.7 2.6-10.1 3.1l-.4-.3c1.6-1 3.6-2 4.7-3.9l-9.4 2.2-.4-.4c2.1-2.7 5.7-4.6 9.5-4.6 7.7.7 14.2 3.6 21.6 4.6zM167.6 426.725c-2.7 1.6-7.2.9-9.9-1.1.4-.6 2.4.1 3.2-.5-2.5-2.1-6.7-1.1-9-4.2 1.2-.9 3.4.4 4.9-.5-2.4-2.6-7-1-8.6-4.6 1.4-.5 3.2.4 4.9-.1-2-2.6-6.5-1.5-7.9-4.7 1.7-.1 3.6.6 5.2.5-1.5-1.7-3.6-2.6-5.7-3.1 11-.2 15.6 11.8 22.9 18.3zM187.8 430.325c-1.9 1-4.6 1-6.9.5l1.6-1c-2.6-2.9-6.9 1.4-9.2-2.4 1.6-.4 3.2-.5 4.7-1.1-2.6-3.1-8.2 1-10.4-3.5 1.6-.7 4.4 0 6.2-.6-2.2-2-5.6-2.4-8.9-2.6-.6-.6-1.4-1.2-1.5-2 1.9-.1 4.4.2 6.2-.4-2.4-2.9-6.7-1.4-9.4-3.2 4.4-2.6 9.7 0 13.6 2.6 5.2 4 9.4 9.1 14 13.7zM283.5 419.225c-2.1 2.6-5.2 4.2-8.9 4.4 1.2-.9 2.5-1.6 3.7-2.5-3.1-.1-6.1.9-9 1.9l-1.9-.4c1.4-.9 3.6-1.9 5.5-3l-.2-.2c-3.2.2-6.5.5-9.4 1.6-.4.1-.7-.1-1-.3 1.6-1 3.7-1.6 5.5-2.9l-.3-.2c-3.5-.3-6.7 1.5-9.7.9 1.6-.9 3.6-1.4 5.2-2.4-3.1-.1-6.6.1-9.6.2 3.1-3.6 8.4-3.6 13-3 6 1.7 11.3 4.4 17.1 5.9zM264.1 424.625c-2 2-4.6 3.1-7.4 3.5l2.4-1.5c-3.6-1.7-6.9 2.5-10.5.3l4.9-2.2c-2.5-.5-5.7-.5-8.1.6-1.4 0-2.1-1.2-3.2-1.6 1.6-.9 3.6-1.4 5.5-2-2.7-1.2-6.6-.1-9.5-.5l-.2-.2c1.9-.9 3.9-1.2 5.9-2-1.9-.9-5.1-.7-6.9-.5 9.9-5.3 18.5 2.8 27.1 6.1zM207.2 431.925c-2.4 1.4-5.2 1-8 .9l2.2-1.2c-2.9-2.6-7.2 1.7-9.5-1.9 1.5-.5 3.1-.6 4.6-1.4-2.1-1.4-5.4-1.2-8-1.2-.4-.4-.9-.7-.9-1.2 1.6-.2 3.4-.2 5-.6-2.4-2.6-7.2-.4-9.2-3.6 1.6-.4 3.5.1 5-.5-2.4-1.5-5.1-2.4-8.1-2.6 3.5-2.1 8.7-.7 12.1 1.1 5.3 3.1 9.8 8.6 14.8 12.2zM244.6 428.325c-2.1 1.9-5 3-8.2 2.7.2-1 2-1.1 2.4-2.2-3.2-1.4-5.7 2.1-8.5.7.7-1.1 2.6-1.5 3.9-2.6-2.9-.9-6.4 1.2-9-.1 1.2-.9 3-1.5 4.5-2.2-2.9-1.9-6.7 1.4-9.2-1.2 1.5-.6 3.2-1 4.7-1.9-1.4-.9-3.6-.9-5.4-.6-1 0-2.2.7-3-.1 2.6-2.5 7.1-3.5 10.7-2.1 6.1 2 11.3 6.7 17.1 9.6zM225.4 430.425c-1.6 1.1-3.6 1.9-5.7 2.2-.1-.7 1.4-.7 1.9-1.4-3.2-2-7.1 2.1-10.4-.6 1.5-.6 3.4-1 4.9-1.9-3-1.1-5.9-.6-8.9-.5-.4-.5-.9-.5-1.2-1 1.9-.6 3.7-.9 5.5-1.7-2.5-1.4-5.2-1-8.1-.9-.7-.1-1-.6-1.4-1.1 1.7-.4 3.7-.5 5.4-1.1-2.6-1.2-5.5-1.9-8.6-1.7l-.5-.5c10.1-5.1 18.7 5.2 27.1 10.2z" fill="#ffd500"/><path d="M243.3 105.725c1 .1 1.7-.9 2.7-1-.2 4.5-1.5 10-6.2 11.7-2.9.6-5.1-1.1-7.6-1.7-3.4-.5-6.2 1.2-9.5 1.6-8.7 1.4-17.3-.5-25.6-1.6-2 .1-4.6 0-5.5 2.2-.2 1.2.5 2.2 1.4 3 .7 1.1 2.1 1 3.2 1.2l1.7 1.5 1.5-.9 5.5-.6c3.9-1.2 8.5-.2 11.5 2.5 3.4 4.9 2.5 11.6 6.1 16.3.7 1.2 2.2 1.4 3.5 1.2 1.3-.2 2.5-.6 3.1-1.9.7-1.6-.5-3-.4-4.7 0-2.9 1.9-5.5 4.1-7 4.5-2.7 10-.3 14 1.9 5.5 2.7 11 6 16.5 8.6l-.1.5c3.9 2.2 8 4.1 12.1 6 .4.2-.2.4-.2.7 4.7 2.4 10 3.7 15.1 5.4l-.9.9.6.5c3.9 1.1 8.1 1.7 12.4 2.1.3.3.9.4.5.9-1.5 2.1-3.6 2.6-5.7 3.4-1.6 2-3.9 2.5-6.2 2.9-1.6 1-3.2 1.6-5.2 1.6h-3c-3.4 1.9-7.7 2-11.6 1.2-2.6-.6-5.4-1.5-8.1-.9-1.9.7-3.4-.5-4.9-1.1l-4.4-2.6-4 1.4c-1.2 1-2.7 1.6-4.5 1.4-.7 1-1.7 1.5-3 1.5l-1.6-.3c-1.1 1.2-3 1-4.5 1.1-.9 1-2.6 1.1-3.7.6-.9.5-1.7 1-2.7.5-1.4-1-1.7 1.2-3 1.4.1 1 .4 2.1.5 3.1 4 4.2 10.7 8.1 10 14.5-.4 1.4-1.9 2-3.1 2.4-.9-.4-1.6.5-1.7 1.2 0 1.1 1.2 1.2 1.9 1.9l3 1.2c1.1-.9 2.6-1.2 4.2-1.2l2.6 1.1c1-.4 2.2-.6 3.1-.1l2.2 1.7c2.1-.1 4 1.1 5 3h.4c.3-.7-.6-1.2-1-2-1.4-.6-2-2.1-2.5-3.4.1-.6.1-1.7-.7-1.7-1-.5-1.2-1.6-1.7-2.4l.9-2.5-2.1-4.5.1-.5c2.7-2.2 5.7-4.2 8.9-5.9 2.5 1.6 4.9 3.7 7 5.9.5.7 1 1.4 1 2.4 1.5.4 2.2 1.9 2.9 3.1l-.1 1.2 7.2 9.7c.5.4.9 0 1.2-.2.4-1.1-.3-2.2-.1-3.5-.1-2.1.5-4.1 1-6.1-1.1-1.2-1.7-2.7-1.7-4.6.1-1.1.4-2.2 1.2-3 .7-.7 1.9-.9 2.9-.6.6-1 1.5-2.1 2.7-2.1l2 .2c1.6-.5 3.6-.4 5.1.4 6.9-.9 13 2.4 16.5 8 3.1 5.1 2.4 12.6-1.1 17.2-1.9 2.9-4.9 4.7-7.9 5.9-.4.7.3 1.7-.1 2.5-.4 1.6-1.6 3.4-3.2 3.9-.4 1-.2 2.1-.5 3.1-.6 1-1 2.1-.9 3.5.6 1.4 3.4 2.4 2.2 4.5 1.1 1 2.2 2.5 2.7 4l-.4 1.5.9 3.5c-2.7 2.9-6.1 4.7-9.4 6.7-2.1-.5-3.5-2.9-5.9-2.7-1.4-1-1.7-2.9-3.4-3.5-1.1-1.4-.9-3.4-2.5-4.5l-4.4-5.2c-1.4.3-3.1.9-4.6 0-1.5-.5-2.9-2.1-3.5-3.5-1.2-.3-2.2-.9-3.4-1.4l-.3.2c3.2 9.4 3.6 20.8.7 30.6l.1.3c-1.9 5.9-4.6 11.2-8 16.5-3.2 3.7-6.9 7.7-10.9 10.6l-4.1 3c-11.2 6.7-26.7 9.1-39.9 5.4-10.5-2.9-19.7-9.4-26.8-18.1h-.7c-1.6 1-3.4 1.9-4.5 3.4-.1 2.1 2.1 2.6 3 4.2l1.1 2.4.3 2.6c1.6 1.9 2.5 4.9 1.5 7.2 1 1.9 1.5 4.5.6 6.6l.4 1.9c4.1 1.6 8.7 2.1 13.5 1.9l.3-.3c-1.7-3.9-3.4-7.7-4.5-11.7l.7.1c11.2 3.9 25.1 6.5 37.3 3 .7-.4 1.6-.6 2.5-.3l.1 1c-4.4 8.6-11.9 16.7-20.5 21.5-5.2 3-10.5 5.6-16.1 7.5v-.7c1-3.1 2.4-6.1 2.7-9.5l-.5-.3c-7.9 1.9-16.3.6-24.1-.6-1.2 1.5-2.9 2.5-4.6 2.6-2.4-.7-4.7.1-7.4 0-1.1-.1-2.1-.4-3-1-2 0-4.2.2-6-1l-1.6-1.5c-2.7-.4-5.7-1.4-6.9-4-.1-1.9-2.5-1.1-3.5-2.1-1.4-.7-2.4-2.1-2.5-3.7-1.7-1.1-4-1.9-4.9-4 .1-1.6-1.2-2.4-2.1-3.5-.9-1.6-3-.7-4.5-1.1-1.6-1.6 1.4-2.9 1.6-4.4l.4-.7c-1.7-1.6-2.1-4-2.2-6.2-1.2-1.6-1.9-3.7-1.4-5.9.9-2-.1-4.6.6-6.7-.5-1-1.5-2-1.4-3.4-1.7-2-3.1-4.1-2.9-6.9-1-1.9-2.4-3.7-2-6.2.5-1 .7-2.1 1.5-3-.6-2.2-.9-5.2 1-7l.6-.4c.1-2.4 1.1-4.4 3-5.9l.9-2.4 2.2-2.1c.7-1.9 2.7-2.7 4.7-3 1-1.4 2.5-1.9 4.1-1.9l1.9.1 2.9-.3c.5-.7 1.4-1.5 1.1-2.2-2.9-.4-5.6 0-8.4.1.5-2.6 2.5-4.9 4.5-7.1 7.7-6.9 16.5-12.2 26.8-13.4 4-.3 8.2-.5 12.1.5l.1.1c-2.1 2.5-4.2 5.2-6.1 7.9-5.1 7.7-9.4 15.8-10.2 25.3-2.7-2.4-5.1-5-8.1-6.9-.3 0-.5.2-.5.5 1.1.9 2.4 2.2 2.4 3.9 1.2 1.1 2.4 2.5 2.4 4.2-.1 1.4-.5 2.5-1.2 3.5.5 1.5.3 3.2-.4 4.5l-1.7 2.2c-.3 2.1-2 4-3.9 5.1 1.4 3.6 4.4 8.1 8.7 8.4h1c-.3-1-1.2-1.7-1.5-2.7-.4-1.4-.3-2.7.2-4-.5-2.5-.5-5.6 1.7-7.1.3-1.9.4-3.6 1.7-4.9 1.7-1.2 1.2-3.9 3.5-4.6.9-.7 3 .5 3.2-1.1.5-10.1 3.5-19.5 9.1-27.5.7-.1.7-1.4 1.4-1.9 5.4-7 12.5-12.5 20-15.8.1-.7-.3-1.6-.6-2.5-1.1-.2-2.4-.5-2.9-1.7-.9-3.6 2.5-6.1 4.5-8.7 1.7-1.9 3.9-3.4 5.7-5.1-.1-1.4.1-2.6.4-3.9-.7-.6-2-.9-2.7-1.9-1.1.3-2.6.5-3.5-.2-1-1.5-3-.1-4.1-1.4-.7-.7-1.7 0-2.6-.1-.9-.3-1.7-.5-2.6-1.1-2.1.7-4.5.1-6.2-1.2-1.9.5-3.5-.4-5-1.2-2.2.7-4.6 2.4-7.2 1.2-1.9-.6-3.9 0-5.6.5-4.1 1.1-8.1 2.5-12.7 2.6-1.7.1-3.1-1.1-4.5-1.9-1.4.1-3 .6-4.4-.1l-1.7-1.4c-2.6.5-5-.4-6.7-2.4-1.4-1.7-3.7-1.7-5.4-3.4-.3-.5.1-.9.6-1 4.2-.6 8.4-2 12.4-3.2.4-.4-.1-.6-.3-.9l.6-.4c4.5-1 8.9-2.6 13-4.5 0-.1-.4-.4-.1-.6 3.7-1.4 7.2-3.2 10.7-5.1l.4-.4c-.1-.3-.6-.4-.3-.6 7.2-3.2 14.3-6.9 21.7-10 4-1.2 9.6-3.4 13.2.3 1.4 1.7 2 4.2 1.1 6.5-.9 1.2-1.6 2.9-.6 4.2.4 1.4 1.9 2.1 3.1 2.1.4.1.6-.2.5-.5-.9-4.9.4-9.6 2.2-13.7 0-.5-.5-.4-.7-.4-1.4.2-1.4 2.7-3 1.9-.5-.4-.4-1-.5-1.6-2.6-1.9-5.6-3-8.6-4-3.7-2-6-6-5.6-10.2.4-3 3.1-5.9 5.9-7.4 6.4-3 13.9-.4 20.5.2 7.6.9 15-.6 21.8-2 2.6-.3 5.5.1 6.9 2.6.4.9 1.4.4 2 .3 1.7-.7 1.5-3 2.1-4.5 1 1.1 1.2 2.4 1.7 3.4z"/><path d="M235.9 106.225c1.5 2.5-.2 5.2-1.4 7.4-1.1.5-2.4-.2-3.6-.1-4 .5-7.5 2.1-11.7 2.1-6 .5-11.4-.5-17-1.2-3.5-.7-8.9-1.7-11.4 1.6-.5 1-.5 2.5.1 3.5.3.9 1.7 1.4 1.6 2.2l-2.7 1.2c-3.2-1.2-6.2-4.5-6.4-8.2.1-2.7 1.6-5.1 3.7-6.7 6.5-4.6 15.3-1.2 22.7-.6 5.6.3 11.1 0 16.3-1.2 3.1-.9 7.1-1.9 9.8 0zM242.8 108.225l1.9-1.4c.1 1.4-.6 2.7-1 4.1-.7 1.7-1.9 3.7-3.9 4.5-1.5.5-3-.1-4.2-.7l-.1-.2c1.1-1.9 1.7-4 2.5-6.1 1.6.1 3.4-.7 4.1-2.2.5.4.2 1.5.7 2z" fill="#fff"/><path d="M200.9 109.225c0 .4-.4.5-.6.5-.5 0-.4-.5-.3-.7.3-.3.9-.2.9.2z" fill="#fff"/><path d="M216 124.425c2.9 4.7 2.4 11 5.2 15.7-.5.2-1.1-.4-1.7-.7l-1.2-1.9c-.6.6-.5 1.9-1.4 2.5-1.6-1.2.5-2.7.7-4.1l.2-2-1.5-2.2.4-3.4c0-.4-.6-.5-.9-.3-.7.6-1.1-1.1-2-.7-.3.6-.5 1.5-1.2 1.9l-1.5-1.4c-.6.2-.3 1.1-.6 1.5-.7.4-1.1 1.9-2 1.4l-.7-1.1c.6-.6 1-1.6.5-2.5-1-2-4.2-.6-4.6-3.2-.5-.6-1.1 0-1.9-.1 0 1.1 1.6 1.9 2.5 2.6 1 .6 3.1.3 3 1.9-1 .9-1.5-1.1-2.5-1-2 .2-3.4-1.7-5.2-.7l-1.4 1.2c-.4-1.5 0-3.2 1.1-4.4 1.7-1 4.1-.9 6-.6.9.9.7 2.5 2.2 2.6.9.1 1.5-.7 2.4-.9.5.3 1.1.1 1.6-.1l.1-.1c-1.4-1.1-3.6-1-5.1-2.2 2.5-.7 5.1 0 7.2 1l2.3 1.3z" fill="#ffd500"/><path d="M197.4 124.025l-.5 1.9c-1.6-.7-3.2-1.6-4.7-2.5.9-.9 2.2-1.5 3.6-1l1.6 1.6z" fill="#fff"/><path d="M246.7 130.525c.1.6-.7.7-1.2.9-1.5.5-3-.1-4.2-1-.6.4-1.1 1.5-2.1 1.2-1.1.1-2-1-3-1.1-.7.9.7 2.1-.7 2.6-.4.1-1 .1-1 .6.5.7.5 1.5-.1 2.2l.5 1.6c-.6.6-1 1.5-1.2 2.5-.4.5-1.4.1-1.6.7.1.6.1 1.5-.6 1.6-1.4-.4-1 1.2-1.9 1.5-.9-1-1.5.2-2.1.6-.4.4-.7-.3-1.1-.4-.6.4-1.2 1.7-2.1.6-.9-1-.9.7-1.5.7l-1.9-.7c-.7.5-1.6 2.1-2.7 1.5l-1.6-.7c-.5.6-.9 1.7-1.7 2.1l-2-1.9c-.7 1-1.9 1.6-3 2.1-.9-.4-1.5-1.2-2-2.1-1.1.4-1.4 1.9-2.5 2.4-1-.5-1.4-1.6-1.7-2.6-.5-.1-.9.5-1.5.3-.7-.1-1.4-.7-1.9-1.2-.7.1-1.6 1.1-2.4.1-.1-1.1-1.1-.7-1.9-.6-.6-.4-1-1.1-1.9-1.1-.4-.4-.4-.9-.5-1.5-.4-.4-1.4-.1-1.4-1 .5-.6.1-1.5-.5-1.7-.4-.7.6-1 .4-1.6-.4-.6-1.7-.6-1.2-1.6 1-.6.4-1.5 0-2.2 0-.7 1.1-1.2.6-2.1l-2.4.1-2.2-.7c-1.9.9-4.9 1.6-6.5 0 3.1-1.7 6.9-2.7 10.7-2.6 1.4.3 2.6.9 3.5 2 .9 1.4 1.4 3.1.9 4.9l-1.4 2.5c0 1.6.5 3 1.5 4.2 1.6 1.5 4.1 1.5 6 .7.5-.2 1.1-.7 1.5 0 .6-.1 1.1-.7 1.7-.6.5.5.1 1.7 1 2l2-1.2c.5.4.6 1 1.1 1.2l1.4-1.1 1 .9 1.6-1.5 1.4 1.6c.9-.6 1-1.9 1.9-2.5l.7.7 2-1.9c2.6 1.9 6 3 9.1 2 1-.4 2.1-1.2 2.4-2.2.7-2.4-1.1-4.5 0-6.7 1-3 3.6-5.1 6.7-5.4 3.6-.3 6.5 1.4 9.6 2.9z" fill="#ffd500"/><path d="M203.1 128.525c-1.4 3.6-2.1 8.1-1 12-.6.5-1.4.9-2.1.9-1.2-4.6.1-9.6 2.2-13.5.4 0 .9.1.9.6z" fill="#fff"/><path d="M215.6 130.025c-.1 1.2-.6 2.6-1.5 3.5-.6-1-1.1-2.5-.4-3.7.4-1.2 1.5-.5 1.9.2zM208.5 132.025c.4 1 .1 2.2-.9 2.7-1.6-.9-1-2.7-1.6-4.1l-.4-1.1c1.3.4 1.9 1.8 2.9 2.5z" fill="#ffd500"/><path d="M205.4 133.625c-.4 2.1-.6 4.4-2.2 5.9-1-3-.4-6.9.9-9.6 1.2.6 1.3 2.2 1.3 3.7z" fill="#e53138"/><path d="M212.2 131.325c0 1.1-.7 2.2-1.7 2.7-.7-.4-1-1.4-.9-2.1l1.7-1.9c.8 0 .8.8.9 1.3zM180.2 132.125c-2.5 1.7-5.4 2.6-8.1 3.9.3.5 1 .4 1.5.4 2.6-.9 5.1-2 7.5-3l.2 1.2c-4.7 3-10 4.9-16.1 4.9-1-.1-2.1-.1-2.9-.6 5.1-2.9 10.6-5.2 16-7.7.7.1 1.4.6 1.9.9zM251 132.625c3.1 2 6.5 3.4 9.6 5.4-5.1 1.6-10.7-.1-14.5-3.5l.3-1.4c1.9.7 3.6 2.5 5.7 2.5-1.4-1.6-3.5-2-5-3.6l.7-.7 3.2 1.3zM189.4 132.425c.1.6.3 1.5.5 2.1-.4.7-.6 1.9.1 2.6.1 0 .4.2.3.5-1.2.2-3.1.1-4-1-.1-.7.4-1.5.1-2.1-1.2.1-2.9.6-4.1-.1-.2-.6-.1-1.1.1-1.7 1.4-.5 2.9-.4 4.1-1l2.9.7zM245.2 132.625c.2.2.2 1 0 1.2-1.6.9-3.6.2-5-.7l-.3-.3c.3-.5.9-.6 1.2-1 1.5.3 2.6 1 4.1.8zM240.4 134.925c-1.1 1-3 1.2-4.4.7-.4-.4-.2-.9-.4-1.4.7-.5 1.1-1.2 1.5-1.9 1.3.5 2.3 1.6 3.3 2.6zM216.9 134.325c-.1 1-.4 2.1-1.2 2.7-.5-.5-.9-1.1-.7-1.9-.1-.7.5-1.2.9-1.9.5.1.7.7 1 1.1zM213.7 135.125c.1 1-.3 1.7-.6 2.5-.7.1-1.4-.7-1.9-1.2-.5-1.2.7-1.9 1.2-2.7.8.2 1 .9 1.3 1.4zM210.2 135.825c-.1.7-.1 1.7-.9 2-.5-.4-1.2-.9-1.1-1.6.1-.5.6-.9 1-1.2.5-.1.9.4 1 .8zM243.3 135.425c.1 2.5-3 1.7-3.9 3.7l-2.2.6c.1 1.2-1.2 1.5-2.1 1.9 0 1 0 2.4-1.1 2.7-2-.4-1 2.5-3 2.5-1 .3-1.9-1.2-2.7-.1-.4 1-1 2.2-2.1 2.6-1 .1-2-.1-2.7-.6.2-.9-.6-2 .4-2.6.7-.1.7.7.7 1.2 0 .3.1.7.5.7 1.1-.4.1-2.1 1.2-2.5.5.3 1.1.1 1.6 0 .6-1.4 2.5-.1 2.9-1.7 1.1-.5 2.1-1.2 2.5-2.5 1.2-.3 1.4-1.6 1.9-2.4.7-.5.2-1.9 1-2.1 2.1.3 4.2-.1 5.7-1.6l1.4.2zM207.2 137.125c-.5 1.1-1.6 2.5-2.7 2.7.9-1.4 1.1-3.1 1.9-4.5.6.5.7 1.2.8 1.8z" fill="#ffd500"/><path d="M255.8 139.625v.2c-3.9 1.6-9.1.5-12.9-1.2-.3-.6.6-.7.9-1.1 1.7.9 3.6 1.7 5.6 1.7-1.4-1.2-3.5-1.5-4.9-2.9-.1-.4 0-.9.5-1 3.3 2.2 6.7 4.2 10.8 4.3zM183.5 135.925c-1.6 1.4-3.6 2-5.4 3.2v.1c2.7.2 4.6-1.7 6.9-2.7.5.1.4.7.6 1l-.1.4c-4.4 2.9-10.5 5.1-15.7 2.6v-.2c4.4-1 8.6-2.5 12.4-4.7.5-.1 1.1-.1 1.3.3zM215.1 138.425c0 1.2-.5 2.5-1.2 3.2-.5-.6-.9-1.7-.5-2.5l1.1-1.5c.2.2.6.5.6.8zM212.1 139.625c-.1.7-.5 1.4-1.1 1.9-.7-.5-.7-1.5-.9-2.4.2-.5.5-1 .9-1.2.6.2 1.4.9 1.1 1.7zM209 139.025c-.3 1 1 1.9 0 2.7h-.5c-.4-1-1.4-2.2-.7-3.2.4-.4.9.1 1.2.5zM190.3 139.125c-.4.7-1.5.7-2.4.9-.5-.1-1.4-.3-1.4-.9-.1-.4.1-.6.5-.7 1 .5 2.4.1 3.3.7zM252.9 141.925c-4.2 1.5-9.7 1-13.5-1.2.6-.4.9-1.4 1.6-1.7 3.6 1.9 8 2.6 11.9 2.9zM273.1 144.625c.1.5-.5.5-.9.6-5.6.5-10.5-1.7-15-4.5-.1-.4.6-.6.9-.7 2.6 1.2 5.1 3.2 8.1 3.1-1.9-1.6-4.5-2-6.4-3.5.2-.5 1-.3 1.5-.5 4 1.8 7.8 3.6 11.8 5.5zM187.7 141.025c.4.5-.3.6-.5.9-2.1.5-4.7 1.4-6.7 0l.4-.4c1.6-.4 3-1.5 4.5-2.1.4.8 1.4 1.3 2.3 1.6zM162 140.425c-.9.7-2.2 1-2.6 2.1 1.7.2 3-1.1 4.5-2l2.5.1c-1.9 1.5-4.4 2.5-6.5 3.6-2.6.9-5.7 1.9-8.4.9l.6-.5c3.1-1.5 6.1-3 9.2-4.7.3 0 .9.1.7.5zM207 141.025c-.1.5-.6.9-1.1.9-.4-.5-.3-1.5.5-1.5.3-.2.5.3.6.6zM191.4 141.625l.7.6c-.5.4-1.5.3-2.1 0-.5-.2-.9-.6-1-1.1.4-.5 1.1-.7 1.7-.6l.7 1.1zM169.6 141.925c-1.6 1.5-3.9 2-5.7 3.5l.1.3c2.6-.4 5-1.7 7.2-3.2.5 0 1.1.1 1.4.4-3.2 2.2-6.9 4-10.9 4.7-1.9.1-3.9.3-5.2-1 4.1-1.2 8-3.1 11.6-5.5.6 0 1.2.3 1.5.8zM241.7 142.725c-.4 1-1.4.9-2.2 1-1.1-.1-2-.6-2.9-1.1.3-.6 1-.9 1.5-1.4l3.6 1.5z" fill="#ffd500"/><path d="M269.5 146.525c-.6 1.5-2.4 1.6-4 1.6-4.9 0-8.9-1.9-12.7-4.1l-.5-.5c2.2-1.9 4 1.6 6.4 1.9 1 .4 2 .6 3 .7v-.4c-2.1-1.2-4.6-1.9-6.5-3.6.1-.3.5-.6.9-.7 4.2 2.3 8.4 4.7 13.4 5.1zM178 142.425c-.6 1.1-2 1.5-3 2.2-.5.2-1.5.4-1.6 1.1 2.6.4 4.4-1.7 6.4-2.9l1.9.7c-3 2.4-6.5 3.7-10.2 4.5-1.5.1-2.9-.1-3.9-1l.3-.4c2.5-1.1 5-2.5 7.2-4.1 1.1.2 2-.1 2.9-.1zM190.8 143.625c-.4.6-1.2.9-2 1-1.4.2-2.7-.1-3.6-1 1.2-.4 2.6-1.5 4-.7l1.6.7zM249.7 147.425c.1-.1.4-.1.5-.1-.3.6.7.9 1.2 1.2-2.5 1.5-6.1.7-8.5-.7-1.1-.6-2.1-1.5-3-2.5.3-.6 1.2-.6 2-.6 1.4 1.1 3.1 2 4.9 2.5v-.4l-4-3c.4-1 1.6-.1 2.4 0 1.5 1.2 2.8 2.6 4.5 3.6zM260.3 148.625l.1.1c-3.4 1.2-6.7-.5-9.5-1.9-1.4-.7-2.6-1.6-3.7-2.7v-.2c1.4.1 2.9-.6 4 .2 2.8 1.9 5.8 3.6 9.1 4.5zM194.4 144.625c-.2.7-1.1 1-1.7 1.2-.7.2-2 .2-2.4-.4l2.5-1.7c.6.2 1.2.3 1.6.9zM238.6 144.925c.1.6-.6 1.1-1.1 1.4-.9.1-1.5-.3-2.1-.7-.5-.6.5-1 .6-1.5.8-.4 1.7.4 2.6.8zM184.2 144.625c-.9 1.2-2.5 1.9-3.7 2.7.2.6 1.5.3 2.1 0l2.7-2c.7.1 1.5.4 2.1.6-3.5 3-8.6 5.2-13.2 3.1l-.1-.2c1.9-.9 4-1.6 5.9-2.6l3.4-2.2c.3.1.6.2.8.6zM196.9 145.625c0 .7-.7 1.2-1.2 1.4-.6.1-1.2.1-1.7-.2.5-.5 1.2-1.5 2.1-1.6.3-.2.7.2.8.4zM235.4 147.025c0 .7-.6 1.4-1.4 1.6-.6 0-1.4-.4-1.5-1 .5-.5.5-2.1 1.6-1.7l1.3 1.1zM199.8 146.425c-.6.9-1.5 2-2.7 1.6-.3-.6.7-1.1 1-1.7.5.1 1.8-.9 1.7.1zM287.6 151.125c-2.9 1.5-7 .9-10.2.4-2.6-.6-5.2-1.7-7.5-3.2.1-.5.5-1 1-1.1 3 1.7 6.2 2.7 9.7 3.2v-.1c-2.5-1.7-5.9-1.9-8.4-3.7.7-.6 2-.6 2.9 0 4 1.9 8.5 2.9 12.5 4.5zM222.2 147.425c.1 1.4-.6 2.5-1.4 3.5-.7-.2-1.5-1-1.6-1.7v-1.6c.7-.6 1.6-2 2.6-.9l.4.7zM152 146.625c-1.2 1.1-3.4.9-4.6 2.2.7.6 1.7-.1 2.6-.1l5-1.6c.1.1.6.2.5.6-4.7 2.6-10.7 4-16.3 2.6l11.1-4.1c.5 0 1.2.3 1.7.4zM192 147.225c-1.2 1.9-3.4 3.2-5.5 4-1.6.4-3.5.3-5-.5 2.1-1.1 4.6-1.9 6.5-3.6 1.2-1.9 2.5.5 4 .1zM245.2 150.125c-.5.6-1.6.6-2.6.7-2.2-.1-4.1-1.7-5.7-3.2.3-.5 1-.1 1.5-.5.7-.9 1.6-.5 2.2.2 1.3 1.2 3 2.2 4.6 2.8zM204 149.125c-.3.5-.4 1.5-1.2 1.1-1-.6-1.9-1.9-1.7-3.1.5-.4 1.1-.3 1.6-.3l1.3 2.3zM218.1 148.425c.5 1.2-.6 2.4-1.5 3-.7-.6-2.2-1.1-1.9-2.4 1.1-.4 1.4-2.2 2.6-1.7l.8 1.1zM213.5 148.925c0 1.4-.9 2.4-2 3.1-1-.1-1.6-1.1-2.1-1.9.3-1.5 2-1.7 3.1-2.6.6.1.9.9 1 1.4zM166.6 148.125c-1.1 1.4-2.9 2-4 3.2 2.1.7 3.5-1.6 5.2-2.5.5 0 .9.1 1.2.4-1.9 2-4.5 3.2-6.9 4.7-2.6 2.2-6.9.6-10 1.9-6.6 1.1-12.5 4-19.3 4.4-1.5-.1-2.9-1-3.7-2.1v-.1c6.9-.2 12.9-2.6 19.2-4 2.7-.9 5.7.9 8-1l9.5-5.4c.4 0 .6.3.8.5zM232 148.725c-.1.5-.6.9-1.1.9-.9.1-1.9-.3-2.2-1 .1-1.9 1.9-.4 2.9-.5l.4.6zM208.5 148.925c-.1 1-.2 2.1-1.2 2.6-.7-.3-1.4-1-1.7-1.6.5-.9 1.1-2.2 2.1-2.1l.8 1.1zM196.3 149.025c-2 1.9-4.2 4-7 4.5-1.2 0-2.6 0-3.5-.9.6-.4 1.7-.3 2.4-.9 1.9-1 3.6-2.2 5.1-3.9.8.7 2.3-.1 3 1.2zM200.3 150.125c-2.2 2.4-5 6-8.7 4.7-.3 0-.5-.1-.6-.5 2.5-1.5 5-3.5 7.5-5.5l1.5-.7c.1.6.9 1.4.3 2z" fill="#ffd500"/><path d="M161.3 148.725c-2 1.5-4.4 2.7-6.7 3.7-1.6.7-3.4-.3-5.1.3-6.9 1.1-13 3.9-20.2 4-1.6 0-3.1-.4-4.2-1.4l.5-.3c4.2-1.1 8.6-2.1 12.6-3.6 6.7 1.4 13.5 0 19-3.2 1.1.5 2.8.5 4.1.5zM240.6 151.625c-.1.7-1 1.4-1.7 1.6-2-.3-3.7-1.6-5-3.2.6-.4 1.5-.6 2.1-1.2 1.6.7 2.9 1.9 4.6 2.8zM273.6 151.425c4.2 1.7 9.7 2.4 14.3 1.1 4.1 1.4 8.6 2.2 13.2 2.5 0 .9-1 1.1-1.6 1.5-4 1.9-9.2.6-13.4-.1l-9.2-2.4c-1.5 0-2.6.6-4 .6-3.9-1.1-7.4-3.1-10.7-5.1.4-.9 1.4-.5 2-.1 3 1.6 6.1 3.6 9.7 3.2-2.4-1-5-1.7-7.2-3.1.1-.4.9-.5 1.5-.6 1.8.6 3.6 1.7 5.4 2.5zM172.6 149.625c-.7 1.4-2.4 1.9-3.4 3.1v.1c1.9.1 3.1-1.5 4.6-2.5.4 0 1 .1 1.1.5-3.1 3.1-7 5.1-10.9 6.7-1.9.6-3.4-.3-5.2-.3-4.5.7-8.5 2.4-13 3.2-2.9.4-5.6 1.5-8.6 1-.3-.1-.4-.2-.5-.4l.6-.5c6.1-1.4 11.7-3.5 18.1-4.2 2.1-.1 4.4 0 6.2-.9 3.4-1.7 6.6-4 9.7-6.4.5.5 1.1.1 1.3.6zM271.3 158.125c2.5-.7 5.1-.4 7.5.4l10.1 2.6v.3c-4 1.4-8.2-.1-12-1-2.4-.5-5-1.9-7.6-1-2.4.6-4.2-.5-6.1-1.1-5.1-2-9.6-5.1-14.5-7.6.3-.4 1-.4 1.5-.3 3.1 1.7 6.4 3.6 9.9 4.6.2 0 .5 0 .6-.1-2.6-2.2-6-2.9-8.7-4.9v-.3c6.5 2.5 12.5 6.4 19.3 8.4zM228.5 150.625c-.4.5-1 .7-1.6.5-.1-.3-.5-.3-.5-.6.6-.4 2.1-1.3 2.1.1zM223.6 151.225c-.1 1-.1 2.1-.9 2.9-.9.1-1-.9-1.2-1.5 0-1 .7-2 1.5-2.6.7-.1.6.7.6 1.2z" fill="#ffd500"/><path d="M272.5 155.625c2.1 0 4.5-1.1 6.6 0 5.1 1.5 10.4 2.7 16 3-.1.6-.7.9-1.2 1-1.9 1-4.4.4-6.2 0l-12-3c-1.5-.2-2.9.3-4.2.4-5.2-1.5-9.9-4.4-14.7-6.6 1-.1 2.2.1 3.2-.2 4.3 1.4 8 4.1 12.5 5.4zM234.9 152.625c.4.4 1.2.6 1 1.2-.4.9-1.4.7-2 .4-1.2-.7-2.2-2-3.1-3.1.2-.5 1-.6 1.5-.9 1 .7 1.5 1.7 2.6 2.4zM202.8 152.525c-1.2 1.5-2.1 4-4.4 4.2-1.1.3-2-.2-2.9-.6l.1-.5c2.1-1.2 4.1-3.1 5.9-5 .5.6 2 .8 1.3 1.9zM220.3 152.225c.1 1.1 0 2.6-1 3.4-1-.6-2.4-1.5-2-3 .5-.6.9-2.1 1.9-1.6l1.1 1.2zM206.4 152.625c.3 1.1-.1 2-.9 2.6-.7.1-1.1-.7-1.5-1.4-.5-.9-.1-2.1.5-2.9.4-.4.6.1.7.2l1.2 1.5zM247.3 151.125c6.2 3 12.1 7.4 18.8 9.2 2 .5 3.7-.2 5.9-.1l8.9 2.4c-2.6 1.2-6.2 1.1-9 .7-3-.5-6-1.9-9.2-1-1.4.6-2.5-.2-3.6-.7l-15.1-9.5c.6-.5 1.6-.6 2.4-1.2l.9.2zM179.9 151.525c-3.6 4.5-8.5 7.7-13.9 9.1-2.1-.4-4.6-1-6.9-.1-4.5 1.1-8.7 2.9-13.7 3-.9-.2-1.9-.4-2.4-1 3-.7 6.2-1.5 9.2-2.4 2.9-.7 5.9-2.1 9-1.4 3.4.7 6-1.4 8.7-2.7 2.4-1.4 4.5-3.1 6.6-4.9 1.1.1 2.2-.1 3.4-.1v.5zM216.2 153.425c0 1.2-.9 2-1.9 2.7-1.2-.5-1.9-1.9-2.1-3.1.5-.7 1.2-1.1 1.7-1.9 1.1.4 2.3 1 2.3 2.3zM233.6 155.325c.4.7-.6 1.1-1.2 1.4-1.9-.6-3.1-2.7-4.1-4.4.1-.5.7-.6 1.1-1 1.4 1.3 2.6 2.9 4.2 4zM211.5 153.825c-.1 1.2-1.6 1.9-2.5 2.4-1-.9-1.7-2.1-1.4-3.4l1.1-1.1c1.2.4 2.2 1.2 2.8 2.1zM182.8 152.625c-1.2 1.9-3.1 3.2-4.7 4.7.6.3 1.5-.4 2.2-.7 1.4-.7 2.5-2.4 3.7-3.4.2.1.6.2.7.5-2.4 2.6-5.1 5.5-8.5 6.5-1.4.4-3 .1-4-.7 1.2-1.2 3-1.9 4.4-3.2l4.5-4.2c.7-.1 1.4 0 1.7.5zM227 152.425c.9 1.6 2 3.2 3.5 4.5.1.4-.4.9-.7.7-2.2-.9-3-3.4-4-5.4l.1-.2 1.1.4zM242.4 152.625c3.4 1.9 6.6 3.7 9.7 6.1-.1.7-1.4.7-2 1-3.9-.2-7-3.4-9.7-6.1.5-.5 1.2-1.5 2-1zM227.8 157.825c.1.4-.4.6-.6.7-1.4.3-1.5-1.4-2-2.1-.1-1.2-1.4-2.5-.5-3.6 1 1.7 1.8 3.4 3.1 5zM239.3 154.325c2.9 2.1 5.5 5 8.7 6.4-.4.6-1.2.6-1.9.6-3.5-1-5.6-4.2-8.2-6.7.3-.3.9-.4 1.4-.3zM188 154.625c-.5 2.4-2.1 4.5-4.1 6-1.6 1.1-4.1 1.7-5.9.6l-.1-.1c3-1.9 5.6-4.4 8.2-6.7l1.9.2zM222 156.825c.4 1.7-1.6.7-2.4 1.5-.4.1-.6.6-1.1.7-.1-.4-.2-1 .1-1.5.1-.4.5-.1.7-.1l1.9-2.5c.8.3.6 1.3.8 1.9zM191.2 157.025c-1 2.2-2.7 5.2-5.5 5.6-.7 0-1.4 0-1.7-.5 2.4-1.7 4.2-4.5 5.6-7 .4.6 2.4.5 1.6 1.9zM236.9 155.325c2.4 2.1 4.5 4.7 7 6.4.2.5-.5.9-1 1-2.2.5-3.7-2.1-5.2-3.5l-2.5-3.4c.4-.3 1.1-.8 1.7-.5zM223.7 155.225c0 1.2 2.1 2.9.3 3.6-.5.1-1-.3-1-.7.7-1-.9-2.6.7-2.9zM202.4 157.125l-2.2 1c-.1-1.2 1.6-1.9 2.2-2.9.2.5 0 1.3 0 1.9zM218 156.125c-.2 1.1-.9 2.1-1.7 3-.6-.2-1.2-.6-1.6-1.2.6-1 1.5-1.7 2.4-2.6.3 0 .6.4.9.8zM204.9 156.725c0 .5.4 1.1 0 1.4l-1.4-.7c-.1-.6.1-1.1.3-1.6.5 0 1 .4 1.1.9zM208.7 157.725l-1.2 2c-.7 0-.9-1-1.2-1.5-.4-.7-.4-2 .6-2.5.8.4 1.2 1.4 1.8 2zM213.5 157.125c-.2 1.1-.9 2.1-1.9 2.7-1-.5-1.6-1.7-1.6-2.7.9-.4 1.7-2.1 2.7-1l.8 1zM193 156.525c.3 1.4-.6 2.5-1.1 3.6.4.4.7-.1 1.1-.3.7-.9.9-1.9 1.2-2.9.3-.3.6 0 .7.4-.6 2.4-2 5.2-4.7 6.1-.7.1-1.6 0-2-.6 1.9-1.6 3.5-3.9 4.1-6.2.2-.3.5-.3.7-.1zM239.2 162.325c.3.1.7.6.1.9-.7.6-2 .4-2.9.1-2.1-1.1-3-3.5-4.1-5.4.5-.4 1.2-.4 1.9-1 1.9 1.6 3 3.7 5 5.4zM196.8 158.225l-1 3.4c.9 0 1.4-1.2 1.7-2 .4-.5.1-1.6.9-1.7.6.5.1 1.4 0 2-.9 2.1-2.6 4.7-5.1 4.9-.5 0-1-.2-1.2-.6.5-.7 1.5-1.2 2-2 1.1-1.4 1.4-3.1 2.2-4.4.3-.2.7 0 .5.4zM231.2 158.325c1.2 1.9 2.1 4 4 5.6-.3.5-.7.6-1.2.6-1.6.1-2.2-1.7-2.9-2.7l-1.7-2.9c.3-.3 1.2-.4 1.8-.6zM205.6 160.325c1.4 1.6 2.1 3.6 2 5.9l-.1.1c-1-1.1-1.6-2.5-2.6-3.5-.7.3-.7 1.2-1.6 1.5-.5-1.1-.7-2.6-1.4-3.7l-1.5.6c0-.9.7-2.1 1.7-2.5 1.5-.2 2.7.6 3.5 1.6zM223.8 161.025c-.1.4-.7.1-1 .3-.1 1.4-.1 2.9-1.1 3.7l-1.6-1.6-2.4 2.6c0-2.4.5-5.2 2.7-6.7.6-.4 1.5 0 2.1.4.6.3 1.1.6 1.3 1.3zM215.2 160.125c-.1 1-.9 2-1.7 2.5-.6-.2-1-1-1.2-1.6.7-.5 1.6-3 2.9-1.2v.3zM210.6 161.725c-.4.6-.7 1.7-1.7 1.7-.6-.5-1-1.2-1-2 .4-.7.7-1.7 1.6-2.2.5.6 2 1.5 1.1 2.5zM231.3 164.625c-.3.6-1.4.6-1.9.1-1.4-1.4-2.2-3.2-3-5 .6.1 1.2-.6 1.9-.2l3 5.1zM217.7 160.625c-.1.3-.1.6-.5.7l-.6-.7c0-.6 1.4-1.1 1.1 0zM227.8 164.725c-.1.5-.6.9-1 1.1l-.4-.1c-.3-2-1.4-3.7-1.7-5.7l.1-.1c1.4 1.3 2 3.2 3 4.8zM198.8 162.125c.5 1.4-.5 2.5-.6 3.7-.7.1-1.2-.3-1.7-.7v-.5c.9-.6 1.4-1.9 2.3-2.5zM216.7 163.525c0 1 0 2.1-1 2.6-.6-.6-1.2-1.5-1.2-2.4.4-.6.7-1.7 1.5-1.4l.7 1.2zM202.3 165.725c-.5.6-1 1.4-1.7 1.6-.9-.7-1.4-2-.9-3.1.1-.7.9-1.4 1.5-1.9.8.8.8 2.2 1.1 3.4zM212.7 163.625c-.1.9-.7 1.7-1.4 2.2-.5-.3-1.1-.6-1.4-1.2l1.6-2.1c.6.1 1.1.6 1.2 1.1zM225.2 165.325c.1 1 0 1.9-.5 2.6h-.4l-1.5-2.4 1.1-3c1.1.6 1.2 1.7 1.3 2.8z" fill="#ffd500"/><path d="M206.2 166.925c-.1.9-.4 1.9-1.2 2.5-1-.6-1.1-2.1-1.4-3.2.4-.5.7-1.6 1.5-1.2l1.1 1.9zM214.5 166.825c-.3.5-.6 1.4-1.4 1.1-.4-.5-1.2-1.2-.4-1.9l.7-.9c.7.4 1 1.1 1.1 1.7zM221 166.125c-.1 1.5-1 2.7-2 3.9-.6-.5-.7-1.4-.7-2.1.3-1 1.5-4.2 2.7-1.8zM209.7 167.925c-.4.3-.7 0-1-.4-.3-.6-.1-1.5.1-2.2 1.2.5 2.1 1.6.9 2.6zM223.7 169.225c-.3 1.6-1 3-1.7 4.4-.9.3-1-.9-1.2-1.5l-.2-1.9 1.5-3.1c.6.3 1.2 1.3 1.6 2.1zM204 170.425c-.3.7-.7 1.5-1.6 1.6-.5-1.2-1.6-2.5-1-3.9l1.1-.9c.6 1 .9 2.2 1.5 3.2zM207.4 171.325c-.5.4-.7-.5-1.1-.7.1-1 .7-1.9 1.1-2.9.6 1 .3 2.5 0 3.6zM199.9 168.625c-.4.7-.7 1.7-1.4 2 0-1 0-2 .5-2.7.5-.1.8.4.9.7zM212.4 168.725c0 .5-.5 1-.9 1.2-.4-.1-.6-.4-.9-.9.1-.5.4-.9.6-1.2.7 0 .8.6 1.2.9zM216 168.825c0 .9 0 1.9-.9 2.4-.6-.1-1.1-.7-1.4-1.4 0-.7 1-1.1 1.5-1.7.4-.2.7.3.8.7zM225.6 170.925c-.9-.4-.5-1.4 0-1.9h.1c.1.6.4 1.4-.1 1.9zM211 171.325c0 .6-.4 1-.7 1.4-.6.2-1.1-.5-1.6-.9 0-.6 0-1.6.5-2.1.7.2 1.3 1 1.8 1.6zM217.7 170.425l-.5 1c-.5-.3-.1-1-.1-1.5.4-.3.6.3.6.5zM201.5 173.225c-.6 1-1.4 2.1-2.4 2.6-.7-.6-.2-1.9-.2-2.6.2-1 .6-2 1.4-2.6.7.6 1 1.7 1.2 2.6zM214.1 172.225c-.1.5-.4 1-.9 1.2-.7-.5-1-1.4-1.1-2.1.9-1.5 1.5.5 2 .9zM207 174.625c-.1.6-.6 1.4-1.1 1.9-.5-.9-1.2-1.7-2-2.6v-1l1.1-1.6c1.1.6 2 1.9 2 3.3zM225.2 175.425l-.1.3c-.7-.6-1.4-1.4-1.6-2.2l.9-1.7c.8.8 1.1 2.4.8 3.6zM219.8 173.325c-.2.7-.7 1.5-1.4 2-.5-.5-.5-1.2-.5-1.9l-.2-.1c.2-.4.6-1.7 1.7-1.6l.4 1.6zM233.4 178.125c1.7 1.7 3.2 4 2.5 6.5-.4.7-1.1 1.4-1.9 1.5-1.4.2-2.5-.6-3.4-1.5-1.9-1.9-3.6-4-5-6 0-.7.2-1.4.6-1.9l.4.1c2.2 1.7 4 5 6.6 5.7l-.1-.6-6.7-7.1c-.3-1 .1-2.1.5-2.9 2.4 1.7 4.7 3.9 6.5 6.2zM216.1 172.825c.5 1.2 1.1 2.5 1.6 3.7 0 .3-.1.4-.4.4-1-1.1-1.5-2.5-2-3.9l.4-.5.4.3zM197.6 175.225c-2.6 2.5-5.7 4.9-7.1 8.1 0 .2.4.1.5.1 2.1-2.4 4.4-4.9 6.9-6.7.7.6.5 1.7.6 2.7-2.6 2.6-5.4 6.7-9.5 6-1.1-.4-1-1.9-.7-2.9 2.1-3.7 5.7-7.5 9.5-9.7l-.2 2.4zM209.5 174.125c-.7 4.1-3 7.7-5.4 11.1-.2.2-.6.4-.9.1-.6-.6-.1-1.7.1-2.4 2-.9 3-2.9 2.9-5 .9-1.5 2.5-2.7 1.7-4.6v-.4c.6.2 1.2.7 1.6 1.2zM211.7 173.725l-.1.1-.2-.4c.2 0 .3.2.3.3zM202.8 173.825c.2 2-.2 4.1-1.7 5.5-.7 0-.6-1.2-.7-2-.1-1.4 1.7-2.2 2.2-3.5h.2zM256.2 175.925l-5.6 3.4c-.5.1-1 0-1.2-.4 2.2-1.5 4.4-3.2 6.9-4.2v1.2zM211.1 175.625c-.4 3.2-1.2 6.2-2.5 9.2-.7.5-2 .4-2.9.3l.2-.6c1.9-3 3.5-6.1 4.5-9.4.5-.4.7.1.7.5zM223.2 177.125c-.1.4-.3.7-.5 1.1-.9-.6-1-1.7-1.2-2.6.5-.4 1.1.1 1.4-.5.7.2.4 1.3.3 2zM216.5 184.925c-.9.3-2.1.1-3-.1 0-3 .5-6.4.1-9.6l.1-.1c1.2 3.2 1.9 6.6 2.8 9.8zM221.3 178.625c-.4 1-.9 2-1.6 2.9-1-.5-1.5-1.9-1.5-3.1.4-1.1 1-2.1 1.7-2.9h.2l1.2 3.1zM260.2 177.625c-.2.4-1.1.2-1.6.1-.6-.6-2-1.2-1.1-2.2 1 .2 1.9 1.3 2.7 2.1z" fill="#ffd500"/><path d="M205.1 178.325c.1 1.2-.4 2.5-1.5 3l-.2-.1c-.1-1.7-.3-3.7.6-5.2.8.4.9 1.6 1.1 2.3zM212.1 184.825c-.6.3-1.5.1-2.2 0 1-2.7 1.7-5.9 2.5-8.7.6 2.6.2 5.9-.3 8.7z" fill="#ffd500"/><path d="M288.6 177.225c1 1 1.2 2.5 1 3.9l-1.2 3c-.5.4-1-.2-1.5-.4l-.2-.4c.5-1.5 1.2-3.9-.3-5 0 1.1 0 2.5-.5 3.4-1.1-.6-.2-2.5-.7-3.5l-.6-1.6c1.1-.9 3-.4 4 .6zM283.7 177.625c.2.7.6 1.4.5 2.2-2 .5-1.1-2.4-3.1-2.2-.3.6.7 1.2.3 1.7-.9.3-1.4-.4-1.6-1.1.1-.9.9-1.6 1.6-1.9 1.1-.2 1.8.5 2.3 1.3z" fill="#fff"/><path d="M218 181.025c1 1 1.6 2.5 1.9 3.9-.4.5-1.2.3-1.7.4l-.4-.4c-.7-2.7-1.9-5.5-2.1-8.4 1 1.4 1.7 2.9 2.3 4.5zM305.1 186.025c2.1 5.7.6 12.6-4 16.7-3.5 3.2-8.2 4.5-13 3.4-1.9-.5-3.6-1-5.1-2.2 1.9-.9 4.1-.6 5.6-2.4.9-.9 1.9.1 2.9-.1 2.9-.3 5.7-1.4 7.5-3.9 1.9-2.5 2.5-6.1 1.4-9.1-.6-2.2-2.7-4.2-4.7-5.4-.5-1.6-1.6-3.1-3.1-3.9-1-.5-2.6-.6-2.5-2.1 6.2-.8 12.4 3.3 15 9zM224.7 177.725l-.6 2.2c-.2.3-.6-.1-.6-.5l.9-2.2c.3-.1.4.4.3.5zM257.3 178.225l-.1.4-5.4 2.9c-.4-.1-.4-.6-.5-.9 1.5-1.2 3.1-2.2 4.9-3.2.5 0 .7.5 1.1.8z" fill="#ffd500"/><path d="M279.4 179.725c.4 2.1-.4 4-.6 6.1-.3.2-.7 0-.9-.4-.1-1.5.1-2.9 0-4.4l-.3-.1c-.7.7-.7 1.9-1 2.9-.7-.4-.7-1.5-1-2.4.1-1.1.4-2.2 1.5-2.9.9-.6 1.9.3 2.3 1.2z" fill="#fff"/><path d="M262.1 179.625l-3 .5c-2.4 1.2-4.7 2.6-6.7 4.5-.7.9-1.2 2-2.1 2.7-.9-.6-.4-1.6 0-2.2.4-1.7 2.1-2.9 3.6-3.5 2.6-1.2 5.3-4 8.2-2z" fill="#ffd500"/><path d="M293.8 181.525c1.4 2.9-.5 5.6-2.2 7.6-.9.1-.7-.9-.9-1.4.3-1.4 1.9-2.5 1-4.1-.6.6-.7 1.7-1.5 2.4-.5-.1-.9-.6-1-1 .6-1.7 1.2-3.5 1.6-5.2 1.3 0 2.3 1 3 1.7z" fill="#fff"/><path d="M223 181.825c-.4.4-.7.2-1 0-.7-.5-.4-1.2 0-1.7.6-.3.7.6 1.2 1l-.2.7zM202.1 181.725l-1.2 1.2c-.4-.4-.5-1-.4-1.6l1.5-1.2c.5.3.4 1.2.1 1.6zM231.6 186.825c.1.3 0 .5-.2.5-1.9-.9-4.4-1-5.1-3.1-.4-1.2-1-2.6-.7-3.9 1.9 2 3.5 4.6 6 6.5zM250.7 182.025c-.1.3-.1.6-.5.7-.6-.6-.9-1.5-1.1-2.4.9-.5 1.2 1.1 1.6 1.7z" fill="#ffd500"/><path d="M284.2 181.425c2.9 2.7-1.5 4.7-1.2 7.6-.4.3-.7 0-1.1-.1-.7-1 .2-2 .4-2.9.4-1 .9-2.2.1-3.1-.6 1.5-1.2 3.1-1.9 4.7-.6-.5-.7-1.6-.6-2.4l.6-4.7c1.4-.4 2.7.1 3.7.9z" fill="#fff"/><path d="M260.4 181.725c-2.1 1.4-4.5 2.4-6.7 3.6-.1 0-.4-.2-.1-.4 1.9-1.6 4-2.6 6.1-3.9.3-.1.6.4.7.7zM197.8 182.225c-.1 1-1.1 1.7-1.1 2.6 1.2-.2 1.7-1.5 2.6-2.4.5.2.5 1.1.1 1.5-1.4 2.7-5.2 1.2-6.6 3.9-.1.3-.5.5-.7.5-.5-.4-.6-1-.6-1.6 2.2-1 4.5-2.6 6.2-4.5h.1zM224.5 182.425c.5 1.5.9 3.1 2.4 4.1.9.6 1.9 1 2.7 1.2.3.5-.3 1-.6 1.4-.7.5-1.4-.4-2-.9-.6-.6-1.1-1.5-1.9-1.7-1 .7 1.1 2.6-.7 2.9l-1.5-.1c-.2-.6.4-1.6-.1-2.2-1.5.4-2.6 1.9-4.5 1.2-.5-.4-.1-1.1.1-1.5 1.5-1 4.6.1 4.9-2.5 0-.7.4-1.5.9-2l.3.1z" fill="#ffd500"/><path d="M222.2 183.525c-.1.6-.1 1.2-.7 1.5-.9-.3-.7-1.5-1-2.2.5-1.3 1.2.4 1.7.7zM265.3 183.325c-.5.5-1.7 0-2.4.5l-8.7 5.2c-.6.7-.6 1.9-1 2.9-.5 0-.6-.7-1-1.1.3-1.6 1-2.9 1.7-4.1 3.1-1.7 6-4.2 9.7-4.1.5.1 1.5.1 1.7.7zM202.3 185.525c.6 1.4 2 1.9 3.5 2 .4.4-.1.7-.3 1l-.4.1-3.1-1.5c-.6.6.1 1.7-.5 2.4-.7-.3-1.4-.7-2.2-.5-.4-.7 1.4-1.9.1-2.6-.9.6-.9 1.9-1.9 2.4-1 .4-1.9 1.1-3 .7-.3-.6-1.5-1.7 0-2.1 1.7-.2 3.6-.7 5-2 .5-.9 1.6-1.2 2.4-1.2l.4 1.3z" fill="#ffd500"/><path d="M289.6 187.325c.6 1.6.1 3.5-1 4.5-.6.4-1.1-.4-1.4-.6-.1-1.5 1.4-3 .2-4.4l-.2.3-1.1 3.6c-.6-.1-1.9.1-2.1-.9 0-2 1.1-3.6 2.2-5.1 1.4.2 2.8 1.2 3.4 2.6z" fill="#fff"/><path d="M264.9 184.825c3.4 3.6 5.9 7.6 8.7 11.5l.1 1.5c-3.4-4.1-6.4-8.6-9.9-12.7.1-.6.7-.4 1.1-.3z" fill="#ffd500"/><path d="M297.3 187.525c.4 2.4-1 4.4-2.9 5.7-.4-.3-.4-.9-.5-1.4.9-1 1.9-2.1 1.5-3.5-.6.7-1.1 1.7-2.1 2.2-.2-.2-.9-.5-.5-1.1 1.2-1.4 1.6-3 2.5-4.5 1.3.4 1.7 1.6 2 2.6z" fill="#fff"/><path d="M263.4 186.025c6.9 8.4 12.7 17.2 18.5 26.2.2.6 1.2 1.4.6 2-1.4-.6-3.2-.9-4.6-.1l-1.9 1.2c-1.4-.6-3.1-1.1-4.6-.9-5.6-8.1-11-16.3-15.7-24.8l.2-.4 6.5-3.9 1 .7z" fill="#ffd500"/><path d="M212.2 187.325l-2.5 2c-.6-.1-.6-1.1-1-1.6.7-1.2 2.4-.7 3.5-.7v.3z" fill="#fff"/><path d="M280.5 189.325c.4.4 1 .4 1.1 1-.5.9-1.6.7-2.4 1.5l-2.2 2.4c-.5-1-.5-2.5-.4-3.7 0-1.1.1-2.5.7-3.5 1.9-.5 1.8 1.7 3.2 2.3z" fill="#ffd500"/><path d="M299.6 191.425c-.5-.5-.9-1.2-1.2-1.9.3-.7-.1-1.9.1-2.5 1 1.3 1.3 2.9 1.1 4.4z" fill="#e53138"/><path d="M214.4 189.025l-4.5 3.6-2-.1c.4-.6 1.1-1.5 1.9-.9.4-.2 0-.7.3-1.1l4.2-3.4c.4.4.2 1.3.1 1.9z" fill="#fff"/><path d="M216.7 188.525c-.2.4-.6.6-1 .7-.1-.6.2-1.4.7-1.7.5.2.5.8.3 1zM208.4 189.425l-.1.2c-.5 0-1.1-.2-1.6-.5-.1-.4.1-.7.4-.9.5.1 1 .6 1.3 1.2zM231.6 190.025c0 .1-.1.4-.2.2-.5-.1-1.4-.5-1-1.1.6-.9 1.1.4 1.2.9z" fill="#ffd500"/><path d="M204 189.725c-.4.6-1.1 1.4-1.9 1.5.4-.6.4-1.6 1-2.1.3.1.9.1.9.6zM222 190.425l-2.7 2.4c-.9-.1-1.9.1-2.5-.2 1.4-1.2 2.9-2.7 4.5-3.5.4.2.3.9.7 1.3z" fill="#fff"/><path d="M193.3 189.725c-.1.5-.7.6-1.1.9-.4-.2-.1-.7 0-1.1.2-.3.9-.3 1.1.2z" fill="#ffd500"/><path d="M218.2 189.825l-3.6 3-2.5-.2 2.1-1.9c.6-.1.4 1.1 1.1.6l2.1-1.7c.3-.1.7-.1.8.2zM227 190.025c-.3.4-.7.9-1.2 1l.5-1.5c.3 0 .5.2.7.5z" fill="#fff"/><path d="M198.5 192.525c.2.4.6 1.5 1.2.7.7-.6 1.7-1.7 2.5-.4 2.5 1.6-.2 4.2.9 6.4.9 1.5 2.7 1.5 4.1 2.2.7.9 1.9 1.5 3 1.5s2.1-.7 2.6-1.7c1-1.6-.7-3-1.4-4.2.9-.7 2.4-.3 3.5-.1 2.4 1.7 4.9 3.2 7.2 5.1l-.1.2c-2 .3-4.2 0-5.5 2-1 .7-1.2 2.2-.9 3.5-1.4 1.2-2.1 2.9-2.7 4.5-1.4 1.1-2.2 2.5-2.7 4.1-.5 2 1.9 2.9 2.4 4.4-.5.6-1-.1-1.4-.5-.9-.9-2-1.9-3.2-1.7-1.2-.1-1.9 1-3 .7-1.4 0-2.9.1-3.7 1.2-.6 1.4-2 2.6-1.4 4.4 1.1 1.6 2.9 3 4.9 2.5.6-.4 1.5-1.1 2.2-.6.5 1.1 1 2.4 2.2 2.7 1 .2 2 .2 2.6 1.1.4.9.9 1.9 1.6 2.6-.7.4-1.6-.5-2.4-.7-1.5-.7-2.1-3-4.1-3-1.5-.5-2.9.2-4.5 0-3.6-1-7.7-1.4-9.7-5-.4-1.2-1.5-2.5-2.7-2.9-1-1.7-2.1-4.5-4.5-4.6-.6.1-.7.9-.5 1.2.1 1 1.1 1.7 1.6 2.6-.1.4-.7.1-1-.1l-3.4-4-.7-6c.7-3 2.6-5.6 2.6-9 0-1.2-1.1-2.1-2.1-2.9l-1.9-.5c1.2-1.7 3.4-2.7 5.1-4 1.6-1.1 3.4-2 5.2-2.6.4.3.3.7.4 1h.4l2.2-1.7c1.6 0 2.9-.4 4.2-1 .5.9.4 1.9.9 2.6z" fill="#ffd500"/><path d="M200.6 190.725c-.1.5-.7 1-1.1 1.2-.5-.3-.5-.9-.4-1.4.3-.7 1.3-.5 1.5.2z" fill="#ffd500"/><path d="M207.6 190.825v.4c-1 1.4-2.6 1.9-4.2 1.4-.5-.4.1-.7.4-1 .9-.6 2-1.9 3.2-1l.6.2zM293.3 193.225c.3 1.4-.7 2.4-1.5 3.2-.4.4-.7.6-1.2.6-.4-1.5 1.9-2.2 1.1-3.7-.6.1-.9 1.4-1.6 1.2l-.9-1.7 1.6-2.5c1.4.1 2.2 1.7 2.5 2.9zM230.2 191.025c.1.9-.9 1.4-1.5 1.7-.9-.1-1.9.1-2.5-.2.6-1 1.6-1.7 2.7-2 .7-.2.9.4 1.3.5z" fill="#fff"/><path d="M224.5 190.725c0 .4-.1.9-.5.9-.3-.1-.3-.5-.3-.7.1-.2.5-.4.8-.2zM255 190.825c4.6 8 9.7 15.7 14.7 23.5-.9-.4-2.1-.6-3.2-.6-.5-1.6-.2-3.6-2-4.6l-1.1-.7c-.2-2.1-1.2-4.5-3.5-5.2-.3-2.5-1.4-4.9-3.4-6.4-.6-2-3.6-3.6-1.9-6h.4z" fill="#ffd500"/><path d="M298.8 195.525c-.7 1.5-2 3.1-3.6 3.5-.4-1.2 1.5-1.7 2-2.7.3-.7.6-1.4.6-2.2h-.2c-.6 1-1.4 2-2.4 2.6-.4-.6-.6-1.4-.5-2 1.2-1.1 2.4-2.2 3.1-3.5 1 1.1 1.7 2.8 1 4.3zM243.1 192.325c.7 1 1 2.4.7 3.7-.6.1-1.1-.7-1.6-1-.1-.9-.1-1.9-1-2.2-.5.3 0 .7-.3 1.1-.5-.1-1.4-.1-1.9-.4l-.9-1.4c1.5-.9 3.7-1.2 5 .2z" fill="#fff"/><path d="M289.1 195.025c.7 2 .1 4.2-1.2 5.7-1.5 2-4.4 1.1-6.4 2.2-1 .1-2.4 2-3.1.1l.1-.4 3.1-1.9c2.1-.7 5.7-.2 6-3.5 0-.5.1-1.1-.3-1.4-.9.9-.7 2.7-2.4 3.1-2.9 0-5.1 1.7-7.5 2.9-1-.6-1.5-1.9-1.9-3-.3-.6-.6-1.5-.3-2.2 2.6-.9 3.2-4.2 6-5 3.2-.9 6.8.6 7.9 3.4z" fill="#ffd500"/><path d="M223 192.425c-.1.4-1 .4-1.5.3.1-.5.6-.9 1-1 .4-.1.3.5.5.7zM233.7 192.325c-.2.6-1.4.4-2.1.5l-.6-.1c-.1-.3.4-.6.5-.6.5 0 1.2.5 1.5-.3.3 0 .4.2.7.5zM248.2 193.525c1.1 1.9.6 4.4-.4 6-.4.2-.7-.1-.9-.4-.3-1.5.7-3.2-.5-4.4-.5.6-.1 1.9-.5 2.6 0 .1-.1.4-.2.4-1.7-.7-.3-3-1-4.4-.1-.4-.4-.7-.1-1.1 1.3-.7 2.8.2 3.6 1.3zM252.9 195.925c1.9 2.6.3 5.9-1 8.2-.5.3-1-.6-1.2-1-.1-2.2 2-4.6.1-6.6-.4 1-.1 2-.4 3l-.7 2.2c-2.7-.9.4-3 .1-4.6l-.1-2.7c.6-.5 1.4 0 1.9.2l1.3 1.3zM239.2 195.525c-1.7 1.7-4 3.2-5.7 5.1l.6.5 6.2-4.9c.5.1.9.5 1.1.9-1.6 2-3.7 3.2-5.6 5 0 .4.4.6.6.6 2.2-1.4 3.9-3.1 6-4.6.6-.1.9.5 1.2.7v.5l-5.4 4.6c-.2.4.3.5.4.7 2.1-1.2 4-3.4 6-4.6.6 0 1 .5 1.2.9v.5l-5.7 4.7h-23.7c.5-1.8 1.6-2.5 2.4-2.7 1.5-.6 3.7.5 4.6-1.2l-.1-.9c-2.2-1.6-4.5-3-6.6-4.7-1-1.5-3.1-.9-4.6-1.2-.7.1-1.7.3-1.9 1.1 0 1.2 1.1 2 1.9 2.9.2 1.1-.4 2-1.2 2.5-1.6.6-2.4-1.2-3.7-1.7-1.1-.2-2.5-.5-3.1-1.5-.4-1.4.4-2.5.7-3.7l.5-.4c4-.2 7.6-.1 11.5 0 .9 1 1.7-.1 2.6-.1l2 .1c.1.4-.6.5-.4.9 1.1.9 1.7-.7 2.7-1 .9 0 1.6 0 2.5.2l-1.7 1.7c.4.3.9.5 1.2.3l2.7-2.1h2.5c-.7 1.1-2.2 2-3.1 3.1l.7.4c2.2-1 3.7-4.4 6.6-3.5v.4l-4.5 3.9c-.3.4.2.5.5.6 2.4-1.4 4.2-3.5 6.5-5 .6 0 1.2.5 1.6 1zM294.1 197.625c0 1.1.1 2.7-1.4 2.6l-.7-.1c.1-.5.6-.9.6-1.4-.9-.1-1.5.6-2.4.4-.1-1.1 1.4-1 2-1.7.6-.4.9-1.1 1.6-1.1l.3 1.3zM257.9 199.825c2.4 3.2-.9 6.2-1.9 9-.3.4-.1 1.2-.7 1-2.4-2.2.6-4.7 1.1-7.1 0-.4-.1-.6-.4-.9-1 1.5-1.7 3.2-2.6 4.7-.5-.1-1.1-.9-.7-1.5 1.1-2.4 2.2-4.6 2.1-7.5.6 0 1.1.1 1.6.5l1.5 1.8zM182.2 200.325l-.1.4-6.7 5.5h-2.2c2.2-2.2 5-4.4 7.5-6.4.5 0 1.1-.2 1.5.5z" fill="#fff"/><path d="M166.1 200.825c-2.7 2.2-6.9.9-10.2 1.7-6.5.9-12.4 3-17.3 7.1-2.7 2-5.4 4.4-8 6.9-1 .5-2 1.4-3.1 1.6 3.6-6.2 10.4-10.2 16.3-13.5 6.4-3.5 14.4-4.8 22.3-3.8z" fill="#ffd500"/><path d="M183.3 202.325c-.1 2-2.5 2.7-3.7 4h-2.5c1.6-1.7 3.9-3.4 5.8-4.8.5-.1.3.5.4.8zM248 203.325c-1 1.2-2.2 2.1-3.4 3l-2.4-.1c1.4-1.5 2.9-2.9 4.6-3.9.6 0 1 .6 1.2 1z" fill="#fff"/><path d="M165.8 202.625c-6.1 8.1-11.6 16.5-13.5 26.3h-.2c-1.7-1.4-.4-3.7.1-5.4 2.4-7.6 7.2-14.3 12.2-20.7l1.2-.5.2.3z" fill="#ffd500"/><path d="M162.5 203.425c-4.9 6.9-9.7 13.7-11.9 21.6l-.2.1c-2.6-3.5-5.4-8.2-10-9.2-2-.5-4.4-.6-6.5-.5l-.3-.1c4.5-4.6 9.9-8.4 15.8-10.2 4.1-1.1 8.4-1.9 12.9-1.7h.2z" fill="#ffd500"/><path d="M261.9 206.325c1.9 3.9-2 6.2-3.2 9.2-.4.4-.6-.2-.7-.5-.7-1.9 1.1-3.5 1.9-5.1.4-.5.4-1.2.3-1.9h-.3c-1.1 1.4-1.9 3.1-2.9 4.4l-.4-.4c-.1-3 1.9-5.1 2.9-7.6 1.2-.5 1.9 1.1 2.4 1.9zM249.9 205.525c-.4 1.2-2 .5-3 .7.1-.9 1.1-1.2 1.7-1.9.8.1 1.1.8 1.3 1.2z" fill="#fff"/><path d="M284.9 206.425l2.5 1c-.6 1.2-1.2 2.6-1.2 4.1-.9.6-1.1-.7-1.6-1.2l-3.9-5.5c.2-.5 1-.4 1.2 0l3 1.6z" fill="#e53138"/><path d="M280 206.025c1.5 2 3.2 3.9 4.4 6-.1.5-.4.5-.7.7l-.3-.1c-1.2-2.5-3.2-4.6-4.4-7.1l1 .5z" fill="#ffd500"/><path d="M295.3 208.725c-.3 1.1-.7 2.1-1.6 3-1.7 1.6-4.2.3-6.1 0-.3-.4-.4-1-.1-1.2 1.5-1.1 3.9.2 5.1-1.2l-.3-.3h-4.4c0-.5.5-1.2 1.1-1.4 1.9.4 4 .1 5.9-.1l.4 1.2zM177.2 208.425c-3.2 3-7.3 6.1-10.8 8.6 0-1.1.7-2 1.2-3 2.4-1.9 4.3-4 6.8-5.6h2.8zM172.3 208.725c-1 .7-1.9 1.5-2.9 2.1.7-.9.9-3.2 2.9-2.5v.4zM181 208.525s-.7 1.7-.5 2.7l1 6.1c.6 1.1 1.9 2.1 2.2 3.4h-10.6c-.3-.4.1-.7.1-1.2-.7 0-1.1 1.1-2 1.2l-2.4-.1c2.5-2.9 6.6-4.6 8.4-8.1l-.1-.1-10.4 8.4h-2c-.2-.6.3-1.2.7-1.6 4.6-3.6 13.2-10.6 13.2-10.6l2.4-.1zM242.3 208.425c.6 1.2 1.4-.1 2.1 0l1.9.1c-.3.9-1.4 1.2-1.9 2-.1.4.2 1 .7.7 1.7-1.1 3-3.6 5.4-2.6l-.1.4-4.5 3.9c.1.3.3.6.5.6l5.7-4.5c.6.3 1 1 1.1 1.6l-5.6 4.9c0 .3.1.6.5.7l5.7-4.5c.5.3.9 1 .9 1.7l-5.7 4.7c-.1.4 0 .7.4.7 2-1.2 3.9-3.1 5.9-4.4.7.1.6 1 .9 1.5-1.7 1.6-3.7 3.5-5.9 4.7h-35.9c-1 0-.6-1.2-1.4-1.6-.9-1-2.4-1.9-1.6-3.2.4-1.2 1.5-2.2 2.5-3.1 1.1-3.7 2.8-4.5 2.8-4.5l25.6.2zM265 211.625c.9 2.9-1.2 5-1.5 7.7-.6.2-1.4-.1-1.9-.5-.2-1.7 1.4-3.4 1-5.2h-.4c-.9 1.2-1.4 2.9-2 4.2-.4 0-.7-.4-.7-.7.1-3 3.2-4.5 3.7-7.2.9-.2 1.7.8 1.8 1.7z" fill="#fff"/><path d="M149.7 212.125c.6.5.6 1.6.4 2.4-.2 1-1.2 1.5-2.2 1.5-1 0-1.9-.7-2-1.7-.2-.9 0-1.9.7-2.5.9-.7 2.5-.7 3.1.3z"/><path d="M149.4 213.525c0 .6-.5 1.4-1.2 1.5-.6 0-1.1-.5-1.4-1 0-.6.3-1.4 1-1.5.7-.3 1.4.2 1.6 1z" fill="#e53138"/><path d="M291.5 213.625c.4.7.2 1.9-.1 2.6-.5 1.2-1.6 2.1-3 2.4-2 .3-3.5-1.6-4.5-3.1v-.2c1.9-.5 3.5.7 5.2.5-.9-1.6-3-1.4-4.6-1.9 1.7-2.4 4.6-.3 7-.3zM269.4 215.725c2 1.9 1.4 4.6 2 7.1-1 .6-2.4 1.4-3.5.6-.7-1.9 1-4-.2-5.6-.7 1.4-.9 3.1-1.1 4.9-.7 0-1.2-.7-1.6-1.4-.7-2.4.4-4.7 1.4-6.6 1.1-.2 2.1.3 3 1zM286 219.525c-.6 1.6-2.4 2.7-4.2 2.6-2.7-.6-3.6-3.6-4.9-5.7 0-.5.5-.6.9-.7 1.6.6 2.1 3.5 4.4 3.1-1-1.1-2.2-2.5-2.9-3.7 1.7-.6 3.1.7 4.2 2l2.5 2.4zM275.9 217.025c1 1.2 1.2 2.6 2 3.9-.6.9-1.1 2.6-2.5 2.2-1-1.2-.1-3.6-1.9-4.2-.3 1.7.5 3.2.9 4.7-.6.5-1.1-.1-1.6-.4-1-2.1-.5-5-1.6-7.1.4-.5 1-.5 1.5-.6 1.2.1 2.4.5 3.2 1.5z" fill="#fff"/><path d="M148.1 223.725c1.7 2.1 2.4 4.7 3.5 7.1-2.2-1.7-4.5-3.9-6.7-5.5l-.4-2.6c-.6-2.1-2.5-4.1-4.6-4.6-1.9-.4-3.5.2-5 .9l-5.7-.3v-.1c1.5-1.1 3.1-2.2 5.2-2.1 5.8-.6 11 2.2 13.7 7.2z" fill="#ffd500"/><path d="M257.4 219.025l-1.9 1.7c-.9.1-2 .2-2.7-.1 1.1-1.2 2.5-2.1 3.9-3.1.6.2.6.9.7 1.5zM188 220.525c-.6-.4-1.6-1.2-1.6-2.1.8.5 1.5 1.2 1.6 2.1z" fill="#fff"/><path d="M143.1 222.025c.5 1 .9 2.4.5 3.5-3.6 5.5-5.9 11.6-6 18.5-2.2.3-3.5 2.6-4.4 4.4-1.4-.1-2.5.5-3.6.9-.1-5.4 1.1-10.5 2.6-15.3.6-1.7 1.7-3.4 1.7-5.2l-.1-.1c-3 4.1-3.7 9.1-4.7 14l-.7 8.4c-.5.7-1 1.7-2 1.2-1.1.1-.5-1-.7-1.6-.1-4.6.5-9.1 2-13.2 1.6-6.1 4.2-11.9 7.9-17.1 1.1-1 2.7-1.4 4.2-.9 1.3.1 2.8 1.1 3.3 2.5z" fill="#ffd500"/><path d="M210 220.625l-.4.2-6.9-.1v-.1c1.1-.4 2.4.1 3.5-.4 1-1 3-1.1 3.8.4z" fill="#fff"/><path d="M289.4 220.125v.1l-1.9.3c-.2-.1 0-.5.1-.6.5-.2 1.5-.5 1.8.2z" fill="#ffd500"/><path d="M257.9 220.725h-.4l.1-.3h.2v.3z" fill="#fff"/><path d="M292.1 222.425v.2c-4.7-.4-8.5 2.6-11.7 5.9-.7 1.2-1 2.6-1.4 4-.7-.5-.7-1.5-.5-2.2.4-1.9 1.1-4 3-5 3.1-1.9 6-4.6 10-3.5l.6.6zM281.6 223.625l-2.9 2.4c-.9-.4-1.1-1.2-1.7-1.9.5-.7 1-1.5 1.6-2.1.9.7 2 1.1 3 1.6z" fill="#ffd500"/><path d="M168.6 222.825c-1.5 1.7-3.5 3.1-5.4 4.6-.2-.9.1-1.9.4-2.7 1-.5 1.7-1.7 2.9-2 .6.1 1.4-.1 2.1.1zM186.5 222.725c1.6 1.4 3.9-1.4 4.9 1.2 1.7 4.7 7.2 5.6 11.6 6.6 1.9-.4 4.5-.7 5.7 1.1 1.4 1.7 3.5 2.6 5.6 3l.3.2-.4.3H170c-.4-.4-.1-1-.3-1.5-1 .1-1.5 1.5-2.5 1.5h-2.3c1.5-1.6 3.5-3.1 5.1-4.6.3-.4.3-.9.3-1.2-2.6 1.7-5 4-7.5 5.9-.4.1-.9-.1-.7-.6l.2-1.2 8.7-7.4c.1-.5.5-.9.3-1.2-3 2.1-5.7 4.6-8.7 6.9l-.1-.1.2-2 8.1-6.6.7-.1h15zM252.9 222.825s-2.5 1.4-1.2 2.3l3.2-2.1h2.5c-1.5 1.7-3.5 2.9-5.2 4.5-.1.4 0 .9.3 1l6.2-4.7c.6-.1.5.6.6 1.1l-.1.5-6.5 5.4c0 .3 0 .7.2 1l6.5-5c.6.1.4 1 .5 1.4l-.5.7-8 6.5h-18.5c-2.2-1.2-4.4-2.9-7.1-2.9-1.7-.3-3.1.9-4.9.7-1.7.5-3.6.6-5.2-.1-1.9-.4-2.6-2-3.2-3.5-1-1.5-3.2-.2-3.9-1.9-.2-.9-.6-1.9-1.5-2.4-1.7-.6-2.6 2.5-4.4.6-.9-.4-1.9-1-2.1-2 .1-.4.1-.9.5-1.1h10.1l.2 2c2.2 1.1 4.4 3 7.1 2.5.4-.7.3-1.6-.1-2.2-.9-1-2.2-.9-2.9-2l.1-.3h37.3zM131.9 223.525c0 .2 0 .5-.2.5-.4 0-.5-.2-.6-.5 0-.4.5-.2.8 0zM130.9 225.325l-1.4 2.9c-1.2-.5-1.7-2-2.9-2.6-.5-.6-1.6-.6-1.4-1.4.5-.7 1.5-.6 2.1.1.6.2 1 1.6 1.7 1.1.5-.7-.7-1.4-.9-2 1.3.1 2.3.9 2.8 1.9z" fill="#fff"/><path d="M217 225.725c.1.1.1.4-.1.5-1.2-.5-2.5-1-3.6-1.6-.3-.4-.6-.7-.3-1.1 1.6.1 2.6 1.6 4 2.2zM289.6 224.225c-2.6 1.5-5.2 3.1-7.7 4.9-.3.1-.4-.1-.4-.2 2.1-2.4 4.9-3.9 7.6-4.9h.5v.2zM278.1 227.225l-.7 2.2-.3-.1c-1.4-1.5-2.5-2.9-3.5-4.5 1 .3 2-.7 2.7.1l1.8 2.3zM294.6 227.225c-1.9-.2-3.9-1.4-5.5.1-2.1 1.4-4.5 2.7-6.2 4.6l-1 3.7c-.4.1-.5-.4-.7-.6l1.1-4.6c2.5-2.4 5.4-3.7 8.2-5.2 1.5.4 3.7-.1 4.1 2z" fill="#ffd500"/><path d="M128.4 229.025c-.3.7-1 1-1.7 1-2.2.1-3.6-2.2-5.9-2.5 0-.4-.1-.9.4-1 1.6-.1 2.9 2.1 4.5 1l-.1-.3-2.7-1.5c2.2-1 4.2 1.6 5.5 3.3zM120.5 227.225l-.1.1v-.1z" fill="#fff"/><path d="M292.2 230.025c-1.5 1.5-3.4 2.5-5.1 3.6-1-.1-1.7-1-2.5-1.5 1.2-1.6 3.2-2.6 4.9-3.7.7-.1 1.2-1 2-.6.5.5.5 1.4.7 2.2zM294.8 229.225l.6 2.2c-.6.1-1.5-.4-2-.9-.1-.7-.6-1.6-.4-2.4.8.1 1.7.4 1.8 1.1z" fill="#ffd500"/><path d="M145.2 229.825c.3.9 0 1.7-.5 2.4-1.1 1.4-2.7 2.1-4.2 3 .6-1.5 2.9-2.7 2.6-4.7-.5 0-.9.7-1.2 1.1 0-1.1.7-2.4 1.6-3.2.9-.1 1.4.7 1.7 1.4zM124.6 230.725c.4.6-.6 1.1-1 1.4-2.2.9-4.1-.7-6.4-.7-.1-.4.1-1.1.6-1 1.5-.4 2.7 1.2 3.7-.1-.5-.5-1.5-.6-2.1-1-.1-.3.1-.6.4-.6 2-.2 3.3 1.1 4.8 2zM260.4 231.525c-1.4 1.4-3 2.6-4.5 3.9-.7.1-1.6.1-2.2 0l.3-.5 6-4.9c.5.1.2 1 .4 1.5z" fill="#fff"/><path d="M128.4 230.725c-1.2 4.5-3 9-3.6 13.7-.4 2.5-.3 5.4-.4 8-1 .7-1.9 1.9-2.5 2.9-1.9-1 .2-3.4-1.1-4.9l-1-1.9c.7-1.5.5-3.4.1-5 1.5-1.6 2-3.6 1.6-5.9 1.2-1.2 2.2-2.5 2.1-4.4.9-.5 1.9-1 2.5-2.1.7 0 1.5 0 2.3-.4z" fill="#e53138"/><path d="M295.6 233.125l-.1.4c-2.2 2.2-4.9 3.6-7.4 5.2h-.4c-.2-1.2-.4-2.6-.2-3.9l4.6-3.4c1.4.3 2.5 1.1 3.5 1.7z" fill="#ffd500"/><path d="M147.6 234.025c.4 1 .3 2.2-.3 3.1-1.5 2.7-5.1 1.9-7.6 2.9h-.1l.1-1.1c1.9-.9 4.9-1 5.2-3.4-1.6.6-3 1.7-4.9 1.9 0-.7 1-1.4 1.6-1.7 1.5-1 3.4-1.5 4.4-3.2.9 0 1.2.8 1.6 1.5zM122.4 233.625c.3.6 0 1.5-.4 2-1.7 2.9-5.1.9-7.7 1.5-.7-1.5 1-1.7 2-1.9.9-.4 2.4.7 2.7-.6-.6-.6-2-.5-3-.4-.3.1-.6.1-.9 0 .3-1 1.4-1.7 2.4-1.7 1.7.2 3.3.7 4.9 1.1z" fill="#fff"/><path d="M286.2 234.725c.1 1.1.2 2.2.2 3.5-1.2-.1-2.2-1.2-3.4-2.1 0-1 .1-2 .6-2.9 1 .3 2 .8 2.6 1.5z" fill="#ffd500"/><path d="M260.5 235.225c-.6.4-1.7.2-2.6.1.5-.9 1.6-1.5 2.4-2.1.5.4.4 1.4.2 2z" fill="#fff"/><path d="M232.6 236.325c2.1.9 4.6 1.1 6.4 2.9 2 1.5 3.9 3.5 6.2 4.2 1.4.4 3 .7 3.5 2.2.4 1.9-2 2.4-2.9 3.9-1.6 1.4-1.4 3.6-2.2 5.4-2 1.9-3.6 4-6.1 5.2-2.4 1.2-1.1 4.5-3.9 5.4-3.4 2-7.6 5.1-7 9.7-.1.9.5 2-.1 2.6-2.6-.3-2.7-3.1-3.9-4.9.1-2.2-.5-4.4-.5-6.5.9-2.4 1.2-5.1 2-7.6.4-1.6-.9-2.7-1-4.2-.3-2.2-2.9-2.4-4.1-4.1-.7-2-2-3.9-2.9-5.9-.1-.9-.5-2 .1-2.9 1-1.1 1.7-2.4 1.6-4-.1-1.2-.7-2.4-1.6-3.4 1.7.5 3.4-.1 5.1-.2 2.6-.7 5.9-1 8.4.4l2.9 1.8z" fill="#ffd500"/><path d="M160.3 237.125l-.3 2.1c-1.4.4-2.7-.5-4.2-.2-.1-.6.2-1.4.7-2 1-.9 2.5-.7 3.5-.3l.3.4zM164.4 237.725c-.5.6-1.4 1.4-2.1 1.7-.2-.6-.5-1.6.3-1.9.6-.1 1.2-.1 1.8.2zM169.1 237.925l-6.2 5h-.2l-.3-1.7c1.2-1.5 2.9-2.6 4.5-3.7l2.2.1v.3zM216.7 237.625s.5 1.4-1.7 4.4c-.5 2.9 1.4 5.1 2.4 7.5.3.5-.4.9-.7.7h-46.3c.1-.9 2.1-1.4.9-2.4l-3.1 2.4-2.4-.1c1.4-1.6 3.4-2.9 5-4.5 0-.3.1-.7-.3-.9l-6.4 5c-.5-.4-.5-1.1-.5-1.7 2-2 4.4-3.7 6.5-5.7v-.7h-.5c-2.1 1.6-4.2 3.6-6.5 5-.4-.5-.5-1.4-.3-2l6.9-5.7c.1-.5.8-1.1.8-1.1l46.2-.2zM257.4 237.825l-4.7 4c-.3.4-.3.7-.3 1.2l.5-.1 6.7-5.4c1.2-.4.9 1 .9 1.7l-8.9 7.2c-.1.5-.5 1.1-.3 1.5 3-2.1 5.7-4.9 8.9-6.9 0 1 .1 2.4-.7 3l-7.6 6h-4.7c.1-1 1.5-1.6 2.1-2.4.5-1 .6-2.2.3-3.2-1.6-1.9-4.1-1.9-6.1-3.1-1.6-1-4.6-3.7-4.6-3.7h13.9s0 .9.3 1.2c.9-.7 1.9-1.6 3.4-1.2.1-.2.7-.1 1-.1v.3zM120.4 238.225c.4 1.2.1 2.7-.7 3.9-1.9 1.9-4.9 1.1-7.1 2.1-.4-.1-.6-.7-.4-1.2 1-1.2 2.4-1.5 3.7-1.9.6 0 1.6.1 1.9-.9l-.1-.2c-2.1-.3-3.9.5-5.5 1.5h-.1c0-1 .1-2.1 1.1-2.7 2.1-1.6 4.7.1 7.2-.6zM147 239.925c.1 1.6-.5 3-1.7 4-1.9 1-4.2.4-6.2.1-.4-.6.1-1.2.7-1 1.2-.1 3.2.6 3.9-.9l-.1-.2c-1.2.1-2.9 0-4 0l-.1-.3c1.4-1.6 3.9-1.1 5.7-1.6.4-.1 1.5-.9 1.8-.1zM160.2 240.725c.1.5.6 1.4 0 1.9-1.9 2.1-4.6 1.6-7.1 2.1-.4-.5-.1-1 0-1.4 1.2-1 3.2-.4 4.2-1.9l-.2-.1c-1.1 0-2.2.4-3.1.1 1.2-2.1 4.2-1.2 6.2-.7zM119.3 245.825c.6 4-4 4-5.9 6.1-.4.4-.6.7-1.1.7l-.9-1.5c.7-1.7 2.7-3 4.5-3.5.2-.4.5-.6.5-1-2 0-3.9 1.2-5.2 3-.4-.2-.4-.9-.2-1.4.2-1.1.7-2.7 2.1-3.1 1.9-.6 3.7-.9 5.7-1.1l.5 1.8zM159.6 244.625c0 1-.6 2-1.2 2.7-1.7 2.5-4.9 2.4-7.2 3.9-.4-.1-.4-.6-.2-1 1.4-1.2 3.4-1.4 4.5-3l-.1-.1-4.4 1.5c0-.6.2-1.5.9-2.1 2.1-1.6 5.3-.6 7.7-1.9zM144.2 245.625c.3 1.5-1 2.5-2 3.4-2.1 1.9-5.4.7-7.5-.2-.4-.3-.1-.7.1-1 2-.2 4.5 1.4 6.1-.5v-.1c-1.7.2-3.6-.3-5.2-.6.2-1 1.4-1.1 2.2-1.2 2.2-.3 4.2.5 6.3.2z" fill="#fff"/><path d="M161 245.925c.5 2.6 1.4 5.1 2.1 7.6-1 1.1-2.4 2-3.7 2.5-1.7-.7.1-2.1-.2-3.4.2-1.4-.3-2.6-.5-3.7l2.1-3.1.2.1z" fill="#e53138"/><path d="M259.5 245.825c.6 2.1-1.7 3.2-3.1 4.4h-2.1v-.3c1.6-1.5 3.4-3 5.2-4.1zM138.2 251.025c0 .9-.6 1.6-1.4 2.2-1.1.9-2.5 1.5-4.1 1.4-1.5-.4-3-1.1-4.2-2 .2-.6.5-1.4 1.1-1.4 1.9.1 3.5 2.1 5.2.6v-.3c-1.5-.1-2.7-.7-4-1.2-.4-.9.9-.9 1.4-1.1 2.2.2 3.9 1.5 6 1.8zM158.1 251.825c.6 3.5-3.5 4.7-5.5 6.6-.6-.2-.9-.9-1.2-1.4.5-2.2 3.7-2.4 4-4.7l-.3-.1-4.2 3.2c-.6-.9-.1-2 .2-2.9 1.7-1.6 4.2-1.5 6.2-2.7.8.2.7 1.2.8 2zM120.2 251.925c.6 3.6-3.4 5.2-5 7.7-.5-.1-.7-.6-1-1.1.5-1.6 1.9-2.9 3.1-4.1.1-.3.2-.9-.1-1-1.4.9-2.6 2.2-3.5 3.6-.6 0-.6-.7-.7-1.2-.1-1.5.4-2.9 1.7-3.6 1.4-.9 2.9-1.5 4.2-2.2.8.2 1.1 1.2 1.3 1.9z" fill="#fff"/><path d="M140.6 251.225c2 4.2 5.6 9.4 11 9-.9 3.1 1.7 5.2 3 7.5-.4 2.5 1.6 4.4 3.4 5.6-.1 1.2.3 2.5.6 3.6-1.6 4.6-.3 9.6 2.7 13.2 5.9 7 14.3 8.6 23.2 9h2.1c2.6 1.6 5.5 2.5 8.9 2.1 2.7-.1 5.5-.7 8-1.7.4.9-.6 1.5-1.1 1.9-2.9 2.1-6.5 2.6-9.7 3.9-6.4 4-14.7 3.4-22.3 2.5-4.5-.5-8.4-2.6-12.5-4.1-8.1-4.4-15.2-11.4-23.5-15.2l-3.1-1c-.4-1.6-2.1-2.7-3.1-3.9.3-2.2-.9-4.2-2.5-5.9l.3-1.7c1-3.9 1.6-8.1 1.5-12.5-.6-1.5.5-2.6 1.1-3.7.4-.1.9-.1 1 .4 1.4 4.7-.3 9.6-1 14.2.1.2.1.5.4.6l.6-.7c.6-2.2 1.1-4.5 1.4-6.9-.2.1-.4 0-.2-.2l.2-.1c.4-2.5.1-5.2-.4-7.5 1.4-1 2.9-2.2 3.9-3.7 2.2-.5 4.4-2.1 5.2-4.4.2-.5.5-.6.9-.3z" fill="#ffd500"/><path d="M169.7 252.425c-.9 1.4-2.2 2.2-3.6 3.1-.4-.5-1.1-1.4-.5-1.9 1.1-1.1 2.6-1.6 4.1-1.2zM219.5 252.425c.9 1 2.9 1 2.7 2.7.4 1.6 1.6 3.5.5 5.2l-1.1 4.2h-41.2c.1-.4-.1-.7-.5-1-.6.1-1.1.9-1.9 1.1l-2.5-.1c.7-1 2-1.9 2.9-2.7-.1-.4-.4-.9-.9-.5-2.1 1.1-3.5 4.4-6.5 3.1 1.6-1.9 4-3.2 5.6-5 0-.2-.1-.6-.4-.7l-6 4.6c-.6-.1-.5-.9-.9-1.2 1.6-1.9 3.7-3.4 5.6-5 .2-.4 0-.6-.3-.9-2.1 1.4-4 3.1-6 4.6-.5-.4-.9-.9-.9-1.5 1.9-1.7 4.1-3.2 5.9-5.2 0-.3-.3-.5-.5-.6l-6 4.6c-.5-.3-.5-.9-.7-1.4 1.6-1.5 3.6-3 5.5-4.4h47.6zM249.4 252.425c.4.4-.6 1.4.2 1.2.9-1.2 2.4-1.5 3.7-1.2l-.2.5c-2.6 2.6-6.5 4.4-8 7.7l1-.6 9.5-7.6h2l-.1 1-13.9 11.4-7.4-.1c-.3-3 3-4.4 5-6 1.4-1.6 4-2.9 3.9-5.4l.4-.9h3.9zM132.5 255.725c.4.4-.1.7-.4 1-1.2 1.1-2.6 1.9-4.4 1.7-1.7 0-3-1.4-4.5-2-.4-.4.1-.7.3-1 2.1-.6 3.6 2.4 5.6.7l-.5-.3c-1.5-.4-2.9-1.4-4.4-1.7.3-.6 1-.9 1.6-1 2.6.2 4.3 2.2 6.7 2.6z" fill="#fff"/><path d="M169.9 266.425c-1.5 1.2-3.1 2.2-4.7 3.4l-2.4-2.4c.5-3-1.2-5.2-2.9-7.2.5-1.2-1-2.7.4-3.4l3.2-1.9c1.8 4 3.8 8 6.4 11.5z" fill="#ffd500"/><path d="M122.4 258.325c.9 2.5-.7 4.7-2 6.9-.6.1-1.4-.1-1.9-.5-.5-2 2.2-3.4 1-5.2-.7 1.2-1.6 2.7-2.1 4.2-.7.2-1-1-1.5-1.5-.5-2 1.7-3.2 2.9-4.6l1.6-1.7c1.1.3 1.5 1.5 2 2.4zM248.2 264.825l-2.5-.2 10.6-8.7.1.3-1.5 3.2zM158.7 258.025c.9 3.4-1.9 5.7-3.6 8.1-.6-.6-1.9-1.5-1.2-2.4.9-1.6 3.1-2.9 2.1-4.7-.9 1.2-1.9 2.7-2.9 4-.6-.1-.5-.9-.6-1.4.1-2.9 3.4-3.9 5.1-5.5.6.3.9 1.3 1.1 1.9zM127.1 259.725c-.3.7-.7 1.4-1.2 1.9l-2.2-.9v-2.7l3.4 1.7z" fill="#fff"/><path d="M145.9 261.425c-.2.5-1 .7-1.5.4-1.4-.7-2.4-2.2-2.2-3.7.9 1.4 2.3 2.4 3.7 3.3z"/><path d="M126 263.425c.2 2.7-.1 5.5-.6 8-.4.5-.7 0-1.1-.1-.6-1.7 1.4-3.5-.1-5.1l-.3.4-.7 3.6c-1 0-1.7-1.1-2.2-1.9-.5-2.5 1.7-4.2 2.6-6.4.9.1 1.8.6 2.4 1.5zM161.8 266.625c-.1 2.2-1.7 3.7-3.1 5.5-.5 0-1-.5-1.5-.7 0-1.4 1.4-2.4 1.7-3.7 0-.6.1-1.2-.1-1.7l-2.5 4.1c-.7-.2-.6-1.2-.7-1.9.7-2.4 2.9-4.2 4-6.2 1.5.9 2.4 2.8 2.2 4.6zM252.9 262.725c-.6.7-1 2.7-2.5 2.1l-.1-.1c.7-.9 1.6-1.5 2.6-2zM119.7 266.425c-.6.7-1.7 1.1-2.6 1.9-.5-.7-.3-2.2.3-2.9l2.3 1zM220.7 266.925s1 3.9.9 5.7c.1 1.7 1.5 3 1.7 4.6-.5 1.5-2.1 1-3.4 1.1l-.1-.1 1.2-1.2c-1.2-.4-2.2.7-3.4 1.4h-2.7c.1-.7-.6-.5-1.1-.5-.9.9-2.6.4-3.7.4-.3-.5-1.2-.4-1.6-.1-.9.4-2 .3-3 .1.1-.1.4-.5.1-.6-1-.6-1.5.5-2.2.7l-2.6-.1 1.1-1.1c-1.4-1.4-2.2 1.1-3.5 1.2-.5-.1-1.4.1-1.7-.3l2.1-2c-.2-.3-1-.6-1.2-.1l-3 2.4-2.4-.1c1-1.1 2.5-2 3.5-3.2l-.7-.4-4.9 3.7-2.6-.1c1.5-1.6 3.7-3 5.1-4.7-1.1-1-2 1-3 1.4l-4.1 3.2c-.6.1-1-.6-1.5-.9 1.6-2 4-3.2 5.9-5.1 0-.4-.4-.5-.7-.6-2.1 1.4-4 3.4-6.2 4.9-.5-.1-1-.5-1.4-1 1.7-1.7 4-3.4 5.6-5.1-.1-.4-.7-.7-1-.4l-5.6 4.6c-.6-.1-1-.7-1.5-1.1 1.7-1.9 4-3.2 5.6-5.1-.2-.7-1-.5-1.4 0l-5.1 4.1c-.6-.1-1-.7-1.4-1.1 1.4-1.7 5.1-4.4 5.1-4.4h38.8zM249.5 267.525l-13.2 10.9-2.5-.1c4.5-4 9.1-7.9 13.9-11.5l2 .1-.2.6zM175.3 267.025c-.5.4-1 1.4-1.7.9-.2-.3-.9-.6-.4-1 .6 0 1.6-.3 2.1.1zM179.5 267.125c-1.2 1-2.6 2.4-4 3-.4-.4-1.2-.9-.6-1.2 1.4-1.1 2.9-2.8 4.6-1.8zM245.3 267.025s-9 7.7-13.6 11.4l-2.4-.1c4.5-3.9 13.6-11.4 13.6-11.4l2.4.1zM240.6 267.325l-12.4 10.2c-.6-.3-.5-1.1-.5-1.9l1.2-1.5c-.4-.4-1 .7-1.4 0 .1-3.4 3.4-5.5 5.7-7.2h7.2v.4zM120.9 269.925l1.1 1.4c-.9 1.9-2.7 3.4-4.1 5.1-.5 0-.6-.5-.7-.7.2-1.7 1.5-3 2.6-4.2-.5-.5-1.1 0-1.6.3-.6.6-.9 1.5-1.5 2.2-.6-1.4-.3-3.2.7-4.5.7-.5 1.4-1.5 2.4-1.2l1.1 1.6zM164.8 272.825c0 2.1-1.2 3.6-2.2 5.4-.6.4-1.2-.2-1.6-.6l-.1-.4c.4-1.7 2.5-3.1 1.5-5l-2.5 4.1c-.6-.3-.7-1.1-.9-1.7.4-2.2 2.6-3.5 3.4-5.5.3-.1.5-.2.7-.1 1 1 1.7 2.3 1.7 3.8z" fill="#fff"/><path d="M125.1 273.025c0 .4 0 .6-.3.7-.5-.4-.9-.7-1-1.2.6 0 1 .1 1.3.5z" fill="#e53138"/><path d="M124.6 277.525c-.3 2.2-2 3.7-3.4 5.6-.6.4-1.1-.5-1.6-1-.5-1 .6-1.9 1-2.7.4-1 1.6-1.7.9-3-1.1 1.2-2 2.9-2.9 4.2-.5-.5-.6-1.4-.5-2.1.5-2.2 2.9-3.7 4.2-5.6 1.6 1 2.2 2.9 2.3 4.6zM168.9 279.125c-.3 2.4-2.5 3.6-4 5.2-.5-.3-1-.6-1.2-1.1.7-1.7 3-2.9 2.4-5-1 1.1-1.9 2.6-3 3.5-1-3 2.2-5 3-7.6 1.7 1 2.7 3 2.8 5z" fill="#fff"/><path d="M156 276.325c.1 1-.4 2.1-.3 3.4 0 1.4.3 2.6.4 4v.1c-1.4-1.7-2.2-4.4-1.4-6.6.3-.6.8-.9 1.3-.9z"/><path d="M161.8 279.525c-.2 1.6.3 3.2 1.1 4.5l1.2 1.5c-1.1 1.9-.5 4.4.4 6.1-4.1-3.1-6.4-7.7-5.5-13l.5-.7 2.3 1.6z" fill="#e53138"/><path d="M127 283.125c-.3 2.6-2.2 4.5-3.4 6.7-.5.1-.6-.5-.9-.6.1-2.1 2.1-3.5 1.9-5.7h-.3c-1 1.4-1.7 2.9-2.5 4.4-.6-.6-.7-1.7-.5-2.7.7-2.2 3.1-3.7 4-5.9 1.5.7 1.8 2.2 1.7 3.8zM191.4 280.925c-.1.5-1 .3-1.1 0h1.1zM195.4 280.925c-.2.6-1 1.1-1.6 1.5-.5 0-1-.1-1.2-.5.4-1.3 1.7-1 2.8-1zM197.3 283.625c-.7 0-1.4-.4-2-.7.5-.7 1.5-1.4 2.2-2h2.7l-2.9 2.7zM205 280.925c-1.4 1.4-3 2.7-4.6 3.6l-1.6-.5c.9-1.2 2.4-2.1 3.5-3.1h2.7zM209.7 281.125l-5.1 4.1c-.6 0-1.5-.1-2.1-.4 1.1-1.6 3-2.9 4.5-4h2.7v.3zM214.5 280.925c-1.6 1.9-3.7 3.4-5.7 4.7l-2.1-.3.1-.4 5.1-4.1h2.6zM219 280.925c-1.7 1.9-3.9 3.4-5.7 4.9-.7-.1-1.6.1-2.1-.2 1.7-1.6 3.7-3.2 5.7-4.6h2.1zM224 280.925c-1.5 1.6-3.4 2.9-5.1 4.2-1 .3-2.1.4-3.1.3l.2-.4 5.2-4.1h2.8zM228.6 280.925c-1.2 1.1-2.1 2-3.4 3-1.1.3-2.4.6-3.5.5l4.4-3.5h2.5zM232.5 280.925c-1 .7-2.2 1-3.5 1.5.1-.6 1.2-.9 1.7-1.5h1.8zM170.8 284.125c.5 2.5-.9 4.6-2.7 6.2l-1.9 1.2c-1.9-1.2.9-2.5 1.4-3.7.6-.5.5-1.4.5-2.2h-.2l-3 3.6c-.4-.5-.6-1.2-.4-2 .9-2.4 3.1-3.7 4.7-5.6 1 .4 1.4 1.6 1.6 2.5z" fill="#fff"/><path d="M141.9 287.525c8.2 5.5 15.6 12.9 25 15.5 3.4 1 7.2 1.4 11 1.6v.1c-.7.6-1.9.7-2.9.6-6.2-.4-12-2.1-17.1-5.2l-19.2-13.5c-2.2-1.1-4.7-1.7-7.2-1.7.2-.5.9-.7 1.4-.9 3.3 0 6.2 1.7 9 3.5z"/><path d="M120.3 286.425l.2 1-.6.5c-.1-.6-1.2 0-1.5-.7.1-1.2 1-2 1.6-3 1 .3 0 1.4.3 2.2z" fill="#ffd500"/><path d="M129.9 287.025c1.6 2.9-.5 5.7-1.2 8.4-.6.5-1.2-.4-1.9-.6-.1-2.1 2-3.9.9-6-.7 1.5-1.2 3.2-1.9 5-.5 0-1-.5-1.1-1-.7-1.5.4-2.9 1-4.1l2.1-3.5c1 .2 1.7 1 2.1 1.8z" fill="#fff"/><path d="M215.9 291.125c1.2-.4 2.6-.7 3.9-.7-5.4 4.4-13.5 2.9-20.2 2.4-4.5-.6-9-1.6-13.2-3-.5-.5-1.1-1-1.2-1.6 9.6 2.5 19.9 4.8 30.7 2.9z" fill="#ffd500"/><path d="M149.6 299.725c-.6.4-1.5.3-2.1.4-1.4-2.1-3.6-3-6-3.1-1-2-3-2.9-4.9-3.5-.3-2.5-2.9-3.7-4.9-4.5l.2-.2c7 1.4 12 7.2 17.7 10.9z" fill="#e53138"/><path d="M171.6 291.425c.1 1.5-.5 2.6-1.4 3.7-.5.1-1-.3-1.4-.6.6-.5.9-1.2.7-2-1 .1-1.9 2.4-2.9.9 1.1-1.6 2.7-2.6 4.1-4.1.9.2.7 1.3.9 2.1z" fill="#fff"/><path d="M188.8 298.625c-.6.3-1.1-.4-1.4-.9-1.2-2.7-2.5-5.5-3.4-8.4l1.1.9 3.7 8.4z" fill="#ffd500"/><path d="M135 292.525c1 2.7-.7 5.2-.9 8-.6.1-1.4.1-1.9-.4-.5-2.1 1.5-4.2-.1-6.1l-.3.3-.7 5.1c-.5 0-1.1-.7-1.2-1.2-1.1-2.7 1.1-4.7 1.5-7.2.4-1 1.4-.1 2 0 .6.1 1.2.8 1.6 1.5z" fill="#fff"/><path d="M215.6 294.025c-.5 1.7-1.7 3.2-2.9 4.7-5.5 6-12.1 11-19.3 13.5l-1.7.4c.3-2 1-4 1.2-6.1 4-1.9 8.9-2.1 11.9-6.1.1-.6.6-1.6-.1-2-1.7-.5-2.9 1-4.5 1.1-3 .6-6.7 1.4-9.6.1-1.4-2.6-2.5-5.4-3.5-8.1l.1-.2c8.9 2.3 18.9 3.9 28.4 2.7z" fill="#ffd500"/><path d="M220 292.025c-1 2.6-3.1 4.7-4.9 7.1-7.1 8.5-16.5 13.6-26 17.2.4-.7 1.1-1.7 1.9-2.4 7.9-1.6 14.2-6.6 20.3-12.1 2.6-2.5 4.5-5.5 6.1-8.5 1-.5 1.7-1.1 2.6-1.3z" fill="#ffd500"/><path d="M140.9 298.325c.5 2.2-.4 4.9.3 7.2-.7.2-1.5-.1-2.1-.4-.9-1.9.5-4.7-1.2-6.4l-.1.2v5.4c-.7 0-1.6-1-2-1.7-.7-2.6.4-5.2.9-7.7 1.1-.3 2.1.5 3 1.2l1.2 2.2zM144.9 299.325c1 .1 1.5 1.2 2 2 .9 2 .5 4.6 1.2 6.6-.4.6-1.5.4-2.1.1-1-1.7-.3-4.5-2.2-5.9.1 1.9.5 3.7.9 5.5-.4.4-1-.1-1.2-.5-2.6-2.2-.9-5.7-1.2-8.7.8-.2 1.9.1 2.6.9zM156.2 308.825c-.7.3-1.6.5-2.4.3-1.4-1.4-1.2-3.9-3.5-4.5l.1.6 2.1 4c-1.2.2-2.6-.1-3.2-1.2-1.1-1.9-.6-4.5-1.2-6.5 1.5-.7 3.1 0 4.2.9l1.7 2 2.2 4.4zM163.1 307.125c-.3.3-.4.9-.9.7-1.4-.3-2.2-2-3.9-1.5v.2l2.6 1.9c0 .6-1 .9-1.6.9-2.9-.5-3.2-3.7-4.4-5.7l.1-.1c2.6 1.7 5.5 2.2 8.1 3.6z" fill="#fff"/><path d="M191.4 308.825c-.5 2.5-1.1 5.1-3.4 6.7.3-2.1 1.4-4.4 1.6-6.9-.1-1 1-1.2 1.6-1.5.6.3.3 1.2.2 1.7z" fill="#ffd500"/><path d="M189.8 109.825c-.6.1-1 .1-1.2.3-.3.2-.4.4-.3.6.3.5 1.9-.6 2.6.6.4.7.1 1.4-.7 1.8-.6.3-1 .3-1.4.4l-.4-.8c.7.1 1 0 1.4-.2.3-.2.4-.4.3-.6-.3-.6-1.9.6-2.6-.7-.3-.6-.1-1.3.7-1.7.4-.2.8-.3 1.3-.4l.3.7zM194.5 111.825l-2.8.5-.7-4 2.7-.5.1.7-1.8.3.2.8 1.7-.3.1.7-1.7.3.2 1 1.8-.3.2.8zM198.4 107.825h.8l-.1 4h-1l.1-2.5-1.1 1.2h-.1l-1-1.3-.1 2.5h-1l.1-4h.8l1.2 1.5 1.4-1.4zM201.3 108.825h.3c.5.1.7.2.6.5 0 .3-.2.4-.6.4l-.4-.1.1-.8zm-.9-.8l-.5 4 1 .1.2-1.6.8.1c.9.1 1.3-.5 1.4-1.1.1-.5-.2-1.2-1.1-1.3l-1.8-.2zM206.4 112.925l-2.8-.4.6-4 2.8.4-.1.7-1.8-.3-.1.8 1.7.3-.1.7-1.7-.3-.2 1 1.9.3-.2.8zM208.6 109.925l.5.1c.4.1.5.2.5.5-.1.3-.3.4-.6.4l-.5-.1.1-.9zm-.8-.9l-.7 4 .9.2.3-1.6h.3c.5.1.5.9.8 1.8l1 .2c-.3-1.3-.4-1.8-.7-2 .5-.1.7-.4.8-.9.1-.6-.3-1.2-1.1-1.4l-1.6-.3zM215.5 110.825l-1.7-.2-.1.9 1.7.2-.1.7-1.7-.2-.2 1.7-1-.1.4-4 2.6.3.1.7zM217.1 114.125h-1v-4h1v4zM218.8 110.725l.6-.1c.9-.1 1.3.5 1.4 1.1.1.6-.2 1.3-1.1 1.4l-.6.1-.3-2.5zm-1.1-.6l.4 4 1.6-.2c1.5-.2 2.1-1.1 2-2.2-.1-1.1-.9-1.9-2.3-1.8l-1.7.2zM225.7 113.025l-2.8.5-.8-4 2.7-.5.1.7-1.8.4.2.8 1.7-.3.1.7-1.7.3.2 1 1.8-.4.3.8zM229.4 112.025l-2.8.8-1.1-3.9.9-.3.9 3.2 1.9-.5.2.7zM231 111.425l-.9.3-1.3-3.8.9-.3 1.3 3.8zM233.2 107.325c-.6 0-1 0-1.3.2-.3.1-.5.4-.4.5.3.6 2-.4 2.5.9.3.7-.1 1.4-.8 1.7-.6.3-1 .2-1.4.2l-.4-.8c.7.1 1 .1 1.4-.1.3-.2.5-.4.4-.6-.3-.6-2 .4-2.6-.9-.3-.6 0-1.3.9-1.7.4-.2.8-.2 1.3-.2l.4.8z"/></svg>