<svg version="1" xmlns="http://www.w3.org/2000/svg" width="1066.667" height="1066.667" viewBox="0 0 800.000000 800.000000"><path d="M279.5 39.4C259 45.2 243.1 57.6 234.1 75c-5.7 10.9-8.1 20.9-8.1 33.5 0 16.4 3.9 28.6 13.5 42 2.4 3.3 59.5 61.1 126.9 128.5L489 401.5l-125.8 126c-123.1 123.2-126 126.2-129.5 133.6-6.1 12.5-8 22.2-7.4 36.4.7 17.6 5.3 29.8 16 42.4 22.7 26.8 61.2 32.8 92.1 14.5 8.4-5 307.4-303.4 314.2-313.6 2.5-3.7 5.9-10.5 7.6-15 2.7-7.2 3.2-9.9 3.6-21 .7-19.4-3.4-33.5-13.5-46.3-7.2-9.2-306.5-307-311.9-310.4-2.8-1.7-8.9-4.6-13.5-6.3-7.7-2.9-9.6-3.2-22.4-3.5-9.9-.2-15.5.1-19 1.1z"/></svg>