<svg version="1" xmlns="http://www.w3.org/2000/svg" width="1066.667" height="1066.667" viewBox="0 0 800.000000 800.000000"><path d="M489.5 39.4c-8.8 2.5-15.8 5.6-22.5 10.1-4.5 3.1-53.3 51.2-159.6 157.7C158.8 356.1 154.2 360.7 150.7 368c-10.6 21.5-10.4 46 .4 67.3 4.2 8.1 6.1 10.1 152.8 157.1 81.7 81.8 151.9 151.6 155.9 155.1 12.7 11 26 16.2 43.7 17.2 33.4 1.7 63.3-20.1 71.5-52.3 2.4-9.4 2.7-26 .5-35.1-1.9-8-6.4-18-11.1-24.6-2.1-2.9-59.1-60.7-126.8-128.5L314.5 401l124.2-124.3C520.8 194.5 564 150.6 566.3 147c8.2-13.1 11.2-25.4 10.4-42.7-.6-14.3-3.5-23.7-10.6-34.6-8.7-13.1-20.3-22.3-35.2-27.9-7.7-2.9-9.6-3.2-22.4-3.5-9.9-.2-15.5.1-19 1.1z"/></svg>