<svg version="1" xmlns="http://www.w3.org/2000/svg" width="752" height="752" viewBox="0 0 564.000000 564.000000"><path d="M32.1 56C21.3 58.3 11 66.5 6.2 76.8c-2.3 4.8-2.7 7.1-2.7 14.7 0 8 .3 9.7 3.1 15.5 3.7 7.8 9.9 14.1 17.4 17.8l5.5 2.7h50l5.7-2.7c7.3-3.4 13.7-9.8 17.4-17.4 2.6-5.3 2.9-6.9 2.9-15.4 0-8.8-.3-10.1-3.3-16.2-4-8.1-11-14.8-19-17.9-5.2-2.1-7.6-2.3-26.2-2.5-11.3-.2-22.5.1-24.9.6zm127.3 0c-5.4 1.1-13.4 5.2-17.8 9.1-4.6 4-10.2 15.2-11 22.3-.9 6.5.7 15.2 3.6 21 3.1 6 10.5 13.3 16.7 16.3l5.6 2.8h378l4.8-2.2c7.1-3.3 15-11.3 18.3-18.6 3.8-8.3 4-20.2.5-29-4.2-10.8-15-19.4-27-21.7-6.5-1.2-365.5-1.2-371.7 0zM29 243.9c-7.9 2.5-15.6 8.3-19.8 14.9C-3 277.9 3.5 301.2 24 312.1c4.4 2.4 5 2.4 30.5 2.4h26l6.3-3.4c7.4-4 12.4-9.3 16.1-17.1 2.2-4.7 2.6-6.8 2.6-15s-.4-10.3-2.6-15.1c-3.6-7.6-8.6-12.9-16.1-17l-6.3-3.4-24.5-.2c-13.5-.1-25.6.2-27 .6zm123.8 1.5c-9.2 3.8-15 9.5-19.5 19.3-2.3 4.8-2.7 7.2-2.7 14.3 0 7.4.4 9.3 3 15 3.7 7.9 9.7 14 17.2 17.7l5.7 2.8h379l5.4-2.8c26.5-14 26.5-51.4-.1-65.4l-5.3-2.8-188.5-.2-188.5-.3-5.7 2.4zM27.4 431.8c-9.5 3.3-16.5 9.9-21.2 19.9-2.3 5-2.7 7.1-2.7 14.8 0 7.6.5 9.9 2.7 14.7 3.2 6.9 10.5 14.5 16.9 17.6 7.4 3.6 14.9 4.4 35.4 4 16.7-.4 19.7-.7 24.7-2.7 7.9-3.1 15-9.7 19-17.9 3-6.1 3.3-7.4 3.3-16.2 0-8.5-.3-10.1-2.9-15.4-3.7-7.6-10.1-14-17.4-17.4-5.6-2.7-6.1-2.7-29.2-2.9-20.4-.3-24.2-.1-28.6 1.5zm127.9-.4c-5.8 1.9-10.4 4.9-15.1 10-10.5 11.3-12.8 26.5-6.2 40.5 3.7 7.8 9.6 13.5 17.8 17.4l6.7 3.2 183.4.3c121.1.1 185.3-.1 189-.8 7.9-1.5 13.9-4.7 19.8-10.6 7-7.3 9.7-14.2 9.7-25.4.1-7.5-.3-9.3-3-15-3.7-7.8-9.9-14.1-17.4-17.8l-5.5-2.7-187.5-.2c-152.3-.1-188.3.1-191.7 1.1z"/></svg>