<svg width="40" height="40" viewBox="0 0 40 40" xmlns="http://www.w3.org/2000/svg" xmlns:xlink="http://www.w3.org/1999/xlink"><defs><path id="a" d="M.017.054v12.263H17.52V.054H.016z"/><path id="c" d="M.017 22.412V.192H27.81v22.22z"/></defs><g fill="none" fill-rule="evenodd"><circle fill="#F5A623" cx="19.738" cy="19.738" r="19.738"/><g transform="translate(5.805 14.01)"><mask id="b" fill="#fff"><use xlink:href="#a"/></mask><path d="M2.57 10.156c0-.7.583-1.284 1.284-1.284.7 0 1.285.584 1.285 1.284 0 .7-.585 1.285-1.286 1.285-.7 0-1.255-.583-1.284-1.284zm-.876-.028c0 1.196.963 2.16 2.16 2.16s2.16-.964 2.16-2.16c0-1.198-.963-2.16-2.16-2.16-1.168 0-2.16.962-2.16 2.16zm10.716.028c0-.7.584-1.284 1.285-1.284.7 0 1.284.584 1.284 1.284 0 .7-.585 1.285-1.285 1.285s-1.285-.583-1.285-1.284zm-.876 0c0 1.198.963 2.16 2.16 2.16 1.198 0 2.16-.992 2.16-2.188 0-1.198-.962-2.16-2.16-2.16-1.197 0-2.16.99-2.16 2.188zM.817 6.33h7.71V.055H.816V6.33zm9.695-3.473h4.876l.438 3.24h-5.314v-3.24zM0 6.623v3.563h1.43v-.03c0-1.372 1.11-2.48 2.454-2.48 1.343 0 2.452 1.108 2.452 2.48v.03h4.906v-.03c0-1.372 1.11-2.48 2.453-2.48 1.343 0 2.452 1.108 2.452 2.48v.03h.905a.461.461 0 0 0 .467-.467V9.25a.462.462 0 0 0-.468-.468h.088l-.876-6.51a.41.41 0 0 0-.41-.352H9.987a.4.4 0 0 0-.41.41v4.29H0z" fill="#FFFFFE" mask="url(#b)"/></g><path d="M26.615 10.808a.456.456 0 1 1-.456.457c0-.252.205-.456.457-.456m-.924 2.079a.457.457 0 1 1-.001.001m5.174-2.081a.457.457 0 1 1-.456.458c0-.252.205-.457.457-.457m-4.349 4.086a.458.458 0 1 1-.456.457c0-.252.205-.457.457-.457m4.428-.032a.457.457 0 1 1 0 .914.457.457 0 0 1 0-.914m-2.256.99a.457.457 0 1 1-.002 0m2.977-2.981a.456.456 0 1 1-.456.456c0-.252.204-.456.457-.456" fill="#FFFFFE"/><g transform="translate(5.805 8.127)"><mask id="d" fill="#fff"><use xlink:href="#c"/></mask><path d="M23.137 4.166V1.81h-.613v2.356a1.043 1.043 0 1 0 .614 0" fill="#FFFFFE" mask="url(#d)"/><path d="M22.83 9.168a4.001 4.001 0 0 1-3.996-3.997 4 4 0 0 1 3.997-3.996A4.001 4.001 0 0 1 26.83 5.17a4.002 4.002 0 0 1-3.997 3.998zm-7.684 9.873h-1.52 1.52zm-2.42 0H6.36h6.367zm-7.244 0h-1.52 1.52zm-2.396 0H0v3.372h21.304c.25 0 1.036-.04 1.547-.525.505-.478.513-1.307.508-1.492V12.04h1.347V9.782a4.986 4.986 0 0 0 3.105-4.612 4.985 4.985 0 0 0-4.98-4.978 4.986 4.986 0 0 0-4.98 4.98 4.983 4.983 0 0 0 3.107 4.61v2.257h1.345v8.38c.006.184-.048.577-.178.7-.218.207-.7.24-.848.235h-2.35V19.04H3.085z" fill="#FFFFFE" mask="url(#d)"/></g></g></svg>
