<svg width="40" height="40" viewBox="0 0 40 40" xmlns="http://www.w3.org/2000/svg"><g fill="none" fill-rule="evenodd"><circle cx="19.738" cy="19.738" r="19.738" fill="#205493"/><path d="M8.67 29.04h21.707v-.836H8.67v.835zm15.585-2.506h2.226V22.08h-2.225v4.454zm-11.69-2.505h5.567v-1.95h-5.566v1.95zm-.92-3.62a.84.84 0 0 0-.75.836v3.618c0 .46.375.835.836.835h7.237c.46 0 .835-.375.835-.836v-3.618a.836.836 0 0 0-.835-.835h-7.322zm-1.4-7.234h18.558l1.478 3.8c-.353.503-1.07.93-1.99.93-1.067 0-1.895-.562-2.157-1.165a.837.837 0 0 0-1.53 0c-.263.604-1.09 1.167-2.157 1.167s-1.895-.563-2.157-1.166a.837.837 0 0 0-1.532 0c-.262.604-1.09 1.167-2.157 1.167-1.065 0-1.893-.563-2.156-1.166a.836.836 0 0 0-1.53 0c-.262.604-1.09 1.167-2.157 1.167-.92 0-1.637-.428-1.99-.93l1.477-3.8zm.373-1.67h17.81v-.835H10.62v.836zM9.696 9a.837.837 0 0 0-.748.836v2.08l-1.887 4.85a.839.839 0 0 0 .01.636c.272.626.74 1.142 1.322 1.513v7.62h-.557a.422.422 0 0 0-.087 0 .834.834 0 0 0-.748.834v2.503c0 .462.374.835.835.835h23.377c.46 0 .835-.373.835-.835V27.37a.835.835 0 0 0-.835-.836h-.557v-5.288a.838.838 0 0 0-.93-.843.836.836 0 0 0-.74.843v5.288h-.834v-5.288a.835.835 0 0 0-.834-.835h-3.983a.837.837 0 0 0-.748.836v5.288H10.06v-7.01c.228.034.46.052.697.052 1.146 0 2.188-.42 2.922-1.12.733.7 1.775 1.12 2.92 1.12 1.147 0 2.19-.42 2.923-1.12.735.7 1.777 1.12 2.923 1.12 1.146 0 2.188-.42 2.922-1.12.734.7 1.776 1.12 2.922 1.12 1.64 0 3.102-.83 3.687-2.174a.836.836 0 0 0 .01-.635l-1.888-4.852v-2.08a.836.836 0 0 0-.836-.834H9.696z" fill="#FFFFFE"/></g></svg>
