<svg width="34" height="48" viewBox="0 0 34 48" xmlns="http://www.w3.org/2000/svg" xmlns:xlink="http://www.w3.org/1999/xlink"><title>map_scale</title><defs><path id="a" d="M.014.046V10.61H15.09V.045H.014z"/><path id="c" d="M.014 19.304V.164h23.94v19.14z"/></defs><g fill="none" fill-rule="evenodd"><path d="M17 47.392C28.333 33.39 34 23.26 34 17c0-9.39-7.61-17-17-17S0 7.61 0 17c0 6.26 5.667 16.39 17 30.392z" fill="#F5A623"/><g transform="translate(6 13.067)"><mask id="b" fill="#fff"><use xlink:href="#a"/></mask><path d="M2.213 8.748c0-.604.503-1.107 1.107-1.107.603 0 1.106.504 1.106 1.108 0 .603-.503 1.106-1.106 1.106-.604 0-1.082-.503-1.107-1.106zm-.754-.025c0 1.03.828 1.86 1.86 1.86 1.03 0 1.86-.83 1.86-1.86 0-1.03-.83-1.86-1.86-1.86-1.006 0-1.86.83-1.86 1.86zm9.23.025c0-.604.5-1.107 1.105-1.107.604 0 1.107.504 1.107 1.108 0 .603-.503 1.106-1.107 1.106S10.69 9.35 10.69 8.748zm-.756 0c0 1.03.83 1.86 1.86 1.86 1.032 0 1.862-.854 1.862-1.885 0-1.03-.83-1.86-1.86-1.86-1.032 0-1.862.854-1.862 1.885zM.704 5.453h6.64V.046H.703v5.407zm8.35-2.992h4.2l.377 2.792H9.055v-2.79zM0 5.706v3.068h1.232v-.025c0-1.182.956-2.138 2.113-2.138s2.112.956 2.112 2.138v.025h4.226v-.025c0-1.182.955-2.138 2.112-2.138s2.113.956 2.113 2.138v.025h.78c.226 0 .402-.176.402-.402V7.97c0-.226-.176-.402-.403-.402h.076l-.755-5.61c-.025-.175-.176-.3-.352-.3H8.6c-.2 0-.35.15-.35.352v3.697H0z" fill="#FFFFFE" mask="url(#b)"/></g><path d="M23.923 10.31c.217 0 .393.175.393.392 0 .217-.176.393-.393.393-.217 0-.393-.176-.393-.393 0-.217.176-.393.393-.393M23.13 12.1c.216 0 .392.176.392.393 0 .217-.176.393-.393.393-.218 0-.394-.176-.394-.393 0-.217.176-.393.393-.393M27.584 10.31c.217 0 .393.175.393.392 0 .217-.176.393-.393.393-.217 0-.393-.176-.393-.393 0-.217.177-.393.394-.393M23.84 13.83c.217 0 .393.175.393.392 0 .218-.176.394-.394.394-.218 0-.394-.176-.394-.394 0-.217.176-.393.393-.393M27.654 13.802c.217 0 .393.176.393.393 0 .217-.176.393-.393.393-.217 0-.393-.176-.393-.393 0-.217.177-.393.394-.393M25.71 14.654c.217 0 .393.176.393.393 0 .218-.176.394-.393.394-.217 0-.393-.175-.393-.393 0-.217.176-.393.393-.393M28.273 12.086c.217 0 .393.176.393.394 0 .217-.176.393-.393.393-.218 0-.393-.176-.393-.393 0-.218.175-.394.393-.394" fill="#FFFFFE"/><g transform="translate(6 8)"><mask id="d" fill="#fff"><use xlink:href="#c"/></mask><path d="M19.928 3.588v-2.03H19.4v2.03c-.367.113-.635.454-.635.86 0 .496.402.898.9.898.495 0 .898-.402.898-.9 0-.403-.268-.745-.635-.858" fill="#FFFFFE" mask="url(#d)"/><path d="M19.664 7.896c-1.898 0-3.443-1.544-3.443-3.442 0-1.898 1.546-3.442 3.444-3.442s3.443 1.544 3.443 3.442c0 1.898-1.545 3.442-3.443 3.442zm-6.62 8.504h-1.307 1.308zm-2.082 0H5.477h5.485zm-6.24 0H3.413 4.72zm-2.064 0H0v2.904h18.35c.215 0 .89-.035 1.33-.453.435-.41.443-1.124.44-1.284V10.37h1.158V8.425c1.567-.64 2.675-2.178 2.675-3.972 0-2.365-1.924-4.29-4.29-4.29-2.364 0-4.288 1.925-4.288 4.29 0 1.794 1.108 3.333 2.675 3.972v1.943h1.16v7.216c.004.16-.043.5-.155.604-.188.18-.6.207-.73.203H16.3V16.4H2.658z" fill="#FFFFFE" mask="url(#d)"/></g></g></svg>