<svg width="34" height="48" viewBox="0 0 34 48" xmlns="http://www.w3.org/2000/svg"><g fill="none" fill-rule="evenodd"><path d="M17 47.392C28.333 33.39 34 23.26 34 17c0-9.39-7.61-17-17-17S0 7.61 0 17c0 6.26 5.667 16.39 17 30.392z" fill="#205493"/><path d="M7.42 26.033h18.45v-.71H7.42v.71zm13.246-2.13h1.893V20.12h-1.894v3.784zm-9.935-2.128h4.732V20.12h-4.73v1.655zM9.95 18.7a.71.71 0 0 0-.636.71v3.074c0 .392.317.71.71.71h6.15a.71.71 0 0 0 .71-.71V19.41a.71.71 0 0 0-.71-.71h-6.15a.457.457 0 0 0-.074 0zm-1.19-6.15h15.775l1.256 3.23c-.302.427-.91.79-1.694.79-.906 0-1.61-.477-1.833-.99a.71.71 0 0 0-1.302 0c-.223.513-.927.99-1.833.99-.908 0-1.612-.477-1.835-.99a.71.71 0 0 0-1.3 0c-.222.513-.926.99-1.833.99-.906 0-1.61-.477-1.832-.99a.71.71 0 0 0-1.301 0c-.223.513-.927.99-1.834.99-.782 0-1.39-.363-1.692-.79l1.257-3.23zm.317-1.42h15.14v-.71H9.075v.71zM8.292 9a.712.712 0 0 0-.636.71v1.767l-1.604 4.125a.707.707 0 0 0 .007.54c.23.532.628.97 1.123 1.286v6.476H6.71a.457.457 0 0 0-.074 0 .71.71 0 0 0-.636.71v2.128c0 .392.318.71.71.71h19.87a.71.71 0 0 0 .71-.71v-2.13a.71.71 0 0 0-.71-.708h-.473V19.41a.709.709 0 0 0-.698-.722c-.032 0-.063 0-.094.004a.71.71 0 0 0-.628.717v4.494h-.71V19.41a.71.71 0 0 0-.71-.71h-3.31a.47.47 0 0 0-.075 0 .71.71 0 0 0-.636.71v4.494H8.602v-5.958c.193.028.39.044.59.044.976 0 1.86-.356 2.485-.954.624.598 1.51.954 2.484.954.975 0 1.86-.356 2.485-.954.624.598 1.51.954 2.484.954.973 0 1.86-.356 2.483-.954.624.598 1.51.954 2.483.954 1.394 0 2.637-.705 3.135-1.848a.707.707 0 0 0 .008-.54l-1.604-4.125V9.71c0-.39-.318-.71-.71-.71H8.292z" fill="#FFFFFE"/></g></svg>
