<svg width="40" height="40" viewBox="0 0 40 40" xmlns="http://www.w3.org/2000/svg"><title>texticon_pppo</title><g fill="none" fill-rule="evenodd"><circle cx="19.738" cy="19.738" r="19.738" fill="#205493"/><path d="M8.67 29.04h21.707v-.836H8.67v.835zm15.585-2.506h2.226V22.08h-2.225v4.454zm-11.69-2.505h5.567v-1.95h-5.566v1.95zm-.92-3.62c-.428.046-.75.407-.75.836v3.618c0 .46.375.835.836.835h7.237c.46 0 .835-.375.835-.836v-3.618c0-.46-.374-.835-.835-.835h-7.322zm-1.4-7.234h18.558l1.478 3.8c-.353.503-1.07.93-1.99.93-1.067 0-1.895-.562-2.157-1.165-.184-.42-.677-.615-1.1-.43-.192.084-.346.238-.43.43-.263.604-1.09 1.167-2.157 1.167s-1.895-.563-2.157-1.166c-.185-.42-.678-.615-1.1-.43-.194.084-.348.238-.432.43-.262.604-1.09 1.167-2.157 1.167-1.065 0-1.893-.563-2.156-1.166-.184-.42-.676-.615-1.1-.43-.192.084-.346.238-.43.43-.262.604-1.09 1.167-2.157 1.167-.92 0-1.637-.428-1.99-.93l1.477-3.8zm.373-1.67h17.81v-.835H10.62v.836zM9.696 9c-.427.046-.75.407-.748.836v2.08l-1.887 4.85c-.08.206-.077.434.01.636.272.626.74 1.142 1.322 1.513v7.62h-.557c-.03-.003-.058-.003-.087 0-.427.044-.75.405-.748.834v2.503c0 .462.374.835.835.835h23.377c.46 0 .835-.373.835-.835V27.37c0-.462-.374-.836-.835-.836h-.557v-5.288c.008-.46-.36-.84-.82-.85-.037 0-.074.002-.11.007-.427.05-.747.414-.74.843v5.288h-.834v-5.288c0-.46-.373-.835-.834-.835h-3.983c-.427.046-.75.407-.748.836v5.288H10.06v-7.01c.228.034.46.052.697.052 1.146 0 2.188-.42 2.922-1.12.733.7 1.775 1.12 2.92 1.12 1.147 0 2.19-.42 2.923-1.12.735.7 1.777 1.12 2.923 1.12 1.146 0 2.188-.42 2.922-1.12.734.7 1.776 1.12 2.922 1.12 1.64 0 3.102-.83 3.687-2.174.087-.202.09-.43.01-.635l-1.888-4.852v-2.08c0-.46-.375-.834-.836-.834H9.696z" fill="#FFFFFE"/></g></svg>