<svg width="168" height="285" viewBox="0 0 168 285" xmlns="http://www.w3.org/2000/svg"><title>Untitled</title><path d="M136.285 2.918L3.24 135.972c-1.903 1.9-2.856 4.088-2.856 6.562s.953 4.665 2.856 6.567l133.045 133.044c1.905 1.905 4.093 2.855 6.568 2.855 2.474 0 4.664-.953 6.566-2.856l14.27-14.272c1.903-1.903 2.854-4.093 2.854-6.567s-.95-4.664-2.854-6.567L51.487 142.534l112.21-112.208c1.902-1.902 2.847-4.093 2.847-6.563 0-2.478-.95-4.668-2.848-6.57L149.419 2.919c-1.902-1.903-4.093-2.848-6.566-2.848-2.476 0-4.666.944-6.57 2.846l.002.001z" fill-rule="nonzero" fill="#0071BC"/></svg>