<svg width="97" height="97" viewBox="0 0 97 97" xmlns="http://www.w3.org/2000/svg"><g fill="none"><path fill="#282945" d="M.13 96.505h96.167V.338H.13z"/><path d="M89.872 75.797h-3.904v.966h4.315v1.397h-6.472v-6.103h6.41v1.377h-4.253v.986h3.904v1.377zM64.086 72.2c-.575-.246-1.336-.35-2.26-.35-1.603.042-2.733.494-3.39 1.418-.37.514-.555 1.151-.555 1.911 0 .72.205 1.295.596 1.809.637.924 1.767 1.376 3.41 1.376 1.274 0 2.26-.267 2.918-.822l.72-.822c.308-.472.451-1.027.451-1.643 0-1.398-.616-2.364-1.89-2.877zm-.35 2.918c0 .842-.308 1.397-.924 1.705-.226.144-.514.206-.843.206-.616 0-1.11-.206-1.417-.617-.308-.37-.431-.78-.431-1.294s.123-.925.41-1.274c.329-.452.822-.658 1.438-.658.638.041 1.13.288 1.439.72.226.349.329.76.329 1.212zm-6.986.842H53.3v2.199h-2.16v-6.103h5.918v1.377h-3.76v1.17h3.451v1.357zm21.143-2.28c-.39.328-.555.821-.555 1.438 0 .513.145.924.411 1.253.309.411.781.617 1.377.617.432 0 .843-.124 1.233-.411.205-.165.329-.37.431-.617l2.055.205-.329.76c-.596.966-1.746 1.44-3.431 1.44l-1.747-.248c-1.5-.472-2.26-1.458-2.26-3 0-.821.247-1.52.72-2.095.678-.781 1.787-1.192 3.328-1.192 1.952 0 3.184.637 3.616 1.91l-2.013.37a1.302 1.302 0 0 0-.514-.636 1.988 1.988 0 0 0-1.027-.288c-.514 0-.966.185-1.295.493zm-3.842.328c0-.678-.246-1.192-.72-1.541-.369-.267-.924-.411-1.705-.411h-4.458v6.103h2.157v-2.22h1.192l1.233 2.22h2.404l-1.5-2.425c.431-.144.78-.35.986-.596a1.66 1.66 0 0 0 .411-1.13zm-2.199 0c0 .39-.307.555-.883.555h-1.644v-1.09h1.85c.246 0 .41.021.555.125l.122.41zm-49.003.72c.718.246 1.068.718 1.068 1.437 0 .412-.103.76-.308 1.069-.473.719-1.541 1.09-3.185 1.09-1.192 0-2.013-.227-2.507-.68-.328-.307-.534-.718-.637-1.293l2.157-.083c.062.452.514.699 1.336.699l.74-.144c.206-.144.308-.267.308-.452 0-.226-.123-.37-.431-.472l-2.61-.576c-.78-.308-1.191-.822-1.191-1.54 0-.453.164-.823.472-1.213.514-.514 1.376-.74 2.568-.74l1.85.226c.719.247 1.17.76 1.335 1.542l-2.116.102c-.103-.37-.452-.534-1.069-.534-.657 0-.966.164-.966.472l.083.206c.103.144.431.267 1.089.41l2.014.474zm1.479 3.43h1.993v-1.581h-1.993v1.582zm-10.993-2.917c0 .924-.143 1.623-.37 1.993-.493.76-1.54 1.13-3.225 1.13-1.192 0-2.055-.164-2.569-.473-.678-.349-1.027-1.006-1.027-1.931v-3.904h2.158v3.472c0 .411.061.72.163.884.247.411.7.617 1.275.617.452 0 .78-.144 1.027-.37.246-.247.37-.617.37-1.172v-3.431h2.198v3.185zm.37 2.918h1.952v-1.582h-1.952v1.582zm31.54-6.103h-4.439v6.103h2.178v-2.22h1.13l1.274 2.22h2.404l-1.54-2.425c.43-.103.78-.308 1.027-.596a1.86 1.86 0 0 0 .37-1.13c0-.678-.247-1.192-.679-1.541-.39-.267-.924-.411-1.725-.411zm-.617 2.507h-1.644v-1.09h1.788c.267 0 .452.021.554.125a.572.572 0 0 1 .165.41c0 .39-.267.555-.863.555zm-7.623 3.596h2.178v-6.103h-2.178v6.103zm-4.664-4.418l.72 2.055h-1.398l.678-2.055zm-1.233-1.685l-2.63 6.103h2.384l.308-.987h2.342l.329.987h2.363l-2.63-6.103h-2.466zm41.258-54.571l-6.842 14.239 10.17-7.356-3.328-6.883zm3.986 7.972L48.326 45.84l1.686 5.095 21.635-15.718 4.705-9.76zm-5.856 12.184L50.422 52.23h8.733l6.636-4.828 4.705-9.76zM50.771 55.97c0 .822-.308 1.541-.904 2.116-.575.596-1.294.904-2.157.904-.842 0-1.561-.308-2.158-.904a2.918 2.918 0 0 1-.883-2.116c0-.863.308-1.582.883-2.157.597-.576 1.316-.884 2.158-.884.863 0 1.582.308 2.157.884.596.575.904 1.294.904 2.157zm1.336 1.398l2.076 6.45 6.656-4.828-5.486-3.986-3.246 2.364zm-32.34-32.999l10.15 7.356-6.822-14.239-3.329 6.883zm4.006 10.849L45.45 50.935l1.685-5.095-28.047-20.383 4.685 9.76zm5.856 12.184l6.657 4.828h8.733L24.944 37.641l4.685 9.76zm10.458 7.602L34.6 58.99l6.678 4.829 2.096-6.451-3.288-2.364zm7.623 13.5l5.486-3.966-5.486-3.986-5.465 3.986 5.465 3.966z" fill="#FFFFFE"/></g></svg>
