<svg xmlns="http://www.w3.org/2000/svg" width="600" height="600" viewBox="0 0 600 600"><path fill="#FFF" d="M227.126 30.335l1.804 1.743 29.777 28.887 1.829 1.77-1.731 1.867-39.932 42.735c-1.623 1.731-1.798 4.374-.417 6.323.961 1.355 2.507 2.096 4.078 2.096.684 0 1.375-.134 2.033-.436 24.138-10.735 49.963-16.189 76.754-16.189 26.809 0 52.664 5.465 76.823 16.227.659.29 1.358.433 2.043.433 1.575 0 3.114-.75 4.076-2.094 1.388-1.938 1.206-4.592-.424-6.327l-39.953-42.769-1.74-1.867 1.83-1.77 29.782-28.887 1.806-1.743 1.804 1.743 63.511 61.638c.944.921 2.205 1.418 3.483 1.418.593 0 1.18-.108 1.753-.315 1.81-.678 3.074-2.338 3.232-4.265.954-10.855 5.699-21.082 13.403-28.778 8.76-8.759 20.426-13.581 32.854-13.581 12.418 0 24.088 4.822 32.847 13.581 18.116 18.115 18.116 47.583 0 65.698-7.451 7.438-16.926 12.03-27.408 13.242-1.925.233-3.538 1.54-4.163 3.369-.616 1.829-.13 3.854 1.263 5.209l62.192 60.353 1.885 1.855-1.859 1.853-28.214 28.221-1.702 1.683-1.812-1.551-49.737-42.49c-.934-.802-2.097-1.212-3.248-1.212-1.084 0-2.169.35-3.07 1.065-1.877 1.441-2.473 4.009-1.437 6.143 12.608 25.821 18.991 53.651 18.991 82.731 0 38.241-11.302 74.991-32.695 106.263-1.352 1.987-1.108 4.655.581 6.363l27.638 27.781c.807.814 2.643 2.145 5.913 2.145 3.078 0 6.726-1.14 11.171-3.487.136-.089.273-.158.4-.246 2.861-1.863 5.49-3.997 7.828-6.333 9.439-9.441 12.055-20.067 12.738-24.197.305-1.868-.454-3.746-1.986-4.861-.87-.64-1.907-.968-2.95-.968-.782 0-1.557.18-2.275.545l-19.273 9.813c2.406-6.531 5.241-15.267 7.634-25.503 4.501-19.229 8.095-47.293 1.134-75.222 20.858 1.879 40.829 11.754 59.454 29.396 10.488 9.947 17.859 19.99 21.611 25.564l-22.736 11.585c-2.315 1.186-3.352 3.936-2.358 6.348 2.756 6.784 9.888 31.576-14.383 66.254-23.14 33.104-23.565 61.102-22.031 74.009-2.545-.278-5.677-.485-9.342-.485-13.88 0-36.181 2.98-63.57 17.169-.015.013-.038.023-.066.036-21.102 11.377-42.237 13.765-56.264 13.765-10.772 0-18.236-1.395-19.629-1.671-.328-.073-.665-.098-.987-.098-1.72 0-3.332.872-4.259 2.362l-15.321 24.706c-4.903-3.757-13.463-10.93-22.059-21.011-10.985-12.855-24.138-33.03-27.185-58.329 9.058 1.732 19.521 2.595 31.214 2.595 27.311 0 55.146-4.629 70.348-7.647l-9.092 14.659c-1.069 1.735-.988 3.94.203 5.59.953 1.306 2.467 2.058 4.054 2.058.395 0 .788-.036 1.176-.135 6.392-1.535 22.036-5.925 29.382-13.269.783-.784 1.479-1.597 2.056-2.42 2.896-4.131 3.991-8.276 3.271-12.288-.818-4.517-3.756-7.28-4.956-8.239l-23.748-23.759c-.977-.959-2.258-1.454-3.546-1.454-.955 0-1.906.254-2.735.813-30.578 20.027-66.257 30.618-103.167 30.618-36.92 0-72.591-10.591-103.172-30.618-.839-.559-1.794-.825-2.745-.825-1.291 0-2.568.497-3.538 1.452l-23.762 23.773c-1.201.959-4.133 3.723-4.942 8.239-.732 4.012.367 8.157 3.253 12.288.592.823 1.284 1.646 2.059 2.42 7.344 7.344 22.998 11.733 29.376 13.269.399.099.786.135 1.182.135 1.581 0 3.096-.752 4.053-2.058 1.191-1.649 1.266-3.854.191-5.59l-9.08-14.659c15.194 3.019 43.031 7.647 70.351 7.647 11.686 0 22.153-.862 31.205-2.595-3.03 25.299-16.194 45.474-27.165 58.329-8.615 10.081-17.176 17.254-22.078 21.011l-15.322-24.706c-.913-1.49-2.538-2.362-4.247-2.362-.333 0-.667.024-1 .098-1.381.276-8.846 1.671-19.614 1.671-14.025 0-35.17-2.388-56.27-13.765-.026-.013-.055-.023-.075-.036-27.383-14.188-49.676-17.169-63.562-17.169-3.667 0-6.792.207-9.331.485 1.528-12.907 1.109-40.905-22.046-74.009-24.27-34.689-17.145-59.482-14.375-66.254.976-2.412-.05-5.162-2.359-6.348l-22.736-11.585c3.739-5.574 11.123-15.617 21.611-25.564 18.624-17.643 38.591-27.518 59.458-29.396-6.976 27.929-3.369 55.993 1.126 75.222 2.392 10.236 5.227 18.972 7.638 25.503l-19.269-9.813c-.715-.365-1.505-.545-2.281-.545-1.048 0-2.082.328-2.954.968-1.528 1.115-2.283 2.993-1.987 4.848.684 4.134 3.288 14.759 12.739 24.211 2.346 2.336 4.979 4.47 7.834 6.333.12.088.255.157.393.246 4.449 2.348 8.102 3.487 11.171 3.487 3.286 0 5.101-1.33 5.913-2.145l27.664-27.77c1.694-1.71 1.939-4.375.58-6.36-21.392-31.286-32.701-68.036-32.701-106.277 0-29.054 6.389-56.862 18.962-82.659 1.034-2.131.442-4.701-1.436-6.154-.898-.704-1.981-1.054-3.067-1.054-1.157 0-2.32.399-3.248 1.201l-49.654 42.43-1.824 1.551-1.703-1.683-28.207-28.221-1.873-1.853 1.898-1.855 62.194-60.353c1.388-1.355 1.878-3.38 1.253-5.209-.618-1.818-2.24-3.136-4.156-3.369-10.5-1.212-19.968-5.804-27.415-13.242-8.748-8.762-13.581-20.418-13.581-32.848 0-12.432 4.833-24.1 13.581-32.862 8.762-8.747 20.43-13.569 32.856-13.569 12.417 0 24.086 4.822 32.848 13.569 7.688 7.708 12.449 17.935 13.389 28.79.175 1.927 1.441 3.587 3.248 4.265.574.207 1.164.315 1.743.315 1.284 0 2.539-.497 3.489-1.418l63.505-61.638 1.813-1.744M101.44 114.254c.83 0 1.648-.207 2.38-.594 1.298-.704 2.206-1.927 2.527-3.357.727-3.429 2.436-6.568 4.914-9.038 3.058-3.066 7.136-4.945 11.476-5.284 1.453-.108 2.792-.858 3.652-2.047.859-1.174 1.155-2.691.822-4.095-.875-3.73-2.785-7.125-5.493-9.838-3.9-3.914-9.107-6.057-14.624-6.057-5.525 0-10.717 2.143-14.626 6.057-8.064 8.07-8.064 21.191 0 29.249 2.053 2.059 4.471 3.624 7.179 4.667.576.228 1.192.337 1.793.337m399.811 0c.599 0 1.212-.109 1.794-.338 2.698-1.031 5.118-2.608 7.176-4.667 8.065-8.058 8.065-21.179 0-29.249-3.897-3.914-9.09-6.057-14.615-6.057-5.533 0-10.724 2.143-14.634 6.057-2.706 2.713-4.603 6.12-5.487 9.838-.345 1.419-.042 2.921.824 4.095.863 1.189 2.194 1.939 3.647 2.047 4.345.339 8.409 2.218 11.48 5.284 2.471 2.47 4.175 5.609 4.915 9.038.306 1.43 1.222 2.653 2.507 3.357.739.389 1.574.595 2.393.595"/><path fill="#0072AF" d="M301.311 408.117c-66.183 0-120.021-53.847-120.021-120.027 0-66.192 53.838-120.026 120.021-120.026 66.187 0 120.033 53.834 120.033 120.026 0 66.181-53.847 120.027-120.033 120.027zm0-231.826c-61.643 0-111.796 50.162-111.796 111.799 0 61.639 50.153 111.787 111.796 111.787 61.644 0 111.793-50.148 111.793-111.787 0-61.637-50.15-111.799-111.793-111.799z"/><path fill="none" d="M95.994 83.684c-6.113 6.117-6.113 16.042 0 22.173 1.6 1.6 3.458 2.774 5.44 3.539.911-4.23 2.999-8.251 6.277-11.536 4.075-4.072 9.288-6.3 14.618-6.726-.655-2.725-2.037-5.318-4.167-7.449-6.12-6.121-16.042-6.121-22.168-.001zm368.86 100.263l65.453 55.931 28.208-28.219-67.667-65.672-8.916-8.653-1.407-1.37c1.056.388 2.129.729 3.204 1.031 3.407.957 6.902 1.491 10.423 1.6 11.702.388 23.517-3.876 32.46-12.808 17.134-17.133 17.134-44.903 0-62.037-17.133-17.119-44.912-17.119-62.037 0-9.26 9.271-13.506 21.643-12.753 33.77.289 4.603 1.297 9.172 3.036 13.522l-10.314-9.996-68.981-66.956-29.783 28.885 54.595 58.438c13.671 8.155 26.434 18.078 37.988 29.625 10.115 10.107 18.967 21.158 26.491 32.909zm7.662-92.098c.62-4.954 2.823-9.742 6.622-13.547 9.07-9.075 23.833-9.075 32.915 0 9.076 9.09 9.076 23.847 0 32.934-3.011 2.992-6.626 5.005-10.48 6.022-2.549.666-5.198.91-7.822.691.599-2.498.559-5.126-.096-7.621-.68-2.605-2.03-5.066-4.073-7.088-2.562-2.57-5.803-4.061-9.146-4.471-2.539-.305-5.162 0-7.581.933-.559-2.581-.667-5.246-.339-7.853z"/><path fill="none" d="M202.36 121.354l54.535-58.377-29.781-28.885-68.985 66.944-10.313 10.008c1.74-4.351 2.74-8.92 3.03-13.522.752-12.127-3.484-24.5-12.748-33.77-17.131-17.119-44.903-17.119-62.037 0-17.127 17.133-17.127 44.903 0 62.025 8.931 8.943 20.757 13.208 32.454 12.819 3.521-.109 7.021-.655 10.433-1.6 1.072-.315 2.151-.643 3.199-1.031l-1.413 1.37-8.917 8.653-67.66 65.672 28.216 28.219 65.336-55.845c7.538-11.788 16.413-22.851 26.549-32.993 11.59-11.584 24.386-21.52 38.102-29.687zm-72.547-21.651c-2.419-.933-5.029-1.238-7.588-.933-3.326.411-6.574 1.901-9.141 4.471-2.031 2.022-3.38 4.483-4.078 7.088-.649 2.495-.683 5.123-.083 7.621-2.625.219-5.278-.025-7.828-.691-3.84-1.017-7.464-3.03-10.483-6.022-9.06-9.087-9.06-23.844 0-32.934 9.078-9.075 23.854-9.075 32.928 0 3.789 3.805 5.991 8.593 6.617 13.536.334 2.617.219 5.282-.344 7.864zm371.424 9.693c1.982-.764 3.835-1.938 5.436-3.539 6.125-6.131 6.125-16.056 0-22.173-6.116-6.12-16.042-6.12-22.173 0-2.127 2.131-3.501 4.725-4.15 7.449 5.318.426 10.542 2.654 14.611 6.726 3.28 3.286 5.361 7.306 6.276 11.537zM487.53 288.09c0-36.506-10.567-70.591-28.804-99.367-15.805-24.974-37.396-45.922-62.859-60.997-27.736-16.418-60.061-25.854-94.557-25.854-34.456 0-66.751 9.413-94.461 25.793-25.53 15.098-47.169 36.107-63.014 61.141-18.192 28.766-28.74 62.8-28.74 99.284 0 102.675 83.532 186.218 186.215 186.218 102.681 0 186.22-83.543 186.22-186.218z"/><path fill="none" d="M557.077 367.307l26.22-13.133c-4.009-5.695-10.69-14.285-19.688-22.804-8.888-8.42-18.284-15.123-27.917-19.907-8.577-4.278-17.386-7.041-26.285-8.276 5.942 27.214 2.408 54.124-1.959 72.81-1.736 7.413-3.707 14.054-5.584 19.665l23.93-12.192.698 12.192c-.456 3.44-2.784 15.895-13.628 26.753-2.479 2.458-5.238 4.713-8.245 6.664l-.283.193-.321.17c-12.051 6.374-17.789 3.392-20.248.766l-26.736-26.658c-5.64 7.571-11.865 14.795-18.668 21.591-7.563 7.563-15.648 14.408-24.161 20.539l22.547 22.606c1.588 1.286 5.278 4.945 6.228 10.168.585 3.248 1.838 10.881-6.935 17.012-8.767 6.131-22.241 17.062-49.515 18.672 4.985-8.229 15.292-24.414 15.292-24.414-6.999 1.282-59.386 10.103-89.592 4.579 4.15 29.189 31.255 59.612 43.719 69.646l16.079-26.294s33.404 10.869 79.378-9.874l.038-.036.07-.023c32.171-16.687 57.525-18.187 71.224-17.241-1.073-14.433-2.679-33.007 22.786-72.641 13.994-21.785 15.424-37.548 15.21-48.116-.152-7.33-3.654-22.417-3.654-22.417zm-411.423 36.327l-26.42 26.573c-2.453 2.626-8.202 5.608-20.247-.766l-.305-.17-.296-.193c-2.998-1.951-5.767-4.206-8.239-6.664-10.843-10.858-13.175-23.313-13.618-26.753l.684-12.192 23.931 12.192c-1.878-5.611-3.843-12.252-5.574-19.665-4.379-18.686-7.906-45.596-1.97-72.81-8.905 1.235-17.712 3.998-26.279 8.276-9.638 4.784-19.035 11.487-27.923 19.907-8.997 8.519-15.679 17.108-19.682 22.804l26.219 13.133s-3.501 15.087-3.653 22.416c-.218 10.568 1.218 26.331 15.207 48.116 25.47 39.634 23.853 58.208 22.785 72.641 13.693-.945 39.059.555 71.234 17.241l.055.023.049.036c45.963 20.743 79.382 9.874 79.382 9.874l16.071 26.294c12.464-10.034 39.556-40.457 43.718-69.646-30.207 5.523-82.587-3.297-89.603-4.579 0 0 10.318 16.186 15.298 24.414-27.269-1.61-40.736-12.541-49.507-18.672-8.767-6.131-7.527-13.764-6.938-17.012.95-5.223 4.647-8.882 6.234-10.168l22.495-22.376c-8.632-6.181-16.837-13.109-24.5-20.77-6.776-6.77-12.985-13.97-18.608-21.504z"/><path fill="#0072AF" d="M594.221 357.104s-35.385-61.805-94.945-62.254c17.684 56.21-11.872 116.671-11.872 116.671l31.35-15.969c-.575 3.465-2.853 12.999-11.34 21.48-1.976 1.988-4.301 3.913-7.031 5.684-9.025 4.775-11.187 2.242-11.187 2.242l-27.639-27.785c21.828-31.901 33.573-69.583 33.573-109.084 0-29.927-6.748-58.814-19.492-84.937l49.72 42.506 5.343 4.566 4.975-4.968 28.212-28.218 5.46-5.454-5.542-5.379-62.196-60.365c11.111-1.295 21.865-6.18 30.381-14.686 20.062-20.063 20.062-52.718 0-72.771-20.071-20.076-52.726-20.065-72.787 0-8.885 8.883-13.829 20.246-14.844 31.879l-63.505-61.637-5.292-5.126-5.296 5.126-29.789 28.885-5.352 5.198 5.095 5.453 39.955 42.772c-24.504-10.93-51.24-16.662-78.864-16.662-27.589 0-54.308 5.731-78.791 16.625l39.933-42.735 5.088-5.453-5.355-5.198-29.79-28.885-5.289-5.138-5.288 5.138-63.504 61.637c-1.022-11.633-5.957-22.997-14.841-31.879-20.065-20.076-52.714-20.076-72.786 0-20.06 20.054-20.06 52.709 0 72.771 8.507 8.506 19.258 13.391 30.37 14.686l-62.201 60.365-5.536 5.379 5.465 5.454 28.207 28.218 4.974 4.968 5.339-4.566 49.659-42.422c-12.734 26.099-19.471 54.949-19.471 84.853 0 39.501 11.751 77.183 33.568 109.097l-27.649 27.772s-2.169 2.533-11.203-2.242c-2.714-1.771-5.04-3.695-7.027-5.684-8.48-8.481-10.766-18.016-11.329-21.48l31.345 15.969S85.636 351.06 103.326 294.85c-59.553.45-94.945 62.254-94.945 62.254l27.638 14.081c-2.878 7.063-10.93 34.083 14.916 71.016 30.223 43.218 19.936 77.254 19.936 77.254s30.783-8.833 76.794 15.015c37.483 20.196 74.919 13.459 79.262 12.586l18.164 29.286s53.513-35.004 56.201-92.933c-44.484 11.646-117.57-6.046-117.57-6.046l15.306 24.669c-4.778-1.139-20.399-5.32-27.018-11.936-.577-.583-1.068-1.152-1.496-1.758-6.271-8.965.896-13.884.896-13.884l23.99-23.99c31.22 20.451 67.714 31.44 105.912 31.44 38.183 0 74.678-10.989 105.898-31.431l23.983 23.98s7.169 4.919.901 13.884c-.428.605-.938 1.175-1.49 1.758-6.628 6.615-22.249 10.797-27.031 11.936l15.303-24.669s-73.074 17.691-117.564 6.046c2.683 57.929 56.201 92.933 56.201 92.933l18.158-29.286c4.354.873 41.774 7.61 79.259-12.586 46.019-23.848 76.808-15.015 76.808-15.015s-10.294-34.036 19.937-77.254c25.841-36.933 17.789-63.953 14.904-71.016l27.642-14.08zM345.778 62.976l29.783-28.885 68.981 66.956 10.314 9.996c-1.739-4.351-2.747-8.92-3.036-13.522-.753-12.127 3.493-24.5 12.753-33.77 17.125-17.119 44.904-17.119 62.037 0 17.134 17.133 17.134 44.903 0 62.037-8.943 8.932-20.758 13.196-32.46 12.808-3.521-.109-7.016-.643-10.423-1.6-1.075-.301-2.148-.643-3.204-1.031l1.407 1.37 8.916 8.653 67.667 65.672-28.208 28.219-65.453-55.931c-7.523-11.751-16.376-22.802-26.492-32.907-11.555-11.548-24.317-21.47-37.988-29.625l-54.594-58.44zM72.375 239.878L44.159 211.66l67.66-65.672 8.917-8.653 1.413-1.37c-1.048.388-2.127.715-3.199 1.031-3.412.945-6.912 1.491-10.433 1.6-11.696.388-23.522-3.876-32.454-12.819-17.127-17.122-17.127-44.892 0-62.025 17.133-17.119 44.905-17.119 62.037 0 9.264 9.271 13.5 21.643 12.748 33.77-.29 4.603-1.29 9.172-3.03 13.522l10.313-10.008 68.985-66.944 29.781 28.885-54.535 58.377c-13.716 8.167-26.512 18.104-38.1 29.687-10.136 10.143-19.011 21.205-26.549 32.993l-65.338 55.844zm93.889 228.407c-1.587 1.286-5.284 4.945-6.234 10.168-.589 3.248-1.829 10.881 6.938 17.012 8.771 6.131 22.239 17.062 49.507 18.672-4.979-8.229-15.298-24.414-15.298-24.414 7.016 1.282 59.396 10.103 89.603 4.579-4.162 29.189-31.254 59.612-43.718 69.646l-16.071-26.294s-33.418 10.869-79.382-9.874l-.049-.036-.055-.023c-32.175-16.687-57.542-18.187-71.234-17.241 1.068-14.433 2.685-33.007-22.785-72.641-13.988-21.785-15.425-37.548-15.207-48.116.152-7.329 3.653-22.416 3.653-22.416l-26.219-13.133c4.003-5.695 10.686-14.285 19.682-22.804 8.889-8.42 18.286-15.123 27.923-19.907 8.567-4.278 17.374-7.041 26.279-8.276-5.936 27.214-2.409 54.124 1.97 72.81 1.731 7.413 3.696 14.054 5.574 19.665L77.21 383.47l-.684 12.192c.442 3.44 2.774 15.895 13.618 26.753 2.473 2.458 5.241 4.713 8.239 6.664l.296.193.305.17c12.044 6.374 17.793 3.392 20.247.766l26.42-26.573c5.623 7.534 11.832 14.734 18.605 21.506 7.663 7.66 15.867 14.589 24.5 20.77l-22.492 22.374zM115.095 288.09c0-36.483 10.548-70.518 28.74-99.284 15.844-25.033 37.483-46.043 63.014-61.141 27.71-16.38 60.006-25.793 94.461-25.793 34.496 0 66.82 9.436 94.557 25.854 25.464 15.075 47.055 36.023 62.859 60.997 18.236 28.775 28.804 62.86 28.804 99.367 0 102.675-83.539 186.218-186.22 186.218-102.683 0-186.215-83.543-186.215-186.218zM545.52 437.839c-25.465 39.634-23.859 58.208-22.786 72.641-13.698-.945-39.053.555-71.224 17.241l-.07.023-.038.036c-45.974 20.743-79.378 9.874-79.378 9.874l-16.079 26.294c-12.464-10.034-39.568-40.457-43.719-69.646 30.206 5.523 82.593-3.297 89.592-4.579 0 0-10.307 16.186-15.292 24.414 27.273-1.61 40.748-12.541 49.515-18.672 8.772-6.131 7.52-13.764 6.935-17.012-.949-5.223-4.64-8.882-6.228-10.168L414.2 445.679c8.513-6.131 16.599-12.977 24.161-20.539 6.803-6.796 13.028-14.02 18.668-21.591l26.736 26.658c2.459 2.626 8.197 5.608 20.248-.766l.321-.17.283-.193c3.007-1.951 5.767-4.206 8.245-6.664 10.844-10.858 13.172-23.313 13.628-26.753l-.698-12.192-23.93 12.192c1.877-5.611 3.848-12.252 5.584-19.665 4.367-18.686 7.901-45.596 1.959-72.81 8.899 1.235 17.708 3.998 26.285 8.276 9.633 4.784 19.029 11.487 27.917 19.907 8.998 8.519 15.68 17.108 19.688 22.804l-26.22 13.133s3.502 15.087 3.652 22.416c.216 10.569-1.213 26.332-15.207 48.117z"/><path fill="#0072AF" d="M123.541 78.302c-9.074-9.075-23.85-9.075-32.928 0-9.06 9.09-9.06 23.847 0 32.934 3.019 2.992 6.643 5.005 10.483 6.022 2.55.666 5.203.91 7.828.691-.6-2.498-.566-5.126.083-7.621.698-2.605 2.047-5.066 4.078-7.088 2.567-2.57 5.815-4.061 9.141-4.471 2.559-.305 5.169 0 7.588.933.563-2.582.678-5.247.344-7.865-.626-4.942-2.828-9.73-6.617-13.535zm-15.83 19.557c-3.279 3.285-5.367 7.306-6.277 11.536-1.982-.764-3.84-1.938-5.44-3.539-6.113-6.131-6.113-16.056 0-22.173 6.126-6.12 16.048-6.12 22.168 0 2.131 2.131 3.512 4.725 4.167 7.449-5.329.427-10.542 2.656-14.618 6.727zm372.725.911c3.343.411 6.584 1.901 9.146 4.471 2.043 2.022 3.394 4.483 4.073 7.088.654 2.495.694 5.123.096 7.621 2.624.219 5.273-.025 7.822-.691 3.854-1.017 7.47-3.03 10.48-6.022 9.076-9.087 9.076-23.844 0-32.934-9.082-9.075-23.845-9.075-32.915 0-3.799 3.805-6.002 8.593-6.622 13.547-.327 2.607-.22 5.272.339 7.854 2.418-.934 5.041-1.239 7.581-.934zm4.064-15.086c6.131-6.12 16.057-6.12 22.173 0 6.125 6.117 6.125 16.042 0 22.173-1.601 1.6-3.453 2.774-5.436 3.539-.915-4.23-2.996-8.251-6.276-11.536-4.069-4.072-9.293-6.3-14.611-6.726.649-2.725 2.023-5.319 4.15-7.45z"/><path fill="none" d="M341.283 274.833v86.003c4.009-1.32 7.857-2.773 11.417-4.679v-81.325h-11.417zm22.834 71.963c5.695-7.175 8.909-17.158 9.994-30.861.735-9.21-.581-15.995-1.988-23.193-1.045-5.427-2.124-11.025-2.459-17.908h-5.547v71.962zm-45.661-71.963v93.505c3.729-1.577 7.572-2.837 11.411-4.012v-89.494h-11.411zm-89.954 41.102c1.093 13.703 4.313 23.687 10.014 30.861v-71.962h-5.556c-.323 6.883-1.406 12.481-2.465 17.908-1.395 7.197-2.722 13.983-1.993 23.193zm21.421-41.102v81.325c3.555 1.905 7.403 3.358 11.415 4.679v-86.003h-11.415zm22.834 0v89.494c3.842 1.175 7.687 2.435 11.407 4.022v-93.516h-11.407zm22.832 0v99.877c1.994 1.479 3.915 3.15 5.721 5.064 1.815-1.914 3.726-3.585 5.729-5.064v-99.877h-11.45z"/><path fill="#DC3832" d="M261.337 274.833v86.003c2.447.8 4.955 1.563 7.488 2.315 1.314.388 2.615.774 3.932 1.175v-89.494h-11.42zm-22.821 0v71.962c1.174 1.489 2.464 2.872 3.865 4.142 2.321 2.071 4.845 3.769 7.542 5.221v-81.325h-11.407zm45.648 0v93.516c3.993 1.673 7.846 3.708 11.426 6.361v-99.877h-11.426zm68.536 0v81.325c2.693-1.452 5.229-3.149 7.539-5.221 1.411-1.27 2.694-2.652 3.878-4.142v-71.962H352.7zm-22.833 0v89.494c1.322-.4 2.626-.787 3.926-1.175 2.539-.753 5.056-1.516 7.49-2.315v-86.003h-11.416zm-22.827 0v99.877c3.582-2.653 7.436-4.701 11.416-6.372v-93.505H307.04z"/><path fill="none" d="M369.664 274.833H232.959c-.323 6.883-1.406 12.481-2.465 17.908-1.396 7.198-2.722 13.983-1.993 23.193 1.093 13.703 4.313 23.687 10.014 30.861 1.174 1.489 2.464 2.872 3.865 4.142 2.321 2.071 4.845 3.769 7.542 5.221 3.555 1.905 7.403 3.358 11.415 4.679 2.447.8 4.955 1.563 7.488 2.315 1.314.388 2.615.774 3.932 1.175 3.842 1.175 7.687 2.435 11.407 4.022 3.993 1.673 7.846 3.708 11.426 6.361 1.994 1.479 3.915 3.15 5.721 5.064 1.815-1.914 3.726-3.585 5.729-5.064 3.582-2.653 7.436-4.701 11.416-6.372 3.729-1.577 7.572-2.837 11.411-4.012 1.322-.4 2.626-.787 3.926-1.175 2.539-.753 5.056-1.516 7.49-2.315 4.009-1.32 7.857-2.773 11.417-4.679 2.693-1.452 5.229-3.149 7.539-5.221 1.411-1.27 2.694-2.652 3.878-4.142 5.695-7.175 8.909-17.158 9.994-30.861.735-9.21-.581-15.995-1.988-23.193-1.045-5.426-2.124-11.023-2.459-17.907z"/><path fill="#0072AF" d="M373.53 270.618c0-28.764 10.146-50.139 10.146-50.139H218.953s10.146 21.375 10.146 50.139c0 1.467-.034 2.86-.109 4.216-.792 15.789-5.761 24.766-4.428 41.414 1.45 18.371 6.693 29.349 13.954 36.472 3.409 3.371 7.274 5.865 11.407 7.878 3.647 1.77 7.489 3.163 11.415 4.408 3.774 1.213 7.608 2.293 11.419 3.466 3.888 1.213 7.742 2.545 11.407 4.205 4.072 1.84 7.932 4.095 11.426 7.113 2.032 1.758 3.939 3.768 5.696 6.094l.025.05.023-.05c1.751-2.326 3.669-4.336 5.706-6.094 3.49-3.019 7.35-5.273 11.416-7.113 3.681-1.66 7.519-2.992 11.411-4.205 3.794-1.173 7.645-2.253 11.416-3.466 3.931-1.245 7.775-2.639 11.417-4.408 4.127-2.013 7.999-4.521 11.417-7.878 7.252-7.123 12.491-18.101 13.95-36.472 1.326-16.647-3.647-25.625-4.44-41.414-.06-1.356-.097-2.749-.097-4.216zm.581 45.317c-1.085 13.703-4.299 23.687-9.994 30.861-1.184 1.489-2.467 2.872-3.878 4.142-2.31 2.071-4.846 3.769-7.539 5.221-3.56 1.905-7.408 3.358-11.417 4.679-2.435.8-4.951 1.563-7.49 2.315-1.3.388-2.604.774-3.926 1.175-3.839 1.175-7.682 2.435-11.411 4.012-3.98 1.671-7.834 3.719-11.416 6.372-2.004 1.479-3.914 3.15-5.729 5.064-1.807-1.914-3.727-3.585-5.721-5.064-3.58-2.653-7.433-4.688-11.426-6.361-3.72-1.588-7.565-2.848-11.407-4.022-1.316-.4-2.617-.787-3.932-1.175-2.533-.753-5.041-1.516-7.488-2.315-4.011-1.32-7.859-2.773-11.415-4.679-2.696-1.452-5.221-3.149-7.542-5.221-1.401-1.27-2.691-2.652-3.865-4.142-5.701-7.175-8.92-17.158-10.014-30.861-.729-9.21.597-15.995 1.993-23.193 1.059-5.427 2.142-11.025 2.465-17.908h136.705c.335 6.883 1.414 12.481 2.459 17.908 1.407 7.196 2.724 13.982 1.988 23.192zM208.558 428.34l10.171-14.164c.927-1.299 1.757-2.704 1.677-4.253-.104-2.086-1.508-4.035-3.424-5.417-5.002-3.587-8.118-.666-9.813 1.722l-10.007 13.935-7.666-5.503 9.917-13.8c1.898-2.644 4.389-5.209 7.417-5.693 4.779-.862 10.262 2.214 13.831 4.782 13.4 9.622 8.419 16.652 5.619 20.55l-9.789 13.547-7.933-5.706zm-26.47-20.551l-8.486-10.311 9.382-23.008-16.829 13.98-5.378-6.531 22.656-18.658 8.301 10.078-9.942 23.786 17.543-14.562 5.411 6.565-22.658 18.661zm-25.4-33.756l-4.848-8.701 25.656-14.261 4.847 8.713-25.655 14.249zm-6.043-25.13l3.708 9.984-5.462 2.021-10.876-29.358 5.459-2.021 3.779 10.212 22.07-8.191 3.395 9.174-22.073 8.179zm-13.144-20.622l-4.395-25.858 5.532-.931 2.788 16.404 6.009-1.027-2.617-15.439 5.531-.946 2.616 15.451 6.174-1.043-2.849-16.795 5.618-.943 4.445 26.233-28.852 4.894zm-5.327-35.092l.958-14.732c.259-4.144.986-9.632 3.295-13.11 3.296-4.979 8.21-6.071 12.558-5.78 6.49.413 11.116 3.199 12.972 10.384.901 3.658.629 7.9.474 10.313l-.971 14.829-29.286-1.904zm24.295-8.358l.265-4.156c.381-6.421-1.672-10.674-8.481-11.122-8.888-.583-9.396 7.343-9.589 10.297l-.293 3.806 18.098 1.175zm4.451-45.68c1.12.388 4.296 1.527 6.393-3.854.295-.75 1.889-4.81-1.224-6.021-1.286-.509-2.4-.219-3.739 1.758l-4.859 7.294c-1.369 2.059-4.931 7.377-10.643 5.149-4.428-1.731-7.016-7.317-3.219-17.047 4.963-12.709 10.973-10.991 13.898-9.898l-3.568 9.146c-.83-.327-3.769-1.525-5.465 2.812-1.011 2.604-.411 4.761 1.212 5.405 2.012.775 3.273-1.005 4.094-2.195l3.691-5.573c2.636-3.96 5.781-8.65 11.58-6.384 6.088 2.375 6.395 9.654 3.217 17.822-1.322 3.369-3.91 8.653-7.878 10.531-3.125 1.536-5.832.531-7.016.12l3.526-9.065zm.147-33.939l-5.652 9.015-4.934-3.09 16.65-26.499 4.925 3.09-5.781 9.208 19.928 12.529-5.207 8.276-19.929-12.529zm17.095-32.666l8.359-8.337 30.499 11.039-7.736 7.719-5.882-2.46-9.899 9.876 2.491 5.853-6.852 6.832-10.98-30.522zm19.842 5.695l-11.881-5.537-.104.109 5.279 12.142 6.706-6.714zm12.897-25.892l-9.032 5.646-3.079-4.931 26.555-16.576 3.082 4.931-9.245 5.755 12.47 19.982-8.303 5.172-12.448-19.979zm20.168-18.247l24.603-9.063 1.945 5.258-15.611 5.767 2.107 5.706 14.704-5.416 1.944 5.273-14.703 5.416 2.163 5.875 15.976-5.886 1.975 5.341-24.966 9.21-10.137-27.481zm43.807 7.366c.217 1.163.79 4.483 6.49 3.67.813-.121 5.126-.738 4.658-4.021-.181-1.381-.988-2.206-3.364-2.413l-8.747-.629c-2.473-.195-8.839-.68-9.718-6.749-.667-4.715 2.926-9.707 13.268-11.174 13.518-1.924 14.964 4.144 15.456 7.234l-9.724 1.396c-.133-.884-.528-4.037-5.126-3.368-2.774.388-4.356 1.962-4.119 3.693.308 2.134 2.497 2.363 3.933 2.472l6.657.497c4.744.351 10.373.775 11.258 6.944.918 6.471-5.273 10.321-13.941 11.548-3.598.508-9.463.858-13.049-1.675-2.865-1.973-3.32-4.822-3.553-6.057l9.621-1.368zm59.719-9.718c.072-3.004-2.171-4.494-4.896-4.954-5.767-.982-8.293 3.162-9.196 8.455-.303 1.758-1.501 9.063 5.894 10.324 5.061.861 6.104-2.131 6.495-3.223l9.917 1.683c-1.595 9.052-12.69 7.949-17.167 7.186-3.346-.569-9.167-2.06-12.409-6.083-3.198-3.998-3.09-8.722-2.567-11.729.673-3.96 2.441-7.742 6.209-10.287 4.105-2.763 8.779-2.872 13.795-2.024 5.582.958 9.627 2.8 11.934 5.671 2.352 2.958 1.952 5.563 1.817 6.65l-9.826-1.669zm22.081-.362c5.549-1.6 11.771.847 14.109 1.901 12.717 5.695 12.704 14.928 9.768 21.458-4.795 10.675-15.267 9.899-22.866 6.482-8.469-3.802-14.6-11.292-10.118-21.263.809-1.781 3.559-6.967 9.107-8.578zm3.549 24.425c6.322 2.837 9.581-1.574 11.245-5.282 1.689-3.745 1.46-6.083 1.019-7.693-.618-2.062-2.485-3.443-4.43-4.313-5.819-2.62-9.31.896-11.376 5.487-1.914 4.254-2.316 9.173 3.542 11.801zm43.522-2.06l9.113 7.476-7.961 31.443-8.451-6.941 1.877-6.097-10.807-8.869-5.573 3.053-7.476-6.143 29.278-13.922zm-3.712 20.295l4.332-12.372-.103-.095-11.564 6.459 7.335 6.008zm18.247 21.932c-.925.727-3.61 2.786-.236 7.452.479.667 3.03 4.193 5.727 2.24 1.138-.799 1.49-1.901.563-4.096l-3.503-8.032c-.992-2.267-3.532-8.142 1.456-11.729 3.858-2.8 9.946-1.938 16.058 6.531 7.992 11.062 3.292 15.182.782 17.046l-5.75-7.946c.729-.534 3.323-2.352.605-6.12-1.64-2.266-3.778-2.932-5.199-1.916-1.753 1.261-.924 3.297-.365 4.618l2.664 6.131c1.901 4.362 4.138 9.546-.901 13.193-5.316 3.828-11.591.135-16.717-6.967-2.131-2.944-5.161-7.973-4.594-12.322.415-3.452 2.729-5.184 3.714-5.962l5.696 7.879zm30.007 21.796l-4.271-9.752 5.331-2.326 12.547 28.68-5.336 2.327-4.357-9.974-21.567 9.439-3.913-8.965 21.566-9.429zm12.194 55.24c2.95-.931 3.411-3.877 3.048-6.505-.901-6.568-6.064-8.314-10.936-7.647-6.798.933-9.057 5.781-8.262 11.585.241 1.769.685 3.526 1.209 5.258l5.65-.775-1.017-7.332 5.526-.761 2.238 16.355-15.545 2.122c-1.703-4.896-3.007-9.936-3.711-15.074-.515-3.73-.745-8.978 1.242-13.351 2.187-4.787 6.494-7.44 11.129-8.059 3.515-.485 8.555.083 12.273 3.588 3.824 3.681 5.26 9.631 5.831 13.801.732 5.427.387 10.005-1.661 13.121-1.871 2.798-4.277 3.174-5.683 3.418l-1.331-9.744zm8.378 28.231l-17.337-1.975c-1.571-.182-3.204-.219-4.524.594-1.77 1.115-2.789 3.298-3.059 5.647-.693 6.093 3.372 7.402 6.273 7.73l17.047 1.95-1.069 9.378-16.879-1.938c-3.247-.364-6.692-1.297-8.592-3.718-3.082-3.758-3.059-10.034-2.562-14.408 1.878-16.393 10.45-15.447 15.217-14.916l16.594 1.953-1.109 9.703zm-9.297 44.468l-4.479 10.919-32.393 1.647 4.14-10.117 6.377-.011 5.297-12.93-4.557-4.436 3.664-8.956 21.951 23.884zm-20.502 2.423l13.103.51.057-.145-9.577-9.134-3.583 8.769zm3.613 32.218l-9.974 12.712c-3.877 4.958-5.604 6.628-8.287 7.158-1.369.28-3.479.354-5.98-1.61-2.527-1.973-2.66-4.046-2.319-5.863.441-2.485 1.598-4.278 2.102-5.123l-.12-.098c-4.319 5.23-6.53 3.985-10.572 1.817-1.768-.973-4.562-2.545-6.713-3.177l6.482-8.262c1.77.641 3.671 1.828 5.932 3.173 3.058 1.84 4.16 2.521 6.856-.896l2.501-3.209-9.029-7.067 6-7.655 23.121 18.1zm-15.93-.12l-2.235 2.86c-1.319 1.673-1.975 2.508-2.283 3.306-.872 2.035.309 3.502 1.049 4.072 2.841 2.243 5.173-.727 6.907-2.942l2.234-2.851-5.672-4.445zm-13.236 34.158l-11.966 8.639c-3.374 2.435-8.059 5.368-12.213 5.815-5.944.617-9.902-2.482-12.45-6.012-3.817-5.269-4.616-10.599-.249-16.608 2.234-3.019 5.695-5.516 7.646-6.932l12.056-8.701 17.176 23.799zm-21.912-13.403l-3.38 2.436c-5.186 3.793-7.173 8.084-3.177 13.622 5.217 7.208 11.651 2.577 14.037.845l3.135-2.205-10.615-14.698zm-139.681 17.025c-2.756.786-4.804 1.104-6.924 1.151l-2.26 6.155c1.677-.061 3.5-.23 5.028-.631l-7.638 20.804 9.354 3.44 10.304-28.021-7.864-2.898zm11.93 4.848l28.063 4.628-.983 5.936-17.144 21.205-11.355-1.866 18.465-20.939-18.041-2.968.995-5.996zm39.561 26.462c.132 1.683 1.999 2.884 4.882 2.736 5.477-.254 5.956-4.071 5.804-9.401-1.671 1.758-3.877 3.248-8.211 3.44-4.784.229-7.269-.765-9.25-2.255-2.138-1.67-3.454-4.021-3.575-6.723-.29-6.06 5.376-10.64 14.396-11.063 9.492-.461 12.588 3.695 14.001 6.167 1.572 2.772 2.239 5.84 2.38 8.942.182 3.428-.332 7.983-3.32 11.439-3.182 3.682-7.791 4.628-12.225 4.845-4.587.217-8.802-.364-11.912-2.787-2.042-1.623-2.295-3.636-2.459-4.881l9.489-.459zm10.054-13.353c-.084-1.976-1.415-4.663-5.804-4.473-3.803.197-5.462 2.338-5.336 4.921.109 2.229 1.624 4.652 5.695 4.47 3.873-.193 5.574-2.252 5.445-4.918zm15.024-8.033c2.175-3.913 6.428-5.769 9.565-6.63 6.57-1.827 10.101-.484 12.027.668 2.928 1.648 5.63 4.423 7.209 10.14 2.293 8.255.328 16.214-10.718 19.279-3.979 1.113-8.239 1.224-11.515-.546-4.779-2.557-6.761-7.548-7.556-10.408-.748-2.74-1.603-7.947.988-12.503zm16.511 18.004c1.545-.437 2.913-1.492 3.354-2.764.878-2.654-.441-7.415-.623-8.043-.399-1.455-1.484-4.763-2.769-6.701-.629-.933-1.961-2.619-5.138-1.72-2.791.761-4.942 2.435-2.527 11.134 1.698 6.143 3.626 9.222 7.703 8.094z"/></svg>