<svg width="42" height="60" xmlns="http://www.w3.org/2000/svg" xmlns:xlink="http://www.w3.org/1999/xlink"><defs><path id="a" d="M0 59.914h41.76V.356H0z"/></defs><g fill="none" fill-rule="evenodd"><path stroke="#000" d="M-68.5-798.735h730v4639h-730z"/><g transform="translate(0 -.235)"><mask id="b" fill="#fff"><use xlink:href="#a"/></mask><path d="M8.959 44.074a.992.992 0 1 0-.029 1.986h3.987a.992.992 0 1 0 .027-1.986H8.96zM34.776 40.1a.994.994 0 1 0-.001 1.988.994.994 0 0 0 0-1.988zM30.8 36.124a.994.994 0 1 0 .002 1.988.994.994 0 0 0-.002-1.988zm-21.842 0a.994.994 0 1 0 0 1.987h3.945a.992.992 0 0 0 1.009-.98.996.996 0 0 0-.98-1.007H8.959zm27.804-3.974a.993.993 0 1 0 .001 1.987.993.993 0 0 0-.001-1.987zm-7.949-1.987zm-17.884 0c2.77 0 4.967 2.2 4.967 4.968v11.923a4.934 4.934 0 0 1-4.967 4.967 4.935 4.935 0 0 1-4.969-4.967V35.131a4.937 4.937 0 0 1 4.969-4.968zm23.846-1.987a.994.994 0 1 0 0 1.988.994.994 0 0 0 0-1.988zm-23.846 0a6.963 6.963 0 0 0-6.956 6.955v11.923a6.963 6.963 0 0 0 6.956 6.956 6.962 6.962 0 0 0 6.954-6.956V35.131a6.962 6.962 0 0 0-6.954-6.955zm14.904-1.987h13.91v10.93a6.919 6.919 0 0 1-6.955 6.955h-.016a6.918 6.918 0 0 1-6.939-6.955v-10.93zm.993-5.962H38.75a.97.97 0 0 1 .993.994v2.98h-13.91v-2.98a.97.97 0 0 1 .993-.994zm0-1.987a2.997 2.997 0 0 0-2.981 2.981V37.12c0 4.595 3.485 8.341 7.95 8.841v12.024h-4.969a.993.993 0 1 0-.027 1.987h5.756a1 1 0 0 0 .474 0h5.721a.994.994 0 0 0 .028-1.987H33.78V45.96c4.465-.5 7.95-4.246 7.95-8.841v-11.69a.986.986 0 0 0 0-.475v-3.733a2.997 2.997 0 0 0-2.98-2.981H26.827zM8.86 18.03c.335.131.696.21 1.075.21h1.987c.378 0 .74-.079 1.076-.21a6.932 6.932 0 0 0 1.894 4.01.994.994 0 0 0 .531.287c2.599.487 4.447 2.492 4.447 4.856V56.99c0 .509-.471.994-1.214.994H3.201c-.742 0-1.214-.485-1.214-.994V27.183c0-2.364 1.85-4.369 4.449-4.856a.994.994 0 0 0 .531-.287 6.95 6.95 0 0 0 1.894-4.01zm.08-11.713h3.976v2.914a.526.526 0 0 0 0 .068v5.96a.97.97 0 0 1-.994.994H9.936a.971.971 0 0 1-.995-.994V6.317zM7.95 4.33h5.961V2.343H7.949V4.33zM6.956.356a.994.994 0 0 0-.995.993v3.974c0 .55.446.994.995.994v8.873a.55.55 0 0 0 0 .069v1.988c0 1.253-.49 2.354-1.27 3.233C2.457 21.251 0 23.916 0 27.183V56.99c0 1.693 1.499 2.981 3.201 2.981h15.456c1.703 0 3.203-1.288 3.203-2.981V27.183c0-3.267-2.459-5.932-5.687-6.703-.779-.879-1.269-1.98-1.269-3.233V6.317a.993.993 0 0 0 .993-.994V1.349a.993.993 0 0 0-.993-.993H6.956z" fill="#000" mask="url(#b)"/></g></g></svg>