<?xml version="1.0" standalone="no"?>
<!DOCTYPE svg PUBLIC "-//W3C//DTD SVG 20010904//EN"
 "http://www.w3.org/TR/2001/REC-SVG-20010904/DTD/svg10.dtd">
<svg version="1.0" xmlns="http://www.w3.org/2000/svg"
 width="136.000000pt" height="121.000000pt" viewBox="0 0 136.000000 121.000000"
 preserveAspectRatio="xMidYMid meet">
<metadata>
Created by potrace 1.15, written by Peter Selinger 2001-2017
</metadata>
<g transform="translate(0.000000,121.000000) scale(0.100000,-0.100000)"
fill="#000000" stroke="none">
<path d="M15 1198 c-3 -7 -4 -254 -3 -548 l3 -535 37 -3 c36 -3 37 -5 40 -45
l3 -42 75 0 75 0 3 43 3 42 140 0 139 0 0 -32 c0 -53 10 -59 81 -56 l64 3 3
42 c3 42 3 42 45 45 l42 3 0 545 0 545 -373 3 c-293 2 -374 0 -377 -10z m695
-188 l0 -140 -320 0 -320 0 0 140 0 140 320 0 320 0 0 -140z m0 -525 l0 -315
-320 0 -320 0 0 315 0 315 320 0 320 0 0 -315z"/>
<path d="M142 718 c-9 -9 -12 -70 -12 -214 0 -171 2 -205 16 -218 12 -12 20
-13 35 -6 18 10 19 23 19 218 0 207 -4 232 -35 232 -6 0 -16 -5 -23 -12z"/>
<path d="M822 768 c-17 -17 -17 -739 0 -756 9 -9 80 -12 258 -12 227 0 248 2
263 18 15 17 17 57 17 375 l0 356 -22 15 c-19 13 -61 16 -263 16 -174 0 -244
-3 -253 -12z m478 -123 l0 -65 -220 0 -220 0 0 65 0 65 220 0 220 0 0 -65z m0
-355 l0 -220 -220 0 -220 0 0 220 0 220 220 0 220 0 0 -220z"/>
<path d="M1010 468 c-68 -35 -103 -86 -108 -158 -13 -174 170 -275 292 -162
106 100 77 271 -56 327 -50 20 -76 19 -128 -7z m121 -64 c45 -23 73 -91 59
-143 -14 -54 -60 -91 -112 -91 -32 0 -47 7 -73 33 -61 61 -53 154 17 197 40
24 69 25 109 4z"/>
</g>
</svg>
