<?xml version="1.0" standalone="no"?>
<!DOCTYPE svg PUBLIC "-//W3C//DTD SVG 20010904//EN"
 "http://www.w3.org/TR/2001/REC-SVG-20010904/DTD/svg10.dtd">
<svg version="1.0" xmlns="http://www.w3.org/2000/svg"
 width="1200.000000pt" height="1200.000000pt" viewBox="0 0 1200.000000 1200.000000"
 preserveAspectRatio="xMidYMid meet">
<metadata>
Created by potrace 1.15, written by Peter Selinger 2001-2017
</metadata>
<g transform="translate(0.000000,1200.000000) scale(0.100000,-0.100000)"
fill="#000000" stroke="none">
<path d="M2912 11609 c-26 -13 -55 -39 -70 -62 l-27 -41 0 -1381 0 -1381 27
-41 c16 -24 44 -49 70 -62 l44 -21 3044 0 3044 0 44 21 c26 13 54 38 70 62
l27 41 0 1381 0 1381 -27 41 c-16 24 -44 49 -70 62 l-44 21 -3045 0 -3044 0
-43 -21z m5898 -1484 l0 -1125 -2810 0 -2810 0 0 1125 0 1125 2810 0 2810 0 0
-1125z"/>
<path d="M6670 10864 c-22 -9 -194 -173 -455 -434 l-420 -419 -405 326 c-223
178 -419 331 -437 339 -41 18 -114 18 -156 0 -18 -8 -209 -192 -439 -422 -344
-346 -408 -415 -417 -449 -13 -50 -14 -61 0 -108 13 -47 63 -106 106 -123 27
-12 348 -14 1860 -14 l1827 0 44 21 c55 27 93 84 100 148 9 98 19 87 -512 619
-324 325 -505 499 -532 512 -48 24 -115 25 -164 4z m320 -689 l235 -235 -475
0 -475 0 235 235 c129 129 237 235 240 235 3 0 111 -106 240 -235z m-1922 -76
c97 -78 181 -146 187 -150 5 -5 -143 -9 -330 -9 l-340 0 150 150 c82 83 151
150 153 150 1 0 82 -64 180 -141z"/>
<path d="M855 8238 c-32 -17 -76 -61 -91 -90 -12 -23 -14 -203 -14 -1153 l0
-1125 -190 -1520 -190 -1520 0 -777 c0 -735 1 -780 19 -818 41 -89 98 -115
250 -115 l110 0 3 -318 3 -319 29 -37 c57 -75 59 -76 526 -76 382 0 418 2 455
19 48 22 79 54 100 103 12 31 15 89 15 333 l0 295 1870 0 1870 0 0 -295 c0
-244 3 -302 15 -333 21 -49 52 -81 100 -103 37 -17 73 -19 455 -19 467 0 469
1 526 76 l29 37 3 319 3 318 112 0 c122 0 171 15 214 61 54 60 53 35 53 874
l0 775 -190 1520 -190 1520 0 1125 c0 950 -2 1130 -14 1153 -16 31 -61 74 -93
91 -31 16 -5759 15 -5788 -1z m5515 -1303 l0 -935 -275 0 -275 0 0 478 c0 297
-4 491 -10 514 -14 50 -55 97 -105 119 -38 18 -85 19 -830 19 -745 0 -792 -1
-830 -19 -50 -22 -91 -69 -105 -119 -6 -23 -10 -217 -10 -514 l0 -478 -180 0
-180 0 0 478 c0 297 -4 491 -10 514 -14 50 -55 97 -105 119 -38 18 -85 19
-830 19 -745 0 -792 -1 -830 -19 -50 -22 -91 -69 -105 -119 -6 -23 -10 -217
-10 -514 l0 -478 -275 0 -275 0 0 935 0 935 2620 0 2620 0 0 -935z m-3190
-560 l0 -375 -555 0 -555 0 0 375 0 375 555 0 555 0 0 -375z m2250 0 l0 -375
-555 0 -555 0 0 375 0 375 555 0 555 0 0 -375z m965 -777 c2 -13 27 -210 55
-438 28 -228 53 -427 56 -442 l6 -28 -2762 0 -2762 0 6 28 c3 15 28 214 56
442 28 228 53 425 55 438 l5 22 2640 0 2640 0 5 -22z m239 -1910 c42 -343 79
-638 83 -655 l5 -33 -2972 0 -2972 0 5 33 c4 17 41 312 83 655 l78 622 2806 0
2806 0 78 -622z m116 -1628 l0 -560 -3000 0 -3000 0 0 560 0 560 3000 0 3000
0 0 -560z m-5250 -1125 l0 -185 -185 0 -185 0 0 185 0 185 185 0 185 0 0 -185z
m4870 0 l0 -185 -185 0 -185 0 0 185 0 185 185 0 185 0 0 -185z"/>
<path d="M8725 8234 c-40 -21 -64 -43 -82 -77 -20 -40 -393 -1911 -393 -1975
0 -60 15 -95 57 -133 52 -49 55 -49 382 -49 l311 0 0 -375 0 -374 -508 -3
-509 -3 -37 -29 c-21 -16 -47 -47 -57 -70 -18 -40 -19 -103 -19 -1771 0 -1668
1 -1731 19 -1771 10 -23 36 -54 57 -70 l37 -29 1561 -3 c859 -1 1571 0 1583 3
30 7 90 61 109 96 12 24 14 269 14 1774 0 1271 -3 1752 -11 1768 -17 32 -60
77 -91 93 -22 11 -115 14 -523 14 l-495 0 0 375 0 375 308 0 c280 0 310 2 342
19 45 24 90 87 97 137 3 28 -52 322 -187 999 -105 528 -194 968 -196 978 -8
27 -63 86 -95 103 -24 12 -150 14 -836 14 -713 0 -812 -2 -838 -16z m1574
-1086 c79 -398 145 -733 148 -745 l5 -23 -889 0 -890 0 138 693 c77 380 144
716 150 745 l10 52 592 0 592 0 144 -722z m-549 -1523 l0 -375 -185 0 -185 0
0 375 0 375 185 0 185 0 0 -375z m1120 -1405 l0 -650 -1310 0 -1310 0 0 650 0
650 1310 0 1310 0 0 -650z m0 -1690 l0 -650 -1310 0 -1310 0 0 650 0 650 1310
0 1310 0 0 -650z"/>
<path d="M9180 4310 l0 -190 380 0 380 0 0 190 0 190 -380 0 -380 0 0 -190z"/>
<path d="M9180 2625 l0 -195 380 0 380 0 0 195 0 195 -380 0 -380 0 0 -195z"/>
</g>
</svg>
