<svg version="1" xmlns="http://www.w3.org/2000/svg" width="1600" height="1600" viewBox="0 0 1200 1200"><path d="M291.2 39.1c-2.6 1.3-5.5 3.9-7 6.2l-2.7 4.1v276.2l2.7 4.1c1.6 2.4 4.4 4.9 7 6.2l4.4 2.1h608.8l4.4-2.1c2.6-1.3 5.4-3.8 7-6.2l2.7-4.1V49.4l-2.7-4.1c-1.6-2.4-4.4-4.9-7-6.2l-4.4-2.1H295.5l-4.3 2.1zM881 187.5V300H319V75h562v112.5z"/><path d="M667 113.6c-2.2.9-19.4 17.3-45.5 43.4l-42 41.9-40.5-32.6c-22.3-17.8-41.9-33.1-43.7-33.9-4.1-1.8-11.4-1.8-15.6 0-1.8.8-20.9 19.2-43.9 42.2-34.4 34.6-40.8 41.5-41.7 44.9-1.3 5-1.4 6.1 0 10.8 1.3 4.7 6.3 10.6 10.6 12.3 2.7 1.2 34.8 1.4 186 1.4h182.7l4.4-2.1c5.5-2.7 9.3-8.4 10-14.8.9-9.8 1.9-8.7-51.2-61.9-32.4-32.5-50.5-49.9-53.2-51.2-4.8-2.4-11.5-2.5-16.4-.4zm32 68.9l23.5 23.5h-95l23.5-23.5c12.9-12.9 23.7-23.5 24-23.5.3 0 11.1 10.6 24 23.5zm-192.2 7.6c9.7 7.8 18.1 14.6 18.7 15 .5.5-14.3.9-33 .9h-34l15-15c8.2-8.3 15.1-15 15.3-15 .1 0 8.2 6.4 18 14.1zM85.5 376.2c-3.2 1.7-7.6 6.1-9.1 9-1.2 2.3-1.4 20.3-1.4 115.3V613L56 765 37 917v77.7c0 73.5.1 78 1.9 81.8 4.1 8.9 9.8 11.5 25 11.5h11l.3 31.8.3 31.9 2.9 3.7c5.7 7.5 5.9 7.6 52.6 7.6 38.2 0 41.8-.2 45.5-1.9 4.8-2.2 7.9-5.4 10-10.3 1.2-3.1 1.5-8.9 1.5-33.3V1088h374v29.5c0 24.4.3 30.2 1.5 33.3 2.1 4.9 5.2 8.1 10 10.3 3.7 1.7 7.3 1.9 45.5 1.9 46.7 0 46.9-.1 52.6-7.6l2.9-3.7.3-31.9.3-31.8h11.2c12.2 0 17.1-1.5 21.4-6.1 5.4-6 5.3-3.5 5.3-87.4V917l-19-152-19-152V500.5c0-95-.2-113-1.4-115.3-1.6-3.1-6.1-7.4-9.3-9.1-3.1-1.6-575.9-1.5-578.8.1zM637 506.5V600h-55v-47.8c0-29.7-.4-49.1-1-51.4-1.4-5-5.5-9.7-10.5-11.9-3.8-1.8-8.5-1.9-83-1.9s-79.2.1-83 1.9c-5 2.2-9.1 6.9-10.5 11.9-.6 2.3-1 21.7-1 51.4V600h-36v-47.8c0-29.7-.4-49.1-1-51.4-1.4-5-5.5-9.7-10.5-11.9-3.8-1.8-8.5-1.9-83-1.9s-79.2.1-83 1.9c-5 2.2-9.1 6.9-10.5 11.9-.6 2.3-1 21.7-1 51.4V600h-55V413h524v93.5zm-319 56V600H207v-75h111v37.5zm225 0V600H432v-75h111v37.5zm96.5 77.7c.2 1.3 2.7 21 5.5 43.8 2.8 22.8 5.3 42.7 5.6 44.2l.6 2.8H98.8l.6-2.8c.3-1.5 2.8-21.4 5.6-44.2 2.8-22.8 5.3-42.5 5.5-43.8l.5-2.2h528l.5 2.2zm23.9 191c4.2 34.3 7.9 63.8 8.3 65.5l.5 3.3H77.8l.5-3.3c.4-1.7 4.1-31.2 8.3-65.5l7.8-62.2h561.2l7.8 62.2zM675 994v56H75V938h600v56zm-525 112.5v18.5h-37v-37h37v18.5zm487 0v18.5h-37v-37h37v18.5zm235.5-729.9c-4 2.1-6.4 4.3-8.2 7.7-2 4-39.3 191.1-39.3 197.5 0 6 1.5 9.5 5.7 13.3 5.2 4.9 5.5 4.9 38.2 4.9H900v74.9l-50.8.3-50.9.3-3.7 2.9c-2.1 1.6-4.7 4.7-5.7 7-1.8 4-1.9 10.3-1.9 177.1 0 166.8.1 173.1 1.9 177.1 1 2.3 3.6 5.4 5.7 7l3.7 2.9 156.1.3c85.9.1 157.1 0 158.3-.3 3-.7 9-6.1 10.9-9.6 1.2-2.4 1.4-26.9 1.4-177.4 0-127.1-.3-175.2-1.1-176.8-1.7-3.2-6-7.7-9.1-9.3-2.2-1.1-11.5-1.4-52.3-1.4H1013v-75h30.8c28 0 31-.2 34.2-1.9 4.5-2.4 9-8.7 9.7-13.7.3-2.8-5.2-32.2-18.7-99.9-10.5-52.8-19.4-96.8-19.6-97.8-.8-2.7-6.3-8.6-9.5-10.3-2.4-1.2-15-1.4-83.6-1.4-71.3 0-81.2.2-83.8 1.6zm157.4 108.6c7.9 39.8 14.5 73.3 14.8 74.5l.5 2.3H867.3l13.8-69.3c7.7-38 14.4-71.6 15-74.5l1-5.2h118.4l14.4 72.2zM975 637.5V675h-37v-75h37v37.5zM1087 778v65H825V713h262v65zm0 169v65H825V882h262v65z"/><path d="M918 769v19h76v-38h-76v19zm0 168.5V957h76v-39h-76v19.5z"/></svg>