<svg width="50" height="47" viewBox="0 0 50 47" xmlns="http://www.w3.org/2000/svg" xmlns:xlink="http://www.w3.org/1999/xlink"><defs><path id="a" d="M24.96 46.667H0V0h49.92v46.667H24.96z"/></defs><g fill="none" fill-rule="evenodd"><mask id="b" fill="#fff"><use xlink:href="#a"/></mask><path d="M46.388 30.833H3.53L1.763 19.167h46.392l-1.767 11.666zM44.247 45H5.68l-.375-2.5H44.63l-.383 2.5zM4.213 35.358l-.316-2.108-.117-.75h3.3l-2.867 2.858zm.767 5.067l-.458-3.017L9.438 32.5h3.475L4.98 40.425zm6.267.408H6.938l8.334-8.333h4.308l-8.333 8.333zm6.666 0h-4.308l8.333-8.333h4.309l-8.334 8.333zm6.667 0h-4.308l8.333-8.333h4.308l-8.333 8.333zm6.667 0h-4.309l8.334-8.333h4.308l-8.333 8.333zm14.875-8.208l-8.209 8.208h-4.308l8.333-8.333h4.2l-.016.125zm-1.25 8.208h-4.609l5.425-5.425-.816 5.425zM9.163 11.667H40.83v-.834H9.163v.834zm-.833 2.5h33.333v-.834H8.33v.834zM7.497 17.5h35v-1.667h-35V17.5zm-2.5-15.833h11.191l2.075 3.45c.267.441.75.716 1.259.716h25.475V17.5h-.834v-3.333h-.833v-2.5h-.833v-2.5h-35v2.5h-.834v2.5H5.83V17.5h-.833V1.667zm44.666 16.2a1.052 1.052 0 0 0-.8-.367h-2.2V5.642c0-.817-.658-1.475-1.474-1.475H19.64L17.562.717A1.483 1.483 0 0 0 16.305 0h-11.5C3.988 0 3.33.658 3.33 1.475V17.5H1.055a1.052 1.052 0 0 0-1.042 1.217l3.6 23.783.492 3.267c.083.525.525.9 1.05.9h39.608a1.06 1.06 0 0 0 1.051-.9l.491-3.267 3.6-23.783a1.018 1.018 0 0 0-.242-.85z" fill="#0071BC" mask="url(#b)"/></g></svg>
