<svg width="59" height="35" viewBox="0 0 59 35" xmlns="http://www.w3.org/2000/svg" xmlns:xlink="http://www.w3.org/1999/xlink"><defs><path id="a" d="M0 34.577h58.308V0H0z"/></defs><g fill="none" fill-rule="evenodd"><mask id="b" fill="#fff"><use xlink:href="#a"/></mask><path d="M37.82 33.333v-.927l1.924-.002v-2.917H37.82v-1.282h17.307v2.564h1.923v.354l-1.923.003v2.207H37.821zm-34.615-.93v-2.916H1.282v-1.282H18.59v2.564h1.923v.354l-1.923.003v2.207H1.282v-.927l1.923-.002zm8.453-31.12h2.706c-.525 3.204-1.061 4.577-2.121 6.885-.172.374-.365.86-.577 1.338-1.01 2.282-2.537 5.754-3.837 7.004-1.736 1.668-2.702 4.85-2.068 6.875.39 1.247.192 2.897.007 3.538h-3.95l9.84-25.64zm8.105 15.514c-.021-.118-.042-.188-.064-.307-.473-2.628-.962-5.418.43-8.75.765-1.836 1.193-5.176 1.324-6.458h.287l-1.977 15.515zM23.57 1.282c-.348 1.923-1.15 6.831-.302 9.401.466 1.414 1.015 2.34 1.5 3.113.67 1.068 1.249 1.946 1.498 4.025.329 2.742-.815 7.18-1.383 9.103h-3.62c.059-1.923.745-3.912 1.365-5.392.382-.914.743-1.744.9-2.642.615-3.488-1.02-6.06-1.823-7.038l1.345-10.57h.52zm14.272 25.641l-.875-6.82c.94 1.593 2.152 4.256 2.783 6.82h-1.908zm-1.39 0H32.25c-.093-.64-.067-3.236 1.337-7.628 1.538-4.814.318-8.398-.573-11.041-.344-1.02-.641-1.982-.745-2.773-.265-2.017-.128-3.558-.03-4.199h.932l3.28 25.641zM27.49 1.283h2.521c-.177 1.281-1.293 3.772-1.798 4.238-.261-.489-.556-2.316-.723-4.239zm.615 5.027c.023.003.045.053.067.053.242 0 .428-.259.493-.323.685-.686 1.812-3.476 1.986-4.758h.937c-.102.641-.218 2.292.046 4.3.112.853.418 1.81.773 2.863.911 2.7 2.045 6.018.57 10.63-1.397 4.37-1.47 6.566-1.374 7.848h-2.39c.107-1.282.419-3.718 1.324-5.922 2.504-6.102-2.153-10.145-3.685-11.486-.118-.103-.218-.272-.293-.342-1.845-1.716-1.044-6.609-.764-7.89h1.053c.414 5.127 1.023 4.994 1.257 5.027zM26.902 17.77c-.266-2.222-.91-3.213-1.59-4.3-.489-.778-.993-1.664-1.435-3.003-.81-2.456.027-7.26.347-9.184h.916c-.322 1.923-1.07 6.47.983 8.378.08.074.184.214.308.323 1.446 1.266 5.845 5.073 3.513 10.751-.959 2.336-1.273 4.907-1.376 6.19h-3.015c.596-1.924 1.686-6.348 1.349-9.155zm-7.132 9.154l1.817-14.099c.765 1.126 1.787 3.25 1.312 5.954-.146.828-.495 1.609-.862 2.489-.644 1.538-1.358 3.092-1.415 5.656h-.852zm-4.667-1.144c1.78-1.88 3.015-6.88 1.808-9.088-1.033-1.888-.401-7.44.034-8.756.352-1.066 1.04-5.37 1.25-6.653h2.611c-.138 1.282-.56 4.537-1.27 6.236-1.462 3.507-.957 6.368-.467 9.086.157.875.308 1.683.394 2.54l-1.003 7.78h-4.503l1.146-1.145zm-2.791-.04c1.277-.643 1.86-2.771 2.6-5.51l.055-.187c.51-1.91.103-3.264-.195-4.26-.133-.445-.248-.826-.238-1.13.007-.235.038-.63.073-1.096.232-3.052.192-3.696-.241-3.834-.22-.066-.42.046-.597.343-.263.439-.554 1.212-.89 2.107-.627 1.663-1.405 3.731-2.305 4.473-1.402 1.161-1.64 1.752-2.28 3.333l-.177.44c-.293.715-.159 2.3-.01 3.73l.03.229c.096.959.097 1.905-.145 2.546H6.426c.19-.64.363-2.389-.053-3.717-.561-1.791.344-4.749 1.9-6.244 1.392-1.336 2.887-4.697 3.979-7.163.21-.475.403-1 .574-1.37 1.073-2.34 1.644-3.942 2.187-7.147h2.533c-.225 1.282-.885 5.486-1.21 6.468-.404 1.224-1.195 7.026.013 9.234 1.077 1.968-.1 6.627-1.711 8.33l-1.564 1.61H10.71c.343-.642.859-.807 1.602-1.185zm-3.536-1.426l-.03-.265c-.095-.907-.29-2.778-.035-3.404l.18-.434c.627-1.552.816-2.018 2.092-3.075 1.03-.85 1.843-3.004 2.496-4.738.233-.618.443-1.175.629-1.585.009.748-.087 1.998-.14 2.698-.037.477-.067.886-.075 1.127-.013.408.116.839.265 1.337.29.974.654 2.186.19 3.92l-.056.202c-.669 2.482-1.246 4.556-2.27 5.07-.668.341-1.553 1.116-2.065 1.757H8.651c.223-.64.22-1.647.125-2.61zm27.762 9.02H19.872v-.927l1.923-.002v-2.917h-1.923v-1.282h16.666v2.564h1.924v.354l-1.924.003v2.207zm.026-32.05c.12 1.281.082 2.387.028 3.74-.09 2.26-.193 4.873.414 7.97.456 2.326 1.978 4.51 3.59 6.873 1.536 2.252 3.114 4.493 3.85 7.057h-4.039c-.829-3.846-2.691-6.97-3.636-8.38l-2.209-17.26h2.002zm8.907 25.64c-.725-1.923-3.274-9.372-3.106-12.431.051-.92.153-1.898.252-2.781.35-3.144.71-5.942-1.221-10.429h1.283c.423 1.282 1.363 4.087 1.61 8.758.04.72.035 1.532.032 2.338-.014 2.978-.032 6.637 2.07 11.56.701 1.64 1.009 2.344 1.145 2.985H45.47zm-6.238-24.62c.456 1.35 1.037 6.482 1.133 9.637.054 1.76-.04 2.534-.116 2.863-.157-.288-.441-.977-.874-2.623-1.23-4.674-.266-9.322-.255-9.368l.001-.01c.04-.219.077-.38.11-.499zm-2.02-1.02h1.758c-.261.64-.384.785-.479 1.298-.054.255-.998 4.919.264 9.712.759 2.882 1.166 3.304 1.523 3.304.03 0 .059.01.088.006.298-.043.75-.204.64-3.79-.003-.1-.43-9.249-1.594-10.53h1.261c2.006 3.845 1.67 7.126 1.305 10.393a51.27 51.27 0 0 0-.253 2.802c-.114 2.075.916 5.943 1.862 8.965-.738-1.33-1.605-2.596-2.463-3.854-1.573-2.306-3.059-4.477-3.49-6.674-.593-3.025-.492-5.644-.403-7.87.054-1.35.096-2.48-.02-3.763zM47.85 9.675c.025.82-.027 1.798-.09 2.773-.139 2.143-.296 4.598.357 6.74.51 1.674.98 2.574 1.435 3.502.535 1.09 1.043 2.309 1.537 4.232h-2.896c-.2-.64-.728-2.076-1.213-3.211-2.05-4.802-2.034-8.397-2.02-11.316.004-.815.008-1.668-.032-2.407-.237-4.486-1.088-7.425-1.561-8.707h1.294l3.19 8.394zm3.899 17.247c-.52-1.923-1.056-3.35-1.621-4.502-.444-.904-.902-1.804-1.398-3.43-.618-2.03-.466-4.379-.33-6.468.025-.393.05-.842.069-1.219l6.032 15.62H51.75zm6.583 5.48v-2.916H56.41v-1.822L45.542 0H10.778L0 27.665v3.104h1.923v.354L0 31.126v3.49h56.41v-2.21l1.923-.002zM10.39 22.132c.054-.199.1-.375.123-.505.086-.47.707-1.809 1.278-2.127a.386.386 0 0 1 .184-.058.22.22 0 0 1 .08.015c.097.038.173.125.232.265.275.648.025 1.96-.18 2.452-.512 1.226-1.31 1.733-1.844 1.595a.092.092 0 0 1-.063-.047c-.159-.273.069-1.13.19-1.59zm-.286 2.258c.117.03.234.044.352.044.852 0 1.72-.762 2.243-2.014.24-.573.55-2.076.18-2.95-.129-.302-.328-.508-.59-.61-.177-.07-.464-.114-.81.079-.814.454-1.496 2.028-1.596 2.572-.021.118-.064.276-.112.456-.186.702-.418 1.575-.123 2.078.102.176.26.294.456.345z" fill="#0071BC" mask="url(#b)"/></g></svg>