<svg width="109" height="95" viewBox="0 0 109 95" xmlns="http://www.w3.org/2000/svg"><path d="M66.6 64L56 48.414l36.39-13.248c.114-.041.223-.098.321-.166L104 50.857 66.6 64zM91 77.836L56 90V50l9.787 14.23a1.34 1.34 0 0 0 1.546.51L91 56.516v21.32zM18 57.797l23.43 8.093a1.353 1.353 0 0 0 1.52-.464L53 52v39L18 78.909V57.797zM14.126 35c.063.032.13.06.2.084L51 47.188 39.636 62 3 49.65 14.126 35zm22.886-5.226l-1.643 1.414a1.45 1.45 0 0 0-.158 2.039c.285.333.687.506 1.094.506.33 0 .663-.114.931-.347l.6-.515.792 2.972-1.645 1.414a1.45 1.45 0 0 0-.156 2.04 1.433 1.433 0 0 0 2.026.159l.598-.515L40 41l-3.144-1.072L18 33.362 36.27 27l.742 2.774zM29.104 6.417l12.979-3.32c.252-.064.51-.097.77-.097.83 0 1.594.328 2.147.868a5.892 5.892 0 0 0-3.083 2.349 4.615 4.615 0 0 0-3.786-.677l-4.33 1.108a4.418 4.418 0 0 0-2.718 1.995c-.072.114-.114.239-.17.357a6.19 6.19 0 0 0-2.774-.658c-.383 0-.764.046-1.139.116a2.82 2.82 0 0 1 .291-.708 2.95 2.95 0 0 1 1.813-1.333zM54.428 19L59 20.743l-.273 1.121v-.001l-2.255 9.276-1.88.385c-.691.143-1.145.872-1.018 1.633.114.673.648 1.143 1.249 1.143.077 0 .155-.007.235-.023l.685-.142-.7 2.877-1.88.385c-.69.143-1.146.872-1.017 1.633.114.673.647 1.143 1.248 1.143.078 0 .154-.007.234-.023l.686-.142-.7 2.876-.564.116-2.191-8.995 1.083-1.02c.533-.5.597-1.385.139-1.973-.457-.587-1.257-.657-1.792-.153l-.158.149-.7-2.877 1.08-1.02c.533-.5.598-1.385.14-1.973-.456-.586-1.257-.657-1.791-.153l-.16.148-.7-2.878 1.083-1.02c.084-.08.138-.183.199-.28L54.428 19zm9.483-8.903l12.98 3.306A2.91 2.91 0 0 1 79 15.439a6.217 6.217 0 0 0-1.099-.108 6.224 6.224 0 0 0-2.81.669c-.06-.126-.108-.259-.183-.38a4.43 4.43 0 0 0-2.719-1.988l-4.33-1.103a4.64 4.64 0 0 0-3.764.658A5.886 5.886 0 0 0 61 10.86a3.072 3.072 0 0 1 2.142-.86c.256 0 .516.033.769.097zM74.326 19.4c-.03.082-.07.152-.105.229-.035.08-.067.166-.109.24-.045.083-.1.15-.15.224-.04.059-.076.124-.12.179-.058.067-.12.124-.182.183-.047.046-.088.098-.138.14-.063.051-.132.089-.2.132-.051.033-.101.075-.154.102-.066.032-.135.05-.202.074-.061.022-.12.05-.182.065-.064.013-.13.011-.193.017-.068.006-.135.017-.206.013-.06-.003-.118-.024-.179-.035-.07-.013-.138-.023-.206-.044l.528-2.778c.28-1.483 1.387-2.456 2.472-2.05l-.53 2.778a3.76 3.76 0 0 1-.144.53zM43 40.906L47.438 37 49 43l-6-2.094zM64 39l-.735 2.01L56 42l.734-2.008L64 39zm2-7l-.734 2.008L58 35l.734-2.01L66 32zm-2.176-9L71 25.528c-.002.014.002.027-.002.038l-1.535 5.833L61 33l2.496-9.48c.054-.209.175-.382.328-.52zM60.9 16.351L60.139 19c-.018-.004-.033-.012-.049-.018a2.895 2.895 0 0 1-1.69-1.251 2.553 2.553 0 0 1-.298-2.084L58.868 13c1.533.413 2.445 1.916 2.033 3.351zm20.811 18.992L67 40l.725-2.476 1.544-.263c.761-.131 1.26-.799 1.123-1.495-.145-.696-.87-1.16-1.636-1.027l-.224.039.77-2.633 1.545-.263c.761-.13 1.26-.798 1.121-1.494-.144-.696-.867-1.158-1.635-1.027l-.224.038.996-3.399L91 32.296l-9.288 3.047zm-16.6-20.447c.166-.528.73-.896 1.371-.896.122 0 .244.015.363.041l4.105.938c.364.082.667.283.857.565.189.282.241.607.145.916L70.843 20 64 18.436l.734-2.332.001-.004.377-1.204zM45.306 31L46 33.906 40.694 39 40 36.094 45.306 31zm0-7L46 26.907 40.694 32 40 29.094 45.306 24zm-.164-18l.763 2.648c.053.182.084.365.094.545.004.062-.007.12-.007.18 0 .12.003.242-.015.359-.012.071-.037.138-.053.207-.025.103-.042.208-.08.306-.027.073-.066.14-.099.21-.043.089-.081.183-.134.269-.04.068-.095.127-.145.192-.057.081-.112.163-.18.238-.054.059-.122.108-.181.163-.076.069-.146.143-.229.202-.065.048-.14.085-.21.128-.091.055-.178.115-.277.162-.072.034-.155.058-.233.087-.096.035-.192.077-.295.104l-.762-2.648c-.413-1.437.502-2.943 2.043-3.352zm-11.095 4.46a1.054 1.054 0 0 1 .146-.916c.19-.282.493-.481.856-.565l4.104-.938A1.72 1.72 0 0 1 39.516 8c.641 0 1.206.369 1.372.895L42 12.435 35.158 14l-.733-2.333v-.003l-.378-1.204zm-4.07 5.46a1.524 1.524 0 0 1-.45.08c-.038 0-.077-.006-.116-.009-.886-.059-1.655-.912-1.885-2.126L27 11.086a1.46 1.46 0 0 1 .491-.086c.924 0 1.739.877 1.98 2.134l.17.89.359 1.89c-.008.004-.015.004-.024.007zm5.055 2.623a.977.977 0 0 1 .666-1.188l4.796-1.323a.862.862 0 0 1 .24-.032.95.95 0 0 1 .913.719L43 21.921 37.233 27l-2.201-8.457zm73.702 31.09L95.092 30.861c-.03-.038-.068-.067-.097-.102a1.399 1.399 0 0 0-.699-.542L75.83 23.862a5.58 5.58 0 0 0 2.926-3.539l.724-2.685.001-.005.36-1.34c.802-2.971-.976-6.034-3.964-6.829l-12.16-3.241a5.614 5.614 0 0 0-6.867 3.942l-1.083 4.03a5.468 5.468 0 0 0-.006 2.757l-.68-.234c-.296-.1-.618-.1-.915 0l-7.548 2.598-.917-3.399v-.001l-.248-.925c2.983-.797 4.76-3.86 3.96-6.828l-.725-2.684-.36-1.346A5.613 5.613 0 0 0 41.461.191L29.3 3.43a5.557 5.557 0 0 0-3.402 2.6 5.503 5.503 0 0 0-.563 4.229l1.085 4.03c.656 2.434 2.884 4.133 5.419 4.133a5.56 5.56 0 0 0 1.437-.19l.25.929v.001l1.146 4.266-19.723 6.788c-.371.13-.649.41-.803.752L.273 49.622a1.393 1.393 0 0 0 .67 2.144l13.066 4.498v23.843c0 .593.378 1.124.94 1.316l39.214 13.5c.007.003.015.003.021.003a1.353 1.353 0 0 0 .877 0c.004 0 .014 0 .02-.003l39.214-13.5c.563-.193.942-.724.942-1.316V56.179l12.82-4.413a1.394 1.394 0 0 0 .677-2.133z" fill="#205493" fill-rule="evenodd"/></svg>
