<svg width="51" height="51" xmlns="http://www.w3.org/2000/svg"><g fill="none" fill-rule="evenodd"><path d="M45.256 37.172l4.212-2.569" stroke="#0071BC" stroke-width="2"/><path fill="#0071BC" d="M47.558.511V1.61h1.099v32.884h1.098V.511h-2.197"/><path d="M49.205 34.465v.577" stroke="#0071BC" stroke-width="2"/><path d="M26.088 1.06H15.742m32.365 0H31.756" stroke="#0071BC" stroke-width="2" stroke-linecap="square"/><path fill="#0071BC" d="M15.193.512l-.72.435L0 9.772l.577.949L15.05 1.896l.717-.432-.573-.952"/><path d="M33.691 10.48l15.746-9.087m-.232 33.102v.577" stroke="#0071BC" stroke-width="2"/><path d="M22.965 43.236H1.1V10.871h10.795V9.773H0v34.562h24.761m9.8-17.405V9.774h-16.85v1.099h15.752v14.934" fill="#0071BC"/><path d="M26.868 1.607h3.772L17.163 9.773v11.234l-2.408-2.72-2.312 2.689V10.395l14.425-8.788zm-.308-1.1l-15.216 9.27v14.161l3.424-3.98 3.494 3.95V10.392L34.572.508H26.56z" fill="#0071BC"/><path d="M33.721 26.33c6.385 0 11.56 5.175 11.56 11.56 0 6.385-5.175 11.56-11.56 11.56-6.384 0-11.56-5.175-11.56-11.56 0-6.385 5.176-11.56 11.56-11.56z" stroke="#0071BC" stroke-width="2" stroke-linecap="round" stroke-linejoin="round"/><path d="M33.654 42.582c-.96 0-1.748.78-1.748 1.727 0 .883.724 1.726 1.748 1.726.96 0 1.705-.805 1.705-1.726 0-.936-.756-1.727-1.705-1.727zm-.133-12.837c-2.36 0-4.191 1.582-4.191 3.726 0 .544.129 1.028.408 1.403.28.373.732.612 1.207.612.409 0 .801-.161 1.065-.444.264-.283.395-.666.395-1.06 0-.578-.374-.962-.578-1.172-.204-.21-.267-.25-.267-.473 0-.091.106-.303.398-.495a2.187 2.187 0 0 1 1.141-.332c1.06 0 1.872.794 1.872 2.071 0 1.18-.516 2.529-1.092 3.948-.794 1.973-.993 3.172-1.016 4.123l-.015.562h1.409l.074-.462c.236-1.455.589-2.344 1.322-3.22.96-1.14 1.564-1.912 1.945-2.622.382-.71.515-1.373.515-2.106a3.819 3.819 0 0 0-1.414-2.987c-.853-.7-1.985-1.072-3.178-1.072z" fill="#0071BC"/></g></svg>