<svg width="51" height="47" viewBox="0 0 51 47" xmlns="http://www.w3.org/2000/svg"><g fill="none" fill-rule="evenodd"><path stroke="#0071BC" stroke-linecap="square" stroke-linejoin="round" d="M39.474 20.737v5.92-5.92h3.947z"/><path d="M49.938 26.663l-6.517-5.926m-13.15 25.65l-3.305-3.932" stroke="#0071BC" stroke-linecap="round"/><path d="M30.263 46.395H50V26.658H30.263v19.737zM19.08 26l-5.921-5.263H.658v19.079-19.08h12.5L19.078 26z" stroke="#0071BC" stroke-linecap="square" stroke-linejoin="round"/><path d="M7.198 26.805l-6.147-5.808m6.194 25.39L.65 39.824" stroke="#0071BC" stroke-linecap="round"/><path d="M7.237 46.395h19.737V26.658H7.237v19.737zM13.157 1v19.079V1h19.738-19.737z" stroke="#0071BC" stroke-linecap="square" stroke-linejoin="round"/><path d="M19.557 6.935L13.55 1.26m25.86 5.665L32.895 1" stroke="#0071BC" stroke-linecap="round"/><path stroke="#0071BC" stroke-linecap="square" stroke-linejoin="round" d="M19.737 26.658h19.737V6.92H19.737z"/><path fill="#0071BC" d="M37.766 12.842v-2.466h.391l-1.414-2.449-1.415 2.45h.39v2.465h2.048M48.491 32.578v-2.465h.392l-1.415-2.45-1.415 2.45h.391v2.465h2.047M25.465 32.578v-2.465h.392l-1.416-2.45-1.414 2.45h.39v2.465h2.048"/></g></svg>