<svg width="49" height="55" viewBox="0 0 49 55" xmlns="http://www.w3.org/2000/svg" xmlns:xlink="http://www.w3.org/1999/xlink"><defs><path id="a" d="M48.6 37.205H0V.512h48.6z"/></defs><g fill="none" fill-rule="evenodd"><g transform="translate(0 16.855)"><mask id="b" fill="#fff"><use xlink:href="#a"/></mask><path d="M47.414 33.119a.584.584 0 0 1-.584.584h-5.342v-1.186h1.778a.592.592 0 0 0 0-1.186h-4.149v-1.185h4.15a.592.592 0 0 0 0-1.185h-6.52v-1.185h6.52a.593.593 0 0 0 0-1.186h-4.15v-1.185h6.52a.608.608 0 0 0 .593-.593v-3.325a.589.589 0 0 0-.223-.462.573.573 0 0 0-.503-.113l-3.637.835-.264-1.151 5.103-1.134a.582.582 0 0 1 .708.569v13.088zm-2.37 2.954H3.556v-1.186h4.15a.592.592 0 0 0 .592-.592v-1.778h1.779a.594.594 0 0 0 .592-.592v-1.779h1.778a.592.592 0 0 0 .592-.592v-2.37a.594.594 0 0 0-.592-.594h-1.778v-1.778a.594.594 0 0 0-.592-.592h-6.52v-1.987l3.488.801a.59.59 0 0 0 .71-.44v-.005l.533-2.31a.592.592 0 0 0-.45-.71l-4.282-.952v-2.695h41.488v2.695l-4.282.951a.603.603 0 0 0-.373.262.595.595 0 0 0-.076.449l.532 2.31a.587.587 0 0 0 .71.445l3.49-.8v1.986h-6.52a.592.592 0 0 0-.593.592v1.778h-1.778a.594.594 0 0 0-.593.593v2.37c0 .328.265.593.593.593h1.778v1.779c0 .326.265.592.593.592h1.778v1.778c0 .328.266.592.592.592h4.15v1.186zm-43.273-2.37a.585.585 0 0 1-.585-.584V20.032a.582.582 0 0 1 .71-.57l5.102 1.134-.264 1.151-3.637-.835a.592.592 0 0 0-.726.58v3.32c0 .327.265.593.593.593h6.52v1.185h-4.15a.594.594 0 0 0 0 1.186h6.52v1.185h-6.52a.593.593 0 0 0 0 1.185h4.15v1.185h-4.15a.594.594 0 0 0 0 1.186h1.779v1.186H1.77zm-.356-18.966L3.39 8.81h41.82l1.977 5.927H1.415zm46.521 3.912a1.765 1.765 0 0 0-1.489-.345l-.217.05v-2.432h1.777a.592.592 0 0 0 .562-.78l-2.307-6.924 2.307-6.925a.592.592 0 1 0-1.124-.376v.001L45.21 7.625H3.391L1.156.918a.593.593 0 0 0-1.126.374l2.308 6.926L.03 15.142a.594.594 0 0 0 .563.78h1.778v2.43l-.216-.048a1.788 1.788 0 0 0-1.491.345c-.42.336-.665.845-.663 1.383v13.087a1.77 1.77 0 0 0 1.77 1.768h.6v1.778c0 .328.265.592.593.593h42.673a.595.595 0 0 0 .593-.593v-1.778h.6a1.77 1.77 0 0 0 1.77-1.768V20.032c0-.538-.243-1.047-.664-1.383z" fill="#0071BC" mask="url(#b)"/></g><path d="M38.741 11.318l-10.632-.856-.285 3.545 10.63.856.287-3.545zm1.091-.928a.59.59 0 0 1 .14.432l-.383 4.726a.593.593 0 0 1-.638.543l-11.816-.95a.591.591 0 0 1-.54-.637v-.002l.378-4.725a.588.588 0 0 1 .64-.543l11.817.95c.155.012.3.087.402.206zM38.475 22l-2.364-.19a.621.621 0 0 0-.635.542.592.592 0 0 0 .544.638l2.363.19a.592.592 0 0 0 .092-1.18zm.193-2.363l-2.364-.191a.604.604 0 0 0-.64.543.59.59 0 0 0 .543.638l2.364.19.048.003a.592.592 0 0 0 .049-1.183zm.19-2.364l-2.362-.19a.593.593 0 0 0-.097 1.18l2.362.19.048.003a.592.592 0 0 0 .049-1.183zm-5.106 4.346l-2.363-.19a.597.597 0 0 0-.64.543.59.59 0 0 0 .538.637h.004l2.365.191.047.003a.593.593 0 0 0 .05-1.184zm.188-2.363l-2.364-.19a.637.637 0 0 0-.637.543.594.594 0 0 0 .545.638l2.363.189a.592.592 0 0 0 .093-1.18zm.19-2.363l-2.364-.19a.63.63 0 0 0-.637.543.593.593 0 0 0 .544.638l2.364.19a.592.592 0 0 0 .093-1.18zm-5.105 4.346l-2.362-.19a.601.601 0 0 0-.64.543.591.591 0 0 0 .541.638h.003l2.361.19.048.002a.592.592 0 0 0 .049-1.183zm.19-2.362l-2.362-.192a.606.606 0 0 0-.638.543.589.589 0 0 0 .536.638h.005l2.362.191.048.002a.592.592 0 0 0 .049-1.182zm.19-2.365l-2.362-.19a.598.598 0 0 0-.639.543.59.59 0 0 0 .54.638h.002l2.361.19.049.003a.594.594 0 0 0 .049-1.184zM16.85 17.98a1.777 1.777 0 1 0-3.555 0 1.777 1.777 0 0 0 3.555 0zm1.186 0a2.964 2.964 0 1 1-5.928 0 2.964 2.964 0 0 1 5.928 0zm-7.112-7.705h8.297V9.09h-8.297v1.185zm9.483-1.778v2.37a.592.592 0 0 1-.593.594h-9.483a.592.592 0 0 1-.593-.593V8.496c0-.328.266-.593.593-.593h9.483c.327 0 .593.265.593.593zm-9.483-2.963h8.297V4.348h-8.297v1.185zm9.483-1.778v2.37a.592.592 0 0 1-.593.593h-9.483a.592.592 0 0 1-.593-.593v-2.37c0-.327.266-.592.593-.593h9.483c.327 0 .593.266.593.593zM8.554 1.976h13.039V24.5h1.185V1.384a.592.592 0 0 0-.592-.593H7.961a.594.594 0 0 0-.593.593v23.115h1.186V1.976zM24.605 24.5h-1.188L24.7 8.402a1.773 1.773 0 0 1 1.901-1.636h.014l14.18 1.14a1.798 1.798 0 0 1 1.635 1.913L41.247 24.5H40.06l1.19-14.77a.614.614 0 0 0-.564-.643l-14.16-1.138a.643.643 0 0 0-.645.546L24.605 24.5z" fill="#0071BC"/></g></svg>