<svg width="53" height="49" xmlns="http://www.w3.org/2000/svg" xmlns:xlink="http://www.w3.org/1999/xlink"><defs><path id="a" d="M0 48.267h52.307V.487H0z"/></defs><g fill="none" fill-rule="evenodd"><mask id="b" fill="#fff"><use xlink:href="#a"/></mask><path d="M50.87 11.91H1.437V9.532A4.56 4.56 0 0 1 5.99 4.977h4.213v3.369a.718.718 0 1 0 1.437 0v-3.37h8.766v3.37a.718.718 0 1 0 1.438 0v-3.37h8.765v3.37a.72.72 0 0 0 1.438 0v-3.37h8.768v3.37a.718.718 0 1 0 1.437 0v-3.37h4.062a4.56 4.56 0 0 1 4.553 4.556v2.378h.001zm0 30.402a4.557 4.557 0 0 1-4.554 4.553H5.991a4.557 4.557 0 0 1-4.554-4.553V13.348H50.87v28.964zM46.315 3.539h-4.061V1.205a.72.72 0 0 0-1.438 0V3.54h-8.769V1.205a.718.718 0 1 0-1.437 0V3.54h-8.766V1.205a.718.718 0 1 0-1.438 0V3.54H11.64V1.205a.718.718 0 1 0-1.437 0V3.54H5.991A5.998 5.998 0 0 0 0 9.532v32.78a5.998 5.998 0 0 0 5.99 5.99h40.326a5.999 5.999 0 0 0 5.99-5.99V9.532a6 6 0 0 0-5.99-5.993z" fill="#0071BC" mask="url(#b)"/><path d="M15.679 39.082c0 .572-.465 1.037-1.038 1.037H8.878a1.04 1.04 0 0 1-1.04-1.037v-5.763c0-.573.468-1.04 1.04-1.04h5.763a1.04 1.04 0 0 1 1.038 1.04v5.763zm-1.038-8.241H8.878A2.481 2.481 0 0 0 6.4 33.319v5.763a2.48 2.48 0 0 0 2.478 2.475h5.763a2.477 2.477 0 0 0 2.476-2.475v-5.763a2.48 2.48 0 0 0-2.476-2.478zm15.433 8.241a1.04 1.04 0 0 1-1.04 1.037H23.27a1.038 1.038 0 0 1-1.038-1.037v-5.763c0-.573.465-1.04 1.038-1.04h5.763c.572 0 1.04.467 1.04 1.04v5.763zm-1.04-8.241H23.27a2.48 2.48 0 0 0-2.476 2.478v5.763a2.477 2.477 0 0 0 2.476 2.475h5.763a2.48 2.48 0 0 0 2.478-2.475v-5.763a2.481 2.481 0 0 0-2.478-2.478zm15.432 8.241a.953.953 0 0 1-.024.22l-3.014-3.232 3.005-3.006a.985.985 0 0 1 .034.254v5.764h-.001zm-6.8 1.037c-.09 0-.176-.012-.257-.033l3-2.998 2.827 3.031h-5.57zm-1.04-6.8c0-.317.158-.118.402.143l2.399 2.572-2.802 2.803v-5.518zm6.556-1.04l-2.737 2.739-2.365-2.536a.718.718 0 0 0-.343-.203h5.445zm.246-1.438h-5.763a2.481 2.481 0 0 0-2.478 2.478v5.763a2.48 2.48 0 0 0 2.478 2.475h5.763a2.477 2.477 0 0 0 2.476-2.475v-5.763a2.48 2.48 0 0 0-2.476-2.478zm1.038-5.502c0 .573-.465 1.038-1.038 1.038h-5.763a1.04 1.04 0 0 1-1.04-1.038v-5.766a1.04 1.04 0 0 1 1.04-1.037h5.763c.573 0 1.038.465 1.038 1.037v5.766zm-1.038-8.241h-5.763a2.48 2.48 0 0 0-2.478 2.475v5.766a2.48 2.48 0 0 0 2.478 2.476h5.763a2.479 2.479 0 0 0 2.476-2.476v-5.766a2.477 2.477 0 0 0-2.476-2.475zm-13.354 8.241a1.04 1.04 0 0 1-1.04 1.038H23.27a1.038 1.038 0 0 1-1.038-1.038v-5.766c0-.572.465-1.037 1.038-1.037h5.763c.572 0 1.04.465 1.04 1.037v5.766zm-1.04-8.241H23.27a2.477 2.477 0 0 0-2.476 2.475v5.766a2.479 2.479 0 0 0 2.476 2.476h5.763a2.48 2.48 0 0 0 2.478-2.476v-5.766a2.48 2.48 0 0 0-2.478-2.475zm-13.355 8.241c0 .573-.465 1.038-1.038 1.038H8.878a1.04 1.04 0 0 1-1.04-1.038v-5.766a1.04 1.04 0 0 1 1.04-1.037h5.763c.573 0 1.038.465 1.038 1.037v5.766zm-1.038-8.241H8.878A2.48 2.48 0 0 0 6.4 19.573v5.766a2.48 2.48 0 0 0 2.478 2.476h5.763a2.479 2.479 0 0 0 2.476-2.476v-5.766a2.477 2.477 0 0 0-2.476-2.475z" fill="#0071BC"/></g></svg>