<svg width="50" height="43" viewBox="0 0 50 43" xmlns="http://www.w3.org/2000/svg" xmlns:xlink="http://www.w3.org/1999/xlink"><defs><path id="a" d="M0 42.189h50V0H0z"/></defs><g fill="none" fill-rule="evenodd"><mask id="b" fill="#fff"><use xlink:href="#a"/></mask><path d="M25 20a4.42 4.42 0 0 1 4.444 4.444A4.42 4.42 0 0 1 25 28.89a4.42 4.42 0 0 1-4.444-4.445A4.42 4.42 0 0 1 25 20zm0-3.333c-4.276 0-7.778 3.502-7.778 7.777 0 4.276 3.502 7.778 7.778 7.778s7.778-3.502 7.778-7.778c0-4.275-3.502-7.777-7.778-7.777zm0-2.223c5.543 0 10 4.458 10 10 0 5.543-4.457 10-10 10s-10-4.457-10-10c0-5.542 4.457-10 10-10zm16.111-2.222a2.778 2.778 0 1 0 0 5.556 2.778 2.778 0 0 0 0-5.556zM25 11.112c-7.344 0-13.333 5.989-13.333 13.332 0 7.345 5.99 13.334 13.333 13.334 7.344 0 13.333-5.99 13.333-13.334 0-7.343-5.989-13.333-13.333-13.333zM6.667 10h36.666c1.876 0 3.334 1.458 3.334 3.333v22.223c0 1.875-1.458 3.333-3.334 3.333H6.667c-1.876 0-3.334-1.458-3.334-3.333V13.333C3.333 11.458 4.791 10 6.667 10zm12.621-6.667h11.424l1.944 3.334H17.344l1.944-3.334zM18.333 0c-.607.006-1.18.39-1.44.816l-3.42 5.85H6.666C3.002 6.667 0 9.67 0 13.334v22.223c0 3.664 3.002 6.666 6.667 6.666h36.666c3.665 0 6.667-3.002 6.667-6.666V13.333c0-3.664-3.002-6.666-6.667-6.666h-6.805l-3.42-5.85A1.7 1.7 0 0 0 31.667 0H18.333z" fill="#0071BC" mask="url(#b)"/></g></svg>
