<svg width="41" height="50" viewBox="0 0 41 50" xmlns="http://www.w3.org/2000/svg" xmlns:xlink="http://www.w3.org/1999/xlink"><defs><path id="a" d="M.036 49.964h40.44V0H.036z"/></defs><g fill="none" fill-rule="evenodd"><g><mask id="b" fill="#fff"><use xlink:href="#a"/></mask><path d="M36.905 43.452a2.976 2.976 0 0 1-2.976 2.977H6.548a2.976 2.976 0 0 1-2.977-2.977V11.31a2.977 2.977 0 0 1 2.977-2.977h4.166v1.786c0 .986.8 1.786 1.786 1.786h15.476c.986 0 1.786-.8 1.786-1.786V8.333h4.167a2.976 2.976 0 0 1 2.976 2.977v32.142zm-22.62-36.31c0-1.971 1.6-3.57 3.572-3.57h4.762c1.972 0 3.571 1.599 3.571 3.57v1.191H14.286v-1.19zm19.644-2.38h-4.584A7.143 7.143 0 0 0 22.62 0h-4.762a7.143 7.143 0 0 0-6.726 4.762H6.548A6.548 6.548 0 0 0 0 11.31v32.142A6.548 6.548 0 0 0 6.548 50h27.38a6.548 6.548 0 0 0 6.548-6.548V11.31a6.548 6.548 0 0 0-6.547-6.548z" fill="#0071BC" mask="url(#b)"/></g><path d="M12.946 22.917a2.083 2.083 0 1 1 0-4.167 2.083 2.083 0 0 1 0 4.167zm0-7.738a5.655 5.655 0 1 0 0 11.309 5.655 5.655 0 0 0 0-11.31zM31.399 19.048h-8.78a1.786 1.786 0 1 0 0 3.571h8.78a1.786 1.786 0 1 0 0-3.571M12.946 38.988a2.083 2.083 0 1 1 0-4.167 2.083 2.083 0 0 1 0 4.167zm0-7.738a5.655 5.655 0 1 0 0 11.31 5.655 5.655 0 0 0 0-11.31zM31.399 35.119h-8.78a1.786 1.786 0 1 0 0 3.571h8.78a1.786 1.786 0 1 0 0-3.571" fill="#0071BC"/></g></svg>