<svg width="58" height="33" viewBox="0 0 58 33" xmlns="http://www.w3.org/2000/svg" xmlns:xlink="http://www.w3.org/1999/xlink"><title>after_move_damage</title><defs><path id="a" d="M.06 33h57.816V.375H.06z"/></defs><g fill="none" fill-rule="evenodd"><g><mask id="b" fill="#fff"><use xlink:href="#a"/></mask><path d="M52.751 19.751h3.125v-9.376h-3.125v9.376zm3.126 6.374H2V21.75h53.875v4.375h.002zM50.438 31h2.25v-2.875h-2.25V31zm-45.25 0h2.25v-2.875h-2.25V31zM4.563 8.25V4.375c0-1.103.897-2 2-2h44.75c1.102 0 2 .897 2 2v4H50.75V19.75H7.126V8.25H4.563zM2.001 19.626h3.125V10.25H2.001v9.376zM55.313 8.375v-4c0-2.206-1.794-4-4-4H6.563c-2.206 0-4 1.794-4 4V8.25H0v19.875h3.188V33h6.25v-4.875h39V33h6.25v-4.875h3.188V8.375h-2.563z" fill="#0071BC" mask="url(#b)"/></g><path d="M13.851 6.185c.659 0 1.195.536 1.195 1.195s-.536 1.195-1.195 1.195a1.196 1.196 0 0 1-1.195-1.195c0-.659.536-1.195 1.195-1.195zm0 3.39c1.21 0 2.195-.985 2.195-2.195s-.985-2.195-2.195-2.195-2.195.984-2.195 2.195c0 1.211.984 2.195 2.195 2.195zM28.938 6.185c.659 0 1.195.536 1.195 1.195s-.536 1.195-1.195 1.195a1.196 1.196 0 0 1-1.195-1.195c0-.659.536-1.195 1.195-1.195zm0 3.39a2.197 2.197 0 0 0 2.195-2.195c0-1.21-.984-2.195-2.195-2.195-1.21 0-2.195.984-2.195 2.195 0 1.211.985 2.195 2.195 2.195zM44.025 6.185c.659 0 1.195.536 1.195 1.195s-.536 1.195-1.195 1.195a1.196 1.196 0 0 1 0-2.39zm0 3.39A2.197 2.197 0 0 0 46.22 7.38c0-1.21-.984-2.195-2.195-2.195-1.21 0-2.194.984-2.194 2.195 0 1.211.984 2.195 2.194 2.195zM13.851 14.478c.659 0 1.195.536 1.195 1.195s-.536 1.195-1.195 1.195a1.196 1.196 0 0 1-1.195-1.195c0-.659.536-1.195 1.195-1.195zm0 3.391c1.21 0 2.195-.985 2.195-2.196a2.197 2.197 0 0 0-2.195-2.195c-1.21 0-2.195.984-2.195 2.195 0 1.211.984 2.196 2.195 2.196zM28.938 14.478c.659 0 1.195.536 1.195 1.195s-.536 1.195-1.195 1.195a1.196 1.196 0 0 1-1.195-1.195c0-.659.536-1.195 1.195-1.195zm0 3.391a2.197 2.197 0 0 0 0-4.391c-1.21 0-2.195.984-2.195 2.195 0 1.211.985 2.196 2.195 2.196zM44.025 14.478c.659 0 1.195.536 1.195 1.195s-.536 1.195-1.195 1.195a1.196 1.196 0 0 1 0-2.39zm0 3.391a2.197 2.197 0 0 0 0-4.391 2.196 2.196 0 0 0 0 4.391z" fill="#0071BC"/></g></svg>