<svg width="50" height="50" viewBox="0 0 50 50" xmlns="http://www.w3.org/2000/svg" xmlns:xlink="http://www.w3.org/1999/xlink"><defs><path id="a" d="M50 49.967H0V0h50z"/><path id="c" d="M50 49.967H0V0h50z"/></defs><g fill="none" fill-rule="evenodd"><mask id="b" fill="#fff"><use xlink:href="#a"/></mask><path d="M1.648 48.352h46.704V1.648H1.648v46.704zM49.176 50H.824A.824.824 0 0 1 0 49.176V.824C0 .369.369 0 .824 0h48.352c.455 0 .824.369.824.824v48.352a.824.824 0 0 1-.824.824z" fill="#0071BC" mask="url(#b)"/><path d="M1.99 42.269l5.74 5.741L48.01 7.731 42.269 1.99 1.989 42.269zM7.73 50a.822.822 0 0 1-.583-.242L.242 42.852a.825.825 0 0 1 0-1.166L41.686.242a.824.824 0 0 1 1.166 0l6.907 6.907a.825.825 0 0 1 0 1.165L8.314 49.758A.82.82 0 0 1 7.73 50z" fill="#0071BC" mask="url(#b)"/><path d="M41.941 40.293h6.41V9.721l-6.41 6.41v24.162zm7.235 1.649h-8.059a.824.824 0 0 1-.824-.824V15.79c0-.219.087-.428.242-.583L47.442 8.3a.825.825 0 0 1 .583-.241h1.152c.455 0 .824.369.824.824v32.235a.826.826 0 0 1-.825.825zM25.824 9.707v6.396l6.397-6.396h-6.397zM25 18.917a.826.826 0 0 1-.824-.824v-9.21c0-.456.369-.825.824-.825h8.058c.455 0 .824.37.824.824v1.152a.822.822 0 0 1-.241.583l-8.058 8.059a.823.823 0 0 1-.583.241zm.824 21.376h6.41V25.838l-6.41 6.41v8.045zm7.234 1.649H25a.824.824 0 0 1-.824-.824v-9.21c0-.22.087-.43.242-.584l8.058-8.058a.823.823 0 0 1 1.407.583v17.268c0 .456-.37.825-.825.825z" fill="#0071BC"/><path d="M33.058 10.859a.824.824 0 0 1-.823-.824V8.881c0-.455.368-.824.823-.824h1.152a.824.824 0 0 1 .583 1.408l-1.152 1.152a.823.823 0 0 1-.583.24m.824 29.436h6.41V17.78l-6.41 6.411v16.103zm7.235 1.649h-8.059a.824.824 0 0 1-.824-.824v-17.27c0-.218.087-.427.242-.582l8.059-8.059a.823.823 0 0 1 1.407.583v25.327c0 .456-.37.825-.825.825zM17.78 40.293h6.396v-6.396l-6.397 6.396zM25 41.942h-8.058a.824.824 0 0 1-.824-.824v-1.152a.82.82 0 0 1 .241-.583l8.059-8.059a.825.825 0 0 1 1.406.583v9.21a.824.824 0 0 1-.824.825zM17.766 9.707v14.455l6.41-6.41V9.707h-6.41zm-.825 17.269a.824.824 0 0 1-.823-.824V8.881c0-.455.369-.824.824-.824H25c.455 0 .824.37.824.824v9.21a.822.822 0 0 1-.242.584l-8.058 8.058a.823.823 0 0 1-.583.242zM1.648 9.707v30.572l6.41-6.41V9.707h-6.41zm.328 32.235H.824A.824.824 0 0 1 0 41.117V8.882c0-.455.369-.824.824-.824h8.058c.455 0 .824.37.824.824v25.329a.822.822 0 0 1-.242.582L2.558 41.7a.825.825 0 0 1-.582.242z" fill="#0071BC"/><path d="M9.707 9.707V32.22l6.41-6.411V9.707h-6.41zm-.825 25.328a.826.826 0 0 1-.824-.824V8.882c0-.455.37-.824.824-.824h8.06c.455 0 .824.37.824.824v17.27a.822.822 0 0 1-.242.582l-8.059 8.06a.823.823 0 0 1-.583.241zm8.06 6.907H15.79a.823.823 0 0 1-.583-1.408l1.152-1.152a.822.822 0 0 1 1.407.583v1.152a.824.824 0 0 1-.824.825" fill="#0071BC"/><path d="M1.648 8.058H33.87l6.41-6.41H1.649v6.41zM34.21 9.707H.824A.824.824 0 0 1 0 8.882V.824C0 .369.369 0 .824 0h41.445a.823.823 0 0 1 .583 1.407l-8.06 8.058a.822.822 0 0 1-.582.242zm14.966 0h-1.152a.823.823 0 0 1-.582-1.407l1.151-1.151A.822.822 0 0 1 50 7.73v1.151a.824.824 0 0 1-.824.825" fill="#0071BC"/><g><mask id="d" fill="#fff"><use xlink:href="#c"/></mask><path d="M44.258 1.648l4.094 4.094V1.648h-4.094zm4.919 6.908a.823.823 0 0 1-.584-.242l-6.907-6.907A.823.823 0 0 1 42.27 0h6.907c.455 0 .824.369.824.824V7.73a.824.824 0 0 1-.823.825zM1.648 48.352h4.094l-4.094-4.094v4.094zM7.731 50H.824A.824.824 0 0 1 0 49.176V42.27a.824.824 0 0 1 1.407-.583l6.907 6.907A.823.823 0 0 1 7.73 50z" fill="#0071BC" mask="url(#d)"/><path d="M.823 43.093A.823.823 0 0 1 0 42.269v-1.152c0-.455.369-.824.824-.824h1.152a.823.823 0 0 1 .582 1.407l-1.151 1.152a.824.824 0 0 1-.584.24m8.898 5.26h38.63v-6.41h-32.22l-6.41 6.41zM49.176 50H7.731a.824.824 0 0 1-.583-1.407l8.06-8.059a.822.822 0 0 1 .582-.241h33.386c.455 0 .824.369.824.824v8.058a.824.824 0 0 1-.824.825z" fill="#0071BC" mask="url(#d)"/></g><path d="M7.457 41.278a1.151 1.151 0 1 1 0 2.303 1.151 1.151 0 0 1 0-2.303M42.269 6.58a1.15 1.15 0 1 1 0 2.301 1.15 1.15 0 0 1 0-2.301M4.853 3.127a1.151 1.151 0 1 1 0 2.302 1.151 1.151 0 0 1 0-2.302m40.294 40.869a1.151 1.151 0 1 1 0 2.302 1.151 1.151 0 0 1 0-2.302" fill="#0071BC"/></g></svg>
