<?xml version="1.0" standalone="no"?>
<!DOCTYPE svg PUBLIC "-//W3C//DTD SVG 20010904//EN"
 "http://www.w3.org/TR/2001/REC-SVG-20010904/DTD/svg10.dtd">
<svg version="1.0" xmlns="http://www.w3.org/2000/svg"
 width="1200.000000pt" height="1200.000000pt" viewBox="0 0 1200.000000 1200.000000"
 preserveAspectRatio="xMidYMid meet">

<g transform="translate(0.000000,1200.000000) scale(0.100000,-0.100000)"
fill="#000000" stroke="none">
<path d="M2250 10966 l0 -665 -57 -16 c-321 -89 -570 -335 -664 -655 -21 -69
-23 -100 -26 -380 -4 -343 -4 -345 70 -404 l39 -31 810 -3 c811 -2 811 -2 855
19 27 13 55 37 71 62 l27 41 0 295 c-1 313 -3 336 -56 479 -70 191 -221 370
-403 479 -70 41 -152 74 -273 109 -10 3 -13 145 -13 669 l0 665 -190 0 -190 0
0 -664z m324 -1052 c94 -24 174 -71 252 -149 120 -118 160 -222 170 -437 l7
-138 -561 0 -562 0 0 118 c0 64 7 147 14 183 44 207 214 379 425 428 60 15
189 12 255 -5z"/>
<path d="M9370 10965 c0 -524 -3 -666 -12 -669 -7 -1 -53 -16 -102 -31 -254
-82 -482 -303 -575 -557 -53 -143 -55 -166 -56 -479 l0 -295 27 -41 c16 -25
44 -49 71 -62 44 -21 44 -21 855 -19 l810 3 39 31 c74 59 74 61 70 404 -3 280
-5 311 -26 380 -94 320 -343 566 -663 655 l-58 16 0 665 0 664 -190 0 -190 0
0 -665z m384 -1069 c175 -67 309 -218 351 -398 9 -37 15 -113 15 -185 l0 -123
-562 0 -561 0 6 138 c10 214 51 319 171 437 124 123 236 167 406 161 84 -3
119 -9 174 -30z"/>
<path d="M5886 9930 c-122 -31 -266 -150 -339 -282 -182 -325 -140 -796 92
-1041 38 -40 92 -85 120 -102 l51 -30 0 -392 0 -392 -224 -3 -224 -3 -39 -31
c-71 -57 -66 -24 -160 -968 l-87 -866 -259 0 c-241 0 -258 1 -253 18 32 106
126 511 126 542 0 22 -6 55 -14 73 -17 43 -76 93 -123 106 -52 15 -1554 15
-1606 0 -47 -13 -106 -63 -123 -106 -8 -18 -14 -51 -14 -73 0 -31 94 -436 126
-542 5 -16 -3 -18 -68 -18 -127 0 -192 -33 -229 -115 -17 -37 -19 -74 -19
-455 0 -381 2 -418 19 -455 22 -50 69 -91 119 -105 24 -6 451 -10 1265 -10
l1227 0 0 -1400 0 -1400 -302 0 c-342 0 -359 -4 -414 -76 l-29 -37 0 -642 0
-642 29 -37 c16 -21 47 -47 70 -57 39 -18 94 -19 1396 -19 1302 0 1357 1 1396
19 23 10 54 36 70 57 l29 37 0 642 0 642 -29 37 c-55 72 -72 76 -413 76 l-303
0 0 1400 0 1400 1228 0 c813 0 1240 4 1264 10 50 14 97 55 119 105 17 37 19
74 19 455 0 381 -2 418 -19 455 -37 82 -102 115 -229 115 -65 0 -73 2 -68 18
32 106 126 511 126 542 0 22 -6 55 -14 73 -17 43 -76 93 -123 106 -52 15
-1554 15 -1606 0 -47 -13 -106 -63 -123 -106 -8 -18 -14 -51 -14 -73 0 -31 94
-436 126 -542 5 -17 -12 -18 -253 -18 l-259 0 -87 866 c-94 944 -89 911 -160
968 l-39 31 -224 3 -224 3 0 392 0 392 51 30 c28 17 82 62 120 102 174 184
246 494 184 794 -48 227 -173 407 -341 491 -78 38 -90 41 -181 44 -54 2 -115
-1 -137 -6z m182 -414 c91 -85 136 -290 101 -458 -26 -125 -106 -238 -169
-238 -63 0 -143 113 -169 238 -35 170 9 372 101 458 55 52 81 52 136 0z m322
-2217 c0 -16 139 -1409 144 -1446 l5 -33 -539 0 -539 0 5 33 c5 37 144 1430
144 1446 0 8 118 11 390 11 272 0 390 -3 390 -11z m-2140 -1126 c0 -5 -20 -84
-43 -178 l-43 -170 -414 0 -414 0 -43 170 c-23 94 -43 173 -43 178 0 4 225 7
500 7 275 0 500 -3 500 -7z m4500 0 c0 -5 -20 -84 -43 -178 l-43 -170 -414 0
-414 0 -43 170 c-23 94 -43 173 -43 178 0 4 225 7 500 7 275 0 500 -3 500 -7z
m250 -923 l0 -180 -3000 0 -3000 0 0 180 0 180 3000 0 3000 0 0 -180z m-2630
-2087 c0 -1461 1 -1520 19 -1559 10 -23 36 -54 57 -70 l37 -29 319 -3 318 -3
0 -374 0 -375 -1120 0 -1120 0 0 375 0 374 318 3 319 3 37 29 c21 16 47 47 57
70 18 39 19 98 19 1559 l0 1517 370 0 370 0 0 -1517z"/>
<path d="M472 6169 c-25 -12 -55 -39 -70 -62 l-27 -41 -3 -2760 c-2 -1939 0
-2772 8 -2798 14 -50 56 -97 105 -119 37 -17 74 -19 455 -19 467 0 469 1 526
76 l29 37 3 789 2 788 560 0 560 0 0 -767 c0 -725 1 -770 19 -808 22 -48 54
-79 103 -100 32 -13 100 -15 450 -15 465 0 467 1 524 76 l29 37 3 789 2 788
117 0 c140 0 188 17 231 83 26 39 27 47 26 156 -4 535 -379 1033 -909 1206
-170 55 -197 57 -787 62 l-548 4 0 693 c0 416 -4 724 -10 774 -48 384 -263
728 -585 937 -207 135 -406 200 -645 211 -116 5 -128 4 -168 -17z m512 -467
c218 -112 380 -297 458 -522 51 -147 50 -139 55 -897 l5 -713 -376 0 -376 0 0
1109 0 1110 72 -20 c40 -11 113 -41 162 -67z m2079 -2555 c173 -54 305 -135
423 -259 109 -115 207 -291 229 -410 l7 -38 -1486 0 -1486 0 0 370 0 371 1113
-3 1112 -3 88 -28z m-1943 -1742 l0 -655 -185 0 -185 0 0 655 0 655 185 0 185
0 0 -655z m2250 0 l0 -655 -185 0 -185 0 0 655 0 655 185 0 185 0 0 -655z"/>
<path d="M11275 6184 c-89 -13 -200 -40 -275 -66 -471 -166 -808 -584 -870
-1080 -6 -50 -10 -358 -10 -774 l0 -693 -547 -4 c-591 -5 -618 -7 -788 -62
-530 -173 -905 -670 -909 -1206 -1 -109 0 -117 26 -156 43 -66 91 -83 231 -83
l117 0 2 -788 3 -789 29 -37 c57 -75 59 -76 524 -76 350 0 418 2 450 15 49 21
81 52 103 100 18 38 19 83 19 808 l0 767 560 0 560 0 2 -788 3 -789 29 -37
c57 -75 59 -76 524 -76 350 0 418 2 450 15 49 21 81 52 103 100 18 39 19 138
19 2799 l0 2760 -21 44 c-13 26 -38 54 -62 70 -37 24 -50 27 -141 28 -56 1
-114 0 -131 -2z m-25 -1504 l0 -1110 -376 0 -376 0 5 713 c5 758 4 750 55 897
77 223 239 408 452 520 65 34 180 77 238 89 1 1 2 -498 2 -1109z m0 -1870 l0
-370 -1486 0 -1486 0 7 38 c12 67 64 186 116 266 140 219 351 364 610 421 52
11 264 14 1152 14 l1087 1 0 -370z m-2250 -1405 l0 -655 -185 0 -185 0 0 655
0 655 185 0 185 0 0 -655z m2250 0 l0 -655 -185 0 -185 0 0 655 0 655 185 0
185 0 0 -655z"/>
</g>
</svg>
