<svg version="1" xmlns="http://www.w3.org/2000/svg" width="1600" height="1600" viewBox="0 0 1200 1200"><path d="M225 103.4v66.5l-5.7 1.6c-32.1 8.9-57 33.5-66.4 65.5-2.1 6.9-2.3 10-2.6 38-.4 34.3-.4 34.5 7 40.4l3.9 3.1 81 .3c81.1.2 81.1.2 85.5-1.9 2.7-1.3 5.5-3.7 7.1-6.2l2.7-4.1v-29.5c-.1-31.3-.3-33.6-5.6-47.9-7-19.1-22.1-37-40.3-47.9-7-4.1-15.2-7.4-27.3-10.9-1-.3-1.3-14.5-1.3-66.9V37h-38v66.4zm32.4 105.2c9.4 2.4 17.4 7.1 25.2 14.9 12 11.8 16 22.2 17 43.7l.7 13.8H188v-11.8c0-6.4.7-14.7 1.4-18.3 4.4-20.7 21.4-37.9 42.5-42.8 6-1.5 18.9-1.2 25.5.5zM937 103.5c0 52.4-.3 66.6-1.2 66.9-.7.1-5.3 1.6-10.2 3.1-25.4 8.2-48.2 30.3-57.5 55.7-5.3 14.3-5.5 16.6-5.6 47.9v29.5l2.7 4.1c1.6 2.5 4.4 4.9 7.1 6.2 4.4 2.1 4.4 2.1 85.5 1.9l81-.3 3.9-3.1c7.4-5.9 7.4-6.1 7-40.4-.3-28-.5-31.1-2.6-38-9.4-32-34.3-56.6-66.3-65.5l-5.8-1.6V37h-38v66.5zm38.4 106.9c17.5 6.7 30.9 21.8 35.1 39.8.9 3.7 1.5 11.3 1.5 18.5V281H899.7l.6-13.8c1-21.4 5.1-31.9 17.1-43.7 12.4-12.3 23.6-16.7 40.6-16.1 8.4.3 11.9.9 17.4 3zM588.6 207c-12.2 3.1-26.6 15-33.9 28.2-18.2 32.5-14 79.6 9.2 104.1 3.8 4 9.2 8.5 12 10.2l5.1 3v78.4l-22.4.3-22.4.3-3.9 3.1c-7.1 5.7-6.6 2.4-16 96.8l-8.7 86.6h-25.9c-24.1 0-25.8-.1-25.3-1.8 3.2-10.6 12.6-51.1 12.6-54.2 0-2.2-.6-5.5-1.4-7.3-1.7-4.3-7.6-9.3-12.3-10.6-5.2-1.5-155.4-1.5-160.6 0-4.7 1.3-10.6 6.3-12.3 10.6-.8 1.8-1.4 5.1-1.4 7.3 0 3.1 9.4 43.6 12.6 54.2.5 1.6-.3 1.8-6.8 1.8-12.7 0-19.2 3.3-22.9 11.5-1.7 3.7-1.9 7.4-1.9 45.5s.2 41.8 1.9 45.5c2.2 5 6.9 9.1 11.9 10.5 2.4.6 45.1 1 126.5 1H525v280h-30.2c-34.2 0-35.9.4-41.4 7.6l-2.9 3.7v128.4l2.9 3.7c1.6 2.1 4.7 4.7 7 5.7 3.9 1.8 9.4 1.9 139.6 1.9s135.7-.1 139.6-1.9c2.3-1 5.4-3.6 7-5.7l2.9-3.7v-128.4l-2.9-3.7c-5.5-7.2-7.2-7.6-41.3-7.6H675V732h122.8c81.3 0 124-.4 126.4-1 5-1.4 9.7-5.5 11.9-10.5 1.7-3.7 1.9-7.4 1.9-45.5s-.2-41.8-1.9-45.5c-3.7-8.2-10.2-11.5-22.9-11.5-6.5 0-7.3-.2-6.8-1.8 3.2-10.6 12.6-51.1 12.6-54.2 0-2.2-.6-5.5-1.4-7.3-1.7-4.3-7.6-9.3-12.3-10.6-5.2-1.5-155.4-1.5-160.6 0-4.7 1.3-10.6 6.3-12.3 10.6-.8 1.8-1.4 5.1-1.4 7.3 0 3.1 9.4 43.6 12.6 54.2.5 1.7-1.2 1.8-25.3 1.8h-25.9l-8.7-86.6c-9.4-94.4-8.9-91.1-16-96.8l-3.9-3.1-22.4-.3-22.4-.3v-78.4l5.1-3c2.8-1.7 8.2-6.2 12-10.2 17.4-18.4 24.6-49.4 18.4-79.4-4.8-22.7-17.3-40.7-34.1-49.1-7.8-3.8-9-4.1-18.1-4.4-5.4-.2-11.5.1-13.7.6zm18.2 41.4c9.1 8.5 13.6 29 10.1 45.8-2.6 12.5-10.6 23.8-16.9 23.8-6.3 0-14.3-11.3-16.9-23.8-3.5-17 .9-37.2 10.1-45.8 5.5-5.2 8.1-5.2 13.6 0zM639 470.1c0 1.6 13.9 140.9 14.4 144.6l.5 3.3H546.1l.5-3.3c.5-3.7 14.4-143 14.4-144.6 0-.8 11.8-1.1 39-1.1s39 .3 39 1.1zM425 582.7c0 .5-2 8.4-4.3 17.8l-4.3 17h-82.8l-4.3-17c-2.3-9.4-4.3-17.3-4.3-17.8 0-.4 22.5-.7 50-.7s50 .3 50 .7zm450 0c0 .5-2 8.4-4.3 17.8l-4.3 17h-82.8l-4.3-17c-2.3-9.4-4.3-17.3-4.3-17.8 0-.4 22.5-.7 50-.7s50 .3 50 .7zm25 92.3v18H300v-36h600v18zM637 883.7c0 146.1.1 152 1.9 155.9 1 2.3 3.6 5.4 5.7 7l3.7 2.9 31.9.3 31.8.3v74.9H488v-74.9l31.8-.3 31.9-.3 3.7-2.9c2.1-1.6 4.7-4.7 5.7-7 1.8-3.9 1.9-9.8 1.9-155.9V732h74v151.7z"/><path d="M47.2 583.1c-2.5 1.2-5.5 3.9-7 6.2l-2.7 4.1-.3 276c-.2 193.9 0 277.2.8 279.8 1.4 5 5.6 9.7 10.5 11.9 3.7 1.7 7.4 1.9 45.5 1.9 46.7 0 46.9-.1 52.6-7.6l2.9-3.7.3-78.9.2-78.8h112v76.7c0 72.5.1 77 1.9 80.8 2.2 4.8 5.4 7.9 10.3 10 3.2 1.3 10 1.5 45 1.5 46.5 0 46.7-.1 52.4-7.6l2.9-3.7.3-78.9.2-78.8h11.7c14 0 18.8-1.7 23.1-8.3 2.6-3.9 2.7-4.7 2.6-15.6-.4-53.5-37.9-103.3-90.9-120.6-17-5.5-19.7-5.7-78.7-6.2l-54.8-.4v-69.3c0-41.6-.4-72.4-1-77.4-4.8-38.4-26.3-72.8-58.5-93.7-20.7-13.5-40.6-20-64.5-21.1-11.6-.5-12.8-.4-16.8 1.7zm51.2 46.7c21.8 11.2 38 29.7 45.8 52.2 5.1 14.7 5 13.9 5.5 89.7l.5 71.3H75V621.1l7.2 2c4 1.1 11.3 4.1 16.2 6.7zm207.9 255.5c17.3 5.4 30.5 13.5 42.3 25.9 10.9 11.5 20.7 29.1 22.9 41l.7 3.8H75v-74.1l111.3.3 111.2.3 8.8 2.8zM112 1059.5v65.5H75V994h37v65.5zm225 0v65.5h-37V994h37v65.5zm790.5-477.9c-8.9 1.3-20 4-27.5 6.6-47.1 16.6-80.8 58.4-87 108-.6 5-1 35.8-1 77.4v69.3l-54.7.4c-59.1.5-61.8.7-78.8 6.2-53 17.3-90.5 67-90.9 120.6-.1 10.9 0 11.7 2.6 15.6 4.3 6.6 9.1 8.3 23.1 8.3H825l.2 78.8.3 78.9 2.9 3.7c5.7 7.5 5.9 7.6 52.4 7.6 35 0 41.8-.2 45-1.5 4.9-2.1 8.1-5.2 10.3-10 1.8-3.8 1.9-8.3 1.9-80.8V994h112l.2 78.8.3 78.9 2.9 3.7c5.7 7.5 5.9 7.6 52.4 7.6 35 0 41.8-.2 45-1.5 4.9-2.1 8.1-5.2 10.3-10 1.8-3.9 1.9-13.8 1.9-279.9v-276l-2.1-4.4c-1.3-2.6-3.8-5.4-6.2-7-3.7-2.4-5-2.7-14.1-2.8-5.6-.1-11.4 0-13.1.2zM1125 732v111h-75.2l.5-71.3c.5-75.8.4-75 5.5-89.7 7.7-22.3 23.9-40.8 45.2-52 6.5-3.4 18-7.7 23.8-8.9.1-.1.2 49.8.2 110.9zm0 187v37H827.8l.7-3.8c1.2-6.7 6.4-18.6 11.6-26.6 14-21.9 35.1-36.4 61-42.1 5.2-1.1 26.4-1.4 115.2-1.4l108.7-.1v37zm-225 140.5v65.5h-37V994h37v65.5zm225 0v65.5h-37V994h37v65.5z"/></svg>