<svg width="105" height="85" viewBox="0 0 105 85" xmlns="http://www.w3.org/2000/svg" xmlns:xlink="http://www.w3.org/1999/xlink"><defs><path id="a" d="M0 104h129V0H0z"/></defs><g fill="none" fill-rule="evenodd"><mask id="b" fill="#fff"><use xlink:href="#a"/></mask><path d="M37.833 80.75h29.33V64.817h-29.33V80.75zM21.038 60.556h29.333V44.632H21.038v15.924zm16.795-20.182h29.33V24.448h-29.33v15.926zM21.038 20.19h29.333V4.257H21.038V20.19zm33.585 0h29.333V4.257H54.623V20.19zm48.252 44.627a2.13 2.13 0 1 0 0-4.26H54.623V44.632h31.463a2.13 2.13 0 0 0 0-4.257H71.413V24.447h23.064a2.128 2.128 0 0 0 2.125-2.132 2.126 2.126 0 0 0-2.125-2.126H88.21V4.257h14.665a2.128 2.128 0 1 0 0-4.257H10.519a2.128 2.128 0 0 0 0 4.257h6.27V20.19H2.123A2.124 2.124 0 0 0 0 22.316c0 1.177.95 2.132 2.123 2.132h31.46v15.926H2.122A2.126 2.126 0 0 0 0 42.507c0 1.173.95 2.125 2.123 2.125H16.79v15.924h-6.27a2.13 2.13 0 0 0 0 4.26h23.063v15.933H2.123a2.126 2.126 0 1 0 0 4.251h100.75A2.128 2.128 0 0 0 105 82.873a2.123 2.123 0 0 0-2.126-2.124h-31.46V64.817h31.462z" fill="#205493" mask="url(#b)"/></g></svg>
