<svg width="96" height="33" xmlns="http://www.w3.org/2000/svg"><g fill="#2066A3" fill-rule="evenodd"><path d="M41.683 30.643c-1.425-1.357-5.458-5.812-6.805-13.592h4.758c.219 2.008 1.187 7.063 5.473 11.252l-3.426 2.34zM21.88 15.178a.958.958 0 0 0-.313.054L1.873 22.2V10.497h39.324v4.681H21.88zm8.127 7.646c-1.619.437-3.472-.029-5.507-1.361l1.297-4.412h1.579c-.349 1.289-.275 3.402 1.756 5.223a.935.935 0 0 0 1.323-.074.935.935 0 0 0-.073-1.322c-1.929-1.729-1.174-3.471-1.077-3.671.024-.051.026-.104.043-.156h3.637c.157.972.348 1.902.574 2.779-.382.682-1.543 2.449-3.552 2.994zm-9.742 6.399h-3.436l3.251-11.479 1.96-.693h1.806l-3.581 12.172zm7.659-25.28h13.272v4.682H25.829l2.095-4.682zm13.605 13.108h.604a.936.936 0 0 0 .937-.936V3.006a.936.936 0 0 0-.937-.936H27.316a.933.933 0 0 0-.854.554l-2.685 6H.937A.935.935 0 0 0 0 9.56v13.966a.935.935 0 0 0 1.25.881l16.67-5.897-3.229 11.395a.931.931 0 0 0 .9 1.189h5.374a.935.935 0 0 0 .898-.67l2.086-7.092c1.677 1.014 3.288 1.528 4.814 1.528.59 0 1.169-.075 1.734-.23 1.717-.467 2.948-1.555 3.749-2.52 2.411 6.925 6.562 10.282 6.78 10.454a.937.937 0 0 0 .58.201.94.94 0 0 0 .528-.166l5.006-3.422a.95.95 0 0 0 .406-.727.961.961 0 0 0-.326-.775c-4.358-3.732-5.429-8.629-5.691-10.624z"/><path d="M91.755 12.369h1.872v-1.873h-1.872v1.873zm-8.427-1.872h-5.596l5.596-3.418v3.418zm-30.896 1.872h23.406v-1.873H52.432v1.873zm-1.873-2.808v5.617h-3.745V6.752h3.745v2.809zm44.005-.936h-3.746a.936.936 0 0 0-.937.936v.936H85.2V5.409a.936.936 0 0 0-1.425-.798l-6.679 4.08a.938.938 0 0 0-.323-.064H52.432V5.818a.936.936 0 0 0-.937-.937h-5.618a.936.936 0 0 0-.937.937v10.3c0 .517.419.936.937.936h5.618a.936.936 0 0 0 .937-.936v-1.873h24.343a.936.936 0 0 0 .937-.937v-.939h12.171v.937c0 .518.42.937.937.937h3.746a.936.936 0 0 0 .936-.937V9.561a.938.938 0 0 0-.938-.936zM7.49 5.816h13.108c.415 0 .78-.273.897-.671l.937-3.169a.936.936 0 1 0-1.796-.53l-.738 2.498H7.49a.936.936 0 1 0 0 1.872m-6.553 0h3.745a.936.936 0 1 0 0-1.873H.937a.936.936 0 1 0 0 1.873"/></g></svg>