<svg width="50" height="44" viewBox="0 0 50 44" xmlns="http://www.w3.org/2000/svg" xmlns:xlink="http://www.w3.org/1999/xlink"><defs><path id="a" d="M50 20.509v20.509H.054V0H50z"/></defs><g fill="none" fill-rule="evenodd"><g transform="translate(0 2.679)"><mask id="b" fill="#fff"><use xlink:href="#a"/></mask><path d="M48.214 20.536h-6.25v-2.679H40.18v2.679h-5.36v-9.822h13.393v9.822zm-6.25 3.571H33.93a2.682 2.682 0 0 1-2.679-2.678v-6.25c0-1.163.75-2.145 1.786-2.515v8.765c0 .492.399.892.893.892h10.56a2.684 2.684 0 0 1-2.526 1.786zM46.43 34.14v5.147h-2.68V33.93a.895.895 0 0 0-.094-.4l-3.819-7.636h2.127c.111 0 .215-.025.324-.033l4.14 8.28zM32.816 38.9l-2.118-1.59 3.957-5.54a.893.893 0 0 0 .166-.519v-5.357H37.5v5.98l-4.684 7.025zm3.791-33.542a3.575 3.575 0 0 1 3.572-3.571 3.575 3.575 0 0 1 3.571 3.571 3.575 3.575 0 0 1-3.571 3.572 3.575 3.575 0 0 1-3.572-3.572zm12.5 3.572h-4.946a5.33 5.33 0 0 0 1.375-3.572A5.363 5.363 0 0 0 40.179 0a5.363 5.363 0 0 0-5.358 5.357 5.33 5.33 0 0 0 1.375 3.572H33.93c-.494 0-.893.4-.893.892v.983a4.472 4.472 0 0 0-3.572 4.375v6.25a4.473 4.473 0 0 0 3.572 4.374v5.161l-4.298 6.017a.892.892 0 0 0 .191 1.233l3.572 2.679a.89.89 0 0 0 1.278-.219l5.358-8.036a.904.904 0 0 0 .149-.495v-3.36l2.678 5.356v6.04c0 .492.4.892.893.892h4.464c.494 0 .893-.4.893-.892v-6.25a.895.895 0 0 0-.093-.4l-4.085-8.17c1.162-.614 2.033-1.712 2.302-3.038h2.77c.493 0 .892-.4.892-.892V9.82c0-.492-.4-.892-.893-.892zm-33.928.891V7.143h5.803c.739 0 1.34.6 1.34 1.34a1.34 1.34 0 0 1-1.34 1.338H15.18zm7.142 3.125c0 .739-.6 1.34-1.339 1.34h-6.696v1.785h6.696c.739 0 1.34.601 1.34 1.34 0 .738-.601 1.339-1.34 1.339H7.142V2.679h3.572a2.682 2.682 0 0 1 2.679 2.678v5.357c0 .739-.601 1.34-1.34 1.34a1.341 1.341 0 0 1-1.339-1.34V6.25H8.93v4.464a3.128 3.128 0 0 0 3.125 3.125c1.41 0 2.592-.945 2.979-2.232h5.95a1.34 1.34 0 0 1 1.338 1.34zm8.929-8.928c0 .738-.6 1.34-1.34 1.34H15.18c0-1.01-.35-1.931-.917-2.68h15.649c.738 0 1.339.601 1.339 1.34zM3.571 18.75h1.786V2.679H3.571V18.75zM24.107 8.482a3.11 3.11 0 0 0-.313-1.34h6.117a3.128 3.128 0 0 0 3.125-3.124A3.128 3.128 0 0 0 29.91.893H0v1.786h1.786V18.75H0v1.786h20.982a3.128 3.128 0 0 0 3.125-3.125 3.11 3.11 0 0 0-.944-2.232 3.112 3.112 0 0 0 0-4.465 3.112 3.112 0 0 0 .944-2.232zM25 41.018h1.786v-1.732H25zm-3.571 0h1.785v-1.732H21.43zm-3.572 0h1.786v-1.732h-1.786z" fill="#0071BC" mask="url(#b)"/></g><path fill="#0071BC" d="M33.929 2.679h1.785V0H33.93z"/></g></svg>
