<svg width="50" height="50" viewBox="0 0 50 50" xmlns="http://www.w3.org/2000/svg" xmlns:xlink="http://www.w3.org/1999/xlink"><defs><path id="a" d="M.039 49.35h49.312V.027H.039z"/></defs><g fill="none" fill-rule="evenodd"><mask id="b" fill="#fff"><use xlink:href="#a"/></mask><path d="M36.039 31.753h10.714v-2.402H36.04v2.402zm-12.597-7.792H20L34.545 9.416v3.441L23.442 23.961zm12.597 1.494h5.65a.72.72 0 0 0 .714-.715.72.72 0 0 0-.715-.714h-5.584v-2.403h2.467a.72.72 0 0 0 .715-.714.72.72 0 0 0-.715-.714h-2.467V2.662h10.65v25.26H36.038v-2.467zM34.61 3.896v3.442L17.987 23.96h-3.442L34.61 3.896zm-4.22-1.299h3.441L12.468 23.961H9.026L30.39 2.597zm-5.52 0h3.442L7.013 23.961H3.571l21.3-21.364zm-5.454 0h3.441L2.597 22.792v-3.441L19.416 2.597zm-16.819.325l.325-.325h3.442L2.597 6.364V2.922zm0 5.52l5.78-5.78h3.441l-9.22 9.156V8.442zm0 5.454l11.3-11.299h3.44l-14.74 14.74v-3.44zM48.052 0H1.299C.584 0 0 .584 0 1.299v46.688c0 .714.584 1.299 1.299 1.299H29.61c.715 0 1.3-.585 1.3-1.299s-.585-1.299-1.3-1.299h-5.779v-1.493a.72.72 0 0 0-.714-.714.72.72 0 0 0-.714.714v1.493H2.597V25.39h19.676v11.428c0 .39.324.714.714.714a.72.72 0 0 0 .714-.714V25.39h.974a.72.72 0 0 0 .715-.715.59.59 0 0 0-.195-.454l9.35-9.35v3.57l-.064.065-5.65 5.65a.737.737 0 0 0-.195.52c0 .194.065.389.195.519s.325.195.52.195a.74.74 0 0 0 .52-.195l4.74-4.74v3.311l-.195.26h-1.3c-.389 0-.713.325-.713.65v.064c0 .39.324.715.714.715h1.493v10.909c0 .39.325.714.715.714a.72.72 0 0 0 .714-.714v-3.117h10.714v13.506h-5.65c-.713 0-1.298.585-1.298 1.299s.585 1.299 1.299 1.299h6.948c.714 0 1.299-.585 1.299-1.3V1.3A1.304 1.304 0 0 0 48.05 0z" fill="#0071BC" mask="url(#b)"/></g></svg>
