<svg width="58" height="56" viewBox="0 0 58 56" xmlns="http://www.w3.org/2000/svg" xmlns:xlink="http://www.w3.org/1999/xlink"><defs><path id="a" d="M28.618 1.62h30.35v55.73H0V1.62h28.618l30.35-.002v26.874h-30.35z"/><path id="c" d="M55 42.35H.065V1.123H55z"/></defs><g fill="none" fill-rule="evenodd"><g transform="translate(0 -2.235)"><mask id="b" fill="#fff"><use xlink:href="#a"/></mask><path d="M35.305 19.25L33.727 4.242l-2.484.263 1.375 13.085-1.718-1.058-.883.25-1.392-13.26a1.249 1.249 0 0 1 1.113-1.372l4.972-.525c.685-.073 1.3.428 1.375 1.115l1.297 12.35-1.612 4.445-.465-.285m9.275-1.065l1.015-11.612-2.49-.218L42.07 18.17 40 15h-.163l.885-10.107a1.252 1.252 0 0 1 1.355-1.138l4.98.438c.69.06 1.198.665 1.138 1.352l-1.09 12.458-2.525.182m6.742 10.307L56.2 8.925l-2.422-.605L50 23.465V17.5h-1.087l2.74-10.997a1.25 1.25 0 0 1 1.517-.91l4.85 1.21c.67.165 1.077.842.91 1.515l-4.803 19.26-2.805.915" fill="#275D90" mask="url(#b)"/></g><path d="M25.573 21.69l-1.29-18.44-2.495.175.972 13.91-2.76-4.57-.063.033-.73-10.445a1.25 1.25 0 0 1 1.16-1.335L25.355.67a1.25 1.25 0 0 1 1.335 1.158l1.387 19.862h-2.505" fill="#275D90"/><path d="M22.715 22.765l-3.332-7.85-2.3.975L20 22.765h-2.715l-2.992-7.047c-.27-.635.027-1.37.662-1.64l4.603-1.953a1.25 1.25 0 0 1 1.64.663l4.235 9.977h-2.718M40 27.478v-13.59h-2.5v12.135L35 24.568v-11.93c0-.69.56-1.25 1.25-1.25h5c.69 0 1.25.56 1.25 1.25v16.295L40 27.478m-8.875-4.713l-.527-7.545-2.493.175.515 7.37h-2.508l-.59-8.445a1.25 1.25 0 0 1 1.16-1.332l4.988-.35a1.251 1.251 0 0 1 1.335 1.16l.627 8.967h-2.507" fill="#275D90"/><g transform="translate(2.5 12.765)"><mask id="d" fill="#fff"><use xlink:href="#c"/></mask><path d="M45.682 14.773l.948-10.828-2.49-.217-1.043 11.905-2.584.862 1.245-14.23a1.252 1.252 0 0 1 1.354-1.138l4.98.435a1.25 1.25 0 0 1 1.138 1.355l-.96 10.993-2.588.863M48.75 42.5a1.25 1.25 0 0 0 0-2.5h-30a1.249 1.249 0 1 0 0 2.5h30" fill="#275D90" mask="url(#d)"/><path d="M39.155 17.195a42.584 42.584 0 0 0 9.73-2.27 33.426 33.426 0 0 0 4.083-1.788c.714-.372 1.21-.67 1.477-.85a1.249 1.249 0 1 0-1.39-2.075 14.57 14.57 0 0 1-1.245.713 31.329 31.329 0 0 1-3.782 1.65c-3.105 1.133-6.56 1.925-10.338 2.255-1.277.11-.273 2.565 1.465 2.365" fill="#275D90" mask="url(#d)"/><path d="M47.517 41.045a1.249 1.249 0 1 0 2.465.41l5-30a1.247 1.247 0 0 0-1.027-1.438 1.247 1.247 0 0 0-1.438 1.028l-5 30m-8.762-3.765c-.485 1.46-2.23 2.72-3.75 2.72H7.495c-1.532 0-3.26-1.25-3.75-2.72l-1.31-3.925-2.37.79 1.308 3.925c.83 2.49 3.512 4.43 6.122 4.43h27.51c2.6 0 5.295-1.947 6.122-4.43l1.31-3.925-2.374-.79-1.308 3.925" fill="#275D90" mask="url(#d)"/></g><path d="M23.75 20.265c-11.67 0-21.25 7.185-21.25 16.25H5c0-7.502 8.33-13.75 18.75-13.75s18.75 6.248 18.75 13.75H45c0-9.065-9.58-16.25-21.25-16.25" fill="#275D90"/><path d="M2.5 42.753a2.498 2.498 0 0 0 2.495 2.512h37.513A2.496 2.496 0 0 0 45 42.753v-2.475a2.497 2.497 0 0 0-2.492-2.513H4.995A2.496 2.496 0 0 0 2.5 40.278v2.475zm2.495-7.488h37.513a4.997 4.997 0 0 1 4.992 5.013v2.475c0 2.767-2.227 5.012-4.992 5.012H4.995A4.997 4.997 0 0 1 0 42.753v-2.475a4.997 4.997 0 0 1 4.995-5.013z" fill="#275D90"/><path d="M34.115 43.648c.49.49 1.28.49 1.77 0l6.25-6.25-1.77-1.768-5.36 5.373-5.373-5.373-1.767 1.768 6.25 6.25" fill="#275D90"/></g></svg>
