<svg width="50" height="47" xmlns="http://www.w3.org/2000/svg" xmlns:xlink="http://www.w3.org/1999/xlink"><defs><path id="a" d="M21.922 0H.094v46.781H43.75V0z"/></defs><g fill="none" fill-rule="evenodd"><mask id="b" fill="#fff"><use xlink:href="#a"/></mask><path d="M38.903 31.816l-7.314-2.764a2.941 2.941 0 0 1-1.901-2.752v-1.381c1.562-1.431 3.348-3.663 4.348-6.169 1.117 0 2.09-.76 2.36-1.845l.623-2.49c.115-.46.012-.948-.282-1.323a1.538 1.538 0 0 0-1.214-.592c.058-.636.099-1.267.099-1.875C35.622 3.778 31.844 0 24.997 0 18.15 0 14.372 3.778 14.372 10.625c0 .61.04 1.24.098 1.875a1.542 1.542 0 0 0-1.492 1.914l.622 2.49a2.435 2.435 0 0 0 2.363 1.846c1 2.506 2.787 4.738 4.35 6.169V26.3c0 1.223-.758 2.32-1.905 2.753l-7.314 2.764a7.488 7.488 0 0 0-4.844 7.008v4.925a3.125 3.125 0 0 0 3.123 3.125h31.25c1.727 0 3.127-1.4 3.127-3.125v-4.925a7.49 7.49 0 0 0-4.847-7.01" fill="#0071BC" mask="url(#b)"/><path d="M15.137 23.86l-2.814-1.03v-2.35c-.832-.728-1.473-1.683-1.756-2.819l-.62-2.484a4.625 4.625 0 0 1 .842-4.001c.142-.183.295-.354.46-.51v-.042c0-2.51.45-4.717 1.282-6.597-1.094-.58-2.426-.903-4.026-.903-4.707 0-7.303 2.598-7.303 7.305 0 .164.015.339.021.508-.675 0-1.223.548-1.223 1.223v1.316a2.15 2.15 0 0 0 2.148 2.148c.586 1.602 1.435 3.075 2.538 4.128v3.014l-2.216.827A3.797 3.797 0 0 0 0 27.152v7.223C0 36.1 1.4 37.5 3.123 37.5h.104c.49-3.852 3.073-7.216 6.76-8.608l7.075-2.672a16.224 16.224 0 0 1-1.925-2.36" fill="#0071BC" mask="url(#b)"/><path d="M34.86 23.86l2.813-1.03v-2.35c.833-.728 1.474-1.683 1.757-2.819l.62-2.485a4.625 4.625 0 0 0-.842-4.002 4.614 4.614 0 0 0-.46-.51v-.042c0-2.51-.45-4.717-1.282-6.596 1.093-.579 2.426-.902 4.026-.902 4.708 0 7.305 2.598 7.305 7.305 0 .164-.017.339-.024.508.677 0 1.224.548 1.224 1.223v1.316a2.147 2.147 0 0 1-2.149 2.148c-.585 1.602-1.434 3.075-2.537 4.128v3.014l2.216.827a3.799 3.799 0 0 1 2.47 3.558v7.223c0 1.725-1.4 3.125-3.124 3.125h-.103c-.49-3.852-3.073-7.216-6.76-8.608l-7.076-2.672a16.123 16.123 0 0 0 1.925-2.36" fill="#0071BC"/></g></svg>