<svg version="1" xmlns="http://www.w3.org/2000/svg" width="193.333" height="118.667" viewBox="0 0 145 89"><path d="M83.4 1.5c-1.2 3 .4 4.4 5.2 4.7l4.8.3 2.3 5.9c1.3 3.2 2.2 6 2.1 6.2-.3.2-34.4.6-40.5.4-.7 0-1.3-.9-1.3-1.9 0-1.5.8-2.1 3.3-2.3 2.4-.2 3.3-.8 3.5-2.5.4-2.9-1.9-3.5-13.3-3.1-8.9.3-9 .3-9 2.8 0 2.2.5 2.5 4.2 2.8 3.8.3 4.3.6 5.3 3.8 1.2 3.4 1 3.9-3.1 10s-4.6 6.5-7.4 5.9c-9.1-2.1-11.4-2.3-15.9-1.4C14.7 34.8 8.2 39.7 3.8 48 2 51.6 1.5 54.1 1.5 60.5c0 7 .4 8.7 2.9 13.3 6.3 11.3 20.8 17.1 32.7 13 9-3 17.3-12 18.6-20l.6-3.8h7.6l7.6-.1 14.9-17.5 15-17.5 1.4 3.5 1.4 3.6-5 4.5c-6.3 5.7-9.5 12.8-9.5 21 .1 24.4 29.1 36.6 46.6 19.7 14-13.4 10.4-36.3-6.9-44.8-4.6-2.2-6.9-2.7-12.5-2.7l-6.8.1-4.7-12.1c-2.5-6.7-5.5-14.1-6.5-16.5L97.1 0h-6.6c-4.9 0-6.7.4-7.1 1.5zm11.4 24.3C94.3 27 71.6 53.9 71 53.9c-.5.1-11.1-26.8-11-28.2 0-.4 7.9-.7 17.6-.7 9.7 0 17.4.4 17.2.8zM59.5 42.2c2.6 6.8 4.9 12.9 5.2 13.5.4.9-.8 1.3-4.1 1.3-3.8 0-4.6-.3-4.6-1.9 0-3-2.8-8.8-5.9-12.4l-3-3.3 3.1-4.7c1.7-2.6 3.4-4.7 3.8-4.7.4 0 2.9 5.5 5.5 12.2zM37.3 40c1.6.1.4 2.3-5.4 10.4-3.3 4.8-5.9 9.3-5.7 10.3.3 1.6 1.7 1.8 12.1 2.1 9.2.2 11.7.6 11.7 1.7 0 2.8-2.2 7.1-5.3 10.4-8.2 8.6-20.6 9.4-30.1 2C11.1 74.1 7 65.7 7 61c0-14 12-24.4 25.5-21.8 2.2.4 4.3.7 4.8.8zm88.5.6c8 3.3 13.2 11.1 13.2 19.9 0 19.2-22.9 28.6-36.8 15.2-6.7-6.4-8.4-16.6-4.2-25.2 2.1-4.4 7.5-9.3 8.8-8.1.3.4 2.3 5.1 4.3 10.4 2.9 7.8 4 9.8 5.7 10 3.7.6 3.7-2.5-.2-12.6-2-5.3-3.6-10-3.6-10.5 0-1.3 9-.7 12.8.9z"/></svg>