<svg width="43" height="47" viewBox="0 0 43 47" xmlns="http://www.w3.org/2000/svg" xmlns:xlink="http://www.w3.org/1999/xlink"><title>Index_Mobile_movingDay_anchor</title><defs><path id="a" d="M.037 46.592h42.808V.435H.037z"/></defs><g fill="none" fill-rule="evenodd"><mask id="b" fill="#fff"><use xlink:href="#a"/></mask><path d="M41.498 20.438c0 .062-.06.124-.122.124h-1.591c-.062 0-.123-.062-.123-.124v-4.473c0-.062.061-.124.123-.124h1.591c.061 0 .122.062.122.124v4.473zm-4.712 14.785V4.473c0-.746-.613-1.367-1.347-1.367H7.222c-.734 0-1.346.621-1.346 1.367v30.75H4.285V1.926c0-.124.122-.249.244-.249h33.664c.123 0 .245.125.245.249v33.297h-1.652zM7.1 30.005h9.916c.06 0 .122 0 .244-.062h18.363v5.28H7.1v-5.218zM35.561 4.597v.683H7.1v-.683c0-.124.122-.248.245-.248h27.972c.183 0 .244.124.244.248zM7.1 28.7v-9.38h2.754v3.852c0 .372.245.62.612.62h2.449c.367 0 .612-.248.612-.62V19.32h2.815v9.38H7.1zm0-21.059h28.461V6.585H7.1v1.056zm0 2.236h28.461V8.821H7.1v1.056zm3.979 12.673h1.224v-3.23h-1.224v3.23zm-3.795-4.472h6.365v-4.846H7.284v4.846zM7.1 12.052h28.461v-.87H7.1v.87zm14.261 7.951a.684.684 0 0 1 0 1.367.684.684 0 0 1 0-1.367zm4.713 1.926l2.265-4.473h1.897l2.265 4.473h-6.427zm2.51 6.212c.183-.124.306-.31.306-.497V23.11h.795v4.535c0 .187.123.435.307.497l.856.56h-3.121l.857-.56zm4.59.56l-2.264-1.43V23.11h2.57c.184 0 .429-.124.49-.31s.122-.435 0-.621l-2.877-5.716a.64.64 0 0 0-.55-.31H27.91a.64.64 0 0 0-.55.31l-2.877 5.716c-.123.186-.061.435 0 .62.122.187.306.311.49.311h2.57v4.163L25.34 28.7h-7.712v-10c0-.373-.245-.621-.612-.621h-2.081v-4.846h5.814v5.591c-.734.249-1.224.932-1.224 1.802 0 1.056.857 1.863 1.836 1.863 1.04 0 1.837-.87 1.837-1.863 0-.808-.551-1.553-1.225-1.802v-5.591h13.65V28.7h-2.449zm6.121 10.188H26.258v-1.18c0-.374-.245-.622-.612-.622h-8.63c-.368 0-.612.248-.612.621v1.18H3.366v-2.36h35.868v2.36h.061zm-1.897 5.59a.867.867 0 0 1-.735.87l.184-.248c.183-.249.183-.56 0-.746l-.674-.87.674-.87c.183-.248.183-.558 0-.745l-.674-.87.613-.807h.55v4.287h.062zm-2.449-3.168l.674.87-.674.87c-.183.248-.183.559 0 .745l.674.87-.49.621h-.673l.183-.248c.184-.249.184-.56 0-.746l-.673-.87.673-.87c.184-.248.184-.558 0-.745l-.673-.87.612-.807h.673l-.306.435c-.183.186-.183.497 0 .745zm-2.754 3.169v-4.35h.857l-.306.435c-.184.248-.184.559 0 .745l.673.87-.673.87c-.184.248-.184.559 0 .745l.673.87-.49.621c-.428 0-.734-.373-.734-.807zm-14.567-3.417h7.467v-2.734h-7.467v2.734zm-6.55 3.417c0 .434-.367.807-.795.87l.183-.25c.184-.248.184-.558 0-.745l-.673-.87.673-.87c.184-.248.184-.558 0-.745L9.793 41l.612-.807h.674v4.287zM8.57 41.31l.673.87-.673.87c-.184.248-.184.559 0 .745l.673.87-.49.621H8.08l.184-.248c.184-.249.184-.56 0-.746l-.612-.87.673-.87c.184-.248.184-.558 0-.745l-.673-.87.612-.807h.612l-.306.435c-.184.186-.184.497 0 .745zm-2.633 3.17v-4.35h.796l-.306.435c-.184.248-.184.559 0 .745l.673.87-.673.87c-.184.248-.184.559 0 .745l.673.87-.49.621c-.428-.062-.673-.435-.673-.807zm-3-23.918h-1.59c-.062 0-.123-.062-.123-.124v-4.473c0-.062.061-.124.123-.124h1.59c.062 0 .062 0 .123.062v4.535c0 .062-.06.124-.122.124zm38.44-5.963h-1.715V1.926c0-.808-.673-1.491-1.469-1.491H4.53c-.795 0-1.469.683-1.469 1.49V14.6H1.347C.612 14.599 0 15.22 0 15.965v4.473c0 .746.612 1.367 1.347 1.367H3.06v13.48h-.244c-.368 0-.613.249-.613.622v3.603c0 .372.245.621.613.621h1.897v4.349c0 1.18.918 2.112 2.081 2.112h3.489c1.163 0 2.08-.932 2.08-2.112v-4.35h4.102v1.553c0 .373.245.621.612.621h8.691c.367 0 .612-.248.612-.621V40.13h4.713v4.349c0 1.18.918 2.112 2.081 2.112h3.49c1.162 0 2.08-.932 2.08-2.112V40.13h1.286c.367 0 .612-.249.612-.621v-3.603c0-.373-.245-.622-.612-.622h-.245v-13.48h1.713c.735 0 1.347-.621 1.347-1.367v-4.473c-.122-.745-.734-1.366-1.469-1.366z" fill="#0071BC" mask="url(#b)"/></g></svg>