<svg width="83" height="91" viewBox="0 0 83 91" xmlns="http://www.w3.org/2000/svg" xmlns:xlink="http://www.w3.org/1999/xlink"><defs><path id="a" d="M.067 83.27h77.652V.777H.067z"/></defs><g transform="translate(3 3)" fill="none" fill-rule="evenodd"><mask id="b" fill="#fff"><use xlink:href="#a"/></mask><path d="M75.276 36.528a.239.239 0 0 1-.222.222h-2.886a.239.239 0 0 1-.222-.222v-7.994c0-.111.11-.222.222-.222h2.886c.111 0 .222.11.222.222v7.994zm-8.549 26.424V7.994a2.464 2.464 0 0 0-2.442-2.443H13.1a2.464 2.464 0 0 0-2.442 2.443v54.958H7.772V3.44c0-.221.222-.443.444-.443h61.065c.222 0 .444.222.444.444v59.51h-2.998zM12.88 53.626h17.987c.11 0 .222 0 .444-.111h33.308v9.437h-51.74v-9.326zm51.628-45.41v1.221H12.879V8.216c0-.222.222-.444.444-.444h50.74c.333 0 .444.222.444.444zM12.879 51.294V34.53h4.996v6.884c0 .666.444 1.11 1.11 1.11h4.442c.666 0 1.11-.444 1.11-1.11V34.53h5.107v16.765H12.88zm0-37.638h51.628V11.77H12.879v1.887zm0 3.997h51.628v-1.887H12.879v1.887zm7.217 22.65h2.22v-5.774h-2.22v5.774zm-6.884-7.994H24.76v-8.66H13.212v8.66zm-.333-10.77h51.628v-1.554H12.879v1.554zm25.87 14.212c.666 0 1.22.555 1.22 1.221s-.554 1.221-1.22 1.221a1.232 1.232 0 0 1-1.222-1.221c0-.666.555-1.221 1.221-1.221zm8.549 3.442l4.108-7.994h3.441l4.108 7.994H47.298zm4.552 11.102c.333-.222.555-.555.555-.888v-8.105h1.443v8.105c0 .333.222.777.555.888l1.555 1h-5.663l1.555-1zm8.327 1l-4.108-2.554v-7.439h4.663c.333 0 .777-.222.888-.555.111-.333.222-.777 0-1.11l-5.218-10.215c-.222-.333-.555-.555-1-.555h-4.774c-.444 0-.777.222-.999.555l-5.218 10.215c-.222.333-.111.777 0 1.11.222.333.555.555.888.555h4.663v7.439l-3.997 2.553h-13.99V33.42c0-.666-.443-1.11-1.11-1.11h-3.774v-8.66h10.547v9.992c-1.332.444-2.22 1.666-2.22 3.22 0 1.887 1.554 3.33 3.33 3.33 1.888 0 3.331-1.554 3.331-3.33 0-1.443-.999-2.776-2.22-3.22V23.65h24.759v27.645h-4.441zm11.102 18.208H47.631v-2.11c0-.666-.445-1.11-1.11-1.11H30.865c-.667 0-1.11.444-1.11 1.11v2.11H6.105v-4.22h65.062v4.22h.111zm-3.441 9.992c0 .778-.556 1.444-1.333 1.555l.333-.444c.333-.444.333-1 0-1.333l-1.221-1.554 1.221-1.554c.333-.445.333-1 0-1.333l-1.221-1.554 1.11-1.444h1v7.661h.11zm-4.442-5.662l1.222 1.554-1.222 1.555c-.333.444-.333.999 0 1.332l1.222 1.554-.888 1.11h-1.222l.333-.443c.333-.445.333-1 0-1.333l-1.221-1.554 1.221-1.554c.333-.445.333-1 0-1.333l-1.221-1.554 1.11-1.444h1.222l-.556.778c-.333.333-.333.888 0 1.332zM58.4 79.495v-7.772h1.555l-.556.778c-.333.444-.333.999 0 1.332l1.222 1.554-1.222 1.555c-.333.444-.333.999 0 1.332l1.222 1.554-.888 1.11c-.778 0-1.333-.665-1.333-1.443zM31.976 73.39H45.52v-4.885H31.976v4.885zm-11.88 6.106c0 .778-.666 1.444-1.443 1.555l.333-.444c.333-.444.333-1 0-1.333l-1.222-1.554 1.222-1.554c.333-.445.333-1 0-1.333l-1.222-1.554 1.11-1.444h1.222v7.661zm-4.552-5.662l1.221 1.554-1.221 1.555c-.333.444-.333.999 0 1.332l1.221 1.554-.888 1.11h-1.221l.333-.443c.333-.445.333-1 0-1.333l-1.11-1.554 1.22-1.554c.334-.445.334-1 0-1.333l-1.22-1.554 1.11-1.444h1.11l-.555.778c-.333.333-.333.888 0 1.332zm-4.774 5.662v-7.772h1.443l-.555.778c-.333.444-.333.999 0 1.332l1.221 1.554-1.221 1.555c-.333.444-.333.999 0 1.332l1.221 1.554-.888 1.11c-.777-.11-1.221-.776-1.221-1.443zM5.33 36.75H2.442a.239.239 0 0 1-.222-.222v-7.994c0-.111.11-.222.222-.222h2.886c.111 0 .111 0 .222.11v8.106a.239.239 0 0 1-.222.222zm69.723-10.66h-3.108V3.441c0-1.443-1.222-2.664-2.665-2.664H8.216c-1.443 0-2.665 1.221-2.665 2.665v22.65H2.443A2.464 2.464 0 0 0 0 28.533v7.994a2.464 2.464 0 0 0 2.443 2.442H5.55v24.093h-.444c-.666 0-1.11.444-1.11 1.11v6.44c0 .666.444 1.11 1.11 1.11H8.55v7.772a3.744 3.744 0 0 0 3.775 3.775h6.329a3.744 3.744 0 0 0 3.774-3.775v-7.772h7.44V74.5c0 .666.443 1.11 1.11 1.11h15.765c.667 0 1.11-.444 1.11-1.11v-2.776h8.55v7.772a3.744 3.744 0 0 0 3.775 3.775h6.328a3.744 3.744 0 0 0 3.775-3.775v-7.772h2.332c.666 0 1.11-.444 1.11-1.11v-6.44c0-.666-.444-1.11-1.11-1.11h-.444V38.97h3.108a2.464 2.464 0 0 0 2.443-2.442v-7.994c-.222-1.332-1.332-2.443-2.665-2.443z" fill="#205493" mask="url(#b)"/></g></svg>
