<svg width="39" height="50" viewBox="0 0 39 50" xmlns="http://www.w3.org/2000/svg" xmlns:xlink="http://www.w3.org/1999/xlink"><defs><path id="a" d="M0 49.47V.454h38.94V49.47z"/></defs><g fill="none" fill-rule="evenodd"><path stroke="#000" d="M-69.5-1331.735h730v4639h-730z"/><path d="M27.51 3.9a1.428 1.428 0 1 1 0 2.855 1.428 1.428 0 0 1 0-2.856" fill="#000"/><g transform="translate(0 -.235)"><mask id="b" fill="#fff"><use xlink:href="#a"/></mask><path d="M32.923 4.134a1.428 1.428 0 1 1 0 2.856 1.428 1.428 0 0 1 0-2.856" fill="#000" mask="url(#b)"/><path d="M13.735 9.207H36.95V2.444H13.735v6.763zM1.99 47.513h34.96V10.451H1.99v37.062zm0-38.306h10.5V2.444H1.99v6.763zM0 49.504h38.94V.453H0v49.05z" fill="#000" mask="url(#b)"/></g><path d="M9.445 5.19H4.742a.622.622 0 1 1 0-1.245h4.703a.622.622 0 1 1 0 1.245M22.91 28.97l-3.456 3.456a.621.621 0 1 1-.878-.881l3.452-3.452a.622.622 0 0 1 .881.878zm-7.184 2.547a.622.622 0 0 1-.44-1.062L20.94 24.8a.622.622 0 0 1 .881.878l-5.655 5.655a.623.623 0 0 1-.44.184zM19.472 19.8a8.734 8.734 0 0 0-8.735 8.734 8.734 8.734 0 0 0 8.735 8.735 8.734 8.734 0 0 0 8.734-8.735 8.734 8.734 0 0 0-8.734-8.734z" fill="#000"/><path d="M19.472 40.48c-6.589 0-11.95-5.359-11.95-11.947 0-6.589 5.361-11.95 11.95-11.95 6.589 0 11.947 5.361 11.947 11.95 0 6.588-5.358 11.947-11.947 11.947zm12.696-15.53c-1.563-5.538-6.665-9.61-12.696-9.61-7.276 0-13.195 5.918-13.195 13.194 0 7.273 5.92 13.192 13.195 13.192 6.03 0 11.13-4.07 12.696-9.608a3.91 3.91 0 0 0 0-7.168z" fill="#000"/></g></svg>
