<svg width="50" height="50" xmlns="http://www.w3.org/2000/svg" xmlns:xlink="http://www.w3.org/1999/xlink"><defs><path id="a" d="M.03 49.941h49.911V.02H.03z"/></defs><g fill="none" fill-rule="evenodd"><mask id="b" fill="#fff"><use xlink:href="#a"/></mask><path d="M46.918 29.846a2.93 2.93 0 0 1-2.926 2.926H36.18v-1.95h7.812a.976.976 0 0 0 .975-.976V9.059a.976.976 0 0 0-.975-.975H34.41l-1.951-1.95h11.533a2.93 2.93 0 0 1 2.926 2.925v20.787zM34.874 23.32l-1.373-1.374v5.337c0 .61-.495 1.105-1.105 1.105h-4.368V20.23a.817.817 0 0 0-.817-.816h-4.48a.817.817 0 0 0-.817.816v8.158h-4.368c-.61 0-1.105-.494-1.105-1.105v-5.337l-1.373 1.374a1.657 1.657 0 1 1-2.344-2.344l3.439-3.439v-6.139c0-.211.171-.382.383-.382h3.187c.211 0 .382.17.382.382v2.187L23.8 9.9a1.658 1.658 0 0 1 2.343 0l11.075 11.075a1.657 1.657 0 0 1 0 2.344c-.565.564-1.61.734-2.344 0zm-11.486 1.452a.791.791 0 1 1 0-1.583.791.791 0 0 1 0 1.583zm-9.627 8H5.95a2.93 2.93 0 0 1-2.926-2.926V9.059A2.93 2.93 0 0 1 5.95 6.133h11.532l-1.95 1.951H5.95a.976.976 0 0 0-.975.975v20.787c0 .538.437.975.975.975h7.811v1.951zM29.11 2.903V0h-8.074v2.903H0v33.1h21.035V49.94h8.074V36.003h20.832v-33.1H29.11z" fill="#0071BC" mask="url(#b)"/></g></svg>