<svg width="48" height="60" viewBox="0 0 48 60" xmlns="http://www.w3.org/2000/svg" xmlns:xlink="http://www.w3.org/1999/xlink"><title>entitlement_appliance_button</title><defs><path id="a" d="M0 59.96V.549h47.197V59.96z"/></defs><g fill="none" fill-rule="evenodd"><path d="M33.343 4.776a1.73 1.73 0 1 1 0 3.46 1.73 1.73 0 0 1 0-3.46" fill="#2066A3"/><g transform="translate(0 -.235)"><mask id="b" fill="#fff"><use xlink:href="#a"/></mask><path d="M39.903 5.01a1.73 1.73 0 1 1 0 3.462 1.73 1.73 0 0 1 0-3.461" fill="#2066A3" mask="url(#b)"/><path d="M16.647 11.159h28.138V2.962H16.647v8.197zM2.413 57.587h42.371v-44.92H2.414v44.92zm0-46.428h12.725V2.962H2.413v8.197zM0 60h47.197V.549H0V60z" fill="#2066A3" mask="url(#b)"/></g><path d="M11.448 6.34h-5.7a.754.754 0 1 1 0-1.508h5.7a.754.754 0 1 1 0 1.508m16.319 28.823l-4.188 4.188a.753.753 0 1 1-1.065-1.068l4.185-4.184a.754.754 0 0 1 1.068 1.064zM19.06 38.25a.755.755 0 0 1-.534-1.288l6.854-6.854a.754.754 0 0 1 1.068 1.064l-6.854 6.854a.755.755 0 0 1-.534.224zm4.54-14.203c-5.847 0-10.586 4.74-10.586 10.586 0 5.847 4.74 10.586 10.586 10.586 5.847 0 10.586-4.74 10.586-10.586 0-5.847-4.739-10.586-10.586-10.586z" fill="#2066A3"/><path d="M23.6 49.113c-7.985 0-14.483-6.495-14.483-14.48 0-7.986 6.498-14.484 14.483-14.484 7.986 0 14.48 6.498 14.48 14.483 0 7.986-6.494 14.481-14.48 14.481zm15.389-18.825C37.094 23.576 30.91 18.64 23.6 18.64c-8.818 0-15.992 7.174-15.992 15.992 0 8.816 7.174 15.989 15.992 15.989 7.31 0 13.491-4.933 15.389-11.645a4.74 4.74 0 0 0 0-8.688z" fill="#2066A3"/></g></svg>