<svg width="50" height="38" viewBox="0 0 50 38" xmlns="http://www.w3.org/2000/svg"><title>after_move_inspect</title><g fill="#0071BC" fill-rule="evenodd"><path d="M45.833 16.944h-5.786l-4.28-12.833A5.6 5.6 0 0 0 30.45.278H20.012a5.602 5.602 0 0 0-5.316 3.833l-4.28 12.833h-6.25a4.167 4.167 0 0 0 0 8.334h41.667a4.167 4.167 0 0 0 0-8.334M41.667 29.444h-2.094a7.106 7.106 0 0 0-5.026-2.083h-5.38a2.083 2.083 0 0 0-2.084 2.083h-4.166c0-1.15-.932-2.083-2.084-2.083h-5.387c-1.886 0-3.695.75-5.03 2.083H8.334a1.041 1.041 0 1 0 0 2.084h3.096l1.425 2.931a5.204 5.204 0 0 0 4.854 3.318 5.188 5.188 0 0 0 3.556-1.402 5.187 5.187 0 0 0 1.653-3.806v-1.041h4.166v1.041c0 1.504.635 2.857 1.653 3.806a5.188 5.188 0 0 0 3.556 1.403 5.205 5.205 0 0 0 4.854-3.317l1.428-2.934h3.093a1.041 1.041 0 1 0 0-2.083"/></g></svg>