<svg width="50" height="48" viewBox="0 0 50 48" xmlns="http://www.w3.org/2000/svg" xmlns:xlink="http://www.w3.org/1999/xlink"><title>move_day_signInventory</title><defs><path id="a" d="M.04 47.96V.61h49.883v47.35z"/></defs><g fill="none" fill-rule="evenodd"><path fill="#0071BC" d="M10.333 13.533h13.534v-1.6H10.333zM5.267 13.533h3.4v-1.6h-3.4zM10.333 17.533h13.534v-1.6H10.333zM5.267 17.533h3.4v-1.6h-3.4zM31.133 32.667l-2.4-1.4c-1.2-.667-1.6-2.2-.866-3.334l8.266-12.466c.2-.4.067-.8.534-.534 6.333 3.667 5.2 2.734 4.666 3.6l-6.8 13.334c-.666 1.066-2.2 1.466-3.4.8"/><g><mask id="b" fill="#fff"><use xlink:href="#a"/></mask><path d="M26.867 33.067c.2-.6.933-1.2 1.4-.867C30.8 33.6 31 33.6 31 34.267c0 .333-.133.666-.4.933l-4.667 5.267c-.333.4-.8.533-1.066.333-.334-.2-.4-.667-.267-1.133l2.267-6.6M42.333 12.933c-.333.534-1 .734-1.533.4-.533-.333-.733-1-.4-1.533l4.867-8.333c.333-.534 1-.734 1.533-.4.533.333.733 1 .4 1.533l-4.867 8.333zm7.134-6.8c.933-1.666.4-3.733-1.267-4.666l-.733-.4a3.485 3.485 0 0 0-4.734 1.266l-5.4 10.867c-.333.533-.133 1.267.4 1.533L41 16.667c.533.333 1.267.133 1.533-.4l6.934-10.134z" fill="#0071BC" mask="url(#b)"/><path d="M33.2 36.533c-.533 0-.933.4-.933.934v7.6c0 .2-.2.4-.4.4H2.933c-.266 0-.4-.2-.4-.4v-36.2c0-.267.2-.4.4-.4h28.934c.266 0 .4.2.4.4v2.6c0 .533.4.933.933.933h.6c.533 0 .933-.4.933-.933v-2.6c0-1.6-1.333-2.934-2.933-2.934H2.933C1.333 5.933 0 7.267 0 8.867v36.2C0 46.667 1.333 48 2.933 48h28.934c1.6 0 2.933-1.333 2.933-2.933v-7.6c0-.534-.4-.934-.933-.934H33.2" fill="#0071BC" mask="url(#b)"/></g><path d="M14.6 37.8c-.667.467-1.2 1.133-1.467 2.133 0 .134.267.267.467.267.2-.333.6-1.267 1-2.4zm-9.667 4.467c7.134-10.734 9.334-11.534 10.4-11.134 1.534.467.934 3.667.534 5.2.666-.2 1.333-.333 2-.466 1.333-.267-.2 2.4-.467 3.066.8-.2 1.733-1.266 2.533-2 .267-.266.734-.066.734.2.133 1.067.4 2.534 1.266 2.267.667-.2 1 .8-.266.8-1.134 0-1.534-1.133-1.734-2.133-.866.8-1.733 1.666-2.8 1.666-1.4 0-.066-1.933.267-3-.6.134-1.2.267-1.8.467-.467 1.6-1.2 3.733-2 3.733-.533 0-1.4-.333-1.4-1 0-.666.8-2.333 2.667-3.2 2.8-10.066-3.4-2.733-9.2 5.934-.2.4-1 0-.734-.4z" fill="#0071BC"/></g></svg>