<svg width="50" height="50" viewBox="0 0 50 50" xmlns="http://www.w3.org/2000/svg" xmlns:xlink="http://www.w3.org/1999/xlink"><defs><path id="a" d="M50 24.975V49.95H0V0h50v24.975z"/></defs><g fill="none" fill-rule="evenodd"><mask id="b" fill="#fff"><use xlink:href="#a"/></mask><path d="M48.333 48.333H20v-35h5V15h-2.5a.833.833 0 0 0-.833.833v30c0 .461.373.834.833.834h23.333c.46 0 .834-.373.834-.834v-30a.833.833 0 0 0-.834-.833h-2.5v-1.667h5v35zM9.167 30h9.166V20H9.167v10zm-7.5-18.667l2.059-1.096a.837.837 0 0 0 .44-.737V3.333H7.5V5.5a.832.832 0 0 0 1.354.65l5.33-4.263 11.666 8.75a2.495 2.495 0 0 0-.696 1.03h-5.987a.833.833 0 0 0-.834.834v5.833h-10a.833.833 0 0 0-.833.834V30H1.667V11.333zm27.5.334c.46 0 .833-.373.833-.834a4.171 4.171 0 0 1 4.167-4.166 4.171 4.171 0 0 1 4.166 4.166c0 .461.374.834.834.834h1.666c.46 0 .834.373.834.833v3.333c0 .46-.375.834-.834.834H27.5a.834.834 0 0 1-.833-.834V12.5c0-.46.374-.833.833-.833h1.667zm-4.025 5c.01.028.026.053.036.08.019.046.04.09.06.136.044.093.092.182.146.269.026.04.05.081.078.12.07.1.147.192.23.28.018.018.032.039.05.056.104.103.216.194.336.278.034.023.07.041.105.063a2.493 2.493 0 0 0 .42.211c.098.038.199.068.301.093.046.011.09.024.137.034.149.028.302.046.459.046h13.333c.158 0 .31-.018.46-.046.046-.009.09-.022.136-.034a2.572 2.572 0 0 0 .44-.15c.098-.046.191-.097.282-.154.035-.022.07-.04.104-.063.12-.084.232-.175.336-.278.018-.017.032-.038.05-.056.083-.088.16-.18.23-.28.028-.039.052-.08.078-.12a2.53 2.53 0 0 0 .146-.269c.02-.045.042-.089.06-.136.01-.027.026-.052.036-.08H45V45H23.333V16.667h1.81zm24.025-5H43.18A2.497 2.497 0 0 0 40.833 10h-.892a5.842 5.842 0 0 0-5.774-5 5.842 5.842 0 0 0-5.775 5h-.614L14.666.167a.834.834 0 0 0-1.021.015l-4.48 3.585V2.5a.833.833 0 0 0-.833-.833h-5A.833.833 0 0 0 2.5 2.5V9L.44 10.099a.836.836 0 0 0-.44.735v20c0 .461.373.834.833.834h17.5v17.5c0 .46.374.833.834.833h30c.46 0 .833-.373.833-.833V12.5a.833.833 0 0 0-.833-.833z" fill="#0071BC" mask="url(#b)"/><path d="M34.167 10a.834.834 0 1 1-.002 1.668.834.834 0 0 1 .002-1.668zm0 3.333c1.378 0 2.5-1.121 2.5-2.5 0-1.378-1.122-2.5-2.5-2.5a2.503 2.503 0 0 0-2.5 2.5c0 1.379 1.121 2.5 2.5 2.5zm-8.334 17.5h8.334c.46 0 .833-.372.833-.833v-4.167h-1.667v3.334h-6.666V22.5h4.166v-1.667h-5a.833.833 0 0 0-.833.834V30c0 .46.373.833.833.833" fill="#0071BC"/><path d="M28.922 24.41l-1.178 1.18 1.667 1.666A.833.833 0 0 0 30 27.5h.032a.833.833 0 0 0 .601-.292l5-5.833-1.266-1.084-4.414 5.15-1.03-1.03m-3.09 18.922h8.334c.46 0 .833-.372.833-.833v-4.167h-1.667v3.334h-6.666V35h4.166v-1.667h-5a.833.833 0 0 0-.833.834V42.5c0 .46.373.833.833.833" fill="#0071BC"/><path d="M29.953 37.94l-1.03-1.03-1.179 1.18 1.667 1.666A.833.833 0 0 0 30 40h.032a.833.833 0 0 0 .601-.292l5-5.833-1.266-1.084-4.414 5.15M37.5 24.167h5.833V22.5H37.5zm0 5h4.167V27.5H37.5zm0 7.5h5.833V35H37.5zm0 5h4.167V40H37.5z" fill="#0071BC"/></g></svg>
