<svg version="1" xmlns="http://www.w3.org/2000/svg" width="1600" height="1600" viewBox="0 0 1200 1200"><path d="M48.5 38.9c-4.8 2.2-7.9 5.4-10 10.3-1.3 3.3-1.5 17.3-1.5 120 0 111.4.1 116.5 1.9 120.4 1 2.3 3.6 5.4 5.7 7l3.7 2.9h728.4l3.7-2.9c2.1-1.6 4.7-4.7 5.7-7 1.8-3.9 1.9-9 1.9-120.6 0-111.2-.1-116.7-1.9-120.5-2.2-4.8-5.4-7.9-10.3-10-3.4-1.3-41-1.5-363.5-1.5-347.7 0-359.9.1-363.8 1.9zM393 168.5V262H75V75h318v93.5zm357 0V262H432V75h318v93.5z"/><path d="M318 169v19h39v-38h-39v19zm150 0v19h39v-38h-39v19zM910.4 38.9c-2.3 1-5.4 3.6-7 5.7l-2.9 3.7-.3 106.7-.2 106.7-3.8.6c-2 .4-5.1 1.7-6.9 2.9-4.3 3.1-99.1 117.1-100.9 121.4-3.9 9.3.5 20.1 10.1 24.5 3.8 1.8 10.7 1.9 176.5 1.9 165.6 0 172.7-.1 176.5-1.9 9.5-4.4 14-15.3 10.1-24.5-1.8-4.3-96.6-118.3-100.9-121.4-1.8-1.2-4.9-2.5-6.9-2.9l-3.8-.6-.2-106.7-.3-106.7-2.9-3.7c-5.9-7.8-3.5-7.6-71.6-7.6-57 0-60.7.2-64.6 1.9zM1012 168.5V262h-74V75h74v93.5zm59 168.2c16.8 20.1 30.7 37 30.8 37.5.2.4-56.9.8-126.8.8s-127-.4-126.8-.8c.2-.5 14-17.4 30.8-37.5l30.5-36.6h131l30.5 36.6zM49.5 338.2c-4.4 1.5-10.1 7.4-11.4 11.7-.8 2.8-1.1 106.9-1.1 400.5 0 355.8.2 397 1.5 400.4 2.1 4.9 5.2 8.1 10 10.3 3.9 1.8 21.3 1.9 551.5 1.9s547.6-.1 551.5-1.9c4.8-2.2 7.9-5.4 10-10.3 1.3-3.3 1.5-26.4 1.5-213.5 0-201.8-.1-210-1.9-213.8-2.2-4.8-5.4-7.9-10.3-10-3.3-1.3-38.1-1.5-333.3-1.5H488V532.2c0-172.6-.1-179.9-1.9-183.7-2.2-4.8-5.4-7.9-10.3-10-3.3-1.3-26.3-1.5-213.5-1.4-142.8 0-210.8.4-212.8 1.1zM450 506v131H75V375h375v131zm0 394v225H75V675h375v225zm300-66v84H488V750h262v84zm375 103.5V1125H788V750h337v187.5zM750 1041v84H488V957h262v84z"/><path d="M375 506v38h38v-76h-38v38zm0 347v47h38v-94h-38v47zm206-47v19h76v-38h-76v19zm244 19v19h38v-38h-38v19zm112 0v19h38v-38h-38v19zm113 0v19h38v-38h-38v19zm-215.5 76.9c-3.8 2.3-8.3 7.5-9 10.4-.3 1.2-.4 38.7-.3 83.3l.3 81.1 2.9 3.7c1.6 2.1 4.7 4.7 7 5.7 3.9 1.8 9 1.9 120.6 1.9 111.2 0 116.7-.1 120.5-1.9 4.8-2.2 7.9-5.4 10-10.3 1.3-3.3 1.5-13.6 1.5-82.5 0-74.8-.1-79-1.9-82.9-1-2.3-3.6-5.4-5.7-7l-3.7-2.9-119.6-.3c-115.1-.2-119.7-.1-122.6 1.7zM1050 994v56H863V938h187v56zm-469 18.5v19.5h76v-39h-76v19.5zM525 450v19h37v93h-11.2c-13.2 0-17.9 1.6-22.4 7.6l-2.9 3.7-.3 43.6c-.1 24 0 44.6.3 45.9.8 3.1 6.9 9.7 10.3 11.1 2 .8 15.4 1.1 46.8.9l44.1-.3 3.7-2.9c7.5-5.7 7.6-5.9 7.6-52.4 0-44.4-.1-45.4-5.3-51.1-4.3-4.7-9.2-6.1-21.4-6.1H600v-93h112v93h-11.2c-13.2 0-17.9 1.6-22.4 7.6-2.7 3.5-2.9 4.4-3.2 15.1-1 33.1 12 67.4 31.1 81.8 8.9 6.8 15.3 8.8 26.7 8.3 7.9-.3 10.4-.9 15.2-3.3 22.3-11 37.2-41.6 39.4-80.9.8-12.5-.1-16.7-4.4-21.8-4.5-5.3-9.2-6.8-21.9-6.8H750v-93h38v-38H525v19zm75 168.5V637h-37v-37h37v18.5zm148-17.8c-.1 2.6-3.4 14.8-5.6 20.2-2.9 7.4-7.6 14.6-10 15.5-4.8 1.8-12.9-12.7-16.8-30.2l-1.4-6.2h16.9c9.3 0 16.9.3 16.9.7z"/></svg>