<?xml version="1.0" standalone="no"?>
<!DOCTYPE svg PUBLIC "-//W3C//DTD SVG 20010904//EN"
 "http://www.w3.org/TR/2001/REC-SVG-20010904/DTD/svg10.dtd">
<svg version="1.0" xmlns="http://www.w3.org/2000/svg"
 width="1200.000000pt" height="1200.000000pt" viewBox="0 0 1200.000000 1200.000000"
 preserveAspectRatio="xMidYMid meet">

<g transform="translate(0.000000,1200.000000) scale(0.100000,-0.100000)"
fill="#000000" stroke="none">
<path d="M485 11611 c-48 -22 -79 -54 -100 -103 -13 -33 -15 -173 -15 -1200 0
-1114 1 -1165 19 -1204 10 -23 36 -54 57 -70 l37 -29 3642 0 3642 0 37 29 c21
16 47 47 57 70 18 39 19 90 19 1206 0 1112 -1 1167 -19 1205 -22 48 -54 79
-103 100 -34 13 -410 15 -3635 15 -3477 0 -3599 -1 -3638 -19z m3445 -1296 l0
-935 -1590 0 -1590 0 0 935 0 935 1590 0 1590 0 0 -935z m3570 0 l0 -935
-1590 0 -1590 0 0 935 0 935 1590 0 1590 0 0 -935z"/>
<path d="M3180 10310 l0 -190 195 0 195 0 0 190 0 190 -195 0 -195 0 0 -190z"/>
<path d="M4680 10310 l0 -190 195 0 195 0 0 190 0 190 -195 0 -195 0 0 -190z"/>
<path d="M9104 11611 c-23 -10 -54 -36 -70 -57 l-29 -37 -3 -1067 -2 -1067
-38 -6 c-20 -4 -51 -17 -69 -29 -43 -31 -991 -1171 -1009 -1214 -39 -93 5
-201 101 -245 38 -18 107 -19 1765 -19 1656 0 1727 1 1765 19 95 44 140 153
101 245 -18 43 -966 1183 -1009 1214 -18 12 -49 25 -69 29 l-38 6 -2 1067 -3
1067 -29 37 c-59 78 -35 76 -716 76 -570 0 -607 -2 -646 -19z m1016 -1296 l0
-935 -370 0 -370 0 0 935 0 935 370 0 370 0 0 -935z m590 -1682 c168 -201 307
-370 308 -375 2 -4 -569 -8 -1268 -8 -699 0 -1270 4 -1268 8 2 5 140 174 308
375 l305 366 655 0 655 0 305 -366z"/>
<path d="M495 8618 c-44 -15 -101 -74 -114 -117 -8 -28 -11 -1069 -11 -4005 0
-3558 2 -3970 15 -4004 21 -49 52 -81 100 -103 39 -18 213 -19 5515 -19 5302
0 5476 1 5515 19 48 22 79 54 100 103 13 33 15 264 15 2135 0 2018 -1 2100
-19 2138 -22 48 -54 79 -103 100 -33 13 -381 15 -3333 15 l-3295 0 0 1798 c0
1726 -1 1799 -19 1837 -22 48 -54 79 -103 100 -33 13 -263 15 -2135 14 -1428
0 -2108 -4 -2128 -11z m4005 -1678 l0 -1310 -1875 0 -1875 0 0 1310 0 1310
1875 0 1875 0 0 -1310z m0 -3940 l0 -2250 -1875 0 -1875 0 0 2250 0 2250 1875
0 1875 0 0 -2250z m3000 660 l0 -840 -1310 0 -1310 0 0 840 0 840 1310 0 1310
0 0 -840z m3750 -1035 l0 -1875 -1685 0 -1685 0 0 1875 0 1875 1685 0 1685 0
0 -1875z m-3750 -1035 l0 -840 -1310 0 -1310 0 0 840 0 840 1310 0 1310 0 0
-840z"/>
<path d="M3750 6940 l0 -380 190 0 190 0 0 380 0 380 -190 0 -190 0 0 -380z"/>
<path d="M3750 3470 l0 -470 190 0 190 0 0 470 0 470 -190 0 -190 0 0 -470z"/>
<path d="M5810 3940 l0 -190 380 0 380 0 0 190 0 190 -380 0 -380 0 0 -190z"/>
<path d="M8250 3750 l0 -190 190 0 190 0 0 190 0 190 -190 0 -190 0 0 -190z"/>
<path d="M9370 3750 l0 -190 190 0 190 0 0 190 0 190 -190 0 -190 0 0 -190z"/>
<path d="M10500 3750 l0 -190 190 0 190 0 0 190 0 190 -190 0 -190 0 0 -190z"/>
<path d="M8345 2981 c-38 -23 -83 -75 -90 -104 -3 -12 -4 -387 -3 -833 l3
-811 29 -37 c16 -21 47 -47 70 -57 39 -18 90 -19 1206 -19 1112 0 1167 1 1205
19 48 22 79 54 100 103 13 33 15 136 15 825 0 748 -1 790 -19 829 -10 23 -36
54 -57 70 l-37 29 -1196 3 c-1151 2 -1197 1 -1226 -17z m2155 -921 l0 -560
-935 0 -935 0 0 560 0 560 935 0 935 0 0 -560z"/>
<path d="M5810 1875 l0 -195 380 0 380 0 0 195 0 195 -380 0 -380 0 0 -195z"/>
<path d="M5250 7500 l0 -190 185 0 185 0 0 -465 0 -465 -112 0 c-132 0 -179
-16 -224 -76 l-29 -37 -3 -436 c-1 -240 0 -446 3 -459 8 -31 69 -97 103 -111
20 -8 154 -11 468 -9 l441 3 37 29 c75 57 76 59 76 524 0 444 -1 454 -53 511
-43 47 -92 61 -214 61 l-113 0 0 465 0 465 560 0 560 0 0 -465 0 -465 -112 0
c-132 0 -179 -16 -224 -76 -27 -35 -29 -44 -32 -151 -10 -331 120 -674 311
-818 89 -68 153 -88 267 -83 79 3 104 9 152 33 223 110 372 416 394 809 8 125
-1 167 -44 218 -45 53 -92 68 -219 68 l-113 0 0 465 0 465 190 0 190 0 0 190
0 190 -1315 0 -1315 0 0 -190z m750 -1685 l0 -185 -185 0 -185 0 0 185 0 185
185 0 185 0 0 -185z m1480 178 c-1 -26 -34 -148 -56 -202 -29 -74 -76 -146
-100 -155 -48 -18 -129 127 -168 302 l-14 62 169 0 c93 0 169 -3 169 -7z"/>
</g>
</svg>
