<svg version="1" xmlns="http://www.w3.org/2000/svg" width="193.333" height="78.667" viewBox="0 0 145 59"><path d="M41.7 1.7c-.4.3-.7 13.4-.7 29V59h51V1H67.2c-13.7 0-25.2.3-25.5.7zM89 10v5H45V5h44v5zm0 27.5V56H45V19h44v18.5z"/><path d="M48 10c0 1.8.7 2 7 2s7-.2 7-2-.7-2-7-2-7 .2-7 2zm20 0c0 1.3.7 2 2 2s2-.7 2-2-.7-2-2-2-2 .7-2 2zm7 0c0 1.3.7 2 2 2s2-.7 2-2-.7-2-2-2-2 .7-2 2zm7 0c0 1.3.7 2 2 2s2-.7 2-2-.7-2-2-2-2 .7-2 2zM56 24.6c-4.3 3.6-6 7.4-6 13.2 0 9.3 7 15.7 16.3 14.9 6.1-.5 9.6-3 12.6-9 1.3-2.6 2.9-4.7 3.7-4.7.8 0 1.4-.9 1.4-2 0-1.3-.7-2-2-2-1.2 0-2-.7-2-1.8 0-2.5-3.3-7.1-6.6-9.3-2-1.3-4.7-1.9-8.6-1.9-4.6 0-6.2.5-8.8 2.6zM68.5 26c1.8 0 7.5 5.8 7.5 7.6 0 2.2-2.8 1.7-3.5-.7-1-3.1-6.6-5.1-10.4-3.8-3.3 1.2-6.1 5.3-6.1 8.9 0 3.5 5.3 8 9.4 8 2.8 0 4.1-.7 6.3-3.5 1.5-1.9 3.1-3.5 3.6-3.5 1.8 0 .4 3.9-2.4 6.6-2.5 2.4-3.9 2.9-8 2.9-4.4 0-5.4-.4-8-3.3-3.4-3.8-3.9-9.7-1.2-14.3 1.8-2.9 7.8-6.1 10.1-5.4.8.3 2 .5 2.7.5zm-.5 8c1.1 1.1 2 2.6 2 3.4 0 2-2.8 4.6-5 4.6-1.7 0-5-3.4-5-5.2 0-1.1 3.8-4.8 5-4.8.6 0 1.9.9 3 2zm48.7-29.4c-.4.4-.7 1.8-.7 3.1 0 1.4-1.6 3.9-4 6.3-3.6 3.6-4.4 3.9-10.2 4.2l-6.3.3v10l4 .3c3.3.2 5.2 1.3 10 5.7l6 5.3-9 8.5c-7.1 6.7-8.7 8.8-7.8 9.8 1.3 1.3 3.3-.2 14.8-10.6 2.8-2.4 5.2-4.5 5.5-4.5.3 0 4.7 3.6 9.7 8 5 4.4 9.6 8 10.1 8s1.2-.7 1.5-1.5c.4-.9-2.6-4.2-8.9-9.6l-9.5-8.1 5.8-5.4c5.3-4.8 6.2-5.3 10.6-5.4h4.7v-5.5c0-5.3-.1-5.5-2.7-5.6-2.7 0-2.7-.1-.6-.9 1.9-.8 2.2-1.4 1.6-4.2-1.7-9-.7-8.3-12.9-8.6-6.1-.1-11.3.1-11.7.4zM137 10c0 .6-3.5 1-8.5 1s-8.5-.4-8.5-1 3.5-1 8.5-1 8.5.4 8.5 1zm-3 6.5c0 1.2-1.8 1.5-10 1.5-5.5 0-10-.4-10-.9 0-1.4 2.6-1.9 11.8-2 6.7-.1 8.2.2 8.2 1.4zm5 7c0 1.3-2.9 1.5-20 1.5s-20-.2-20-1.5 2.9-1.5 20-1.5 20 .2 20 1.5zm-13.6 7.6c-1 1.2-3 2.9-4.4 3.9-2.5 1.8-2.5 1.7-6.9-2.1l-4.4-3.9h17.6l-1.9 2.1zM.4 37.3c-.6 1.6 4.2 17.4 5.9 19.5.7.9 4.3 1.2 13.6 1l12.5-.3 2.8-7.5c1.6-4.1 2.9-8.9 3.1-10.5l.2-3-18.8-.3C4.4 36 .9 36.2.4 37.3zM9 41c0 .5-.9 1-1.9 1-1.1 0-2.3-.5-2.6-1-.4-.6.5-1 1.9-1s2.6.4 2.6 1zm8.5 0c-.3.5-1.5 1-2.6 1-1 0-1.9-.5-1.9-1 0-.6 1.2-1 2.6-1 1.4 0 2.3.4 1.9 1zm8 0c-.3.5-1.5 1-2.6 1-1 0-1.9-.5-1.9-1 0-.6 1.2-1 2.6-1 1.4 0 2.3.4 1.9 1zm9 0c-.3.5-1.7 1-3.1 1-1.3 0-2.4-.5-2.4-1 0-.6 1.4-1 3.1-1 1.7 0 2.8.4 2.4 1zM10 46.5c0 .8-.9 1.5-2 1.5s-2-.7-2-1.5.9-1.5 2-1.5 2 .7 2 1.5zm7.8.2c.2.8-.5 1.3-1.7 1.3s-2.1-.6-2.1-1.6c0-1.8 3.1-1.5 3.8.3zm7.2-.2c0 .8-.9 1.5-2 1.5s-2-.7-2-1.5.9-1.5 2-1.5 2 .7 2 1.5zm7.8-.3c-.5 1.5-4.8 2.4-4.8 1s1.2-2.2 3.3-2.2c1 0 1.7.5 1.5 1.2zM12 53.1c0 2.5-3.3 2.2-3.8-.4-.2-1.2.3-1.7 1.7-1.7 1.5 0 2.1.6 2.1 2.1zm6-.1c0 1.1-.4 2-1 2-.5 0-1-.2-1-.4s-.3-1.1-.6-2c-.4-1.1-.1-1.6 1-1.6.9 0 1.6.8 1.6 2zm6 0c0 1.1-.7 2-1.5 2s-1.5-.9-1.5-2 .7-2 1.5-2 1.5.9 1.5 2zm7-1.6c0 1.6-1.4 3.6-2.6 3.6-1.6 0-1.6-.2-.8-2.4.5-1.4 3.4-2.4 3.4-1.2z"/></svg>