<?xml version="1.0" standalone="no"?>
<!DOCTYPE svg PUBLIC "-//W3C//DTD SVG 20010904//EN"
 "http://www.w3.org/TR/2001/REC-SVG-20010904/DTD/svg10.dtd">
<svg version="1.0" xmlns="http://www.w3.org/2000/svg"
 width="145.000000pt" height="59.000000pt" viewBox="0 0 145.000000 59.000000"
 preserveAspectRatio="xMidYMid meet">

<g transform="translate(0.000000,59.000000) scale(0.100000,-0.100000)"
fill="#000000" stroke="none">
<path d="M417 573 c-4 -3 -7 -134 -7 -290 l0 -283 255 0 255 0 0 290 0 290
-248 0 c-137 0 -252 -3 -255 -7z m473 -83 l0 -50 -220 0 -220 0 0 50 0 50 220
0 220 0 0 -50z m0 -275 l0 -185 -220 0 -220 0 0 185 0 185 220 0 220 0 0 -185z"/>
<path d="M480 490 c0 -18 7 -20 70 -20 63 0 70 2 70 20 0 18 -7 20 -70 20 -63
0 -70 -2 -70 -20z"/>
<path d="M680 490 c0 -13 7 -20 20 -20 13 0 20 7 20 20 0 13 -7 20 -20 20 -13
0 -20 -7 -20 -20z"/>
<path d="M750 490 c0 -13 7 -20 20 -20 13 0 20 7 20 20 0 13 -7 20 -20 20 -13
0 -20 -7 -20 -20z"/>
<path d="M820 490 c0 -13 7 -20 20 -20 13 0 20 7 20 20 0 13 -7 20 -20 20 -13
0 -20 -7 -20 -20z"/>
<path d="M560 344 c-43 -36 -60 -74 -60 -132 0 -93 70 -157 163 -149 61 5 96
30 126 90 13 26 29 47 37 47 8 0 14 9 14 20 0 13 -7 20 -20 20 -12 0 -20 7
-20 18 0 25 -33 71 -66 93 -20 13 -47 19 -86 19 -46 0 -62 -5 -88 -26z m125
-14 c18 0 75 -58 75 -76 0 -22 -28 -17 -35 7 -10 31 -66 51 -104 38 -33 -12
-61 -53 -61 -89 0 -35 53 -80 94 -80 28 0 41 7 63 35 15 19 31 35 36 35 18 0
4 -39 -24 -66 -25 -24 -39 -29 -80 -29 -44 0 -54 4 -80 33 -34 38 -39 97 -12
143 18 29 78 61 101 54 8 -3 20 -5 27 -5z m-5 -80 c11 -11 20 -26 20 -34 0
-20 -28 -46 -50 -46 -17 0 -50 34 -50 52 0 11 38 48 50 48 6 0 19 -9 30 -20z"/>
<path d="M1167 544 c-4 -4 -7 -18 -7 -31 0 -14 -16 -39 -40 -63 -36 -36 -44
-39 -102 -42 l-63 -3 0 -50 0 -50 40 -3 c33 -2 52 -13 100 -57 l60 -53 -90
-85 c-71 -67 -87 -88 -78 -98 13 -13 33 2 148 106 28 24 52 45 55 45 3 0 47
-36 97 -80 50 -44 96 -80 101 -80 5 0 12 7 15 15 4 9 -26 42 -89 96 l-95 81
58 54 c53 48 62 53 106 54 l47 0 0 55 c0 53 -1 55 -27 56 -27 0 -27 1 -6 9 19
8 22 14 16 42 -17 90 -7 83 -129 86 -61 1 -113 -1 -117 -4z m203 -54 c0 -6
-35 -10 -85 -10 -50 0 -85 4 -85 10 0 6 35 10 85 10 50 0 85 -4 85 -10z m-30
-65 c0 -12 -18 -15 -100 -15 -55 0 -100 4 -100 9 0 14 26 19 118 20 67 1 82
-2 82 -14z m50 -70 c0 -13 -29 -15 -200 -15 -171 0 -200 2 -200 15 0 13 29 15
200 15 171 0 200 -2 200 -15z m-136 -76 c-10 -12 -30 -29 -44 -39 -25 -18 -25
-17 -69 21 l-44 39 88 0 88 0 -19 -21z"/>
<path d="M4 217 c-6 -16 42 -174 59 -195 7 -9 43 -12 136 -10 l125 3 28 75
c16 41 29 89 31 105 l2 30 -188 3 c-153 2 -188 0 -193 -11z m86 -37 c0 -5 -9
-10 -19 -10 -11 0 -23 5 -26 10 -4 6 5 10 19 10 14 0 26 -4 26 -10z m85 0 c-3
-5 -15 -10 -26 -10 -10 0 -19 5 -19 10 0 6 12 10 26 10 14 0 23 -4 19 -10z
m80 0 c-3 -5 -15 -10 -26 -10 -10 0 -19 5 -19 10 0 6 12 10 26 10 14 0 23 -4
19 -10z m90 0 c-3 -5 -17 -10 -31 -10 -13 0 -24 5 -24 10 0 6 14 10 31 10 17
0 28 -4 24 -10z m-245 -55 c0 -8 -9 -15 -20 -15 -11 0 -20 7 -20 15 0 8 9 15
20 15 11 0 20 -7 20 -15z m78 -2 c2 -8 -5 -13 -17 -13 -12 0 -21 6 -21 16 0
18 31 15 38 -3z m72 2 c0 -8 -9 -15 -20 -15 -11 0 -20 7 -20 15 0 8 9 15 20
15 11 0 20 -7 20 -15z m78 3 c-5 -15 -48 -24 -48 -10 0 14 12 22 33 22 10 0
17 -5 15 -12z m-208 -69 c0 -25 -33 -22 -38 4 -2 12 3 17 17 17 15 0 21 -6 21
-21z m60 1 c0 -11 -4 -20 -10 -20 -5 0 -10 2 -10 4 0 2 -3 11 -6 20 -4 11 -1
16 10 16 9 0 16 -8 16 -20z m60 0 c0 -11 -7 -20 -15 -20 -8 0 -15 9 -15 20 0
11 7 20 15 20 8 0 15 -9 15 -20z m70 16 c0 -16 -14 -36 -26 -36 -16 0 -16 2
-8 24 5 14 34 24 34 12z"/>
</g>
</svg>
