<svg width="54" height="59" xmlns="http://www.w3.org/2000/svg" xmlns:xlink="http://www.w3.org/1999/xlink"><defs><path id="a" d="M53.384 59.876H.124V1.34h53.26z"/></defs><g transform="translate(0 -1.235)" fill="none" fill-rule="evenodd"><mask id="b" fill="#fff"><use xlink:href="#a"/></mask><path d="M2.534 49.66h38.134l10.644-14.13-1.65-1.245L39.634 47.59h-37.1v2.07zm6.814 2.068h-6.81a2.078 2.078 0 0 1-2.072-2.067v-2.073c0-1.152.918-2.067 2.05-2.067h36.089l9.407-12.484a2.065 2.065 0 0 1 2.893-.405l1.655 1.247a2.064 2.064 0 0 1 .406 2.897L42.319 50.903c-.336.447-1.078.825-1.639.825h-1.51l6.51 6.51c.4.399.404 1.059 0 1.462a1.05 1.05 0 0 1-1.47-.008l-7.966-7.964h-23.97L4.31 59.692a1.04 1.04 0 0 1-1.471.008 1.045 1.045 0 0 1-.002-1.463l6.51-6.509z" fill="#2066A3" mask="url(#b)"/><path d="M24.646 20.036a5.147 5.147 0 0 1-2.492 2.12 5.157 5.157 0 0 1-4.61-.368 5.173 5.173 0 0 1-7.673 3.102 5.174 5.174 0 0 1-9.788.631 1.029 1.029 0 0 1 .147-1.057L17.808 1.741a1.03 1.03 0 0 1 .966-.391l28.43 4.134a1.04 1.04 0 0 1 .837.658 5.175 5.175 0 0 1-2.865 6.714 5.168 5.168 0 0 1-4.612-.369 5.166 5.166 0 0 1-3.062 3.468 5.155 5.155 0 0 1-4.612-.368 5.164 5.164 0 0 1-3.062 3.47 5.134 5.134 0 0 1-3.262.202l10.851 26.863a1.035 1.035 0 0 1-1.918.776L24.646 20.036zm7.706-8.148c.145.108.261.257.336.435a3.104 3.104 0 1 0 5.753-2.326 1.025 1.025 0 0 1 .009-.79c.101-.244.298-.45.562-.557a1.036 1.036 0 0 1 1.347.573A3.106 3.106 0 0 0 44.4 10.94a3.109 3.109 0 0 0 1.879-3.499L22.337 3.985l10.015 7.903zm-14.906 6.87a3.103 3.103 0 0 0 5.65-2.56 1.035 1.035 0 0 1 1.918-.774 3.101 3.101 0 0 0 4.04 1.713 3.101 3.101 0 0 0 1.8-3.796L19.403 4.299l-1.957 14.458zm-2.088-.003c-.027.178-.008.364.064.544a3.104 3.104 0 0 1-5.754 2.323 1.035 1.035 0 0 0-1.92.777 3.105 3.105 0 0 1-5.495 2.83L17.075 6.112l-1.717 12.643z" fill="#2066A3" mask="url(#b)"/></g></svg>