<svg width="46" height="50" viewBox="0 0 46 50" xmlns="http://www.w3.org/2000/svg" xmlns:xlink="http://www.w3.org/1999/xlink"><defs><path id="a" d="M45.241 49.895H.105V.289h45.136z"/></defs><g fill="none" fill-rule="evenodd"><path stroke="#000" d="M-67.5-1785.735h730v4639h-730z"/><g transform="translate(0 -.235)"><mask id="b" fill="#fff"><use xlink:href="#a"/></mask><path d="M2.148 41.237h32.316l9.021-11.974-1.4-1.056-8.496 11.276H2.148v1.754zm5.774 1.753h-5.77a1.76 1.76 0 0 1-1.757-1.752v-1.756a1.74 1.74 0 0 1 1.737-1.752h30.584l7.972-10.58a1.75 1.75 0 0 1 2.452-.343l1.402 1.057c.779.587.926 1.681.344 2.455L35.863 42.29c-.284.38-.913.7-1.388.7h-1.28l5.517 5.516a.88.88 0 0 1 0 1.24.89.89 0 0 1-1.246-.007l-6.75-6.749H10.4l-6.748 6.75a.881.881 0 0 1-1.246.007.885.885 0 0 1-.002-1.24l5.518-5.516z" fill="#000" mask="url(#b)"/><path d="M20.886 16.132a4.362 4.362 0 0 1-2.111 1.797 4.37 4.37 0 0 1-3.907-.312 4.384 4.384 0 0 1-6.503 2.628 4.385 4.385 0 0 1-8.295.535.872.872 0 0 1 .124-.896L15.092.63a.874.874 0 0 1 .819-.332l24.093 3.504a.881.881 0 0 1 .71.557 4.385 4.385 0 0 1-6.337 5.378 4.378 4.378 0 0 1-2.595 2.938 4.369 4.369 0 0 1-3.908-.312 4.376 4.376 0 0 1-2.595 2.94 4.35 4.35 0 0 1-2.765.173L31.71 38.24a.877.877 0 0 1-1.626.658l-9.198-22.766zm6.531-6.905a.88.88 0 0 1 .284.369 2.63 2.63 0 1 0 4.876-1.971.869.869 0 0 1 .007-.67.868.868 0 0 1 .477-.472.878.878 0 0 1 1.142.486 2.632 2.632 0 0 0 3.424 1.454 2.634 2.634 0 0 0 1.592-2.965L18.93 2.53l8.488 6.697zM14.784 15.05a2.63 2.63 0 0 0 4.789-2.17.877.877 0 0 1 1.625-.656 2.628 2.628 0 0 0 3.424 1.453 2.628 2.628 0 0 0 1.526-3.218l-9.705-7.662-1.659 12.253zm-1.769-.002a.877.877 0 0 0 .055.46 2.63 2.63 0 0 1-4.876 1.969.878.878 0 0 0-1.628.658 2.631 2.631 0 0 1-4.657 2.399L14.47 4.332l-1.455 10.715z" fill="#000" mask="url(#b)"/></g></g></svg>
