<svg width="48" height="60" viewBox="0 0 48 60" xmlns="http://www.w3.org/2000/svg"><g fill="#0071BC" fill-rule="evenodd"><path d="M30.366 28.683c1.902 5.049 1.463 8.707.293 9.146-.586.22-1.537-.366-2.561-1.463-1.171-1.39-2.342-3.366-3.147-5.634-1.902-5.05-1.463-8.708-.292-9.147.073 0 .146-.073.292-.073 1.171 0 3.659 2.488 5.415 7.17zm-6.22-8.488c-2.634.951-2.268 6.366-.512 10.976.878 2.414 2.122 4.61 3.44 6.073 1.17 1.317 2.34 2.049 3.365 2.049.293 0 .512-.073.732-.147 2.634-.95 2.268-6.366.512-10.975-1.683-4.61-4.903-8.927-7.537-7.976z"/><path d="M38.488 46.024c-2.561 0-3.878-.658-5.195-1.39-1.464-.732-3-1.536-6-1.536s-4.537.804-6 1.536c-1.39.732-2.708 1.39-5.342 1.39-2.707 0-3.951-.658-5.341-1.39-1.39-.732-2.78-1.39-5.415-1.536 0-17.561 8.78-26.708 11.927-29.415a.83.83 0 0 0 .22-.585v-1.683h7.975v1.536c0 .22.073.44.293.586C36.95 23.34 38.854 36.732 38.488 46.024zM33.073 58.61H10.61c-2.049 0-3.878-1.317-4.244-3.147C5.56 51.585 5.122 48 5.049 44.634c2.195.073 3.439.732 4.683 1.39 1.463.732 3 1.537 6 1.537s4.536-.805 6-1.537c1.39-.731 2.707-1.39 5.341-1.39 2.634 0 3.951.659 5.342 1.39 1.463.732 2.926 1.464 5.853 1.537-.22 3.293-.658 6-1.024 7.61-.366 1.975-2.122 3.439-4.17 3.439zM16.463 8.854a2.201 2.201 0 0 1 2.196-2.195h5.414a2.201 2.201 0 0 1 2.195 2.195v1.17h-9.805v-1.17zm3.878-3.659h2.415v-1.17h-2.415v1.17zm1.171-3.732c1.683 0 3.293.44 4.098 1.025H17.34c.879-.586 2.488-1.025 4.171-1.025zm5.195 11.196v-1.171h.366c.44 0 .732-.293.732-.732V8.854c0-1.976-1.61-3.586-3.585-3.659v-1.17h1.61c.585 0 1.097-.366 1.316-.952.22-.585.074-1.17-.366-1.536-1.097-.952-3-1.464-5.195-1.464-2.195 0-4.097.586-5.195 1.464-.439.365-.585.95-.366 1.536.22.586.732.951 1.317.951h1.61v1.171h-.22c-2.048 0-3.658 1.683-3.658 3.659v1.902c0 .44.293.732.732.732h.073v1.317c-4.244 3.732-16.17 16.902-10.83 42.878C5.562 58.17 7.977 60 10.757 60h22.39a5.861 5.861 0 0 0 5.708-4.61c1.317-6.366 4.536-28.244-12.147-42.731zM41.415 14.78a4.747 4.747 0 0 1-4.756-4.756 4.747 4.747 0 0 1 4.756-4.756 4.747 4.747 0 0 1 4.756 4.756 4.747 4.747 0 0 1-4.756 4.756zm0-11.048a6.214 6.214 0 0 0-6.22 6.22c0 3.438 2.78 6.219 6.22 6.219 3.439 0 6.22-2.78 6.22-6.22 0-3.439-2.781-6.22-6.22-6.22z"/><path d="M41.415 6.512a3.092 3.092 0 0 0-3.074 3.073c0 .44.293.732.732.732.44 0 .732-.293.732-.732 0-.878.732-1.61 1.61-1.61.439 0 .731-.292.731-.731a.733.733 0 0 0-.731-.732M26.927 54.439c-1.756 0-3.22-1.463-3.22-3.22 0-1.756 1.464-3.219 3.22-3.219 1.756 0 3.22 1.463 3.22 3.22 0 1.756-1.464 3.219-3.22 3.219zm0-7.902a4.668 4.668 0 0 0-4.683 4.683 4.668 4.668 0 0 0 4.683 4.682c2.56 0 4.683-2.122 4.683-4.682a4.668 4.668 0 0 0-4.683-4.683z"/><path d="M27.585 48.805a2.701 2.701 0 0 0-2.707 2.707c0 .44.293.732.732.732s.731-.293.731-.732c0-.658.586-1.244 1.244-1.244.44 0 .732-.292.732-.731 0-.44-.293-.732-.732-.732M1.463 13.17a2.935 2.935 0 0 1 2.927-2.926 2.935 2.935 0 0 1 2.927 2.927 2.935 2.935 0 0 1-2.927 2.927 2.935 2.935 0 0 1-2.927-2.927zm7.317 0a4.403 4.403 0 0 0-4.39-4.39A4.403 4.403 0 0 0 0 13.17a4.403 4.403 0 0 0 4.39 4.391 4.403 4.403 0 0 0 4.39-4.39zM11.634 39.293a1.39 1.39 0 0 1-1.39-1.39c0-.805.585-1.39 1.39-1.39.805 0 1.39.585 1.39 1.39a1.39 1.39 0 0 1-1.39 1.39zm0-4.171a2.857 2.857 0 0 0-2.854 2.854 2.857 2.857 0 0 0 2.854 2.853 2.857 2.857 0 0 0 2.854-2.853c-.073-1.61-1.317-2.854-2.854-2.854zM10.683 53.415a1 1 0 0 1-1.024-1.025 1 1 0 0 1 1.024-1.024 1 1 0 0 1 1.024 1.024 1 1 0 0 1-1.024 1.025zm0-3.513a2.467 2.467 0 0 0-2.488 2.488 2.467 2.467 0 0 0 2.488 2.488 2.467 2.467 0 0 0 2.488-2.488 2.467 2.467 0 0 0-2.488-2.488zM39.293 23.195a1 1 0 0 1-1.025-1.024 1 1 0 0 1 1.025-1.025 1 1 0 0 1 1.024 1.025c0 .512-.439 1.024-1.024 1.024zm0-3.585a2.467 2.467 0 0 0-2.488 2.488 2.467 2.467 0 0 0 2.488 2.487 2.467 2.467 0 0 0 2.487-2.487 2.467 2.467 0 0 0-2.487-2.488z"/><path d="M5.122 11.78c0-.439-.293-.731-.732-.731-1.024 0-1.829.805-1.829 1.829 0 .44.293.732.732.732s.731-.293.731-.732c0-.22.147-.366.366-.366a.733.733 0 0 0 .732-.732"/></g></svg>