<?xml version="1.0" standalone="no"?>
<!DOCTYPE svg PUBLIC "-//W3C//DTD SVG 20010904//EN"
 "http://www.w3.org/TR/2001/REC-SVG-20010904/DTD/svg10.dtd">
<svg version="1.0" xmlns="http://www.w3.org/2000/svg"
 width="1200.000000pt" height="1200.000000pt" viewBox="0 0 1200.000000 1200.000000"
 preserveAspectRatio="xMidYMid meet">

<g transform="translate(0.000000,1200.000000) scale(0.100000,-0.100000)"
fill="#000000" stroke="none">
<path d="M5933 11620 c-12 -5 -479 -300 -1037 -655 l-1014 -645 -168 0 c-188
0 -229 -8 -279 -51 -70 -62 -66 36 -63 -1475 l3 -1360 27 -41 c16 -24 44 -49
70 -62 l44 -21 2484 0 2484 0 44 21 c26 13 54 38 70 62 l27 41 3 1360 c3 1511
7 1413 -63 1475 -50 43 -91 51 -280 51 l-169 0 -1001 637 c-550 351 -1016 646
-1035 655 -36 19 -110 23 -147 8z m767 -857 l687 -438 -693 -3 c-382 -1 -1006
-1 -1388 0 l-693 3 686 437 c377 241 692 437 700 438 7 0 323 -197 701 -437z
m1550 -1953 l0 -1120 -2250 0 -2250 0 0 1120 0 1120 2250 0 2250 0 0 -1120z"/>
<path d="M6686 9555 c-31 -11 -148 -122 -531 -505 l-490 -490 -220 367 c-121
202 -229 378 -239 391 -25 32 -91 62 -139 62 -42 0 -101 -22 -131 -48 -33 -30
-780 -965 -799 -1002 -13 -26 -17 -50 -15 -92 5 -72 40 -128 100 -157 l44 -21
1734 0 1734 0 44 21 c60 29 95 85 100 157 2 42 -2 67 -15 92 -18 35 -951 1158
-991 1193 -25 23 -88 46 -122 46 -14 0 -43 -6 -64 -14z m321 -790 c137 -165
252 -306 257 -312 6 -10 -114 -13 -586 -13 l-593 0 325 325 c250 250 327 322
336 312 6 -6 123 -147 261 -312z m-1847 -116 c63 -106 117 -196 118 -200 2 -5
-123 -9 -277 -9 -155 0 -281 2 -281 5 0 9 312 395 319 395 3 0 58 -86 121
-191z"/>
<path d="M10136 10119 c-562 -73 -1024 -517 -1120 -1078 -21 -121 -21 -340 -1
-457 48 -272 180 -519 384 -717 193 -186 427 -307 685 -352 117 -20 336 -20
457 1 259 45 502 169 689 354 192 189 306 391 368 655 22 94 26 134 26 275 1
98 -5 195 -13 240 -30 170 -109 363 -209 515 -60 90 -257 287 -347 347 -274
181 -600 258 -919 217z m395 -403 c350 -88 609 -353 690 -704 19 -79 21 -112
16 -235 -6 -161 -22 -230 -87 -366 -192 -399 -640 -610 -1065 -502 -107 28
-263 107 -355 180 -145 116 -272 312 -322 496 -31 118 -31 337 1 455 71 264
247 483 481 600 156 77 243 98 421 99 102 1 145 -4 220 -23z"/>
<path d="M10525 9110 l-210 -210 -122 122 -123 123 -137 -138 -138 -137 200
-201 c110 -110 211 -206 225 -214 43 -23 98 -28 148 -15 42 12 76 42 345 309
163 162 297 300 297 306 0 13 -252 265 -265 265 -6 0 -105 -94 -220 -210z"/>
<path d="M855 9738 c-31 -17 -76 -61 -90 -88 -7 -14 -100 -547 -206 -1186
-214 -1282 -204 -1200 -142 -1275 59 -69 53 -69 596 -69 l487 0 0 -3185 0
-3185 -375 0 -375 0 0 -190 0 -190 940 0 940 0 0 190 0 190 -375 0 -375 0 0
3185 0 3185 485 0 c515 0 526 1 578 48 34 31 57 89 57 144 0 79 -375 2309
-394 2346 -9 17 -33 44 -53 59 l-36 28 -821 2 c-588 2 -827 -1 -841 -9z m1576
-1305 l156 -933 -899 0 -900 0 6 28 c7 32 306 1829 306 1837 0 3 264 4 587 3
l587 -3 157 -932z"/>
<path d="M10745 6736 c-144 -47 -262 -154 -338 -306 -65 -131 -88 -225 -94
-390 -4 -102 -1 -157 12 -225 41 -220 153 -402 304 -495 l51 -32 0 -536 0
-537 -118 118 -117 117 -135 -135 -135 -135 253 -253 252 -252 0 -337 0 -337
-224 -3 -224 -3 -39 -31 c-21 -18 -46 -51 -57 -77 l-19 -46 97 -1163 c107
-1295 97 -1222 179 -1276 l41 -27 441 0 441 0 41 27 c82 54 72 -19 179 1276
l97 1163 -19 46 c-11 26 -36 59 -57 77 l-39 31 -224 3 -224 3 0 52 0 52 250
250 c138 137 250 254 250 260 0 5 -60 69 -132 142 l-133 133 -117 -117 -118
-118 0 385 0 385 252 252 253 253 -135 135 -135 135 -117 -117 -118 -118 0
162 0 161 52 32 c197 121 318 382 318 684 -1 324 -143 597 -366 703 -74 35
-86 38 -184 40 -67 2 -120 -2 -145 -11z m193 -400 c53 -49 92 -134 111 -243
14 -85 14 -101 0 -186 -19 -109 -58 -194 -111 -243 -46 -41 -76 -43 -118 -7
-160 134 -171 508 -20 665 57 59 85 62 138 14z m288 -3758 c-4 -24 -38 -430
-76 -903 -39 -473 -73 -875 -76 -893 l-5 -32 -194 0 -194 0 -5 32 c-3 18 -37
420 -76 893 -38 473 -72 879 -76 903 l-5 42 356 0 356 0 -5 -42z"/>
<path d="M4025 4874 c-11 -2 -44 -9 -73 -15 -218 -44 -438 -230 -523 -441 -38
-95 -50 -151 -56 -270 l-6 -117 -46 24 c-103 52 -187 70 -321 70 -146 0 -216
-16 -335 -74 -197 -97 -342 -276 -396 -489 -19 -75 -19 -116 -17 -1203 l3
-1126 29 -37 c58 -77 50 -76 599 -76 l487 0 0 -295 c0 -244 3 -302 15 -333 21
-49 52 -81 100 -103 37 -17 73 -19 455 -19 467 0 469 1 526 76 l29 37 3 319 3
318 1589 0 1590 0 0 -287 c0 -167 4 -304 10 -325 14 -50 55 -97 105 -119 37
-17 74 -19 455 -19 381 0 418 2 455 19 50 22 91 69 105 119 6 21 10 158 10
325 l0 287 393 0 c442 0 446 1 503 76 l29 37 3 1126 c2 1089 2 1128 -17 1203
-54 211 -201 393 -396 489 -119 58 -189 74 -335 74 -134 0 -218 -18 -321 -70
l-46 -24 -6 117 c-9 198 -74 355 -204 493 -100 106 -201 167 -358 218 -45 14
-242 16 -2035 17 -1092 1 -1994 0 -2005 -2z m1785 -1309 l0 -935 -1030 0
-1030 0 0 738 c0 405 5 766 10 801 23 165 153 298 312 321 29 4 432 8 896 9
l842 1 0 -935z m2180 912 c108 -42 195 -129 237 -237 16 -41 18 -109 21 -827
l3 -783 -1030 0 -1031 0 0 935 0 936 878 -3 c811 -3 880 -5 922 -21z m-4822
-776 c75 -41 135 -103 170 -179 l27 -57 5 -545 c6 -608 2 -580 77 -637 l36
-28 2517 0 2517 0 36 28 c75 57 71 29 77 637 l5 545 27 57 c35 76 95 138 170
179 60 33 68 34 168 34 100 0 108 -1 168 -34 75 -41 135 -103 170 -179 l27
-57 3 -982 2 -983 -3370 0 -3370 0 2 983 3 982 26 56 c45 96 124 167 227 206
24 9 68 12 127 10 80 -3 97 -7 153 -36z m952 -2766 l0 -185 -185 0 -185 0 0
185 0 185 185 0 185 0 0 -185z m4310 0 l0 -185 -180 0 -180 0 0 185 0 185 180
0 180 0 0 -185z"/>
</g>
</svg>
