<svg version="1" xmlns="http://www.w3.org/2000/svg" width="1600" height="1600" viewBox="0 0 1200 1200"><path d="M593.3 38c-1.2.5-47.9 30-103.7 65.5L388.2 168h-16.8c-18.8 0-22.9.8-27.9 5.1-7 6.2-6.6-3.6-6.3 147.5l.3 136 2.7 4.1c1.6 2.4 4.4 4.9 7 6.2l4.4 2.1h496.8l4.4-2.1c2.6-1.3 5.4-3.8 7-6.2l2.7-4.1.3-136c.3-151.1.7-141.3-6.3-147.5-5-4.3-9.1-5.1-28-5.1h-16.9l-100.1-63.7c-55-35.1-101.6-64.6-103.5-65.5-3.6-1.9-11-2.3-14.7-.8zm76.7 85.7l68.7 43.8-69.3.3c-38.2.1-100.6.1-138.8 0l-69.3-.3 68.6-43.7c37.7-24.1 69.2-43.7 70-43.8.7 0 32.3 19.7 70.1 43.7zM825 319v112H375V207h450v112z"/><path d="M668.6 244.5c-3.1 1.1-14.8 12.2-53.1 50.5l-49 49-22-36.7c-12.1-20.2-22.9-37.8-23.9-39.1-2.5-3.2-9.1-6.2-13.9-6.2-4.2 0-10.1 2.2-13.1 4.8-3.3 3-78 96.5-79.9 100.2-1.3 2.6-1.7 5-1.5 9.2.5 7.2 4 12.8 10 15.7l4.4 2.1h346.8l4.4-2.1c6-2.9 9.5-8.5 10-15.7.2-4.2-.2-6.7-1.5-9.2-1.8-3.5-95.1-115.8-99.1-119.3-2.5-2.3-8.8-4.6-12.2-4.6-1.4 0-4.3.6-6.4 1.4zm32.1 79c13.7 16.5 25.2 30.6 25.7 31.2.6 1-11.4 1.3-58.6 1.3h-59.3l32.5-32.5c25-25 32.7-32.2 33.6-31.2.6.6 12.3 14.7 26.1 31.2zM516 335.1c6.3 10.6 11.7 19.6 11.8 20 .2.5-12.3.9-27.7.9-15.5 0-28.1-.2-28.1-.5 0-.9 31.2-39.5 31.9-39.5.3 0 5.8 8.6 12.1 19.1zm497.6-147c-56.2 7.3-102.4 51.7-112 107.8-2.1 12.1-2.1 34-.1 45.7 4.8 27.2 18 51.9 38.4 71.7 19.3 18.6 42.7 30.7 68.5 35.2 11.7 2 33.6 2 45.7-.1 25.9-4.5 50.2-16.9 68.9-35.4 19.2-18.9 30.6-39.1 36.8-65.5 2.2-9.4 2.6-13.4 2.6-27.5.1-9.8-.5-19.5-1.3-24-3-17-10.9-36.3-20.9-51.5-6-9-25.7-28.7-34.7-34.7-27.4-18.1-60-25.8-91.9-21.7zm39.5 40.3c35 8.8 60.9 35.3 69 70.4 1.9 7.9 2.1 11.2 1.6 23.5-.6 16.1-2.2 23-8.7 36.6-19.2 39.9-64 61-106.5 50.2-10.7-2.8-26.3-10.7-35.5-18-14.5-11.6-27.2-31.2-32.2-49.6-3.1-11.8-3.1-33.7.1-45.5 7.1-26.4 24.7-48.3 48.1-60 15.6-7.7 24.3-9.8 42.1-9.9 10.2-.1 14.5.4 22 2.3z"/><path d="M1052.5 289l-21 21-12.2-12.2-12.3-12.3-13.7 13.8-13.8 13.7 20 20.1c11 11 21.1 20.6 22.5 21.4 4.3 2.3 9.8 2.8 14.8 1.5 4.2-1.2 7.6-4.2 34.5-30.9 16.3-16.2 29.7-30 29.7-30.6 0-1.3-25.2-26.5-26.5-26.5-.6 0-10.5 9.4-22 21zm-967-62.8c-3.1 1.7-7.6 6.1-9 8.8-.7 1.4-10 54.7-20.6 118.6-21.4 128.2-20.4 120-14.2 127.5 5.9 6.9 5.3 6.9 59.6 6.9H150v637H75v38h188v-38h-75V488h48.5c51.5 0 52.6-.1 57.8-4.8 3.4-3.1 5.7-8.9 5.7-14.4 0-7.9-37.5-230.9-39.4-234.6-.9-1.7-3.3-4.4-5.3-5.9l-3.6-2.8-82.1-.2c-58.8-.2-82.7.1-84.1.9zm157.6 130.5l15.6 93.3H78.8l.6-2.8c.7-3.2 30.6-182.9 30.6-183.7 0-.3 26.4-.4 58.7-.3l58.7.3 15.7 93.2zm831.4 169.7c-14.4 4.7-26.2 15.4-33.8 30.6-6.5 13.1-8.8 22.5-9.4 39-.4 10.2-.1 15.7 1.2 22.5 4.1 22 15.3 40.2 30.4 49.5l5.1 3.2v107.3l-11.8-11.8-11.7-11.7-13.5 13.5-13.5 13.5 25.3 25.3 25.2 25.2v67.4l-22.4.3-22.4.3-3.9 3.1c-2.1 1.8-4.6 5.1-5.7 7.7l-1.9 4.6 9.7 116.3c10.7 129.5 9.7 122.2 17.9 127.6l4.1 2.7h88.2l4.1-2.7c8.2-5.4 7.2 1.9 17.9-127.6l9.7-116.3-1.9-4.6c-1.1-2.6-3.6-5.9-5.7-7.7l-3.9-3.1-22.4-.3-22.4-.3v-10.4l25-25c13.8-13.7 25-25.4 25-26 0-.5-6-6.9-13.2-14.2l-13.3-13.3-11.7 11.7-11.8 11.8v-77l25.2-25.2 25.3-25.3-13.5-13.5-13.5-13.5-11.7 11.7-11.8 11.8v-32.3l5.2-3.2c19.7-12.1 31.8-38.2 31.8-68.4-.1-32.4-14.3-59.7-36.6-70.3-7.4-3.5-8.6-3.8-18.4-4-6.7-.2-12 .2-14.5 1.1zm19.3 40c5.3 4.9 9.2 13.4 11.1 24.3 1.4 8.5 1.4 10.1 0 18.6-1.9 10.9-5.8 19.4-11.1 24.3-4.6 4.1-7.6 4.3-11.8.7-16-13.4-17.1-50.8-2-66.5 5.7-5.9 8.5-6.2 13.8-1.4zm28.8 375.8c-.4 2.4-3.8 43-7.6 90.3-3.9 47.3-7.3 87.5-7.6 89.3l-.5 3.2h-38.8l-.5-3.2c-.3-1.8-3.7-42-7.6-89.3-3.8-47.3-7.2-87.9-7.6-90.3l-.5-4.2h71.2l-.5 4.2z"/><path d="M402.5 712.6c-1.1.2-4.4.9-7.3 1.5-21.8 4.4-43.8 23-52.3 44.1-3.8 9.5-5 15.1-5.6 27l-.6 11.7-4.6-2.4c-10.3-5.2-18.7-7-32.1-7-14.6 0-21.6 1.6-33.5 7.4-19.7 9.7-34.2 27.6-39.6 48.9-1.9 7.5-1.9 11.6-1.7 120.3l.3 112.6 2.9 3.7c5.8 7.7 5 7.6 59.9 7.6H337v29.5c0 24.4.3 30.2 1.5 33.3 2.1 4.9 5.2 8.1 10 10.3 3.7 1.7 7.3 1.9 45.5 1.9 46.7 0 46.9-.1 52.6-7.6l2.9-3.7.3-31.9.3-31.8H768v28.7c0 16.7.4 30.4 1 32.5 1.4 5 5.5 9.7 10.5 11.9 3.7 1.7 7.4 1.9 45.5 1.9s41.8-.2 45.5-1.9c5-2.2 9.1-6.9 10.5-11.9.6-2.1 1-15.8 1-32.5V1088h39.3c44.2 0 44.6-.1 50.3-7.6l2.9-3.7.3-112.6c.2-108.9.2-112.8-1.7-120.3-5.4-21.1-20.1-39.3-39.6-48.9-11.9-5.8-18.9-7.4-33.5-7.4-13.4 0-21.8 1.8-32.1 7l-4.6 2.4-.6-11.7c-.9-19.8-7.4-35.5-20.4-49.3-10-10.6-20.1-16.7-35.8-21.8-4.5-1.4-24.2-1.6-203.5-1.7-109.2-.1-199.4 0-200.5.2zM581 843.5V937H375v-73.8c0-40.5.5-76.6 1-80.1 2.3-16.5 15.3-29.8 31.2-32.1 2.9-.4 43.2-.8 89.6-.9l84.2-.1v93.5zm218-91.2c10.8 4.2 19.5 12.9 23.7 23.7 1.6 4.1 1.8 10.9 2.1 82.7l.3 78.3H619V749.9l87.8.3c81.1.3 88 .5 92.2 2.1zm-482.2 77.6c7.5 4.1 13.5 10.3 17 17.9l2.7 5.7.5 54.5c.6 60.8.2 58 7.7 63.7l3.6 2.8h503.4l3.6-2.8c7.5-5.7 7.1-2.9 7.7-63.7l.5-54.5 2.7-5.7c3.5-7.6 9.5-13.8 17-17.9 6-3.3 6.8-3.4 16.8-3.4s10.8.1 16.8 3.4c7.5 4.1 13.5 10.3 17 17.9l2.7 5.7.3 98.2.2 98.3H263l.2-98.3.3-98.2 2.6-5.6c4.5-9.6 12.4-16.7 22.7-20.6 2.4-.9 6.8-1.2 12.7-1 8 .3 9.7.7 15.3 3.6zm95.2 276.6v18.5h-37v-37h37v18.5zm431 0v18.5h-36v-37h36v18.5z"/></svg>