<svg width="52" height="48" xmlns="http://www.w3.org/2000/svg"><g stroke="#0071BC" fill="none" fill-rule="evenodd"><path d="M50.73 25.577V14.585a6.176 6.176 0 0 0-12.35 0v22.326a6.177 6.177 0 0 0 12.35 0V25.577zm0 .171H38.38h12.35zM38.38 27.13a8.145 8.145 0 0 0-2.24-.312 8.1 8.1 0 0 0-5.078 1.779A8.134 8.134 0 1 0 40.67 41.71l-2.29-14.58zm0 9.757l-7.318-8.29 7.317 8.29zM19.75 24.64h-4.433v-4.432h-3.463v4.432H7.423v3.463h4.431v4.432h3.463v-4.432h4.432V24.64zM9.511 1.113h8.148-8.148zm8.408 11.58V4.547H9.267v8.249L1.323 20.84v20.85a4.92 4.92 0 0 0 4.92 4.919h14.482a4.92 4.92 0 0 0 4.919-4.92V20.84l-7.724-8.146zm2.937 3.099H6.308h14.55z" stroke-width="2" stroke-linecap="round" stroke-linejoin="round"/><path d="M40.874 22.261a.851.851 0 1 0 0 1.702.851.851 0 0 0 0-1.702zm1.941-1.94a.851.851 0 1 0 0 1.702.851.851 0 0 0 0-1.703zm2.588 1.293a.851.851 0 1 0 0 1.703.851.851 0 0 0 0-1.703zm2.587 0a.851.851 0 1 0 0 1.703.851.851 0 0 0 0-1.703zm0-3.234a.851.851 0 1 0 0 1.702.851.851 0 0 0 0-1.702zm-3.234-.647a.851.851 0 1 0 0 1.702.851.851 0 0 0 0-1.702zm-3.882.647a.851.851 0 1 0 0 1.702.851.851 0 0 0 0-1.702zm1.941-2.588a.851.851 0 1 0 0 1.702.851.851 0 0 0 0-1.702zm1.94-2.588a.851.851 0 1 0 0 1.703.851.851 0 0 0 0-1.703zm2.589 1.941a.851.851 0 1 0 0 1.702.851.851 0 0 0 0-1.702zm.646-2.588a.851.851 0 1 0 0 1.703.851.851 0 0 0 0-1.703zm-1.94-1.94a.851.851 0 1 0 0 1.702.851.851 0 0 0 0-1.703zm-3.235 0a.851.851 0 1 0 0 1.702.851.851 0 0 0 0-1.703zm-1.09 3.439a.851.851 0 1 1-1.702 0 .851.851 0 0 1 1.703 0z" stroke-width=".5"/></g></svg>