<?xml version="1.0" standalone="no"?>
<!DOCTYPE svg PUBLIC "-//W3C//DTD SVG 20010904//EN"
 "http://www.w3.org/TR/2001/REC-SVG-20010904/DTD/svg10.dtd">
<svg version="1.0" xmlns="http://www.w3.org/2000/svg"
 width="145.000000pt" height="89.000000pt" viewBox="0 0 145.000000 89.000000"
 preserveAspectRatio="xMidYMid meet">
<metadata>
Created by potrace 1.15, written by Peter Selinger 2001-2017
</metadata>
<g transform="translate(0.000000,89.000000) scale(0.100000,-0.100000)"
fill="#000000" stroke="none">
<path d="M834 875 c-12 -30 4 -44 52 -47 l48 -3 23 -59 c13 -32 22 -60 21 -62
-3 -2 -344 -6 -405 -4 -7 0 -13 9 -13 19 0 15 8 21 33 23 24 2 33 8 35 25 4
29 -19 35 -133 31 -89 -3 -90 -3 -90 -28 0 -22 5 -25 42 -28 38 -3 43 -6 53
-38 12 -34 10 -39 -31 -100 -41 -61 -46 -65 -74 -59 -91 21 -114 23 -159 14
-89 -17 -154 -66 -198 -149 -18 -36 -23 -61 -23 -125 0 -70 4 -87 29 -133 63
-113 208 -171 327 -130 90 30 173 120 186 200 l6 38 76 0 76 1 149 175 150
175 14 -35 14 -36 -50 -45 c-63 -57 -95 -128 -95 -210 1 -244 291 -366 466
-197 140 134 104 363 -69 448 -46 22 -69 27 -125 27 l-68 -1 -47 121 c-25 67
-55 141 -65 165 l-18 42 -66 0 c-49 0 -67 -4 -71 -15z m114 -243 c-5 -12 -232
-281 -238 -281 -5 -1 -111 268 -110 282 0 4 79 7 176 7 97 0 174 -4 172 -8z
m-353 -164 c26 -68 49 -129 52 -135 4 -9 -8 -13 -41 -13 -38 0 -46 3 -46 19 0
30 -28 88 -59 124 l-30 33 31 47 c17 26 34 47 38 47 4 0 29 -55 55 -122z
m-222 22 c16 -1 4 -23 -54 -104 -33 -48 -59 -93 -57 -103 3 -16 17 -18 121
-21 92 -2 117 -6 117 -17 0 -28 -22 -71 -53 -104 -82 -86 -206 -94 -301 -20
-35 28 -76 112 -76 159 0 140 120 244 255 218 22 -4 43 -7 48 -8z m885 -6 c80
-33 132 -111 132 -199 0 -192 -229 -286 -368 -152 -67 64 -84 166 -42 252 21
44 75 93 88 81 3 -4 23 -51 43 -104 29 -78 40 -98 57 -100 37 -6 37 25 -2 126
-20 53 -36 100 -36 105 0 13 90 7 128 -9z"/>
</g>
</svg>
