<svg width="90" height="49" viewBox="0 0 90 49" xmlns="http://www.w3.org/2000/svg" xmlns:xlink="http://www.w3.org/1999/xlink"><defs><path id="a" d="M45.015.483H.031v42.443H90V.483z"/><path id="c" d="M0 35.765h74.688V.483H0z"/></defs><g fill="none" fill-rule="evenodd"><path stroke="#000" d="M-44.5-4197.735h730v4639h-730z"/><g transform="translate(0 -.235)"><mask id="b" fill="#fff"><use xlink:href="#a"/></mask><path d="M46.534 40.37h8.693V15.823h-8.693v24.545zm20.98 2.556a4.271 4.271 0 0 1-.525-2.046c0-.172.013-.343.033-.51h-9.238V14.544c0-.706-.572-1.278-1.278-1.278h-11.25c-.707 0-1.279.572-1.279 1.278V40.37H30.551c.082.33.13.67.13 1.023 0 .538-.106 1.055-.291 1.534h37.123z" fill="#000" mask="url(#b)"/><path d="M68.011 25.54v-9.716H78.75v7.159c0 .564.458 1.022 1.023 1.022h3.068c.564 0 1.023-.458 1.023-1.022V19.58a47.068 47.068 0 0 1 2.024 5.96H68.011zm12.784-3.58h1.023v-5.114h-1.023v5.114zM52.16 4.574h6.136V3.55H52.16v1.023zm37.835 28.774c-.109-1.175-2.872-28.774-20.96-28.774h-7.67V2.017c0-.848-.687-1.534-1.534-1.534h-9.205c-.847 0-1.534.686-1.534 1.534v2.557H1.278C.572 4.574 0 5.146 0 5.852v35.796c0 .706.572 1.278 1.278 1.278h18.19a4.24 4.24 0 0 1-.292-1.534c0-.353.049-.694.13-1.023H2.557V7.13h66.478c4.95 0 8.603 2.585 11.289 6.137h-13.59c-.706 0-1.278.572-1.278 1.278v12.273c0 .706.572 1.278 1.278 1.278h19.783c.646 2.92.889 5.065.927 5.434v5.177c0 .017-.038 1.662-.895 1.662h-8.343c.02.168.034.339.034.511 0 .736-.192 1.433-.525 2.046h8.834c2.372 0 3.452-2.187 3.452-4.219v-5.241c0-.04-.002-.08-.006-.118z" fill="#000" mask="url(#b)"/></g><path d="M25.568 23.77h12.273v-8.18H25.568v8.181zM39.12 13.032H24.29c-.705 0-1.278.572-1.278 1.278v10.74c0 .706.573 1.278 1.279 1.278h14.83c.706 0 1.278-.572 1.278-1.278V14.31c0-.706-.572-1.278-1.279-1.278z" fill="#000"/><g transform="translate(5.114 12.55)"><mask id="d" fill="#fff"><use xlink:href="#c"/></mask><path d="M2.557 11.221h7.67V3.04h-7.67v8.181zM11.506.483H1.278C.572.483 0 1.055 0 1.76V12.5c0 .706.572 1.278 1.278 1.278h10.228c.706 0 1.278-.572 1.278-1.278V1.76c0-.706-.572-1.278-1.278-1.278zm8.182 24.005a4.38 4.38 0 0 0-4.376 4.375 4.38 4.38 0 0 0 4.376 4.376 4.38 4.38 0 0 0 4.375-4.376 4.38 4.38 0 0 0-4.375-4.375zm0 11.307a6.94 6.94 0 0 1-6.933-6.932 6.94 6.94 0 0 1 6.932-6.932 6.94 6.94 0 0 1 6.933 6.932 6.94 6.94 0 0 1-6.933 6.932z" fill="#000" mask="url(#d)"/><path d="M19.688 26.217a2.647 2.647 0 1 1-.001 5.294 2.647 2.647 0 0 1 0-5.294m48.069-1.729a4.38 4.38 0 0 0-4.376 4.375 4.38 4.38 0 0 0 4.376 4.376 4.38 4.38 0 0 0 4.375-4.376 4.38 4.38 0 0 0-4.375-4.375zm0 11.307a6.94 6.94 0 0 1-6.932-6.932 6.94 6.94 0 0 1 6.932-6.932 6.94 6.94 0 0 1 6.932 6.932 6.94 6.94 0 0 1-6.932 6.932z" fill="#000" mask="url(#d)"/></g><path d="M72.87 38.766a2.647 2.647 0 1 1-.002 5.294 2.647 2.647 0 0 1 .001-5.294" fill="#000"/></g></svg>
