<svg width="84" height="45" viewBox="0 0 84 45" xmlns="http://www.w3.org/2000/svg" xmlns:xlink="http://www.w3.org/1999/xlink"><title>entitlement_motorcycle_button</title><defs><path id="a" d="M24.167 24.117H.05V0h24.117z"/><path id="c" d="M50.833 19.142v19.141H0V0h50.833z"/></defs><g fill="none" fill-rule="evenodd"><g transform="translate(0 20.598)"><mask id="b" fill="#fff"><use xlink:href="#a"/></mask><path d="M12.083 19.168a7.084 7.084 0 0 1 0-14.167 7.083 7.083 0 1 1 0 14.167zm0-19.168C5.41 0 0 5.41 0 12.083c0 6.675 5.41 12.085 12.083 12.085 6.674 0 12.084-5.411 12.084-12.085C24.167 5.41 18.757 0 12.083 0z" fill="#2066A3" mask="url(#b)"/></g><path d="M56.667 23.098c0-.92-.747-1.666-1.667-1.666H32.5a1.667 1.667 0 0 0 0 3.333h20.063l-4.536 11.667h-16.8l-2.981-1.491-.003.006a1.648 1.648 0 0 0-.743-.181c-.92 0-1.667.746-1.667 1.666 0 .651.379 1.21.925 1.485l-.004.006 3.333 1.666.004-.006c.224.113.474.183.742.183h18.334c.707 0 1.307-.443 1.549-1.064l.003.001 5.834-15h-.004c.074-.19.118-.392.118-.605M30 13.098H17.69L7.048 11.46l-.002.01a2.456 2.456 0 0 0-.378-.038 2.5 2.5 0 0 0-2.5 2.5c0 1.25.921 2.278 2.121 2.461l-.001.01 10.833 1.666L30 18.1a2.5 2.5 0 1 0 0-5" fill="#2066A3"/><g transform="translate(32.5 6.432)"><mask id="d" fill="#fff"><use xlink:href="#c"/></mask><path d="M2.5 11.667h15c2.5 0 5-4.702 5-6.667 0-.833-.833-4.167-8.333-4.167C5.833.833 0 4.948 0 9.167c0 2.5 2.5 2.5 2.5 2.5m35 21.667A8.334 8.334 0 0 1 29.167 25a8.304 8.304 0 0 1 2.839-6.255l4.047 7.082.006-.005c.287.503.821.846 1.441.846.92 0 1.667-.748 1.667-1.668 0-.3-.087-.58-.226-.823l.006-.004-4.049-7.086c.82-.27 1.693-.42 2.603-.42a8.334 8.334 0 1 1-.001 16.667zm0-21.667c-1.813 0-3.54.365-5.117 1.02L25.613.84l-.006.004A1.658 1.658 0 0 0 24.167 0c-.92 0-1.667.747-1.667 1.667 0 .3.087.579.226.823l-.007.003 6.778 11.86c-3.231 2.434-5.33 6.29-5.33 10.647 0 7.364 5.97 13.334 13.333 13.334S50.833 32.364 50.833 25 44.863 11.667 37.5 11.667z" fill="#2066A3" mask="url(#d)"/></g><path d="M56.093 5.108l.011-.006L53.734.9l-.01.006a.822.822 0 0 0-.716-.43c-.067 0-.128.023-.191.038l-.005-.016-5.247 1.268.003.016a.821.821 0 0 0-.641.795c0 .46.372.833.833.833.068 0 .128-.023.192-.038l.003.015 4.636-1.119 2.06 3.653.011-.006c.144.252.405.43.715.43.46 0 .834-.373.834-.833a.8.8 0 0 0-.118-.405m9.635-.269c-2.852.409-4.895 2.588-4.895 4.094 0 1.506 2.043 3.685 4.895 4.093.042.006.939 0 .939-.812V5.65c0-.812-.897-.817-.94-.812" fill="#2066A3"/></g></svg>