<?xml version="1.0" standalone="no"?>
<!DOCTYPE svg PUBLIC "-//W3C//DTD SVG 20010904//EN"
 "http://www.w3.org/TR/2001/REC-SVG-20010904/DTD/svg10.dtd">
<svg version="1.0" xmlns="http://www.w3.org/2000/svg"
 width="1200.000000pt" height="1200.000000pt" viewBox="0 0 1200.000000 1200.000000"
 preserveAspectRatio="xMidYMid meet">

<g transform="translate(0.000000,1200.000000) scale(0.100000,-0.100000)"
fill="#000000" stroke="none">
<path d="M5893 11974 c-24 -14 -54 -44 -68 -68 l-25 -43 0 -531 0 -530 -67 -7
c-290 -28 -555 -103 -797 -228 -522 -268 -917 -758 -1066 -1321 -32 -124 -60
-273 -60 -326 0 -24 -36 -109 -116 -275 -63 -132 -119 -243 -123 -247 -4 -5
-135 -26 -291 -49 -324 -46 -356 -56 -401 -127 -36 -57 -44 -113 -25 -177 13
-45 35 -70 232 -261 l218 -211 -47 -275 c-26 -151 -47 -292 -47 -314 1 -81 58
-159 136 -184 80 -27 121 -13 390 128 138 73 256 132 264 132 7 0 126 -60 264
-132 l251 -133 77 0 c70 0 79 2 114 31 99 80 101 108 39 473 l-47 275 220 215
c217 213 221 217 232 271 14 64 4 117 -33 171 -43 64 -76 74 -386 118 -156 23
-288 41 -292 41 -4 0 -58 102 -118 226 l-111 227 15 98 c28 191 75 339 160
511 256 516 766 871 1343 933 l62 7 0 -1135 0 -1135 -33 -24 c-34 -27 -569
-785 -587 -834 -38 -98 -32 -208 15 -290 31 -53 105 -121 163 -147 47 -22 53
-22 652 -22 l605 0 56 26 c73 34 134 96 167 168 34 72 36 180 6 256 -27 66
-547 809 -590 842 l-34 25 0 1120 0 1121 38 -7 c132 -21 350 -105 497 -191
473 -277 786 -761 840 -1297 l7 -68 -227 0 c-226 0 -229 0 -271 -25 -26 -15
-54 -43 -69 -69 l-25 -43 0 -563 0 -563 25 -43 c15 -26 43 -54 69 -69 l43 -25
663 0 663 0 43 25 c26 15 54 43 69 69 l25 43 0 563 0 563 -25 43 c-15 26 -43
54 -69 69 -42 25 -45 25 -274 25 l-230 0 -7 68 c-26 264 -88 501 -190 719
-286 612 -861 1059 -1516 1179 l-89 17 0 540 0 540 -25 43 c-37 63 -95 94
-176 94 -51 0 -73 -5 -106 -26z m2307 -3874 l0 -300 -400 0 -400 0 0 300 0
300 400 0 400 0 0 -300z m-4130 93 c87 -170 98 -178 289 -206 77 -11 141 -23
141 -27 0 -3 -42 -45 -94 -93 -143 -132 -153 -163 -115 -373 11 -64 19 -118
16 -120 -2 -2 -61 25 -130 61 -173 89 -191 89 -363 -1 -70 -36 -128 -63 -130
-61 -2 2 5 52 16 112 25 138 26 205 1 253 -11 20 -62 79 -115 131 -53 52 -95
95 -94 96 2 1 68 11 147 23 194 28 204 35 291 205 36 70 67 127 70 127 3 0 34
-57 70 -127z m2124 -723 l184 -265 -189 -3 c-104 -1 -274 -1 -378 0 l-189 3
186 268 c103 147 190 266 194 265 4 -2 90 -122 192 -268z"/>
<path d="M951 9379 c-470 -99 -834 -466 -931 -940 -19 -90 -21 -128 -17 -274
4 -144 8 -185 31 -270 50 -187 159 -380 300 -531 l66 -72 0 -3646 0 -3646 800
0 800 0 0 400 0 400 4000 0 4000 0 0 -400 0 -400 800 0 800 0 0 3646 0 3646
66 72 c167 179 275 390 319 617 20 105 20 320 0 435 -84 479 -462 866 -942
963 -140 29 -346 29 -486 0 -474 -96 -839 -463 -937 -940 -19 -90 -21 -128
-17 -274 4 -144 8 -185 31 -270 50 -187 159 -380 300 -531 l66 -72 0 -746 0
-746 -4000 0 -4000 0 0 746 0 746 66 72 c167 179 275 390 319 617 20 105 20
320 0 435 -84 479 -462 866 -942 963 -137 28 -358 28 -492 0z m437 -409 c139
-33 269 -107 372 -210 273 -273 309 -702 85 -1015 -54 -76 -163 -178 -239
-224 -400 -240 -926 -76 -1126 352 -90 191 -94 450 -9 642 78 178 236 336 414
414 140 62 346 79 503 41z m9600 0 c139 -33 269 -107 372 -210 273 -273 309
-702 86 -1014 -90 -126 -224 -231 -365 -285 -439 -169 -932 91 -1051 553 -38
151 -21 360 41 501 78 178 236 336 414 414 140 62 346 79 503 41z m-10132
-1924 c157 -55 454 -61 639 -12 55 14 101 26 102 26 2 0 3 -1498 3 -3330 l0
-3330 -400 0 -400 0 0 3330 c0 1894 4 3330 9 3330 5 0 26 -6 47 -14z m9600 0
c157 -55 454 -61 639 -12 55 14 101 26 102 26 2 0 3 -1498 3 -3330 l0 -3330
-400 0 -400 0 0 3330 c0 1894 4 3330 9 3330 5 0 26 -6 47 -14z m-7456 -2146
l0 -500 -500 0 -500 0 0 500 0 500 500 0 500 0 0 -500z m1400 0 l0 -500 -500
0 -500 0 0 500 0 500 500 0 500 0 0 -500z m1400 0 l0 -500 -500 0 -500 0 0
500 0 500 500 0 500 0 0 -500z m1400 0 l0 -500 -500 0 -500 0 0 500 0 500 500
0 500 0 0 -500z m1400 0 l0 -500 -500 0 -500 0 0 500 0 500 500 0 500 0 0
-500z m1400 0 l0 -500 -500 0 -500 0 0 500 0 500 500 0 500 0 0 -500z m-7000
-2300 l0 -1400 -500 0 -500 0 0 1400 0 1400 500 0 500 0 0 -1400z m1400 0 l0
-1400 -500 0 -500 0 0 1400 0 1400 500 0 500 0 0 -1400z m1400 0 l0 -1400
-500 0 -500 0 0 1400 0 1400 500 0 500 0 0 -1400z m1400 0 l0 -1400 -500 0
-500 0 0 1400 0 1400 500 0 500 0 0 -1400z m1400 0 l0 -1400 -500 0 -500 0 0
1400 0 1400 500 0 500 0 0 -1400z m1400 0 l0 -1400 -500 0 -500 0 0 1400 0
1400 500 0 500 0 0 -1400z"/>
</g>
</svg>
