<svg version="1" xmlns="http://www.w3.org/2000/svg" width="1600" height="1600" viewBox="0 0 1200 1200"><path d="M589.3 2.6c-2.4 1.4-5.4 4.4-6.8 6.8l-2.5 4.3v106.1l-6.7.7c-29 2.8-55.5 10.3-79.7 22.8-52.2 26.8-91.7 75.8-106.6 132.1-3.2 12.4-6 27.3-6 32.6 0 2.4-3.6 10.9-11.6 27.5-6.3 13.2-11.9 24.3-12.3 24.7-.4.5-13.5 2.6-29.1 4.9-32.4 4.6-35.6 5.6-40.1 12.7-3.6 5.7-4.4 11.3-2.5 17.7 1.3 4.5 3.5 7 23.2 26.1l21.8 21.1-4.7 27.5c-2.6 15.1-4.7 29.2-4.7 31.4.1 8.1 5.8 15.9 13.6 18.4 8 2.7 12.1 1.3 39-12.8 13.8-7.3 25.6-13.2 26.4-13.2.7 0 12.6 6 26.4 13.2l25.1 13.3h7.7c7 0 7.9-.2 11.4-3.1 9.9-8 10.1-10.8 3.9-47.3l-4.7-27.5 22-21.5c21.7-21.3 22.1-21.7 23.2-27.1 1.4-6.4.4-11.7-3.3-17.1-4.3-6.4-7.6-7.4-38.6-11.8-15.6-2.3-28.8-4.1-29.2-4.1-.4 0-5.8-10.2-11.8-22.6L421 315.7l1.5-9.8c2.8-19.1 7.5-33.9 16-51.1 25.6-51.6 76.6-87.1 134.3-93.3l6.2-.7v227l-3.3 2.4c-3.4 2.7-56.9 78.5-58.7 83.4-3.8 9.8-3.2 20.8 1.5 29 3.1 5.3 10.5 12.1 16.3 14.7 4.7 2.2 5.3 2.2 65.2 2.2h60.5l5.6-2.6c7.3-3.4 13.4-9.6 16.7-16.8 3.4-7.2 3.6-18 .6-25.6-2.7-6.6-54.7-80.9-59-84.2l-3.4-2.5V163.7l3.8.7c13.2 2.1 35 10.5 49.7 19.1 47.3 27.7 78.6 76.1 84 129.7l.7 6.8h-22.7c-22.6 0-22.9 0-27.1 2.5-2.6 1.5-5.4 4.3-6.9 6.9l-2.5 4.3v112.6l2.5 4.3c1.5 2.6 4.3 5.4 6.9 6.9l4.3 2.5h132.6l4.3-2.5c2.6-1.5 5.4-4.3 6.9-6.9l2.5-4.3V333.7l-2.5-4.3c-1.5-2.6-4.3-5.4-6.9-6.9-4.2-2.5-4.5-2.5-27.4-2.5h-23l-.7-6.8c-2.6-26.4-8.8-50.1-19-71.9-28.6-61.2-86.1-105.9-151.6-117.9l-8.9-1.7v-108l-2.5-4.3C613.8 3.1 608 0 599.9 0c-5.1 0-7.3.5-10.6 2.6zM820 390v30h-80v-60h80v30zm-413-9.3c8.7 17 9.8 17.8 28.9 20.6 7.7 1.1 14.1 2.3 14.1 2.7 0 .3-4.2 4.5-9.4 9.3-14.3 13.2-15.3 16.3-11.5 37.3 1.1 6.4 1.9 11.8 1.6 12-.2.2-6.1-2.5-13-6.1-17.3-8.9-19.1-8.9-36.3.1-7 3.6-12.8 6.3-13 6.1-.2-.2.5-5.2 1.6-11.2 2.5-13.8 2.6-20.5.1-25.3-1.1-2-6.2-7.9-11.5-13.1-5.3-5.2-9.5-9.5-9.4-9.6.2-.1 6.8-1.1 14.7-2.3 19.4-2.8 20.4-3.5 29.1-20.5 3.6-7 6.7-12.7 7-12.7.3 0 3.4 5.7 7 12.7zM619.4 453l18.4 26.5-18.9.3c-10.4.1-27.4.1-37.8 0l-18.9-.3 18.6-26.8c10.3-14.7 19-26.6 19.4-26.5.4.2 9 12.2 19.2 26.8z"/><path d="M95.1 262.1c-47 9.9-83.4 46.6-93.1 94-1.9 9-2.1 12.8-1.7 27.4.4 14.4.8 18.5 3.1 27 5 18.7 15.9 38 30 53.1l6.6 7.2V1200h160v-80h800v80h160V470.8l6.6-7.2c16.7-17.9 27.5-39 31.9-61.7 2-10.5 2-32 0-43.5-8.4-47.9-46.2-86.6-94.2-96.3-14-2.9-34.6-2.9-48.6 0-47.4 9.6-83.9 46.3-93.7 94-1.9 9-2.1 12.8-1.7 27.4.4 14.4.8 18.5 3.1 27 5 18.7 15.9 38 30 53.1l6.6 7.2V620H200V470.8l6.6-7.2c16.7-17.9 27.5-39 31.9-61.7 2-10.5 2-32 0-43.5-8.4-47.9-46.2-86.6-94.2-96.3-13.7-2.8-35.8-2.8-49.2 0zm43.7 40.9c13.9 3.3 26.9 10.7 37.2 21 27.3 27.3 30.9 70.2 8.5 101.5-5.4 7.6-16.3 17.8-23.9 22.4-40 24-92.6 7.6-112.6-35.2-9-19.1-9.4-45-.9-64.2 7.8-17.8 23.6-33.6 41.4-41.4 14-6.2 34.6-7.9 50.3-4.1zm960 0c13.9 3.3 26.9 10.7 37.2 21 27.3 27.3 30.9 70.2 8.6 101.4-9 12.6-22.4 23.1-36.5 28.5-43.9 16.9-93.2-9.1-105.1-55.3-3.8-15.1-2.1-36 4.1-50.1 7.8-17.8 23.6-33.6 41.4-41.4 14-6.2 34.6-7.9 50.3-4.1zM85.6 495.4c15.7 5.5 45.4 6.1 63.9 1.2 5.5-1.4 10.1-2.6 10.2-2.6.2 0 .3 149.8.3 333v333H80V827c0-189.4.4-333 .9-333s2.6.6 4.7 1.4zm960 0c15.7 5.5 45.4 6.1 63.9 1.2 5.5-1.4 10.1-2.6 10.2-2.6.2 0 .3 149.8.3 333v333h-80V827c0-189.4.4-333 .9-333s2.6.6 4.7 1.4zM300 710v50H200V660h100v50zm140 0v50H340V660h100v50zm140 0v50H480V660h100v50zm140 0v50H620V660h100v50zm140 0v50H760V660h100v50zm140 0v50H900V660h100v50zM300 940v140H200V800h100v140zm140 0v140H340V800h100v140zm140 0v140H480V800h100v140zm140 0v140H620V800h100v140zm140 0v140H760V800h100v140zm140 0v140H900V800h100v140z"/></svg>