<svg version="1" xmlns="http://www.w3.org/2000/svg" width="108" height="109.333" viewBox="0 0 81 82"><path d="M70.6.8c-.4.7-.4 1.7 0 2.3.4.8 0 .9-1.5.4-2.2-.7-2.2-.9-.6 12.2.3 2.7 0 3.3-1.6 3.3-1.1 0-1.9-.7-1.9-1.7C65 15.2 55.8 1 54.4 1c-.5 0-1.9.6-2.9 1.4-1.5 1.1-2.4 1.1-4.9.1-1.7-.7-4.6-1-6.3-.8l-3.3.5v7.9c0 6.2-.3 8.1-1.5 8.5-4.6 1.8.8 2.4 22 2.4 15 0 23.5-.4 23.5-1s-.7-1-1.5-1c-1.1 0-1.4-1.1-1.2-4.3.1-2.3.6-4.5 1.1-4.8 1-.8-3-6.9-4.6-6.9-.6 0-1.6-.7-2.3-1.7C71.7.2 71.1 0 70.6.8zM41 11c0 4-.4 7-1 7s-1-3-1-7 .4-7 1-7 1 3 1 7zm4 0c0 4-.4 7-1 7s-1-3-1-7 .4-7 1-7 1 3 1 7zm13-1.1c5 7.4 5.3 9.4.4 2.6-4-5.7-5.7-8.5-5-8.5.3 0 2.3 2.7 4.6 5.9zM49 12c0 3.3-.4 6-1 6s-1-2.7-1-6 .4-6 1-6 1 2.7 1 6zm26.4-3.1c0 1.7-.6 2.5-2.1 2.7-2.4.4-3.5-2.3-1.8-4.3 1.6-2 3.9-1 3.9 1.6zM58 17.8c0 .8-3.4.9-6.2.4-.5-.1-.8-2.8-.8-5.9V6.5l3.5 5.2c1.9 2.9 3.5 5.6 3.5 6.1zm18-3c0 .5-.6 1.6-1.3 2.7-1.6 2.1-3.7 1.2-3.7-1.6 0-1.4.7-1.9 2.5-1.9 1.4 0 2.5.4 2.5.8z"/><path d="M16.5 5.8c-.3 1.6-4.2 7.3-8.7 12.6C.7 27.1-.1 28.5.9 30.4c.6 1.1 1.7 4 2.6 6.4 1.3 4 1.3 4.4-.5 6.2-1.8 1.8-2 3.4-2 20 0 11.3.4 18 1 18s1-5.6 1-14.9v-15l26.8.2 26.7.2.3 14.8.3 14.7H81l-.2-27.7-.3-27.6-10.5.1c-5.8 0-10.8.1-11.2.1-.5.1-.8 4.4-.8 9.6V45h-3c-2 0-3-.5-3-1.5 0-.8-.4-1.5-1-1.5s-1-3-1-7v-7l-6.7-.1c-3.8-.1-8.6-.1-10.8-.2l-4-.1-.3 7.2c-.2 4-.7 7.2-1.2 7.2-.6 0-1 .7-1 1.5 0 1.2-1.4 1.5-6.8 1.5-6.2 0-7.1-.3-9.4-2.8C7.5 39.8 4 31.5 4 28.5c0-.6 2.9-4.6 6.5-8.9 5.1-6.1 6.4-7.3 6.3-5.4-.2 2.8 2 8.8 3.3 8.8 2.1 0 11.9-5.6 11.9-6.8 0-2.6-3-7.1-5.2-7.8-1.3-.4-3.3-1.7-4.5-3-2.9-3.2-5-3-5.8.4zm11.3 7c1.8 2.4 1.5 3-2.8 5.2-3.9 2-3.9 2-5 .1-1.4-2.8-1.3-3.8 1-6.1 2.1-2.1 4.6-1.8 6.8.8zM65 36.5c0 8.4 0 8.5-2.5 8.5s-2.5-.1-2.5-8.5 0-8.5 2.5-8.5 2.5.1 2.5 8.5zm7 0c0 8.4 0 8.5-2.5 8.5s-2.5-.1-2.5-8.5 0-8.5 2.5-8.5 2.5.1 2.5 8.5zm7 0c0 8.4 0 8.5-2.5 8.5s-2.5-.1-2.5-8.5 0-8.5 2.5-8.5 2.5.1 2.5 8.5zM48 36v6H30v-3.3c.1-3 .1-3.1 1.5-1.3 1.5 1.9 1.6 1.9 4.5-.9 1.6-1.6 3-3.4 3-4.1 0-1.7-5.2-1.5-7.2.4-1.7 1.4-1.8 1.3-1.8-.6 0-2.1.5-2.2 9-2.2h9v6zM8.3 44.7c-.7.2-1.9.2-2.5 0-.7-.3-.2-.5 1.2-.5s1.9.2 1.3.5zm37 0c-2.3.2-6.4.2-9 0-2.6-.2-.7-.3 4.2-.3 5 0 7.1.1 4.8.3zM79 48.1c0 .5-15.5.9-38 .9-22.6 0-38-.4-38-.9 0-.6 15.4-.9 38-.9 22.5 0 38 .3 38 .9zm0 7.1V59H59v-3.3c0-1.9.3-3.7.6-4 .4-.4 4.9-.6 10-.4l9.4.2v3.7zm0 9.9V69H59v-7.7h10l10-.1v3.9zm-.2 10.1l.3 3.8H59v-8.1l9.8.3 9.7.3.3 3.7z"/><path d="M61.6 40.7c-1.1 1.1-.6 2.3.9 2.3.8 0 1.5-.4 1.5-.9 0-1.3-1.6-2.2-2.4-1.4zM68 42c0 .5.7 1 1.5 1s1.5-.5 1.5-1c0-.6-.7-1-1.5-1s-1.5.4-1.5 1zm7.2.1c.2.6.8 1 1.3 1s1.1-.4 1.3-1c.2-.6-.4-1.1-1.3-1.1s-1.5.5-1.3 1.1zM66 55c0 .5 1.4 1 3 1 1.7 0 3-.5 3-1 0-.6-1.3-1-3-1-1.6 0-3 .4-3 1zm0 10c0 .5 1.4 1 3 1 1.7 0 3-.5 3-1 0-.6-1.3-1-3-1-1.6 0-3 .4-3 1zm0 9.9c0 1.1 3 1.9 4.8 1.4C73.1 75.5 72 74 69 74c-1.6 0-3 .4-3 .9zM26.7 56.6c-.4.4-.7 2-.7 3.6 0 3.3 1.4 4.1 7.6 4.2H38v10.7L33.5 77C31 78.1 29 79.4 29 80c0 1.4.7 1.3 5.7-.6 4-1.6 4.6-1.6 8.6 0 5 1.9 5.7 2 5.7.6 0-.6-2-1.9-4.5-3L40 75.1v-11l5.8-.3 5.7-.3v-7l-12.1-.3c-6.6-.1-12.3.1-12.7.4zM48.5 60c0 2-18.4 2.8-19.6.8-1.4-2.2 1.3-2.8 10.6-2.6 7.2.2 9 .6 9 1.8zM7 65.7c.1 1.6.6 5.5 1.3 8.8l1.3 6h9.9l1.7-8c.9-4.3 1.4-8.3 1.2-8.7-.3-.4-3.9-.8-8-.8H7v2.7zm10.6-.1c2.3.6 2.3.7-.1 11.2-.4 1.5-1.3 2.2-2.9 2.2-2.8 0-3.2-.8-4.1-8.3L9.8 65h2.8c1.6 0 3.9.3 5 .6z"/></svg>