<?xml version="1.0" standalone="no"?>
<!DOCTYPE svg PUBLIC "-//W3C//DTD SVG 20010904//EN"
 "http://www.w3.org/TR/2001/REC-SVG-20010904/DTD/svg10.dtd">
<svg version="1.0" xmlns="http://www.w3.org/2000/svg"
 width="81.000000pt" height="82.000000pt" viewBox="0 0 81.000000 82.000000"
 preserveAspectRatio="xMidYMid meet">

<g transform="translate(0.000000,82.000000) scale(0.100000,-0.100000)"
fill="#000000" stroke="none">
<path d="M706 812 c-4 -7 -4 -17 0 -23 4 -8 0 -9 -15 -4 -22 7 -22 9 -6 -122
3 -27 0 -33 -16 -33 -11 0 -19 7 -19 17 0 21 -92 163 -106 163 -5 0 -19 -6
-29 -14 -15 -11 -24 -11 -49 -1 -17 7 -46 10 -63 8 l-33 -5 0 -79 c0 -62 -3
-81 -15 -85 -46 -18 8 -24 220 -24 150 0 235 4 235 10 0 6 -7 10 -15 10 -11 0
-14 11 -12 43 1 23 6 45 11 48 10 8 -30 69 -46 69 -6 0 -16 7 -23 17 -8 11
-14 13 -19 5z m-296 -102 c0 -40 -4 -70 -10 -70 -6 0 -10 30 -10 70 0 40 4 70
10 70 6 0 10 -30 10 -70z m40 0 c0 -40 -4 -70 -10 -70 -6 0 -10 30 -10 70 0
40 4 70 10 70 6 0 10 -30 10 -70z m130 11 c50 -74 53 -94 4 -26 -40 57 -57 85
-50 85 3 0 23 -27 46 -59z m-90 -21 c0 -33 -4 -60 -10 -60 -6 0 -10 27 -10 60
0 33 4 60 10 60 6 0 10 -27 10 -60z m264 31 c0 -17 -6 -25 -21 -27 -24 -4 -35
23 -18 43 16 20 39 10 39 -16z m-174 -89 c0 -8 -34 -9 -62 -4 -5 1 -8 28 -8
59 l0 58 35 -52 c19 -29 35 -56 35 -61z m180 30 c0 -5 -6 -16 -13 -27 -16 -21
-37 -12 -37 16 0 14 7 19 25 19 14 0 25 -4 25 -8z"/>
<path d="M165 762 c-3 -16 -42 -73 -87 -126 -71 -87 -79 -101 -69 -120 6 -11
17 -40 26 -64 13 -40 13 -44 -5 -62 -18 -18 -20 -34 -20 -200 0 -113 4 -180
10 -180 6 0 10 56 10 149 l0 150 268 -2 267 -2 3 -148 3 -147 119 0 120 0 -2
277 -3 276 -105 -1 c-58 0 -108 -1 -112 -1 -5 -1 -8 -44 -8 -96 l0 -95 -30 0
c-20 0 -30 5 -30 15 0 8 -4 15 -10 15 -6 0 -10 30 -10 70 l0 70 -67 1 c-38 1
-86 1 -108 2 l-40 1 -3 -72 c-2 -40 -7 -72 -12 -72 -6 0 -10 -7 -10 -15 0 -12
-14 -15 -68 -15 -62 0 -71 3 -94 28 -23 24 -58 107 -58 137 0 6 29 46 65 89
51 61 64 73 63 54 -2 -28 20 -88 33 -88 21 0 119 56 119 68 0 26 -30 71 -52
78 -13 4 -33 17 -45 30 -29 32 -50 30 -58 -4z m113 -70 c18 -24 15 -30 -28
-52 -39 -20 -39 -20 -50 -1 -14 28 -13 38 10 61 21 21 46 18 68 -8z m372 -237
c0 -84 0 -85 -25 -85 -25 0 -25 1 -25 85 0 84 0 85 25 85 25 0 25 -1 25 -85z
m70 0 c0 -84 0 -85 -25 -85 -25 0 -25 1 -25 85 0 84 0 85 25 85 25 0 25 -1 25
-85z m70 0 c0 -84 0 -85 -25 -85 -25 0 -25 1 -25 85 0 84 0 85 25 85 25 0 25
-1 25 -85z m-310 5 l0 -60 -90 0 -90 0 0 33 c1 30 1 31 15 13 15 -19 16 -19
45 9 16 16 30 34 30 41 0 17 -52 15 -72 -4 -17 -14 -18 -13 -18 6 0 21 5 22
90 22 l90 0 0 -60z m-397 -87 c-7 -2 -19 -2 -25 0 -7 3 -2 5 12 5 14 0 19 -2
13 -5z m370 0 c-23 -2 -64 -2 -90 0 -26 2 -7 3 42 3 50 0 71 -1 48 -3z m337
-34 c0 -5 -155 -9 -380 -9 -226 0 -380 4 -380 9 0 6 154 9 380 9 225 0 380 -3
380 -9z m0 -71 l0 -38 -100 0 -100 0 0 33 c0 19 3 37 6 40 4 4 49 6 100 4 l94
-2 0 -37z m0 -99 l0 -39 -100 0 -100 0 0 39 0 38 100 0 100 1 0 -39z m-2 -101
l3 -38 -100 0 -101 0 0 41 0 40 98 -3 97 -3 3 -37z"/>
<path d="M616 413 c-11 -11 -6 -23 9 -23 8 0 15 4 15 9 0 13 -16 22 -24 14z"/>
<path d="M680 400 c0 -5 7 -10 15 -10 8 0 15 5 15 10 0 6 -7 10 -15 10 -8 0
-15 -4 -15 -10z"/>
<path d="M752 399 c2 -6 8 -10 13 -10 5 0 11 4 13 10 2 6 -4 11 -13 11 -9 0
-15 -5 -13 -11z"/>
<path d="M660 270 c0 -5 14 -10 30 -10 17 0 30 5 30 10 0 6 -13 10 -30 10 -16
0 -30 -4 -30 -10z"/>
<path d="M660 170 c0 -5 14 -10 30 -10 17 0 30 5 30 10 0 6 -13 10 -30 10 -16
0 -30 -4 -30 -10z"/>
<path d="M660 71 c0 -11 30 -19 48 -14 23 8 12 23 -18 23 -16 0 -30 -4 -30 -9z"/>
<path d="M267 254 c-4 -4 -7 -20 -7 -36 0 -33 14 -41 76 -42 l44 0 0 -53 0
-54 -45 -19 c-25 -11 -45 -24 -45 -30 0 -14 7 -13 57 6 40 16 46 16 86 0 50
-19 57 -20 57 -6 0 6 -20 19 -45 30 l-45 19 0 55 0 55 58 3 57 3 0 35 0 35
-121 3 c-66 1 -123 -1 -127 -4z m218 -34 c0 -20 -184 -28 -196 -8 -14 22 13
28 106 26 72 -2 90 -6 90 -18z"/>
<path d="M70 163 c1 -16 6 -55 13 -88 l13 -60 49 0 50 0 17 80 c9 43 14 83 12
87 -3 4 -39 8 -80 8 l-74 0 0 -27z m106 1 c23 -6 23 -7 -1 -112 -4 -15 -13
-22 -29 -22 -28 0 -32 8 -41 83 l-7 57 28 0 c16 0 39 -3 50 -6z"/>
</g>
</svg>
