<svg width="50" height="48" viewBox="0 0 50 48" xmlns="http://www.w3.org/2000/svg" xmlns:xlink="http://www.w3.org/1999/xlink"><defs><path id="a" d="M49.989 47.693H.034V0H49.99z"/></defs><g fill="none" fill-rule="evenodd"><mask id="b" fill="#fff"><use xlink:href="#a"/></mask><path d="M38.613 39.773h8.078l.853 5.682h-4.385l-4.546-5.682zm-6.374-7.955h13.263l.853 5.682h-9.57l-4.546-5.682zm-26.971-5.22L20.36 45.455H2.444l2.824-18.857zm-.728-3.87c-.642 0-.918.352-1.119.958L.011 46.413c-.101.646.466 1.312 1.12 1.314h47.727c.653 0 1.22-.668 1.119-1.314l-3.41-22.727a1.175 1.175 0 0 0-1.118-.959H33.535L32.434 25h12.038l.675 4.545h-14.72c.303-.471-.934 1.567-1.207 2.131l11.027 13.779H23.272l-7.067-8.843 4.936-4.172-1.012-2.096-5.344 4.51L6.9 25h10.654l-1.102-2.273H4.54zM24.994 7.385a3.96 3.96 0 0 1 3.978 3.978 3.96 3.96 0 0 1-3.978 3.977 3.96 3.96 0 0 1-3.977-3.977 3.96 3.96 0 0 1 3.977-3.978zm0-2.272c-3.438 0-6.25 2.812-6.25 6.25s2.812 6.25 6.25 6.25c3.439 0 6.25-2.812 6.25-6.25s-2.811-6.25-6.25-6.25zm-.017-2.841c5.065 0 9.108 3.806 9.108 8.949 0 1.095-.382 3.04-.746 4.012-2.754 5.793-5.56 11.58-8.345 17.365-2.687-5.828-5.721-11.517-8.345-17.365-.363-.974-.746-2.92-.746-4.012 0-5.146 4.008-8.95 9.074-8.95zm0-2.273C18.744 0 13.63 4.872 13.63 11.222c0 1.537.374 3.508.887 4.864 3.135 6.537 6.297 13.083 9.446 19.62.182.39.6.658 1.03.658.43 0 .849-.268 1.03-.657 3.112-6.555 6.36-13.061 9.446-19.62.517-1.36.888-3.329.888-4.865C36.358 4.869 31.209 0 24.977 0z" fill="#0071BC" mask="url(#b)"/></g></svg>
