<svg width="60" height="39" xmlns="http://www.w3.org/2000/svg"><g fill="none" fill-rule="evenodd"><path d="M19.514 26.436c-.004.045-.007.09-.007.135v.492h.912a24.991 24.991 0 0 1-.905-.627" fill="#0A0B09"/><path d="M25.194 27.05l-.009.013h5.145v-.492c0-.814-.66-1.476-1.475-1.476h-3.44c.01.03.02.059.028.088.17.635.08 1.298-.249 1.867m16.576-.479c0-.814-.661-1.476-1.477-1.476h-7.872c-.814 0-1.476.662-1.476 1.476v.492H41.77v-.492" fill="#0071BC"/><path d="M30.945 27.556h-6.141a2.458 2.458 0 0 1-2.972.39c-.22-.13-.432-.26-.644-.39h-3.157v8.404c0 .816.66 1.476 1.476 1.476h23.615c.816 0 1.476-.66 1.476-1.476v-5.987c.652.282 1.43.06 1.826-.556L59.18 9.54c.44-.686.24-1.599-.446-2.04l-2.208-1.416-13.777 21.47H30.945M16.498 1.634a5.534 5.534 0 1 1 7.79 7.863 5.534 5.534 0 0 1-7.79-7.863" fill="#0071BC"/><path d="M22.153 27.556c.29.152.602.23.91.23a1.971 1.971 0 0 0 1.522-.723 1.963 1.963 0 0 0 .31-1.968 1.958 1.958 0 0 0-.843-.98c-2.236-1.299-3.877-2.73-5.09-4.11a16.583 16.583 0 0 1-2.093-2.973 14.492 14.492 0 0 1-.43-.853c-.32-.687-.53-1.281-.664-1.727a8.603 8.603 0 0 1-.211-.861l-.004-.022a1.967 1.967 0 0 0-2.207-1.682 1.968 1.968 0 0 0-1.693 2.21v-.001c.024.177.309 2.172 1.755 4.823.041.076.087.155.131.232 1.178 2.094 3.092 4.557 6.109 6.782a27.553 27.553 0 0 0 2.425 1.587c.023.013.048.023.073.036" fill="#0071BC"/><path d="M16.081 23.417a3.073 3.073 0 0 0-1.781-.54l-4.624.063c1.113-1.238 2.353-2.384 3.498-3.445a16.48 16.48 0 0 1-.192-.34c-1.43-2.622-1.758-4.619-1.81-4.992a2.44 2.44 0 0 1 .486-1.821 2.441 2.441 0 0 1 2.51-.897 2.469 2.469 0 0 1 1.88 2.057c.005.037.014.082.027.147.029.137.082.364.171.662.103.343.263.811.504 1.362.15.345.332.723.55 1.124.844 1.538 1.952 2.94 3.311 4.196a16.281 16.281 0 0 0 5.124 1.62 1.968 1.968 0 0 0 .581-3.892c-3.623-.55-5.768-2.205-7.12-3.737a10.563 10.563 0 0 1-1.397-2.03 7.442 7.442 0 0 1-.345-.753l-.008-.02a1.959 1.959 0 0 0-.46-.746 2.636 2.636 0 0 0-.315-.41c-1.5-1.56-4.684-2.214-7.65.176-4.057 3.311-6.08 5.855-8.45 10.82-1.456 3.763.109 5.078 2.033 6.253l.37.225c.3.235.645.418 1.02.529.298.113.57.162.837.123.027 0 .053.003.08.003l3.547-.048-3.05 4.458a3.074 3.074 0 1 0 5.076 3.473v-.001l6.396-9.348a3.077 3.077 0 0 0-.799-4.27" fill="#0071BC"/></g></svg>