<?xml version="1.0" standalone="no"?>
<!DOCTYPE svg PUBLIC "-//W3C//DTD SVG 20010904//EN"
 "http://www.w3.org/TR/2001/REC-SVG-20010904/DTD/svg10.dtd">
<svg version="1.0" xmlns="http://www.w3.org/2000/svg"
 width="1200.000000pt" height="1200.000000pt" viewBox="0 0 1200.000000 1200.000000"
 preserveAspectRatio="xMidYMid meet">
<metadata>
Created by potrace 1.15, written by Peter Selinger 2001-2017
</metadata>
<g transform="translate(0.000000,1200.000000) scale(0.100000,-0.100000)"
fill="#000000" stroke="none">
<path d="M854 11611 c-23 -10 -54 -36 -70 -57 l-29 -37 -3 -4258 -2 -4257
-133 -4 c-130 -3 -135 -4 -171 -32 -75 -57 -76 -59 -76 -524 0 -350 2 -418 15
-450 21 -49 52 -81 100 -103 39 -18 135 -19 2705 -19 2581 0 2666 1 2706 19
23 10 54 36 70 57 l29 37 3 436 c1 240 0 446 -3 458 -7 30 -61 90 -96 109 -20
10 -63 14 -149 14 l-120 0 0 4238 c0 4098 -1 4238 -19 4277 -22 48 -54 79
-103 100 -33 13 -283 15 -2325 15 -2213 0 -2289 -1 -2329 -19z m4396 -4486 l0
-4125 -2060 0 -2060 0 0 4125 0 4125 2060 0 2060 0 0 -4125z m370 -4690 l0
-185 -2435 0 -2435 0 0 185 0 185 2435 0 2435 0 0 -185z"/>
<path d="M1604 10861 c-23 -10 -54 -36 -70 -57 l-29 -37 -3 -811 c-1 -446 0
-821 3 -833 7 -30 61 -90 96 -109 24 -12 126 -14 649 -14 523 0 625 2 649 14
35 19 89 79 96 109 3 12 4 387 3 833 l-3 811 -29 37 c-59 78 -35 76 -716 76
-570 0 -607 -2 -646 -19z m1016 -921 l0 -560 -370 0 -370 0 0 560 0 560 370 0
370 0 0 -560z"/>
<path d="M3495 10868 c-44 -15 -101 -74 -114 -117 -8 -27 -11 -265 -11 -822 0
-744 1 -786 19 -825 10 -23 36 -54 57 -70 l37 -29 642 0 642 0 37 29 c21 16
47 47 57 70 18 39 19 81 19 829 0 689 -2 792 -15 825 -21 49 -52 81 -100 103
-38 17 -77 19 -640 18 -389 0 -611 -4 -630 -11z m1005 -928 l0 -560 -375 0
-375 0 0 560 0 560 375 0 375 0 0 -560z"/>
<path d="M1604 8611 c-23 -10 -54 -36 -70 -57 l-29 -37 -3 -811 c-1 -446 0
-821 3 -833 7 -30 61 -90 96 -109 24 -12 126 -14 649 -14 523 0 625 2 649 14
35 19 89 79 96 109 3 12 4 387 3 833 l-3 811 -29 37 c-59 78 -35 76 -716 76
-570 0 -607 -2 -646 -19z m1016 -921 l0 -560 -370 0 -370 0 0 560 0 560 370 0
370 0 0 -560z"/>
<path d="M3495 8618 c-44 -15 -101 -74 -114 -117 -8 -27 -11 -265 -11 -822 0
-744 1 -786 19 -825 10 -23 36 -54 57 -70 l37 -29 642 0 642 0 37 29 c21 16
47 47 57 70 18 39 19 81 19 829 0 689 -2 792 -15 825 -21 49 -52 81 -100 103
-38 17 -77 19 -640 18 -389 0 -611 -4 -630 -11z m1005 -928 l0 -560 -375 0
-375 0 0 560 0 560 375 0 375 0 0 -560z"/>
<path d="M1604 6361 c-23 -10 -54 -36 -70 -57 l-29 -37 0 -1392 0 -1392 29
-37 c59 -78 35 -76 716 -76 681 0 657 -2 716 76 l29 37 0 1392 0 1392 -29 37
c-59 78 -35 76 -716 76 -570 0 -607 -2 -646 -19z m1016 -1486 l0 -1125 -370 0
-370 0 0 1125 0 1125 370 0 370 0 0 -1125z"/>
<path d="M3495 6368 c-44 -15 -101 -74 -114 -117 -8 -28 -11 -406 -11 -1380 0
-1188 2 -1346 15 -1379 21 -49 52 -81 100 -103 37 -17 78 -19 640 -19 562 0
603 2 640 19 48 22 79 54 100 103 13 33 15 191 15 1383 0 1192 -2 1350 -15
1383 -21 49 -52 81 -100 103 -38 17 -77 19 -640 18 -389 0 -611 -4 -630 -11z
m1005 -1493 l0 -1125 -375 0 -375 0 0 1125 0 1125 375 0 375 0 0 -1125z"/>
<path d="M8755 8994 c-189 -27 -259 -40 -374 -70 -894 -232 -1584 -959 -1771
-1864 -41 -198 -53 -351 -48 -610 4 -199 7 -233 27 -295 83 -254 278 -442 531
-511 89 -25 290 -25 380 -1 98 27 216 90 300 160 l75 63 75 -63 c41 -35 111
-81 155 -103 116 -58 188 -74 330 -74 133 0 207 15 313 64 l62 29 0 -985 0
-984 -655 0 -655 0 0 -190 0 -190 655 0 655 0 0 -1310 0 -1310 -470 0 -470 0
0 -190 0 -190 1130 0 1130 0 0 190 0 190 -470 0 -470 0 0 1310 0 1310 655 0
655 0 0 190 0 190 -655 0 -655 0 0 985 0 985 48 -24 c102 -52 188 -71 322 -71
146 0 215 16 335 75 44 22 114 68 155 103 l75 63 75 -63 c85 -71 204 -135 300
-160 90 -24 291 -24 380 1 252 69 448 257 531 511 20 62 23 95 27 295 7 353
-28 602 -121 883 -176 526 -507 957 -976 1269 -281 186 -594 310 -936 370 -96
16 -171 21 -370 23 -137 2 -263 1 -280 -1z m443 -384 c388 -42 734 -178 1040
-407 99 -75 277 -247 355 -343 190 -236 330 -513 402 -799 45 -179 59 -309 60
-546 l0 -220 -32 -67 c-39 -82 -106 -151 -181 -186 -50 -24 -69 -27 -157 -27
-82 0 -109 4 -148 22 -70 33 -149 113 -183 186 -27 58 -29 72 -32 205 l-3 142
-194 0 -194 0 -3 -142 c-3 -133 -5 -147 -32 -205 -34 -74 -113 -154 -183 -185
-73 -33 -201 -36 -276 -8 -92 35 -155 92 -202 184 l-40 78 -3 139 -4 139 -188
0 -187 0 -5 -138 c-4 -129 -6 -142 -35 -205 -39 -81 -105 -150 -181 -185 -50
-24 -69 -27 -157 -27 -82 0 -109 4 -148 22 -70 33 -149 113 -183 186 -27 58
-29 72 -32 205 l-3 142 -194 0 -194 0 -3 -142 c-3 -133 -5 -147 -32 -205 -34
-74 -113 -154 -183 -185 -73 -33 -201 -36 -276 -8 -92 35 -155 92 -202 184
l-40 79 1 226 c0 242 13 356 60 542 123 491 432 928 857 1212 390 261 883 385
1335 337z"/>
<path d="M6718 4127 c-87 -11 -158 -24 -158 -29 0 -5 43 -352 95 -771 92 -731
97 -764 123 -806 39 -63 86 -85 195 -89 57 -3 87 -8 87 -15 0 -7 -70 -289
-155 -627 -85 -338 -151 -618 -147 -622 11 -11 362 -97 366 -89 2 3 79 309
171 679 l168 673 140 -3 140 -3 251 -670 c139 -369 255 -677 258 -687 6 -14
30 -8 185 51 135 51 177 71 175 83 -1 9 -102 281 -223 604 -122 324 -224 597
-226 607 -5 16 6 17 136 17 l141 0 0 195 0 195 -665 0 -665 0 -5 23 c-2 12
-38 299 -80 637 -42 338 -78 627 -81 643 -7 33 -5 33 -226 4z"/>
<path d="M11056 4123 c-3 -16 -39 -305 -81 -643 -42 -338 -78 -625 -80 -637
l-5 -23 -665 0 -665 0 0 -195 0 -195 159 0 159 0 -158 -631 c-106 -422 -154
-632 -146 -634 29 -11 337 -85 349 -85 11 0 59 176 183 675 l169 675 131 0
132 0 167 -672 c92 -370 169 -676 171 -679 3 -5 361 78 372 86 1 1 -67 282
-153 624 -85 341 -155 625 -155 630 0 5 39 11 88 13 108 4 155 26 194 89 26
42 31 75 123 806 52 419 95 766 95 771 0 7 -322 53 -367 52 -6 0 -14 -12 -17
-27z"/>
</g>
</svg>
