<svg version="1" xmlns="http://www.w3.org/2000/svg" width="1600" height="1600" viewBox="0 0 1200 1200"><path d="M85.4 38.9c-2.3 1-5.4 3.6-7 5.7l-2.9 3.7-.3 425.8-.2 425.7-13.3.4c-13 .3-13.5.4-17.1 3.2-7.5 5.7-7.6 5.9-7.6 52.4 0 35 .2 41.8 1.5 45 2.1 4.9 5.2 8.1 10 10.3 3.9 1.8 13.5 1.9 270.5 1.9 258.1 0 266.6-.1 270.6-1.9 2.3-1 5.4-3.6 7-5.7l2.9-3.7.3-43.6c.1-24 0-44.6-.3-45.8-.7-3-6.1-9-9.6-10.9-2-1-6.3-1.4-14.9-1.4h-12V476.2c0-409.8-.1-423.8-1.9-427.7-2.2-4.8-5.4-7.9-10.3-10-3.3-1.3-28.3-1.5-232.5-1.5-221.3 0-228.9.1-232.9 1.9zM525 487.5V900H113V75h412v412.5zm37 469V975H75v-37h487v18.5z"/><path d="M160.4 113.9c-2.3 1-5.4 3.6-7 5.7l-2.9 3.7-.3 81.1c-.1 44.6 0 82.1.3 83.3.7 3 6.1 9 9.6 10.9 2.4 1.2 12.6 1.4 64.9 1.4 52.3 0 62.5-.2 64.9-1.4 3.5-1.9 8.9-7.9 9.6-10.9.3-1.2.4-38.7.3-83.3l-.3-81.1-2.9-3.7c-5.9-7.8-3.5-7.6-71.6-7.6-57 0-60.7.2-64.6 1.9zM262 206v56h-74V150h74v56zm87.5-92.8c-4.4 1.5-10.1 7.4-11.4 11.7-.8 2.7-1.1 26.5-1.1 82.2 0 74.4.1 78.6 1.9 82.5 1 2.3 3.6 5.4 5.7 7l3.7 2.9h128.4l3.7-2.9c2.1-1.6 4.7-4.7 5.7-7 1.8-3.9 1.9-8.1 1.9-82.9 0-68.9-.2-79.2-1.5-82.5-2.1-4.9-5.2-8.1-10-10.3-3.8-1.7-7.7-1.9-64-1.8-38.9 0-61.1.4-63 1.1zM450 206v56h-75V150h75v56zM160.4 338.9c-2.3 1-5.4 3.6-7 5.7l-2.9 3.7-.3 81.1c-.1 44.6 0 82.1.3 83.3.7 3 6.1 9 9.6 10.9 2.4 1.2 12.6 1.4 64.9 1.4 52.3 0 62.5-.2 64.9-1.4 3.5-1.9 8.9-7.9 9.6-10.9.3-1.2.4-38.7.3-83.3l-.3-81.1-2.9-3.7c-5.9-7.8-3.5-7.6-71.6-7.6-57 0-60.7.2-64.6 1.9zM262 431v56h-74V375h74v56zm87.5-92.8c-4.4 1.5-10.1 7.4-11.4 11.7-.8 2.7-1.1 26.5-1.1 82.2 0 74.4.1 78.6 1.9 82.5 1 2.3 3.6 5.4 5.7 7l3.7 2.9h128.4l3.7-2.9c2.1-1.6 4.7-4.7 5.7-7 1.8-3.9 1.9-8.1 1.9-82.9 0-68.9-.2-79.2-1.5-82.5-2.1-4.9-5.2-8.1-10-10.3-3.8-1.7-7.7-1.9-64-1.8-38.9 0-61.1.4-63 1.1zM450 431v56h-75V375h75v56zM160.4 563.9c-2.3 1-5.4 3.6-7 5.7l-2.9 3.7v278.4l2.9 3.7c5.9 7.8 3.5 7.6 71.6 7.6s65.7.2 71.6-7.6l2.9-3.7V573.3l-2.9-3.7c-5.9-7.8-3.5-7.6-71.6-7.6-57 0-60.7.2-64.6 1.9zM262 712.5V825h-74V600h74v112.5zm87.5-149.3c-4.4 1.5-10.1 7.4-11.4 11.7-.8 2.8-1.1 40.6-1.1 138 0 118.8.2 134.6 1.5 137.9 2.1 4.9 5.2 8.1 10 10.3 3.7 1.7 7.8 1.9 64 1.9s60.3-.2 64-1.9c4.8-2.2 7.9-5.4 10-10.3 1.3-3.3 1.5-19.1 1.5-138.3 0-119.2-.2-135-1.5-138.3-2.1-4.9-5.2-8.1-10-10.3-3.8-1.7-7.7-1.9-64-1.8-38.9 0-61.1.4-63 1.1zM450 712.5V825h-75V600h75v112.5zm425.5-411.9c-18.9 2.7-25.9 4-37.4 7C748.7 330.8 679.7 403.5 661 494c-4.1 19.8-5.3 35.1-4.8 61 .4 19.9.7 23.3 2.7 29.5 8.3 25.4 27.8 44.2 53.1 51.1 8.9 2.5 29 2.5 38 .1 9.8-2.7 21.6-9 30-16l7.5-6.3 7.5 6.3c4.1 3.5 11.1 8.1 15.5 10.3 11.6 5.8 18.8 7.4 33 7.4 13.3 0 20.7-1.5 31.3-6.4l6.2-2.9V825H750v38h131v262h-94v38h226v-38h-94V863h131v-38H919V628l4.8 2.4c10.2 5.2 18.8 7.1 32.2 7.1 14.6 0 21.5-1.6 33.5-7.5 4.4-2.2 11.4-6.8 15.5-10.3l7.5-6.3 7.5 6.3c8.5 7.1 20.4 13.5 30 16 9 2.4 29.1 2.4 38-.1 25.2-6.9 44.8-25.7 53.1-51.1 2-6.2 2.3-9.5 2.7-29.5.7-35.3-2.8-60.2-12.1-88.3-17.6-52.6-50.7-95.7-97.6-126.9-28.1-18.6-59.4-31-93.6-37-9.6-1.6-17.1-2.1-37-2.3-13.7-.2-26.3-.1-28 .1zm44.3 38.4c38.8 4.2 73.4 17.8 104 40.7 9.9 7.5 27.7 24.7 35.5 34.3 19 23.6 33 51.3 40.2 79.9 4.5 17.9 5.9 30.9 6 54.6v22l-3.2 6.7c-3.9 8.2-10.6 15.1-18.1 18.6-5 2.4-6.9 2.7-15.7 2.7-8.2 0-10.9-.4-14.8-2.2-7-3.3-14.9-11.3-18.3-18.6-2.7-5.8-2.9-7.2-3.2-20.5l-.3-14.2h-38.8l-.3 14.2c-.3 13.3-.5 14.7-3.2 20.5-3.4 7.4-11.3 15.4-18.3 18.5-7.3 3.3-20.1 3.6-27.6.8-9.2-3.5-15.5-9.2-20.2-18.4l-4-7.8-.3-13.9-.4-13.9h-37.5l-.5 13.8c-.4 12.9-.6 14.2-3.5 20.5-3.9 8.1-10.5 15-18.1 18.5-5 2.4-6.9 2.7-15.7 2.7-8.2 0-10.9-.4-14.8-2.2-7-3.3-14.9-11.3-18.3-18.6-2.7-5.8-2.9-7.2-3.2-20.5l-.3-14.2h-38.8l-.3 14.2c-.3 13.3-.5 14.7-3.2 20.5-3.4 7.4-11.3 15.4-18.3 18.5-7.3 3.3-20.1 3.6-27.6.8-9.2-3.5-15.5-9.2-20.2-18.4l-4-7.9.1-22.6c0-24.2 1.3-35.6 6-54.2 12.3-49.1 43.2-92.8 85.7-121.2 39-26.1 88.3-38.5 133.5-33.7z"/><path d="M671.8 787.3c-8.7 1.1-15.8 2.4-15.8 2.9s4.3 35.2 9.5 77.1c9.2 73.1 9.7 76.4 12.3 80.6 3.9 6.3 8.6 8.5 19.5 8.9 5.7.3 8.7.8 8.7 1.5s-7 28.9-15.5 62.7c-8.5 33.8-15.1 61.8-14.7 62.2 1.1 1.1 36.2 9.7 36.6 8.9.2-.3 7.9-30.9 17.1-67.9l16.8-67.3 14 .3 14 .3 25.1 67c13.9 36.9 25.5 67.7 25.8 68.7.6 1.4 3 .8 18.5-5.1 13.5-5.1 17.7-7.1 17.5-8.3-.1-.9-10.2-28.1-22.3-60.4-12.2-32.4-22.4-59.7-22.6-60.7-.5-1.6.6-1.7 13.6-1.7H844v-39H711l-.5-2.3c-.2-1.2-3.8-29.9-8-63.7-4.2-33.8-7.8-62.7-8.1-64.3-.7-3.3-.5-3.3-22.6-.4zm433.8.4c-.3 1.6-3.9 30.5-8.1 64.3-4.2 33.8-7.8 62.5-8 63.7l-.5 2.3H956v39h31.8l-15.8 63.1c-10.6 42.2-15.4 63.2-14.6 63.4 2.9 1.1 33.7 8.5 34.9 8.5 1.1 0 5.9-17.6 18.3-67.5l16.9-67.5h26.3l16.7 67.2c9.2 37 16.9 67.6 17.1 67.9.3.5 36.1-7.8 37.2-8.6.1-.1-6.7-28.2-15.3-62.4-8.5-34.1-15.5-62.5-15.5-63s3.9-1.1 8.8-1.3c10.8-.4 15.5-2.6 19.4-8.9 2.6-4.2 3.1-7.5 12.3-80.6 5.2-41.9 9.5-76.6 9.5-77.1 0-.7-32.2-5.3-36.7-5.2-.6 0-1.4 1.2-1.7 2.7z"/></svg>