<svg width="70" height="58" viewBox="0 0 70 58" xmlns="http://www.w3.org/2000/svg" xmlns:xlink="http://www.w3.org/1999/xlink"><defs><path id="a" d="M69.867 56.245H0V.001h69.867z"/></defs><g fill="none" fill-rule="evenodd"><path stroke="#000" d="M-54.5-25.735h730v4639h-730z"/><g transform="translate(0 .765)"><mask id="b" fill="#fff"><use xlink:href="#a"/></mask><path d="M66.963 30.626c-.358-.313-1.996-.747-4.469-.149-2.474.597-3.733 1.727-3.91 2.169.359.311 1.993.746 4.469.15 2.473-.597 3.733-1.729 3.91-2.17zm-56.689 4.859a.775.775 0 0 0-.976-.008.78.78 0 0 0-.145 1.05c.012.018.015.039.03.057a.787.787 0 0 0 1.222-.99c-.037-.046-.087-.074-.13-.11zm20.887-2.878c.054-.05.102-.107.156-.158.269-.26.53-.53.78-.815.032-.037.06-.077.093-.115 2.142-2.51 3.467-5.896 3.467-9.628 0-.096-.006-.191-.012-.286a8.208 8.208 0 0 1-.013-.268l-.011-.343.188-.287a14.018 14.018 0 0 0 1.769-3.85l.66-2.311 2.89 4.526c.394.62.9.879 1.421.732.627-.177 1.312-.975 1.334-2.31.029-1.674.09-3.24.182-4.653.296-4.591-6.527-6.88-9.474-7.65l-.194-.051-.163-.118c-2.601-1.87-6.445-2.857-11.114-2.857-4.67 0-8.512.988-11.113 2.857l-.163.118-.195.05c-2.947.77-9.77 3.06-9.474 7.652a95.91 95.91 0 0 1 .18 4.653c.023 1.333.708 2.132 1.336 2.309.523.149 1.026-.112 1.421-.73L8 14.543l.66 2.312a13.97 13.97 0 0 0 1.772 3.85l.189.288-.025.608a4.27 4.27 0 0 0-.012.29c0 3.786 1.361 7.222 3.56 9.742a13.223 13.223 0 0 0 1.675 1.602c2.059 1.654 4.577 2.64 7.302 2.64 2.725 0 5.243-.986 7.302-2.64.252-.202.501-.407.739-.629zm4.79 4.093a.788.788 0 0 0 1.107-.116c.014-.018.017-.039.03-.057a.781.781 0 0 0-.147-1.05.775.775 0 0 0-.975.008c-.045.035-.094.063-.131.109a.786.786 0 0 0 .116 1.106zm-2.287 2.817a.785.785 0 1 0-1.556-.231.786.786 0 1 0 1.556.23zm-21.089 0a.786.786 0 1 0 1.556-.23.786.786 0 0 0-1.556.23zm55.497-5.89c-1.104.864-2.646 1.566-4.342 1.974-1.074.26-2.098.383-3.034.383-1.402 0-2.596-.287-3.474-.808-3.39 4.267-7.187 6.436-11.313 6.442h-.014c-1.414 0-2.769-.261-4.047-.689 2.402 4.087 3.806 8.998 3.806 14.277a1.083 1.083 0 0 1-2.165 0c0-6.306-2.16-12.037-5.668-16.268-.145-.175-.29-.35-.441-.52-.036.049-.082.094-.12.141-1.475 1.884-4.12 3.367-7.494 4.212v-2.598a1.58 1.58 0 0 0-1.254-1.555c2.824-.676 4.757-1.807 5.444-2.831.08-.122.146-.24.191-.358-.49-.365-.993-.709-1.51-1.027l-.14-.083c-2.547 2.323-5.816 3.722-9.377 3.722-3.561 0-6.83-1.399-9.377-3.722a19.85 19.85 0 0 0-1.65 1.11c.43 1.107 2.476 2.433 5.635 3.19-.157.035-.31.087-.455.17-.5.29-.798.806-.798 1.384v2.598c-3.46-.866-6.163-2.4-7.615-4.353-3.767 4.274-6.11 10.22-6.11 16.788a1.083 1.083 0 0 1-2.164 0c0-7.46 2.802-14.185 7.267-18.885a5.246 5.246 0 0 1-.184-1.312c0-1.195.97-2.165 2.165-2.165.54 0 1.028.205 1.407.532.321-.228.647-.448.98-.659-2.363-2.865-3.803-6.664-3.803-10.826 0-.1.004-.199.009-.298a16.222 16.222 0 0 1-1.073-2.01l-.416.653c-.91 1.43-2.38 2.062-3.836 1.65-1.706-.48-2.875-2.23-2.912-4.354a93.514 93.514 0 0 0-.177-4.549C-.378 6.892 7.35 4.104 10.91 3.147 13.873 1.087 18.089 0 23.12 0c5.03 0 9.247 1.088 12.211 3.147 3.56.957 11.288 3.745 10.894 9.835a96.53 96.53 0 0 0-.177 4.55c-.035 2.122-1.204 3.872-2.91 4.354-1.456.414-2.926-.22-3.836-1.65l-.417-.654a16.093 16.093 0 0 1-1.073 2.011c.005.1.01.199.01.298 0 3.88-1.252 7.444-3.336 10.232.26.3.56.633.9.988a2.15 2.15 0 0 1 1.02-.267c1.196 0 2.165.97 2.165 2.165 0 .297-.026.59-.075.878 2.086 1.55 4.65 2.845 7.399 2.845l.02-.001c3.475-.008 6.763-2.137 9.779-6.317.077-.763.489-1.755 1.781-2.769 1.103-.863 2.646-1.566 4.342-1.974 1.697-.41 3.388-.489 4.766-.222 2.38.462 3.033 1.762 3.21 2.494.177.734.188 2.188-1.721 3.684zm-39.754 6.287a.292.292 0 0 0-.299 0l-3.425 1.978h-2.947l-3.427-1.978a.288.288 0 0 0-.297.001.287.287 0 0 0-.15.258v5.445c0 .149.094.226.15.258a.287.287 0 0 0 .297 0l3.427-1.978h2.947l3.425 1.979a.29.29 0 0 0 .299-.001.288.288 0 0 0 .148-.258v-5.445a.289.289 0 0 0-.148-.259zm-4.073.679l2.966-1.712c-1.24.214-2.606.344-4.09.344-1.487 0-2.853-.13-4.093-.344l2.966 1.712h2.251zm2.942-9.877c-.115.08-.24.161-.368.24-.557.338-1.21.601-1.694.379-.272-.125-.486-.389-.659-.698-.03-.055-.062-.107-.09-.164.745-.133 1.41-.38 1.938-.71.791-.491 1.28-1.165 1.28-1.908 0-1.507-2.003-2.729-4.474-2.729s-4.475 1.222-4.475 2.729c0 .743.49 1.417 1.28 1.909.53.33 1.194.576 1.939.71-.028.056-.06.108-.09.162-.174.31-.387.574-.66.699-.483.222-1.137-.04-1.692-.38a6.944 6.944 0 0 1-.369-.24.867.867 0 0 0-1.207.207.835.835 0 0 0-.142.455.852.852 0 0 0 .348.752c.103.073.203.128.306.193.844.543 1.635.83 2.356.83.396 0 .772-.082 1.126-.244.553-.255.966-.676 1.28-1.15.313.474.728.895 1.28 1.15.355.162.73.245 1.125.245.723 0 1.512-.288 2.357-.831.102-.065.202-.12.306-.193a.852.852 0 0 0 .348-.752.835.835 0 0 0-.142-.455.867.867 0 0 0-1.207-.206zm2-16.773a1.976 1.976 0 1 0 .001 3.952 1.976 1.976 0 0 0 0-3.952zm-12.135 3.952a1.976 1.976 0 1 1 .001-3.952 1.976 1.976 0 0 1-.001 3.952z" fill="#000" mask="url(#b)"/></g></g></svg>
