<?xml version="1.0" encoding="UTF-8"?>
<svg width="39px" height="47px" viewBox="0 0 39 47" version="1.1" xmlns="http://www.w3.org/2000/svg" xmlns:xlink="http://www.w3.org/1999/xlink">
    <!-- Generator: Sketch 47 (45396) - http://www.bohemiancoding.com/sketch -->
    <title>Index_Mobile_plan_anchor</title>
    <desc>Created with Sketch.</desc>
    <defs>
        <polygon id="path-1" points="0 46.7021416 38.97 46.7021416 38.97 0 0 0"></polygon>
    </defs>
    <g id="Move.mil-Index" stroke="none" stroke-width="1" fill="none" fill-rule="evenodd">
        <g id="Index_Mobile" transform="translate(-15.000000, -564.000000)">
            <g id="Group-5" transform="translate(15.000000, 564.000000)">
                <g id="noun_1236058">
                    <polygon id="Fill-1" fill="#0071BC" points="1.97 20.7987325 4.97 20.7987325 4.97 15.663243 1.97 15.663243"></polygon>
                    <g id="Group-8">
                        <mask id="mask-2" fill="white">
                            <use xlink:href="#path-1"></use>
                        </mask>
                        <g id="Clip-3"></g>
                        <polygon id="Fill-2" fill="#0071BC" mask="url(#mask-2)" points="1.97 31.0697115 4.97 31.0697115 4.97 25.934222 1.97 25.934222"></polygon>
                        <polyline id="Fill-4" fill="#0071BC" mask="url(#mask-2)" points="38.97 0 1.97 0 1.97 10.5277535 4.975 10.5277535 4.975 3.08129371 35.97 3.08129371 35.97 43.6516608 4.975 43.6516608 4.975 36.205201 1.97 36.205201 1.97 46.7329545 38.97 46.7329545 38.97 0"></polyline>
                        <polygon id="Fill-5" fill="#0071BC" mask="url(#mask-2)" points="0 14.666958 6.875 14.666958 6.875 11.5856643 0 11.5856643"></polygon>
                        <polygon id="Fill-6" fill="#0071BC" mask="url(#mask-2)" points="0 24.9379371 6.875 24.9379371 6.875 21.8566434 0 21.8566434"></polygon>
                        <polygon id="Fill-7" fill="#0071BC" mask="url(#mask-2)" points="0 35.2089161 6.875 35.2089161 6.875 32.1276224 0 32.1276224"></polygon>
                    </g>
                    <path d="M13.26,21.6974432 L29.635,21.6974432 L29.635,14.5077579 L13.26,14.5077579 L13.26,21.6974432 Z M10.26,24.7787369 L32.635,24.7787369 L32.635,11.4264642 L10.26,11.4264642 L10.26,24.7787369 Z" id="Fill-9" fill="#0071BC"></path>
                </g>
            </g>
        </g>
    </g>
</svg>