<svg width="83" height="87" viewBox="0 0 83 87" xmlns="http://www.w3.org/2000/svg" xmlns:xlink="http://www.w3.org/1999/xlink"><defs><path id="a" d="M0 74.525h63.871V0H0z"/></defs><g fill="none" fill-rule="evenodd"><path fill="#205493" d="M11.229 38.19h4.917v-8.195h-4.917z"/><g transform="translate(8 5)"><mask id="b" fill="#fff"><use xlink:href="#a"/></mask><path fill="#205493" mask="url(#b)" d="M3.229 49.58h4.917v-8.196H3.229z"/><path fill="#205493" mask="url(#b)" d="M63.871 0H3.23v16.8h4.925V4.917h50.8v64.74h-50.8V57.774H3.229v16.8H63.87V0"/><path fill="#205493" mask="url(#b)" d="M0 23.405h11.268v-4.917H0zm0 16.39h11.268v-4.917H0zm0 16.389h11.268v-4.917H0z"/></g><path d="M29.733 39.624h26.838V28.15H29.733v11.473zm-4.917 4.917h36.672V23.234H24.816V44.54z" fill="#205493"/></g></svg>
