<svg width="65" height="34" viewBox="0 0 65 34" xmlns="http://www.w3.org/2000/svg" xmlns:xlink="http://www.w3.org/1999/xlink"><title>move_day_playDate</title><defs><path id="a" d="M.018 33.973V.175H64.81v33.798z"/></defs><g fill="none" fill-rule="evenodd"><g><mask id="b" fill="#fff"><use xlink:href="#a"/></mask><path d="M9.162 17.168c-1.321-1.188-2.033-2.36-2.22-2.69a2.082 2.082 0 0 1-.182-1.604 2.089 2.089 0 0 1 3.829-.425l.036.058.02.033c.046.074.13.2.243.354.216.292.573.73 1.06 1.166.026.023.053.042.079.064.562-1.727.06-3.694-1.51-4.296-1.783-.685-4.634-.17-6.233 2.53-2.175 3.726-2.946 6.245-3.149 10.666.114 2.948 2.061 3.77 3.914 4.094l1.832 2.101H2.385a2.385 2.385 0 1 0 0 4.772h9.74a2.386 2.386 0 0 0 1.798-3.953l-5.076-5.823c.134-2.034.803-4.16 1.542-6.088a11.12 11.12 0 0 1-1.227-.959" fill="#0071BC" mask="url(#b)"/><path d="M10.41 13.249a6.727 6.727 0 0 1-.332-.494l-.01-.017a1.491 1.491 0 0 0-2.612 1.437c.054.094.718 1.302 2.106 2.55 1.375 1.24 3.556 2.536 6.458 2.536h.01c1.383.001 2.903-.293 4.53-.97a1.49 1.49 0 0 0-1.145-2.753c-1.306.543-2.422.74-3.385.742-2-.003-3.449-.861-4.478-1.775a8.393 8.393 0 0 1-1.143-1.256M10.081 4.57a5.218 5.218 0 1 1 10.305 1.647A5.218 5.218 0 0 1 10.081 4.57M43.57 21.534c1.135-.743 1.79-1.513 1.817-1.546a2.09 2.09 0 0 1 2.928-.3 2.091 2.091 0 0 1 .309 2.937c-.21.254-.905 1.046-2.071 1.915.175.028.352.05.531.056 2.108.28 4.938.548 7.495 1.335l-3.668 4.08a2.385 2.385 0 1 0 1.774 3.98h9.74a2.386 2.386 0 0 0 0-4.771h-4.389l1.605-1.784c.076-.084.141-.174.203-.265.429-.331.714-.938 1.047-1.755.76-1.867 1.34-4.234-1.414-5.952-3.939-2.017-6.508-2.598-10.822-2.558-3.139.049-5 2.268-5.29 4.156a2.467 2.467 0 0 0-.014.607c.072-.046.147-.087.22-.135" fill="#0071BC" mask="url(#b)"/></g><path d="M47.94 20.152a1.49 1.49 0 0 0-2.094.217l-.003.003v.001c-.06.07-.763.886-1.945 1.66-1.219.798-2.909 1.547-4.982 1.547-1.132 0-2.393-.22-3.806-.806a1.491 1.491 0 0 0-1.145 2.754c1.753.728 3.42 1.034 4.941 1.034h.01c2.9 0 5.209-1.082 6.767-2.136 1.563-1.058 2.412-2.1 2.476-2.177.519-.64.42-1.578-.22-2.097M37.225 9.784a5.218 5.218 0 1 1 1.648 10.305 5.218 5.218 0 0 1-1.648-10.305M19.083 33.892h4.671V29.22h-4.671zM22.462 28.325h8.945v-1.888h-8.945zM20.773 25.592h8.944v-1.888h-8.944zM24.848 33.892h4.67V29.22h-4.67zM30.612 33.892h4.671V29.22h-4.671zM27.928 15.802H26.14l-2.534 6.858h6.858l-2.535-6.858" fill="#0071BC"/></g></svg>