<svg width="60" height="52" viewBox="0 0 60 52" xmlns="http://www.w3.org/2000/svg" xmlns:xlink="http://www.w3.org/1999/xlink"><defs><path id="a" d="M0 50.364h60V.211H0z"/></defs><g fill="none" fill-rule="evenodd"><path stroke="#000" d="M-57.5-2061.735h730v4639h-730z"/><g transform="translate(0 .765)"><mask id="b" fill="#fff"><use xlink:href="#a"/></mask><path d="M50.564 30.736c-2.316.006-4.18-1.913-4.192-4.272.012-2.376 1.876-4.298 4.192-4.277 2.277-.02 4.14 1.9 4.154 4.277-.015 2.359-1.877 4.277-4.154 4.272zM30 17.309H10.525l3.709-10c.447-1.42 1.142-2.436 2.783-2.46h25.967c1.616.024 2.312 1.04 2.782 2.46l3.71 10H30zM9.436 30.736c-2.3.006-4.163-1.913-4.153-4.272-.01-2.376 1.853-4.298 4.153-4.277 2.293-.02 4.156 1.9 4.153 4.277.003 2.359-1.86 4.277-4.153 4.272zm45.119-13.307l-4.918-12.7c-.92-2.432-2.93-4.5-6.734-4.518H17.056C13.27.23 11.26 2.297 10.323 4.73l-4.92 12.7C3.452 17.68-.005 19.976 0 24.323v16.17h4.8v5.163c-.013 6.363 8.993 6.287 8.99 0v-5.163h32.38v5.163c.02 6.287 9.025 6.363 9.031 0v-5.163H60v-16.17c-.015-4.347-3.474-6.642-5.445-6.894z" fill="#000" mask="url(#b)"/></g></g></svg>
