<svg width="54" height="44" viewBox="0 0 54 44" xmlns="http://www.w3.org/2000/svg"><title>Tools&amp;Reources_PPMReimbursement</title><g fill="none" fill-rule="evenodd"><path d="M42.319 35.672c1.762 0 3.189 1.416 3.189 3.164 0 1.747-1.427 3.164-3.19 3.164-1.76 0-3.188-1.417-3.188-3.164 0-1.748 1.428-3.164 3.189-3.164zm-19.362 0c1.76 0 3.189 1.416 3.189 3.164 0 1.747-1.428 3.164-3.19 3.164-1.761 0-3.188-1.417-3.188-3.164 0-1.748 1.427-3.164 3.189-3.164zm-9.681 0c1.76 0 3.189 1.416 3.189 3.164 0 1.747-1.429 3.164-3.19 3.164s-3.188-1.417-3.188-3.164c0-1.748 1.427-3.164 3.189-3.164zm29.043 0H52v3.164h-6.492a3.17 3.17 0 0 0-3.19-3.164zm-19.362 0h19.362a3.17 3.17 0 0 0-3.19 3.164H26.147a3.17 3.17 0 0 0-3.19-3.164zm-9.681 0h9.68a3.17 3.17 0 0 0-3.188 3.164h-3.19c-.113-1.695-1.48-3.164-3.302-3.164zm-6.492 0h6.492a3.17 3.17 0 0 0-3.19 3.164H6.898l-.113-3.164zm27.448 0h16.173v-4.858l-6.492-1.582-1.594-6.328h-8.087v12.768zm9.681-6.44h-5.58v-6.328 6.328h5.58zM27.285 13.299c-.342 1.695-1.253 3.277-2.506 4.633l-6.606 6.554-6.606-6.554A8.893 8.893 0 0 1 9.062 13.3H2v22.373h32.232V13.3h-6.947zm-2.506-8.587c-3.645-3.616-9.567-3.616-13.212 0a9.223 9.223 0 0 0 0 13.107l6.606 6.554 6.606-6.554c3.645-3.503 3.645-9.491 0-13.107z" stroke="#0071BC" stroke-width="2.5" stroke-linecap="round" stroke-linejoin="round"/><path d="M19.492 9.141a3.05 3.05 0 0 0-.693-.502 1.671 1.671 0 0 0-.758-.168c-.321 0-.565.068-.733.202-.168.133-.253.351-.253.655 0 .213.086.394.26.54.172.148.39.288.652.421.262.135.544.273.847.415.3.143.583.316.845.522.261.205.479.452.652.741.173.29.26.648.26 1.077 0 .641-.173 1.192-.52 1.65-.346.459-.865.764-1.558.915V17h-1.292v-1.337a4.748 4.748 0 0 1-1.23-.327 3.621 3.621 0 0 1-1.114-.689l.853-1.323c.337.259.659.453.965.582a2.4 2.4 0 0 0 .94.193c.372 0 .646-.075.818-.227.174-.151.26-.383.26-.695a.77.77 0 0 0-.26-.589 3.39 3.39 0 0 0-.652-.46 16.823 16.823 0 0 0-.847-.441 4.688 4.688 0 0 1-.844-.529 2.776 2.776 0 0 1-.653-.72c-.173-.278-.26-.616-.26-1.017 0-.66.18-1.205.54-1.637.36-.433.854-.711 1.484-.837V5.571h1.292v1.35a2.93 2.93 0 0 1 1.119.389c.32.195.607.431.866.707l-.986 1.124" fill="#0071BC"/></g></svg>