<?xml version="1.0" standalone="no"?>
<!DOCTYPE svg PUBLIC "-//W3C//DTD SVG 20010904//EN"
 "http://www.w3.org/TR/2001/REC-SVG-20010904/DTD/svg10.dtd">
<svg version="1.0" xmlns="http://www.w3.org/2000/svg"
 width="1200.000000pt" height="1200.000000pt" viewBox="0 0 1200.000000 1200.000000"
 preserveAspectRatio="xMidYMid meet">
<metadata>
Created by potrace 1.15, written by Peter Selinger 2001-2017
</metadata>
<g transform="translate(0.000000,1200.000000) scale(0.100000,-0.100000)"
fill="#000000" stroke="none">
<path d="M2520 10860 l0 -1140 240 0 240 0 0 900 0 900 3000 0 3000 0 0 -900
0 -900 240 0 240 0 0 1140 0 1140 -3480 0 -3480 0 0 -1140z"/>
<path d="M0 6600 l0 -2880 1140 0 1140 0 0 600 0 600 -540 0 -540 0 0 1680 0
1680 4800 0 4800 0 0 -1680 0 -1680 -540 0 -540 0 0 -600 0 -600 1140 0 1140
0 0 2880 0 2880 -6000 0 -6000 0 0 -2880z m11640 2280 l0 -240 -240 0 -240 0
0 240 0 240 240 0 240 0 0 -240z"/>
<path d="M2520 4498 l0 -2103 1197 -1197 1198 -1198 2282 0 2283 0 0 3300 0
3300 -240 0 -240 0 0 -3060 0 -3060 -1860 0 -1860 0 0 1140 0 1140 -1140 0
-1140 0 0 1920 0 1920 -240 0 -240 0 0 -2102z"/>
<path d="M3720 6420 l0 -180 2280 0 2280 0 0 180 0 180 -2280 0 -2280 0 0
-180z"/>
<path d="M3720 5100 l0 -180 2280 0 2280 0 0 180 0 180 -2280 0 -2280 0 0
-180z"/>
<path d="M3720 3780 l0 -180 2280 0 2280 0 0 180 0 180 -2280 0 -2280 0 0
-180z"/>
</g>
</svg>
