<?xml version="1.0" encoding="UTF-8"?>
<svg width="34px" height="44px" viewBox="0 0 34 44" version="1.1" xmlns="http://www.w3.org/2000/svg" xmlns:xlink="http://www.w3.org/1999/xlink">
    <!-- Generator: Sketch 47 (45396) - http://www.bohemiancoding.com/sketch -->
    <title>ProTip</title>
    <desc>Created with Sketch.</desc>
    <defs></defs>
    <g id="What-to-expect---Civilians" stroke="none" stroke-width="1" fill="none" fill-rule="evenodd">
        <g id="WhattoExpectRETIREMENT_Desktop" transform="translate(-632.000000, -2021.000000)">
            <g id="Group-5" transform="translate(621.000000, 2016.000000)">
                <g id="Group-4" transform="translate(16.000000, 12.000000)" stroke="#0071BC" stroke-width="2" stroke-linecap="round" stroke-linejoin="round">
                    <path d="M15.4686804,24 C15.4686804,19.2500304 17.685524,18.0000385 17.685524,18.0000385 C20.7644734,14.8750585 20.9171893,9.96758995 17.840703,6.84260998 C14.7627389,3.71913001 9.77287023,3.71913001 6.69490606,6.84260998 C3.61595662,9.96758995 3.76867251,14.8750585 6.84762195,18.0000385 C6.84762195,18.0000385 9.06446555,19.2500304 9.06446555,24 L15.4686804,24 Z M14.1253355,30 L11.1515806,30 L14.1253355,30 Z M14.8687742,27 L9.66470321,27 L14.8687742,27 Z M11.8950193,0 L11.8950193,1.5 L11.8950193,0 Z M0,12 L1.48687742,12 L0,12 Z M23.7900387,12 L24.5334774,12 L23.7900387,12 Z M2.97375483,21 L3.71719354,20.25 L2.97375483,21 Z M20.0728451,3.75 L20.8162838,3 L20.0728451,3.75 Z M2.97375483,3 L3.71719354,3.75 L2.97375483,3 Z M20.0728451,20.25 L20.8162838,21 L20.0728451,20.25 Z" id="noun_950363"></path>
                </g>
                <rect id="Rectangle-7" stroke="#DCE4EF" x="0.5" y="0.5" width="671" height="116"></rect>
            </g>
        </g>
    </g>
</svg>