<svg width="34" height="44" viewBox="0 0 34 44" xmlns="http://www.w3.org/2000/svg"><g fill="none" fill-rule="evenodd"><path d="M20.469 31c0-4.75 2.217-6 2.217-6 3.078-3.125 3.231-8.032.155-11.157a7.8 7.8 0 0 0-11.146 0c-3.079 3.125-2.926 8.032.153 11.157 0 0 2.216 1.25 2.216 6h6.405zm-1.344 6h-2.973 2.973zm.744-3h-5.204 5.204zM16.895 7v1.5V7zM5 19h1.487H5zm23.79 0h.743-.743zM7.974 28l.743-.75-.743.75zm17.099-17.25l.743-.75-.743.75zM7.973 10l.744.75-.743-.75zm17.1 17.25l.743.75-.743-.75z" stroke="#0071BC" stroke-width="2" stroke-linecap="round" stroke-linejoin="round"/><path stroke="#DCE4EF" d="M-10.5-4.5h671v116h-671z"/></g></svg>
