<svg width="42" height="47" viewBox="0 0 42 47" xmlns="http://www.w3.org/2000/svg" xmlns:xlink="http://www.w3.org/1999/xlink"><defs><path id="a" d="M.029 46.762h41.38V.02H.028z"/></defs><g fill="none" fill-rule="evenodd"><mask id="b" fill="#fff"><use xlink:href="#a"/></mask><path d="M38.52 17.411V41.29c0 1.374-1.078 2.487-2.408 2.487H5.296c-1.329 0-2.407-1.113-2.407-2.487V10.944c0-1.373 1.078-2.487 2.407-2.487h.482v1.492c0 .825.647 1.493 1.444 1.493H13c.798 0 1.445-.668 1.445-1.493V8.457h13v1.492c0 .825.647 1.493 1.445 1.493h5.778c.797 0 1.444-.668 1.444-1.493V8.457c1.33 0 2.407 1.114 2.407 2.487v6.467zM8.666 4.477c0-.824.647-1.492 1.444-1.492.798 0 1.445.668 1.445 1.492v3.98h-2.89v-3.98zm21.667 0c0-.824.647-1.492 1.445-1.492.797 0 1.444.668 1.444 1.492v3.98h-2.889v-3.98zm5.778.995v-.995c0-2.473-1.94-4.477-4.333-4.477-2.394 0-4.334 2.004-4.334 4.477v.995h-13v-.995C14.445 2.004 12.505 0 10.11 0 7.718 0 5.778 2.004 5.778 4.477v.995h-.482C2.371 5.472 0 7.922 0 10.944V41.29c0 3.022 2.371 5.472 5.296 5.472h30.816c2.925 0 5.296-2.45 5.296-5.472V10.944c0-3.022-2.37-5.472-5.296-5.472z" fill="#0071BC" mask="url(#b)"/><path fill="#0071BC" d="M11.24 20.487h2.957v-3.013H11.24zm-5.325 0h2.958v-3.013H5.915zm21.296 0h2.958v-3.013h-2.958zm-5.324 0h2.958v-3.013h-2.958zm11.24 0h2.958v-3.013h-2.958zm-16.564 0h2.958v-3.013h-2.958zm.475 6.415l-5.846 5.75-3.386-3.33a1.494 1.494 0 0 0-2.086.072 1.435 1.435 0 0 0 0 1.98l4.429 4.355c.576.566 1.51.566 2.086 0l6.89-6.775a1.435 1.435 0 0 0-.074-2.052 1.495 1.495 0 0 0-2.013 0m16.997 1.418h-10.69c-.805 0-1.458.675-1.458 1.507 0 .832.653 1.506 1.458 1.506h10.69c.805 0 1.458-.674 1.458-1.506s-.653-1.506-1.458-1.506m0 6.628h-10.69c-.805 0-1.458.674-1.458 1.506s.653 1.507 1.458 1.507h10.69c.805 0 1.458-.675 1.458-1.507 0-.832-.653-1.506-1.458-1.506"/></g></svg>
