<svg width="83" height="93" viewBox="0 0 83 93" xmlns="http://www.w3.org/2000/svg" xmlns:xlink="http://www.w3.org/1999/xlink"><defs><path id="a" d="M.049 77.605H70V.033H.049z"/></defs><g fill="none" fill-rule="evenodd"><g transform="translate(7 8)"><mask id="b" fill="#fff"><use xlink:href="#a"/></mask><path d="M65.116 28.895v39.628c0 2.28-1.821 4.128-4.07 4.128H8.954c-2.247 0-4.07-1.847-4.07-4.128v-50.36c0-2.28 1.823-4.128 4.07-4.128h.814v2.477c0 1.368 1.094 2.476 2.442 2.476h9.768c1.348 0 2.442-1.108 2.442-2.476v-2.477h21.976v2.477c0 1.368 1.093 2.476 2.442 2.476h9.768c1.348 0 2.442-1.108 2.442-2.476v-2.477c2.248 0 4.07 1.848 4.07 4.128v10.732zM14.651 7.43c0-1.368 1.093-2.477 2.442-2.477 1.349 0 2.442 1.11 2.442 2.477v6.605H14.65V7.43zm36.628 0c0-1.368 1.093-2.477 2.442-2.477 1.349 0 2.442 1.11 2.442 2.477v6.605h-4.884V7.43zm9.768 1.651v-1.65C61.047 3.325 57.767 0 53.72 0c-4.046 0-7.326 3.326-7.326 7.43v1.651H24.42v-1.65C24.42 3.326 21.14 0 17.094 0c-4.046 0-7.326 3.326-7.326 7.43v1.651h-.814C4.01 9.081 0 13.147 0 18.163v50.36c0 5.016 4.009 9.082 8.953 9.082h52.094c4.944 0 8.953-4.066 8.953-9.082v-50.36c0-5.016-4.009-9.082-8.953-9.082z" fill="#205493" mask="url(#b)"/></g><path fill="#205493" d="M26 42h5v-5h-5zm-9 0h5v-5h-5zm36 0h5v-5h-5zm-9 0h5v-5h-5zm19 0h5v-5h-5zm-28 0h5v-5h-5zm.803 10.646l-9.883 9.541-5.723-5.525a2.559 2.559 0 0 0-3.528.12 2.35 2.35 0 0 0 0 3.285l7.488 7.228a2.56 2.56 0 0 0 3.527 0L39.33 56.052a2.35 2.35 0 0 0-.125-3.406 2.562 2.562 0 0 0-3.402 0M64.536 55H46.464C45.104 55 44 56.12 44 57.5s1.103 2.5 2.464 2.5h18.072C65.896 60 67 58.88 67 57.5S65.897 55 64.536 55m0 11H46.464C45.104 66 44 67.12 44 68.5s1.103 2.5 2.464 2.5h18.072C65.896 71 67 69.88 67 68.5S65.897 66 64.536 66"/></g></svg>
