<svg width="50" height="44" viewBox="0 0 50 44" xmlns="http://www.w3.org/2000/svg" xmlns:xlink="http://www.w3.org/1999/xlink"><defs><path id="a" d="M0 44.001h49.2V.483H0z"/></defs><g fill="none" fill-rule="evenodd"><mask id="b" fill="#fff"><use xlink:href="#a"/></mask><path d="M26.811 8.742l3.638.88 3.696 1.525-.059.176-3.99-.293-2.58-.587-.705-1.701zm-2.874.82l-.704-1.7 2.17.528.704 1.701-2.17-.528zm-3.58-.82l-.703-1.702 2.17.528.705 1.702-2.171-.528zm-3.637-.88l-.704-1.702 2.171.528.704 1.702-2.17-.528zM5.984 5.28l.352-1.467 8.272 1.936.704 1.702-9.328-2.17zM4.341 7.1c-.41-.176-.704-.47-.938-.88-.352-.528-.41-1.174-.294-1.819l.235-1.056C3.52 2.7 3.872 2.171 4.4 1.877c.352-.234.821-.352 1.232-.352L4.342 7.1zm25.639 5.104l4.517.293h.059a.571.571 0 0 0 .586-.469l.294-1.173c.058-.294-.059-.587-.352-.704l-4.166-1.76h-.117l-4.576-.998-.587-1.408c-.117-.293-.47-.41-.763-.293-.293.117-.41.47-.293.763l.293.645-2.17-.528-.587-1.408c-.117-.294-.47-.41-.763-.294-.293.118-.41.47-.293.763l.293.646-2.17-.529-.587-1.408c-.117-.293-.47-.41-.763-.293-.293.117-.41.47-.293.763l.293.645-2.17-.528-.587-1.408c-.118-.293-.47-.41-.763-.293-.293.117-.41.47-.293.762l.293.646-7.392-1.76.352-1.584c.059-.176 0-.294-.059-.47-.058-.176-.234-.234-.352-.234-.938-.235-1.877-.059-2.699.41-.82.528-1.408 1.291-1.584 2.23l-.234 1.056c-.235.938-.059 1.877.41 2.699.528.82 1.291 1.408 2.23 1.584h.117a.571.571 0 0 0 .587-.47l.352-1.584 10.15 2.406.586 1.408c.117.234.293.352.528.352.059 0 .176 0 .235-.059.293-.117.41-.47.293-.763l-.293-.645 2.17.528.587 1.408c.118.235.294.352.528.352.059 0 .176 0 .235-.059.293-.117.41-.469.293-.762l-.41-.646 2.17.528.587 1.408c.117.235.293.352.528.352.059 0 .176 0 .235-.058.293-.118.41-.47.293-.763l-.235-.587 2.171.528.587 1.408c.117.235.293.352.528.352.058 0 .176 0 .234-.058.294-.118.411-.47.294-.763l-.294-.645 1.76.41c.118.059.118.059.177.059zM47.99 5.339l-5.22-2.406c.703-.82 1.877-1.114 2.874-.645l.997.47c.998.41 1.526 1.525 1.35 2.58zM41.949 13.2l-1.819.352 4.048-8.683 1.35.646-3.58 7.685zm-1.526 3.344l-1.818.352.938-2.053 1.82-.352-.94 2.053zm-1.584 3.345l-1.818.352.938-2.054 1.82-.352-.94 2.054zm-1.584 3.344l-1.818.352.938-2.054 1.82-.352-.94 2.054zm-2.17 4.752l-2.23 3.285-.176-.058 1.056-3.814 1.115-2.405 1.819-.352-1.584 3.344zM47.11 1.643l-.939-.47c-1.76-.821-3.93-.058-4.752 1.702-.059.117-.059.293 0 .47.059.116.176.292.293.351l1.467.704-4.459 9.446-1.525.293a.609.609 0 0 0-.47.704c.059.293.294.47.587.47h.117l.646-.118-.939 2.053-1.525.235a.609.609 0 0 0-.47.704c.059.294.294.47.587.47h.117l.646-.118-.939 2.054-1.467.293a.609.609 0 0 0-.469.704c.059.293.293.47.587.47h.117l.645-.118-.938 2.053-1.526.294a.609.609 0 0 0-.47.704c.06.293.294.47.588.47h.117l.645-.118-.762 1.642s0 .06-.06.118l-1.231 4.341c-.059.294.059.587.293.704l1.056.528c.059.059.176.059.235.059.176 0 .352-.117.47-.235l2.58-3.755.06-.058 1.994-4.224 1.525-.294a.609.609 0 0 0 .47-.704.609.609 0 0 0-.704-.469l-.646.117.94-2.053 1.524-.293a.609.609 0 0 0 .47-.704.609.609 0 0 0-.704-.47l-.646.118.94-2.054 1.525-.293a.609.609 0 0 0 .469-.704.609.609 0 0 0-.704-.47l-.645.118.938-2.054 1.526-.293a.609.609 0 0 0 .469-.704.609.609 0 0 0-.704-.47l-.645.118 3.226-6.923 1.467.704c.059.059.176.059.235.059.058 0 .117 0 .176-.059.117-.058.293-.176.352-.293.821-1.76.058-3.93-1.76-4.752zM5.221 31.622l-3.813 1.174-.117-.176 3.226-2.347 2.347-1.174 1.643.822-3.286 1.701zm4.987-4.165l1.643.821-1.995.997-1.642-.82 1.994-.998zm3.286-1.702l1.642.822-1.994.997-1.643-.821 1.995-.998zm3.285-1.642l1.643.821-1.995.997-1.643-.821 1.995-.997zm9.915-4.987l.645 1.35-7.568 3.813-1.642-.822 8.565-4.341zm2.758-1.173l.469.938c.528.998.235 2.17-.587 2.875l-2.581-5.104c1.056-.176 2.17.293 2.699 1.29zm-17.718 12.32l-.587-.293 1.995-.998 1.408.704c.058.059.176.059.234.059.235 0 .411-.117.528-.352.118-.294 0-.646-.234-.763l-.587-.293 1.995-.998 1.408.704c.059.06.176.06.235.06.234 0 .41-.118.528-.353.117-.293 0-.645-.235-.763l-.587-.293 1.936-1.115 1.408.704c.059.06.176.06.235.06.235 0 .41-.118.528-.353.117-.293 0-.645-.235-.763l-.586-.293 6.805-3.403.704 1.408a.6.6 0 0 0 .352.294h.176c.117 0 .176 0 .294-.059 1.76-.88 2.464-3.05 1.584-4.81l-.47-.94c-.88-1.76-3.05-2.464-4.81-1.584-.294.118-.411.47-.235.763l.704 1.408-9.329 4.694L15.488 22c-.293-.118-.645 0-.762.234-.118.294 0 .646.234.763l.587.293-1.995.998-1.408-.704c-.293-.118-.645 0-.762.234-.118.294 0 .646.234.763l.587.293-1.995.998-1.408-.704c-.293-.118-.645 0-.762.234-.118.294 0 .646.234.763l.587.293-1.995 1.35-1.408-.704c-.293-.118-.645-.059-.763.234-.117.294 0 .646.235.763l.587.293-1.584.822-.059.058-3.637 2.7c-.235.175-.294.469-.176.762l.528 1.056a.616.616 0 0 0 .528.293h.176l4.341-1.35c.059 0 .059 0 .117-.058l4.166-2.112 1.408.704c.059.059.176.059.235.059.234 0 .41-.117.528-.352.058-.235-.059-.587-.352-.704zM43.004 38.78l-2.64.176-1.232-1.408 3.755-.294 3.989.352v.176l-3.872.998zm-6.336.47l-1.232-1.409 2.23-.176 1.231 1.408-2.23.176zm-3.696.234l-1.232-1.408 2.229-.176 1.232 1.408-2.23.176zm-3.697.293l-1.232-1.408 2.23-.176 1.232 1.408-2.23.176zm-11.03.763l-.058-1.467 8.448-.587 1.232 1.408-9.621.646zm-2.991 0l-.059-1.056a2.49 2.49 0 0 1 1.643-2.464l.41 5.69c-1.056-.175-1.877-1.055-1.994-2.17zm32.209-3.99l-4.518-.41h-.117l-4.635.352-.997-1.174c-.235-.234-.587-.293-.822-.058-.234.234-.293.586-.058.821l.469.528-2.288.117-.997-1.173c-.235-.235-.587-.293-.822-.059-.234.235-.293.587-.058.822l.469.528-2.23.176-.997-1.174c-.234-.234-.587-.293-.821-.058-.235.234-.294.586-.059.821l.47.528-2.23.176-.997-1.173c-.235-.235-.587-.294-.822-.059-.234.235-.293.587-.058.821l.47.528-7.745.47-.117-1.584a.56.56 0 0 0-.646-.528c-1.936.117-3.461 1.877-3.285 3.813l.058 1.056c.06.939.528 1.819 1.232 2.464.646.587 1.467.88 2.347.88h.235a.533.533 0 0 0 .41-.176c.118-.117.177-.293.118-.41l-.117-1.584 10.442-.763.998 1.173a.666.666 0 0 0 .47.176c.117 0 .293-.058.41-.117.235-.235.293-.587.059-.821l-.47-.529 2.23-.176.997 1.174a.666.666 0 0 0 .47.176c.117 0 .293-.059.41-.117.235-.235.293-.587.059-.822l-.47-.528 2.23-.176.997 1.174a.666.666 0 0 0 .47.176c.117 0 .293-.06.41-.118.235-.234.293-.587.059-.821l-.47-.528 2.23-.176.997 1.173a.666.666 0 0 0 .47.176c.117 0 .293-.058.41-.117.235-.235.294-.587.059-.822l-.47-.528 1.82-.117h.117l4.4-1.056c.293-.059.469-.352.469-.587l-.059-1.173c-.058-.352-.293-.587-.586-.587z" fill="#0071BC" mask="url(#b)"/></g></svg>