<svg width="90" height="88" viewBox="0 0 90 88" xmlns="http://www.w3.org/2000/svg" xmlns:xlink="http://www.w3.org/1999/xlink"><defs><path id="a" d="M0 77.922h78V0H0z"/></defs><g fill="none" fill-rule="evenodd"><path d="M71.193 57.082a1.295 1.295 0 0 1 1.498-.247l.153.078a1.3 1.3 0 0 1 .583.585l.072.145a1.294 1.294 0 0 1-.244 1.5L71.6 60.798l-2.062-2.062 1.655-1.654zM63.8 68.598l-2.062-2.062 5.962-5.96 2.062 2.06-5.962 5.962zm-3.266 3.264l-2.748.688.688-2.749 1.426-1.426 2.062 2.06-1.428 1.427zm-1.553-6.245l-2.6 2.6a1.302 1.302 0 0 0-.342.604l-1.3 5.2A1.297 1.297 0 0 0 56 75.636c.105 0 .21-.013.315-.04l5.2-1.3c.228-.056.438-.175.604-.341l10.4-10.4 2.573-2.573a3.893 3.893 0 0 0 .73-4.507l-.072-.143a3.907 3.907 0 0 0-1.741-1.743l-.152-.078a3.895 3.895 0 0 0-4.502.73L58.98 65.617zM58.6 17.7c.434 0 .84-.217 1.082-.579l1.518-2.277 1.518 2.277c.242.362.648.579 1.082.579h1.472l-1.254 1.878c-.202.305-.267.68-.179 1.037l.615 2.458-2.673-1.335a1.302 1.302 0 0 0-1.162-.001l-2.673 1.335.615-2.459c.088-.355.025-.73-.18-1.036L57.129 17.7H58.6zm-2.7 2.843l-1.161 4.642a1.297 1.297 0 0 0 1.842 1.477l4.619-2.309 4.619 2.31a1.294 1.294 0 0 0 1.395-.149 1.3 1.3 0 0 0 .447-1.329l-1.16-4.642 2.28-3.421A1.3 1.3 0 0 0 67.7 15.1h-3.205l-2.213-3.321c-.483-.725-1.681-.725-2.164 0L57.904 15.1H54.7a1.3 1.3 0 0 0-1.082 2.02l2.282 3.423zM40.4 17.7c.434 0 .84-.217 1.082-.579L43 14.844l1.518 2.277c.242.362.648.579 1.082.579h1.472l-1.254 1.878c-.202.305-.267.68-.179 1.037l.615 2.458-2.673-1.335a1.302 1.302 0 0 0-1.162-.001l-2.673 1.335.615-2.459c.088-.355.025-.73-.18-1.036L38.929 17.7H40.4zm-2.7 2.843l-1.161 4.642a1.297 1.297 0 0 0 1.842 1.477L43 24.353l4.619 2.31a1.294 1.294 0 0 0 1.395-.149 1.3 1.3 0 0 0 .447-1.329l-1.16-4.642 2.28-3.421A1.3 1.3 0 0 0 49.5 15.1h-3.205l-2.213-3.321c-.483-.725-1.681-.725-2.164 0L39.705 15.1H36.5a1.3 1.3 0 0 0-1.082 2.02l2.282 3.423z" fill="#205493"/><g transform="translate(4 6)"><mask id="b" fill="#fff"><use xlink:href="#a"/></mask><path d="M18.2 11.7c.434 0 .84-.217 1.082-.579L20.8 8.845l1.518 2.277c.242.362.648.579 1.082.579h1.472l-1.254 1.879c-.202.304-.267.68-.179 1.036l.615 2.458-2.673-1.335a1.302 1.302 0 0 0-1.162-.001l-2.673 1.335.615-2.459c.088-.355.025-.73-.18-1.036L16.729 11.7H18.2zm-2.7 2.843l-1.161 4.642a1.297 1.297 0 0 0 1.842 1.477l4.619-2.309 4.619 2.31a1.294 1.294 0 0 0 1.395-.149 1.3 1.3 0 0 0 .447-1.329l-1.16-4.642 2.28-3.421A1.3 1.3 0 0 0 27.3 9.1h-3.204l-2.214-3.321c-.483-.725-1.681-.725-2.164 0L17.505 9.1H14.3a1.3 1.3 0 0 0-1.082 2.02l2.282 3.423z" fill="#205493" mask="url(#b)"/><path d="M2.6 75.4h72.8V2.6H2.6v72.8zM76.7 0H1.3C.581 0 0 .581 0 1.3v75.4c0 .719.581 1.3 1.3 1.3h75.4c.719 0 1.3-.581 1.3-1.3V1.3c0-.719-.581-1.3-1.3-1.3z" fill="#205493" mask="url(#b)"/></g><path d="M22.2 67.1c5.294 0 9.677 3.978 10.32 9.1H11.88c.643-5.122 5.026-9.1 10.32-9.1zM15.7 58c0-3.584 2.916-6.5 6.5-6.5s6.5 2.916 6.5 6.5-2.916 6.5-6.5 6.5a6.507 6.507 0 0 1-6.5-6.5zm-5.2 20.8h23.4c.719 0 1.3-.581 1.3-1.3 0-5.363-3.266-9.976-7.91-11.96A9.1 9.1 0 0 0 31.3 58c0-5.017-4.083-9.1-9.1-9.1-5.017 0-9.1 4.083-9.1 9.1a9.1 9.1 0 0 0 4.01 7.54C12.467 67.524 9.2 72.137 9.2 77.5c0 .719.581 1.3 1.3 1.3zm40.082-44.778l1.518-2.278 1.518 2.278c.242.36.648.578 1.082.578h1.472l-1.254 1.879c-.202.304-.267.68-.179 1.036l.615 2.458-2.673-1.335a1.302 1.302 0 0 0-1.162-.001l-2.673 1.335.615-2.459c.088-.355.025-.73-.18-1.036L48.029 34.6H49.5c.434 0 .84-.217 1.082-.578zM45.6 32a1.3 1.3 0 0 0-1.082 2.02l2.282 3.422-1.161 4.642a1.297 1.297 0 0 0 1.842 1.477l4.619-2.308 4.619 2.31a1.294 1.294 0 0 0 1.395-.149 1.3 1.3 0 0 0 .447-1.329l-1.16-4.642 2.28-3.421A1.3 1.3 0 0 0 58.6 32h-3.205l-2.213-3.321c-.483-.725-1.681-.725-2.164 0L48.804 32H45.6zm-13.218 2.022l1.518-2.278 1.518 2.278c.242.36.648.578 1.082.578h1.472l-1.254 1.879c-.202.304-.267.68-.179 1.036l.615 2.458-2.673-1.335a1.302 1.302 0 0 0-1.162-.001l-2.673 1.335.615-2.459c.088-.355.025-.73-.18-1.036L29.829 34.6H31.3c.434 0 .84-.217 1.082-.578zM27.4 32a1.3 1.3 0 0 0-1.082 2.02l2.282 3.422-1.161 4.642a1.297 1.297 0 0 0 1.842 1.477l4.619-2.308 4.619 2.31a1.294 1.294 0 0 0 1.395-.149 1.3 1.3 0 0 0 .447-1.329l-1.16-4.642 2.28-3.421A1.3 1.3 0 0 0 40.4 32h-3.204l-2.214-3.321c-.483-.725-1.681-.725-2.164 0L30.605 32H27.4zm10.4 23.4h28.6v-2.6H37.8zm0 5.2h23.4V58H37.8zm0 5.2H56v-2.6H37.8zm0 5.2h15.6v-2.6H37.8zm0 5.2h14.3v-2.6H37.8z" fill="#205493"/></g></svg>
