<svg width="47" height="47" viewBox="0 0 47 47" xmlns="http://www.w3.org/2000/svg" xmlns:xlink="http://www.w3.org/1999/xlink"><defs><path id="a" d="M0 46.953h47V0H0z"/></defs><g fill="none" fill-rule="evenodd"><path d="M40.488 30.78a.78.78 0 0 1 .903-.149l.092.047a.784.784 0 0 1 .35.353l.045.087a.78.78 0 0 1-.147.904l-.998.997-1.242-1.242.997-.997zm-4.455 6.94l-1.242-1.243 3.592-3.592 1.243 1.242-3.593 3.592zm-1.967 1.966l-1.656.414.414-1.656.86-.859 1.242 1.242-.86.859zm-.936-3.763l-1.567 1.567a.78.78 0 0 0-.206.364l-.784 3.133a.781.781 0 0 0 .95.95l3.133-.784a.784.784 0 0 0 .364-.206l6.267-6.266 1.55-1.55a2.346 2.346 0 0 0 .44-2.717l-.043-.086a2.354 2.354 0 0 0-1.05-1.05l-.09-.047a2.347 2.347 0 0 0-2.713.44l-6.251 6.252zM32.9 7.05c.262 0 .506-.13.652-.349l.915-1.372.915 1.372c.145.218.39.349.651.349h.887l-.755 1.132a.784.784 0 0 0-.108.624l.37 1.482-1.61-.805a.775.775 0 0 0-.7 0l-1.611.804.37-1.482a.782.782 0 0 0-.108-.624l-.755-1.131h.887zm-1.627 1.713l-.7 2.797a.781.781 0 0 0 1.11.89l2.784-1.39 2.783 1.39a.78.78 0 0 0 .84-.089.783.783 0 0 0 .27-.8l-.7-2.798 1.375-2.062a.784.784 0 0 0-.652-1.218h-1.93l-1.335-2.001c-.29-.436-1.012-.436-1.303 0L32.48 5.483h-1.93a.784.784 0 0 0-.652 1.218l1.375 2.062zm-9.34-1.713c.262 0 .506-.13.652-.349L23.5 5.33l.915 1.372c.146.218.39.349.652.349h.886l-.755 1.132a.784.784 0 0 0-.108.624l.37 1.482-1.61-.805a.775.775 0 0 0-.7 0l-1.61.804.37-1.482a.782.782 0 0 0-.108-.624l-.755-1.131h.886zm-1.627 1.713l-.7 2.797a.781.781 0 0 0 1.11.89l2.784-1.39 2.783 1.39a.78.78 0 0 0 .84-.089.783.783 0 0 0 .27-.8l-.7-2.798 1.375-2.062a.784.784 0 0 0-.651-1.218h-1.931l-1.334-2.001c-.29-.436-1.013-.436-1.304 0l-1.334 2.001h-1.93a.784.784 0 0 0-.652 1.218l1.374 2.062z" fill="#0071BC"/><mask id="b" fill="#fff"><use xlink:href="#a"/></mask><path d="M10.967 7.05a.78.78 0 0 0 .651-.349l.915-1.372.915 1.372c.146.218.39.349.652.349h.887l-.755 1.132a.784.784 0 0 0-.108.624l.37 1.482-1.61-.805a.775.775 0 0 0-.7 0l-1.611.804.37-1.482a.782.782 0 0 0-.108-.624L10.08 7.05h.887zM9.34 8.763l-.7 2.797a.781.781 0 0 0 1.11.89l2.783-1.39 2.784 1.39a.78.78 0 0 0 .84-.089.783.783 0 0 0 .27-.8l-.7-2.798 1.375-2.062a.784.784 0 0 0-.652-1.218h-1.93l-1.335-2.001c-.29-.436-1.013-.436-1.303 0l-1.334 2.001H8.617a.784.784 0 0 0-.652 1.218L9.34 8.763z" fill="#0071BC" mask="url(#b)"/><path d="M1.567 45.433h43.866V1.567H1.567v43.866zM46.217 0H.783A.783.783 0 0 0 0 .783v45.434c0 .433.35.783.783.783h45.434c.433 0 .783-.35.783-.783V.783A.783.783 0 0 0 46.217 0z" fill="#0071BC" mask="url(#b)"/><path d="M10.967 36.817c3.19 0 5.83 2.397 6.218 5.483H4.749c.387-3.086 3.028-5.483 6.218-5.483zM7.05 31.333a3.921 3.921 0 0 1 3.917-3.916 3.921 3.921 0 0 1 3.916 3.916 3.921 3.921 0 0 1-3.916 3.917 3.921 3.921 0 0 1-3.917-3.917zM3.917 43.867h14.1c.433 0 .783-.35.783-.784 0-3.23-1.968-6.011-4.767-7.206a5.483 5.483 0 0 0 2.417-4.544 5.49 5.49 0 0 0-5.483-5.483 5.49 5.49 0 0 0-5.484 5.483c0 1.888.96 3.557 2.417 4.544-2.799 1.195-4.767 3.975-4.767 7.206 0 .434.35.784.784.784zm24.151-26.982l.915-1.373.915 1.373c.146.218.39.348.652.348h.887l-.755 1.132a.784.784 0 0 0-.108.625l.37 1.48-1.61-.804a.775.775 0 0 0-.7 0l-1.611.804.37-1.481a.782.782 0 0 0-.108-.625l-.755-1.13h.887a.781.781 0 0 0 .651-.35zm-3.001-1.218a.784.784 0 0 0-.652 1.217l1.375 2.062-.7 2.797a.781.781 0 0 0 1.11.89l2.783-1.39 2.784 1.39a.78.78 0 0 0 .84-.089.783.783 0 0 0 .27-.8l-.7-2.798 1.375-2.061a.784.784 0 0 0-.652-1.218h-1.93l-1.335-2.002c-.29-.436-1.013-.436-1.303 0l-1.334 2.002h-1.931zm-7.965 1.218l.915-1.373.915 1.373c.145.218.39.348.651.348h.887l-.755 1.132a.784.784 0 0 0-.108.625l.37 1.48-1.61-.804a.775.775 0 0 0-.7 0l-1.611.804.37-1.481a.782.782 0 0 0-.108-.625l-.755-1.13h.887a.783.783 0 0 0 .652-.35zM14.1 15.667a.784.784 0 0 0-.652 1.217l1.375 2.062-.7 2.797a.781.781 0 0 0 1.11.89l2.784-1.39 2.783 1.39a.78.78 0 0 0 .84-.089.783.783 0 0 0 .27-.8l-.7-2.798 1.375-2.061a.784.784 0 0 0-.652-1.218h-1.93l-1.335-2.002c-.29-.436-1.012-.436-1.303 0l-1.334 2.002H14.1zm6.267 14.1H37.6V28.2H20.367zm0 3.133h14.1v-1.567h-14.1zm0 3.133h10.966v-1.566H20.367zm0 3.134h9.4V37.6h-9.4zm0 3.133h8.616v-1.567h-8.616z" fill="#0071BC"/></g></svg>
