<svg width="109" height="60" viewBox="0 0 109 60" xmlns="http://www.w3.org/2000/svg" xmlns:xlink="http://www.w3.org/1999/xlink"><defs><path id="a" d="M0 60h109V.347H0z"/></defs><g fill="none" fill-rule="evenodd"><mask id="b" fill="#fff"><use xlink:href="#a"/></mask><path d="M103.02 30.313c-2.57 2.547-6.526 3.217-9.792 1.66a1.733 1.733 0 0 0-2.306.798 1.705 1.705 0 0 0 .805 2.286 12.178 12.178 0 0 0 6.591 1.104v7.18c0 6.293-3.826 10.085-10.177 10.085H20.858c-6.353 0-10.18-3.792-10.18-10.084V36.16a12.22 12.22 0 0 0 6.594-1.104 1.705 1.705 0 0 0 .804-2.286 1.735 1.735 0 0 0-2.307-.798 8.664 8.664 0 0 1-9.791-1.66 8.452 8.452 0 0 1 0-12.033c5.415-5.367 14.658-1.492 14.658 6.016v19.17c0 .947.776 1.715 1.733 1.715.956 0 1.73-.768 1.73-1.716V38.65c9.967-2.03 20.02-1.923 29.95.272.263.07.545.08.828.017a71.523 71.523 0 0 1 30.017-.29v4.815c0 .948.776 1.716 1.733 1.716.957 0 1.73-.768 1.73-1.716V24.296c0-7.508 9.245-11.382 14.66-6.016a8.451 8.451 0 0 1 .004 12.033zM31.462 3.78h7.511c6.668 0 12.475 4.715 13.795 11.185v12.764c0 .948.775 1.716 1.732 1.716.958 0 1.732-.768 1.732-1.716V14.964c1.323-6.472 7.13-11.185 13.797-11.185h7.51c6.256 0 11.792 4.155 13.527 10.099-3.783 2.105-6.169 6.1-6.169 10.418v10.868a75.042 75.042 0 0 0-30.4.355c-10.055-2.182-20.293-2.317-30.395-.358V24.298c0-4.32-2.383-8.315-6.166-10.419 1.733-5.945 7.27-10.1 13.526-10.1zm74.009 12.074a12.133 12.133 0 0 0-11.17-3.206C92.043 5.378 85.23.347 77.538.347h-7.51a17.595 17.595 0 0 0-15.53 9.336A17.591 17.591 0 0 0 38.973.347h-7.511c-7.693 0-14.505 5.031-16.76 12.3a12.137 12.137 0 0 0-11.17 3.206 11.862 11.862 0 0 0 0 16.887 12.07 12.07 0 0 0 3.685 2.497v8.105c0 6.003 2.959 11.054 8.872 12.847-.506 1.913.945 3.812 2.966 3.812 1.737 0 3.123-1.425 3.067-3.144h64.76c-.056 1.719 1.33 3.144 3.065 3.144 2.02 0 3.473-1.9 2.967-3.812 5.912-1.794 8.872-6.844 8.872-12.847v-8.104a12.085 12.085 0 0 0 3.686-2.497 11.865 11.865 0 0 0-.001-16.888z" fill="#205493" mask="url(#b)"/><path d="M74.5 13a2.5 2.5 0 1 1 .001 5 2.5 2.5 0 0 1-.002-5m4.001 5a2.5 2.5 0 1 1 0 5 2.5 2.5 0 0 1 0-5m-8.999 0a2.5 2.5 0 1 1-.002 5 2.5 2.5 0 0 1 .002-5m-34-5A2.5 2.5 0 0 1 38 15.5a2.499 2.499 0 1 1-5 0c0-1.38 1.12-2.5 2.501-2.5M31.5 18a2.5 2.5 0 1 1-.001 5.002 2.5 2.5 0 0 1 0-5.002m8.001 0a2.5 2.5 0 1 1 0 4.999 2.5 2.5 0 0 1 0-4.999" fill="#205493"/></g></svg>
