<svg width="71" height="50" viewBox="0 0 71 50" xmlns="http://www.w3.org/2000/svg" xmlns:xlink="http://www.w3.org/1999/xlink"><defs><path id="a" d="M.043 50V.622h70.538V50z"/></defs><g fill="none" fill-rule="evenodd"><path stroke="#000" d="M-50.5-2752.735h730v4639h-730z"/><g transform="translate(0 -.235)"><mask id="b" fill="#fff"><use xlink:href="#a"/></mask><path d="M67.355 18.065h-5.902v6.44h-4.331l-8.82-14.49H34.974v-5.1h9.57V.622H19.589v4.293h9.661v5.1H17.441l-6.262 6.709H7.245v7.782h-3.22v-9.392H0V40.07h4.025v-8.587h3.22v5.365h4.022L23.077 50h34.75v-7.246h3.627V50h5.902s3.22-.802 3.22-15.966c0 0 .267-15.969-3.22-15.969" fill="#000" mask="url(#b)"/></g></g></svg>