<svg width="222" height="61" viewBox="0 0 222 61" xmlns="http://www.w3.org/2000/svg" xmlns:xlink="http://www.w3.org/1999/xlink"><defs><path id="a" d="M.066.065v34.607H61.14V.065H.066z"/><path id="c" d="M38.571.187h38.572v38.602H0V.187z"/></defs><g fill="none" fill-rule="evenodd"><g transform="translate(160 13.765)"><mask id="b" fill="#fff"><use xlink:href="#a"/></mask><path d="M36.83 22.396l-4.64-4.642c-.3-.3-.9-.599-1.348-.599h-27.1v-4.492l1.049 1.048c.3.3.899.6 1.347.6h27.249c.749 0 1.347-.45 1.647-1.048l.598-1.198s0-.15.15-.15l3.443-6.737c2.545.598 7.785 2.245 11.83 5.24 3.742 2.845 5.388 6.438 6.137 8.084l-3.744 3.744H36.831v.15zm-9.282 8.383H6.138a2.365 2.365 0 0 1-2.395-2.396 2.364 2.364 0 0 1 2.395-2.394h21.41a2.365 2.365 0 0 1 2.396 2.394 2.365 2.365 0 0 1-2.396 2.396zm0-8.383H7.935l-1.497-1.498h23.655l3.294 3.294-.748.749c-1.198-1.498-2.995-2.545-5.09-2.545zm18.714 4.49l3.893 3.893H42.37l3.892-3.892zm9.133-1.347l5.24-5.24c.45-.449.599-1.198.45-1.797 0-.299-1.647-6.138-7.787-10.929-5.837-4.642-14.222-6.288-14.671-6.288L32.339.087c-1.049-.15-1.946.449-2.246 1.497-.15 1.049.449 1.947 1.498 2.246l3.891.748-2.694 4.792H5.838L3.293 6.825c-.598-.6-1.347-.75-2.095-.45C.45 6.675 0 7.273 0 8.171v10.93c0 .299 0 .45.15.75.15.298.3.448.448.598l2.695 2.695C1.347 24.192 0 26.138 0 28.534c0 3.443 2.695 6.138 6.138 6.138h21.41c3.144 0 5.539-2.246 5.989-5.24l3.294-3.294h4.94l-4.791 4.79h-1.047c-1.049 0-1.797.899-1.797 1.797 0 .898.898 1.797 1.797 1.797h18.714c2.096-.15 3.892-1.198 4.94-2.995.45-.898.15-2.095-.749-2.545-.898-.448-2.095-.15-2.544.75-.3.449-.749.748-1.199 1.047l-4.64-4.64h3.294c.748 0 1.197-.3 1.646-.6z" fill="#2066A3" mask="url(#b)"/></g><g fill="#2066A3"><path d="M47.7 41.165c-.72 0-1.427.12-2.1.358-.034.013-.058.039-.09.054l-.906-1.056c2.022-.899 4.586-1.025 8.319-.274.03.006.057-.003.088 0 .03.003.057.018.089.018.033 0 .062-.015.094-.02a.844.844 0 0 0 .46-.188.825.825 0 0 0 .222-.263.84.84 0 0 0 .072-.17c.009-.029.029-.051.034-.082.006-.03-.003-.06 0-.089.004-.03.018-.056.018-.088 0-2.524-2.767-4.5-6.3-4.5-.622 0-1.22.062-1.805.156-.06-8.17-1.123-13.749-5.876-16.252-.005-.003-.01-.002-.016-.005l-.012-.01c-.29-.14-.557-.26-.803-.372-.949-.428-1.451-.666-1.824-1.314 1.402.442 3.084.697 4.936.697a.9.9 0 0 0 .9-.9v-2.7h-1.8a.9.9 0 1 1 0-1.8h1.8v-2.7a.9.9 0 0 0-.9-.9c-4.51 0-8.042 1.496-8.833 3.6H27c-.01 0-.017.005-.027.005-.06.002-.118.022-.177.036-.059.014-.118.022-.171.046-.01.005-.02.004-.027.008-.04.02-.067.055-.104.08-.053.037-.107.07-.15.118-.04.044-.067.094-.096.144-.031.048-.063.093-.084.147-.024.061-.029.125-.039.19-.006.043-.025.082-.025.126 0 .01.005.017.005.027.002.06.022.118.036.177.014.059.022.118.046.171.005.01.004.018.008.027l1.8 3.6c.011.023.028.038.04.059.008.012.008.026.016.039.016.023.037.04.054.062.022.027.043.053.066.076a.904.904 0 0 0 .112.091c.025.017.047.036.073.05a.98.98 0 0 0 .145.063c.024.009.046.02.07.027.075.02.152.031.23.031a.895.895 0 0 0 .232-.034c.024-.006.047-.016.07-.025.034-.012.067-.02.1-.035.014-.008.02-.02.034-.028.02-.011.043-.016.063-.03l2.495-1.663c3.748 8.809 4.493 14.605 2.265 17.693-1.888 2.614-6.077 3.607-13.129 3.107l1.542-6.166c.009-.037 0-.072.005-.11.005-.037.022-.07.022-.109 0-.04-.01-.076-.012-.115l-.003-.037a2.697 2.697 0 0 0-2.685-2.548H5.4c-3.079 0-5.4 4.643-5.4 10.8 0 3.113 2.099 4.412 4.091 5.065A6.305 6.305 0 0 0 2.7 47.465c0 3.474 2.827 6.3 6.3 6.3s6.3-2.826 6.3-6.3c0-.521-.086-1.03-.21-1.53 2.484.337 4.9.516 7.263.516 5.054 0 9.887-.78 14.753-2.322-.135.78-.206 1.594-.206 2.436 0 .036.016.068.02.103.008.06.017.12.037.177a.865.865 0 0 0 .073.157.858.858 0 0 0 .092.138c.04.049.088.087.138.126.027.022.045.051.075.07.024.014.05.02.075.032.027.012.053.024.081.035a.904.904 0 0 0 .308.062h.003c.106 0 .21-.026.309-.063a.9.9 0 0 0 .32-.196c.007-.008.013-.02.021-.028a.866.866 0 0 0 .118-.148c.902-1.492 1.741-2.769 2.626-3.82l1.01 1.179a6.298 6.298 0 0 0-.806 3.076c0 3.474 2.827 6.3 6.3 6.3s6.3-2.826 6.3-6.3c0-3.474-2.827-6.3-6.3-6.3M9 51.965a4.505 4.505 0 0 1-4.5-4.5c0-1.278.546-2.501 1.5-3.354l.046-.042c.759.206 1.51.398 2.252.577l-.947 1.42.014.009a.878.878 0 0 0-.165.49 2.703 2.703 0 0 0 2.697 2.7H9.9c.134 0 .26-.033.373-.086.033-.015.057-.04.087-.058a.885.885 0 0 0 .219-.182c.011-.013.03-.019.041-.034l2.457-3.276.05.008.116.327A4.505 4.505 0 0 1 9 51.965m38.7 0a4.505 4.505 0 0 1-4.5-4.5c0-.542.104-1.075.292-1.577l2.625 3.063c.007.008.018.01.025.019a.886.886 0 0 0 .23.172c.024.013.043.035.068.046a.89.89 0 0 0 .36.077 2.697 2.697 0 0 0 2.69-2.605c.002-.016.005-.031.005-.046 0-.017.005-.033.005-.049 0-.044-.019-.081-.025-.123-.008-.064-.015-.125-.037-.187-.024-.062-.06-.114-.095-.168-.022-.035-.032-.075-.06-.108l-2.496-2.91c.3-.063.603-.104.913-.104 2.481 0 4.5 2.019 4.5 4.5s-2.019 4.5-4.5 4.5"/><path d="M5.85 26.765h14.4c1.241 0 2.25-1.01 2.25-2.25v-.9c0-1.24-1.009-2.25-2.25-2.25H5.85a2.253 2.253 0 0 0-2.25 2.25v.9c0 1.24 1.009 2.25 2.25 2.25"/></g><g transform="translate(69 .765)"><mask id="d" fill="#fff"><use xlink:href="#c"/></mask><path d="M38.571 34a2.395 2.395 0 1 1 0 4.79 2.395 2.395 0 0 1 0-4.79M3.693 29.19H73.45L39.583 2.965c-.251-.195-.62-.306-1.012-.306-.391 0-.76.111-1.011.306L3.693 29.191zm71.134 2.472H2.316c-1.571 0-2.07-.776-2.229-1.238-.157-.462-.237-1.38 1.005-2.342L36.047 1.01c.686-.532 1.582-.824 2.524-.824s1.838.292 2.525.824L76.05 28.08c1.243.962 1.163 1.881 1.004 2.343-.158.462-.658 1.238-2.228 1.238z" fill="#2066A3" mask="url(#d)"/></g><path d="M107.571 5.437l-13.133 41.05c-.055.172-.056.325-.002.398.053.074.199.12.38.12h25.51c.182 0 .328-.046.381-.12.053-.073.052-.226-.003-.398L107.57 5.437zm12.756 44.039h-25.51c-.986 0-1.852-.413-2.378-1.133-.525-.72-.654-1.67-.354-2.608l13.628-42.6c.484-1.511 1.372-1.736 1.858-1.736s1.374.226 1.857 1.737l13.629 42.599c.3.938.17 1.888-.355 2.608-.524.72-1.39 1.133-2.375 1.133z" fill="#2066A3"/><path d="M106.756 58.294h1.63l1.684-8.818h-4.998l1.684 8.818zm3.674 2.471h-5.718l-2.627-13.76h10.973l-2.628 13.76z" fill="#2066A3"/><path d="M115.311 52.292c-.714 0-1.295-.58-1.295-1.294v-4.304c0-1.42-2.755-3.008-6.445-3.008-3.689 0-6.445 1.589-6.445 3.008v4.304a1.294 1.294 0 1 1-2.589 0v-4.304c0-3.137 3.969-5.596 9.034-5.596 5.066 0 9.035 2.459 9.035 5.596v4.304c0 .715-.58 1.294-1.295 1.294" fill="#2066A3"/></g></svg>
