<svg width="152" height="42" viewBox="0 0 152 42" xmlns="http://www.w3.org/2000/svg" xmlns:xlink="http://www.w3.org/1999/xlink"><defs><path id="a" d="M.045.044v23.733h41.884V.044H.045z"/><path id="c" d="M26.452.128h26.452v26.473H0V.128z"/></defs><g fill="none" fill-rule="evenodd"><path stroke="#000" d="M-16.5-3138.735h730v4639h-730z"/><g transform="translate(109.726 9.68)"><mask id="b" fill="#fff"><use xlink:href="#a"/></mask><path d="M25.258 15.359l-3.183-3.184c-.206-.205-.617-.41-.924-.41H2.567v-3.08l.718.718c.206.206.617.411.924.411h18.687c.514 0 .924-.308 1.13-.719l.41-.82s0-.104.103-.104l2.361-4.62c1.746.41 5.34 1.54 8.112 3.593 2.567 1.951 3.696 4.415 4.21 5.544l-2.568 2.568H25.258v.103zm-6.366 5.749H4.21a1.622 1.622 0 0 1-1.642-1.643 1.62 1.62 0 0 1 1.642-1.642h14.683c.924 0 1.643.718 1.643 1.642 0 .924-.72 1.643-1.643 1.643zm0-5.75H5.442l-1.027-1.026h16.223l2.258 2.258-.513.514c-.821-1.027-2.054-1.745-3.49-1.745zm12.834 3.08l2.67 2.67h-5.34l2.67-2.67zm6.263-.924l3.594-3.593c.308-.308.41-.822.308-1.233 0-.204-1.13-4.21-5.34-7.494C32.548 2.01 26.798.88 26.49.88L22.178.06c-.72-.103-1.335.308-1.54 1.026-.103.72.307 1.335 1.027 1.54l2.668.514-1.847 3.286H4.004L2.258 4.68c-.41-.41-.924-.513-1.437-.308C.308 4.578 0 4.988 0 5.604v7.495c0 .205 0 .309.103.514.103.205.205.308.307.41l1.848 1.849C.924 16.59 0 17.925 0 19.568c0 2.361 1.848 4.21 4.21 4.21h14.682c2.156 0 3.799-1.54 4.107-3.594l2.26-2.259h3.387L25.36 21.21h-.718c-.719 0-1.232.617-1.232 1.232 0 .616.616 1.233 1.232 1.233h12.834c1.437-.103 2.669-.822 3.388-2.054.309-.616.103-1.437-.514-1.745-.615-.308-1.437-.103-1.744.513-.206.309-.514.513-.822.719L34.6 17.925h2.26c.512 0 .82-.205 1.128-.41z" fill="#000" mask="url(#b)"/></g><g fill="#000"><path d="M32.712 28.47c-.494 0-.978.083-1.44.246-.023.009-.04.027-.062.037l-.621-.724c1.387-.616 3.144-.703 5.705-.188.02.005.04-.002.06 0 .021.002.04.013.061.013.023 0 .043-.01.065-.014a.555.555 0 0 0 .23-.072.611.611 0 0 0 .287-.354c.006-.02.02-.035.023-.056.004-.021-.002-.04 0-.061.003-.021.012-.04.012-.06 0-1.731-1.897-3.087-4.32-3.087a7.82 7.82 0 0 0-1.238.107c-.04-5.602-.77-9.428-4.03-11.145l-.01-.004c-.004-.001-.006-.004-.009-.006a24.917 24.917 0 0 0-.55-.255c-.651-.294-.995-.458-1.251-.902.961.304 2.115.478 3.385.478a.617.617 0 0 0 .617-.617V9.955h-1.234a.617.617 0 1 1 0-1.235h1.234V6.868a.617.617 0 0 0-.617-.617c-3.094 0-5.516 1.026-6.058 2.47h-4.435c-.007 0-.012.003-.018.003-.042.001-.081.015-.122.025-.04.009-.08.014-.117.031-.006.003-.013.002-.019.005-.027.014-.045.038-.07.055-.037.026-.074.049-.104.081-.027.03-.045.065-.066.098-.02.034-.043.065-.057.102-.016.042-.02.085-.027.13-.004.03-.017.056-.017.086 0 .007.004.012.004.019.001.041.015.08.024.121.01.04.015.081.032.118.003.006.002.012.005.018l1.235 2.469c.007.015.019.026.028.04.005.009.005.018.01.027.01.016.025.027.037.042a.83.83 0 0 0 .045.053.62.62 0 0 0 .077.062c.017.012.032.025.05.035.032.018.066.03.1.043.016.005.031.013.047.018a.621.621 0 0 0 .158.021.631.631 0 0 0 .16-.023c.016-.004.032-.011.048-.017.022-.008.045-.013.068-.024.01-.005.014-.014.024-.02.013-.007.029-.01.042-.02l1.712-1.14c2.57 6.04 3.08 10.016 1.553 12.133-1.295 1.793-4.168 2.474-9.004 2.13l1.058-4.228c.006-.025 0-.05.003-.074.003-.026.015-.05.015-.076 0-.027-.007-.052-.008-.079l-.002-.025a1.85 1.85 0 0 0-1.841-1.747H3.703C1.592 19.213 0 22.397 0 26.619c0 2.135 1.44 3.026 2.806 3.474a4.324 4.324 0 0 0-.954 2.698 4.326 4.326 0 0 0 4.32 4.32 4.326 4.326 0 0 0 4.32-4.32c0-.357-.058-.706-.144-1.049 1.704.23 3.36.354 4.982.354 3.465 0 6.78-.535 10.117-1.593a9.789 9.789 0 0 0-.141 1.671c0 .025.01.046.014.07a.574.574 0 0 0 .024.122.59.59 0 0 0 .05.108.589.589 0 0 0 .064.094c.028.034.06.06.094.087.019.015.031.035.052.047.016.01.034.015.051.023a.619.619 0 0 0 .267.067h.002a.623.623 0 0 0 .259-.063.617.617 0 0 0 .172-.116l.015-.019a.594.594 0 0 0 .081-.1c.618-1.024 1.194-1.9 1.8-2.62l.694.808a4.32 4.32 0 0 0-.553 2.11 4.326 4.326 0 0 0 4.32 4.32 4.326 4.326 0 0 0 4.32-4.32 4.326 4.326 0 0 0-4.32-4.321m-26.54 7.406a3.09 3.09 0 0 1-3.086-3.086 3.09 3.09 0 0 1 1.029-2.3l.031-.029c.52.141 1.035.273 1.545.396l-.65.973.01.007a.602.602 0 0 0-.113.336c0 1.02.83 1.85 1.85 1.852h.001a.605.605 0 0 0 .256-.06c.023-.01.04-.027.06-.04a.607.607 0 0 0 .15-.124c.008-.01.02-.013.028-.023l1.685-2.247.035.006.08.224a3.09 3.09 0 0 1-2.91 4.116m26.539 0a3.09 3.09 0 0 1-3.086-3.087c0-.371.072-.737.2-1.081l1.8 2.1c.005.006.013.008.018.013a.608.608 0 0 0 .157.118c.017.01.03.024.047.032a.61.61 0 0 0 .247.053 1.85 1.85 0 0 0 1.845-1.787c0-.01.003-.021.003-.032l.003-.033c0-.03-.013-.056-.017-.085a.56.56 0 0 0-.025-.127.549.549 0 0 0-.065-.116c-.015-.024-.022-.052-.041-.074l-1.712-1.996c.206-.042.414-.07.626-.07a3.09 3.09 0 0 1 3.086 3.085 3.09 3.09 0 0 1-3.086 3.086"/><path d="M4.012 18.595h9.875c.851 0 1.543-.692 1.543-1.543v-.617c0-.85-.692-1.543-1.543-1.543H4.012c-.851 0-1.543.693-1.543 1.543v.617c0 .85.692 1.543 1.543 1.543"/></g><g transform="translate(47.32 .765)"><mask id="d" fill="#fff"><use xlink:href="#c"/></mask><path d="M26.452 23.316a1.642 1.642 0 1 1 0 3.285 1.642 1.642 0 0 1 0-3.285M2.533 20.019H50.37L27.145 2.033c-.172-.134-.425-.21-.693-.21-.269 0-.522.076-.694.21L2.533 20.019zm48.782 1.694H1.588c-1.077 0-1.42-.532-1.528-.848-.108-.317-.163-.947.689-1.607L24.72.693c.47-.364 1.085-.565 1.73-.565.646 0 1.261.2 1.732.565l23.972 18.565c.852.66.797 1.29.689 1.607-.11.316-.452.848-1.529.848z" fill="#000" mask="url(#d)"/></g><path d="M73.771 3.97l-9.007 28.15c-.037.118-.038.224-.001.274.036.05.136.081.26.081h17.495c.125 0 .225-.03.261-.081.037-.05.036-.156-.002-.274L73.77 3.97zm8.747 30.2H65.024c-.676 0-1.27-.283-1.63-.776-.36-.494-.45-1.146-.244-1.79l9.347-29.213c.331-1.037.94-1.191 1.273-1.191.334 0 .943.155 1.274 1.19l9.346 29.215c.206.643.117 1.295-.243 1.789-.359.493-.953.776-1.629.776z" fill="#000"/><path d="M73.212 40.217h1.118l1.154-6.047h-3.427l1.155 6.047zm2.52 1.695H71.81l-1.802-9.437h7.526l-1.803 9.437z" fill="#000"/><path d="M79.079 36.102a.888.888 0 0 1-.888-.888v-2.951c0-.974-1.89-2.064-4.42-2.064-2.53 0-4.42 1.09-4.42 2.064v2.951a.888.888 0 1 1-1.776 0v-2.951c0-2.152 2.722-3.838 6.196-3.838 3.474 0 6.196 1.686 6.196 3.838v2.951c0 .49-.398.888-.888.888" fill="#000"/></g></svg>