<svg width="52" height="50" viewBox="0 0 52 50" xmlns="http://www.w3.org/2000/svg" xmlns:xlink="http://www.w3.org/1999/xlink"><defs><path id="a" d="M.036 49.66h51.442V.025H.036z"/></defs><g fill="none" fill-rule="evenodd"><path fill="#0071BC" d="M4.278 42.4h1.817V13.93H4.278z"/><mask id="b" fill="#fff"><use xlink:href="#a"/></mask><path fill="#0071BC" mask="url(#b)" d="M9.716 42.4h1.817V13.93H9.716z"/><path d="M47.903 47.844a2.267 2.267 0 0 1 1.758-2.06v2.06h-1.758zm-3.127-21.802h1.04a4.088 4.088 0 0 0 3.845 3.976V43.94a4.09 4.09 0 0 0-3.582 3.903h-1.302V26.042h-.001zm-2.988 21.802h1.171V26.042h-1.171v21.802zm-15.14 0H39.97V26.042H26.647v21.802zm-2.988 0h1.17V26.042h-1.17v21.802zm-3.077 0a4.09 4.09 0 0 0-3.626-3.91V30.02a4.087 4.087 0 0 0 3.89-3.978h.997v21.802h-1.26zm-3.626-2.055a2.279 2.279 0 0 1 1.8 2.055h-1.8v-2.055zm0-19.747h2.067a2.262 2.262 0 0 1-2.067 2.152v-2.152zm-7.873 19.38H4.078a2.264 2.264 0 0 1-2.261-2.262V13.163A2.264 2.264 0 0 1 4.078 10.9H22.57a2.263 2.263 0 0 1 2.26 2.262v11.062h-2.421V13.929H20.59v10.296h-3.62V13.929h-1.818v11.838c-.003.043-.012.085-.012.128v19.527H9.084zm-3.028 2.422h1.211v-.606h-1.21v.606zM9.69 2.779c0-.53.432-.962.962-.962h5.344c.53 0 .961.432.961.962v6.305H9.69V2.78zm19.38 21.446h8.478v-3.028H29.07v3.028zm20.59 3.964a2.261 2.261 0 0 1-2.023-2.147h2.024v2.147zm.147-3.964H39.365V21.07c0-.932-.726-1.69-1.62-1.69h-8.872c-.893 0-1.62.758-1.62 1.69v3.155h-.606V13.163a4.083 4.083 0 0 0-4.077-4.079h-3.796V2.78A2.783 2.783 0 0 0 15.996 0h-5.344a2.783 2.783 0 0 0-2.779 2.78v6.304H4.078A4.083 4.083 0 0 0 0 13.163V43.16a4.083 4.083 0 0 0 4.078 4.078h.161v2.423h4.845v-2.423h6.057v.753c0 .92.749 1.67 1.67 1.67h32.997c.921 0 1.67-.75 1.67-1.67V25.895c0-.921-.75-1.67-1.67-1.67z" fill="#0071BC" mask="url(#b)"/></g></svg>
