<svg width="50" height="50" xmlns="http://www.w3.org/2000/svg" xmlns:xlink="http://www.w3.org/1999/xlink"><defs><path id="a" d="M0 49.966h49.649V.332H0z"/></defs><g fill="none" fill-rule="evenodd"><path stroke="#000" d="M-67.5-1535.735h730v4639h-730z"/><g transform="translate(0 -.235)"><mask id="b" fill="#fff"><use xlink:href="#a"/></mask><path d="M42.486 47.753h1.352v-1.334h-1.352v1.334zm-35.639 0H8.2v-1.334H6.847v1.334zM3.353 12.728h42.943c.608 0 1.106.477 1.106 1.106V43.03c0 .629-.51 1.141-1.106 1.141-14.684-.005-30.233 0-42.943 0-.629 0-1.106-.499-1.106-1.14V13.833c0-.642.464-1.106 1.106-1.106zM36.113.334a1.132 1.132 0 0 0-.667.28l-10.64 9.358-5.441-7.005c-.364-.464-1.117-.556-1.58-.193-.465.363-.557 1.116-.194 1.58l4.758 6.127H3.353A3.361 3.361 0 0 0 0 13.834V43.03c0 1.846 1.494 3.389 3.353 3.389H4.6v2.457c0 .589.536 1.123 1.124 1.125h3.6c.588-.002 1.123-.536 1.123-1.125V46.42H40.24v2.457c0 .589.535 1.123 1.123 1.125h3.6c.587-.002 1.123-.536 1.123-1.125V46.42h.21c1.849 0 3.354-1.53 3.354-3.389V13.834a3.36 3.36 0 0 0-3.353-3.353H27.634l9.287-8.164c.345-.29.487-.8.34-1.227a1.153 1.153 0 0 0-1.148-.756z" fill="#000" mask="url(#b)"/></g><path d="M43.8 26.106c.61 0 1.076.487 1.076 1.076 0 .623-.466 1.098-1.075 1.098-.61 0-1.077-.475-1.077-1.098 0-.59.468-1.076 1.077-1.076zm0-2.248c-1.835 0-3.323 1.514-3.323 3.324 0 1.821 1.488 3.345 3.324 3.345 1.834 0 3.323-1.524 3.323-3.345 0-1.81-1.49-3.324-3.323-3.324zm0-5.196a1.07 1.07 0 0 1 1.076 1.077c0 .623-.466 1.098-1.075 1.098-.61 0-1.077-.475-1.077-1.098 0-.59.468-1.077 1.077-1.077zm0-2.246c-1.835 0-3.323 1.512-3.323 3.323 0 1.82 1.488 3.345 3.324 3.345 1.834 0 3.323-1.524 3.323-3.345 0-1.81-1.49-3.323-3.323-3.323zM6.44 40.5H37.9V15.907H6.44V40.5zm-.235-26.84c-1.102 0-2.012.91-2.012 2.012v25.086c0 1.102.945 1.99 2.012 1.99h31.951c1.073 0 1.99-.888 1.99-1.99V15.672c0-1.101-.88-2.012-1.99-2.012H6.206z" fill="#000"/></g></svg>