<svg width="50" height="54" viewBox="0 0 50 54" xmlns="http://www.w3.org/2000/svg"><title>after_move_timer</title><g fill="#0071BC" fill-rule="evenodd"><path d="M28.43 4.685a2.113 2.113 0 0 0 0-4.226H16.46a2.113 2.113 0 1 0 0 4.226h11.97M35.261 43.91c-7.078 7.057-18.537 7.04-25.595-.039-7.057-7.078-7.04-18.538.039-25.595 7.063-7.042 18.493-7.042 25.556 0 7.08 7.002 7.141 18.416.14 25.495a6.426 6.426 0 0 1-.14.138zm5.212-39.718a2.113 2.113 0 0 0-2.958 2.957l2.747 2.747-3.804 3.803c-9.624-7.768-23.723-6.262-31.49 3.363-7.768 9.625-6.262 23.725 3.364 31.492 9.624 7.766 23.724 6.26 31.49-3.364 6.748-8.36 6.607-20.334-.335-28.534l3.732-3.732 2.746 2.746a2.114 2.114 0 0 0 2.959-2.957l-8.45-8.521z"/><path d="M23.994 32.642a2.181 2.181 0 0 1-3.029 0 2.112 2.112 0 0 1-.04-2.988l.04-.04h.282l.423-.352.775-.142a2.113 2.113 0 0 1 1.549 3.663v-.141zm-1.549-7.887l-1.338.14-3.592-6.408a2.113 2.113 0 0 0-3.662 2.043l3.662 6.549a6.338 6.338 0 1 0 4.93-2.394v.07z"/></g></svg>