<svg width="50" height="50" viewBox="0 0 50 50" xmlns="http://www.w3.org/2000/svg" xmlns:xlink="http://www.w3.org/1999/xlink"><title>move_day_toiletBrush</title><defs><path id="a" d="M.006 50H50V0H.006z"/></defs><g fill="none" fill-rule="evenodd"><g><mask id="b" fill="#fff"><use xlink:href="#a"/></mask><path d="M38.797 11.939l-.736-.736.736-.737.737.737-.737.736zm-2.21 2.21l-.735-.737.735-.736.737.736-.737.737zm-2.21 2.21l-.735-.737.736-.737.737.737-.737.737zm-2.209 2.209l-.737-.736.737-.737.737.737-.737.736zm-14.61 14.61l-.735-.736 13.136-13.137.737.736-13.138 13.136zM5.64 47.306a2.07 2.07 0 0 1-1.473.61 2.07 2.07 0 0 1-1.474-.61 2.07 2.07 0 0 1-.61-1.474c0-.556.217-1.079.61-1.473l11.55-11.55 2.947 2.946-11.55 11.55zm43.588-35.79l-5.298-1.416 5.298-1.424a1.042 1.042 0 0 0-.54-2.011L43.381 8.09l3.886-3.886a1.043 1.043 0 0 0-1.474-1.473L41.92 6.607l1.415-5.296a1.041 1.041 0 1 0-2.013-.538l-1.416 5.303L38.482.772a1.042 1.042 0 0 0-2.012.54l1.423 5.303-3.883-3.883a1.043 1.043 0 0 0-1.474 1.473l4.788 4.787-.737.737L31.8 4.942a1.042 1.042 0 1 0-1.474 1.473l4.789 4.788-.737.736-4.788-4.788a1.041 1.041 0 1 0-1.473 1.474l4.788 4.787-.737.737-4.788-4.788a1.041 1.041 0 1 0-1.472 1.473l4.788 4.788-.737.737-4.788-4.789a1.041 1.041 0 1 0-1.473 1.474l4.787 4.788-13.136 13.136-.368-.368a1.042 1.042 0 0 0-1.474 0L1.22 42.888A4.135 4.135 0 0 0 0 45.833c0 1.114.433 2.16 1.22 2.946A4.138 4.138 0 0 0 4.168 50a4.14 4.14 0 0 0 2.947-1.22L19.4 36.492a1.043 1.043 0 0 0 0-1.474l-.368-.368 13.136-13.137 4.788 4.788c.203.203.47.305.736.305a1.04 1.04 0 0 0 .737-1.778l-4.787-4.788.736-.736 4.788 4.787a1.04 1.04 0 0 0 1.472 0 1.04 1.04 0 0 0 0-1.473l-4.786-4.787.735-.737 4.788 4.787a1.037 1.037 0 0 0 1.473 0 1.04 1.04 0 0 0 0-1.472L38.06 15.62l.735-.736 4.789 4.788a1.04 1.04 0 0 0 1.474 0 1.044 1.044 0 0 0 0-1.474l-4.789-4.787.737-.736 4.787 4.787a1.043 1.043 0 0 0 1.474-1.473l-3.877-3.877 5.298 1.417a1.044 1.044 0 0 0 1.276-.737 1.042 1.042 0 0 0-.737-1.275z" fill="#0071BC" mask="url(#b)"/></g><path d="M3.43 45.097a1.04 1.04 0 0 0 0 1.473 1.04 1.04 0 0 0 1.473 0 1.04 1.04 0 0 0 0-1.473 1.04 1.04 0 0 0-1.473 0" fill="#0071BC"/></g></svg>