<svg width="74" height="56" viewBox="0 0 74 56" xmlns="http://www.w3.org/2000/svg" xmlns:xlink="http://www.w3.org/1999/xlink"><defs><path id="a" d="M36.671 56h36.671V.325H0V56z"/></defs><g fill="none" fill-rule="evenodd"><path stroke="#000" d="M-48.5-2933.5h730v4639h-730z"/><mask id="b" fill="#fff"><use xlink:href="#a"/></mask><path d="M70.465 45.368H65.53c-.822-3.977-4.44-6.98-8.716-6.98-4.275 0-7.892 3.003-8.715 6.98h-9.866c-.823-3.977-4.441-6.98-8.716-6.98-4.275 0-7.893 3.003-8.715 6.98h-5.345v-9.333h11.757l43.25.08v9.253zM56.734 53.16c-3.372 0-6.086-2.678-6.086-6.005 0-3.328 2.714-6.006 6.086-6.006 3.37 0 6.083 2.678 6.083 6.006 0 3.327-2.713 6.005-6.083 6.005zm-27.216 0c-3.371 0-6.084-2.678-6.084-6.005 0-3.328 2.713-6.006 6.084-6.006 3.371 0 6.085 2.678 6.085 6.006-.083 3.327-2.796 6.005-6.085 6.005zm-11.1-27.918c0-3.977 2.96-7.305 6.825-7.873v8.36c0 .811.657 1.38 1.397 1.38s1.397-.65 1.397-1.38v-8.36c3.7.73 6.497 3.977 6.497 7.791 0 4.22-3.29 7.63-7.4 7.954h-1.398c-4.111-.325-7.318-3.733-7.318-7.872zm24.173-3.166l-1.151-2.921c-.247-.73-1.15-1.137-1.892-.812-.739.244-1.15 1.136-.822 1.867l3.454 8.765c-.822 0-1.398.65-1.398 1.38 0 .73.658 1.38 1.398 1.38h3.207c.822 0 1.397-.65 1.397-1.38 0-.73-.658-1.38-1.397-1.38h-.164l-.906-2.273h4.606c.328 2.598 1.644 4.87 3.535 6.574h-18.5c2.22-1.947 3.535-4.788 3.535-7.953 0-5.438-4.028-9.902-9.373-10.713v-3.734l18.747 3.896-4.276 7.304zm6.824-6.087l1.974 2.192a11.346 11.346 0 0 0-2.55 5.6h-4.11l4.686-7.792zm7.154 7.792H51.8a8.476 8.476 0 0 1 1.562-3.49l3.207 3.49zm3.207-6.574c4.44 0 8.058 3.57 8.058 7.953 0 4.383-3.619 7.954-8.058 7.954-3.948 0-7.318-2.84-7.976-6.574h7.976c.575 0 1.069-.325 1.315-.811a1.353 1.353 0 0 0-.246-1.542L55.5 18.342c1.234-.65 2.714-1.136 4.276-1.136zm12.086 16.07h-4.77a10.722 10.722 0 0 0 3.62-8.035c0-6.006-4.934-10.795-10.936-10.795-2.303 0-4.44.73-6.167 1.867l-2.63-2.922 3.288-5.6h2.137c.822 0 1.399-.649 1.399-1.38 0-.73-.658-1.38-1.399-1.38h-7.235c-.822 0-1.398.65-1.398 1.38 0 .731.657 1.38 1.398 1.38h1.726l-2.548 4.302-20.062-4.14.986-4.788h4.11c.823 0 1.4-.65 1.4-1.38 0-.73-.412-1.46-1.234-1.46h-5.344c-.658 0-1.234.487-1.399 1.136l-1.561 7.304v5.763c-5.428.649-9.703 5.194-9.703 10.713 0 3.165 1.397 5.924 3.536 7.953h-5.098c-.411 0-.74.163-.987.406a1.49 1.49 0 0 0-.41.974v3.652H2.795v-2.678c0-.812-.659-1.38-1.398-1.38-.74 0-1.398.65-1.398 1.38v8.44c0 .812.658 1.38 1.398 1.38.74 0 1.398-.65 1.398-1.38v-2.921h9.784v5.762c0 .812.657 1.38 1.398 1.38h6.66c.493 4.38 4.276 7.79 8.88 7.79 4.605 0 8.305-3.409 8.88-7.791h9.538C48.428 52.59 52.21 56 56.816 56c4.604 0 8.304-3.409 8.88-7.791h6.249c.822 0 1.398-.65 1.398-1.38V34.655c-.083-.73-.659-1.38-1.481-1.38z" fill="#231F20" mask="url(#b)"/><path d="M29.5 45a2.5 2.5 0 1 1-.001 5.001A2.5 2.5 0 0 1 29.5 45m27 0a2.5 2.5 0 1 1-.001 5.001A2.5 2.5 0 0 1 56.5 45" fill="#231F20"/></g></svg>