<svg width="76" height="52" viewBox="0 0 76 52" xmlns="http://www.w3.org/2000/svg" xmlns:xlink="http://www.w3.org/1999/xlink"><title>entitlement_trailor_button</title><defs><path id="a" d="M.06 52h75.523V.895H.06z"/></defs><g transform="translate(0 -.235)" fill="none" fill-rule="evenodd"><mask id="b" fill="#fff"><use xlink:href="#a"/></mask><path d="M24.28 19.524l-.829.829a1.5 1.5 0 1 0 2.122 2.121l.829-.829a1.5 1.5 0 1 0-2.122-2.121zm-.16-3.969a1.5 1.5 0 0 0-2.121 0l-4.155 4.155a1.5 1.5 0 1 0 2.122 2.121l4.155-4.155a1.5 1.5 0 0 0-.001-2.121zm9.035 7.176c0 .852-.693 1.545-1.545 1.545H16.453c-.793 0-1.327-.219-1.585-.651-.304-.509-.252-1.327.128-2.035l2.955-5.493c.806-1.497 1.46-2.256 2.798-2.256H31.61c.852 0 1.545.693 1.545 1.545v7.345zm-1.545-11.89H20.749c-3.375 0-4.77 2.589-5.44 3.834l-2.956 5.494c-.89 1.655-.913 3.569-.061 4.995.814 1.362 2.292 2.112 4.16 2.112h15.157a4.55 4.55 0 0 0 4.545-4.545v-7.346a4.549 4.549 0 0 0-4.544-4.544zM19.142 48.999a4.563 4.563 0 0 1-4.557-4.558 4.562 4.562 0 0 1 4.557-4.557 4.563 4.563 0 0 1 4.558 4.557 4.564 4.564 0 0 1-4.558 4.558zm0-12.113c-4.167 0-7.557 3.389-7.557 7.556S14.975 52 19.142 52s7.558-3.391 7.558-7.558-3.391-7.556-7.558-7.556zm45.421 2.072a3.988 3.988 0 0 1-3.984 3.983h-.647V20.58a4.55 4.55 0 0 0-4.545-4.545h-9.494a4.55 4.55 0 0 0-4.544 4.545v22.361H30.708c-.74-5.729-5.639-10.173-11.566-10.173-5.927 0-10.825 4.444-11.565 10.173h-.592a3.988 3.988 0 0 1-3.984-3.983c0-13.023 6.239-35.063 29.623-35.063h20.063c6.55 0 11.878 5.33 11.878 11.881v23.182h-.002zm-7.631-9.47h-1.106a1.5 1.5 0 0 0 0 3h1.106v10.453H44.349V20.58c0-.852.692-1.545 1.544-1.545h9.494c.852 0 1.545.693 1.545 1.545v8.908zm17.151 7.97h-6.52V15.776C67.563 7.57 60.889.895 52.685.895H32.623c-11.075 0-19.992 4.701-25.788 13.594C.666 23.955 0 34.754 0 38.958c0 3.851 3.133 6.983 6.984 6.983h.484v.274a1.5 1.5 0 1 0 3 0v-1.774c0-4.782 3.891-8.673 8.673-8.673 4.783 0 8.674 3.891 8.674 8.673a1.5 1.5 0 0 0 1.5 1.5h31.264c3.336 0 6.129-2.352 6.819-5.483h6.685a1.5 1.5 0 0 0 0-3zm-54.941 4.73a2.253 2.253 0 1 0 .001 4.505 2.253 2.253 0 0 0-.001-4.505z" fill="#2066A3" mask="url(#b)"/></g></svg>