<svg width="64" height="49" viewBox="0 0 64 49" xmlns="http://www.w3.org/2000/svg" xmlns:xlink="http://www.w3.org/1999/xlink"><defs><path id="a" d="M31.716 48.908H63.43V.284H0v48.624z"/></defs><g fill="none" fill-rule="evenodd"><mask id="b" fill="#fff"><use xlink:href="#a"/></mask><path d="M60.943 39.622h-4.267c-.711-3.473-3.84-6.096-7.539-6.096-3.697 0-6.826 2.623-7.537 6.096h-8.533c-.711-3.473-3.84-6.096-7.538-6.096-3.698 0-6.826 2.623-7.538 6.096H13.37v-8.151h10.167l37.406.07v8.081zm-11.876 6.805a5.242 5.242 0 0 1-5.263-5.245 5.242 5.242 0 0 1 5.263-5.246 5.242 5.242 0 0 1 5.261 5.246 5.242 5.242 0 0 1-5.261 5.245zm-23.538 0a5.242 5.242 0 0 1-5.262-5.245 5.242 5.242 0 0 1 5.262-5.246 5.242 5.242 0 0 1 5.262 5.246c-.07 2.906-2.417 5.245-5.262 5.245zm-9.6-24.383c0-3.473 2.56-6.38 5.902-6.876v7.301c0 .709.57 1.205 1.21 1.205s1.207-.567 1.207-1.205v-7.3c3.2.637 5.619 3.473 5.619 6.804a6.966 6.966 0 0 1-6.4 6.946h-1.209c-3.555-.283-6.329-3.26-6.329-6.875zm20.907-2.765l-.996-2.551c-.214-.638-.995-.993-1.636-.709-.64.213-.995.992-.711 1.63l2.987 7.655c-.71 0-1.21.567-1.21 1.205 0 .638.57 1.205 1.21 1.205h2.774c.71 0 1.208-.567 1.208-1.205 0-.638-.57-1.205-1.208-1.205h-.143l-.783-1.984h3.983c.284 2.268 1.423 4.253 3.058 5.741h-16c1.92-1.701 3.057-4.182 3.057-6.946 0-4.75-3.483-8.648-8.106-9.357v-3.26L40.534 12.9l-3.698 6.38zm5.901-5.316l1.708 1.914a9.954 9.954 0 0 0-2.205 4.891h-3.556l4.053-6.805zm6.188 6.805H44.8a7.437 7.437 0 0 1 1.35-3.048l2.775 3.048zm2.773-5.741c3.84 0 6.969 3.118 6.969 6.946s-3.13 6.946-6.969 6.946c-3.414 0-6.329-2.48-6.898-5.741h6.898c.497 0 .925-.284 1.138-.709a1.19 1.19 0 0 0-.213-1.347L48 16.02c1.067-.567 2.347-.992 3.698-.992zM62.151 29.06h-4.125c1.921-1.701 3.13-4.253 3.13-7.017 0-5.245-4.267-9.427-9.458-9.427a9.67 9.67 0 0 0-5.333 1.63l-2.276-2.552 2.845-4.89h1.848c.71 0 1.21-.568 1.21-1.205 0-.638-.57-1.205-1.21-1.205h-6.257c-.711 0-1.21.567-1.21 1.205 0 .637.569 1.205 1.21 1.205h1.492l-2.203 3.756-17.351-3.615.852-4.182h3.556c.71 0 1.21-.567 1.21-1.205 0-.638-.356-1.275-1.067-1.275H24.39c-.568 0-1.066.425-1.21.992l-1.35 6.38v5.032c-4.694.567-8.39 4.536-8.39 9.356 0 2.764 1.207 5.174 3.057 6.946H12.09c-.355 0-.64.142-.853.355a1.306 1.306 0 0 0-.356.85v3.19H2.418v-2.34c0-.708-.57-1.204-1.209-1.204-.64 0-1.209.567-1.209 1.205v7.371c0 .709.57 1.205 1.21 1.205.638 0 1.208-.567 1.208-1.205v-2.551h8.462v5.032c0 .709.568 1.205 1.21 1.205h5.758c.428 3.828 3.699 6.805 7.681 6.805s7.182-2.977 7.68-6.805h8.25c.425 3.828 3.697 6.805 7.678 6.805 3.983 0 7.183-2.977 7.68-6.805h5.406c.71 0 1.208-.567 1.208-1.205V30.266c-.071-.638-.57-1.205-1.28-1.205z" fill="#2066A3" mask="url(#b)"/><path d="M25.5 39a2.5 2.5 0 1 1-.001 5.001A2.5 2.5 0 0 1 25.5 39m24 0a2.5 2.5 0 1 1-.001 5.001A2.5 2.5 0 0 1 49.5 39" fill="#2066A3"/></g></svg>
