<svg width="39" height="50" viewBox="0 0 39 50" xmlns="http://www.w3.org/2000/svg" xmlns:xlink="http://www.w3.org/1999/xlink"><defs><path id="a" d="M38.462 25.257v24.71H.033V.547h38.429z"/></defs><g fill="none" fill-rule="evenodd"><mask id="b" fill="#fff"><use xlink:href="#a"/></mask><path d="M25.807 25.24a1.65 1.65 0 0 0-1.631 1.666v9.907a1.648 1.648 0 0 0 3.297.047v-9.937a1.649 1.649 0 0 0-1.615-1.682h-.05zm-6.593 0a1.65 1.65 0 0 0-1.632 1.666v14.303a1.648 1.648 0 0 0 3.297.046V26.923a1.649 1.649 0 0 0-1.614-1.682h-.051zm-6.594 0c-.91.01-1.64.756-1.632 1.666l.001.017v9.89a1.648 1.648 0 0 0 3.297.047v-9.937a1.649 1.649 0 0 0-1.615-1.682h-.05zm6.748-8.207h7.04l-3.795 3.245-1.528-1.511a1.71 1.71 0 0 0-.223-.24l-1.494-1.494zm-8.465 0h3.795c.022.024.045.046.068.069l1.735 1.734-3.297.755-2.3-2.558zm-4.807 0h.377l4.945 5.494a1.65 1.65 0 0 0 1.597.516l6.25-1.442 2.095 2.094a1.648 1.648 0 0 0 2.232.086l7.692-6.594c.061-.047.118-.099.172-.154h.91l-.996 29.67H7.091l-.995-29.67zm-2.25-7.692h30.77c.332 0 .549.216.549.55v3.296c0 .333-.217.55-.55.55H4.722a1.677 1.677 0 0 0-.412-.035 1.689 1.689 0 0 0-.258.034h-.206c-.333 0-.55-.216-.55-.55V9.89c0-.333.217-.55.55-.55zm0-3.297C1.744 6.044 0 7.788 0 9.89v3.297c0 1.739 1.197 3.227 2.799 3.692l1.047 31.524c.028.89.758 1.598 1.649 1.597h27.472c.89 0 1.62-.707 1.648-1.597l1.048-31.524c1.601-.465 2.799-1.953 2.799-3.692V9.89c0-2.102-1.744-3.846-3.847-3.846H3.846zM13.564.549a1.65 1.65 0 1 0 .172 3.297h10.99a1.648 1.648 0 1 0 0-3.297h-10.99a1.795 1.795 0 0 0-.172 0z" fill="#0071BC" mask="url(#b)"/></g></svg>
