<svg width="50" height="49" xmlns="http://www.w3.org/2000/svg"><path d="M25.96 26.564l4.765 5.125c.284.311.775.41 1.157.235l10.078-4.61v12.038l-16 7.095V26.564zm-2 0v19.898l-16-7.11V27.316l10.078 4.609a1.03 1.03 0 0 0 1.157-.235l4.765-5.125zm18.719-9.343l4.656 5.421-15.64 7.157-5.047-5.438 16.031-7.14zm-35.438 0l16.032 7.14-5.047 5.438-15.641-7.157 4.657-5.421zM24.96 9.11l15.532 6.906-15.532 6.891-15.531-6.89L24.96 9.11zm6.735-6.89l15.64 7.156-4.656 5.422-16.032-7.141 5.048-5.438zm-13.47 0l5.047 5.437-16.03 7.141-4.657-5.422 15.64-7.157zm.157-2.204a1.007 1.007 0 0 0-.344.079l-17.5 8c-.563.256-.696 1.075-.344 1.562l5.438 6.36L.194 22.36c-.327.46-.218 1.306.344 1.563l5.422 2.484v13.601c.003.382.245.752.594.906l17.984 8c.255.114.558.114.813 0l18.016-8c.348-.154.59-.524.593-.906v-13.6l5.422-2.484c.563-.256.747-1.094.343-1.563l-5.437-6.344 5.438-6.359c.403-.468.218-1.306-.344-1.563l-17.5-8a1.008 1.008 0 0 0-.5-.077 1.014 1.014 0 0 0-.657.312L24.96 6.533 19.195.33a1.015 1.015 0 0 0-.813-.313z" fill="#0071BC" fill-rule="evenodd"/></svg>