<svg width="40" height="50" viewBox="0 0 40 50" xmlns="http://www.w3.org/2000/svg" xmlns:xlink="http://www.w3.org/1999/xlink"><defs><path id="a" d="M0 49.967V.457h39.331v49.51z"/></defs><g fill="none" fill-rule="evenodd"><path d="M27.786 4.176a1.442 1.442 0 1 1 0 2.884 1.442 1.442 0 0 1 0-2.884" fill="#2066A3"/><mask id="b" fill="#fff"><use xlink:href="#a"/></mask><path d="M33.253 4.176a1.442 1.442 0 1 1 0 2.884 1.442 1.442 0 0 1 0-2.884" fill="#2066A3" mask="url(#b)"/><path d="M13.872 9.299h23.449v-6.83H13.872v6.83zm-11.86 38.69H37.32V10.556H2.011V47.99zm0-38.69h10.603v-6.83H2.011v6.83zM0 50h39.331V.457H0V50z" fill="#2066A3" mask="url(#b)"/><path d="M9.54 5.479H4.79a.628.628 0 1 1 0-1.257h4.75a.628.628 0 1 1 0 1.257m13.599 24.019l-3.49 3.49a.627.627 0 1 1-.887-.89l3.487-3.486a.629.629 0 0 1 .89.886zm-7.256 2.573a.628.628 0 0 1-.445-1.074l5.712-5.711a.629.629 0 0 1 .89.887l-5.712 5.711a.629.629 0 0 1-.445.187zm3.784-11.836a8.821 8.821 0 0 0-8.822 8.822 8.821 8.821 0 0 0 8.822 8.821 8.821 8.821 0 0 0 8.821-8.821 8.821 8.821 0 0 0-8.821-8.822z" fill="#2066A3"/><path d="M19.667 41.123c-6.655 0-12.07-5.412-12.07-12.067 0-6.654 5.415-12.07 12.07-12.07s12.067 5.416 12.067 12.07c0 6.655-5.412 12.067-12.067 12.067zM32.49 25.436c-1.58-5.593-6.733-9.707-12.824-9.707-7.349 0-13.327 5.979-13.327 13.327 0 7.346 5.978 13.324 13.327 13.324 6.09 0 11.242-4.11 12.824-9.704a3.95 3.95 0 0 0 0-7.24z" fill="#2066A3"/></g></svg>