<svg width="35" height="50" viewBox="0 0 35 50" xmlns="http://www.w3.org/2000/svg" xmlns:xlink="http://www.w3.org/1999/xlink"><title>Tools_Resources_weightEstimator</title><defs><path id="a" d="M.033.12v39.957h34.448V.12z"/></defs><g fill="none" fill-rule="evenodd"><path d="M17.146 19.7c-4.707 0-8.536-3.829-8.536-8.535 0-4.706 3.829-8.535 8.536-8.535 4.705 0 8.533 3.828 8.533 8.535 0 4.706-3.828 8.535-8.533 8.535zm0-19.378c-5.979 0-10.843 4.864-10.843 10.843 0 5.38 3.943 9.845 9.088 10.689v.598c0 .637.518 1.155 1.155 1.155h1.2c.637 0 1.153-.517 1.153-1.155v-.598c5.145-.843 9.088-5.308 9.088-10.69 0-5.978-4.864-10.842-10.841-10.842z" fill="#0071BC"/><path d="M18.3 9.806V5.649a1.154 1.154 0 1 0-2.309 0v4.157a1.78 1.78 0 0 0-.638 1.36c0 .988.804 1.793 1.792 1.793.989 0 1.792-.805 1.792-1.794 0-.546-.25-1.031-.638-1.359m-1.153 6.847c-.638 0-1.155.517-1.155 1.154v.085a1.153 1.153 0 1 0 2.308 0v-.085c0-.637-.517-1.154-1.153-1.154m-6.348-6.642h-.083a1.154 1.154 0 0 0 0 2.308h.083a1.154 1.154 0 1 0 0-2.308" fill="#0071BC"/><g transform="translate(0 9.89)"><mask id="b" fill="#fff"><use xlink:href="#a"/></mask><path d="M22.458 1.275c0 .638.516 1.154 1.155 1.154h.082a1.154 1.154 0 1 0 0-2.308h-.082c-.638 0-1.155.517-1.155 1.154M33.52 33.97H.77v.003H0v6.137h6.137v-3.83h22.209v3.83h6.135v-6.137h-.96v-.002" fill="#0071BC" mask="url(#b)"/></g><path d="M8.342 37.245h7.138c.584 0 1.06.406 1.06.908 0 .5-.476.907-1.06.907H8.342c-.584 0-1.06-.407-1.06-.907 0-.502.476-.908 1.06-.908zm5.52-13.714H5.48c-.856 0-1.552.627-1.552 1.4v16.082c0 .772.697 1.4 1.552 1.4h20.684c2.315 0 4.197-1.677 4.197-3.739V24.931c0-.772-.697-1.4-1.55-1.4h-8.638a.246.246 0 0 0-.246.246v7.682l-3.011-1.637a.25.25 0 0 0-.248.007l-2.56 1.599v-7.652a.246.246 0 0 0-.245-.245z" fill="#0071BC"/></g></svg>