<svg width="50" height="50" viewBox="0 0 50 50" xmlns="http://www.w3.org/2000/svg" xmlns:xlink="http://www.w3.org/1999/xlink"><defs><path id="a" d="M.03 50H50V.02H.03z"/></defs><g fill="none" fill-rule="evenodd"><mask id="b" fill="#fff"><use xlink:href="#a"/></mask><path d="M10.476 30.37L0 29.355v-3.861l10.73 1.017a.485.485 0 0 1 .421.553l-.131 2.846a.513.513 0 0 1-.543.46zm28.794-3.86L50 25.494v3.862L39.523 30.37a.512.512 0 0 1-.543-.46l-.13-2.846a.485.485 0 0 1 .42-.553zm8.297-23.869c-.62.365-.755 1.51-1.602 1.51-.85 0-.985-1.147-1.607-1.511v-.735h3.21v.737zm-4.031-.002c-.623.363-.757 1.511-1.607 1.511-.848 0-.983-1.146-1.604-1.51v-.735h3.211v.734zM25.84 20.636V7.643h5.053c1.098 3.391 2.965 8.649 5.245 12.991H25.841zm-11.978 0c2.28-4.343 4.147-9.6 5.245-12.992h5.053v12.992H13.862zM10.497 1.904h3.213v.734c-.623.364-.757 1.511-1.606 1.511-.849 0-.983-1.149-1.606-1.511v-.734h-.001zm4.035 0h3.212v.734c-.623.365-.758 1.511-1.606 1.511-.849 0-.984-1.147-1.606-1.51v-.735zm4.034 0h12.869v.734c-.623.364-.758 1.512-1.607 1.512 0 0 .189.68.535 1.812H19.636c.347-1.132.536-1.813.536-1.813-.85 0-.983-1.148-1.607-1.51v-.735zm13.691 0h3.212v.734c-.623.364-.758 1.511-1.607 1.511-.848 0-.983-1.147-1.605-1.51v-.735zm4.033 0h3.213v.734c-.623.363-.758 1.511-1.607 1.511s-.983-1.148-1.606-1.51v-.735zm2.291 36.162H11.419c-.068-.361-.138-.72-.209-1.078h27.58c-.071.357-.14.717-.209 1.078zM9.675 2.64c-.622.365-.757 1.51-1.605 1.51-.849 0-.983-1.148-1.607-1.51v-.735h3.212v.735zm-4.034 0c-.622.363-.756 1.51-1.605 1.51-.847 0-.983-1.143-1.603-1.509v-.736H5.64v.735zM50 1.905V.673h-1.61V.411a.411.411 0 1 0-.822 0v.262h-3.21V.411a.41.41 0 1 0-.822 0v.262h-3.211V.411a.411.411 0 1 0-.822 0v.262H36.29V.411a.41.41 0 1 0-.822 0v.262h-3.211V.411a.411.411 0 0 0-.822 0v.262h-12.87V.411a.411.411 0 1 0-.822 0v.262h-3.211V.411a.411.411 0 1 0-.822 0v.262h-3.213V.411a.411.411 0 1 0-.822 0v.262H6.463V.411a.411.411 0 1 0-.822 0v.262H2.433V.411a.41.41 0 1 0-.822 0v.262H0v1.232h1.61v.733C.985 2.998.85 4.15 0 4.15v20.833l10.301 1c.91-.984 1.791-2.247 2.629-3.668h11.23v12.991H10.866c-.357-1.668-.738-3.224-1.13-4.5L0 29.864V50c.664 0 .664-.664 1.33-.664.664 0 .664.664 1.329.664.665 0 .665-.664 1.329-.664.665 0 .665.664 1.33.664.664 0 .664-.664 1.329-.664.664 0 .664.664 1.33.664.665 0 .665-.664 1.329-.664.665 0 .665.664 1.33.664.664 0 .665-.664 1.329-.664.665 0 .664.664 1.329.664 0 0-.471-3.72-1.204-8.135h25.82A238.506 238.506 0 0 0 36.706 50c.665 0 .665-.664 1.33-.664.664 0 .664.664 1.329.664.665 0 .665-.664 1.33-.664.664 0 .664.664 1.33.664.664 0 .664-.664 1.328-.664.666 0 .666.664 1.33.664s.664-.664 1.329-.664c.664 0 .665.664 1.33.664.664 0 .664-.664 1.329-.664.665 0 .665.664 1.329.664V29.863l-9.736.945c-.392 1.276-.773 2.832-1.13 4.5H25.84V22.316h11.231c.837 1.421 1.718 2.684 2.629 3.668l10.3-1V4.15c-.85 0-.984-1.152-1.61-1.513v-.732H50z" fill="#0071BC" mask="url(#b)"/></g></svg>
