<svg version="1" xmlns="http://www.w3.org/2000/svg" width="933.333" height="933.333" viewBox="0 0 700 700"><path d="M320.6 49.7c-10.4 27.4-18.9 49.9-19 50-.1.1-4.7 1.2-10.1 2.3-26.6 5.8-61.2 20.4-83.7 35.4l-9.8 6.5-46.7-18.8c-25.8-10.4-46.9-18.8-47.1-18.6-.1.1 8.8 20.1 19.8 44.4 11 24.3 20 44.5 20 44.8 0 .3-3.8 6.3-8.4 13.2-21.2 31.8-34.5 65.6-40.1 102.8l-1.8 11.1-7.6 3.2c-41 17.1-85 36.5-84.4 37 .4.4 22 8.7 48 18.5l47.1 17.7 2.7 11.2c7.2 29.3 19.5 57.2 36.2 81.9 4 6 7.3 11.3 7.3 11.8s-8.8 22.8-19.5 49.6-19.4 48.7-19.2 48.8c.1.1 21.9-9.6 48.4-21.6l48.2-21.8 8.3 5.5c11.1 7.2 34.9 19.3 47.1 23.8 19.5 7.3 34.7 11 62.7 15.4l4.5.7 17.7 47c9.7 25.9 17.9 47.4 18 47.8.2.5 10-21.9 21.8-49.7l21.5-50.5 5-1.2c22.9-5.4 57.8-20.4 77.5-33.4 4.7-3.1 8.8-5.9 9.2-6.1.4-.3.5.1.2.9-.3 1 11.7 6.1 47.3 19.9 26.3 10.2 47.9 18.4 48.1 18.3.1-.1-9.2-20.5-20.8-45.3l-21-45 7.6-10.8c18.1-25.9 31.4-55.3 38.8-85.9l2.7-11 50.2-18.9c27.6-10.4 50.6-19.2 51-19.6.4-.4-21.2-10.1-48-21.5s-49.3-21.3-49.9-21.9c-.6-.6-1.6-4.7-2.3-9.1-5.3-34.4-20.7-72.4-41.4-102.3l-6.4-9.3 20.3-44.9c11.2-24.7 20.4-45.1 20.4-45.4 0-.2-21.3 8.1-47.3 18.5l-47.4 19-9.9-6.6c-24.7-16.5-58.7-30.3-89.7-36.6-8.3-1.7-15.3-3.1-15.3-3.2-.1-.1-9.5-22-20.9-48.7C349.1 22.3 339.7.4 339.5.2c-.1-.1-8.6 22.2-18.9 49.5zm65.9 65.2c43.3 7.7 80.9 25.1 114.5 53 34.2 28.4 62 70.5 74.5 112.9 19.4 66 11 134.9-23.5 192.2-38.9 64.8-104.3 106.5-179.9 115.1-15.2 1.7-49.4.7-64.6-2-93.9-16.2-169-85.4-192-177-17.8-70.6-2.9-144.1 41-202.6 36.9-49 93.5-82.9 153.5-91.9 16.3-2.4 16.1-2.4 41-2.1 18.6.2 26 .7 35.5 2.4z"/><path d="M332.4 173c-74 7.2-135.5 58.9-155.5 130.9-7.6 27.5-7.9 62.1-.8 90.6 15.8 63.1 66.3 113.6 129.4 129.4 28.5 7.1 63.1 6.8 90.6-.8 45-12.5 83-41.5 106.6-81.1 9.9-16.7 17.6-36.4 21.3-54.8 2.6-13.2 3.8-26.8 2.2-25.8-.7.4-3.3-.2-5.8-1.3-5.7-2.5-5.4-2.5-5.4-.1 0 1.1-.7 2.3-1.6 2.7-1.5.6-2.9.2-8.7-2.2-1.3-.6-1.6-.3-1.1.9.8 2.1-1.9 3.1-5.4 1.8-2.4-.8-3.1-.7-4 .9-1 1.5-1.7 1.7-3.8.9-1.5-.6-3.8-2-5.2-3.1l-2.6-2-.8 2c-.9 2.7-3.2 2.7-7 0-2.8-2-2.9-2-2.6-.3.5 2.8-3.6 3-7.8.3l-3.6-2.2.7 2.1c.5 1.8.2 2.2-1.6 2.2-1.3 0-4.3-.7-6.6-1.6-4.2-1.6-4.4-1.6-5.7.2-1.4 1.8-1.5 1.8-6.5-.3-4.9-2.1-5.1-2.1-5.1-.2 0 2.7-4.5 2.5-9.9-.6-5.1-3-4.9-2.9-4.7-.8.2 2.8-4.1 2.8-8.5-.1-4.5-3-4.9-3.1-4.9-1.1 0 2.3-3.2 1.8-9.2-1.4l-5.4-2.8-3.7 2.9-3.7 3 5 4.5c2.7 2.5 5 4.8 5 5.2 0 .4-2 1.2-4.4 1.9-2.4.6-5.7 2.2-7.2 3.5l-2.8 2.4h5.5c6.8 0 12.1 2.6 17.8 8.8 4.3 4.6 4.4 4.7 8 3.6 8.7-2.6 24.1-13.2 29.9-20.5 3-3.9 2.8-2.5-1 5.1-3.6 7.4-9.8 13.4-18.4 18-6 3.2-19.6 7.3-24.3 7.3-2.5 0-6.8 2-4.5 2 1.8 0 11.2 8.8 14.5 13.6 3.3 4.8 26.3 23.6 41.1 33.6l9.6 6.5-2.6 1.6c-5.2 3.1-11.1 8.8-15 14.6l-3.9 5.9-1.2-6.5c-2.2-11.8-9.1-26.6-20.7-44-3.7-5.6-5.9-8.1-6.4-7.3-.5.8 1.6 4.8 5.2 10.4 11.2 17 18.4 33.3 19.7 44.6l.7 5.7-6-.4c-4.5-.4-7.7 0-11.9 1.5l-5.9 1.9.7-2.6c2.4-8.9 2.3-31.3-.1-42.1-1.8-7.8-4.9-16-6.2-16-1 0-1.2.6-.7 2.2 5.6 17.1 7.4 33 5.6 47.3-.7 4.9-1.3 10.1-1.4 11.4-.1 1.3-1.2 3-2.4 3.8-1.3.8-4.1 4.3-6.4 7.7-2.3 3.3-3.9 5.2-3.6 4.1 5.5-18.5 7.6-52.4 3.2-52.7-.5 0-1.6-.3-2.3-.6-.7-.2-2.3 0-3.5.5-1.9.9-2.4 2.4-3.5 10.2-.7 5.1-1.9 10.6-2.8 12.2-.8 1.6-1.2 3.5-.8 4.1.4.6.3.8-.3.5-.6-.4-1.5.5-2.2 2-1.4 3-2.5 2.3-4-2.7l-1.1-3.5.4 4.4c.5 5.4 1.9 6.9 4.2 5 1.1-.9.5.9-1.6 4.8-1.8 3.5-3.6 6.3-3.9 6.3-1.5 0-7-6.8-10.3-12.6-2.6-4.5-3.3-6.5-2.6-7.7 1.7-3.2.1-1.7-2.7 2.3-2.9 4.2-4 4.2-4.8 0-.3-1.9-.5-1.6-.6 1.1 0 2-.7 4.2-1.5 4.8-1.1 1-1.8.1-3.4-4.8-1.8-5.3-1.9-6.1-.6-7.2 7.1-5.9 5.5-21.3-3.5-34.1-2.1-3-5.2-8.4-7-11.9-7.1-14.4-20-26.3-32.6-30-11.5-3.4-11.8-3.5-10.9-6.7.4-1.5.8-6.1 1-10.3l.2-7.7-5.7 2.9c-3.2 1.6-9.3 3.8-13.6 4.9-5.7 1.5-33.1 11.9-35.2 13.4-.1 0-.6 6.2-1.3 13.6-1 12.9-1 13.8 1 18.2 2.2 5 2.9 14.5 1.6 20.8-.6 3.2-.6 3.4.8 1.6 1.4-1.8 1.6-1.6 2.2 2.3.4 2.3 1 4.4 1.4 4.6 1 .6 1.7-2.8 2.6-13 .5-6.6.8-7.5 1.6-5.5 2.4 6.3 2.6 23.5.3 25.8-.3.3-4.5-3.2-9.3-7.9-4.8-4.6-10.5-9.7-12.6-11.3-4.8-3.6-8-10.5-7.2-15.4.3-1.9 0-8.5-.6-14.6-.8-8.9-1.6-12.1-3.8-16.1-3.6-6.6-4.3-9.7-3-14.6 2.2-7.9 10.4-14.4 22-17.4 10.5-2.7 22.8-9.7 30.6-17.6l6.8-6.9H267l1.2 2.6c1 2.1.9 2.8-.2 3.5-.8.4-3.3 2-5.6 3.3-3.6 2.3-4.3 2.4-6.1 1.1-1.4-1-2.3-3-2.7-6.7-.6-4.7-.2-6.3 3.3-14.5 7.4-17.3 12.5-24 24.7-32.1 6.5-4.3 9.4-8.2 12.4-16l1.8-4.7 7.8-2c7.7-2.1 7.9-2.1 9-6 .6-2.2 1.4-5.8 1.8-8l.7-4-2 3.2c-4.6 7.4-15.3 11-23.8 8-4.1-1.4-4.3-1.4-5.8.9-.8 1.3-1.5 4.5-1.5 7.3 0 5.6 0 5.6-9.1 6.6-4.7.6-5.7.4-6.3-1-.9-2.5-.1-3.2 4.4-3.9 3.9-.6 4-.7 4-4.6 0-4.9-2.7-8.1-6.2-7.3-1.3.3-3.9 2.4-5.9 4.6-3.2 3.7-4 4.1-8.5 4.1l-4.9.1-.3-10-.3-10 8.7-12c7.6-10.5 9-12.9 10.5-19.3 1.2-5.1 2.5-8.2 4.5-10.3 3-3.2 4-3.5 4.7-1.7.2.7.3.5.2-.4-.2-1 0-2 .5-2.3.4-.2 1-2.3 1.4-4.5l.6-4 3.1 1.6c2.9 1.5 3 1.6 1.2 2.9-1.7 1.3-1.7 1.3.1 1.2 1.3-.1 2.2.8 3.1 3.3 1.1 3.1 1.1 2.6.7-4.8-.5-9.6.1-10.1 7.1-5.4 4.1 2.8 4.5 2.8 14.6 2.4 9.8-.4 10.4-.3 9.8 1.4-.7 1.8-.6 1.8.6.2 1.3-1.6 1.6-1.5 5 .5 3 1.8 3.4 2.5 2.6 4-1 1.6-.9 1.7 1 .5 1.8-1.1 2.4-.9 5 1.6 2.8 2.7 2.9 3 1.3 4.3-1.5 1.2-1.4 1.3.8.2s2.7-.9 6 2.9c3.6 4.1 3.7 4.1 9.2 3.5 7.2-.7 9.9 0 14.3 3.9l3.6 3.1 7.7-2.3c10.3-3 23.7-3 33.7.1 13.2 4 20.1 8.4 31.3 19.9 12.3 12.4 28.2 30.4 28.2 31.8 0 1-3.3 2.2-6.4 2.2-1 0-3.1 1-4.6 2.2-6.3 5-11.6 8.6-13.6 9.2-1.2.4-2.4 1.5-2.7 2.6-.3 1-2 2.8-3.8 3.9-1.9 1.1-4.2 2.6-5.2 3.3-1 .7-2.1 1.3-2.6 1.3-.4 0-2 1.5-3.5 3.2-1.5 1.8-3.2 3.3-3.7 3.3s-2.5 1.6-4.3 3.5c-1.9 1.9-4.1 3.5-5 3.5-.9 0-1.6.4-1.6 1 0 1.1-7.3 5-9.5 5-.8 0-1.5.5-1.5 1.1 0 1.8-5 6-6.2 5.3-.7-.4-.8-.2-.4.5.5.7-.9 1.9-3.8 3.2-2.5 1.1-5 2.9-5.6 3.9-.6 1.1-1.5 2-1.9 2-.5 0-2.2 1.3-3.9 2.8-1.6 1.6-4.8 3.4-7.1 4.2-2.3.7-4.1 1.9-4.1 2.6 0 .8-2.2 3-5 5.1-5.2 3.9-5.9 5.1-1.8 3.2 2-.9 3.2-.8 5.8.6 1.7.9 3.4 1.4 3.6 1.2.3-.2-.9-1-2.6-1.7l-3.1-1.3 3.7-3.8c2.1-2.2 4.4-3.9 5-3.9.7 0 4.3-2.7 8.1-5.9l6.7-5.9 7.4 7.6 7.4 7.7-6.6-7.4-6.7-7.4 3.3-2.8 3.3-2.8 4.9 5.2 4.9 5.2-4.8-5.8c-2.5-3.1-4.1-5.7-3.5-5.7.6 0 2.2-1.2 3.6-2.7 1.4-1.5 3.9-3.2 5.7-3.9 1.8-.6 3.9-1.4 4.8-1.8 1.2-.5 3.6 1.7 9.2 8.6 4.1 5.1 10.1 11.8 13.3 14.8 5.5 5.2 5.4 5.1-1.2-2.1-13.7-15-20.3-24.9-16.5-24.9.4 0 3.5 3.5 6.8 7.7 3.4 4.3 7.7 9.1 9.5 10.8 3.3 3 3.3 3-.3-1-2-2.2-6.2-7.3-9.4-11.3-4.7-5.9-5.5-7.5-4.5-8.7 1-1.2 2.1-.2 7 6.3 3.3 4.2 8.7 10.6 12 14.2l6.2 6.5-6-7c-9.7-11.5-17.2-21.6-16.6-22.6 1.2-2 3.2-.5 8.6 6.9 3.2 4.2 9.5 11.6 14 16.3 4.6 4.7 6.3 6.3 3.7 3.5-13.3-14.9-21.9-25.9-21.9-28.2 0-1.7 4.7-6.4 6.3-6.4.7 0 3.3 3.3 6 7.3 2.6 3.9 6.1 8.8 7.8 10.7 1.7 1.9-.4-1.6-4.6-7.7-6.8-10-8.2-13.3-5.6-13.3.4 0 3.5 4 6.9 9 3.5 4.9 6.5 9 6.8 9 .2 0-2.4-4.1-5.8-9.1-6-8.6-6.2-9.1-4.4-10.5 1.8-1.3 2.5-.5 10.8 11.9 4.9 7.2 9.8 14.1 11 15.2 1.1 1.1-.4-1.4-3.3-5.5s-7.7-11.3-10.6-16l-5.3-8.5 2.6-2.3c1.4-1.2 3-2.2 3.7-2.2.7 0 3.6 3.8 6.5 8.4 7 11.3 19.7 29 21.9 30.7 1.3.9 1.2.6-.3-1.1-3.5-4.1-13.5-18.7-20-29.4-5.9-9.5-6.1-10.1-4.7-12.3.8-1.3 2.1-2.3 2.8-2.3.7 0 2.4-.9 3.7-2 1.4-1 2.9-1.6 3.3-1.2.5.4.5.1.1-.6-.5-.8.1-1.2 2.1-1.2 2.4 0 3.5 1.2 7.8 7.7 5.8 9 19.2 27.3 20 27.3.3 0-1.8-3.3-4.6-7.3-14.5-20.5-18.8-27.5-17.6-28.6 1-.8 2.8.8 7.3 6.7 17.6 22.8 34.9 49.4 45.7 70.2l4.9 9.5-.6-13.6c-.4-7.4-1.3-17.5-2-22.5-11.7-76.5-72.5-137.3-149-149-12.1-1.8-33.1-2.5-44.2-1.4zm-21 88.6c.3.9.2 1.2-.5.9-.6-.4-2 .1-3.2 1.1-1.8 1.6-1.8 1.4.2-.9 2.9-3.2 2.7-3.1 3.5-1.1zm-84.7 43c2 1.3 4.3 6.8 4.3 10.5 0 1.4 4.4 4.7 17.3 13 .8.6-1.4 4.2-8.4 14.2-.3.4-4.8-1.6-9.9-4.6l-9.3-5.5-9.2 10.4-9.2 10.5.1 5.3c0 3.1-.5 6.1-1.3 7-1.1 1.3-.9 2 1.2 4.7l2.5 3.2-8.6 10.9-8.5 11-4.3-12.3c-3.1-8.9-4.4-14-4.4-17.9 0-5.9 2.9-13.6 5.4-14.6.8-.3 6-7.8 11.4-16.7 8.1-13.1 10.1-17.1 10.5-21.1.3-2.9 1.2-5.6 2.5-6.8 3.8-3.8 12.9-4.4 17.9-1.2zm238.8 74.9c3.9 1.6 7.4 3.2 7.8 3.5 1.2 1-19.9 10.6-29.5 13.4-10.1 2.9-24.7 5.6-29.8 5.5-3.5 0-3.5-.1 1.6-1.8 16-5.8 27.8-16.7 31.3-29.3l1.2-4.3 5.2 5c3.5 3.4 7.5 6 12.2 8zm5.7 13.7c-1.7 5.1-2.6 10.5-3 17.7l-.5 10.4-11.6-.6c-18.7-.9-35.7-5-50.1-12l-6.5-3.2 11.5-.7c19.6-1.2 37.2-5.6 52.2-13.2 5.7-2.9 10.3-5.3 10.4-5.4 0-.1-1 3.1-2.4 7zm-153.8 6.7c1.6 1.8 1.6 1.9-1 2.5-1.8.5-3 .3-3.5-.6-.7-1-.9-.9-.9.4 0 1-.6 1.8-1.4 1.8-.8 0-1.7.4-2 .9-.4.5.4.7 1.6.3 1.6-.4 2.9.3 5 2.9l2.8 3.4-6 1.1c-3.3.6-6.3 1.4-6.7 1.9-.5.4.3.5 1.7.1 4.8-1.2 10-1.9 10-1.2 0 .3-1.1 2.4-2.5 4.6-2.9 4.5-3.4 4.5-9.4-.9-2.6-2.3-3.7-2.8-4.3-1.9-.4.7-.8.9-.8.4 0-1.9 13.3-17.6 15-17.6.4 0 1.5.8 2.4 1.9zm5.2 4.6c.2.5-.5 2.1-1.6 3.5l-2 2.5-2.6-2.9c-2.5-2.8-2.5-3-.8-3.7 2.5-1 6.7-.7 7 .6zm97.1 12.4c11.3 3.8 23.5 6 37 6.8l10.2.6-1.9 2.5c-3 3.7-5 11.7-5 19.4 0 3.7-.3 6.8-.6 6.8-1.3 0-19.6-13.3-31.5-22.9-14.6-11.7-21-17.4-18.9-16.7.8.2 5.7 1.8 10.7 3.5zM305.9 419l3.4 2.9-4.2 1.7c-5.2 2.1-4.9 2.8.4.9 6.2-2.2 6.6-2 4.6 2.5-1 2.2-2.1 4.3-2.4 4.6-.7.8-7.8-.4-9.7-1.6-1.3-.8-1.2-1.2.5-2.5 1.9-1.4 1.8-1.4-1-.3-1.6.7-3.3 1.7-3.7 2.3-.4.5-1 .6-1.3.3-.4-.4.8-3.4 2.6-6.7 2.9-5.2 4.2-6.5 6.9-6.9.3-.1 2 1.2 3.9 2.8zm-3.2 13.3c4.2 1.1 4.2 1.1 3.6 5.2-.6 5.1-1.3 5.7-5.4 5.3l-3.4-.3 4.5-3.3c2.4-1.7 3.9-3.2 3.2-3.2-.7 0-3 1.6-5.2 3.6-3.5 3.2-4.4 3.6-7.7 3l-3.8-.5 3.2 1.2c2.9 1.1 3.1 1.3 1.7 3.2-.9 1.1-2 2.8-2.5 3.7-1.7 3.2-.2 1.9 2.6-2.2 2.5-3.6 3.2-4 7.1-4 4.2 0 4.4.1 4.4 3 0 2.2-1 4.1-3.5 6.5-2.9 3-4.1 3.5-8.1 3.5-4.3 0-4.6-.2-4.1-2.3.6-2.1.6-2.1-.8-.3-1.5 1.9-1.5 1.9-1.5-.5.1-3.6 1.6-13.9 2.9-18.6 1.2-4.3 3-5.5 6.6-4.6 1.1.3 3.9 1 6.2 1.6zm3.1 21.4c-.2 1-1.4 2-2.8 2.2-2.5.3-2.5.3-.6-1.8 2.3-2.6 3.9-2.7 3.4-.4zm2.2 5.2c1.1 2.8.6 4.5-2.7 9-.2.3-2.9 1-6.1 1.7-3.1.7-4.6 1.3-3.2 1.3 1.4.1 4-.3 5.8-.8 3.1-.9 3.3-.9 2.6 1.2-.4 1.2-1.2 4.7-1.9 7.7-1 4.9-1.4 5.5-4.4 6.4-3.8 1.1-4.1.8-7.1-7.2-1.9-5-4.7-19.9-3.9-20.6.2-.1 2.8 0 5.7.2l5.2.4-2.1 3.4c-2.9 4.7-1.8 4.3 1.4-.5 1.8-2.7 3.5-4.1 5.4-4.4 1.5-.2 3.1-.5 3.4-.6.4 0 1.2 1.2 1.9 2.8zm5 6c0 .4-1.3 1.2-3 1.8l-3 1.1 1.6-3c1.2-2.4 1.8-2.7 3-1.7.8.6 1.4 1.4 1.4 1.8zm3.1 2.3c1.2 1 1.4 2.7 1.1 6.6-.4 5.3-.5 5.4-4.9 7.3-2.5 1-5.6 2.2-7 2.5-2.5.7-2.6.6-1.9-3.2 1.8-9.7 2.5-11.1 6.4-12.7 4.7-1.9 4.6-1.9 6.3-.5zm9.2 3.5c4 .8 3.3 2.7-2.3 5.7l-5 2.7v-4.4c0-4.9.7-6 2.9-5.2.9.4 2.8.9 4.4 1.2zm25.5 15c-2.3 2.3-4.5 4-5 3.7-.4-.3-1.5-2.9-2.3-5.8-1.5-5.2-1.5-5.5.7-8.9 1.3-1.9 3.2-4 4.3-4.5 1.8-.8 2.2-.3 4.2 5.2l2.2 6.1-4.1 4.2zm-7.6-11.1c-.7 1.2-1.1 1.3-1.7.4-.4-.7-.2-1.6.6-2.1 1.8-1.1 2.3-.4 1.1 1.7zm-2.8.8c.5 1.6-.5 3.1-4 6.3-5.2 4.8-4.8 5.8.6 1.3 1.9-1.7 3.7-2.7 4.1-2.2 1.1 1.2 3.9 10.4 3.4 11.2-1.2 2-8.7 6.2-9.5 5.4-1.4-1.4-6.2-21.3-5.6-23 .4-1.1 1.9-1.4 5.5-1.3 4.1.2 5.1.6 5.5 2.3zm28.2 8.2c-.8 3-5.5 8.6-6.7 7.8-.5-.3-2-2.7-3.4-5.4-2.5-5-2.3-5.9 1.8-7.3.9-.4 2.2-1.8 2.9-3.2l1.1-2.5 2.4 4.2c1.5 2.6 2.2 5.1 1.9 6.4zm-39.2-.4c.6 3.6.5 3.8-3.9 6.3-6.1 3.6-7.5 2.9-7.5-3.9V480l4.8-2.4 4.7-2.4.6 2.1c.3 1.2.9 3.9 1.3 5.9zm-12.2 2.8c0 2.7.1 5.5.2 6.2.1.6-2.6 2.1-5.9 3.4-3.3 1.3-5.4 2.3-4.8 2.3.7.1 3.5-.8 6.3-1.8l5-1.9 1 4c.6 2.1 1.4 4.6 1.7 5.4.8 2.2-2.2 1.7-8.5-1.6-9.8-5-10.4-5.8-9.7-11.6l.7-5 5.7-2.1c8.1-3 8.1-3 8.3 2.7zm41.1 1.9c1.5 2.7 2.7 5.3 2.7 5.9 0 .5-2.1 2.6-4.6 4.7-4.3 3.6-4.6 3.6-5.9 1.9-.8-1.1-1.9-3.4-2.6-5.2-1-3.1-.8-3.5 2.8-7.6 2.1-2.4 4-4.5 4.3-4.5.3-.1 1.7 2.1 3.3 4.8zm16 8.3c-2 2.1-4.2 3.8-4.9 3.8-.7 0-2.4-1.4-3.8-3l-2.5-3.1 3.6-5 3.5-5 3.9 4.3 3.9 4.2-3.7 3.8zm-72.7-8c-.3 1.3-.6 3.2-.6 4.3-.1 1.7-.6 1.4-3.1-1.5l-3-3.5 2.3-.7c4.3-1.2 5.1-.9 4.4 1.4zm30.8 5.4c1 3.1 1.6 5.7 1.4 6-.2.2-2.9 1.5-5.9 2.8-2.9 1.4-4.8 2.5-4.1 2.5.7.1 3-.8 5.2-1.9 2.2-1.1 4.4-2 4.9-2 .8 0 4.1 6 4.1 7.4 0 .8-13.5-1.6-14.6-2.5-1.4-1.2-4.6-11-3.8-11.8.6-.7 9.7-5.9 10.5-6 .3-.1 1.3 2.4 2.3 5.5zm15.4 3.9c1.2 2.5 2.2 4.9 2.2 5.4 0 1.1-7.6 6.1-9.4 6.1-1.4 0-5.4-8.6-4.5-9.5 1.1-1 8.5-6.4 9-6.4.3-.1 1.5 1.9 2.7 4.4zm17.4.2c1.5 1.5 2.8 3.1 2.8 3.5 0 1.1-9.9 5.8-12.2 5.8-.9 0-2.1-.8-2.6-1.7-.8-1.3 0-2.6 3.7-5.9 2.5-2.4 4.8-4.3 5-4.4.3 0 1.8 1.2 3.3 2.7zm-12.8 7.9c.8 2.2.8 2.2-4.4 3l-4.5.7 3.5-2.6c4.2-3.1 4.6-3.1 5.4-1.1z"/><path d="M222.5 321c-.3.5-2.2 1-4.1 1-2.2 0-3.3.4-2.9 1.1.4.6 2.4.9 4.5.8 3.1-.3 4.8.4 9.6 4.1l5.9 4.4-5.4-6.2c-5.5-6.3-6.5-7-7.6-5.2zM193.5 371.1c-5.1 3.1-3.3 3.1 3.6-.1 2.2-.9 3.6-2 3.2-2.3-1-1-1.4-.9-6.8 2.4zM291.5 469.5c-1 2-1.6 3.8-1.3 4 .3.3 1.3-1.1 2.3-3 2.2-4.7 1.5-5.5-1-1zM292 200.6v6.2l-7 4.8c-3.8 2.6-7 4.9-7 5.2 0 .4 7.1-3.6 11.8-6.6 2.1-1.4 2.2-1.3 2.2 1.2 0 1.4.3 2.6.8 2.6.4 0 2.4.5 4.6.9l3.8.9-.5-3.8c-.5-4.1-3.6-10.9-6.7-15l-2-2.5v6.1zM302 200.7c1.1 2.1 2.5 5.5 3.1 7.6.5 2.1 1.4 3.5 1.9 3.2 1.7-1.1 1.1-4-1.9-8.7-3.6-5.7-5.9-7.3-3.1-2.1zM281.2 202.5c0 1.1.3 2.9.8 4 1.1 2.5 1.1-.1 0-3.5-.6-2-.8-2.1-.8-.5zM272.1 210.6c0 1.1.3 1.4.6.6.3-.7.2-1.6-.1-1.9-.3-.4-.6.2-.5 1.3zM323.4 221.3c4.9 4.9 7.2 8 7.2 9.7.1 1.4 1.1 6.1 2.3 10.5 3.3 12.2 5.1 25.7 5.1 39.2 0 6.7.4 12.4.9 12.7 1 .7 4.1-6.3 6.7-14.9 2.7-8.8 2.5-22.2-.4-30.7-3.9-11.4-11.2-20.8-22.7-29.5-6.6-5-6.5-4.6.9 3zm19.3 56.4c-.3 1-.5.4-.5-1.2 0-1.7.2-2.4.5-1.8.2.7.2 2.1 0 3zm-1 5.5c-.3.8-.6.5-.6-.6-.1-1.1.2-1.7.5-1.3.3.3.4 1.2.1 1.9zm-1 5c-.3.7-.5.2-.5-1.2s.2-1.9.5-1.3c.2.7.2 1.9 0 2.5zM342 217.6l-5.5 1.3 5-.5c2.8-.3 5.4-.7 5.9-.7.5-.1 1.9 1.8 3.3 4.3l2.4 4.5-5.3.6c-5.2.6-5.2.6-1.3.9 2.2.2 4.8.4 5.8.3 1.2 0 2.1 1.4 3 4.3l1.3 4.4 4.6-7c2.5-3.9 4.3-7 3.9-7-.3 0-2.3 1.1-4.3 2.5s-3.9 2.5-4.1 2.5c-.3 0-1-1.3-1.6-2.9-.7-1.5-2.7-4.2-4.4-5.8-3.2-3-3.2-3-8.7-1.7zM389.5 226.9c-.6.6-5.5 3.7-11 7l-9.9 6.1-.2 12.3c-.1 9.5-.7 14.5-2.8 22.5-2.6 10.3-3.1 16.9-1.7 20.7.7 1.6.9 1.3 1.5-1.9.4-2.2 2-7.2 3.6-11.2 1.6-4 3.4-10.2 4.1-13.9 1.4-8.2 11.6-30.3 15.2-33.1 1.5-1.2 2.7-3.3 3-5.7.6-3.7 0-4.6-1.8-2.8zM275.4 231.9c-3.8 2.3-5.9 5-2.5 3.2 1.7-1 2-.9 1.5.4-.7 1.8 0 1.9 2.8.4 1.7-.9 1.8-1.3.7-2-1-.6-.4-.9 1.9-.9 3.7 0 5.1 2.1 3.1 4.8-.7.9.1.4 1.9-1.2 1.8-1.7 3.2-3.3 3.2-3.7 0-.8-5.6-2.9-7.9-2.9-.9 0-3 .9-4.7 1.9zM351.9 238.6c1.9.8 3.6 1.2 3.9.9.5-.5-4.3-2.5-6.1-2.5-.7.1.3.7 2.2 1.6zM259.4 242.2l-2.9 3.3 3.3-2.9c3-2.8 3.7-3.6 2.9-3.6-.2 0-1.6 1.5-3.3 3.2zM310.4 246.5c-.3 1.4-1.4 3-2.3 3.5-.9.5-1.1 1-.4 1 1.8 0 4.3-2.9 4.3-5.1 0-2.7-.8-2.4-1.6.6zM254 246.5c-1.4 1.7-.4 16.3 1 14.8.5-.4.4-3.5-.2-6.7-.8-4.3-.8-6.4.1-7.8 1.3-2.2.8-2.4-.9-.3zM351 247.4c0 .2.7.7 1.6 1 .8.3 1.2.2.9-.4-.6-1-2.5-1.4-2.5-.6zM283.4 251.1l-2.9 3.1 3.3-1.6c1.8-1 4.5-1.6 6-1.4 1.9.2 2.8-.2 3-1.5.3-1.3-.4-1.7-3-1.7-2.5 0-4.2.8-6.4 3.1zM408 255.4c0 .2.8 1 1.8 1.7 1.5 1.3 1.6 1.2.3-.4s-2.1-2.1-2.1-1.3zM393 259.4c0 .2 1.2 1.2 2.8 2.1l2.7 1.8-1.9-2.1c-1.7-2-3.6-2.9-3.6-1.8zM464 279c4.3 8.3 31.7 45 33.7 45 .3 0-1-1.9-2.9-4.3-8.3-10.2-17-21.9-23.3-31.2-7.3-10.7-9.5-13.5-7.5-9.5zM462 284.5c3.5 6.4 17 25.4 19.5 27.5.8.7-3.7-6.3-10.1-15.6-6.3-9.3-11.8-17.1-12.1-17.4-.4-.3.8 2.2 2.7 5.5zM454 281.4c0 .2.8 1 1.8 1.7 1.5 1.3 1.6 1.2.3-.4s-2.1-2.1-2.1-1.3zM352.6 290.3c.3 1 .9 1.5 1.2 1.2.3-.3 0-1.1-.7-1.8-1-.9-1.1-.8-.5.6zM346.7 297.5c1 1.3 2.2 2.5 2.7 2.5s-.1-1.1-1.4-2.5c-3-3.2-3.6-3.2-1.3 0zM433.1 305.4c1.7 2.5 4.5 6 6.1 7.8 1.6 1.8.4-.2-2.8-4.5-3.1-4.2-5.8-7.7-6.1-7.7-.2 0 1 2 2.8 4.4zM453.5 316.5c4.2 5.9 14.4 18.3 15.5 19 1.1.7-15.4-20.3-17.3-22-.6-.6.2.8 1.8 3zM410 322.9c2.3 3.2 7.3 9.2 11.2 13.3 5.1 5.3 5.6 5.7 1.7 1.3-2.9-3.3-7.7-9.3-10.6-13.3-6.4-8.6-8.1-9.6-2.3-1.3zM446.5 322.9c2.6 3.3 5.6 6.8 6.8 7.8 1.1 1-.8-1.7-4.3-6-7.4-9-9.3-10.4-2.5-1.8zM467.9 320.7c1.1 1.6 3.4 4.4 5.1 6.3 1.7 1.9 1 .7-1.6-2.8-4.6-6.1-7.5-8.9-3.5-3.5zM450 319.4c0 .2.8 1 1.8 1.7 1.5 1.3 1.6 1.2.3-.4s-2.1-2.1-2.1-1.3zM481 319.4c0 .2.8 1 1.8 1.7 1.5 1.3 1.6 1.2.3-.4s-2.1-2.1-2.1-1.3zM464 322.4c0 .2.8 1 1.8 1.7 1.5 1.3 1.6 1.2.3-.4s-2.1-2.1-2.1-1.3zM484 323.4c0 .2.8 1 1.8 1.7 1.5 1.3 1.6 1.2.3-.4s-2.1-2.1-2.1-1.3zM467 326.4c0 .2.8 1 1.8 1.7 1.5 1.3 1.6 1.2.3-.4s-2.1-2.1-2.1-1.3zM479 326.4c0 .2.8 1 1.8 1.7 1.5 1.3 1.6 1.2.3-.4s-2.1-2.1-2.1-1.3zM499 326.4c0 .2.8 1 1.8 1.7 1.5 1.3 1.6 1.2.3-.4s-2.1-2.1-2.1-1.3zM488 328.4c0 .2.8 1 1.8 1.7 1.5 1.3 1.6 1.2.3-.4s-2.1-2.1-2.1-1.3zM480.7 336.5c2.8 3.3 7.5 8.2 10.4 11 3.8 3.5 3.2 2.6-2.1-3-10.7-11.6-14.1-14.9-8.3-8zM457 335.5c1.3 1.4 2.6 2.5 2.8 2.5.3 0-.5-1.1-1.8-2.5s-2.6-2.5-2.8-2.5c-.3 0 .5 1.1 1.8 2.5zM493.5 335c1 1.1 2 2 2.3 2 .3 0-.3-.9-1.3-2s-2-2-2.3-2c-.3 0 .3.9 1.3 2zM387 339.5c1.3 1.4 2.6 2.5 2.8 2.5.3 0-.5-1.1-1.8-2.5s-2.6-2.5-2.8-2.5c-.3 0 .5 1.1 1.8 2.5zM471 338.3c0 .2 1.5 1.6 3.3 3.3l3.2 2.9-2.9-3.3c-2.8-3-3.6-3.7-3.6-2.9zM496 338.3c0 .2 1.5 1.6 3.3 3.3l3.2 2.9-2.9-3.3c-2.8-3-3.6-3.7-3.6-2.9zM281.9 344.7c-1.2 1.4-29.4 23.5-34.6 27.1-1.6 1.1-1.6 1.2.7.6 10.1-2.4 25-12.5 31.2-21.1 4.4-6.1 6.5-11.2 2.7-6.6zM377 343.4c0 .2.8 1 1.8 1.7 1.5 1.3 1.6 1.2.3-.4s-2.1-2.1-2.1-1.3zM351.4 356.2c.3 1 .9 2.4 1.2 3.2.3.7-.2 2.1-1.1 3-.9.9-1.2 1.6-.6 1.6s1.5-.9 2.1-2c.8-1.5.7-2.7-.5-4.7-.9-1.6-1.4-2-1.1-1.1zM337 357c0 .5.5 1 1.1 1 .5 0 .7-.5.4-1-.3-.6-.8-1-1.1-1-.2 0-.4.4-.4 1zM359 357.8c0 .5 2.1 4 4.6 7.8 9.2 13.7 18.2 34.2 22.9 51.9 2.9 11 3.3 8.3.5-3.5-4.4-18.5-11.3-34.4-21-48.5-5.3-7.5-7-9.5-7-7.7zM328 361.3c0 .2 1.2 3 2.6 6.1 1.4 3.1 2.4 6.6 2.2 7.8-.7 4.8-8.7 2.8-14.7-3.6-3.4-3.7-4.6-3.2-2.2.8 1.2 1.8 2.1 4.7 2.1 6.5 0 4.3-2.9 4.1-8-.5-2.2-2-4-3.2-4-2.7 0 2.6 7.5 7.3 11.5 7.3 2.5 0 2.7-.3 2.3-3.8l-.3-3.9 3 1.9c4.2 2.5 10.1 2.4 11.5-.3 1.4-2.5.6-6.3-2.1-10-2.5-3.6-2.4-4.4.3-2.5 1.2.9 3.6 1.5 5.3 1.5 3-.1 3-.1-.5-.8-1.9-.4-4.7-1.5-6.2-2.5-1.6-1-2.8-1.6-2.8-1.3zM340.1 362.6c0 1.1.3 1.4.6.6.3-.7.2-1.6-.1-1.9-.3-.4-.6.2-.5 1.3zM357 365.9c1.3 2.3 2 5.3 1.8 7.3-.4 4.8-4 4.9-10.9.3-4.7-3.2-5.1-3.4-2.9-1 3 3.3 7.8 5.5 11.9 5.5 2.9 0 4.1-1.4 4.1-5.1 0-2.3-3.5-9.5-5-10.4-.6-.4-.1 1.2 1 3.4z"/><path d="M366.9 376.8c1.5 2.8 1.4 7.9-.1 8.5-1.4.5-6.2-1.7-9.3-4.2-1.4-1.1-1.3-.7.4 1.1 3.4 3.8 8.8 5.5 10.9 3.5 1.3-1.4 1.4-2.2.3-5.6-.6-2.2-1.6-4.3-2.2-4.7-.8-.4-.8 0 0 1.4zM242.1 380.6c0 1.1.3 1.4.6.6.3-.7.2-1.6-.1-1.9-.3-.4-.6.2-.5 1.3zM336.1 385.7c2.1 4.1 2.5 8.9.8 9.5-1.6.5 6.6 7.6 9.7 8.4 4 1 6.1-1.6 4.7-6.1-1-3.2-.2-4.8 1.2-2.5.3.5 1.4 1 2.3 1 1 0 .5-.6-1.3-1.6-1.6-.8-4.1-2.5-5.4-3.7l-2.4-2.2 1.8 2.8c2.1 3.4 3.6 10.5 2.3 11.3-1.5 1-5.5-.5-8.7-3.2-2.7-2.2-2.9-2.8-1.9-4.9.9-2 .7-3.3-.7-6.5-1-2.2-2.4-4.5-3.1-5.1-.7-.5-.4.7.7 2.8zM240.6 385.6c-.4 1.4-.5 2.8-.3 3.1.3.2.8-.8 1.1-2.3.4-1.4.5-2.8.3-3.1-.3-.2-.8.8-1.1 2.3z"/><path d="M358.6 387.5c1.9 4.6 1.8 7.2-.3 8.4-1.7 1-1.7 1 0 1.1 1.1 0 2.1-.9 2.4-2 .5-1.9.8-1.7 4.5 1.5 3.1 2.8 4.6 3.5 7.1 3.3 2.8-.3 3.2-.7 3.5-3.6.2-2.1-.4-4.4-1.8-6.5-1.2-1.8-1.9-2.5-1.6-1.7 2.7 8 2.9 9.1 1.8 10.2-2.8 2.8-11.1-2.8-14.1-9.8-2.3-5.2-3.7-6-1.5-.9zM326.5 392c1 1.1 2 2 2.3 2 .3 0-.3-.9-1.3-2s-2-2-2.3-2c-.3 0 .3.9 1.3 2zM364.8 403.5c.4 4.2.3 4.5-1.9 4.5-1.4 0-4.2-1.2-6.2-2.6-2.1-1.4-4.1-2.3-4.4-2-.4.3-.2.6.4.6.5 0 1 .6 1.1 1.2 1.4 9.2 1.4 9.8-.2 10.4-.9.3-3.2-.3-5.1-1.5-1.9-1.1-3.5-1.8-3.5-1.6 0 1.1 6.6 4.5 8.7 4.5 2.8 0 3.9-3.4 2.3-7.4-1.3-3.6-.7-4.2 2.2-2.2 3.4 2.4 7.6 2.1 8.3-.7.6-2-.8-7.7-1.9-7.7-.2 0-.1 2 .2 4.5zM380.8 408.2c.4 3.8.1 4.9-1.2 5.4-1.8.7-5.3-1.3-8.6-4.8-1.7-1.8-2-1.9-2-.5 0 .9.3 1.7.8 1.7.4 0 .8 2.5 1 5.5.3 5.3.2 5.5-2.2 5.5-1.3 0-3.9-1.2-5.8-2.7-2.8-2.4-3-2.4-1.3-.4 1.1 1.3 3.5 3 5.4 3.8 3.2 1.4 3.6 1.3 4.9-.4 1.3-1.7 1.2-4.7-.4-8.8-.7-1.8-.6-1.8 2 .3 6.1 4.7 11.2 1.1 8.3-5.9l-1.4-3.4.5 4.7zM358.9 418.7c.6 1.2 1.1 3.8 1.1 5.7 0 3.1-.3 3.6-2.3 3.6-1.2 0-3.3-.8-4.6-1.7-1.4-.9-2.1-1.1-1.6-.4 1.3 2.2 6.8 4.1 8.3 2.9 1.7-1.5 1.5-8-.4-10.4-1.5-1.8-1.5-1.8-.5.3zM384.6 420.5c4 13.4-.5 17.4-9.8 8.7-3.2-2.9-4.9-4-4.4-2.7 1.2 3.2 2.2 9.8 1.8 12.2-.3 1.8-1 2.3-3.3 2.3-2.2 0-4.1-1.2-7.4-4.6-2.5-2.5-4.5-4.2-4.5-3.7 0 1.6 7.3 8.3 9.7 8.9 2.1.6 2.8 1.6 2.4 3.7-.1.5.3.5.9.2.6-.4.9-1 .6-1.3-.3-.3.4-1.2 1.5-2 1.8-1.3 2.1-2.2 1.7-6.8l-.5-5.2 3.1 2.3c1.7 1.2 4.4 2.5 6 2.9 5.4 1.3 7.3-5.4 3.6-12.9-1.1-2.2-1.8-3.1-1.4-2zM393.6 423.6c-2.3 2.2-2.1 2.9 2.6 7.6l4.1 4.3-.7-3c-2.7-11.3-3.1-11.9-6-8.9zM389.2 429c0 1.4.2 1.9.5 1.2.2-.6.2-1.8 0-2.5-.3-.6-.5-.1-.5 1.3z"/><path d="M378.8 444.4c.3 4.4.1 5.5-1.2 5.9-1.4.4-1.3.5.1.3 1.3-.1 1.9-1.1 2.1-4 .3-3.8.3-3.8 2.5-2 1.9 1.6 1.8 1.4-.3-1.1-1.4-1.7-2.7-3.4-3.1-3.8-.3-.4-.4 1.7-.1 4.7zM388.1 441.2c0 1.5-.8 3.4-1.7 4.2-.8.9-1.1 1.6-.6 1.6 1.8 0 3.3-2.9 2.9-5.7l-.4-2.8-.2 2.7zM372.5 448c1 1.1 2 2 2.3 2 .3 0-.3-.9-1.3-2s-2-2-2.3-2c-.3 0 .3.9 1.3 2zM361 448.7c0 1.1 4.9 6.3 5.9 6.3 1.6 0 3.3-2.9 2.8-4.7-.4-1.4-.5-1.4-.6.4-.2 3.7-2.2 3.8-5.3.4-1.5-1.7-2.8-2.8-2.8-2.4zM380 455.9c0 2.5 4.1 8.1 6 8.1 2.5 0 4.2-3.3 3.7-6.8-.4-2.7-.4-2.7-.6.3-.3 6.9-3.9 7.1-7.3.4-1-1.9-1.8-2.8-1.8-2zM371 458.8c0 .7 1.3 2.6 2.9 4.4 2.5 2.8 3.1 3 4.5 1.9.9-.7 1.6-2.3 1.6-3.5 0-2-.1-2-1.3.3-1.7 3.3-2.8 3.1-5.4-.8-1.3-1.9-2.3-2.9-2.3-2.3zM361 460.4c0 1.6 4.2 6.6 5.5 6.6 1.8 0 3.8-3.6 3.2-5.8-.4-1.3-.5-1.2-.6.4-.1 2.5-2.2 4.6-3.7 3.6-.6-.4-1.8-1.8-2.7-3.2-.9-1.3-1.7-2.1-1.7-1.6zM374.4 475.1l-1.8 4.2-1.9-3.9-1.8-3.9.5 3.9c1 7.2 4 7.1 6.5-.3 1.6-4.9.7-4.9-1.5 0z"/></svg>